<?xml version="1.0" standalone="yes"?>

<svg version="1.1" viewBox="0.0 0.0 720.0 540.0" fill="none" stroke="none" stroke-linecap="square" stroke-miterlimit="10" xmlns="http://www.w3.org/2000/svg" xmlns:xlink="http://www.w3.org/1999/xlink"><clipPath id="p.0"><path d="m0 0l720.0 0l0 540.0l-720.0 0l0 -540.0z" clip-rule="nonzero"></path></clipPath><g clip-path="url(#p.0)"><path fill="#000000" fill-opacity="0.0" d="m0 0l720.0 0l0 540.0l-720.0 0z" fill-rule="evenodd"></path><path fill="#000000" fill-opacity="0.0" d="m185.5 101.0l380.0 0l0 322.01575l-380.0 0z" fill-rule="evenodd"></path><path stroke="#000000" stroke-width="2.0" stroke-linejoin="round" stroke-linecap="butt" d="m185.5 101.0l380.0 0l0 322.01575l-380.0 0z" fill-rule="evenodd"></path><path fill="#000000" d="m200.64062 410.6101q-1.171875 0 -2.125 -0.375q-0.953125 -0.390625 -1.640625 -1.125q-0.6875 -0.734375 -1.078125 -1.8125q-0.375 -1.078125 -0.375 -2.46875q0 -1.390625 0.421875 -2.46875q0.4375 -1.09375 1.15625 -1.828125q0.71875 -0.734375 1.671875 -1.109375q0.96875 -0.390625 2.046875 -0.390625q0.6875 0 1.234375 0.09375q0.5625 0.09375 0.96875 0.234375q0.40625 0.125 0.65625 0.25q0.265625 0.125 0.359375 0.1875l-0.453125 1.28125q-0.140625 -0.09375 -0.421875 -0.203125q-0.265625 -0.109375 -0.609375 -0.21875q-0.34375 -0.125 -0.75 -0.1875q-0.40625 -0.078125 -0.8125 -0.078125q-0.890625 0 -1.59375 0.3125q-0.703125 0.296875 -1.203125 0.875q-0.484375 0.578125 -0.75 1.40625q-0.265625 0.8125 -0.265625 1.84375q0 0.984375 0.234375 1.8125q0.234375 0.8125 0.6875 1.390625q0.46875 0.578125 1.15625 0.90625q0.703125 0.3125 1.625 0.3125q1.078125 0 1.78125 -0.21875q0.703125 -0.21875 1.0625 -0.40625l0.390625 1.28125q-0.109375 0.078125 -0.40625 0.203125q-0.28125 0.125 -0.71875 0.234375q-0.421875 0.109375 -1.0 0.1875q-0.578125 0.078125 -1.25 0.078125zm12.404388 -4.390625q0 0.984375 -0.296875 1.796875q-0.28125 0.796875 -0.796875 1.375q-0.515625 0.5625 -1.25 0.875q-0.71875 0.3125 -1.5625 0.3125q-0.84375 0 -1.5625 -0.3125q-0.71875 -0.3125 -1.25 -0.875q-0.515625 -0.578125 -0.8125 -1.375q-0.28125 -0.8125 -0.28125 -1.796875q0 -0.984375 0.28125 -1.78125q0.296875 -0.8125 0.8125 -1.390625q0.53125 -0.578125 1.25 -0.890625q0.71875 -0.3125 1.5625 -0.3125q0.84375 0 1.5625 0.3125q0.734375 0.3125 1.25 0.890625q0.515625 0.578125 0.796875 1.390625q0.296875 0.796875 0.296875 1.78125zm-1.546875 0q0 -1.40625 -0.640625 -2.234375q-0.625 -0.828125 -1.71875 -0.828125q-1.09375 0 -1.71875 0.828125q-0.625 0.828125 -0.625 2.234375q0 1.40625 0.625 2.234375q0.625 0.8125 1.71875 0.8125q1.09375 0 1.71875 -0.8125q0.640625 -0.828125 0.640625 -2.234375zm3.6431427 -3.921875q0.515625 -0.125 1.359375 -0.265625q0.84375 -0.15625 1.953125 -0.15625q0.984375 0 1.640625 0.28125q0.65625 0.28125 1.046875 0.796875q0.40625 0.5 0.5625 1.203125q0.15625 0.703125 0.15625 1.546875l0 4.671875l-1.484375 0l0 -4.359375q0 -0.765625 -0.109375 -1.296875q-0.109375 -0.546875 -0.34375 -0.875q-0.234375 -0.34375 -0.640625 -0.5q-0.390625 -0.15625 -0.984375 -0.15625q-0.25 0 -0.5 0.015625q-0.25 0.015625 -0.484375 0.046875q-0.234375 0.015625 -0.421875 0.046875q-0.1875 0.03125 -0.265625 0.046875l0 7.03125l-1.484375 0l0 -8.078125zm10.574646 -0.234375l3.15625 0l0 1.234375l-3.15625 0l0 3.84375q0 0.625 0.09375 1.03125q0.09375 0.40625 0.28125 0.640625q0.203125 0.234375 0.484375 0.328125q0.296875 0.09375 0.671875 0.09375q0.671875 0 1.078125 -0.140625q0.421875 -0.15625 0.578125 -0.21875l0.28125 1.234375q-0.21875 0.109375 -0.78125 0.265625q-0.5625 0.171875 -1.28125 0.171875q-0.84375 0 -1.40625 -0.203125q-0.546875 -0.21875 -0.890625 -0.65625q-0.328125 -0.4375 -0.46875 -1.0625q-0.125 -0.640625 -0.125 -1.46875l0 -7.421875l1.484375 -0.25l0 2.578125zm8.119507 -0.1875q0.1875 0 0.4375 0.03125q0.25 0.015625 0.484375 0.0625q0.234375 0.03125 0.4375 0.078125q0.203125 0.046875 0.296875 0.078125l-0.25 1.296875q-0.1875 -0.078125 -0.59375 -0.15625q-0.40625 -0.09375 -1.046875 -0.09375q-0.40625 0 -0.828125 0.09375q-0.40625 0.078125 -0.53125 0.125l0 6.984375l-1.484375 0l0 -7.96875q0.53125 -0.1875 1.3125 -0.359375q0.78125 -0.171875 1.765625 -0.171875zm10.441635 4.34375q0 0.984375 -0.296875 1.796875q-0.28125 0.796875 -0.796875 1.375q-0.515625 0.5625 -1.25 0.875q-0.71875 0.3125 -1.5625 0.3125q-0.84375 0 -1.5625 -0.3125q-0.71875 -0.3125 -1.25 -0.875q-0.515625 -0.578125 -0.8125 -1.375q-0.28125 -0.8125 -0.28125 -1.796875q0 -0.984375 0.28125 -1.78125q0.296875 -0.8125 0.8125 -1.390625q0.53125 -0.578125 1.25 -0.890625q0.71875 -0.3125 1.5625 -0.3125q0.84375 0 1.5625 0.3125q0.734375 0.3125 1.25 0.890625q0.515625 0.578125 0.796875 1.390625q0.296875 0.796875 0.296875 1.78125zm-1.546875 0q0 -1.40625 -0.640625 -2.234375q-0.625 -0.828125 -1.71875 -0.828125q-1.09375 0 -1.71875 0.828125q-0.625 0.828125 -0.625 2.234375q0 1.40625 0.625 2.234375q0.625 0.8125 1.71875 0.8125q1.09375 0 1.71875 -0.8125q0.640625 -0.828125 0.640625 -2.234375zm6.1431427 4.3125q-1.375 -0.03125 -1.953125 -0.578125q-0.578125 -0.5625 -0.578125 -1.75l0 -9.984375l1.484375 -0.265625l0 10.0q0 0.375 0.0625 0.625q0.0625 0.234375 0.203125 0.375q0.15625 0.140625 0.390625 0.21875q0.234375 0.0625 0.59375 0.109375l-0.203125 1.25zm10.939041 -6.71875q-0.265625 -0.21875 -0.78125 -0.421875q-0.515625 -0.21875 -1.125 -0.21875q-0.640625 0 -1.09375 0.234375q-0.453125 0.234375 -0.75 0.640625q-0.28126526 0.40625 -0.40626526 0.96875q-0.125 0.5625 -0.125 1.203125q0 1.453125 0.71876526 2.25q0.71875 0.78125 1.921875 0.78125q0.59375 0 1.0 -0.046875q0.421875 -0.0625 0.640625 -0.125l0 -5.265625zm0 -5.59375l1.484375 -0.265625l0 12.1875q-0.515625 0.140625 -1.3125 0.28125q-0.796875 0.140625 -1.84375 0.140625q-0.953125 0 -1.71875 -0.296875q-0.76564026 -0.3125 -1.3125153 -0.859375q-0.546875 -0.5625 -0.84375 -1.375q-0.296875 -0.8125 -0.296875 -1.8125q0 -0.96875 0.25 -1.765625q0.25 -0.796875 0.71875 -1.375q0.484375 -0.578125 1.1718903 -0.890625q0.703125 -0.328125 1.609375 -0.328125q0.71875 0 1.265625 0.203125q0.5625 0.1875 0.828125 0.359375l0 -4.203125zm3.5802612 8.015625q0 -1.109375 0.3125 -1.921875q0.328125 -0.828125 0.859375 -1.375q0.53125 -0.546875 1.21875 -0.8125q0.6875 -0.28125 1.40625 -0.28125q1.671875 0 2.5625 1.046875q0.90625 1.046875 0.90625 3.203125q0 0.09375 0 0.25q0 0.140625 -0.015625 0.265625l-5.6875 0q0.09375 1.296875 0.75 1.96875q0.65625 0.671875 2.046875 0.671875q0.78125 0 1.3125 -0.125q0.546875 -0.140625 0.8125 -0.265625l0.203125 1.25q-0.265625 0.140625 -0.953125 0.296875q-0.671875 0.15625 -1.53125 0.15625q-1.09375 0 -1.890625 -0.328125q-0.78125 -0.328125 -1.296875 -0.890625q-0.515625 -0.578125 -0.765625 -1.375q-0.25 -0.796875 -0.25 -1.734375zm5.71875 -0.8125q0.015625 -1.015625 -0.515625 -1.65625q-0.515625 -0.65625 -1.421875 -0.65625q-0.515625 0 -0.90625 0.203125q-0.390625 0.203125 -0.671875 0.53125q-0.265625 0.3125 -0.421875 0.734375q-0.140625 0.40625 -0.1875 0.84375l4.125 0zm8.87439 4.953125l-1.484375 0l0 -8.3125l1.484375 0l0 8.3125zm-0.75 -9.828125q-0.40625 0 -0.6875 -0.265625q-0.265625 -0.265625 -0.265625 -0.703125q0 -0.453125 0.265625 -0.71875q0.28125 -0.265625 0.6875 -0.265625q0.40625 0 0.671875 0.265625q0.28125 0.265625 0.28125 0.71875q0 0.4375 -0.28125 0.703125q-0.265625 0.265625 -0.671875 0.265625zm3.3136597 1.75q0.515625 -0.125 1.359375 -0.265625q0.84375 -0.15625 1.953125 -0.15625q0.984375 0 1.640625 0.28125q0.65625 0.28125 1.046875 0.796875q0.40625 0.5 0.5625 1.203125q0.15625 0.703125 0.15625 1.546875l0 4.671875l-1.484375 0l0 -4.359375q0 -0.765625 -0.109375 -1.296875q-0.109375 -0.546875 -0.34375 -0.875q-0.234375 -0.34375 -0.640625 -0.5q-0.390625 -0.15625 -0.984375 -0.15625q-0.25 0 -0.5 0.015625q-0.25 0.015625 -0.484375 0.046875q-0.234375 0.015625 -0.421875 0.046875q-0.1875 0.03125 -0.265625 0.046875l0 7.03125l-1.484375 0l0 -8.078125zm15.684021 -0.234375q-0.625 2.328125 -1.46875 4.46875q-0.84375 2.140625 -1.625 3.84375l-1.34375 0q-0.78125 -1.703125 -1.625 -3.84375q-0.84375 -2.140625 -1.46875 -4.46875l1.609375 0q0.1875 0.78125 0.453125 1.671875q0.265625 0.875 0.5625 1.75q0.296875 0.875 0.59375 1.6875q0.3125 0.8125 0.578125 1.453125q0.265625 -0.640625 0.5625 -1.453125q0.3125 -0.8125 0.609375 -1.6875q0.296875 -0.875 0.5625 -1.75q0.265625 -0.890625 0.453125 -1.671875l1.546875 0zm1.0632324 4.171875q0 -1.109375 0.3125 -1.921875q0.328125 -0.828125 0.859375 -1.375q0.53125 -0.546875 1.21875 -0.8125q0.6875 -0.28125 1.40625 -0.28125q1.671875 0 2.5625 1.046875q0.90625 1.046875 0.90625 3.203125q0 0.09375 0 0.25q0 0.140625 -0.015625 0.265625l-5.6875 0q0.09375 1.296875 0.75 1.96875q0.65625 0.671875 2.046875 0.671875q0.78125 0 1.3125 -0.125q0.546875 -0.140625 0.8125 -0.265625l0.203125 1.25q-0.265625 0.140625 -0.953125 0.296875q-0.671875 0.15625 -1.53125 0.15625q-1.09375 0 -1.890625 -0.328125q-0.78125 -0.328125 -1.296875 -0.890625q-0.515625 -0.578125 -0.765625 -1.375q-0.25 -0.796875 -0.25 -1.734375zm5.71875 -0.8125q0.015625 -1.015625 -0.515625 -1.65625q-0.515625 -0.65625 -1.421875 -0.65625q-0.515625 0 -0.90625 0.203125q-0.390625 0.203125 -0.671875 0.53125q-0.265625 0.3125 -0.421875 0.734375q-0.140625 0.40625 -0.1875 0.84375l4.125 0zm3.6940308 -3.125q0.515625 -0.125 1.359375 -0.265625q0.84375 -0.15625 1.953125 -0.15625q0.984375 0 1.640625 0.28125q0.65625 0.28125 1.046875 0.796875q0.40625 0.5 0.5625 1.203125q0.15625 0.703125 0.15625 1.546875l0 4.671875l-1.484375 0l0 -4.359375q0 -0.765625 -0.109375 -1.296875q-0.109375 -0.546875 -0.34375 -0.875q-0.234375 -0.34375 -0.640625 -0.5q-0.390625 -0.15625 -0.984375 -0.15625q-0.25 0 -0.5 0.015625q-0.25 0.015625 -0.484375 0.046875q-0.234375 0.015625 -0.421875 0.046875q-0.1875 0.03125 -0.265625 0.046875l0 7.03125l-1.484375 0l0 -8.078125zm10.574646 -0.234375l3.15625 0l0 1.234375l-3.15625 0l0 3.84375q0 0.625 0.09375 1.03125q0.09375 0.40625 0.28125 0.640625q0.203125 0.234375 0.484375 0.328125q0.296875 0.09375 0.671875 0.09375q0.671875 0 1.078125 -0.140625q0.421875 -0.15625 0.578125 -0.21875l0.28125 1.234375q-0.21875 0.109375 -0.78125 0.265625q-0.5625 0.171875 -1.28125 0.171875q-0.84375 0 -1.40625 -0.203125q-0.546875 -0.21875 -0.890625 -0.65625q-0.328125 -0.4375 -0.46875 -1.0625q-0.125 -0.640625 -0.125 -1.46875l0 -7.421875l1.484375 -0.25l0 2.578125zm7.853882 7.234375q0.53125 0 0.9375 -0.015625q0.40625 -0.03125 0.6875 -0.09375l0 -2.46875q-0.171875 -0.09375 -0.53125 -0.140625q-0.359375 -0.0625 -0.875 -0.0625q-0.328125 0 -0.703125 0.046875q-0.375 0.046875 -0.6875 0.203125q-0.3125 0.15625 -0.53125 0.421875q-0.203125 0.265625 -0.203125 0.6875q0 0.796875 0.515625 1.109375q0.515625 0.3125 1.390625 0.3125zm-0.125 -7.453125q0.890625 0 1.5 0.234375q0.625 0.234375 1.0 0.65625q0.375 0.421875 0.53125 1.015625q0.171875 0.578125 0.171875 1.28125l0 5.203125q-0.203125 0.03125 -0.546875 0.09375q-0.34375 0.046875 -0.78125 0.09375q-0.421875 0.046875 -0.921875 0.078125q-0.5 0.046875 -1.0 0.046875q-0.703125 0 -1.296875 -0.140625q-0.59375 -0.140625 -1.03125 -0.453125q-0.421875 -0.3125 -0.671875 -0.828125q-0.234375 -0.515625 -0.234375 -1.234375q0 -0.6875 0.28125 -1.171875q0.28125 -0.5 0.75 -0.796875q0.484375 -0.3125 1.125 -0.453125q0.640625 -0.15625 1.34375 -0.15625q0.234375 0 0.46875 0.03125q0.234375 0.015625 0.453125 0.0625q0.21875 0.046875 0.375 0.078125q0.15625 0.03125 0.234375 0.046875l0 -0.421875q0 -0.359375 -0.09375 -0.71875q-0.078125 -0.375 -0.28125 -0.640625q-0.203125 -0.28125 -0.5625 -0.453125q-0.359375 -0.171875 -0.9375 -0.171875q-0.734375 0 -1.296875 0.109375q-0.546875 0.09375 -0.8125 0.21875l-0.1875 -1.234375q0.296875 -0.125 0.96875 -0.25q0.671875 -0.125 1.453125 -0.125zm8.742645 0.03125q0.1875 0 0.4375 0.03125q0.25 0.015625 0.484375 0.0625q0.234375 0.03125 0.4375 0.078125q0.203125 0.046875 0.296875 0.078125l-0.25 1.296875q-0.1875 -0.078125 -0.59375 -0.15625q-0.40625 -0.09375 -1.046875 -0.09375q-0.40625 0 -0.828125 0.09375q-0.40625 0.078125 -0.53125 0.125l0 6.984375l-1.484375 0l0 -7.96875q0.53125 -0.1875 1.3125 -0.359375q0.78125 -0.171875 1.765625 -0.171875zm4.582245 8.5l-1.484375 0l0 -8.3125l1.484375 0l0 8.3125zm-0.75 -9.828125q-0.40625 0 -0.6875 -0.265625q-0.265625 -0.265625 -0.265625 -0.703125q0 -0.453125 0.265625 -0.71875q0.28125 -0.265625 0.6875 -0.265625q0.40625 0 0.671875 0.265625q0.28125 0.265625 0.28125 0.71875q0 0.4375 -0.28125 0.703125q-0.265625 0.265625 -0.671875 0.265625zm10.65741 5.671875q0 0.984375 -0.296875 1.796875q-0.28125 0.796875 -0.796875 1.375q-0.515625 0.5625 -1.25 0.875q-0.71875 0.3125 -1.5625 0.3125q-0.84375 0 -1.5625 -0.3125q-0.71875 -0.3125 -1.25 -0.875q-0.515625 -0.578125 -0.8125 -1.375q-0.28125 -0.8125 -0.28125 -1.796875q0 -0.984375 0.28125 -1.78125q0.296875 -0.8125 0.8125 -1.390625q0.53125 -0.578125 1.25 -0.890625q0.71875 -0.3125 1.5625 -0.3125q0.84375 0 1.5625 0.3125q0.734375 0.3125 1.25 0.890625q0.515625 0.578125 0.796875 1.390625q0.296875 0.796875 0.296875 1.78125zm-1.546875 0q0 -1.40625 -0.640625 -2.234375q-0.625 -0.828125 -1.71875 -0.828125q-1.09375 0 -1.71875 0.828125q-0.625 0.828125 -0.625 2.234375q0 1.40625 0.625 2.234375q0.625 0.8125 1.71875 0.8125q1.09375 0 1.71875 -0.8125q0.640625 -0.828125 0.640625 -2.234375z" fill-rule="nonzero"></path><path fill="#cfe2f3" d="m419.78348 316.5748l0 0c0 -25.622528 21.871063 -46.393707 48.850372 -46.393707l0 0c12.955933 0 25.381226 4.887909 34.54245 13.588409c9.161224 8.7005005 14.307953 20.500916 14.307953 32.805298l0 0c0 25.622528 -21.871063 46.393707 -48.850403 46.393707l0 0c-26.97931 0 -48.850372 -20.77118 -48.850372 -46.393707z" fill-rule="evenodd"></path><path stroke="#000000" stroke-width="1.0" stroke-linejoin="round" stroke-linecap="butt" d="m419.78348 316.5748l0 0c0 -25.622528 21.871063 -46.393707 48.850372 -46.393707l0 0c12.955933 0 25.381226 4.887909 34.54245 13.588409c9.161224 8.7005005 14.307953 20.500916 14.307953 32.805298l0 0c0 25.622528 -21.871063 46.393707 -48.850403 46.393707l0 0c-26.97931 0 -48.850372 -20.77118 -48.850372 -46.393707z" fill-rule="evenodd"></path><path fill="#000000" d="m459.74332 312.59106q0.25 0.875 0.53125 1.8125q0.296875 0.921875 0.609375 1.859375q0.3125 0.9375 0.625 1.84375q0.3125 0.90625 0.59375 1.703125q0.25 -0.859375 0.46875 -1.875q0.21875 -1.015625 0.4375 -2.109375q0.234375 -1.109375 0.453125 -2.234375q0.21875 -1.140625 0.40625 -2.25l2.078125 0q-0.5625 3.015625 -1.25 5.796875q-0.6875 2.765625 -1.53125 5.296875l-1.921875 0q-1.25 -3.234375 -2.421875 -7.0625q-0.59375 1.9375 -1.203125 3.6875q-0.59375 1.75 -1.203125 3.375l-1.921875 0q-0.875 -2.53125 -1.5625 -5.296875q-0.671875 -2.78125 -1.21875 -5.796875l2.15625 0q0.1875 1.09375 0.40625 2.234375q0.21875 1.125 0.4375 2.234375q0.234375 1.09375 0.46875 2.125q0.25 1.015625 0.5 1.875q0.296875 -0.8125 0.609375 -1.71875q0.3125 -0.90625 0.609375 -1.84375q0.3125 -0.9375 0.59375 -1.859375q0.28125 -0.921875 0.515625 -1.796875l1.734375 0zm10.742401 8.484375q0.90625 0 1.359375 -0.09375l0 -2.140625q-0.15625 -0.046875 -0.46875 -0.09375q-0.296875 -0.0625 -0.65625 -0.0625q-0.328125 0 -0.65625 0.0625q-0.328125 0.046875 -0.59375 0.171875q-0.265625 0.125 -0.421875 0.359375q-0.15625 0.234375 -0.15625 0.578125q0 0.6875 0.421875 0.953125q0.4375 0.265625 1.171875 0.265625zm-0.15625 -7.21875q0.953125 0 1.609375 0.25q0.65625 0.234375 1.046875 0.671875q0.40625 0.421875 0.5625 1.046875q0.171875 0.609375 0.171875 1.34375l0 5.078125q-0.453125 0.09375 -1.359375 0.21875q-0.890625 0.140625 -2.03125 0.140625q-0.75 0 -1.375 -0.140625q-0.625 -0.140625 -1.0625 -0.453125q-0.4375 -0.328125 -0.6875 -0.84375q-0.25 -0.515625 -0.25 -1.265625q0 -0.71875 0.28125 -1.203125q0.28125 -0.5 0.75 -0.8125q0.484375 -0.3125 1.109375 -0.453125q0.640625 -0.140625 1.328125 -0.140625q0.328125 0 0.671875 0.046875q0.359375 0.03125 0.75 0.140625l0 -0.328125q0 -0.328125 -0.078125 -0.625q-0.078125 -0.3125 -0.28125 -0.546875q-0.203125 -0.234375 -0.53125 -0.359375q-0.328125 -0.125 -0.8125 -0.125q-0.671875 0 -1.234375 0.09375q-0.5625 0.09375 -0.90625 0.21875l-0.25 -1.5625q0.375 -0.125 1.078125 -0.25q0.703125 -0.140625 1.5 -0.140625zm7.7158813 8.578125l-1.9375 0l0 -8.375l1.9375 0l0 8.375zm0.203125 -10.8125q0 0.546875 -0.359375 0.875q-0.34375 0.3125 -0.828125 0.3125q-0.484375 0 -0.84375 -0.3125q-0.34375 -0.328125 -0.34375 -0.875q0 -0.5625 0.34375 -0.875q0.359375 -0.328125 0.84375 -0.328125q0.484375 0 0.828125 0.328125q0.359375 0.3125 0.359375 0.875zm2.1660156 0.234375l1.9375 -0.3125l0 2.515625l2.96875 0l0 1.625l-2.96875 0l0 3.40625q0 1.0 0.3125 1.4375q0.328125 0.4375 1.09375 0.4375q0.53125 0 0.9375 -0.109375q0.40625 -0.125 0.640625 -0.21875l0.328125 1.546875q-0.34375 0.140625 -0.890625 0.28125q-0.546875 0.15625 -1.28125 0.15625q-0.890625 0 -1.5 -0.234375q-0.59375 -0.234375 -0.953125 -0.6875q-0.34375 -0.46875 -0.484375 -1.109375q-0.140625 -0.65625 -0.140625 -1.484375l0 -7.25z" fill-rule="nonzero"></path><path fill="#000000" fill-opacity="0.0" d="m449.1929 234.51181l93.29135 0l0 38.992126l-93.29135 0z" fill-rule="evenodd"></path><path fill="#000000" d="m472.03918 254.83806q0 -1.6875 0.5 -2.984375q0.5 -1.296875 1.359375 -2.15625q0.875 -0.859375 2.015625 -1.296875q1.15625 -0.4375 2.4375 -0.4375q1.28125 0 2.40625 0.4375q1.140625 0.4375 1.984375 1.296875q0.859375 0.859375 1.359375 2.15625q0.515625 1.296875 0.515625 2.984375q0 1.6875153 -0.515625 2.9843903q-0.5 1.296875 -1.359375 2.15625q-0.84375 0.859375 -1.984375 1.296875q-1.125 0.4375 -2.40625 0.4375q-1.28125 0 -2.4375 -0.4375q-1.140625 -0.4375 -2.015625 -1.296875q-0.859375 -0.859375 -1.359375 -2.15625q-0.5 -1.296875 -0.5 -2.9843903zm1.9375 0q0 1.2031403 0.296875 2.1875153q0.296875 0.96875 0.859375 1.65625q0.5625 0.671875 1.375 1.046875q0.8125 0.375 1.8125 0.375q1.0 0 1.796875 -0.375q0.8125 -0.375 1.359375 -1.046875q0.5625 -0.6875 0.859375 -1.65625q0.3125 -0.984375 0.3125 -2.1875153q0 -1.203125 -0.3125 -2.171875q-0.296875 -0.984375 -0.859375 -1.65625q-0.546875 -0.6875 -1.359375 -1.0625q-0.796875 -0.375 -1.796875 -0.375q-1.0 0 -1.8125 0.375q-0.8125 0.375 -1.375 1.0625q-0.5625 0.671875 -0.859375 1.65625q-0.296875 0.96875 -0.296875 2.171875zm20.858307 6.3125153q-0.609375 0.140625 -1.609375 0.3125q-1.0 0.171875 -2.3125 0.171875q-1.140625 0 -1.921875 -0.328125q-0.765625 -0.328125 -1.25 -0.9375q-0.46875 -0.609375 -0.6875 -1.4375q-0.203125 -0.828125 -0.203125 -1.828125l0 -5.5468903l1.765625 0l0 5.1562653q0 1.8125 0.5625 2.59375q0.578125 0.78125 1.921875 0.78125q0.296875 0 0.59375 -0.015625q0.3125 -0.03125 0.578125 -0.046875q0.265625 -0.03125 0.484375 -0.0625q0.21875 -0.03125 0.3125 -0.0625l0 -8.343765l1.765625 0l0 9.593765zm4.4899597 -9.593765l3.75 0l0 1.484375l-3.75 0l0 4.5468903q0 0.75 0.109375 1.234375q0.125 0.484375 0.34375 0.765625q0.234375 0.265625 0.578125 0.390625q0.34375 0.109375 0.796875 0.109375q0.796875 0 1.28125 -0.171875q0.484375 -0.1875 0.671875 -0.265625l0.34375 1.453125q-0.265625 0.140625 -0.9375 0.328125q-0.65625 0.203125 -1.515625 0.203125q-1.0 0 -1.65625 -0.25q-0.65625 -0.25 -1.0625 -0.765625q-0.390625 -0.515625 -0.5625 -1.265625q-0.15625 -0.75 -0.15625 -1.734375l0 -8.82814l1.765625 -0.296875l0 3.0625zm9.637543 5.4687653l8.7030945 0l0 1.5l-8.7030945 0l0 -1.5zm0 -4.0468903l8.7030945 0l0 1.5l-8.7030945 0l0 -1.5zm23.831696 -3.25q-0.4375 0.5 -1.03125 1.1875q-0.578125 0.6875 -1.21875 1.546875q-0.640625 0.84375 -1.328125 1.78125q-0.6875 0.9375 -1.34375 1.9062653q-0.65625 0.953125 -1.25 1.90625q-0.578125 0.9375 -1.046875 1.796875l7.40625 0l0 1.578125l-9.5625 0l0 -1.234375q0.40625 -0.765625 0.9375 -1.671875q0.546875 -0.90625 1.15625 -1.859375q0.625 -0.95314026 1.28125 -1.9218903q0.671875 -0.96875 1.328125 -1.859375q0.65625 -0.890625 1.265625 -1.671875q0.625 -0.78125 1.140625 -1.375l-6.765625 0l0 -1.578125l9.03125 0l0 1.46875z" fill-rule="nonzero"></path><path fill="#6d9eeb" d="m154.5 301.56693l60.0 0l0 30.015747l-60.0 0z" fill-rule="evenodd"></path><path stroke="#000000" stroke-width="2.0" stroke-linejoin="round" stroke-linecap="butt" d="m154.5 301.56693l60.0 0l0 30.015747l-60.0 0z" fill-rule="evenodd"></path><path fill="#000000" d="m166.66394 316.90106q0 -1.6875 0.5 -2.984375q0.5 -1.296875 1.359375 -2.15625q0.875 -0.859375 2.015625 -1.296875q1.15625 -0.4375 2.4375 -0.4375q1.28125 0 2.40625 0.4375q1.140625 0.4375 1.984375 1.296875q0.859375 0.859375 1.359375 2.15625q0.515625 1.296875 0.515625 2.984375q0 1.6875 -0.515625 2.984375q-0.5 1.296875 -1.359375 2.15625q-0.84375 0.859375 -1.984375 1.296875q-1.125 0.4375 -2.40625 0.4375q-1.28125 0 -2.4375 -0.4375q-1.140625 -0.4375 -2.015625 -1.296875q-0.859375 -0.859375 -1.359375 -2.15625q-0.5 -1.296875 -0.5 -2.984375zm1.9375 0q0 1.203125 0.296875 2.1875q0.296875 0.96875 0.859375 1.65625q0.5625 0.671875 1.375 1.046875q0.8125 0.375 1.8125 0.375q1.0 0 1.796875 -0.375q0.8125 -0.375 1.359375 -1.046875q0.5625 -0.6875 0.859375 -1.65625q0.3125 -0.984375 0.3125 -2.1875q0 -1.203125 -0.3125 -2.171875q-0.296875 -0.984375 -0.859375 -1.65625q-0.546875 -0.6875 -1.359375 -1.0625q-0.796875 -0.375 -1.796875 -0.375q-1.0 0 -1.8125 0.375q-0.8125 0.375 -1.375 1.0625q-0.5625 0.671875 -0.859375 1.65625q-0.296875 0.96875 -0.296875 2.171875zm17.998947 6.875q-1.28125 0 -2.234375 -0.390625q-0.953125 -0.40625 -1.5625 -1.09375q-0.609375 -0.703125 -0.90625 -1.640625q-0.296875 -0.953125 -0.296875 -2.0625l0 -8.265625l1.84375 0l0 8.0625q0 1.96875 0.875 2.875q0.875 0.890625 2.28125 0.890625q0.703125 0 1.28125 -0.21875q0.578125 -0.21875 1.0 -0.671875q0.421875 -0.46875 0.640625 -1.171875q0.234375 -0.71875 0.234375 -1.703125l0 -8.0625l1.84375 0l0 8.265625q0 1.109375 -0.296875 2.0625q-0.296875 0.9375 -0.921875 1.640625q-0.609375 0.6875 -1.546875 1.09375q-0.9375 0.390625 -2.234375 0.390625zm16.74176 -13.453125l0 1.59375l-4.15625 0l0 11.578125l-1.828125 0l0 -11.578125l-4.15625 0l0 -1.59375l10.140625 0z" fill-rule="nonzero"></path><path fill="#6d9eeb" d="m154.5 176.43307l60.0 0l0 30.015747l-60.0 0z" fill-rule="evenodd"></path><path stroke="#000000" stroke-width="2.0" stroke-linejoin="round" stroke-linecap="butt" d="m154.5 176.43307l60.0 0l0 30.015747l-60.0 0z" fill-rule="evenodd"></path><path fill="#000000" d="m176.84048 185.18907l1.84375 0l0 13.171875l-1.84375 0l0 -13.171875zm14.034149 13.171875q-0.421875 -0.703125 -0.96875 -1.578125q-0.53125 -0.875 -1.15625 -1.8125q-0.625 -0.9375 -1.296875 -1.90625q-0.671875 -0.96875 -1.34375 -1.875q-0.671875 -0.90625 -1.296875 -1.703125q-0.625 -0.796875 -1.15625 -1.40625l0 10.28125l-1.796875 0l0 -13.171875l1.453125 0q0.890625 0.953125 1.90625 2.21875q1.015625 1.265625 2.015625 2.609375q1.0 1.328125 1.875 2.625q0.890625 1.296875 1.5 2.296875l0 -9.75l1.8125 0l0 13.171875l-1.546875 0z" fill-rule="nonzero"></path><path fill="#cfe2f3" d="m247.79134 254.00787l0 0c0 -25.622528 21.871078 -46.393707 48.850388 -46.393707l0 0c12.955933 0 25.381226 4.8878937 34.54245 13.588409c9.161224 8.7005005 14.307953 20.50093 14.307953 32.805298l0 0c0 25.622528 -21.871063 46.393707 -48.850403 46.393707l0 0c-26.97931 0 -48.850388 -20.77118 -48.850388 -46.393707z" fill-rule="evenodd"></path><path stroke="#000000" stroke-width="1.0" stroke-linejoin="round" stroke-linecap="butt" d="m247.79134 254.00787l0 0c0 -25.622528 21.871078 -46.393707 48.850388 -46.393707l0 0c12.955933 0 25.381226 4.8878937 34.54245 13.588409c9.161224 8.7005005 14.307953 20.50093 14.307953 32.805298l0 0c0 25.622528 -21.871063 46.393707 -48.850403 46.393707l0 0c-26.97931 0 -48.850388 -20.77118 -48.850388 -46.393707z" fill-rule="evenodd"></path><path fill="#000000" d="m274.06802 254.321q0 0.90625 0.21875 1.65625q0.234375 0.73435974 0.65625 1.2656097q0.421875 0.515625 1.03125 0.8125q0.609375 0.28125 1.375 0.28125q0.765625 0 1.359375 -0.28125q0.609375 -0.296875 1.03125 -0.8125q0.4375 -0.53125 0.65625 -1.2656097q0.21875 -0.75 0.21875 -1.65625q0 -0.921875 -0.21875 -1.65625q-0.21875 -0.75 -0.65625 -1.265625q-0.421875 -0.515625 -1.03125 -0.796875q-0.59375 -0.296875 -1.359375 -0.296875q-0.765625 0 -1.375 0.296875q-0.609375 0.28125 -1.03125 0.8125q-0.421875 0.515625 -0.65625 1.25q-0.21875 0.734375 -0.21875 1.65625zm8.65625 0q0 1.1875 -0.296875 2.1562347q-0.296875 0.953125 -0.84375 1.671875q-0.546875 0.703125 -1.28125 1.15625q-0.71875 0.453125 -1.59375 0.640625q0.046875 0.34375 0.328125 0.578125q0.296875 0.234375 0.734375 0.390625q0.453125 0.171875 1.015625 0.265625q0.5625 0.109375 1.1875 0.15625l-0.4375 1.515625q-2.0625 -0.15625 -3.28125 -0.796875q-1.21875 -0.625 -1.5625 -2.0q-0.984375 -0.09375 -1.84375 -0.5q-0.859375 -0.421875 -1.5 -1.140625q-0.640625 -0.71875 -1.015625 -1.734375q-0.359375 -1.0312347 -0.359375 -2.3593597q0 -1.421875 0.4375 -2.5q0.4375 -1.09375 1.171875 -1.828125q0.75 -0.734375 1.71875 -1.09375q0.984375 -0.375 2.0625 -0.375q1.09375 0 2.0625 0.375q0.984375 0.359375 1.703125 1.09375q0.734375 0.734375 1.15625 1.828125q0.4375 1.078125 0.4375 2.5zm8.980774 5.2968597q-0.5625 0.140625 -1.453125 0.28125q-0.890625 0.15625 -1.96875 0.15625q-1.015625 0 -1.703125 -0.28125q-0.671875 -0.296875 -1.078125 -0.796875q-0.40625 -0.515625 -0.578125 -1.21875q-0.171875 -0.71875 -0.171875 -1.578125l0 -4.6874847l1.9375 0l0 4.390625q0 1.3437347 0.390625 1.9218597q0.390625 0.578125 1.359375 0.578125q0.359375 0 0.75 -0.03125q0.390625 -0.03125 0.578125 -0.078125l0 -6.7812347l1.9375 0l0 8.124985zm1.9999084 -3.8906097q0 -1.109375 0.328125 -1.9375q0.328125 -0.828125 0.875 -1.375q0.546875 -0.5625 1.25 -0.84375q0.703125 -0.28125 1.4375 -0.28125q1.734375 0 2.6875 1.078125q0.96875 1.0625 0.96875 3.203125q0 0.15625 -0.015625 0.359375q0 0.18748474 -0.015625 0.35935974l-5.515625 0q0.078125 1.0 0.703125 1.5625q0.640625 0.546875 1.84375 0.546875q0.703125 0 1.28125 -0.125q0.59375 -0.140625 0.921875 -0.28125l0.265625 1.59375q-0.171875 0.078125 -0.453125 0.171875q-0.265625 0.078125 -0.625 0.140625q-0.359375 0.078125 -0.78125 0.125q-0.421875 0.046875 -0.84375 0.046875q-1.109375 0 -1.921875 -0.328125q-0.8125 -0.328125 -1.34375 -0.90625q-0.53125 -0.578125 -0.796875 -1.375q-0.25 -0.796875 -0.25 -1.7343597zm5.625 -0.875q0 -0.390625 -0.125 -0.75q-0.109375 -0.359375 -0.328125 -0.625q-0.203125 -0.265625 -0.515625 -0.40625q-0.3125 -0.15625 -0.75 -0.15625q-0.453125 0 -0.796875 0.171875q-0.328125 0.15625 -0.5625 0.4375q-0.21875 0.265625 -0.359375 0.625q-0.125 0.34375 -0.171875 0.703125l3.609375 0zm8.745392 -1.609375q-0.234375 -0.078125 -0.671875 -0.15625q-0.421875 -0.09375 -0.96875 -0.09375q-0.328125 0 -0.6875 0.0625q-0.359375 0.0625 -0.5 0.109375l0 6.7031097l-1.9375 0l0 -7.9687347q0.5625 -0.203125 1.390625 -0.390625q0.84375 -0.1875 1.875 -0.1875q0.1875 0 0.4375 0.03125q0.265625 0.015625 0.515625 0.0625q0.265625 0.03125 0.5 0.09375q0.234375 0.0625 0.390625 0.109375l-0.34375 1.625zm8.510498 -1.75q-1.296875 4.7812347 -3.0 8.64061q-0.328125 0.71875 -0.671875 1.234375q-0.328125 0.515625 -0.75 0.84375q-0.40625 0.34375 -0.921875 0.484375q-0.515625 0.15625 -1.1875 0.15625q-0.4375 0 -0.890625 -0.09375q-0.4375 -0.09375 -0.65625 -0.203125l0.359375 -1.546875q0.5625 0.21875 1.125 0.21875q0.75 0 1.171875 -0.359375q0.4375 -0.359375 0.75 -1.109375q-0.90625 -1.765625 -1.75 -3.8437347q-0.84375 -2.078125 -1.5 -4.421875l2.0625 0q0.171875 0.671875 0.390625 1.46875q0.234375 0.78125 0.5 1.59375q0.28125 0.796875 0.578125 1.6093597q0.3125 0.796875 0.609375 1.484375q0.515625 -1.421875 0.96875 -3.0312347q0.453125 -1.609375 0.8125 -3.125l2.0 0z" fill-rule="nonzero"></path><path fill="#cfe2f3" d="m419.78348 191.44095l0 0c0 -25.622543 21.871063 -46.393707 48.850372 -46.393707l0 0c12.955933 0 25.381226 4.8878937 34.54245 13.588409c9.161224 8.7005005 14.307953 20.500916 14.307953 32.805298l0 0c0 25.622528 -21.871063 46.393692 -48.850403 46.393692l0 0c-26.97931 0 -48.850372 -20.771164 -48.850372 -46.393692z" fill-rule="evenodd"></path><path stroke="#000000" stroke-width="1.0" stroke-linejoin="round" stroke-linecap="butt" d="m419.78348 191.44095l0 0c0 -25.622543 21.871063 -46.393707 48.850372 -46.393707l0 0c12.955933 0 25.381226 4.8878937 34.54245 13.588409c9.161224 8.7005005 14.307953 20.500916 14.307953 32.805298l0 0c0 25.622528 -21.871063 46.393692 -48.850403 46.393692l0 0c-26.97931 0 -48.850372 -20.771164 -48.850372 -46.393692z" fill-rule="evenodd"></path><path fill="#000000" d="m459.35583 197.53532q-1.234375 0 -2.234375 -0.375q-0.984375 -0.390625 -1.6875 -1.125q-0.6875 -0.75 -1.0625 -1.8125q-0.359375 -1.078125 -0.359375 -2.46875q0 -1.390625 0.421875 -2.46875q0.4375 -1.078125 1.171875 -1.8125q0.734375 -0.75 1.71875 -1.125q1.0 -0.390625 2.140625 -0.390625q0.6875 0 1.234375 0.109375q0.5625 0.09375 0.96875 0.234375q0.421875 0.125 0.6875 0.265625q0.28125 0.140625 0.390625 0.203125l-0.578125 1.65625q-0.390625 -0.25 -1.109375 -0.453125q-0.703125 -0.21875 -1.53125 -0.21875q-0.71875 0 -1.34375 0.25q-0.625 0.234375 -1.09375 0.734375q-0.453125 0.5 -0.703125 1.25q-0.25 0.75 -0.25 1.75q0 0.875 0.1875 1.609375q0.203125 0.734375 0.609375 1.28125q0.421875 0.53125 1.0625 0.828125q0.640625 0.296875 1.546875 0.296875q1.0625 0 1.734375 -0.21875q0.671875 -0.21875 1.046875 -0.40625l0.546875 1.640625q-0.203125 0.125 -0.53125 0.265625q-0.328125 0.125 -0.78125 0.25q-0.4375 0.109375 -1.0 0.171875q-0.5625 0.078125 -1.203125 0.078125zm8.129883 -1.59375q0.90625 0 1.359375 -0.09375l0 -2.140625q-0.15625 -0.046875 -0.46875 -0.09375q-0.296875 -0.0625 -0.65625 -0.0625q-0.328125 0 -0.65625 0.0625q-0.328125 0.046875 -0.59375 0.171875q-0.265625 0.125 -0.421875 0.359375q-0.15625 0.234375 -0.15625 0.578125q0 0.6875 0.421875 0.953125q0.4375 0.265625 1.171875 0.265625zm-0.15625 -7.21875q0.953125 0 1.609375 0.25q0.65625 0.234375 1.046875 0.671875q0.40625 0.421875 0.5625 1.046875q0.171875 0.609375 0.171875 1.34375l0 5.078125q-0.453125 0.09375 -1.359375 0.21875q-0.890625 0.140625 -2.03125 0.140625q-0.75 0 -1.375 -0.140625q-0.625 -0.140625 -1.0625 -0.453125q-0.4375 -0.328125 -0.6875 -0.84375q-0.25 -0.515625 -0.25 -1.265625q0 -0.71875 0.28125 -1.203125q0.28125 -0.5 0.75 -0.8125q0.484375 -0.3125 1.109375 -0.453125q0.640625 -0.140625 1.328125 -0.140625q0.328125 0 0.671875 0.046875q0.359375 0.03125 0.75 0.140625l0 -0.328125q0 -0.328125 -0.078125 -0.625q-0.078125 -0.3125 -0.28125 -0.546875q-0.203125 -0.234375 -0.53125 -0.359375q-0.328125 -0.125 -0.8125 -0.125q-0.671875 0 -1.234375 0.09375q-0.5625 0.09375 -0.90625 0.21875l-0.25 -1.5625q0.375 -0.125 1.078125 -0.25q0.703125 -0.140625 1.5 -0.140625zm8.669006 8.734375q-0.859375 -0.015625 -1.4375 -0.1875q-0.5625 -0.171875 -0.90625 -0.5q-0.328125 -0.328125 -0.46875 -0.8125q-0.125 -0.5 -0.125 -1.125l0 -9.625l1.9375 -0.328125l0 9.59375q0 0.34375 0.046875 0.59375q0.0625 0.234375 0.203125 0.40625q0.140625 0.171875 0.390625 0.265625q0.25 0.078125 0.640625 0.125l-0.28125 1.59375zm1.3770142 -4.328125q0 -0.9375 0.28125 -1.734375q0.296875 -0.8125 0.828125 -1.40625q0.546875 -0.59375 1.3125 -0.921875q0.765625 -0.34375 1.71875 -0.34375q1.1875 0 2.25 0.4375l-0.421875 1.578125q-0.328125 -0.140625 -0.765625 -0.234375q-0.421875 -0.09375 -0.890625 -0.09375q-1.140625 0 -1.734375 0.71875q-0.59375 0.703125 -0.59375 2.0q0 1.25 0.5625 1.984375q0.5625 0.71875 1.890625 0.71875q0.5 0 0.96875 -0.09375q0.484375 -0.09375 0.84375 -0.25l0.265625 1.609375q-0.328125 0.15625 -0.984375 0.28125q-0.640625 0.125 -1.328125 0.125q-1.0625 0 -1.859375 -0.328125q-0.796875 -0.328125 -1.3125 -0.90625q-0.515625 -0.578125 -0.78125 -1.390625q-0.25 -0.8125 -0.25 -1.75z" fill-rule="nonzero"></path><path fill="#000000" fill-opacity="0.0" d="m434.0914 349.3801c0 12.309967 -34.362183 30.742004 -68.724396 24.619934c-34.362213 -6.12204 -68.724396 -36.798157 -68.724396 -73.59631" fill-rule="evenodd"></path><path stroke="#000000" stroke-width="2.0" stroke-linejoin="round" stroke-linecap="butt" stroke-dasharray="8.0,6.0" d="m434.0914 349.3801c0 12.309998 -34.362183 30.742004 -68.724396 24.619934c-17.181091 -3.0610046 -34.362213 -12.260559 -47.248047 -25.294617c-6.4429016 -6.5169983 -11.811981 -13.992676 -15.570374 -22.138947c-1.8791809 -4.0731506 -3.3556824 -8.313934 -4.3623657 -12.686401c-0.062927246 -0.2732849 -0.12399292 -0.5470886 -0.18325806 -0.8213806l-0.14953613 -0.71621704" fill-rule="evenodd"></path><path fill="#000000" stroke="#000000" stroke-width="2.0" stroke-linecap="butt" d="m301.14005 312.00916l-4.202423 -8.696533l-2.3707886 9.36319z" fill-rule="evenodd"></path><path fill="#000000" fill-opacity="0.0" d="m296.64172 207.61417c0 -31.806961 34.362213 -57.491898 68.72443 -63.613937c34.362183 -6.122055 68.724396 7.3187866 68.724396 14.637573" fill-rule="evenodd"></path><path stroke="#000000" stroke-width="2.0" stroke-linejoin="round" stroke-linecap="butt" d="m296.64172 207.61417c0 -31.806976 34.362213 -57.491898 68.72443 -63.613937c17.181091 -3.06102 34.362183 -1.2313385 47.248016 2.278473c3.221466 0.8774414 6.174469 1.859909 8.791931 2.8972015c0.6542969 0.25932312 1.2877197 0.52207947 1.8990479 0.7874756c0.30569458 0.13269043 0.605896 0.26605225 0.90045166 0.39997864c0.14724731 0.06695557 0.29309082 0.13406372 0.43753052 0.20127869l0.40100098 0.18887329" fill-rule="evenodd"></path><path fill="#000000" stroke="#000000" stroke-width="2.0" stroke-linecap="butt" d="m422.87366 153.24388l9.012726 3.4729004l-4.671814 -8.453659z" fill-rule="evenodd"></path><path fill="#000000" fill-opacity="0.0" d="m517.48425 191.44095c12.5 0 24.992126 31.283463 25.0 62.566925c0.007873535 31.283478 -12.468506 62.566925 -24.937012 62.566925" fill-rule="evenodd"></path><path stroke="#000000" stroke-width="2.0" stroke-linejoin="round" stroke-linecap="butt" stroke-dasharray="8.0,6.0" d="m517.48425 191.44095c12.5 0 24.992126 31.283463 25.0 62.566925c0.00390625 15.641724 -3.1132202 31.283478 -7.789856 43.01477c-1.1691895 2.9328308 -2.435852 5.6212463 -3.7755127 8.00415c-0.66986084 1.1914673 -1.3579712 2.306549 -2.0613403 3.337616c-0.35168457 0.51556396 -0.7071533 1.0100708 -1.06604 1.482666l-0.16546631 0.21481323" fill-rule="evenodd"></path><path fill="#000000" stroke="#000000" stroke-width="2.0" stroke-linecap="butt" d="m525.83307 307.28732l-5.830139 7.700592l9.416016 -2.1514587z" fill-rule="evenodd"></path><path fill="#000000" fill-opacity="0.0" d="m264.39108 128.0l64.50394 0l0 30.015747l-64.50394 0z" fill-rule="evenodd"></path><path fill="#000000" d="m281.64853 136.756l1.84375 0l0 13.171875l-1.84375 0l0 -13.171875zm4.8935547 3.578125q0.609375 -0.15625 1.609375 -0.328125q1.015625 -0.171875 2.328125 -0.171875q1.171875 0 1.953125 0.34375q0.78125 0.328125 1.25 0.921875q0.46875 0.59375 0.65625 1.4375q0.1875 0.828125 0.1875 1.84375l0 5.546875l-1.765625 0l0 -5.171875q0 -0.90625 -0.125 -1.546875q-0.125 -0.65625 -0.40625 -1.046875q-0.28125 -0.40625 -0.765625 -0.578125q-0.46875 -0.1875 -1.171875 -0.1875q-0.28125 0 -0.59375 0.015625q-0.296875 0.015625 -0.578125 0.046875q-0.28125 0.03125 -0.5 0.078125q-0.21875 0.03125 -0.3125 0.046875l0 8.34375l-1.765625 0l0 -9.59375zm14.502655 5.1875l8.703125 0l0 1.5l-8.703125 0l0 -1.5zm0 -4.046875l8.703125 0l0 1.5l-8.703125 0l0 -1.5zm15.472351 -4.71875l1.84375 0l0 13.171875l-1.84375 0l0 -13.171875z" fill-rule="nonzero"></path><path fill="#6d9eeb" d="m142.99997 253.56693l81.00787 0l0 30.015747l-81.00787 0z" fill-rule="evenodd"></path><path stroke="#000000" stroke-width="2.0" stroke-linejoin="round" stroke-linecap="butt" d="m142.99997 253.56693l81.00787 0l0 30.015747l-81.00787 0z" fill-rule="evenodd"></path><path fill="#000000" d="m153.82112 268.90106q0 -1.6875 0.5 -2.984375q0.5 -1.296875 1.359375 -2.15625q0.875 -0.859375 2.015625 -1.296875q1.15625 -0.4375 2.4375 -0.4375q1.28125 0 2.40625 0.4375q1.140625 0.4375 1.984375 1.296875q0.859375 0.859375 1.359375 2.15625q0.515625 1.296875 0.515625 2.984375q0 1.484375 -0.390625 2.640625q-0.375 1.15625 -1.046875 2.0q-0.671875 0.84375 -1.578125 1.375q-0.90625 0.515625 -1.9375 0.71875q0.03125 0.421875 0.390625 0.75q0.375 0.34375 0.9375 0.5625q0.578125 0.234375 1.28125 0.390625q0.703125 0.15625 1.40625 0.234375l-0.4375 1.4375q-0.984375 -0.140625 -1.890625 -0.359375q-0.90625 -0.21875 -1.640625 -0.578125q-0.71875 -0.359375 -1.21875 -0.921875q-0.5 -0.546875 -0.671875 -1.390625q-1.1875 -0.078125 -2.25 -0.5625q-1.0625 -0.484375 -1.84375 -1.34375q-0.78125 -0.875 -1.234375 -2.109375q-0.453125 -1.234375 -0.453125 -2.84375zm1.9375 0q0 1.203125 0.296875 2.1875q0.296875 0.96875 0.859375 1.65625q0.5625 0.671875 1.375 1.046875q0.8125 0.375 1.8125 0.375q1.0 0 1.796875 -0.375q0.8125 -0.375 1.359375 -1.046875q0.5625 -0.6875 0.859375 -1.65625q0.3125 -0.984375 0.3125 -2.1875q0 -1.203125 -0.3125 -2.171875q-0.296875 -0.984375 -0.859375 -1.65625q-0.546875 -0.6875 -1.359375 -1.0625q-0.796875 -0.375 -1.796875 -0.375q-1.0 0 -1.8125 0.375q-0.8125 0.375 -1.375 1.0625q-0.5625 0.671875 -0.859375 1.65625q-0.296875 0.96875 -0.296875 2.171875zm11.389572 8.609375l9.5 0l0 1.5l-9.5 0l0 -1.5zm10.366379 -8.609375q0 -1.6875 0.5 -2.984375q0.5 -1.296875 1.359375 -2.15625q0.875 -0.859375 2.015625 -1.296875q1.15625 -0.4375 2.4375 -0.4375q1.28125 0 2.40625 0.4375q1.140625 0.4375 1.984375 1.296875q0.859375 0.859375 1.359375 2.15625q0.515625 1.296875 0.515625 2.984375q0 1.6875 -0.515625 2.984375q-0.5 1.296875 -1.359375 2.15625q-0.84375 0.859375 -1.984375 1.296875q-1.125 0.4375 -2.40625 0.4375q-1.28125 0 -2.4375 -0.4375q-1.140625 -0.4375 -2.015625 -1.296875q-0.859375 -0.859375 -1.359375 -2.15625q-0.5 -1.296875 -0.5 -2.984375zm1.9375 0q0 1.203125 0.296875 2.1875q0.296875 0.96875 0.859375 1.65625q0.5625 0.671875 1.375 1.046875q0.8125 0.375 1.8125 0.375q1.0 0 1.796875 -0.375q0.8125 -0.375 1.359375 -1.046875q0.5625 -0.6875 0.859375 -1.65625q0.3125 -0.984375 0.3125 -2.1875q0 -1.203125 -0.3125 -2.171875q-0.296875 -0.984375 -0.859375 -1.65625q-0.546875 -0.6875 -1.359375 -1.0625q-0.796875 -0.375 -1.796875 -0.375q-1.0 0 -1.8125 0.375q-0.8125 0.375 -1.375 1.0625q-0.5625 0.671875 -0.859375 1.65625q-0.296875 0.96875 -0.296875 2.171875zm17.998947 6.875q-1.28125 0 -2.234375 -0.390625q-0.953125 -0.40625 -1.5625 -1.09375q-0.609375 -0.703125 -0.90625 -1.640625q-0.296875 -0.953125 -0.296875 -2.0625l0 -8.265625l1.84375 0l0 8.0625q0 1.96875 0.875 2.875q0.875 0.890625 2.28125 0.890625q0.703125 0 1.28125 -0.21875q0.578125 -0.21875 1.0 -0.671875q0.421875 -0.46875 0.640625 -1.171875q0.234375 -0.71875 0.234375 -1.703125l0 -8.0625l1.84375 0l0 8.265625q0 1.109375 -0.296875 2.0625q-0.296875 0.9375 -0.921875 1.640625q-0.609375 0.6875 -1.546875 1.09375q-0.9375 0.390625 -2.234375 0.390625zm16.74176 -13.453125l0 1.59375l-4.15625 0l0 11.578125l-1.828125 0l0 -11.578125l-4.15625 0l0 -1.59375l10.140625 0z" fill-rule="nonzero"></path></g></svg>

