<?xml version="1.0" standalone="yes"?>

<svg version="1.1" viewBox="0.0 0.0 720.0 540.0" fill="none" stroke="none" stroke-linecap="square" stroke-miterlimit="10" xmlns="http://www.w3.org/2000/svg" xmlns:xlink="http://www.w3.org/1999/xlink"><clipPath id="p.0"><path d="m0 0l720.0 0l0 540.0l-720.0 0l0 -540.0z" clip-rule="nonzero"></path></clipPath><g clip-path="url(#p.0)"><path fill="#000000" fill-opacity="0.0" d="m0 0l720.0 0l0 540.0l-720.0 0z" fill-rule="evenodd"></path><path fill="#000000" fill-opacity="0.0" d="m185.5 101.0l380.0 0l0 322.01575l-380.0 0z" fill-rule="evenodd"></path><path stroke="#000000" stroke-width="2.0" stroke-linejoin="round" stroke-linecap="butt" d="m185.5 101.0l380.0 0l0 322.01575l-380.0 0z" fill-rule="evenodd"></path><path fill="#cfe2f3" d="m223.79134 254.00787l0 0c0 -25.622528 21.871063 -46.393707 48.850388 -46.393707l0 0c12.955933 0 25.381226 4.8878937 34.54245 13.588409c9.161224 8.7005005 14.307953 20.50093 14.307953 32.805298l0 0c0 25.622528 -21.871063 46.393707 -48.850403 46.393707l0 0c-26.979324 0 -48.850388 -20.77118 -48.850388 -46.393707z" fill-rule="evenodd"></path><path stroke="#000000" stroke-width="1.0" stroke-linejoin="round" stroke-linecap="butt" d="m223.79134 254.00787l0 0c0 -25.622528 21.871063 -46.393707 48.850388 -46.393707l0 0c12.955933 0 25.381226 4.8878937 34.54245 13.588409c9.161224 8.7005005 14.307953 20.50093 14.307953 32.805298l0 0c0 25.622528 -21.871063 46.393707 -48.850403 46.393707l0 0c-26.979324 0 -48.850388 -20.77118 -48.850388 -46.393707z" fill-rule="evenodd"></path><path fill="#000000" d="m248.42741 248.77412l2.015625 0l0 11.093735l-2.015625 0l0 -11.093735zm6.0938873 6.890625q0 1.2812347 0.609375 2.0156097q0.609375 0.71875 1.6875 0.71875q0.453125 0 0.78125 -0.03125q0.328125 -0.046875 0.546875 -0.09375l0 -4.8124847q-0.265625 -0.171875 -0.6875 -0.3125q-0.421875 -0.15625 -0.90625 -0.15625q-1.046875 0 -1.546875 0.71875q-0.484375 0.71875 -0.484375 1.953125zm5.546875 3.9531097q-0.5625 0.171875 -1.4375 0.3125q-0.875 0.140625 -1.828125 0.140625q-1.0 0 -1.78125 -0.296875q-0.78125 -0.3125 -1.34375 -0.875q-0.546875 -0.5625 -0.84375 -1.375q-0.296875 -0.8125 -0.296875 -1.8124847q0 -1.0 0.25 -1.796875q0.25 -0.8125 0.71875 -1.390625q0.484375 -0.578125 1.171875 -0.890625q0.6875 -0.3125 1.59375 -0.3125q0.609375 0 1.0625 0.15625q0.46875 0.140625 0.8125 0.3125l0 -4.015625l1.921875 -0.328125l0 12.17186zm5.3797607 0.40625q-0.859375 -0.015625 -1.4375 -0.1875q-0.5625 -0.171875 -0.90625 -0.5q-0.328125 -0.328125 -0.46875 -0.8125q-0.125 -0.5 -0.125 -1.125l0 -9.624985l1.9375 -0.328125l0 9.593735q0 0.34375 0.046875 0.59375q0.0625 0.234375 0.203125 0.40625q0.140625 0.171875 0.390625 0.265625q0.25 0.078125 0.640625 0.125l-0.28125 1.59375zm1.3770142 -4.2968597q0 -1.109375 0.328125 -1.9375q0.328125 -0.828125 0.875 -1.375q0.546875 -0.5625 1.25 -0.84375q0.703125 -0.28125 1.4375 -0.28125q1.734375 0 2.6875 1.078125q0.96875 1.0625 0.96875 3.203125q0 0.15625 -0.015625 0.359375q0 0.18748474 -0.015625 0.35935974l-5.515625 0q0.078125 1.0 0.703125 1.5625q0.640625 0.546875 1.84375 0.546875q0.703125 0 1.28125 -0.125q0.59375 -0.140625 0.921875 -0.28125l0.265625 1.59375q-0.171875 0.078125 -0.453125 0.171875q-0.265625 0.078125 -0.625 0.140625q-0.359375 0.078125 -0.78125 0.125q-0.421875 0.046875 -0.84375 0.046875q-1.109375 0 -1.921875 -0.328125q-0.8125 -0.328125 -1.34375 -0.90625q-0.53125 -0.578125 -0.796875 -1.375q-0.25 -0.796875 -0.25 -1.7343597zm5.625 -0.875q0 -0.390625 -0.125 -0.75q-0.109375 -0.359375 -0.328125 -0.625q-0.203125 -0.265625 -0.515625 -0.40625q-0.3125 -0.15625 -0.75 -0.15625q-0.453125 0 -0.796875 0.171875q-0.328125 0.15625 -0.5625 0.4375q-0.21875 0.265625 -0.359375 0.625q-0.125 0.34375 -0.171875 0.703125l3.609375 0z" fill-rule="nonzero"></path><path fill="#cfe2f3" d="m412.2021 258.41733l0 0c0 -28.057816 24.578522 -50.80316 54.897644 -50.80316l0 0c30.319122 0 54.897644 22.745346 54.897644 50.80316l0 0c0 28.0578 -24.578522 50.80313 -54.897644 50.80313l0 0c-30.319122 0 -54.897644 -22.74533 -54.897644 -50.80313z" fill-rule="evenodd"></path><path stroke="#000000" stroke-width="1.0" stroke-linejoin="round" stroke-linecap="butt" d="m412.2021 258.41733l0 0c0 -28.057816 24.578522 -50.80316 54.897644 -50.80316l0 0c30.319122 0 54.897644 22.745346 54.897644 50.80316l0 0c0 28.0578 -24.578522 50.80313 -54.897644 50.80313l0 0c-30.319122 0 -54.897644 -22.74533 -54.897644 -50.80313z" fill-rule="evenodd"></path><path fill="#000000" d="m450.20383 262.8867q0.765625 0 1.109375 -0.1875q0.359375 -0.1875 0.359375 -0.625q0 -0.421875 -0.375 -0.6875q-0.375 -0.28125 -1.234375 -0.59375q-0.53125 -0.203125 -0.96875 -0.40625q-0.4375 -0.21875 -0.765625 -0.5q-0.3125 -0.296875 -0.5 -0.703125q-0.1875 -0.40625 -0.1875 -1.0q0 -1.15625 0.84375 -1.8125q0.859375 -0.67185974 2.3125 -0.67185974q0.734375 0 1.40625 0.140625q0.671875 0.140625 1.015625 0.26560974l-0.359375 1.5625q-0.328125 -0.140625 -0.828125 -0.25q-0.484375 -0.125 -1.140625 -0.125q-0.59375 0 -0.96875 0.203125q-0.359375 0.1875 -0.359375 0.609375q0 0.203125 0.0625 0.375q0.078125 0.15625 0.25 0.296875q0.1875 0.125 0.46875 0.265625q0.296875 0.125 0.703125 0.28125q0.6875 0.25 1.171875 0.5q0.484375 0.25 0.796875 0.5625q0.3125 0.3125 0.453125 0.71875q0.140625 0.390625 0.140625 0.953125q0 1.1875 -0.890625 1.8125q-0.890625 0.609375 -2.53125 0.609375q-1.109375 0 -1.78125 -0.1875q-0.671875 -0.171875 -0.9375 -0.28125l0.328125 -1.625q0.4375 0.171875 1.03125 0.34375q0.609375 0.15625 1.375 0.15625zm4.7495117 -2.75q0 -1.109375 0.328125 -1.9375q0.328125 -0.828125 0.875 -1.375q0.546875 -0.5625 1.25 -0.84373474q0.703125 -0.28125 1.4375 -0.28125q1.734375 0 2.6875 1.0781097q0.96875 1.0625 0.96875 3.203125q0 0.15625 -0.015625 0.359375q0 0.1875 -0.015625 0.359375l-5.515625 0q0.078125 1.0 0.703125 1.5625q0.640625 0.546875 1.84375 0.546875q0.703125 0 1.28125 -0.125q0.59375 -0.140625 0.921875 -0.28125l0.265625 1.59375q-0.171875 0.078125 -0.453125 0.171875q-0.265625 0.078125 -0.625 0.140625q-0.359375 0.078125 -0.78125 0.125q-0.421875 0.046875 -0.84375 0.046875q-1.109375 0 -1.921875 -0.328125q-0.8125 -0.328125 -1.34375 -0.90625q-0.53125 -0.578125 -0.796875 -1.375q-0.25 -0.796875 -0.25 -1.734375zm5.625 -0.875q0 -0.390625 -0.125 -0.75q-0.109375 -0.359375 -0.328125 -0.625q-0.203125 -0.265625 -0.515625 -0.40625q-0.3125 -0.15625 -0.75 -0.15625q-0.453125 0 -0.796875 0.171875q-0.328125 0.15625 -0.5625 0.4375q-0.21875 0.265625 -0.359375 0.625q-0.125 0.34375 -0.171875 0.703125l3.609375 0zm8.745392 -1.609375q-0.234375 -0.078125 -0.671875 -0.15625q-0.421875 -0.09375 -0.96875 -0.09375q-0.328125 0 -0.6875 0.0625q-0.359375 0.0625 -0.5 0.109375l0 6.703125l-1.9375 0l0 -7.96875q0.5625 -0.203125 1.390625 -0.39060974q0.84375 -0.1875 1.875 -0.1875q0.1875 0 0.4375 0.03125q0.265625 0.015625 0.515625 0.0625q0.265625 0.03125 0.5 0.09375q0.234375 0.0625 0.390625 0.10935974l-0.34375 1.625zm3.822998 6.625q-0.796875 -1.640625 -1.640625 -3.78125q-0.84375 -2.140625 -1.53125 -4.5937347l2.0625 0q0.1875 0.71873474 0.40625 1.5312347q0.234375 0.796875 0.5 1.609375q0.265625 0.796875 0.546875 1.5625q0.28125 0.765625 0.515625 1.375q0.25 -0.609375 0.515625 -1.375q0.28125 -0.765625 0.53125 -1.5625q0.265625 -0.8125 0.5 -1.609375q0.25 -0.8125 0.421875 -1.5312347l2.0 0q-0.6875 2.4531097 -1.53125 4.5937347q-0.828125 2.140625 -1.625 3.78125l-1.671875 0zm5.8066406 -4.140625q0 -1.109375 0.328125 -1.9375q0.328125 -0.828125 0.875 -1.375q0.546875 -0.5625 1.25 -0.84373474q0.703125 -0.28125 1.4375 -0.28125q1.734375 0 2.6875 1.0781097q0.96875 1.0625 0.96875 3.203125q0 0.15625 -0.015625 0.359375q0 0.1875 -0.015625 0.359375l-5.515625 0q0.078125 1.0 0.703125 1.5625q0.640625 0.546875 1.84375 0.546875q0.703125 0 1.28125 -0.125q0.59375 -0.140625 0.921875 -0.28125l0.265625 1.59375q-0.171875 0.078125 -0.453125 0.171875q-0.265625 0.078125 -0.625 0.140625q-0.359375 0.078125 -0.78125 0.125q-0.421875 0.046875 -0.84375 0.046875q-1.109375 0 -1.921875 -0.328125q-0.8125 -0.328125 -1.34375 -0.90625q-0.53125 -0.578125 -0.796875 -1.375q-0.25 -0.796875 -0.25 -1.734375zm5.625 -0.875q0 -0.390625 -0.125 -0.75q-0.109375 -0.359375 -0.328125 -0.625q-0.203125 -0.265625 -0.515625 -0.40625q-0.3125 -0.15625 -0.75 -0.15625q-0.453125 0 -0.796875 0.171875q-0.328125 0.15625 -0.5625 0.4375q-0.21875 0.265625 -0.359375 0.625q-0.125 0.34375 -0.171875 0.703125l3.609375 0z" fill-rule="nonzero"></path><path fill="#000000" fill-opacity="0.0" d="m272.64172 207.61417c0 -12.4999695 38.91339 -26.8582 77.82678 -24.999939c38.91339 1.8582764 77.82678 19.933044 77.82678 39.86609" fill-rule="evenodd"></path><path stroke="#000000" stroke-width="2.0" stroke-linejoin="round" stroke-linecap="butt" d="m272.64172 207.61417c0 -12.4999695 38.91339 -26.8582 77.82678 -24.999939c19.456696 0.9291382 38.91339 5.912384 53.50589 13.155014c7.2962646 3.6213074 13.376495 7.807434 17.63263 12.334061c0.53204346 0.5658264 1.0355835 1.1369781 1.5093689 1.7130127c0.23690796 0.28800964 0.46640015 0.57724 0.6883545 0.8676605c0.1109314 0.14520264 0.22003174 0.29067993 0.32717896 0.43644714l0.05996704 0.08325195" fill-rule="evenodd"></path><path fill="#000000" stroke="#000000" stroke-width="2.0" stroke-linecap="butt" d="m421.0876 212.3333l6.2079163 7.39946l7.324219E-4 -9.658676z" fill-rule="evenodd"></path><path fill="#000000" fill-opacity="0.0" d="m313.32022 146.41733l72.88187 0l0 30.015747l-72.88187 0z" fill-rule="evenodd"></path><path fill="#000000" d="m333.26547 155.17332l1.84375 0l0 13.171875l-1.84375 0l0 -13.171875zm4.893524 3.578125q0.609375 -0.15625 1.609375 -0.328125q1.015625 -0.171875 2.328125 -0.171875q1.171875 0 1.953125 0.34375q0.78125 0.328125 1.25 0.921875q0.46875 0.59375 0.65625 1.4375q0.1875 0.828125 0.1875 1.84375l0 5.546875l-1.765625 0l0 -5.171875q0 -0.90625 -0.125 -1.546875q-0.125 -0.65625 -0.40625 -1.046875q-0.28125 -0.40625 -0.765625 -0.578125q-0.46875 -0.1875 -1.171875 -0.1875q-0.28125 0 -0.59375 0.015625q-0.296875 0.015625 -0.578125 0.046875q-0.28125 0.03125 -0.5 0.078125q-0.21875 0.03125 -0.3125 0.046875l0 8.34375l-1.765625 0l0 -9.59375zm14.502686 5.1875l8.703125 0l0 1.5l-8.703125 0l0 -1.5zm0 -4.046875l8.703125 0l0 1.5l-8.703125 0l0 -1.5zm15.347351 -1.140625q0.609375 -0.15625 1.609375 -0.328125q1.015625 -0.171875 2.328125 -0.171875q1.171875 0 1.953125 0.34375q0.78125 0.328125 1.25 0.921875q0.46875 0.59375 0.65625 1.4375q0.1875 0.828125 0.1875 1.84375l0 5.546875l-1.765625 0l0 -5.171875q0 -0.90625 -0.125 -1.546875q-0.125 -0.65625 -0.40625 -1.046875q-0.28125 -0.40625 -0.765625 -0.578125q-0.46875 -0.1875 -1.171875 -0.1875q-0.28125 0 -0.59375 0.015625q-0.296875 0.015625 -0.578125 0.046875q-0.28125 0.03125 -0.5 0.078125q-0.21875 0.03125 -0.3125 0.046875l0 8.34375l-1.765625 0l0 -9.59375z" fill-rule="nonzero"></path><path fill="#000000" fill-opacity="0.0" d="m428.28125 294.34058c0 19.939941 -38.91339 39.123962 -77.82678 39.879883c-38.91339 0.7558899 -77.82675 -16.91632 -77.82675 -33.83264" fill-rule="evenodd"></path><path stroke="#000000" stroke-width="2.0" stroke-linejoin="round" stroke-linecap="butt" stroke-dasharray="8.0,6.0" d="m428.28125 294.34058c0 19.939941 -38.91339 39.123962 -77.82678 39.879883c-19.456696 0.3779602 -38.91336 -3.8511353 -53.50589 -10.289246c-7.2962646 -3.2190552 -13.376495 -6.9903564 -17.63263 -11.014191c-0.53204346 -0.5029602 -1.035553 -1.0098877 -1.5093689 -1.5201721l-0.11743164 -0.12869263" fill-rule="evenodd"></path><path fill="#000000" stroke="#000000" stroke-width="2.0" stroke-linecap="butt" d="m280.6844 309.8748l-6.823456 -6.835968l0.8329773 9.622711z" fill-rule="evenodd"></path><path fill="#000000" fill-opacity="0.0" d="m237.54317 334.24408l163.74803 0l0 38.992126l-163.74803 0z" fill-rule="evenodd"></path><path fill="#000000" d="m330.54764 354.57034q0 -1.6875 0.5 -2.984375q0.5 -1.296875 1.359375 -2.15625q0.875 -0.859375 2.015625 -1.296875q1.15625 -0.4375 2.4375 -0.4375q1.28125 0 2.40625 0.4375q1.140625 0.4375 1.984375 1.296875q0.859375 0.859375 1.359375 2.15625q0.515625 1.296875 0.515625 2.984375q0 1.6875 -0.515625 2.984375q-0.5 1.296875 -1.359375 2.15625q-0.84375 0.859375 -1.984375 1.296875q-1.125 0.4375 -2.40625 0.4375q-1.28125 0 -2.4375 -0.4375q-1.140625 -0.4375 -2.015625 -1.296875q-0.859375 -0.859375 -1.359375 -2.15625q-0.5 -1.296875 -0.5 -2.984375zm1.9375 0q0 1.203125 0.296875 2.1875q0.296875 0.96875 0.859375 1.65625q0.5625 0.671875 1.375 1.046875q0.8125 0.375 1.8125 0.375q1.0 0 1.796875 -0.375q0.8125 -0.375 1.359375 -1.046875q0.5625 -0.6875 0.859375 -1.65625q0.3125 -0.984375 0.3125 -2.1875q0 -1.203125 -0.3125 -2.171875q-0.296875 -0.984375 -0.859375 -1.65625q-0.546875 -0.6875 -1.359375 -1.0625q-0.796875 -0.375 -1.796875 -0.375q-1.0 0 -1.8125 0.375q-0.8125 0.375 -1.375 1.0625q-0.5625 0.671875 -0.859375 1.65625q-0.296875 0.96875 -0.296875 2.171875zm20.858307 6.3125q-0.609375 0.140625 -1.609375 0.3125q-1.0 0.171875 -2.3125 0.171875q-1.140625 0 -1.921875 -0.328125q-0.765625 -0.328125 -1.25 -0.9375q-0.46875 -0.609375 -0.6875 -1.4375q-0.203125 -0.828125 -0.203125 -1.828125l0 -5.546875l1.765625 0l0 5.15625q0 1.8125 0.5625 2.59375q0.578125 0.78125 1.921875 0.78125q0.296875 0 0.59375 -0.015625q0.3125 -0.03125 0.578125 -0.046875q0.265625 -0.03125 0.484375 -0.0625q0.21875 -0.03125 0.3125 -0.0625l0 -8.34375l1.765625 0l0 9.59375zm4.4899597 -9.59375l3.75 0l0 1.484375l-3.75 0l0 4.546875q0 0.75 0.109375 1.234375q0.125 0.484375 0.34375 0.765625q0.234375 0.265625 0.578125 0.390625q0.34375 0.109375 0.796875 0.109375q0.796875 0 1.28125 -0.171875q0.484375 -0.1875 0.671875 -0.265625l0.34375 1.453125q-0.265625 0.140625 -0.9375 0.328125q-0.65625 0.203125 -1.515625 0.203125q-1.0 0 -1.65625 -0.25q-0.65625 -0.25 -1.0625 -0.765625q-0.390625 -0.515625 -0.5625 -1.265625q-0.15625 -0.75 -0.15625 -1.734375l0 -8.828125l1.765625 -0.296875l0 3.0625zm9.637543 5.46875l8.703125 0l0 1.5l-8.703125 0l0 -1.5zm0 -4.046875l8.703125 0l0 1.5l-8.703125 0l0 -1.5zm22.206726 3.53125q0 -1.734375 -0.859375 -2.65625q-0.84375 -0.9375 -2.265625 -0.9375q-0.796875 0 -1.25 0.0625q-0.453125 0.0625 -0.71875 0.125l0 6.234375q0.328125 0.265625 0.9375 0.515625q0.609375 0.25 1.328125 0.25q0.765625 0 1.296875 -0.265625q0.546875 -0.28125 0.890625 -0.765625q0.34375 -0.484375 0.484375 -1.140625q0.15625 -0.65625 0.15625 -1.421875zm1.84375 0q0 1.125 -0.296875 2.078125q-0.28125 0.9375 -0.859375 1.625q-0.5625 0.6875 -1.390625 1.078125q-0.828125 0.375 -1.890625 0.375q-0.859375 0 -1.515625 -0.234375q-0.65625 -0.234375 -0.984375 -0.4375l0 3.953125l-1.765625 0l0 -13.09375q0.625 -0.15625 1.5625 -0.328125q0.953125 -0.1875 2.1875 -0.1875q1.140625 0 2.046875 0.375q0.921875 0.359375 1.5625 1.03125q0.640625 0.65625 0.984375 1.609375q0.359375 0.953125 0.359375 2.15625z" fill-rule="nonzero"></path><path fill="#000000" d="m368.44684 378.24222q0 -1.734375 -0.859375 -2.65625q-0.84375 -0.9375 -2.265625 -0.9375q-0.796875 0 -1.25 0.0625q-0.453125 0.0625 -0.71875 0.125l0 6.234375q0.328125 0.265625 0.9375 0.515625q0.609375 0.25 1.328125 0.25q0.765625 0 1.296875 -0.265625q0.546875 -0.28125 0.890625 -0.765625q0.34375 -0.484375 0.484375 -1.140625q0.15625 -0.65625 0.15625 -1.421875zm1.84375 0q0 1.125 -0.296875 2.078125q-0.28125 0.9375 -0.859375 1.625q-0.5625 0.6875 -1.390625 1.078125q-0.828125 0.375 -1.890625 0.375q-0.859375 0 -1.515625 -0.234375q-0.65625 -0.234375 -0.984375 -0.4375l0 3.953125l-1.765625 0l0 -13.09375q0.625 -0.15625 1.5625 -0.328125q0.953125 -0.1875 2.1875 -0.1875q1.140625 0 2.046875 0.375q0.921875 0.359375 1.5625 1.03125q0.640625 0.65625 0.984375 1.609375q0.359375 0.953125 0.359375 2.15625zm1.7698059 0.515625l8.703125 0l0 1.5l-8.703125 0l0 -1.5zm0 -4.046875l8.703125 0l0 1.5l-8.703125 0l0 -1.5zm11.03775 -1.140625q0.609375 -0.15625 1.609375 -0.328125q1.015625 -0.171875 2.328125 -0.171875q1.171875 0 1.953125 0.34375q0.78125 0.328125 1.25 0.921875q0.46875 0.59375 0.65625 1.4375q0.1875 0.828125 0.1875 1.84375l0 5.546875l-1.765625 0l0 -5.171875q0 -0.90625 -0.125 -1.546875q-0.125 -0.65625 -0.40625 -1.046875q-0.28125 -0.40625 -0.765625 -0.578125q-0.46875 -0.1875 -1.171875 -0.1875q-0.28125 0 -0.59375 0.015625q-0.296875 0.015625 -0.578125 0.046875q-0.28125 0.03125 -0.5 0.078125q-0.21875 0.03125 -0.3125 0.046875l0 8.34375l-1.765625 0l0 -9.59375z" fill-rule="nonzero"></path><path fill="#6d9eeb" d="m150.50131 176.43307l68.12598 0l0 30.015747l-68.12598 0z" fill-rule="evenodd"></path><path stroke="#000000" stroke-width="2.0" stroke-linejoin="round" stroke-linecap="butt" d="m150.50131 176.43307l68.12598 0l0 30.015747l-68.12598 0z" fill-rule="evenodd"></path><path fill="#000000" d="m176.90477 185.18907l1.84375 0l0 13.171875l-1.84375 0l0 -13.171875zm14.034164 13.171875q-0.421875 -0.703125 -0.96875 -1.578125q-0.53125 -0.875 -1.15625 -1.8125q-0.625 -0.9375 -1.296875 -1.90625q-0.671875 -0.96875 -1.34375 -1.875q-0.671875 -0.90625 -1.296875 -1.703125q-0.625 -0.796875 -1.15625 -1.40625l0 10.28125l-1.796875 0l0 -13.171875l1.453125 0q0.890625 0.953125 1.90625 2.21875q1.015625 1.265625 2.015625 2.609375q1.0 1.328125 1.875 2.625q0.890625 1.296875 1.5 2.296875l0 -9.75l1.8125 0l0 13.171875l-1.546875 0z" fill-rule="nonzero"></path><path fill="#6d9eeb" d="m531.98425 301.56693l68.12598 0l0 30.015747l-68.12598 0z" fill-rule="evenodd"></path><path stroke="#000000" stroke-width="2.0" stroke-linejoin="round" stroke-linecap="butt" d="m531.98425 301.56693l68.12598 0l0 30.015747l-68.12598 0z" fill-rule="evenodd"></path><path fill="#000000" d="m548.2112 316.90106q0 -1.6875 0.5 -2.984375q0.5 -1.296875 1.359375 -2.15625q0.875 -0.859375 2.015625 -1.296875q1.15625 -0.4375 2.4375 -0.4375q1.28125 0 2.40625 0.4375q1.140625 0.4375 1.984375 1.296875q0.859375 0.859375 1.359375 2.15625q0.515625 1.296875 0.515625 2.984375q0 1.6875 -0.515625 2.984375q-0.5 1.296875 -1.359375 2.15625q-0.84375 0.859375 -1.984375 1.296875q-1.125 0.4375 -2.40625 0.4375q-1.28125 0 -2.4375 -0.4375q-1.140625 -0.4375 -2.015625 -1.296875q-0.859375 -0.859375 -1.359375 -2.15625q-0.5 -1.296875 -0.5 -2.984375zm1.9375 0q0 1.203125 0.296875 2.1875q0.296875 0.96875 0.859375 1.65625q0.5625 0.671875 1.375 1.046875q0.8125 0.375 1.8125 0.375q1.0 0 1.796875 -0.375q0.8125 -0.375 1.359375 -1.046875q0.5625 -0.6875 0.859375 -1.65625q0.3125 -0.984375 0.3125 -2.1875q0 -1.203125 -0.3125 -2.171875q-0.296875 -0.984375 -0.859375 -1.65625q-0.546875 -0.6875 -1.359375 -1.0625q-0.796875 -0.375 -1.796875 -0.375q-1.0 0 -1.8125 0.375q-0.8125 0.375 -1.375 1.0625q-0.5625 0.671875 -0.859375 1.65625q-0.296875 0.96875 -0.296875 2.171875zm17.998962 6.875q-1.28125 0 -2.234375 -0.390625q-0.953125 -0.40625 -1.5625 -1.09375q-0.609375 -0.703125 -0.90625 -1.640625q-0.296875 -0.953125 -0.296875 -2.0625l0 -8.265625l1.84375 0l0 8.0625q0 1.96875 0.875 2.875q0.875 0.890625 2.28125 0.890625q0.703125 0 1.28125 -0.21875q0.578125 -0.21875 1.0 -0.671875q0.421875 -0.46875 0.640625 -1.171875q0.234375 -0.71875 0.234375 -1.703125l0 -8.0625l1.84375 0l0 8.265625q0 1.109375 -0.296875 2.0625q-0.296875 0.9375 -0.921875 1.640625q-0.609375 0.6875 -1.546875 1.09375q-0.9375 0.390625 -2.234375 0.390625zm16.74176 -13.453125l0 1.59375l-4.15625 0l0 11.578125l-1.828125 0l0 -11.578125l-4.15625 0l0 -1.59375l10.140625 0z" fill-rule="nonzero"></path></g></svg>

