<?xml version="1.0" standalone="yes"?>

<svg version="1.1" viewBox="0.0 0.0 720.0 540.0" fill="none" stroke="none" stroke-linecap="square" stroke-miterlimit="10" xmlns="http://www.w3.org/2000/svg" xmlns:xlink="http://www.w3.org/1999/xlink"><clipPath id="p.0"><path d="m0 0l720.0 0l0 540.0l-720.0 0l0 -540.0z" clip-rule="nonzero"></path></clipPath><g clip-path="url(#p.0)"><path fill="#000000" fill-opacity="0.0" d="m0 0l720.0 0l0 540.0l-720.0 0z" fill-rule="evenodd"></path><path fill="#000000" fill-opacity="0.0" d="m198.0 145.0l358.99213 0l0 220.0l-358.99213 0z" fill-rule="evenodd"></path><path stroke="#000000" stroke-width="2.0" stroke-linejoin="round" stroke-linecap="butt" d="m198.0 145.0l358.99213 0l0 220.0l-358.99213 0z" fill-rule="evenodd"></path><path fill="#000000" d="m494.8427 352.20123q-1.390625 0 -2.53125 -0.453125q-1.140625 -0.453125 -1.953125 -1.328125q-0.8125 -0.875 -1.265625 -2.15625q-0.4375 -1.28125 -0.4375 -2.9375q0 -1.65625 0.5 -2.9375q0.5 -1.28125 1.34375 -2.15625q0.859375 -0.875 2.0 -1.328125q1.140625 -0.453125 2.4375 -0.453125q0.8125 0 1.46875 0.109375q0.65625 0.109375 1.140625 0.265625q0.484375 0.15625 0.78125 0.3125q0.3125 0.140625 0.421875 0.21875l-0.53125 1.53125q-0.171875 -0.125 -0.5 -0.25q-0.3125 -0.140625 -0.71875 -0.265625q-0.40625 -0.140625 -0.890625 -0.21875q-0.484375 -0.09375 -0.984375 -0.09375q-1.046875 0 -1.890625 0.359375q-0.828125 0.359375 -1.421875 1.046875q-0.578125 0.6875 -0.890625 1.671875q-0.3125 0.96875 -0.3125 2.1875q0 1.171875 0.265625 2.140625q0.28125 0.96875 0.828125 1.671875q0.5625 0.6875 1.375 1.078125q0.828125 0.375 1.9375 0.375q1.265625 0 2.09375 -0.265625q0.84375 -0.265625 1.265625 -0.484375l0.484375 1.53125q-0.140625 0.09375 -0.484375 0.234375q-0.34375 0.140625 -0.859375 0.28125q-0.5 0.125 -1.1875 0.21875q-0.6875 0.09375 -1.484375 0.09375zm8.754395 -0.09375q-1.640625 -0.03125 -2.328125 -0.6875q-0.671875 -0.671875 -0.671875 -2.078125l0 -11.859375l1.765625 -0.3125l0 11.875q0 0.4375 0.078125 0.734375q0.078125 0.28125 0.25 0.453125q0.171875 0.171875 0.453125 0.265625q0.28125 0.078125 0.703125 0.125l-0.25 1.484375zm3.8900146 -0.1875l-1.765625 0l0 -9.875l1.765625 0l0 9.875zm-0.890625 -11.671875q-0.46875 0 -0.8125 -0.3125q-0.328125 -0.3125 -0.328125 -0.84375q0 -0.53125 0.328125 -0.84375q0.34375 -0.3125 0.8125 -0.3125q0.484375 0 0.8125 0.3125q0.328125 0.3125 0.328125 0.84375q0 0.53125 -0.328125 0.84375q-0.328125 0.3125 -0.8125 0.3125zm3.2981567 6.75q0 -1.3125 0.375 -2.28125q0.390625 -0.984375 1.015625 -1.625q0.625 -0.65625 1.4375 -0.96875q0.8125 -0.328125 1.671875 -0.328125q2.0 0 3.0625 1.25q1.0625 1.234375 1.0625 3.78125q0 0.109375 0 0.296875q0 0.1875 -0.015625 0.328125l-6.765625 0q0.109375 1.546875 0.890625 2.34375q0.78125 0.796875 2.4375 0.796875q0.921875 0 1.5625 -0.15625q0.640625 -0.171875 0.953125 -0.328125l0.25 1.484375q-0.3125 0.171875 -1.125 0.359375q-0.8125 0.203125 -1.828125 0.203125q-1.296875 0 -2.234375 -0.390625q-0.9375 -0.390625 -1.546875 -1.078125q-0.609375 -0.6875 -0.90625 -1.625q-0.296875 -0.9375 -0.296875 -2.0625zm6.78125 -0.96875q0.015625 -1.203125 -0.609375 -1.96875q-0.609375 -0.765625 -1.6875 -0.765625q-0.609375 0 -1.078125 0.234375q-0.46875 0.234375 -0.796875 0.625q-0.3125 0.375 -0.5 0.875q-0.171875 0.484375 -0.234375 1.0l4.90625 0zm4.194458 -3.703125q0.609375 -0.15625 1.609375 -0.328125q1.015625 -0.171875 2.328125 -0.171875q1.171875 0 1.953125 0.34375q0.78125 0.328125 1.25 0.921875q0.46875 0.59375 0.65625 1.4375q0.1875 0.828125 0.1875 1.84375l0 5.546875l-1.765625 0l0 -5.171875q0 -0.90625 -0.125 -1.546875q-0.125 -0.65625 -0.40625 -1.046875q-0.28125 -0.40625 -0.765625 -0.578125q-0.46875 -0.1875 -1.171875 -0.1875q-0.28125 0 -0.59375 0.015625q-0.296875 0.015625 -0.578125 0.046875q-0.28125 0.03125 -0.5 0.078125q-0.21875 0.03125 -0.3125 0.046875l0 8.34375l-1.765625 0l0 -9.59375zm12.36499 -0.28125l3.75 0l0 1.484375l-3.75 0l0 4.546875q0 0.75 0.109375 1.234375q0.125 0.484375 0.34375 0.765625q0.234375 0.265625 0.578125 0.390625q0.34375 0.109375 0.796875 0.109375q0.796875 0 1.28125 -0.171875q0.484375 -0.1875 0.671875 -0.265625l0.34375 1.453125q-0.265625 0.140625 -0.9375 0.328125q-0.65625 0.203125 -1.515625 0.203125q-1.0 0 -1.65625 -0.25q-0.65625 -0.25 -1.0625 -0.765625q-0.390625 -0.515625 -0.5625 -1.265625q-0.15625 -0.75 -0.15625 -1.734375l0 -8.828125l1.765625 -0.296875l0 3.0625zm5.296631 4.953125q0 -1.3125 0.375 -2.28125q0.390625 -0.984375 1.015625 -1.625q0.625 -0.65625 1.4375 -0.96875q0.8125 -0.328125 1.671875 -0.328125q2.0 0 3.0625 1.25q1.0625 1.234375 1.0625 3.78125q0 0.109375 0 0.296875q0 0.1875 -0.015625 0.328125l-6.765625 0q0.109375 1.546875 0.890625 2.34375q0.78125 0.796875 2.4375 0.796875q0.921875 0 1.5625 -0.15625q0.640625 -0.171875 0.953125 -0.328125l0.25 1.484375q-0.3125 0.171875 -1.125 0.359375q-0.8125 0.203125 -1.828125 0.203125q-1.296875 0 -2.234375 -0.390625q-0.9375 -0.390625 -1.546875 -1.078125q-0.609375 -0.6875 -0.90625 -1.625q-0.296875 -0.9375 -0.296875 -2.0625zm6.78125 -0.96875q0.015625 -1.203125 -0.609375 -1.96875q-0.609375 -0.765625 -1.6875 -0.765625q-0.609375 0 -1.078125 0.234375q-0.46875 0.234375 -0.796875 0.625q-0.3125 0.375 -0.5 0.875q-0.171875 0.484375 -0.234375 1.0l4.90625 0z" fill-rule="nonzero"></path><path fill="#cfe2f3" d="m394.28348 254.00787l0 0c0 -28.170868 24.049713 -51.007874 53.716522 -51.007874l0 0c14.246521 0 27.909515 5.3740234 37.983337 14.939865c10.0737915 9.565826 15.733185 22.539886 15.733185 36.06801l0 0c0 28.170868 -24.049713 51.007874 -53.716522 51.007874l0 0c-29.66681 0 -53.716522 -22.837006 -53.716522 -51.007874z" fill-rule="evenodd"></path><path stroke="#000000" stroke-width="1.0" stroke-linejoin="round" stroke-linecap="butt" d="m394.28348 254.00787l0 0c0 -28.170868 24.049713 -51.007874 53.716522 -51.007874l0 0c14.246521 0 27.909515 5.3740234 37.983337 14.939865c10.0737915 9.565826 15.733185 22.539886 15.733185 36.06801l0 0c0 28.170868 -24.049713 51.007874 -53.716522 51.007874l0 0c-29.66681 0 -53.716522 -22.837006 -53.716522 -51.007874z" fill-rule="evenodd"></path><path fill="#000000" d="m429.32916 260.9279q-0.265625 -0.78125 -0.546875 -1.53125q-0.28125 -0.765625 -0.546875 -1.5625l-5.546875 0q-0.265625 0.796875 -0.546875 1.5625q-0.28125 0.765625 -0.546875 1.53125l-2.484375 0q0.75 -2.109375 1.40625 -3.890625q0.671875 -1.7968903 1.296875 -3.3906403q0.640625 -1.59375 1.265625 -3.03125q0.625 -1.453125 1.296875 -2.859375l2.265625 0q0.65625 1.40625 1.28125 2.859375q0.625 1.4375 1.265625 3.03125q0.640625 1.59375 1.3125 3.3906403q0.671875 1.78125 1.421875 3.890625l-2.59375 0zm-3.875 -10.625015q-0.4375 1.015625 -1.0 2.46875q-0.546875 1.4375 -1.15625 3.125l4.328125 0q-0.609375 -1.6875 -1.1875 -3.15625q-0.5625 -1.46875 -0.984375 -2.4375zm7.229645 5.671875q0 -1.109375 0.34375 -2.0625q0.34375 -0.96875 0.984375 -1.671875q0.640625 -0.703125 1.546875 -1.09375q0.90625 -0.40625 2.046875 -0.40625q1.40625 0 2.671875 0.515625l-0.5 1.875q-0.40625 -0.171875 -0.90625 -0.28125q-0.5 -0.109375 -1.078125 -0.109375q-1.34375 0 -2.046875 0.84375q-0.703125 0.84375 -0.703125 2.390625q0 1.4687653 0.65625 2.3437653q0.671875 0.859375 2.25 0.859375q0.59375 0 1.15625 -0.109375q0.578125 -0.109375 1.0 -0.28125l0.3125 1.890625q-0.375 0.1875 -1.15625 0.34375q-0.765625 0.15625 -1.578125 0.15625q-1.265625 0 -2.21875 -0.390625q-0.9375 -0.390625 -1.5625 -1.078125q-0.609375 -0.703125 -0.921875 -1.65625q-0.296875 -0.96875 -0.296875 -2.0781403zm9.243256 -7.609375l2.296875 -0.375l0 3.0l3.546875 0l0 1.921875l-3.546875 0l0 4.0468903q0 1.1875 0.375 1.703125q0.390625 0.515625 1.296875 0.515625q0.640625 0 1.125 -0.125q0.484375 -0.140625 0.765625 -0.25l0.375 1.828125q-0.390625 0.15625 -1.046875 0.34375q-0.640625 0.1875 -1.515625 0.1875q-1.0625 0 -1.78125 -0.28125q-0.703125 -0.296875 -1.125 -0.828125q-0.421875 -0.546875 -0.59375 -1.3125q-0.171875 -0.78125 -0.171875 -1.765625l0 -8.60939zm10.235809 12.562515l-2.296875 0l0 -9.937515l2.296875 0l0 9.937515zm0.25 -12.843765q0 0.640625 -0.421875 1.03125q-0.421875 0.375 -0.984375 0.375q-0.59375 0 -1.015625 -0.375q-0.40625 -0.390625 -0.40625 -1.03125q0 -0.671875 0.40625 -1.046875q0.421875 -0.375 1.015625 -0.375q0.5625 0 0.984375 0.375q0.421875 0.375 0.421875 1.046875zm5.133484 12.843765q-0.953125 -1.953125 -1.953125 -4.484375q-1.0 -2.5468903 -1.8125 -5.4531403l2.453125 0q0.203125 0.84375 0.46875 1.796875q0.28125 0.953125 0.59375 1.921875q0.3125 0.953125 0.640625 1.8593903q0.34375 0.90625 0.625 1.625q0.28125 -0.71875 0.609375 -1.625q0.328125 -0.90626526 0.640625 -1.8593903q0.3125 -0.96875 0.59375 -1.921875q0.28125 -0.953125 0.5 -1.796875l2.375 0q-0.8125 2.90625 -1.8125 5.4531403q-1.0 2.53125 -1.953125 4.484375l-1.96875 0zm16.250702 -4.9843903q0 1.1875153 -0.34375 2.1562653q-0.34375 0.96875 -0.96875 1.65625q-0.625 0.671875 -1.515625 1.0625q-0.875 0.375 -1.9375 0.375q-1.078125 0 -1.953125 -0.375q-0.859375 -0.390625 -1.5 -1.0625q-0.625 -0.6875 -0.984375 -1.65625q-0.34375 -0.96875 -0.34375 -2.1562653q0 -1.171875 0.34375 -2.125q0.359375 -0.96875 1.0 -1.640625q0.640625 -0.6875 1.515625 -1.0625q0.875 -0.375 1.921875 -0.375q1.03125 0 1.921875 0.375q0.890625 0.375 1.515625 1.0625q0.625 0.671875 0.96875 1.640625q0.359375 0.953125 0.359375 2.125zm-2.359375 0q0 -1.46875 -0.640625 -2.328125q-0.625 -0.875 -1.765625 -0.875q-1.140625 0 -1.78125 0.875q-0.640625 0.859375 -0.640625 2.328125q0 1.5000153 0.640625 2.3750153q0.640625 0.875 1.78125 0.875q1.140625 0 1.765625 -0.875q0.640625 -0.875 0.640625 -2.3750153z" fill-rule="nonzero"></path><path fill="#000000" fill-opacity="0.0" d="m448.0 203.0c0 -12.499985 -24.428009 -32.28682 -48.858276 -24.999985c-24.430237 7.28685 -48.862762 41.647354 -48.858246 76.00786c0.004486084 34.360504 24.445984 68.72101 48.88974 76.00784c24.443756 7.2868347 48.88977 -12.4999695 48.88977 -24.99997" fill-rule="evenodd"></path><path stroke="#000000" stroke-width="2.0" stroke-linejoin="round" stroke-linecap="butt" stroke-dasharray="8.0,6.0" d="m443.18054 192.01033l-0.16049194 -0.19621277c-0.09008789 -0.10871887 -0.18127441 -0.21731567 -0.27352905 -0.32574463c-0.36901855 -0.4337921 -0.755188 -0.8652344 -1.1577454 -1.2933197c-0.80514526 -0.8561859 -1.6758728 -1.6988678 -2.6062927 -2.519699c-1.8607788 -1.6416473 -3.960083 -3.195816 -6.2502747 -4.595398c-9.160767 -5.598343 -21.375336 -8.723343 -33.590485 -5.079941c-24.430237 7.28685 -48.862762 41.647354 -48.858246 76.00786c0.004486084 34.360504 24.445984 68.72101 48.88974 76.00784c24.443787 7.286865 48.88977 -12.5 48.88977 -24.99997" fill-rule="evenodd"></path><path fill="#000000" stroke="#000000" stroke-width="2.0" stroke-linecap="butt" d="m440.1552 193.33708l6.670532 6.9852753l-0.61987305 -9.638763z" fill-rule="evenodd"></path><path fill="#000000" fill-opacity="0.0" d="m218.28346 225.0l126.99214 0l0 58.015747l-126.99214 0z" fill-rule="evenodd"></path><path fill="#000000" d="m255.5115 251.92l0 -13.171875l8.03125 0l0 1.578125l-6.1875 0l0 3.921875l5.5 0l0 1.53125l-5.5 0l0 4.5625l6.65625 0l0 1.578125l-8.5 0zm8.9339905 2.015625l9.5 0l0 1.5l-9.5 0l0 -1.5zm10.366364 -8.609375q0 -1.6875 0.5 -2.984375q0.5 -1.296875 1.359375 -2.15625q0.875 -0.859375 2.015625 -1.296875q1.15625 -0.4375 2.4375 -0.4375q1.28125 0 2.40625 0.4375q1.140625 0.4375 1.984375 1.296875q0.859375 0.859375 1.359375 2.15625q0.515625 1.296875 0.515625 2.984375q0 1.6875 -0.515625 2.984375q-0.5 1.296875 -1.359375 2.15625q-0.84375 0.859375 -1.984375 1.296875q-1.125 0.4375 -2.40625 0.4375q-1.28125 0 -2.4375 -0.4375q-1.140625 -0.4375 -2.015625 -1.296875q-0.859375 -0.859375 -1.359375 -2.15625q-0.5 -1.296875 -0.5 -2.984375zm1.9375 0q0 1.203125 0.296875 2.1875q0.296875 0.96875 0.859375 1.65625q0.5625 0.671875 1.375 1.046875q0.8125 0.375 1.8125 0.375q1.0 0 1.796875 -0.375q0.8125 -0.375 1.359375 -1.046875q0.5625 -0.6875 0.859375 -1.65625q0.3125 -0.984375 0.3125 -2.1875q0 -1.203125 -0.3125 -2.171875q-0.296875 -0.984375 -0.859375 -1.65625q-0.546875 -0.6875 -1.359375 -1.0625q-0.796875 -0.375 -1.796875 -0.375q-1.0 0 -1.8125 0.375q-0.8125 0.375 -1.375 1.0625q-0.5625 0.671875 -0.859375 1.65625q-0.296875 0.96875 -0.296875 2.171875zm20.858337 6.3125q-0.609375 0.140625 -1.609375 0.3125q-1.0 0.171875 -2.3125 0.171875q-1.140625 0 -1.921875 -0.328125q-0.765625 -0.328125 -1.25 -0.9375q-0.46875 -0.609375 -0.6875 -1.4375q-0.203125 -0.828125 -0.203125 -1.828125l0 -5.546875l1.765625 0l0 5.15625q0 1.8125 0.5625 2.59375q0.578125 0.78125 1.921875 0.78125q0.296875 0 0.59375 -0.015625q0.3125 -0.03125 0.578125 -0.046875q0.265625 -0.03125 0.484375 -0.0625q0.21875 -0.03125 0.3125 -0.0625l0 -8.34375l1.765625 0l0 9.59375zm4.489929 -9.59375l3.75 0l0 1.484375l-3.75 0l0 4.546875q0 0.75 0.109375 1.234375q0.125 0.484375 0.34375 0.765625q0.234375 0.265625 0.578125 0.390625q0.34375 0.109375 0.796875 0.109375q0.796875 0 1.28125 -0.171875q0.484375 -0.1875 0.671875 -0.265625l0.34375 1.453125q-0.265625 0.140625 -0.9375 0.328125q-0.65625 0.203125 -1.515625 0.203125q-1.0 0 -1.65625 -0.25q-0.65625 -0.25 -1.0625 -0.765625q-0.390625 -0.515625 -0.5625 -1.265625q-0.15625 -0.75 -0.15625 -1.734375l0 -8.828125l1.765625 -0.296875l0 3.0625zm9.637543 5.46875l8.703125 0l0 1.5l-8.703125 0l0 -1.5zm0 -4.046875l8.703125 0l0 1.5l-8.703125 0l0 -1.5zm15.347351 -1.140625q0.609375 -0.15625 1.609375 -0.328125q1.015625 -0.171875 2.328125 -0.171875q1.171875 0 1.953125 0.34375q0.78125 0.328125 1.25 0.921875q0.46875 0.59375 0.65625 1.4375q0.1875 0.828125 0.1875 1.84375l0 5.546875l-1.765625 0l0 -5.171875q0 -0.90625 -0.125 -1.546875q-0.125 -0.65625 -0.40625 -1.046875q-0.28125 -0.40625 -0.765625 -0.578125q-0.46875 -0.1875 -1.171875 -0.1875q-0.28125 0 -0.59375 0.015625q-0.296875 0.015625 -0.578125 0.046875q-0.28125 0.03125 -0.5 0.078125q-0.21875 0.03125 -0.3125 0.046875l0 8.34375l-1.765625 0l0 -9.59375z" fill-rule="nonzero"></path><path fill="#000000" d="m241.93735 264.32623q0.609375 -0.15625 1.609375 -0.328125q1.015625 -0.171875 2.328125 -0.171875q1.171875 0 1.953125 0.34375q0.78125 0.328125 1.25 0.921875q0.46875 0.59375 0.65625 1.4375q0.1875 0.828125 0.1875 1.84375l0 5.546875l-1.765625 0l0 -5.171875q0 -0.90625 -0.125 -1.546875q-0.125 -0.65625 -0.40625 -1.046875q-0.28125 -0.40625 -0.765625 -0.578125q-0.46875 -0.1875 -1.171875 -0.1875q-0.28125 0 -0.59375 0.015625q-0.296875 0.015625 -0.578125 0.046875q-0.28125 0.03125 -0.5 0.078125q-0.21875 0.03125 -0.3125 0.046875l0 8.34375l-1.765625 0l0 -9.59375z" fill-rule="nonzero"></path><path fill="#000000" d="m263.09628 273.91998l-2.59375 0q-2.265625 0 -3.359375 -1.40625q-0.984375 -1.25 -0.953125 -3.515625q0.015625 -2.25 1.09375 -3.53125q1.15625 -1.40625 3.375 -1.40625l2.4375 0l0 1.4375l-2.5 0q-1.203125 0 -1.921875 0.78125q-0.640625 0.703125 -0.78125 1.90625l3.484375 0l0 1.375l-3.484375 0q0.296875 2.921875 2.703125 2.921875l2.5 0l0 1.4375z" fill-rule="nonzero"></path><path fill="#000000" d="m268.75934 267.5606q0.453125 0 0.765625 -0.15625q0.328125 -0.171875 0.546875 -0.421875q0.21875 -0.265625 0.328125 -0.59375q0.109375 -0.328125 0.109375 -0.671875l0 -3.421875q0 -0.78125 0.15625 -1.390625q0.171875 -0.609375 0.59375 -1.015625q0.421875 -0.40625 1.109375 -0.625q0.703125 -0.21875 1.71875 -0.21875l0.078125 0l0 1.390625q-1.078125 0 -1.546875 0.390625q-0.46875 0.375 -0.46875 1.484375l0 2.921875q0 1.265625 -0.328125 1.953125q-0.328125 0.671875 -0.9375 1.046875q0.609375 0.390625 0.9375 1.078125q0.328125 0.671875 0.328125 1.9375l0 2.921875q0 1.09375 0.46875 1.484375q0.46875 0.390625 1.546875 0.390625l0 1.390625l-0.078125 0q-1.015625 0 -1.71875 -0.21875q-0.6875 -0.203125 -1.109375 -0.625q-0.421875 -0.40625 -0.59375 -1.015625q-0.15625 -0.609375 -0.15625 -1.390625l0 -3.421875q0 -0.34375 -0.109375 -0.671875q-0.109375 -0.328125 -0.328125 -0.578125q-0.21875 -0.265625 -0.546875 -0.421875q-0.3125 -0.171875 -0.765625 -0.171875l0 -1.359375zm7.212555 -4.09375q1.078125 -0.421875 2.109375 -1.0625q1.03125 -0.65625 1.875 -1.65625l1.265625 0l0 13.171875l-1.765625 0l0 -10.71875q-0.234375 0.21875 -0.578125 0.453125q-0.328125 0.21875 -0.71875 0.421875q-0.375 0.203125 -0.8125 0.40625q-0.421875 0.1875 -0.828125 0.3125l-0.546875 -1.328125zm12.1315 8.28125q0.03125 0.15625 0.03125 0.296875q0 0.140625 0 0.296875q0 1.203125 -0.359375 2.359375q-0.34375 1.171875 -0.953125 2.234375l-1.375 -0.4375q0.484375 -0.96875 0.625 -1.96875q0.15625 -0.984375 0.15625 -1.859375q0 -0.25 -0.015625 -0.46875q0 -0.234375 -0.015625 -0.453125l1.90625 0zm10.0894165 -7.625q0 0.671875 -0.28125 1.3125q-0.265625 0.640625 -0.734375 1.265625q-0.453125 0.609375 -1.03125 1.203125q-0.5625 0.59375 -1.125 1.171875q-0.328125 0.328125 -0.765625 0.765625q-0.421875 0.4375 -0.796875 0.90625q-0.375 0.46875 -0.640625 0.90625q-0.25 0.4375 -0.25 0.765625l6.0625 0l0 1.5l-7.984375 0q-0.015625 -0.109375 -0.015625 -0.21875q0 -0.125 0 -0.21875q0 -0.890625 0.296875 -1.65625q0.296875 -0.78125 0.765625 -1.453125q0.46875 -0.6875 1.0625 -1.296875q0.59375 -0.609375 1.15625 -1.171875q0.484375 -0.46875 0.90625 -0.90625q0.421875 -0.453125 0.75 -0.890625q0.34375 -0.453125 0.53125 -0.921875q0.203125 -0.484375 0.203125 -1.015625q0 -0.5625 -0.1875 -0.953125q-0.171875 -0.40625 -0.484375 -0.671875q-0.296875 -0.265625 -0.703125 -0.390625q-0.40625 -0.125 -0.859375 -0.125q-0.546875 0 -1.015625 0.15625q-0.453125 0.140625 -0.8125 0.34375q-0.359375 0.203125 -0.609375 0.421875q-0.234375 0.21875 -0.375 0.328125l-0.875 -1.25q0.171875 -0.1875 0.515625 -0.46875q0.34375 -0.28125 0.8125 -0.515625q0.484375 -0.25 1.0625 -0.421875q0.59375 -0.171875 1.28125 -0.171875q2.0625 0 3.09375 0.96875q1.046875 0.953125 1.046875 2.703125zm5.0221252 7.625q0.03125 0.15625 0.03125 0.296875q0 0.140625 0 0.296875q0 1.203125 -0.359375 2.359375q-0.34375 1.171875 -0.953125 2.234375l-1.375 -0.4375q0.484375 -0.96875 0.625 -1.96875q0.15625 -0.984375 0.15625 -1.859375q0 -0.25 -0.015625 -0.46875q0 -0.234375 -0.015625 -0.453125l1.90625 0zm5.511322 0.875q1.6875 0 2.421875 -0.65625q0.734375 -0.671875 0.734375 -1.796875q0 -0.71875 -0.3125 -1.203125q-0.296875 -0.5 -0.796875 -0.796875q-0.484375 -0.296875 -1.140625 -0.40625q-0.65625 -0.125 -1.34375 -0.125l-0.453125 0l0 -1.453125l0.625 0q0.46875 0 0.96875 -0.09375q0.515625 -0.09375 0.921875 -0.34375q0.421875 -0.25 0.6875 -0.671875q0.265625 -0.421875 0.265625 -1.078125q0 -0.53125 -0.1875 -0.90625q-0.1875 -0.375 -0.5 -0.625q-0.3125 -0.25 -0.734375 -0.34375q-0.40625 -0.109375 -0.859375 -0.109375q-0.90625 0 -1.546875 0.265625q-0.640625 0.265625 -1.078125 0.546875l-0.671875 -1.34375q0.21875 -0.15625 0.5625 -0.328125q0.359375 -0.1875 0.796875 -0.34375q0.4375 -0.15625 0.9375 -0.25q0.515625 -0.109375 1.0625 -0.109375q1.046875 0 1.796875 0.265625q0.765625 0.25 1.25 0.71875q0.5 0.453125 0.75 1.09375q0.25 0.640625 0.25 1.375q0 1.03125 -0.59375 1.765625q-0.578125 0.71875 -1.421875 1.109375q0.515625 0.15625 0.984375 0.4375q0.484375 0.28125 0.828125 0.71875q0.359375 0.4375 0.578125 1.015625q0.21875 0.5625 0.21875 1.265625q0 0.859375 -0.296875 1.59375q-0.296875 0.71875 -0.921875 1.25q-0.609375 0.53125 -1.546875 0.84375q-0.921875 0.296875 -2.203125 0.296875q-0.484375 0 -1.015625 -0.078125q-0.515625 -0.0625 -0.984375 -0.1875q-0.453125 -0.109375 -0.796875 -0.21875q-0.328125 -0.125 -0.484375 -0.203125l0.34375 -1.53125q0.3125 0.15625 1.0625 0.40625q0.765625 0.234375 1.84375 0.234375zm9.60025 -0.875q0.03125 0.15625 0.03125 0.296875q0 0.140625 0 0.296875q0 1.203125 -0.359375 2.359375q-0.34375 1.171875 -0.953125 2.234375l-1.375 -0.4375q0.484375 -0.96875 0.625 -1.96875q0.15625 -0.984375 0.15625 -1.859375q0 -0.25 -0.015625 -0.46875q0 -0.234375 -0.015625 -0.453125l1.90625 0zm1.9800415 -2.390625q0.359375 -0.828125 0.984375 -1.9375q0.625 -1.125 1.40625 -2.296875q0.796875 -1.171875 1.6875 -2.3125q0.90625 -1.140625 1.828125 -2.0625l1.6875 0l0 8.359375l1.5625 0l0 1.453125l-1.5625 0l0 3.359375l-1.703125 0l0 -3.359375l-5.890625 0l0 -1.203125zm5.890625 -6.515625q-0.578125 0.609375 -1.15625 1.359375q-0.578125 0.75 -1.140625 1.578125q-0.546875 0.8125 -1.03125 1.671875q-0.484375 0.84375 -0.859375 1.65625l4.1875 0l0 -6.265625zm9.428375 6.078125q-0.453125 0 -0.78125 0.171875q-0.3125 0.15625 -0.53125 0.421875q-0.21875 0.25 -0.328125 0.578125q-0.109375 0.328125 -0.109375 0.671875l0 3.421875q0 0.78125 -0.171875 1.390625q-0.15625 0.609375 -0.578125 1.015625q-0.421875 0.421875 -1.125 0.625q-0.6875 0.21875 -1.703125 0.21875l-0.078125 0l0 -1.390625q1.078125 0 1.546875 -0.390625q0.46875 -0.390625 0.46875 -1.484375l0 -2.921875q0 -1.265625 0.328125 -1.9375q0.328125 -0.6875 0.9375 -1.078125q-0.609375 -0.375 -0.9375 -1.046875q-0.328125 -0.6875 -0.328125 -1.953125l0 -2.921875q0 -1.109375 -0.46875 -1.484375q-0.46875 -0.390625 -1.546875 -0.390625l0 -1.390625l0.078125 0q1.015625 0 1.703125 0.21875q0.703125 0.21875 1.125 0.625q0.421875 0.40625 0.578125 1.015625q0.171875 0.609375 0.171875 1.390625l0 3.421875q0 0.34375 0.109375 0.671875q0.109375 0.328125 0.328125 0.59375q0.21875 0.25 0.53125 0.421875q0.328125 0.15625 0.78125 0.15625l0 1.359375z" fill-rule="nonzero"></path><path fill="#6d9eeb" d="m159.0 294.0l77.00787 0l0 30.015747l-77.00787 0z" fill-rule="evenodd"></path><path stroke="#000000" stroke-width="2.0" stroke-linejoin="round" stroke-linecap="butt" d="m159.0 294.0l77.00787 0l0 30.015747l-77.00787 0z" fill-rule="evenodd"></path><path fill="#000000" d="m170.28333 315.92786l0 -13.171875l8.03125 0l0 1.578125l-6.1875 0l0 3.921875l5.5 0l0 1.53125l-5.5 0l0 4.5625l6.65625 0l0 1.578125l-8.5 0zm8.933975 2.015625l9.5 0l0 1.5l-9.5 0l0 -1.5zm10.366379 -8.609375q0 -1.6875 0.5 -2.984375q0.5 -1.296875 1.359375 -2.15625q0.875 -0.859375 2.015625 -1.296875q1.15625 -0.4375 2.4375 -0.4375q1.28125 0 2.40625 0.4375q1.140625 0.4375 1.984375 1.296875q0.859375 0.859375 1.359375 2.15625q0.515625 1.296875 0.515625 2.984375q0 1.6875 -0.515625 2.984375q-0.5 1.296875 -1.359375 2.15625q-0.84375 0.859375 -1.984375 1.296875q-1.125 0.4375 -2.40625 0.4375q-1.28125 0 -2.4375 -0.4375q-1.140625 -0.4375 -2.015625 -1.296875q-0.859375 -0.859375 -1.359375 -2.15625q-0.5 -1.296875 -0.5 -2.984375zm1.9375 0q0 1.203125 0.296875 2.1875q0.296875 0.96875 0.859375 1.65625q0.5625 0.671875 1.375 1.046875q0.8125 0.375 1.8125 0.375q1.0 0 1.796875 -0.375q0.8125 -0.375 1.359375 -1.046875q0.5625 -0.6875 0.859375 -1.65625q0.3125 -0.984375 0.3125 -2.1875q0 -1.203125 -0.3125 -2.171875q-0.296875 -0.984375 -0.859375 -1.65625q-0.546875 -0.6875 -1.359375 -1.0625q-0.796875 -0.375 -1.796875 -0.375q-1.0 0 -1.8125 0.375q-0.8125 0.375 -1.375 1.0625q-0.5625 0.671875 -0.859375 1.65625q-0.296875 0.96875 -0.296875 2.171875zm17.998947 6.875q-1.28125 0 -2.234375 -0.390625q-0.953125 -0.40625 -1.5625 -1.09375q-0.609375 -0.703125 -0.90625 -1.640625q-0.296875 -0.953125 -0.296875 -2.0625l0 -8.265625l1.84375 0l0 8.0625q0 1.96875 0.875 2.875q0.875 0.890625 2.28125 0.890625q0.703125 0 1.28125 -0.21875q0.578125 -0.21875 1.0 -0.671875q0.421875 -0.46875 0.640625 -1.171875q0.234375 -0.71875 0.234375 -1.703125l0 -8.0625l1.84375 0l0 8.265625q0 1.109375 -0.296875 2.0625q-0.296875 0.9375 -0.921875 1.640625q-0.609375 0.6875 -1.546875 1.09375q-0.9375 0.390625 -2.234375 0.390625zm16.74176 -13.453125l0 1.59375l-4.15625 0l0 11.578125l-1.828125 0l0 -11.578125l-4.15625 0l0 -1.59375l10.140625 0z" fill-rule="nonzero"></path></g></svg>

