<?xml version="1.0" encoding="UTF-8" standalone="no"?>
<!-- Created with Inkscape (http://www.inkscape.org/) -->

<svg
   xmlns:ns0="http://www.iki.fi/pav/software/textext/"
   xmlns:dc="http://purl.org/dc/elements/1.1/"
   xmlns:cc="http://creativecommons.org/ns#"
   xmlns:rdf="http://www.w3.org/1999/02/22-rdf-syntax-ns#"
   xmlns:svg="http://www.w3.org/2000/svg"
   xmlns="http://www.w3.org/2000/svg"
   xmlns:sodipodi="http://sodipodi.sourceforge.net/DTD/sodipodi-0.dtd"
   xmlns:inkscape="http://www.inkscape.org/namespaces/inkscape"
   width="210mm"
   height="297mm"
   viewBox="0 0 744.09448819 1052.3622047"
   id="svg28610"
   version="1.1"
   inkscape:version="0.91 r13725"
   sodipodi:docname="CI-esquematico.svg">
  <defs
     id="defs28612">
    <marker
       inkscape:stockid="TriangleOutL"
       orient="auto"
       refY="0.0"
       refX="0.0"
       id="TriangleOutL"
       style="overflow:visible"
       inkscape:isstock="true">
      <path
         id="path16487"
         d="M 5.77,0.0 L -2.88,5.0 L -2.88,-5.0 L 5.77,0.0 z "
         style="fill-rule:evenodd;stroke:#000000;stroke-width:1pt;stroke-opacity:1;fill:#000000;fill-opacity:1"
         transform="scale(0.8)" />
    </marker>
    <marker
       inkscape:stockid="TriangleInL"
       orient="auto"
       refY="0.0"
       refX="0.0"
       id="TriangleInL"
       style="overflow:visible"
       inkscape:isstock="true">
      <path
         id="path16478"
         d="M 5.77,0.0 L -2.88,5.0 L -2.88,-5.0 L 5.77,0.0 z "
         style="fill-rule:evenodd;stroke:#000000;stroke-width:1pt;stroke-opacity:1;fill:#000000;fill-opacity:1"
         transform="scale(-0.8)" />
    </marker>
    <marker
       inkscape:stockid="TriangleOutL"
       orient="auto"
       refY="0"
       refX="0"
       id="TriangleOutL-8"
       style="overflow:visible"
       inkscape:isstock="true">
      <path
         inkscape:connector-curvature="0"
         id="path16487-6"
         d="m 5.77,0 -8.65,5 0,-10 8.65,5 z"
         style="fill:#000000;fill-opacity:1;fill-rule:evenodd;stroke:#000000;stroke-width:1pt;stroke-opacity:1"
         transform="scale(0.8,0.8)" />
    </marker>
    <marker
       inkscape:stockid="TriangleOutL"
       orient="auto"
       refY="0"
       refX="0"
       id="TriangleOutL-8-8"
       style="overflow:visible"
       inkscape:isstock="true">
      <path
         inkscape:connector-curvature="0"
         id="path16487-6-4"
         d="m 5.77,0 -8.65,5 0,-10 8.65,5 z"
         style="fill:#000000;fill-opacity:1;fill-rule:evenodd;stroke:#000000;stroke-width:1pt;stroke-opacity:1"
         transform="scale(0.8,0.8)" />
    </marker>
  </defs>
  <sodipodi:namedview
     id="base"
     pagecolor="#ffffff"
     bordercolor="#666666"
     borderopacity="1.0"
     inkscape:pageopacity="0.0"
     inkscape:pageshadow="2"
     inkscape:zoom="1.8445543"
     inkscape:cx="435.89783"
     inkscape:cy="526.17935"
     inkscape:document-units="px"
     inkscape:current-layer="layer1"
     showgrid="true"
     inkscape:window-width="1855"
     inkscape:window-height="1056"
     inkscape:window-x="65"
     inkscape:window-y="24"
     inkscape:window-maximized="1">
    <inkscape:grid
       type="xygrid"
       id="grid29158" />
  </sodipodi:namedview>
  <metadata
     id="metadata28615">
    <rdf:RDF>
      <cc:Work
         rdf:about="">
        <dc:format>image/svg+xml</dc:format>
        <dc:type
           rdf:resource="http://purl.org/dc/dcmitype/StillImage" />
        <dc:title></dc:title>
      </cc:Work>
    </rdf:RDF>
  </metadata>
  <g
     inkscape:label="Capa 1"
     inkscape:groupmode="layer"
     id="layer1">
    <rect
       y="387.67245"
       x="310.80106"
       height="114.59346"
       width="134.67879"
       id="rect47535-6-1-8"
       style="fill:#b4f3f4;fill-opacity:1;stroke:#000000;stroke-width:1;stroke-miterlimit:4;stroke-dasharray:none;stroke-dashoffset:0;stroke-opacity:1" />
    <g
       style="font-style:normal;font-variant:normal;font-weight:normal;font-stretch:normal;letter-spacing:normal;word-spacing:normal;text-anchor:start;fill:none;fill-opacity:1;fill-rule:evenodd;stroke:#000000;stroke-linecap:butt;stroke-linejoin:miter;stroke-miterlimit:10.43299961;stroke-dasharray:none;stroke-dashoffset:0;stroke-opacity:1"
       ns0:preamble="/home/piter/.config/inkscape/extensions/preambulo.ini"
       ns0:text="\\Large{\n\\begin{tabular}{c}\n\\textbf{Control de}\\\\\n\\textbf{Inventario}\\\\\n\\end{tabular}}"
       word-spacing="normal"
       letter-spacing="normal"
       font-size-adjust="none"
       font-stretch="normal"
       font-weight="normal"
       font-variant="normal"
       font-style="normal"
       stroke-miterlimit="10.433"
       xml:space="preserve"
       transform="matrix(1,0,0,-1,104.58858,1144.8329)"
       id="g14106"><path
         id="path14108"
         d="m 244.84,714.18 0,0.01 -0.01,0.02 0,0.01 0,0.01 0,0.02 0,0.01 0,0.01 0,0.02 0,0.01 0,0.01 0,0.01 0,0.01 0,0.02 0,0.02 0,0.02 0,0.02 -0.01,0.01 0,0.02 -0.01,0.01 0,0.01 -0.01,0.02 0,0.01 -0.01,0.01 -0.01,0 -0.01,0.01 -0.01,0.01 -0.01,0 -0.02,0.01 0,0 -0.01,0 -0.01,0.01 -0.01,0 -0.01,0 -0.01,0 0,0 -0.01,0 -0.01,0 -0.01,0 -0.01,0.01 -0.02,0 -0.01,0 -0.01,0 -0.01,0 -0.01,0 -0.02,0 -0.01,0 -0.02,0 -0.01,0 -1.08,-1.03 c -0.8,0.68 -1.76,1.03 -2.82,1.03 -3.43,0 -5.64,-2.08 -5.64,-5.09 0,-2.96 2.14,-5.1 5.65,-5.1 2.55,0 4.21,1.75 4.21,3.45 0,0.24 -0.09,0.25 -0.31,0.25 -0.14,0 -0.28,0 -0.3,-0.15 -0.13,-2.18 -1.98,-2.93 -3.27,-2.93 -0.93,0 -2.19,0.26 -3,1.16 -0.5,0.55 -0.96,1.34 -0.96,3.32 0,1.4 0.22,2.45 0.89,3.25 0.92,1.08 2.35,1.22 3.04,1.22 1.08,0 2.81,-0.6 3.25,-3.13 0.02,-0.13 0.15,-0.13 0.33,-0.13 0.33,0 0.33,0.03 0.33,0.38 z"
         inkscape:connector-curvature="0"
         style="fill:#000000;stroke-width:0" /><path
         id="path14110"
         d="m 253.35,707.68 -0.01,0.18 -0.01,0.17 -0.02,0.18 -0.02,0.17 -0.04,0.16 -0.04,0.17 -0.05,0.15 -0.05,0.16 -0.07,0.15 -0.07,0.14 -0.07,0.14 -0.09,0.14 -0.09,0.13 -0.1,0.13 -0.1,0.12 -0.11,0.11 -0.12,0.11 -0.13,0.1 -0.13,0.1 -0.13,0.09 -0.15,0.09 -0.15,0.08 -0.15,0.07 -0.17,0.06 -0.16,0.06 -0.18,0.05 -0.18,0.04 -0.18,0.04 -0.2,0.03 -0.19,0.02 -0.21,0.01 -0.2,0 -0.02,-0.47 c 0.82,0 1.34,-0.39 1.58,-0.79 0.29,-0.51 0.29,-1.26 0.29,-1.95 0,-1.19 0,-2.85 -1.85,-2.85 l 0,0 c -1.87,0 -1.87,1.67 -1.87,2.85 0,0.67 0,1.39 0.27,1.91 0.32,0.57 0.97,0.83 1.58,0.83 l 0.02,0.47 c -2.34,0 -3.59,-1.49 -3.59,-3.35 0,-1.88 1.32,-3.23 3.57,-3.23 2.34,0 3.59,1.42 3.59,3.23 z"
         inkscape:connector-curvature="0"
         style="fill:#000000;stroke-width:0" /><path
         id="path14112"
         d="m 261.43,708.92 0,0.13 0,0.12 -0.01,0.12 -0.02,0.12 -0.01,0.11 -0.02,0.1 -0.03,0.1 -0.02,0.1 -0.04,0.1 -0.03,0.09 -0.04,0.08 -0.05,0.09 -0.05,0.08 -0.05,0.07 -0.06,0.07 -0.06,0.07 -0.07,0.06 -0.07,0.06 -0.07,0.06 -0.08,0.05 -0.09,0.04 -0.09,0.05 -0.1,0.04 -0.1,0.03 -0.11,0.03 -0.11,0.03 -0.11,0.02 -0.13,0.02 -0.12,0.01 -0.14,0.01 -0.14,0.01 -0.14,0 c -1.04,0 -1.93,-0.5 -2.41,-1.58 l -0.02,0 0,1.58 -2.42,-0.11 0,-0.62 c 0.89,0 0.99,0 0.99,-0.56 l 0,-4.55 -0.99,0 0,-0.62 c 0.33,0.03 1.36,0.03 1.76,0.03 0.4,0 1.45,0 1.78,-0.03 l 0,0.62 -0.99,0 0,3.06 c 0,1.55 1.15,2.31 2.07,2.31 0.53,0 0.83,-0.35 0.83,-1.44 l 0,-3.93 -0.99,0 0,-0.62 c 0.33,0.03 1.36,0.03 1.76,0.03 0.41,0 1.45,0 1.78,-0.03 l 0,0.62 -0.99,0 z"
         inkscape:connector-curvature="0"
         style="fill:#000000;stroke-width:0" /><path
         id="path14114"
         d="m 265.37,710.29 2.06,0 0,0.62 -2.06,0 0,2.74 -0.6,0 c -0.02,-1.43 -0.71,-2.85 -2.13,-2.89 l 0,-0.47 1.17,0 0,-3.99 c 0,-1.52 1.17,-1.85 2.21,-1.85 1.06,0 1.69,0.8 1.69,1.86 l 0,0.76 -0.6,0 0,-0.74 c 0,-0.95 -0.44,-1.36 -0.88,-1.36 -0.86,0 -0.86,0.96 -0.86,1.29 z"
         inkscape:connector-curvature="0"
         style="fill:#000000;stroke-width:0" /><path
         id="path14116"
         d="m 271.6,707.76 0,0.03 0,0.02 0,0.03 0,0.03 0,0.07 0,0.08 0.01,0.08 0.01,0.09 0.01,0.1 0.01,0.1 0.01,0.11 0.02,0.11 0.02,0.12 0.03,0.11 0.03,0.12 0.03,0.12 0.04,0.12 0.04,0.12 0.04,0.11 0.05,0.12 0.06,0.11 0.07,0.11 0.06,0.1 0.08,0.1 0.08,0.1 0.04,0.04 0.05,0.04 0.05,0.04 0.04,0.04 0.06,0.04 0.05,0.03 0.05,0.04 0.06,0.03 0.06,0.02 0.06,0.03 0.06,0.02 0.06,0.02 0.07,0.02 0.07,0.01 0.07,0.01 0.07,0.01 0.08,0.01 0.08,0 c -0.21,-0.16 -0.31,-0.4 -0.31,-0.66 0,-0.59 0.48,-0.83 0.84,-0.83 0.36,0 0.83,0.24 0.83,0.83 0,0.73 -0.75,1.13 -1.44,1.13 -1.13,0 -1.62,-0.99 -1.82,-1.59 l -0.01,0 0,1.59 -2.36,-0.11 0,-0.62 c 0.89,0 1,0 1,-0.56 l 0,-4.55 -1,0 0,-0.62 c 0.34,0.03 1.41,0.03 1.81,0.03 0.42,0 1.58,0 1.93,-0.03 l 0,0.62 -1.25,0 z"
         inkscape:connector-curvature="0"
         style="fill:#000000;stroke-width:0" /><path
         id="path14118"
         d="m 282.81,707.68 0,0.18 -0.02,0.17 -0.02,0.18 -0.02,0.17 -0.04,0.16 -0.04,0.17 -0.05,0.15 -0.05,0.16 -0.07,0.15 -0.07,0.14 -0.07,0.14 -0.09,0.14 -0.09,0.13 -0.1,0.13 -0.1,0.12 -0.11,0.11 -0.12,0.11 -0.13,0.1 -0.13,0.1 -0.13,0.09 -0.15,0.09 -0.15,0.08 -0.15,0.07 -0.17,0.06 -0.16,0.06 -0.18,0.05 -0.18,0.04 -0.18,0.04 -0.2,0.03 -0.19,0.02 -0.21,0.01 -0.2,0 -0.02,-0.47 c 0.82,0 1.34,-0.39 1.58,-0.79 0.29,-0.51 0.29,-1.26 0.29,-1.95 0,-1.19 0,-2.85 -1.85,-2.85 l 0,0 c -1.87,0 -1.87,1.67 -1.87,2.85 0,0.67 0,1.39 0.27,1.91 0.32,0.57 0.97,0.83 1.58,0.83 l 0.02,0.47 c -2.34,0 -3.59,-1.49 -3.59,-3.35 0,-1.88 1.32,-3.23 3.57,-3.23 2.34,0 3.59,1.42 3.59,3.23 z"
         inkscape:connector-curvature="0"
         style="fill:#000000;stroke-width:0" /><path
         id="path14120"
         d="m 286.39,714.49 -2.48,-0.11 0,-0.62 c 0.89,0 0.99,0 0.99,-0.56 l 0,-8.05 -0.99,0 0,-0.62 c 0.33,0.03 1.35,0.03 1.73,0.03 0.39,0 1.41,0 1.74,-0.03 l 0,0.62 -0.99,0 z"
         inkscape:connector-curvature="0"
         style="fill:#000000;stroke-width:0" /><path
         id="path14122"
         d="m 298.12,714.38 0,-0.62 c 0.89,0 0.99,0 0.99,-0.56 l 0,-2.9 c -0.32,0.28 -0.95,0.69 -1.94,0.69 -2.04,0 -3.49,-1.26 -3.49,-3.27 0,-2.05 1.42,-3.27 3.33,-3.27 l 0.17,0.47 c -1.78,0 -1.78,1.82 -1.78,2.77 0,0.67 0,1.39 0.32,1.94 0.45,0.8 1.29,0.89 1.62,0.89 0.59,0 1.22,-0.26 1.69,-0.89 l 0,-3.65 c -0.6,-0.87 -1.33,-1.06 -1.85,-1.06 l -0.17,-0.47 c 0.79,0 1.46,0.27 2.02,0.75 l 0,-0.75 2.56,0.08 0,0.62 c -0.89,0 -0.99,0 -0.99,0.56 l 0,8.78 z"
         inkscape:connector-curvature="0"
         style="fill:#000000;stroke-width:0" /><path
         id="path14124"
         d="m 308.59,707.71 0.03,0 0.03,0 0.03,0 0.02,0 0.03,0 0.02,0 0.03,0 0.02,0 0.02,0 0.01,0.01 0.02,0 0.02,0 0.01,0.01 0.02,0.01 0.01,0 0.01,0.01 0.02,0.01 0.01,0.01 0,0.01 0.01,0.01 0.01,0.02 0.01,0.01 0,0.01 0,0.01 0.01,0.01 0,0.01 0,0.01 0,0.01 0.01,0.01 0,0.01 0,0.01 0,0.01 0,0.01 0,0.02 0,0.01 0.01,0.01 0,0.02 0,0.01 0,0.02 0,0.01 0,0.02 0,0.01 c 0,0.43 -0.1,1.51 -0.76,2.18 -0.61,0.61 -1.41,0.79 -2.24,0.79 -2.24,0 -3.46,-1.46 -3.46,-3.27 0,-2.01 1.48,-3.31 3.65,-3.31 2.16,0 2.81,1.52 2.81,1.76 0,0.22 -0.22,0.22 -0.3,0.22 -0.23,0 -0.25,-0.04 -0.33,-0.23 -0.38,-0.93 -1.32,-1.23 -2.01,-1.23 -2.08,0 -2.1,1.93 -2.1,2.74 l 0,0.41 c 0.03,0.59 0.05,1.15 0.35,1.67 0.27,0.45 0.77,0.77 1.39,0.77 1.54,0 1.66,-1.72 1.68,-2.44 l -3.42,0 0,-0.41 z"
         inkscape:connector-curvature="0"
         style="fill:#000000;stroke-width:0" /><path
         id="path14126"
         d="m 239.85,695.83 1.61,0 0,0.61 c -0.52,-0.03 -1.95,-0.03 -2.56,-0.03 -0.6,0 -2.03,0 -2.55,0.03 l 0,-0.61 1.61,0 0,-8.61 -1.61,0 0,-0.62 c 0.52,0.03 1.95,0.03 2.55,0.03 0.61,0 2.04,0 2.56,-0.03 l 0,0.62 -1.61,0 z"
         inkscape:connector-curvature="0"
         style="fill:#000000;stroke-width:0" /><path
         id="path14128"
         d="m 249.54,690.99 0,0.13 -0.01,0.12 -0.01,0.12 -0.01,0.11 -0.02,0.11 -0.02,0.11 -0.02,0.1 -0.03,0.1 -0.03,0.09 -0.04,0.1 -0.04,0.08 -0.04,0.08 -0.05,0.08 -0.05,0.08 -0.06,0.07 -0.06,0.07 -0.07,0.06 -0.07,0.06 -0.08,0.05 -0.08,0.05 -0.09,0.05 -0.09,0.04 -0.09,0.04 -0.1,0.04 -0.11,0.03 -0.11,0.02 -0.12,0.03 -0.12,0.02 -0.13,0.01 -0.13,0.01 -0.14,0.01 -0.15,0 c -1.03,0 -1.92,-0.5 -2.41,-1.58 l -0.01,0 0,1.58 -2.43,-0.12 0,-0.61 c 0.89,0 0.99,0 0.99,-0.56 l 0,-4.55 -0.99,0 0,-0.62 c 0.33,0.03 1.36,0.03 1.77,0.03 0.4,0 1.45,0 1.78,-0.03 l 0,0.62 -0.99,0 0,3.06 c 0,1.55 1.14,2.31 2.06,2.31 0.53,0 0.83,-0.35 0.83,-1.44 l 0,-3.93 -0.99,0 0,-0.62 c 0.33,0.03 1.37,0.03 1.77,0.03 0.4,0 1.45,0 1.78,-0.03 l 0,0.62 -0.99,0 z"
         inkscape:connector-curvature="0"
         style="fill:#000000;stroke-width:0" /><path
         id="path14130"
         d="m 257.54,692.03 0.02,0.03 0.02,0.04 0.01,0.02 0.01,0.02 0.01,0.01 0.01,0.02 0.02,0.01 0.01,0.02 0.02,0.01 0.01,0.01 0.02,0.02 0.02,0.01 0.03,0.01 0.02,0.01 0.03,0.01 0.03,0.01 0.03,0.01 0.04,0.01 0.03,0.01 0.03,0 0.02,0 0.02,0.01 0.02,0 0.03,0 0.02,0 0.03,0.01 0.02,0 0.03,0 0.03,0 0.03,0 0.03,0.01 0.03,0 0.03,0 0.04,0 0.03,0 0.04,0 0.03,0 0.04,0 0.04,0 0.04,0 0.04,0 0,0.62 c -0.51,-0.03 -0.54,-0.03 -1.13,-0.03 -0.39,0 -0.42,0 -1.23,0.03 l 0,-0.62 c 0.38,0 0.7,-0.07 0.7,-0.17 0,-0.01 0,-0.03 -0.07,-0.17 l -1.68,-3.69 -1.85,4.03 0.79,0 0,0.62 c -0.33,-0.03 -1.34,-0.03 -1.73,-0.03 -0.41,0 -1.24,0 -1.62,0.03 l 0,-0.62 0.91,0 2.52,-5.47 c 0.13,-0.28 0.16,-0.35 0.49,-0.35 0.23,0 0.34,0.03 0.47,0.32 z"
         inkscape:connector-curvature="0"
         style="fill:#000000;stroke-width:0" /><path
         id="path14132"
         d="m 264.99,689.77 0.04,0 0.02,0 0.03,0 0.03,0 0.02,0 0.03,0.01 0.02,0 0.02,0 0.02,0 0.02,0 0.01,0.01 0.02,0 0.02,0.01 0.01,0 0.01,0.01 0.02,0.01 0.01,0.01 0.01,0.01 0.01,0.01 0.01,0.01 0,0.01 0.01,0.01 0,0.01 0,0.01 0.01,0.01 0,0.01 0,0 0,0.01 0.01,0.01 0,0.01 0,0.02 0,0.01 0,0.01 0.01,0.01 0,0.01 0,0.02 0,0.01 0,0.01 0,0.02 0,0.01 0,0.02 0,0.02 0,0.01 c 0,0.43 -0.1,1.51 -0.76,2.18 -0.6,0.6 -1.41,0.79 -2.24,0.79 -2.24,0 -3.46,-1.46 -3.46,-3.27 0,-2.01 1.48,-3.31 3.65,-3.31 2.17,0 2.81,1.52 2.81,1.76 0,0.22 -0.21,0.22 -0.3,0.22 -0.23,0 -0.25,-0.05 -0.33,-0.23 -0.37,-0.94 -1.32,-1.24 -2.01,-1.24 -2.08,0 -2.09,1.94 -2.09,2.74 l 0,0.42 c 0.02,0.59 0.04,1.15 0.34,1.66 0.27,0.46 0.78,0.78 1.39,0.78 1.54,0 1.67,-1.72 1.68,-2.44 l -3.41,0 0,-0.42 z"
         inkscape:connector-curvature="0"
         style="fill:#000000;stroke-width:0" /><path
         id="path14134"
         d="m 273.49,690.99 0,0.13 0,0.12 -0.01,0.12 -0.02,0.11 -0.01,0.11 -0.02,0.11 -0.03,0.1 -0.02,0.1 -0.04,0.09 -0.03,0.1 -0.04,0.08 -0.05,0.08 -0.05,0.08 -0.05,0.08 -0.06,0.07 -0.06,0.07 -0.07,0.06 -0.07,0.06 -0.07,0.05 -0.08,0.05 -0.09,0.05 -0.09,0.04 -0.1,0.04 -0.1,0.04 -0.11,0.03 -0.11,0.02 -0.11,0.03 -0.13,0.02 -0.12,0.01 -0.14,0.01 -0.14,0.01 -0.14,0 c -1.04,0 -1.93,-0.5 -2.41,-1.58 l -0.02,0 0,1.58 -2.42,-0.12 0,-0.61 c 0.89,0 0.99,0 0.99,-0.56 l 0,-4.55 -0.99,0 0,-0.62 c 0.33,0.03 1.36,0.03 1.76,0.03 0.4,0 1.45,0 1.78,-0.03 l 0,0.62 -0.99,0 0,3.06 c 0,1.55 1.15,2.31 2.07,2.31 0.53,0 0.83,-0.35 0.83,-1.44 l 0,-3.93 -0.99,0 0,-0.62 c 0.33,0.03 1.36,0.03 1.76,0.03 0.41,0 1.45,0 1.78,-0.03 l 0,0.62 -0.99,0 z"
         inkscape:connector-curvature="0"
         style="fill:#000000;stroke-width:0" /><path
         id="path14136"
         d="m 277.41,692.35 2.06,0 0,0.62 -2.06,0 0,2.74 -0.61,0 c -0.01,-1.42 -0.7,-2.84 -2.12,-2.88 l 0,-0.48 1.16,0 0,-3.98 c 0,-1.52 1.18,-1.85 2.21,-1.85 1.06,0 1.7,0.8 1.7,1.86 l 0,0.76 -0.61,0 0,-0.74 c 0,-0.95 -0.43,-1.37 -0.87,-1.37 -0.86,0 -0.86,0.96 -0.86,1.29 z"
         inkscape:connector-curvature="0"
         style="fill:#000000;stroke-width:0" /><path
         id="path14138"
         d="m 287.26,690.89 -0.01,0.12 -0.01,0.12 -0.01,0.12 -0.02,0.12 -0.03,0.11 -0.03,0.11 -0.04,0.1 -0.05,0.1 -0.05,0.1 -0.06,0.1 -0.06,0.09 -0.07,0.09 -0.08,0.09 -0.08,0.08 -0.09,0.08 -0.09,0.07 -0.1,0.07 -0.1,0.07 -0.12,0.06 -0.11,0.06 -0.13,0.05 -0.12,0.05 -0.14,0.05 -0.14,0.04 -0.15,0.04 -0.15,0.03 -0.16,0.03 -0.16,0.02 -0.17,0.02 -0.18,0.01 -0.18,0.01 -0.18,0 c -0.81,0 -2.5,-0.07 -2.5,-1.27 0,-0.61 0.46,-0.87 0.85,-0.87 0.43,0 0.84,0.31 0.84,0.85 0,0.27 -0.1,0.53 -0.34,0.69 0.47,0.13 0.82,0.13 1.09,0.13 0.98,0 1.56,-0.55 1.56,-1.72 l 0,-0.58 0,-0.38 0,-1.35 c 0,-1.35 -1.2,-1.61 -1.66,-1.61 -0.7,0 -1.29,0.47 -1.29,1.13 0,1.31 1.55,1.75 2.95,1.83 l 0,0.38 c -2.26,0 -4.55,-0.63 -4.55,-2.22 0,-1.31 1.67,-1.59 2.66,-1.59 1.1,0 1.81,0.6 2.09,1.23 0,-0.53 0,-1.15 1.45,-1.15 l 0.73,0 c 0.31,0 0.42,0 0.42,0.32 0,0.3 -0.13,0.3 -0.33,0.3 -0.9,0.01 -0.9,0.24 -0.9,0.57 z"
         inkscape:connector-curvature="0"
         style="fill:#000000;stroke-width:0" /><path
         id="path14140"
         d="m 291.49,689.83 0,0.02 0,0.03 0,0.03 0,0.03 0,0.07 0,0.07 0.01,0.09 0.01,0.09 0.01,0.1 0.01,0.1 0.01,0.11 0.02,0.11 0.02,0.11 0.03,0.12 0.03,0.12 0.03,0.12 0.04,0.12 0.04,0.12 0.04,0.11 0.05,0.12 0.06,0.11 0.07,0.11 0.06,0.1 0.08,0.1 0.08,0.09 0.04,0.05 0.05,0.04 0.05,0.04 0.04,0.04 0.06,0.04 0.05,0.03 0.05,0.03 0.06,0.03 0.06,0.03 0.06,0.03 0.06,0.02 0.06,0.02 0.07,0.02 0.07,0.01 0.07,0.01 0.07,0.01 0.08,0 0.08,0.01 c -0.2,-0.16 -0.31,-0.41 -0.31,-0.67 0,-0.58 0.48,-0.83 0.84,-0.83 0.35,0 0.83,0.25 0.83,0.83 0,0.74 -0.75,1.14 -1.44,1.14 -1.13,0 -1.62,-0.99 -1.82,-1.59 l -0.01,0 0,1.59 -2.35,-0.12 0,-0.61 c 0.88,0 0.98,0 0.98,-0.56 l 0,-4.55 -0.98,0 0,-0.62 c 0.32,0.03 1.4,0.03 1.8,0.03 0.42,0 1.58,0 1.92,-0.03 l 0,0.62 -1.24,0 z"
         inkscape:connector-curvature="0"
         style="fill:#000000;stroke-width:0" /><path
         id="path14142"
         d="m 298.29,695.54 0,0.05 0,0.06 -0.01,0.05 -0.01,0.05 -0.01,0.05 -0.01,0.05 -0.02,0.05 -0.02,0.05 -0.02,0.05 -0.02,0.04 -0.03,0.04 -0.03,0.05 -0.02,0.04 -0.04,0.03 -0.03,0.04 -0.03,0.04 -0.04,0.03 -0.04,0.03 -0.04,0.03 -0.04,0.03 -0.04,0.03 -0.04,0.02 -0.05,0.02 -0.04,0.02 -0.05,0.02 -0.05,0.02 -0.04,0.01 -0.05,0.01 -0.05,0.01 -0.06,0.01 -0.05,0 -0.05,0 c -0.59,0 -1.03,-0.48 -1.03,-1.03 0,-0.55 0.44,-1.03 1.03,-1.03 0.56,0 1.03,0.44 1.03,1.03 z"
         inkscape:connector-curvature="0"
         style="fill:#000000;stroke-width:0" /><path
         id="path14144"
         d="m 295.77,692.94 0,-0.61 c 0.85,0 0.95,0 0.95,-0.56 l 0,-4.55 -0.99,0 0,-0.62 c 0.33,0.03 1.32,0.03 1.7,0.03 0.4,0 1.32,0 1.67,-0.03 l 0,0.62 -0.89,0 0,5.84 z"
         inkscape:connector-curvature="0"
         style="fill:#000000;stroke-width:0" /><path
         id="path14146"
         d="m 307.18,689.74 0,0.18 -0.01,0.18 -0.02,0.17 -0.03,0.17 -0.03,0.17 -0.04,0.16 -0.05,0.16 -0.06,0.16 -0.06,0.15 -0.07,0.14 -0.08,0.14 -0.08,0.14 -0.09,0.13 -0.1,0.12 -0.11,0.12 -0.11,0.12 -0.12,0.11 -0.12,0.1 -0.13,0.1 -0.14,0.09 -0.14,0.08 -0.15,0.08 -0.16,0.07 -0.16,0.07 -0.17,0.06 -0.17,0.05 -0.18,0.04 -0.19,0.04 -0.19,0.02 -0.2,0.02 -0.2,0.02 -0.21,0 -0.01,-0.47 c 0.82,0 1.33,-0.39 1.57,-0.79 0.29,-0.52 0.29,-1.26 0.29,-1.95 0,-1.19 0,-2.86 -1.85,-2.86 l 0,0 c -1.86,0 -1.86,1.68 -1.86,2.86 0,0.67 0,1.39 0.27,1.91 0.31,0.57 0.96,0.83 1.58,0.83 l 0.01,0.47 c -2.34,0 -3.59,-1.49 -3.59,-3.36 0,-1.88 1.33,-3.22 3.58,-3.22 2.33,0 3.58,1.42 3.58,3.22 z"
         inkscape:connector-curvature="0"
         style="fill:#000000;stroke-width:0" /></g>    <g
       id="g33247"
       transform="matrix(1,0,0,-1,-32.74609,1144.518)"
       xml:space="preserve"
       stroke-miterlimit="10.433"
       font-style="normal"
       font-variant="normal"
       font-weight="normal"
       font-stretch="normal"
       font-size-adjust="none"
       letter-spacing="normal"
       word-spacing="normal"
       ns0:text="\\Large{\\texttt{querySuppliers\\_o}}"
       ns0:preamble="/home/piter/.config/inkscape/extensions/preambulo.ini"
       style="font-style:normal;font-variant:normal;font-weight:normal;font-stretch:normal;letter-spacing:normal;word-spacing:normal;text-anchor:start;fill:none;fill-opacity:1;fill-rule:evenodd;stroke:#000000;stroke-linecap:butt;stroke-linejoin:miter;stroke-miterlimit:10.43299961;stroke-dasharray:none;stroke-dashoffset:0;stroke-opacity:1"><path
         d="m 229.72,712.8 0,0.05 0,0.05 -0.01,0.05 0,0.03 0,0.02 0,0.03 -0.01,0.02 0,0.03 -0.01,0.02 0,0.03 -0.01,0.02 -0.01,0.02 -0.01,0.02 -0.01,0.03 -0.02,0.02 -0.01,0.02 -0.02,0.01 -0.01,0.02 -0.02,0.02 -0.01,0.01 -0.01,0 -0.02,0.01 -0.01,0.01 -0.01,0 -0.01,0.01 -0.02,0 -0.01,0.01 -0.01,0 -0.02,0.01 -0.02,0 -0.01,0.01 -0.02,0 -0.02,0 -0.01,0.01 -0.02,0 -0.02,0 -0.02,0 -0.02,0 -0.02,0 c -0.48,0 -0.48,-0.31 -0.48,-0.59 l 0,-0.27 c -0.27,0.29 -0.8,0.86 -1.79,0.86 l 0.09,-0.83 c 1.09,0 1.7,-1.16 1.7,-2.05 l 0,-0.65 c 0,-0.8 -0.7,-1.99 -1.85,-1.99 -1.09,0 -1.98,1.05 -1.98,2.34 0,1.34 1.01,2.35 2.13,2.35 l -0.09,0.83 c -1.56,0 -2.97,-1.35 -2.97,-3.18 0,-1.75 1.26,-3.17 2.83,-3.17 1.04,0 1.63,0.61 1.93,0.93 l 0,-3.2 -0.64,0 c -0.2,0 -0.59,0 -0.59,-0.42 0,-0.41 0.39,-0.41 0.59,-0.41 l 2.22,0 c 0.2,0 0.59,0 0.59,0.41 0,0.42 -0.39,0.42 -0.59,0.42 l -0.64,0 z"
         id="path33249"
         inkscape:connector-curvature="0"
         style="fill:#000000;stroke-width:0" /><path
         d="m 236.81,712.72 0,0.04 0,0.04 0,0.04 -0.01,0.03 0,0.03 0,0.04 -0.01,0.03 0,0.03 -0.01,0.02 -0.01,0.03 0,0.03 -0.01,0.02 -0.01,0.02 -0.02,0.02 -0.01,0.02 -0.01,0.02 -0.02,0.02 -0.02,0.01 -0.02,0.01 -0.02,0.02 -0.02,0.01 -0.03,0.01 -0.02,0.01 -0.03,0.01 -0.03,0 -0.03,0.01 -0.03,0 -0.04,0.01 -0.04,0 -0.04,0 -0.04,0.01 -0.02,0 -0.02,0 -0.95,0 c -0.2,0 -0.58,0 -0.58,-0.42 0,-0.42 0.38,-0.42 0.58,-0.42 l 0.59,0 0,-3.11 c 0,-1.18 -0.98,-1.49 -1.62,-1.49 -1.14,0 -1.14,0.52 -1.14,0.96 l 0,3.89 c 0,0.44 -0.08,0.59 -0.57,0.59 l -0.95,0 c -0.2,0 -0.57,0 -0.57,-0.42 0,-0.42 0.37,-0.42 0.57,-0.42 l 0.59,0 0,-3.71 c 0,-1.32 0.86,-1.72 1.96,-1.72 0.88,0 1.42,0.36 1.71,0.6 0,-0.52 0.35,-0.52 0.59,-0.52 l 0.95,0 c 0.2,0 0.57,0 0.57,0.42 0,0.42 -0.37,0.42 -0.57,0.42 l -0.59,0 z"
         id="path33251"
         inkscape:connector-curvature="0"
         style="fill:#000000;stroke-width:0" /><path
         d="m 244.17,709.88 0.05,0 0.06,0 0.03,0 0.02,0 0.03,0 0.02,0.01 0.03,0 0.02,0 0.03,0.01 0.02,0.01 0.02,0 0.03,0.01 0.02,0.01 0.02,0.01 0.02,0.02 0.02,0.01 0.01,0.02 0.02,0.02 0.02,0.02 0,0.01 0.01,0.01 0.01,0.01 0,0.01 0.01,0.02 0,0.01 0.01,0.02 0.01,0.01 0,0.02 0,0.01 0.01,0.02 0,0.02 0.01,0.01 0,0.02 0,0.02 0.01,0.02 0,0.02 0,0.02 0,0.03 0,0.02 0,0.02 0,0.03 c 0,1.68 -0.95,3.02 -2.74,3.02 -1.66,0 -3,-1.43 -3,-3.18 0,-1.81 1.45,-3.21 3.22,-3.21 1.85,0 2.52,1.27 2.52,1.65 0,0.08 -0.03,0.4 -0.47,0.4 -0.27,0 -0.36,-0.1 -0.45,-0.32 -0.36,-0.83 -1.29,-0.9 -1.56,-0.9 -1.19,0 -2.14,0.9 -2.3,2.01 l 0.02,0.79 c 0.18,1.22 1.12,1.93 2.02,1.93 1.44,0 1.74,-1.22 1.79,-1.93 l -3.81,0 -0.02,-0.79 z"
         id="path33253"
         inkscape:connector-curvature="0"
         style="fill:#000000;stroke-width:0" /><path
         d="m 248.68,709.83 0,0.16 0.01,0.16 0.02,0.15 0.02,0.14 0.03,0.14 0.04,0.14 0.04,0.13 0.05,0.13 0.05,0.12 0.06,0.12 0.06,0.12 0.06,0.11 0.08,0.1 0.07,0.1 0.08,0.1 0.08,0.09 0.09,0.08 0.09,0.08 0.09,0.08 0.1,0.07 0.1,0.06 0.1,0.06 0.1,0.06 0.11,0.04 0.11,0.05 0.11,0.03 0.11,0.04 0.11,0.02 0.11,0.02 0.11,0.02 0.12,0.01 0.11,0 c 0.08,0 0.16,0 0.23,-0.02 0.05,-0.51 0.45,-0.55 0.55,-0.55 0.33,0 0.56,0.24 0.56,0.55 0,0.62 -0.6,0.85 -1.32,0.85 -0.96,0 -1.78,-0.43 -2.44,-1.23 l 0,0.56 c 0,0.44 -0.09,0.59 -0.58,0.59 l -1.44,0 c -0.2,0 -0.58,0 -0.58,-0.42 0,-0.42 0.38,-0.42 0.58,-0.42 l 1.09,0 0,-4.51 -1.09,0 c -0.2,0 -0.58,0 -0.58,-0.42 0,-0.42 0.38,-0.42 0.58,-0.42 l 3.52,0 c 0.21,0 0.58,0 0.58,0.42 0,0.42 -0.37,0.42 -0.58,0.42 l -1.5,0 z"
         id="path33255"
         inkscape:connector-curvature="0"
         style="fill:#000000;stroke-width:0" /><path
         d="m 259.04,712.47 0.38,0 c 0.2,0 0.58,0 0.58,0.42 0,0.42 -0.38,0.42 -0.58,0.42 l -1.58,0 c -0.2,0 -0.59,0 -0.59,-0.42 0,-0.42 0.39,-0.42 0.59,-0.42 l 0.36,0 c -0.4,-1.17 -1.22,-3.57 -1.42,-4.39 l -0.02,0 c -0.07,0.32 -0.13,0.48 -0.27,0.87 l -1.34,3.52 0.34,0 c 0.2,0 0.58,0 0.58,0.42 0,0.42 -0.38,0.42 -0.58,0.42 l -1.58,0 c -0.2,0 -0.59,0 -0.59,-0.42 0,-0.42 0.39,-0.42 0.59,-0.42 l 0.38,0 2.01,-5.16 c 0.06,-0.14 0.06,-0.17 0.06,-0.19 0,-0.03 -0.37,-1.27 -0.59,-1.68 -0.08,-0.14 -0.44,-0.81 -1.13,-0.74 0.01,0.04 0.06,0.13 0.06,0.28 0,0.34 -0.23,0.56 -0.56,0.56 -0.36,0 -0.58,-0.24 -0.58,-0.57 0,-0.55 0.46,-1.12 1.18,-1.12 1.39,0 2.01,1.85 2.05,1.97 z"
         id="path33257"
         inkscape:connector-curvature="0"
         style="fill:#000000;stroke-width:0" /><path
         d="m 266.62,715.52 0,0.04 0,0.04 -0.01,0.05 0,0.02 0,0.03 0,0.02 -0.01,0.02 0,0.03 0,0.02 -0.01,0.02 -0.01,0.02 0,0.02 -0.01,0.02 -0.01,0.02 -0.01,0.02 -0.02,0.02 -0.01,0.02 -0.02,0.01 -0.01,0.02 -0.01,0.01 -0.01,0 -0.01,0.01 -0.01,0.01 -0.01,0 -0.01,0.01 -0.02,0 -0.01,0.01 -0.01,0 -0.01,0.01 -0.02,0 -0.01,0.01 -0.02,0 -0.01,0 -0.02,0 -0.01,0.01 -0.02,0 -0.02,0 -0.02,0 -0.02,0 c -0.3,0 -0.32,-0.11 -0.5,-0.72 -0.7,0.62 -1.52,0.72 -2.02,0.72 -1.52,0 -2.61,-1.09 -2.61,-2.35 0,-0.85 0.5,-1.41 0.59,-1.49 0.6,-0.61 0.84,-0.67 2.35,-1.02 1.08,-0.25 1.32,-0.3 1.68,-0.71 0.26,-0.31 0.4,-0.67 0.4,-1.07 0,-0.78 -0.62,-1.64 -1.75,-1.64 -1.23,0 -2.27,0.53 -2.34,1.8 -0.01,0.21 -0.03,0.45 -0.46,0.45 -0.47,0 -0.47,-0.27 -0.47,-0.56 l 0,-1.97 c 0,-0.23 0,-0.55 0.4,-0.55 0.3,0 0.33,0.12 0.5,0.72 0.79,-0.62 1.78,-0.72 2.37,-0.72 1.62,0 2.64,1.25 2.64,2.52 0,1.01 -0.62,1.64 -0.66,1.7 -0.57,0.59 -0.85,0.64 -2.3,0.99 -0.33,0.08 -0.89,0.21 -1,0.24 -0.59,0.22 -1.06,0.72 -1.06,1.37 0,0.76 0.72,1.46 1.71,1.46 1.07,0 1.8,-0.58 1.99,-1.8 0.04,-0.27 0.07,-0.45 0.47,-0.45 0.48,0 0.48,0.25 0.48,0.54 z"
         id="path33259"
         inkscape:connector-curvature="0"
         style="fill:#000000;stroke-width:0" /><path
         d="m 273.72,712.72 0,0.04 0,0.04 0,0.04 0,0.03 0,0.03 -0.01,0.04 0,0.03 -0.01,0.03 0,0.02 -0.01,0.03 -0.01,0.03 -0.01,0.02 -0.01,0.02 -0.01,0.02 -0.02,0.02 -0.01,0.02 -0.02,0.02 -0.01,0.01 -0.02,0.01 -0.02,0.02 -0.03,0.01 -0.02,0.01 -0.03,0.01 -0.02,0.01 -0.03,0 -0.04,0.01 -0.03,0 -0.04,0.01 -0.03,0 -0.04,0 -0.05,0.01 -0.02,0 -0.02,0 -0.95,0 c -0.2,0 -0.57,0 -0.57,-0.42 0,-0.42 0.37,-0.42 0.57,-0.42 l 0.59,0 0,-3.11 c 0,-1.18 -0.97,-1.49 -1.62,-1.49 -1.13,0 -1.13,0.52 -1.13,0.96 l 0,3.89 c 0,0.44 -0.09,0.59 -0.58,0.59 l -0.94,0 c -0.2,0 -0.58,0 -0.58,-0.42 0,-0.42 0.38,-0.42 0.58,-0.42 l 0.59,0 0,-3.71 c 0,-1.32 0.86,-1.72 1.96,-1.72 0.88,0 1.42,0.36 1.71,0.6 0,-0.52 0.34,-0.52 0.59,-0.52 l 0.94,0 c 0.2,0 0.58,0 0.58,0.42 0,0.42 -0.38,0.42 -0.58,0.42 l -0.59,0 z"
         id="path33261"
         inkscape:connector-curvature="0"
         style="fill:#000000;stroke-width:0" /><path
         d="m 278.01,703.94 0.01,0 0.02,0 0.03,0 0.02,0 0.02,0 0.02,0 0.03,0 0.02,0 0.02,0.01 0.03,0 0.02,0 0.02,0.01 0.03,0.01 0.02,0 0.02,0.01 0.03,0.01 0.02,0.01 0.02,0.01 0.02,0.02 0.02,0.01 0.02,0.02 0.02,0.01 0,0.01 0.01,0.01 0.01,0.01 0.01,0.01 0,0.01 0.01,0.02 0.01,0.01 0,0.01 0.01,0.01 0,0.02 0.01,0.01 0,0.02 0.01,0.01 0,0.02 0,0.01 0,0.02 0.01,0.02 0,0.02 0,0.01 0,0.02 c 0,0.42 -0.37,0.42 -0.57,0.42 l -0.59,0 0,3.07 c 0.34,-0.39 0.87,-0.8 1.68,-0.8 l -0.08,0.83 c -1.07,0 -1.6,1.22 -1.6,1.93 l 0,1.14 c 0,0.82 0.8,1.62 1.73,1.62 1.04,0 1.87,-1.05 1.87,-2.34 0,-1.38 -0.98,-2.35 -2,-2.35 l 0.08,-0.83 c 1.52,0 2.85,1.36 2.85,3.18 0,1.77 -1.2,3.17 -2.7,3.17 -1.04,0 -1.7,-0.63 -1.83,-0.77 0,0.47 0,0.69 -0.58,0.69 l -0.94,0 c -0.2,0 -0.58,0 -0.58,-0.42 0,-0.42 0.38,-0.42 0.58,-0.42 l 0.58,0 0,-7.7 -0.58,0 c -0.2,0 -0.58,0 -0.58,-0.42 0,-0.41 0.38,-0.41 0.58,-0.41 z"
         id="path33263"
         inkscape:connector-curvature="0"
         style="fill:#000000;stroke-width:0" /><path
         d="m 285.39,703.94 0.02,0 0.02,0 0.02,0 0.03,0 0.02,0 0.02,0 0.02,0 0.03,0 0.02,0.01 0.03,0 0.02,0 0.02,0.01 0.03,0.01 0.02,0 0.02,0.01 0.03,0.01 0.02,0.01 0.02,0.01 0.02,0.02 0.02,0.01 0.02,0.02 0.01,0.01 0.01,0.01 0.01,0.01 0.01,0.01 0.01,0.01 0,0.01 0.01,0.02 0.01,0.01 0,0.01 0.01,0.01 0,0.02 0.01,0.01 0,0.02 0,0.01 0.01,0.02 0,0.01 0,0.02 0,0.02 0.01,0.02 0,0.01 0,0.02 c 0,0.42 -0.38,0.42 -0.58,0.42 l -0.59,0 0,3.07 c 0.35,-0.39 0.88,-0.8 1.68,-0.8 l -0.07,0.83 c -1.07,0 -1.61,1.22 -1.61,1.93 l 0,1.14 c 0,0.82 0.81,1.62 1.74,1.62 1.03,0 1.87,-1.05 1.87,-2.34 0,-1.38 -0.98,-2.35 -2,-2.35 l 0.07,-0.83 c 1.52,0 2.86,1.36 2.86,3.18 0,1.77 -1.21,3.17 -2.7,3.17 -1.05,0 -1.71,-0.63 -1.84,-0.77 0,0.47 0,0.69 -0.57,0.69 l -0.95,0 c -0.2,0 -0.57,0 -0.57,-0.42 0,-0.42 0.37,-0.42 0.57,-0.42 l 0.59,0 0,-7.7 -0.59,0 c -0.2,0 -0.57,0 -0.57,-0.42 0,-0.41 0.37,-0.41 0.57,-0.41 z"
         id="path33265"
         inkscape:connector-curvature="0"
         style="fill:#000000;stroke-width:0" /><path
         d="m 294.04,715.3 -0.01,0.04 0,0.04 0,0.04 0,0.03 0,0.04 -0.01,0.03 0,0.03 -0.01,0.03 0,0.03 -0.01,0.02 -0.01,0.03 -0.01,0.02 -0.01,0.02 -0.01,0.02 -0.01,0.02 -0.02,0.02 -0.02,0.02 -0.01,0.01 -0.02,0.02 -0.02,0.01 -0.03,0.01 -0.02,0.01 -0.03,0.01 -0.02,0.01 -0.03,0.01 -0.03,0 -0.04,0.01 -0.03,0 -0.04,0 -0.04,0.01 -0.04,0 -0.03,0 -0.02,0 -2.11,0 c -0.2,0 -0.57,0 -0.57,-0.42 0,-0.41 0.37,-0.41 0.57,-0.41 l 1.75,0 0,-7.1 -1.75,0 c -0.2,0 -0.57,0 -0.57,-0.42 0,-0.42 0.37,-0.42 0.57,-0.42 l 4.44,0 c 0.2,0 0.57,0 0.57,0.42 0,0.42 -0.37,0.42 -0.57,0.42 l -1.75,0 z"
         id="path33267"
         inkscape:connector-curvature="0"
         style="fill:#000000;stroke-width:0" /><path
         d="m 301.59,715.26 0,0.03 -0.01,0.03 0,0.04 -0.01,0.03 0,0.03 -0.01,0.03 -0.01,0.03 -0.01,0.03 -0.02,0.03 -0.01,0.03 -0.01,0.02 -0.02,0.03 -0.02,0.02 -0.02,0.03 -0.02,0.02 -0.02,0.02 -0.02,0.03 -0.03,0.02 -0.02,0.01 -0.03,0.02 -0.02,0.02 -0.03,0.01 -0.03,0.02 -0.03,0.01 -0.02,0.01 -0.04,0.01 -0.03,0.01 -0.03,0.01 -0.03,0 -0.03,0.01 -0.03,0 -0.04,0 c -0.36,0 -0.64,-0.29 -0.64,-0.64 0,-0.36 0.28,-0.65 0.64,-0.65 0.36,0 0.65,0.29 0.65,0.65 z"
         id="path33269"
         inkscape:connector-curvature="0"
         style="fill:#000000;stroke-width:0" /><path
         d="m 299.12,713.31 -0.02,0 -0.02,0 -0.02,0 -0.02,0 -0.02,-0.01 -0.03,0 -0.02,0 -0.02,0 -0.03,0 -0.02,-0.01 -0.03,0 -0.02,-0.01 -0.02,0 -0.03,-0.01 -0.02,-0.01 -0.02,-0.01 -0.02,-0.01 -0.03,-0.01 -0.02,-0.01 -0.02,-0.02 -0.01,-0.01 -0.02,-0.02 -0.01,-0.01 -0.01,-0.01 -0.01,-0.01 0,-0.01 -0.01,-0.01 -0.01,-0.01 0,-0.01 -0.01,-0.02 0,-0.01 -0.01,-0.01 0,-0.02 -0.01,-0.01 0,-0.02 0,-0.01 -0.01,-0.02 0,-0.02 0,-0.01 0,-0.02 0,-0.02 0,-0.02 c 0,-0.42 0.37,-0.42 0.57,-0.42 l 1.53,0 0,-4.51 -1.63,0 c -0.2,0 -0.59,0 -0.59,-0.42 0,-0.42 0.39,-0.42 0.59,-0.42 l 3.99,0 c 0.2,0 0.57,0 0.57,0.42 0,0.42 -0.37,0.42 -0.57,0.42 l -1.42,0 0,4.76 c 0,0.44 -0.09,0.59 -0.58,0.59 z"
         id="path33271"
         inkscape:connector-curvature="0"
         style="fill:#000000;stroke-width:0" /><path
         d="m 310.61,709.88 0.06,0 0.05,0 0.03,0 0.03,0 0.02,0 0.03,0.01 0.02,0 0.03,0 0.02,0.01 0.02,0.01 0.03,0 0.02,0.01 0.02,0.01 0.02,0.01 0.02,0.02 0.02,0.01 0.02,0.02 0.01,0.02 0.02,0.02 0,0.01 0.01,0.01 0.01,0.01 0,0.01 0.01,0.02 0.01,0.01 0,0.02 0.01,0.01 0,0.02 0.01,0.01 0,0.02 0,0.02 0.01,0.01 0,0.02 0,0.02 0.01,0.02 0,0.02 0,0.02 0,0.03 0,0.02 0,0.02 0,0.03 c 0,1.68 -0.94,3.02 -2.74,3.02 -1.66,0 -2.99,-1.43 -2.99,-3.18 0,-1.81 1.44,-3.21 3.21,-3.21 1.85,0 2.52,1.27 2.52,1.65 0,0.08 -0.02,0.4 -0.47,0.4 -0.27,0 -0.36,-0.1 -0.44,-0.32 -0.36,-0.83 -1.29,-0.9 -1.57,-0.9 -1.19,0 -2.13,0.9 -2.29,2.01 l 0.01,0.79 c 0.19,1.22 1.12,1.93 2.02,1.93 1.44,0 1.74,-1.22 1.8,-1.93 l -3.82,0 -0.01,-0.79 z"
         id="path33273"
         inkscape:connector-curvature="0"
         style="fill:#000000;stroke-width:0" /><path
         d="m 315.12,709.83 0,0.16 0.01,0.16 0.02,0.15 0.03,0.14 0.02,0.14 0.04,0.14 0.04,0.13 0.05,0.13 0.05,0.12 0.06,0.12 0.06,0.12 0.07,0.11 0.07,0.1 0.07,0.1 0.08,0.1 0.09,0.09 0.08,0.08 0.09,0.08 0.1,0.08 0.09,0.07 0.1,0.06 0.1,0.06 0.11,0.06 0.1,0.04 0.11,0.05 0.11,0.03 0.11,0.04 0.11,0.02 0.11,0.02 0.12,0.02 0.11,0.01 0.12,0 c 0.07,0 0.15,0 0.22,-0.02 0.05,-0.51 0.45,-0.55 0.55,-0.55 0.33,0 0.56,0.24 0.56,0.55 0,0.62 -0.6,0.85 -1.32,0.85 -0.96,0 -1.78,-0.43 -2.44,-1.23 l 0,0.56 c 0,0.44 -0.08,0.59 -0.57,0.59 l -1.45,0 c -0.2,0 -0.58,0 -0.58,-0.42 0,-0.42 0.38,-0.42 0.58,-0.42 l 1.09,0 0,-4.51 -1.09,0 c -0.2,0 -0.58,0 -0.58,-0.42 0,-0.42 0.38,-0.42 0.58,-0.42 l 3.53,0 c 0.2,0 0.57,0 0.57,0.42 0,0.42 -0.37,0.42 -0.57,0.42 l -1.51,0 z"
         id="path33275"
         inkscape:connector-curvature="0"
         style="fill:#000000;stroke-width:0" /><path
         d="m 325.43,712.89 0,0.02 0,0.02 0,0.05 0,0.05 -0.01,0.02 0,0.02 0,0.02 0,0.03 -0.01,0.02 0,0.02 -0.01,0.03 -0.01,0.02 0,0.02 -0.01,0.02 -0.01,0.02 -0.01,0.02 -0.02,0.02 -0.01,0.01 -0.02,0.02 -0.01,0.01 -0.01,0.01 -0.01,0.01 -0.01,0.01 -0.01,0 -0.01,0.01 -0.01,0 -0.02,0.01 -0.01,0 -0.01,0.01 -0.01,0 -0.02,0.01 -0.01,0 -0.02,0 -0.01,0.01 -0.02,0 -0.01,0 -0.02,0 -0.02,0 -0.02,0 -0.01,0 c -0.35,0 -0.43,-0.33 -0.43,-0.34 -0.58,0.34 -1.24,0.34 -1.52,0.34 -2.34,0 -2.66,-1.19 -2.66,-1.67 0,-0.59 0.35,-0.99 0.83,-1.27 0.46,-0.25 0.88,-0.33 2.05,-0.51 0.56,-0.1 1.71,-0.29 1.71,-1.08 0,-0.53 -0.49,-1.03 -1.82,-1.03 -0.92,0 -1.52,0.36 -1.82,1.39 -0.07,0.2 -0.12,0.36 -0.48,0.36 -0.47,0 -0.47,-0.27 -0.47,-0.56 l 0,-1.48 c 0,-0.23 0,-0.54 0.4,-0.54 0.17,0 0.3,0 0.52,0.58 0.66,-0.54 1.4,-0.58 1.85,-0.58 2.65,0 2.65,1.72 2.65,1.86 0,1.49 -1.77,1.8 -2.46,1.89 -1.27,0.22 -2.13,0.36 -2.13,0.97 0,0.38 0.45,0.84 1.8,0.84 1.36,0 1.42,-0.64 1.44,-1.02 0.03,-0.28 0.29,-0.33 0.46,-0.33 0.48,0 0.48,0.26 0.48,0.55 z"
         id="path33277"
         inkscape:connector-curvature="0"
         style="fill:#000000;stroke-width:0" /><line
         x1="327.67001"
         y1="707.32001"
         x2="332.10001"
         y2="707.32001"
         id="line33279"
         style="stroke-width:0.398" /><path
         d="m 338.64,710.22 0,0.17 -0.01,0.16 -0.02,0.16 -0.03,0.16 -0.03,0.16 -0.04,0.15 -0.04,0.15 -0.06,0.15 -0.05,0.14 -0.07,0.14 -0.07,0.14 -0.07,0.13 -0.08,0.12 -0.09,0.12 -0.09,0.12 -0.09,0.11 -0.1,0.11 -0.11,0.1 -0.11,0.09 -0.11,0.09 -0.11,0.08 -0.12,0.08 -0.13,0.07 -0.12,0.07 -0.13,0.05 -0.13,0.05 -0.14,0.04 -0.14,0.04 -0.13,0.03 -0.15,0.02 -0.14,0.01 -0.14,0 0,-0.83 c 1,0 1.92,-0.94 1.92,-2.28 0,-1.37 -0.89,-2.45 -1.92,-2.45 l 0,0 c -1.04,0 -1.93,1.09 -1.93,2.45 0,1.34 0.92,2.28 1.93,2.28 l 0,0.83 c -1.55,0 -2.86,-1.41 -2.86,-3.21 0,-1.81 1.32,-3.18 2.86,-3.18 1.53,0 2.85,1.37 2.85,3.18 z"
         id="path33281"
         inkscape:connector-curvature="0"
         style="fill:#000000;stroke-width:0" /></g>    <path
       sodipodi:nodetypes="cc"
       style="fill:none;fill-rule:evenodd;stroke:#000000;stroke-width:1px;stroke-linecap:butt;stroke-linejoin:miter;stroke-opacity:1;marker-end:url(#TriangleOutL)"
       d="m 310.5855,443.3995 -54.85175,0"
       id="path38432"
       inkscape:connector-curvature="0" />
    <g
       style="font-style:normal;font-variant:normal;font-weight:normal;font-stretch:normal;letter-spacing:normal;word-spacing:normal;text-anchor:start;fill:none;fill-opacity:1;fill-rule:evenodd;stroke:#000000;stroke-linecap:butt;stroke-linejoin:miter;stroke-miterlimit:10.43299961;stroke-dasharray:none;stroke-dashoffset:0;stroke-opacity:1"
       ns0:preamble="/home/piter/.config/inkscape/extensions/preambulo.ini"
       ns0:text="\\Large{\\texttt{numProd\\_i}}"
       word-spacing="normal"
       letter-spacing="normal"
       font-size-adjust="none"
       font-stretch="normal"
       font-weight="normal"
       font-variant="normal"
       font-style="normal"
       stroke-miterlimit="10.433"
       xml:space="preserve"
       transform="matrix(1,0,0,-1,232.49172,1111.1035)"
       id="g43369"><path
         style="fill:#000000;stroke-width:0"
         inkscape:connector-curvature="0"
         id="path43371"
         d="m 229.43,711.33 0,0.13 -0.01,0.12 -0.01,0.12 -0.01,0.12 -0.02,0.11 -0.02,0.11 -0.02,0.1 -0.03,0.1 -0.03,0.1 -0.04,0.09 -0.04,0.08 -0.04,0.09 -0.05,0.08 -0.05,0.07 -0.05,0.07 -0.06,0.07 -0.06,0.06 -0.06,0.06 -0.07,0.05 -0.07,0.05 -0.07,0.04 -0.08,0.05 -0.08,0.03 -0.08,0.04 -0.09,0.03 -0.09,0.02 -0.09,0.02 -0.1,0.02 -0.1,0.01 -0.1,0.01 -0.11,0.01 -0.11,0 c -0.97,0 -1.6,-0.54 -1.85,-0.82 0,0.53 0,0.74 -0.57,0.74 l -0.95,0 c -0.2,0 -0.57,0 -0.57,-0.42 0,-0.42 0.37,-0.42 0.57,-0.42 l 0.59,0 0,-4.51 -0.59,0 c -0.2,0 -0.57,0 -0.57,-0.42 0,-0.42 0.37,-0.42 0.57,-0.42 l 2.11,0 c 0.2,0 0.57,0 0.57,0.42 0,0.42 -0.37,0.42 -0.57,0.42 l -0.59,0 0,2.59 c 0,1.39 0.98,2.01 1.75,2.01 0.83,0 1.01,-0.47 1.01,-1.29 l 0,-3.31 -0.59,0 c -0.2,0 -0.57,0 -0.57,-0.42 0,-0.42 0.37,-0.42 0.57,-0.42 l 2.11,0 c 0.2,0 0.57,0 0.57,0.42 0,0.42 -0.37,0.42 -0.57,0.42 l -0.59,0 z" /><path
         style="fill:#000000;stroke-width:0"
         inkscape:connector-curvature="0"
         id="path43373"
         d="m 236.81,712.72 0,0.04 0,0.04 0,0.04 -0.01,0.03 0,0.03 0,0.04 -0.01,0.03 0,0.03 -0.01,0.02 -0.01,0.03 0,0.03 -0.01,0.02 -0.01,0.02 -0.02,0.02 -0.01,0.02 -0.01,0.02 -0.02,0.02 -0.02,0.01 -0.02,0.01 -0.02,0.02 -0.02,0.01 -0.03,0.01 -0.02,0.01 -0.03,0.01 -0.03,0 -0.03,0.01 -0.03,0 -0.04,0.01 -0.04,0 -0.04,0 -0.04,0.01 -0.02,0 -0.02,0 -0.95,0 c -0.2,0 -0.58,0 -0.58,-0.42 0,-0.42 0.38,-0.42 0.58,-0.42 l 0.59,0 0,-3.11 c 0,-1.18 -0.98,-1.49 -1.62,-1.49 -1.14,0 -1.14,0.52 -1.14,0.96 l 0,3.89 c 0,0.44 -0.08,0.59 -0.57,0.59 l -0.95,0 c -0.2,0 -0.57,0 -0.57,-0.42 0,-0.42 0.37,-0.42 0.57,-0.42 l 0.59,0 0,-3.71 c 0,-1.32 0.86,-1.72 1.96,-1.72 0.88,0 1.42,0.36 1.71,0.6 0,-0.52 0.35,-0.52 0.59,-0.52 l 0.95,0 c 0.2,0 0.57,0 0.57,0.42 0,0.42 -0.37,0.42 -0.57,0.42 l -0.59,0 z" /><path
         style="fill:#000000;stroke-width:0"
         inkscape:connector-curvature="0"
         id="path43375"
         d="m 244.7,711.47 0,0.01 0,0.02 0,0.02 0,0.02 0,0.05 0,0.05 -0.01,0.06 0,0.06 0,0.07 -0.01,0.07 -0.01,0.08 -0.01,0.08 -0.01,0.07 -0.02,0.09 -0.02,0.08 -0.02,0.08 -0.02,0.09 -0.03,0.08 -0.03,0.08 -0.04,0.08 -0.04,0.08 -0.04,0.08 -0.05,0.07 -0.05,0.07 -0.03,0.03 -0.03,0.04 -0.03,0.03 -0.03,0.03 -0.04,0.02 -0.03,0.03 -0.04,0.03 -0.04,0.02 -0.04,0.02 -0.04,0.03 -0.04,0.01 -0.05,0.02 -0.04,0.02 -0.05,0.01 -0.05,0.01 -0.05,0.01 -0.05,0.01 -0.06,0.01 -0.06,0 -0.05,0 c -0.51,0 -0.99,-0.23 -1.38,-0.76 -0.09,0.22 -0.4,0.76 -1.09,0.76 -0.65,0 -1.09,-0.41 -1.21,-0.54 -0.01,0.46 -0.31,0.46 -0.57,0.46 l -0.43,0 c -0.2,0 -0.57,0 -0.57,-0.42 0,-0.42 0.33,-0.42 0.77,-0.42 l 0,-4.51 c -0.46,0 -0.77,0 -0.77,-0.42 0,-0.42 0.37,-0.42 0.57,-0.42 l 1.2,0 c 0.2,0 0.58,0 0.58,0.42 0,0.42 -0.33,0.42 -0.78,0.42 l 0,2.63 c 0,1.21 0.52,1.97 1.15,1.97 0.4,0 0.52,-0.5 0.52,-1.18 l 0,-3.42 c -0.25,0 -0.63,0 -0.63,-0.42 0,-0.42 0.38,-0.42 0.58,-0.42 l 1.05,0 c 0.2,0 0.58,0 0.58,0.42 0,0.42 -0.33,0.42 -0.78,0.42 l 0,2.63 c 0,1.21 0.52,1.97 1.15,1.97 0.4,0 0.52,-0.5 0.52,-1.18 l 0,-3.42 c -0.25,0 -0.64,0 -0.64,-0.42 0,-0.42 0.39,-0.42 0.59,-0.42 l 1.05,0 c 0.2,0 0.57,0 0.57,0.42 0,0.42 -0.33,0.42 -0.77,0.42 z" /><path
         style="fill:#000000;stroke-width:0"
         inkscape:connector-curvature="0"
         id="path43377"
         d="m 247.89,710.68 0,0.83 0,3.55 1.52,0 c 1.38,0 1.99,-1.01 1.99,-1.77 0,-0.82 -0.64,-1.78 -1.99,-1.78 l -1.52,0 0,-0.83 1.78,0 c 1.66,0 2.67,1.32 2.67,2.6 0,1.33 -1.04,2.61 -2.67,2.61 l -3.1,0 c -0.2,0 -0.59,0 -0.59,-0.42 0,-0.41 0.39,-0.41 0.59,-0.41 l 0.39,0 0,-7.1 -0.39,0 c -0.2,0 -0.59,0 -0.59,-0.42 0,-0.42 0.39,-0.42 0.59,-0.42 l 1.71,0 c 0.2,0 0.59,0 0.59,0.42 0,0.42 -0.39,0.42 -0.59,0.42 l -0.39,0 z" /><path
         style="fill:#000000;stroke-width:0"
         inkscape:connector-curvature="0"
         id="path43379"
         d="m 256.06,709.83 0,0.16 0.01,0.16 0.02,0.15 0.02,0.14 0.03,0.14 0.04,0.14 0.04,0.13 0.05,0.13 0.05,0.12 0.06,0.12 0.06,0.12 0.06,0.11 0.08,0.1 0.07,0.1 0.08,0.1 0.08,0.09 0.09,0.08 0.09,0.08 0.09,0.08 0.1,0.07 0.1,0.06 0.1,0.06 0.1,0.06 0.11,0.04 0.11,0.05 0.11,0.03 0.11,0.04 0.11,0.02 0.11,0.02 0.11,0.02 0.12,0.01 0.11,0 c 0.07,0 0.16,0 0.23,-0.02 0.05,-0.51 0.45,-0.55 0.55,-0.55 0.33,0 0.56,0.24 0.56,0.55 0,0.62 -0.61,0.85 -1.32,0.85 -0.96,0 -1.78,-0.43 -2.44,-1.23 l 0,0.56 c 0,0.44 -0.09,0.59 -0.57,0.59 l -1.45,0 c -0.2,0 -0.58,0 -0.58,-0.42 0,-0.42 0.38,-0.42 0.58,-0.42 l 1.09,0 0,-4.51 -1.09,0 c -0.2,0 -0.58,0 -0.58,-0.42 0,-0.42 0.38,-0.42 0.58,-0.42 l 3.53,0 c 0.2,0 0.57,0 0.57,0.42 0,0.42 -0.37,0.42 -0.57,0.42 l -1.51,0 z" /><path
         style="fill:#000000;stroke-width:0"
         inkscape:connector-curvature="0"
         id="path43381"
         d="m 266.89,710.22 0,0.17 -0.02,0.16 -0.01,0.16 -0.03,0.16 -0.03,0.16 -0.04,0.15 -0.05,0.15 -0.05,0.15 -0.06,0.14 -0.06,0.14 -0.07,0.14 -0.08,0.13 -0.08,0.12 -0.08,0.12 -0.09,0.12 -0.1,0.11 -0.1,0.11 -0.1,0.1 -0.11,0.09 -0.11,0.09 -0.12,0.08 -0.12,0.08 -0.12,0.07 -0.13,0.07 -0.13,0.05 -0.13,0.05 -0.13,0.04 -0.14,0.04 -0.14,0.03 -0.14,0.02 -0.14,0.01 -0.15,0 0,-0.83 c 1.01,0 1.93,-0.94 1.93,-2.28 0,-1.37 -0.89,-2.45 -1.93,-2.45 l 0,0 c -1.03,0 -1.92,1.09 -1.92,2.45 0,1.34 0.92,2.28 1.92,2.28 l 0,0.83 c -1.55,0 -2.85,-1.41 -2.85,-3.21 0,-1.81 1.32,-3.18 2.85,-3.18 1.54,0 2.86,1.37 2.86,3.18 z" /><path
         style="fill:#000000;stroke-width:0"
         inkscape:connector-curvature="0"
         id="path43383"
         d="m 273.72,715.3 0,0.04 0,0.04 0,0.04 0,0.03 0,0.04 -0.01,0.03 0,0.03 -0.01,0.03 0,0.03 -0.01,0.02 -0.01,0.03 -0.01,0.02 -0.01,0.02 -0.01,0.02 -0.02,0.02 -0.01,0.02 -0.02,0.02 -0.01,0.01 -0.02,0.02 -0.02,0.01 -0.03,0.01 -0.02,0.01 -0.03,0.01 -0.02,0.01 -0.03,0.01 -0.04,0 -0.03,0.01 -0.04,0 -0.03,0 -0.04,0.01 -0.05,0 -0.02,0 -0.02,0 -0.95,0 c -0.2,0 -0.57,0 -0.57,-0.42 0,-0.41 0.37,-0.41 0.57,-0.41 l 0.59,0 0,-2.39 c -0.23,0.23 -0.82,0.72 -1.69,0.72 l 0.08,-0.83 c 0.94,0 1.61,-0.85 1.61,-1.59 l 0,-1.12 c 0,-0.81 -0.66,-1.98 -1.73,-1.98 -1.04,0 -1.87,1.05 -1.87,2.34 0,1.37 0.98,2.35 1.99,2.35 l -0.08,0.83 c -1.52,0 -2.84,-1.37 -2.84,-3.18 0,-1.77 1.23,-3.17 2.71,-3.17 0.93,0 1.55,0.56 1.82,0.87 0,-0.6 0,-0.79 0.58,-0.79 l 0.94,0 c 0.2,0 0.58,0 0.58,0.42 0,0.42 -0.38,0.42 -0.58,0.42 l -0.59,0 z" /><line
         style="stroke-width:0.398"
         id="line43385"
         y2="707.32001"
         x2="280.42001"
         y1="707.32001"
         x1="275.98999" /><path
         style="fill:#000000;stroke-width:0"
         inkscape:connector-curvature="0"
         id="path43387"
         d="m 284.76,715.26 0,0.03 -0.01,0.03 0,0.04 -0.01,0.03 0,0.03 -0.01,0.03 -0.01,0.03 -0.01,0.03 -0.02,0.03 -0.01,0.03 -0.02,0.02 -0.01,0.03 -0.02,0.02 -0.02,0.03 -0.02,0.02 -0.02,0.02 -0.02,0.03 -0.03,0.02 -0.02,0.01 -0.03,0.02 -0.02,0.02 -0.03,0.01 -0.03,0.02 -0.03,0.01 -0.02,0.01 -0.04,0.01 -0.03,0.01 -0.03,0.01 -0.03,0 -0.03,0.01 -0.03,0 -0.04,0 c -0.36,0 -0.64,-0.29 -0.64,-0.64 0,-0.36 0.28,-0.65 0.64,-0.65 0.36,0 0.65,0.29 0.65,0.65 z" /><path
         style="fill:#000000;stroke-width:0"
         inkscape:connector-curvature="0"
         id="path43389"
         d="m 282.29,713.31 -0.02,0 -0.02,0 -0.02,0 -0.02,0 -0.02,-0.01 -0.03,0 -0.02,0 -0.02,0 -0.03,0 -0.02,-0.01 -0.03,0 -0.02,-0.01 -0.02,0 -0.03,-0.01 -0.02,-0.01 -0.02,-0.01 -0.02,-0.01 -0.03,-0.01 -0.02,-0.01 -0.02,-0.02 -0.01,-0.01 -0.02,-0.02 -0.01,-0.01 -0.01,-0.01 -0.01,-0.01 0,-0.01 -0.01,-0.01 -0.01,-0.01 0,-0.01 -0.01,-0.02 0,-0.01 -0.01,-0.01 0,-0.02 -0.01,-0.01 0,-0.02 0,-0.01 -0.01,-0.02 0,-0.02 0,-0.01 0,-0.02 0,-0.02 0,-0.02 c 0,-0.42 0.37,-0.42 0.57,-0.42 l 1.54,0 0,-4.51 -1.64,0 c -0.2,0 -0.59,0 -0.59,-0.42 0,-0.42 0.39,-0.42 0.59,-0.42 l 3.99,0 c 0.2,0 0.57,0 0.57,0.42 0,0.42 -0.37,0.42 -0.57,0.42 l -1.42,0 0,4.76 c 0,0.44 -0.09,0.59 -0.58,0.59 z" /></g>    <g
       id="g44531"
       transform="matrix(1,0,0,-1,231.5549,1184.3231)"
       xml:space="preserve"
       stroke-miterlimit="10.433"
       font-style="normal"
       font-variant="normal"
       font-weight="normal"
       font-stretch="normal"
       font-size-adjust="none"
       letter-spacing="normal"
       word-spacing="normal"
       ns0:text="\\Large{\\texttt{queryInventory\\_o}}"
       ns0:preamble="/home/piter/.config/inkscape/extensions/preambulo.ini"
       style="font-style:normal;font-variant:normal;font-weight:normal;font-stretch:normal;letter-spacing:normal;word-spacing:normal;text-anchor:start;fill:none;fill-opacity:1;fill-rule:evenodd;stroke:#000000;stroke-linecap:butt;stroke-linejoin:miter;stroke-miterlimit:10.43299961;stroke-dasharray:none;stroke-dashoffset:0;stroke-opacity:1"><path
         style="fill:#000000;stroke-width:0"
         inkscape:connector-curvature="0"
         d="m 229.72,712.8 0,0.05 0,0.05 -0.01,0.05 0,0.03 0,0.02 0,0.03 -0.01,0.02 0,0.03 -0.01,0.02 0,0.03 -0.01,0.02 -0.01,0.02 -0.01,0.02 -0.01,0.03 -0.02,0.02 -0.01,0.02 -0.02,0.01 -0.01,0.02 -0.02,0.02 -0.01,0.01 -0.01,0 -0.02,0.01 -0.01,0.01 -0.01,0 -0.01,0.01 -0.02,0 -0.01,0.01 -0.01,0 -0.02,0.01 -0.02,0 -0.01,0.01 -0.02,0 -0.02,0 -0.01,0.01 -0.02,0 -0.02,0 -0.02,0 -0.02,0 -0.02,0 c -0.48,0 -0.48,-0.31 -0.48,-0.59 l 0,-0.27 c -0.27,0.29 -0.8,0.86 -1.79,0.86 l 0.09,-0.83 c 1.09,0 1.7,-1.16 1.7,-2.05 l 0,-0.65 c 0,-0.8 -0.7,-1.99 -1.85,-1.99 -1.09,0 -1.98,1.05 -1.98,2.34 0,1.34 1.01,2.35 2.13,2.35 l -0.09,0.83 c -1.56,0 -2.97,-1.35 -2.97,-3.18 0,-1.75 1.26,-3.17 2.83,-3.17 1.04,0 1.63,0.61 1.93,0.93 l 0,-3.2 -0.64,0 c -0.2,0 -0.59,0 -0.59,-0.42 0,-0.41 0.39,-0.41 0.59,-0.41 l 2.22,0 c 0.2,0 0.59,0 0.59,0.41 0,0.42 -0.39,0.42 -0.59,0.42 l -0.64,0 z"
         id="path44533" /><path
         style="fill:#000000;stroke-width:0"
         inkscape:connector-curvature="0"
         d="m 236.81,712.72 0,0.04 0,0.04 0,0.04 -0.01,0.03 0,0.03 0,0.04 -0.01,0.03 0,0.03 -0.01,0.02 -0.01,0.03 0,0.03 -0.01,0.02 -0.01,0.02 -0.02,0.02 -0.01,0.02 -0.01,0.02 -0.02,0.02 -0.02,0.01 -0.02,0.01 -0.02,0.02 -0.02,0.01 -0.03,0.01 -0.02,0.01 -0.03,0.01 -0.03,0 -0.03,0.01 -0.03,0 -0.04,0.01 -0.04,0 -0.04,0 -0.04,0.01 -0.02,0 -0.02,0 -0.95,0 c -0.2,0 -0.58,0 -0.58,-0.42 0,-0.42 0.38,-0.42 0.58,-0.42 l 0.59,0 0,-3.11 c 0,-1.18 -0.98,-1.49 -1.62,-1.49 -1.14,0 -1.14,0.52 -1.14,0.96 l 0,3.89 c 0,0.44 -0.08,0.59 -0.57,0.59 l -0.95,0 c -0.2,0 -0.57,0 -0.57,-0.42 0,-0.42 0.37,-0.42 0.57,-0.42 l 0.59,0 0,-3.71 c 0,-1.32 0.86,-1.72 1.96,-1.72 0.88,0 1.42,0.36 1.71,0.6 0,-0.52 0.35,-0.52 0.59,-0.52 l 0.95,0 c 0.2,0 0.57,0 0.57,0.42 0,0.42 -0.37,0.42 -0.57,0.42 l -0.59,0 z"
         id="path44535" /><path
         style="fill:#000000;stroke-width:0"
         inkscape:connector-curvature="0"
         d="m 244.17,709.88 0.05,0 0.06,0 0.03,0 0.02,0 0.03,0 0.02,0.01 0.03,0 0.02,0 0.03,0.01 0.02,0.01 0.02,0 0.03,0.01 0.02,0.01 0.02,0.01 0.02,0.02 0.02,0.01 0.01,0.02 0.02,0.02 0.02,0.02 0,0.01 0.01,0.01 0.01,0.01 0,0.01 0.01,0.02 0,0.01 0.01,0.02 0.01,0.01 0,0.02 0,0.01 0.01,0.02 0,0.02 0.01,0.01 0,0.02 0,0.02 0.01,0.02 0,0.02 0,0.02 0,0.03 0,0.02 0,0.02 0,0.03 c 0,1.68 -0.95,3.02 -2.74,3.02 -1.66,0 -3,-1.43 -3,-3.18 0,-1.81 1.45,-3.21 3.22,-3.21 1.85,0 2.52,1.27 2.52,1.65 0,0.08 -0.03,0.4 -0.47,0.4 -0.27,0 -0.36,-0.1 -0.45,-0.32 -0.36,-0.83 -1.29,-0.9 -1.56,-0.9 -1.19,0 -2.14,0.9 -2.3,2.01 l 0.02,0.79 c 0.18,1.22 1.12,1.93 2.02,1.93 1.44,0 1.74,-1.22 1.79,-1.93 l -3.81,0 -0.02,-0.79 z"
         id="path44537" /><path
         style="fill:#000000;stroke-width:0"
         inkscape:connector-curvature="0"
         d="m 248.68,709.83 0,0.16 0.01,0.16 0.02,0.15 0.02,0.14 0.03,0.14 0.04,0.14 0.04,0.13 0.05,0.13 0.05,0.12 0.06,0.12 0.06,0.12 0.06,0.11 0.08,0.1 0.07,0.1 0.08,0.1 0.08,0.09 0.09,0.08 0.09,0.08 0.09,0.08 0.1,0.07 0.1,0.06 0.1,0.06 0.1,0.06 0.11,0.04 0.11,0.05 0.11,0.03 0.11,0.04 0.11,0.02 0.11,0.02 0.11,0.02 0.12,0.01 0.11,0 c 0.08,0 0.16,0 0.23,-0.02 0.05,-0.51 0.45,-0.55 0.55,-0.55 0.33,0 0.56,0.24 0.56,0.55 0,0.62 -0.6,0.85 -1.32,0.85 -0.96,0 -1.78,-0.43 -2.44,-1.23 l 0,0.56 c 0,0.44 -0.09,0.59 -0.58,0.59 l -1.44,0 c -0.2,0 -0.58,0 -0.58,-0.42 0,-0.42 0.38,-0.42 0.58,-0.42 l 1.09,0 0,-4.51 -1.09,0 c -0.2,0 -0.58,0 -0.58,-0.42 0,-0.42 0.38,-0.42 0.58,-0.42 l 3.52,0 c 0.21,0 0.58,0 0.58,0.42 0,0.42 -0.37,0.42 -0.58,0.42 l -1.5,0 z"
         id="path44539" /><path
         style="fill:#000000;stroke-width:0"
         inkscape:connector-curvature="0"
         d="m 259.04,712.47 0.38,0 c 0.2,0 0.58,0 0.58,0.42 0,0.42 -0.38,0.42 -0.58,0.42 l -1.58,0 c -0.2,0 -0.59,0 -0.59,-0.42 0,-0.42 0.39,-0.42 0.59,-0.42 l 0.36,0 c -0.4,-1.17 -1.22,-3.57 -1.42,-4.39 l -0.02,0 c -0.07,0.32 -0.13,0.48 -0.27,0.87 l -1.34,3.52 0.34,0 c 0.2,0 0.58,0 0.58,0.42 0,0.42 -0.38,0.42 -0.58,0.42 l -1.58,0 c -0.2,0 -0.59,0 -0.59,-0.42 0,-0.42 0.39,-0.42 0.59,-0.42 l 0.38,0 2.01,-5.16 c 0.06,-0.14 0.06,-0.17 0.06,-0.19 0,-0.03 -0.37,-1.27 -0.59,-1.68 -0.08,-0.14 -0.44,-0.81 -1.13,-0.74 0.01,0.04 0.06,0.13 0.06,0.28 0,0.34 -0.23,0.56 -0.56,0.56 -0.36,0 -0.58,-0.24 -0.58,-0.57 0,-0.55 0.46,-1.12 1.18,-1.12 1.39,0 2.01,1.85 2.05,1.97 z"
         id="path44541" /><path
         style="fill:#000000;stroke-width:0"
         inkscape:connector-curvature="0"
         d="m 264.51,715.06 1.46,0 c 0.2,0 0.58,0 0.58,0.41 0,0.42 -0.38,0.42 -0.58,0.42 l -3.86,0 c -0.2,0 -0.57,0 -0.57,-0.42 0,-0.41 0.37,-0.41 0.57,-0.41 l 1.47,0 0,-7.1 -1.47,0 c -0.2,0 -0.57,0 -0.57,-0.42 0,-0.42 0.37,-0.42 0.57,-0.42 l 3.86,0 c 0.2,0 0.58,0 0.58,0.42 0,0.42 -0.38,0.42 -0.58,0.42 l -1.46,0 z"
         id="path44543" /><path
         style="fill:#000000;stroke-width:0"
         inkscape:connector-curvature="0"
         d="m 273.72,711.33 0,0.13 0,0.12 -0.01,0.12 -0.02,0.12 -0.01,0.11 -0.02,0.11 -0.03,0.1 -0.03,0.1 -0.03,0.1 -0.03,0.09 -0.04,0.08 -0.05,0.09 -0.04,0.08 -0.05,0.07 -0.06,0.07 -0.05,0.07 -0.06,0.06 -0.07,0.06 -0.06,0.05 -0.07,0.05 -0.08,0.04 -0.08,0.05 -0.08,0.03 -0.08,0.04 -0.09,0.03 -0.09,0.02 -0.09,0.02 -0.1,0.02 -0.09,0.01 -0.11,0.01 -0.1,0.01 -0.11,0 c -0.98,0 -1.61,-0.54 -1.85,-0.82 0,0.53 0,0.74 -0.58,0.74 l -0.94,0 c -0.2,0 -0.58,0 -0.58,-0.42 0,-0.42 0.38,-0.42 0.58,-0.42 l 0.59,0 0,-4.51 -0.59,0 c -0.2,0 -0.58,0 -0.58,-0.42 0,-0.42 0.38,-0.42 0.58,-0.42 l 2.1,0 c 0.21,0 0.58,0 0.58,0.42 0,0.42 -0.37,0.42 -0.58,0.42 l -0.58,0 0,2.59 c 0,1.39 0.97,2.01 1.75,2.01 0.83,0 1,-0.47 1,-1.29 l 0,-3.31 -0.59,0 c -0.2,0 -0.57,0 -0.57,-0.42 0,-0.42 0.37,-0.42 0.57,-0.42 l 2.11,0 c 0.2,0 0.58,0 0.58,0.42 0,0.42 -0.38,0.42 -0.58,0.42 l -0.59,0 z"
         id="path44545" /><path
         style="fill:#000000;stroke-width:0"
         inkscape:connector-curvature="0"
         d="m 281.19,712.47 0.37,0 c 0.2,0 0.59,0 0.59,0.42 0,0.42 -0.39,0.42 -0.59,0.42 l -1.58,0 c -0.2,0 -0.58,0 -0.58,-0.42 0,-0.42 0.38,-0.42 0.58,-0.42 l 0.36,0 -1.55,-4.62 -1.55,4.62 0.36,0 c 0.2,0 0.59,0 0.59,0.42 0,0.42 -0.39,0.42 -0.59,0.42 l -1.57,0 c -0.2,0 -0.59,0 -0.59,-0.42 0,-0.42 0.39,-0.42 0.59,-0.42 l 0.37,0 1.65,-4.93 c 0.16,-0.49 0.47,-0.49 0.74,-0.49 0.28,0 0.59,0 0.75,0.49 z"
         id="path44547" /><path
         style="fill:#000000;stroke-width:0"
         inkscape:connector-curvature="0"
         d="m 288.46,709.88 0.06,0 0.05,0 0.03,0 0.03,0 0.02,0 0.03,0.01 0.02,0 0.03,0 0.02,0.01 0.03,0.01 0.02,0 0.02,0.01 0.02,0.01 0.02,0.01 0.02,0.02 0.02,0.01 0.02,0.02 0.01,0.02 0.02,0.02 0.01,0.01 0,0.01 0.01,0.01 0.01,0.01 0,0.02 0.01,0.01 0.01,0.02 0,0.01 0.01,0.02 0,0.01 0,0.02 0.01,0.02 0,0.01 0,0.02 0.01,0.02 0,0.02 0,0.02 0,0.02 0.01,0.03 0,0.02 0,0.02 0,0.03 c 0,1.68 -0.95,3.02 -2.74,3.02 -1.67,0 -3,-1.43 -3,-3.18 0,-1.81 1.45,-3.21 3.21,-3.21 1.85,0 2.53,1.27 2.53,1.65 0,0.08 -0.03,0.4 -0.48,0.4 -0.27,0 -0.36,-0.1 -0.44,-0.32 -0.36,-0.83 -1.29,-0.9 -1.57,-0.9 -1.19,0 -2.13,0.9 -2.29,2.01 l 0.01,0.79 c 0.19,1.22 1.12,1.93 2.03,1.93 1.43,0 1.73,-1.22 1.79,-1.93 l -3.82,0 -0.01,-0.79 z"
         id="path44549" /><path
         style="fill:#000000;stroke-width:0"
         inkscape:connector-curvature="0"
         d="m 295.87,711.33 0,0.13 -0.01,0.12 -0.01,0.12 -0.01,0.12 -0.02,0.11 -0.02,0.11 -0.02,0.1 -0.03,0.1 -0.03,0.1 -0.04,0.09 -0.04,0.08 -0.04,0.09 -0.05,0.08 -0.05,0.07 -0.05,0.07 -0.06,0.07 -0.06,0.06 -0.06,0.06 -0.07,0.05 -0.07,0.05 -0.07,0.04 -0.08,0.05 -0.08,0.03 -0.08,0.04 -0.09,0.03 -0.09,0.02 -0.09,0.02 -0.1,0.02 -0.1,0.01 -0.1,0.01 -0.11,0.01 -0.1,0 c -0.98,0 -1.61,-0.54 -1.86,-0.82 0,0.53 0,0.74 -0.57,0.74 l -0.95,0 c -0.2,0 -0.57,0 -0.57,-0.42 0,-0.42 0.37,-0.42 0.57,-0.42 l 0.59,0 0,-4.51 -0.59,0 c -0.2,0 -0.57,0 -0.57,-0.42 0,-0.42 0.37,-0.42 0.57,-0.42 l 2.11,0 c 0.2,0 0.58,0 0.58,0.42 0,0.42 -0.38,0.42 -0.58,0.42 l -0.59,0 0,2.59 c 0,1.39 0.98,2.01 1.75,2.01 0.84,0 1.01,-0.47 1.01,-1.29 l 0,-3.31 -0.59,0 c -0.2,0 -0.57,0 -0.57,-0.42 0,-0.42 0.37,-0.42 0.57,-0.42 l 2.11,0 c 0.2,0 0.57,0 0.57,0.42 0,0.42 -0.37,0.42 -0.57,0.42 l -0.59,0 z"
         id="path44551" /><path
         style="fill:#000000;stroke-width:0"
         inkscape:connector-curvature="0"
         d="m 300.35,712.47 2.33,0 c 0.2,0 0.57,0 0.57,0.42 0,0.42 -0.37,0.42 -0.57,0.42 l -2.33,0 0,1.17 c 0,0.26 0,0.59 -0.46,0.59 -0.47,0 -0.47,-0.33 -0.47,-0.59 l 0,-1.17 -1.22,0 c -0.2,0 -0.59,0 -0.59,-0.42 0,-0.42 0.38,-0.42 0.58,-0.42 l 1.23,0 0,-3.61 c 0,-1.34 0.92,-1.82 1.95,-1.82 0.78,0 2.2,0.38 2.2,1.85 0,0.28 0,0.6 -0.48,0.6 -0.45,0 -0.45,-0.32 -0.45,-0.62 -0.02,-0.86 -0.84,-1 -1.17,-1 -1.12,0 -1.12,0.72 -1.12,1.06 z"
         id="path44553" /><path
         style="fill:#000000;stroke-width:0"
         inkscape:connector-curvature="0"
         d="m 311.18,710.22 0,0.17 -0.01,0.16 -0.02,0.16 -0.03,0.16 -0.03,0.16 -0.04,0.15 -0.04,0.15 -0.05,0.15 -0.06,0.14 -0.07,0.14 -0.07,0.14 -0.07,0.13 -0.08,0.12 -0.09,0.12 -0.09,0.12 -0.09,0.11 -0.1,0.11 -0.11,0.1 -0.1,0.09 -0.12,0.09 -0.11,0.08 -0.12,0.08 -0.12,0.07 -0.13,0.07 -0.13,0.05 -0.13,0.05 -0.14,0.04 -0.13,0.04 -0.14,0.03 -0.14,0.02 -0.15,0.01 -0.14,0 0,-0.83 c 1,0 1.92,-0.94 1.92,-2.28 0,-1.37 -0.89,-2.45 -1.92,-2.45 l 0,0 c -1.03,0 -1.92,1.09 -1.92,2.45 0,1.34 0.92,2.28 1.92,2.28 l 0,0.83 c -1.55,0 -2.85,-1.41 -2.85,-3.21 0,-1.81 1.31,-3.18 2.85,-3.18 1.53,0 2.85,1.37 2.85,3.18 z"
         id="path44555" /><path
         style="fill:#000000;stroke-width:0"
         inkscape:connector-curvature="0"
         d="m 315.12,709.83 0,0.16 0.01,0.16 0.02,0.15 0.03,0.14 0.02,0.14 0.04,0.14 0.04,0.13 0.05,0.13 0.05,0.12 0.06,0.12 0.06,0.12 0.07,0.11 0.07,0.1 0.07,0.1 0.08,0.1 0.09,0.09 0.08,0.08 0.09,0.08 0.1,0.08 0.09,0.07 0.1,0.06 0.1,0.06 0.11,0.06 0.1,0.04 0.11,0.05 0.11,0.03 0.11,0.04 0.11,0.02 0.11,0.02 0.12,0.02 0.11,0.01 0.12,0 c 0.07,0 0.15,0 0.22,-0.02 0.05,-0.51 0.45,-0.55 0.55,-0.55 0.33,0 0.56,0.24 0.56,0.55 0,0.62 -0.6,0.85 -1.32,0.85 -0.96,0 -1.78,-0.43 -2.44,-1.23 l 0,0.56 c 0,0.44 -0.08,0.59 -0.57,0.59 l -1.45,0 c -0.2,0 -0.58,0 -0.58,-0.42 0,-0.42 0.38,-0.42 0.58,-0.42 l 1.09,0 0,-4.51 -1.09,0 c -0.2,0 -0.58,0 -0.58,-0.42 0,-0.42 0.38,-0.42 0.58,-0.42 l 3.53,0 c 0.2,0 0.57,0 0.57,0.42 0,0.42 -0.37,0.42 -0.57,0.42 l -1.51,0 z"
         id="path44557" /><path
         style="fill:#000000;stroke-width:0"
         inkscape:connector-curvature="0"
         d="m 325.48,712.47 0.38,0 c 0.2,0 0.59,0 0.59,0.42 0,0.42 -0.39,0.42 -0.59,0.42 l -1.58,0 c -0.2,0 -0.59,0 -0.59,-0.42 0,-0.42 0.39,-0.42 0.59,-0.42 l 0.36,0 c -0.4,-1.17 -1.22,-3.57 -1.42,-4.39 l -0.02,0 c -0.07,0.32 -0.12,0.48 -0.27,0.87 l -1.33,3.52 0.33,0 c 0.2,0 0.59,0 0.59,0.42 0,0.42 -0.39,0.42 -0.59,0.42 l -1.58,0 c -0.2,0 -0.59,0 -0.59,-0.42 0,-0.42 0.39,-0.42 0.59,-0.42 l 0.39,0 2,-5.16 c 0.06,-0.14 0.06,-0.17 0.06,-0.19 0,-0.03 -0.37,-1.27 -0.59,-1.68 -0.08,-0.14 -0.44,-0.81 -1.13,-0.74 0.02,0.04 0.06,0.13 0.06,0.28 0,0.34 -0.23,0.56 -0.56,0.56 -0.36,0 -0.57,-0.24 -0.57,-0.57 0,-0.55 0.45,-1.12 1.17,-1.12 1.39,0 2.01,1.85 2.05,1.97 z"
         id="path44559" /><line
         style="stroke-width:0.398"
         x1="327.67001"
         y1="707.32001"
         x2="332.10001"
         y2="707.32001"
         id="line44561" /><path
         style="fill:#000000;stroke-width:0"
         inkscape:connector-curvature="0"
         d="m 338.64,710.22 0,0.17 -0.01,0.16 -0.02,0.16 -0.03,0.16 -0.03,0.16 -0.04,0.15 -0.04,0.15 -0.06,0.15 -0.05,0.14 -0.07,0.14 -0.07,0.14 -0.07,0.13 -0.08,0.12 -0.09,0.12 -0.09,0.12 -0.09,0.11 -0.1,0.11 -0.11,0.1 -0.11,0.09 -0.11,0.09 -0.11,0.08 -0.12,0.08 -0.13,0.07 -0.12,0.07 -0.13,0.05 -0.13,0.05 -0.14,0.04 -0.14,0.04 -0.13,0.03 -0.15,0.02 -0.14,0.01 -0.14,0 0,-0.83 c 1,0 1.92,-0.94 1.92,-2.28 0,-1.37 -0.89,-2.45 -1.92,-2.45 l 0,0 c -1.04,0 -1.93,1.09 -1.93,2.45 0,1.34 0.92,2.28 1.93,2.28 l 0,0.83 c -1.55,0 -2.86,-1.41 -2.86,-3.21 0,-1.81 1.32,-3.18 2.86,-3.18 1.53,0 2.85,1.37 2.85,3.18 z"
         id="path44563" /></g>    <path
       sodipodi:nodetypes="cc"
       style="fill:none;fill-rule:evenodd;stroke:#000000;stroke-width:1px;stroke-linecap:butt;stroke-linejoin:miter;stroke-opacity:1;marker-end:url(#TriangleOutL-8)"
       d="m 506.14255,407.36476 -54.85175,0"
       id="path38432-8"
       inkscape:connector-curvature="0"
       inkscape:transform-center-x="170.08253"
       inkscape:transform-center-y="30.284516" />
    <path
       sodipodi:nodetypes="cc"
       style="fill:none;fill-rule:evenodd;stroke:#000000;stroke-width:1px;stroke-linecap:butt;stroke-linejoin:miter;stroke-opacity:1;marker-start:url(#TriangleInL)"
       d="m 500.74273,482.11768 -54.85175,0"
       id="path38432-8-3"
       inkscape:connector-curvature="0"
       inkscape:transform-center-x="170.08253"
       inkscape:transform-center-y="30.284516" />
  </g>
</svg>
