<?xml version="1.0" encoding="UTF-8" standalone="no"?>
<!-- Created with Inkscape (http://www.inkscape.org/) -->

<svg
   xmlns:dc="http://purl.org/dc/elements/1.1/"
   xmlns:cc="http://creativecommons.org/ns#"
   xmlns:rdf="http://www.w3.org/1999/02/22-rdf-syntax-ns#"
   xmlns:svg="http://www.w3.org/2000/svg"
   xmlns="http://www.w3.org/2000/svg"
   xmlns:sodipodi="http://sodipodi.sourceforge.net/DTD/sodipodi-0.dtd"
   xmlns:inkscape="http://www.inkscape.org/namespaces/inkscape"
   width="210mm"
   height="297mm"
   viewBox="0 0 744.09448819 1052.3622047"
   id="svg4223"
   version="1.1"
   inkscape:version="0.91 r13725"
   sodipodi:docname="figura8.svg">
  <defs
     id="defs4225" />
  <sodipodi:namedview
     id="base"
     pagecolor="#ffffff"
     bordercolor="#666666"
     borderopacity="1.0"
     inkscape:pageopacity="0.0"
     inkscape:pageshadow="2"
     inkscape:zoom="2.6085938"
     inkscape:cx="255.34782"
     inkscape:cy="652.25094"
     inkscape:document-units="px"
     inkscape:current-layer="layer1"
     showgrid="false"
     inkscape:window-width="1855"
     inkscape:window-height="1056"
     inkscape:window-x="65"
     inkscape:window-y="24"
     inkscape:window-maximized="1" />
  <metadata
     id="metadata4228">
    <rdf:RDF>
      <cc:Work
         rdf:about="">
        <dc:format>image/svg+xml</dc:format>
        <dc:type
           rdf:resource="http://purl.org/dc/dcmitype/StillImage" />
        <dc:title />
      </cc:Work>
    </rdf:RDF>
  </metadata>
  <g
     inkscape:label="Capa 1"
     inkscape:groupmode="layer"
     id="layer1">
    <path
       d="m 120.70636,222.02818 380,0 0,322.01575 -380,0 z"
       id="path11"
       inkscape:connector-curvature="0"
       style="fill:#000000;fill-opacity:0;fill-rule:evenodd;stroke:none;stroke-linecap:square;stroke-miterlimit:10" />
    <path
       d="m 120.70636,222.02818 380,0 0,322.01575 -380,0 z"
       id="path13"
       inkscape:connector-curvature="0"
       style="fill:none;fill-rule:evenodd;stroke:#000000;stroke-width:2;stroke-linecap:butt;stroke-linejoin:round;stroke-miterlimit:10" />
    <path
       d="m 158.9977,375.03605 0,0 c 0,-25.62253 21.87106,-46.39371 48.85039,-46.39371 l 0,0 c 12.95593,0 25.38122,4.8879 34.54245,13.58841 9.16122,8.7005 14.30795,20.50093 14.30795,32.8053 l 0,0 c 0,25.62253 -21.87106,46.39371 -48.8504,46.39371 l 0,0 c -26.97933,0 -48.85039,-20.77118 -48.85039,-46.39371 z"
       id="path15"
       inkscape:connector-curvature="0"
       style="fill:#cfe2f3;fill-rule:evenodd;stroke:none;stroke-linecap:square;stroke-miterlimit:10" />
    <path
       d="m 158.9977,375.03605 0,0 c 0,-25.62253 21.87106,-46.39371 48.85039,-46.39371 l 0,0 c 12.95593,0 25.38122,4.8879 34.54245,13.58841 9.16122,8.7005 14.30795,20.50093 14.30795,32.8053 l 0,0 c 0,25.62253 -21.87106,46.39371 -48.8504,46.39371 l 0,0 c -26.97933,0 -48.85039,-20.77118 -48.85039,-46.39371 z"
       id="path17"
       inkscape:connector-curvature="0"
       style="fill:none;fill-rule:evenodd;stroke:#000000;stroke-width:1;stroke-linecap:butt;stroke-linejoin:round;stroke-miterlimit:10" />
    <path
       d="m 183.63377,369.8023 2.01562,0 0,11.09374 -2.01562,0 0,-11.09374 z m 6.09389,6.89062 q 0,1.28124 0.60937,2.01561 0.60938,0.71875 1.6875,0.71875 0.45313,0 0.78125,-0.0312 0.32813,-0.0469 0.54688,-0.0937 l 0,-4.81248 q -0.26563,-0.17188 -0.6875,-0.3125 -0.42188,-0.15625 -0.90625,-0.15625 -1.04688,0 -1.54688,0.71875 -0.48437,0.71875 -0.48437,1.95312 z m 5.54687,3.95311 q -0.5625,0.17188 -1.4375,0.3125 -0.875,0.14063 -1.82812,0.14063 -1,0 -1.78125,-0.29688 -0.78125,-0.3125 -1.34375,-0.875 -0.54688,-0.5625 -0.84375,-1.375 -0.29688,-0.8125 -0.29688,-1.81248 0,-1 0.25,-1.79688 0.25,-0.8125 0.71875,-1.39062 0.48438,-0.57813 1.17188,-0.89063 0.6875,-0.3125 1.59375,-0.3125 0.60937,0 1.0625,0.15625 0.46875,0.14063 0.8125,0.3125 l 0,-4.01562 1.92187,-0.32813 0,12.17187 z m 5.37976,0.40625 q -0.85937,-0.0156 -1.4375,-0.1875 -0.5625,-0.17187 -0.90625,-0.5 -0.32812,-0.32812 -0.46875,-0.8125 -0.125,-0.5 -0.125,-1.125 l 0,-9.62498 1.9375,-0.32813 0,9.59374 q 0,0.34375 0.0469,0.59375 0.0625,0.23437 0.20312,0.40625 0.14063,0.17187 0.39063,0.26562 0.25,0.0781 0.64062,0.125 l -0.28125,1.59375 z m 1.37702,-4.29686 q 0,-1.10937 0.32812,-1.9375 0.32813,-0.82812 0.875,-1.375 0.54688,-0.5625 1.25,-0.84375 0.70313,-0.28125 1.4375,-0.28125 1.73438,0 2.6875,1.07813 0.96875,1.0625 0.96875,3.20312 0,0.15625 -0.0156,0.35938 0,0.18748 -0.0156,0.35936 l -5.51562,0 q 0.0781,1 0.70312,1.5625 0.64063,0.54687 1.84375,0.54687 0.70313,0 1.28125,-0.125 0.59375,-0.14062 0.92188,-0.28125 l 0.26562,1.59375 q -0.17187,0.0781 -0.45312,0.17188 -0.26563,0.0781 -0.625,0.14062 -0.35938,0.0781 -0.78125,0.125 -0.42188,0.0469 -0.84375,0.0469 -1.10938,0 -1.92188,-0.32813 -0.8125,-0.32812 -1.34375,-0.90625 -0.53125,-0.57812 -0.79687,-1.375 -0.25,-0.79687 -0.25,-1.73435 z m 5.625,-0.875 q 0,-0.39062 -0.125,-0.75 -0.10938,-0.35937 -0.32813,-0.625 -0.20312,-0.26562 -0.51562,-0.40625 -0.3125,-0.15625 -0.75,-0.15625 -0.45313,0 -0.79688,0.17188 -0.32812,0.15625 -0.5625,0.4375 -0.21875,0.26562 -0.35937,0.625 -0.125,0.34375 -0.17188,0.70312 l 3.60938,0 z"
       id="path19"
       inkscape:connector-curvature="0"
       style="fill:#000000;fill-rule:nonzero;stroke:none;stroke-linecap:square;stroke-miterlimit:10" />
    <path
       d="m 347.40846,379.9022 0,0 c 0,-28.31004 24.80414,-51.25986 55.40158,-51.25986 l 0,0 c 30.59744,0 55.40158,22.94982 55.40158,51.25986 l 0,0 c 0,28.31003 -24.80414,51.25983 -55.40158,51.25983 l 0,0 c -30.59744,0 -55.40158,-22.9498 -55.40158,-51.25983 z"
       id="path21"
       inkscape:connector-curvature="0"
       style="fill:#cfe2f3;fill-rule:evenodd;stroke:none;stroke-linecap:square;stroke-miterlimit:10" />
    <path
       d="m 347.40846,379.9022 0,0 c 0,-28.31004 24.80414,-51.25986 55.40158,-51.25986 l 0,0 c 30.59744,0 55.40158,22.94982 55.40158,51.25986 l 0,0 c 0,28.31003 -24.80414,51.25983 -55.40158,51.25983 l 0,0 c -30.59744,0 -55.40158,-22.9498 -55.40158,-51.25983 z"
       id="path23"
       inkscape:connector-curvature="0"
       style="fill:none;fill-rule:evenodd;stroke:#000000;stroke-width:1;stroke-linecap:butt;stroke-linejoin:round;stroke-miterlimit:10" />
    <path
       d="m 385.91412,384.37156 q 0.76562,0 1.10937,-0.1875 0.35938,-0.1875 0.35938,-0.625 0,-0.42187 -0.375,-0.6875 -0.375,-0.28125 -1.23438,-0.59375 -0.53125,-0.20312 -0.96875,-0.40625 -0.4375,-0.21875 -0.76562,-0.5 -0.3125,-0.29687 -0.5,-0.70312 -0.1875,-0.40625 -0.1875,-1 0,-1.15625 0.84375,-1.8125 0.85937,-0.67188 2.3125,-0.67188 0.73437,0 1.40625,0.14063 0.67187,0.14062 1.01562,0.26562 l -0.35937,1.5625 q -0.32813,-0.14062 -0.82813,-0.25 -0.48437,-0.125 -1.14062,-0.125 -0.59375,0 -0.96875,0.20313 -0.35938,0.1875 -0.35938,0.60937 0,0.20313 0.0625,0.375 0.0781,0.15625 0.25,0.29688 0.1875,0.125 0.46875,0.26562 0.29688,0.125 0.70313,0.28125 0.6875,0.25 1.17187,0.5 0.48438,0.25 0.79688,0.5625 0.3125,0.3125 0.45312,0.71875 0.14063,0.39063 0.14063,0.95313 0,1.1875 -0.89063,1.8125 -0.89062,0.60937 -2.53125,0.60937 -1.10937,0 -1.78125,-0.1875 -0.67187,-0.17187 -0.9375,-0.28125 l 0.32813,-1.625 q 0.4375,0.17188 1.03125,0.34375 0.60937,0.15625 1.375,0.15625 z m 4.74951,-2.75 q 0,-1.10937 0.32813,-1.9375 0.32812,-0.82812 0.875,-1.375 0.54687,-0.5625 1.25,-0.84375 0.70312,-0.28125 1.4375,-0.28125 1.73437,0 2.6875,1.07813 0.96875,1.0625 0.96875,3.20312 0,0.15625 -0.0156,0.35938 0,0.1875 -0.0156,0.35937 l -5.51563,0 q 0.0781,1 0.70313,1.5625 0.64062,0.54688 1.84375,0.54688 0.70312,0 1.28125,-0.125 0.59375,-0.14063 0.92187,-0.28125 l 0.26563,1.59375 q -0.17188,0.0781 -0.45313,0.17187 -0.26562,0.0781 -0.625,0.14063 -0.35937,0.0781 -0.78125,0.125 -0.42187,0.0469 -0.84375,0.0469 -1.10937,0 -1.92187,-0.32812 -0.8125,-0.32813 -1.34375,-0.90625 -0.53125,-0.57813 -0.79688,-1.375 -0.25,-0.79688 -0.25,-1.73438 z m 5.625,-0.875 q 0,-0.39062 -0.125,-0.75 -0.10937,-0.35937 -0.32812,-0.625 -0.20313,-0.26562 -0.51563,-0.40625 -0.3125,-0.15625 -0.75,-0.15625 -0.45312,0 -0.79687,0.17188 -0.32813,0.15625 -0.5625,0.4375 -0.21875,0.26562 -0.35938,0.625 -0.125,0.34375 -0.17187,0.70312 l 3.60937,0 z m 8.74539,-1.60937 q -0.23437,-0.0781 -0.67187,-0.15625 -0.42188,-0.0937 -0.96875,-0.0937 -0.32813,0 -0.6875,0.0625 -0.35938,0.0625 -0.5,0.10937 l 0,6.70313 -1.9375,0 0,-7.96875 q 0.5625,-0.20313 1.39062,-0.39063 0.84375,-0.1875 1.875,-0.1875 0.1875,0 0.4375,0.0312 0.26563,0.0156 0.51563,0.0625 0.26562,0.0312 0.5,0.0937 0.23437,0.0625 0.39062,0.10938 l -0.34375,1.625 z m 3.823,6.625 q -0.79687,-1.64063 -1.64062,-3.78125 -0.84375,-2.14063 -1.53125,-4.59375 l 2.0625,0 q 0.1875,0.71875 0.40625,1.53125 0.23437,0.79687 0.5,1.60937 0.26562,0.79688 0.54687,1.5625 0.28125,0.76563 0.51563,1.375 0.25,-0.60937 0.51562,-1.375 0.28125,-0.76562 0.53125,-1.5625 0.26563,-0.8125 0.5,-1.60937 0.25,-0.8125 0.42188,-1.53125 l 2,0 q -0.6875,2.45312 -1.53125,4.59375 -0.82813,2.14062 -1.625,3.78125 l -1.67188,0 z m 5.80664,-4.14063 q 0,-1.10937 0.32813,-1.9375 0.32812,-0.82812 0.875,-1.375 0.54687,-0.5625 1.25,-0.84375 0.70312,-0.28125 1.4375,-0.28125 1.73437,0 2.6875,1.07813 0.96875,1.0625 0.96875,3.20312 0,0.15625 -0.0156,0.35938 0,0.1875 -0.0156,0.35937 l -5.51563,0 q 0.0781,1 0.70313,1.5625 0.64062,0.54688 1.84375,0.54688 0.70312,0 1.28125,-0.125 0.59375,-0.14063 0.92187,-0.28125 l 0.26563,1.59375 q -0.17188,0.0781 -0.45313,0.17187 -0.26562,0.0781 -0.625,0.14063 -0.35937,0.0781 -0.78125,0.125 -0.42187,0.0469 -0.84375,0.0469 -1.10937,0 -1.92187,-0.32812 -0.8125,-0.32813 -1.34375,-0.90625 -0.53125,-0.57813 -0.79688,-1.375 -0.25,-0.79688 -0.25,-1.73438 z m 5.625,-0.875 q 0,-0.39062 -0.125,-0.75 -0.10937,-0.35937 -0.32812,-0.625 -0.20313,-0.26562 -0.51563,-0.40625 -0.3125,-0.15625 -0.75,-0.15625 -0.45312,0 -0.79687,0.17188 -0.32813,0.15625 -0.5625,0.4375 -0.21875,0.26562 -0.35938,0.625 -0.125,0.34375 -0.17187,0.70312 l 3.60937,0 z"
       id="path25"
       inkscape:connector-curvature="0"
       style="fill:#000000;fill-rule:nonzero;stroke:none;stroke-linecap:square;stroke-miterlimit:10" />
    <path
       d="m 207.84808,328.64235 c 0,-12.50002 38.94489,-26.87801 77.88977,-25.00005 38.94489,1.87795 77.88977,20.01184 77.88977,40.02368"
       id="path27"
       inkscape:connector-curvature="0"
       style="fill:#000000;fill-opacity:0;fill-rule:evenodd;stroke:none;stroke-linecap:square;stroke-miterlimit:10" />
    <path
       d="m 207.84808,328.64235 c 0,-12.50002 38.94489,-26.87801 77.88977,-25.00006 19.47244,0.93898 38.94489,5.94195 53.54922,13.21164 7.30216,3.63484 13.3873,7.83639 17.64689,12.37994 0.53244,0.56795 1.03637,1.14124 1.51059,1.71942 0.23712,0.28911 0.46676,0.57943 0.6889,0.87093 0.11105,0.14575 0.22021,0.29179 0.32745,0.43811 l 0.0855,0.11899"
       id="path29"
       inkscape:connector-curvature="0"
       style="fill:none;fill-rule:evenodd;stroke:#000000;stroke-width:2;stroke-linecap:butt;stroke-linejoin:round;stroke-miterlimit:10" />
    <path
       d="m 356.43986,333.50483 6.19336,7.41164 0.0197,-9.65868 z"
       id="path31"
       inkscape:connector-curvature="0"
       style="fill:#000000;fill-rule:evenodd;stroke:#000000;stroke-width:2;stroke-linecap:butt;stroke-miterlimit:10" />
    <path
       d="m 248.52658,267.44551 72.88187,0 0,30.01575 -72.88187,0 z"
       id="path33"
       inkscape:connector-curvature="0"
       style="fill:#000000;fill-opacity:0;fill-rule:evenodd;stroke:none;stroke-linecap:square;stroke-miterlimit:10" />
    <path
       d="m 363.63519,416.14838 c 0,20.00684 -38.94489,39.35226 -77.88974,40.01367 -38.94489,0.66141 -77.88977,-17.36118 -77.88977,-34.72235"
       id="path37"
       inkscape:connector-curvature="0"
       style="fill:#000000;fill-opacity:0;fill-rule:evenodd;stroke:none;stroke-linecap:square;stroke-miterlimit:10" />
    <path
       d="m 363.63519,416.14838 c 0,20.00684 -38.94486,39.35226 -77.88974,40.01367 -19.47244,0.33072 -38.94489,-4.00958 -53.54923,-10.60272 -7.30215,-3.29654 -13.38729,-7.15631 -17.64691,-11.27701 -0.53244,-0.51508 -1.03637,-1.03424 -1.51056,-1.55688 l -0.29217,-0.32767"
       id="path39"
       inkscape:connector-curvature="0"
       style="fill:none;fill-rule:evenodd;stroke:#000000;stroke-width:2;stroke-linecap:butt;stroke-linejoin:round;stroke-miterlimit:10;stroke-dasharray:8, 6" />
    <path
       d="m 215.76321,431.05134 -6.71585,-6.94168 0.68262,9.63452 z"
       id="path41"
       inkscape:connector-curvature="0"
       style="fill:#000000;fill-rule:evenodd;stroke:#000000;stroke-width:2;stroke-linecap:butt;stroke-miterlimit:10" />
    <path
       d="m 256.69849,452.60954 93.29135,0 0,38.99213 -93.29135,0 z"
       id="path43"
       inkscape:connector-curvature="0"
       style="fill:#000000;fill-opacity:0;fill-rule:evenodd;stroke:none;stroke-linecap:square;stroke-miterlimit:10" />
    <path
       d="m 279.52609,472.9358 q 0,-1.6875 0.5,-2.98438 0.5,-1.29687 1.35937,-2.15625 0.875,-0.85937 2.01563,-1.29687 1.15625,-0.4375 2.4375,-0.4375 1.28125,0 2.40625,0.4375 1.14062,0.4375 1.98437,1.29687 0.85938,0.85938 1.35938,2.15625 0.51562,1.29688 0.51562,2.98438 0,1.6875 -0.51562,2.98437 -0.5,1.29688 -1.35938,2.15625 -0.84375,0.85938 -1.98437,1.29688 -1.125,0.4375 -2.40625,0.4375 -1.28125,0 -2.4375,-0.4375 -1.14063,-0.4375 -2.01563,-1.29688 -0.85937,-0.85937 -1.35937,-2.15625 -0.5,-1.29687 -0.5,-2.98437 z m 1.9375,0 q 0,1.20312 0.29687,2.1875 0.29688,0.96875 0.85938,1.65625 0.5625,0.67187 1.375,1.04687 0.8125,0.375 1.8125,0.375 1,0 1.79687,-0.375 0.8125,-0.375 1.35938,-1.04687 0.5625,-0.6875 0.85937,-1.65625 0.3125,-0.98438 0.3125,-2.1875 0,-1.20313 -0.3125,-2.17188 -0.29687,-0.98437 -0.85937,-1.65625 -0.54688,-0.6875 -1.35938,-1.0625 -0.79687,-0.375 -1.79687,-0.375 -1,0 -1.8125,0.375 -0.8125,0.375 -1.375,1.0625 -0.5625,0.67188 -0.85938,1.65625 -0.29687,0.96875 -0.29687,2.17188 z m 20.85831,6.3125 q -0.60938,0.14062 -1.60938,0.3125 -1,0.17187 -2.3125,0.17187 -1.14062,0 -1.92187,-0.32812 -0.76563,-0.32813 -1.25,-0.9375 -0.46875,-0.60938 -0.6875,-1.4375 -0.20313,-0.82813 -0.20313,-1.82813 l 0,-5.54687 1.76563,0 0,5.15625 q 0,1.8125 0.5625,2.59375 0.57812,0.78125 1.92187,0.78125 0.29688,0 0.59375,-0.0156 0.3125,-0.0312 0.57813,-0.0469 0.26562,-0.0312 0.48437,-0.0625 0.21875,-0.0312 0.3125,-0.0625 l 0,-8.34375 1.76563,0 0,9.59375 z m 4.48996,-9.59375 3.75,0 0,1.48437 -3.75,0 0,4.54688 q 0,0.75 0.10937,1.23437 0.125,0.48438 0.34375,0.76563 0.23438,0.26562 0.57813,0.39062 0.34375,0.10938 0.79687,0.10938 0.79688,0 1.28125,-0.17188 0.48438,-0.1875 0.67188,-0.26562 l 0.34375,1.45312 q -0.26563,0.14063 -0.9375,0.32813 -0.65625,0.20312 -1.51563,0.20312 -1,0 -1.65625,-0.25 -0.65625,-0.25 -1.0625,-0.76562 -0.39062,-0.51563 -0.5625,-1.26563 -0.15625,-0.75 -0.15625,-1.73437 l 0,-8.82813 1.76563,-0.29687 0,3.0625 z m 9.63754,5.46875 8.70312,0 0,1.5 -8.70312,0 0,-1.5 z m 0,-4.04688 8.70312,0 0,1.5 -8.70312,0 0,-1.5 z m 15.34735,-1.14062 q 0.60938,-0.15625 1.60938,-0.32813 1.01562,-0.17187 2.32812,-0.17187 1.17188,0 1.95313,0.34375 0.78125,0.32812 1.25,0.92187 0.46875,0.59375 0.65625,1.4375 0.1875,0.82813 0.1875,1.84375 l 0,5.54688 -1.76563,0 0,-5.17188 q 0,-0.90625 -0.125,-1.54687 -0.125,-0.65625 -0.40625,-1.04688 -0.28125,-0.40625 -0.76562,-0.57812 -0.46875,-0.1875 -1.17188,-0.1875 -0.28125,0 -0.59375,0.0156 -0.29687,0.0156 -0.57812,0.0469 -0.28125,0.0312 -0.5,0.0781 -0.21875,0.0312 -0.3125,0.0469 l 0,8.34375 -1.76563,0 0,-9.59375 z"
       id="path45"
       inkscape:connector-curvature="0"
       style="fill:#000000;fill-rule:nonzero;stroke:none;stroke-linecap:square;stroke-miterlimit:10" />
    <path
       d="m 85.707669,297.46125 68.125981,0 0,30.01575 -68.125981,0 z"
       id="path47"
       inkscape:connector-curvature="0"
       style="fill:#6d9eeb;fill-rule:evenodd;stroke:none;stroke-linecap:square;stroke-miterlimit:10" />
    <path
       d="m 85.707669,297.46125 68.125981,0 0,30.01575 -68.125981,0 z"
       id="path49"
       inkscape:connector-curvature="0"
       style="fill:none;fill-rule:evenodd;stroke:#000000;stroke-width:2;stroke-linecap:butt;stroke-linejoin:round;stroke-miterlimit:10" />
    <path
       d="m 112.11113,306.21725 1.84375,0 0,13.17187 -1.84375,0 0,-13.17187 z m 14.03416,13.17187 q -0.42187,-0.70312 -0.96875,-1.57812 -0.53125,-0.875 -1.15625,-1.8125 -0.625,-0.9375 -1.29687,-1.90625 -0.67188,-0.96875 -1.34375,-1.875 -0.67188,-0.90625 -1.29688,-1.70313 -0.625,-0.79687 -1.15625,-1.40625 l 0,10.28125 -1.79687,0 0,-13.17187 1.45312,0 q 0.89063,0.95312 1.90625,2.21875 1.01563,1.26562 2.01563,2.60937 1,1.32813 1.875,2.625 0.89062,1.29688 1.5,2.29688 l 0,-9.75 1.8125,0 0,13.17187 -1.54688,0 z"
       id="path51"
       inkscape:connector-curvature="0"
       style="fill:#000000;fill-rule:nonzero;stroke:none;stroke-linecap:square;stroke-miterlimit:10" />
    <path
       d="m 467.19061,422.59511 68.12598,0 0,30.01575 -68.12598,0 z"
       id="path53"
       inkscape:connector-curvature="0"
       style="fill:#6d9eeb;fill-rule:evenodd;stroke:none;stroke-linecap:square;stroke-miterlimit:10" />
    <path
       d="m 467.19061,422.59511 68.12598,0 0,30.01575 -68.12598,0 z"
       id="path55"
       inkscape:connector-curvature="0"
       style="fill:none;fill-rule:evenodd;stroke:#000000;stroke-width:2;stroke-linecap:butt;stroke-linejoin:round;stroke-miterlimit:10" />
    <path
       d="m 483.41756,437.92924 q 0,-1.6875 0.5,-2.98438 0.5,-1.29687 1.35937,-2.15625 0.875,-0.85937 2.01563,-1.29687 1.15625,-0.4375 2.4375,-0.4375 1.28125,0 2.40625,0.4375 1.14062,0.4375 1.98437,1.29687 0.85938,0.85938 1.35938,2.15625 0.51562,1.29688 0.51562,2.98438 0,1.6875 -0.51562,2.98437 -0.5,1.29688 -1.35938,2.15625 -0.84375,0.85938 -1.98437,1.29688 -1.125,0.4375 -2.40625,0.4375 -1.28125,0 -2.4375,-0.4375 -1.14063,-0.4375 -2.01563,-1.29688 -0.85937,-0.85937 -1.35937,-2.15625 -0.5,-1.29687 -0.5,-2.98437 z m 1.9375,0 q 0,1.20312 0.29687,2.1875 0.29688,0.96875 0.85938,1.65625 0.5625,0.67187 1.375,1.04687 0.8125,0.375 1.8125,0.375 1,0 1.79687,-0.375 0.8125,-0.375 1.35938,-1.04687 0.5625,-0.6875 0.85937,-1.65625 0.3125,-0.98438 0.3125,-2.1875 0,-1.20313 -0.3125,-2.17188 -0.29687,-0.98437 -0.85937,-1.65625 -0.54688,-0.6875 -1.35938,-1.0625 -0.79687,-0.375 -1.79687,-0.375 -1,0 -1.8125,0.375 -0.8125,0.375 -1.375,1.0625 -0.5625,0.67188 -0.85938,1.65625 -0.29687,0.96875 -0.29687,2.17188 z m 17.99896,6.875 q -1.28125,0 -2.23437,-0.39063 -0.95313,-0.40625 -1.5625,-1.09375 -0.60938,-0.70312 -0.90625,-1.64062 -0.29688,-0.95313 -0.29688,-2.0625 l 0,-8.26563 1.84375,0 0,8.0625 q 0,1.96875 0.875,2.875 0.875,0.89063 2.28125,0.89063 0.70313,0 1.28125,-0.21875 0.57813,-0.21875 1,-0.67188 0.42188,-0.46875 0.64063,-1.17187 0.23437,-0.71875 0.23437,-1.70313 l 0,-8.0625 1.84375,0 0,8.26563 q 0,1.10937 -0.29687,2.0625 -0.29688,0.9375 -0.92188,1.64062 -0.60937,0.6875 -1.54687,1.09375 -0.9375,0.39063 -2.23438,0.39063 z m 16.74176,-13.45313 0,1.59375 -4.15625,0 0,11.57813 -1.82812,0 0,-11.57813 -4.15625,0 0,-1.59375 10.14062,0 z"
       id="path57"
       inkscape:connector-curvature="0"
       style="fill:#000000;fill-rule:nonzero;stroke:none;stroke-linecap:square;stroke-miterlimit:10" />
    <text
       xml:space="preserve"
       style="font-style:normal;font-weight:normal;font-size:18.75px;line-height:393.00000668%;font-family:Sans;letter-spacing:0px;word-spacing:0px;fill:#000000;fill-opacity:1;stroke:none;stroke-width:1px;stroke-linecap:butt;stroke-linejoin:miter;stroke-opacity:1"
       x="261.19376"
       y="298.48083"
       id="text4157"
       sodipodi:linespacing="393.00001%"><tspan
         sodipodi:role="line"
         id="tspan4159"
         x="261.19376"
         y="298.48083"
         style="font-style:normal;font-variant:normal;font-weight:normal;font-stretch:normal;font-family:Ubuntu;-inkscape-font-specification:Ubuntu">In ? n</tspan></text>
    <text
       xml:space="preserve"
       style="font-style:normal;font-weight:normal;font-size:18.75px;line-height:393.00000668%;font-family:Sans;letter-spacing:0px;word-spacing:0px;fill:#000000;fill-opacity:1;stroke:none;stroke-width:1px;stroke-linecap:butt;stroke-linejoin:miter;stroke-opacity:1"
       x="382.61688"
       y="401.74496"
       id="text4157-3"
       sodipodi:linespacing="393.00001%"><tspan
         sodipodi:role="line"
         id="tspan4159-6"
         x="382.61688"
         y="401.74496"
         style="font-style:normal;font-variant:normal;font-weight:normal;font-stretch:normal;font-size:16.25px;font-family:Ubuntu;-inkscape-font-specification:Ubuntu">ta = 0</tspan></text>
  </g>
</svg>
