<?xml version="1.0" encoding="UTF-8" standalone="no"?>
<!-- Created with Inkscape (http://www.inkscape.org/) -->

<svg
   xmlns:dc="http://purl.org/dc/elements/1.1/"
   xmlns:cc="http://creativecommons.org/ns#"
   xmlns:rdf="http://www.w3.org/1999/02/22-rdf-syntax-ns#"
   xmlns:svg="http://www.w3.org/2000/svg"
   xmlns="http://www.w3.org/2000/svg"
   xmlns:sodipodi="http://sodipodi.sourceforge.net/DTD/sodipodi-0.dtd"
   xmlns:inkscape="http://www.inkscape.org/namespaces/inkscape"
   width="210mm"
   height="297mm"
   viewBox="0 0 744.09448819 1052.3622047"
   id="svg4202"
   version="1.1"
   inkscape:version="0.91 r13725"
   sodipodi:docname="figura2.svg">
  <defs
     id="defs4204" />
  <sodipodi:namedview
     id="base"
     pagecolor="#ffffff"
     bordercolor="#666666"
     borderopacity="1.0"
     inkscape:pageopacity="0.0"
     inkscape:pageshadow="2"
     inkscape:zoom="1.3042969"
     inkscape:cx="231.24438"
     inkscape:cy="489.33214"
     inkscape:document-units="px"
     inkscape:current-layer="layer1"
     showgrid="true"
     inkscape:window-width="1855"
     inkscape:window-height="1056"
     inkscape:window-x="65"
     inkscape:window-y="24"
     inkscape:window-maximized="1">
    <inkscape:grid
       type="xygrid"
       id="grid4979" />
  </sodipodi:namedview>
  <metadata
     id="metadata4207">
    <rdf:RDF>
      <cc:Work
         rdf:about="">
        <dc:format>image/svg+xml</dc:format>
        <dc:type
           rdf:resource="http://purl.org/dc/dcmitype/StillImage" />
        <dc:title></dc:title>
      </cc:Work>
    </rdf:RDF>
  </metadata>
  <g
     inkscape:label="Capa 1"
     inkscape:groupmode="layer"
     id="layer1">
    <path
       d="m 176.98577,320.8778 358.99213,0 0,220 -358.99213,0 z"
       id="path11"
       inkscape:connector-curvature="0"
       style="fill:#000000;fill-opacity:0;fill-rule:evenodd;stroke:none;stroke-linecap:square;stroke-miterlimit:10" />
    <path
       d="m 176.98577,320.8778 358.99213,0 0,220 -358.99213,0 z"
       id="path13"
       inkscape:connector-curvature="0"
       style="fill:none;fill-rule:evenodd;stroke:#000000;stroke-width:2;stroke-linecap:butt;stroke-linejoin:round;stroke-miterlimit:10" />
    <path
       d="m 473.82847,528.07903 q -1.39063,0 -2.53125,-0.45313 -1.14063,-0.45312 -1.95313,-1.32812 -0.8125,-0.875 -1.26562,-2.15625 -0.4375,-1.28125 -0.4375,-2.9375 0,-1.65625 0.5,-2.9375 0.5,-1.28125 1.34375,-2.15625 0.85937,-0.875 2,-1.32813 1.14062,-0.45312 2.4375,-0.45312 0.8125,0 1.46875,0.10937 0.65625,0.10938 1.14062,0.26563 0.48438,0.15625 0.78125,0.3125 0.3125,0.14062 0.42188,0.21875 l -0.53125,1.53125 q -0.17188,-0.125 -0.5,-0.25 -0.3125,-0.14063 -0.71875,-0.26563 -0.40625,-0.14062 -0.89063,-0.21875 -0.48437,-0.0937 -0.98437,-0.0937 -1.04688,0 -1.89063,0.35938 -0.82812,0.35937 -1.42187,1.04687 -0.57813,0.6875 -0.89063,1.67188 -0.3125,0.96875 -0.3125,2.1875 0,1.17187 0.26563,2.14062 0.28125,0.96875 0.82812,1.67188 0.5625,0.6875 1.375,1.07812 0.82813,0.375 1.9375,0.375 1.26563,0 2.09375,-0.26562 0.84375,-0.26563 1.26563,-0.48438 l 0.48437,1.53125 q -0.14062,0.0937 -0.48437,0.23438 -0.34375,0.14062 -0.85938,0.28125 -0.5,0.125 -1.1875,0.21875 -0.6875,0.0937 -1.48437,0.0937 z m 8.75439,-0.0937 q -1.64062,-0.0312 -2.32812,-0.6875 -0.67188,-0.67188 -0.67188,-2.07813 l 0,-11.85937 1.76563,-0.3125 0,11.875 q 0,0.4375 0.0781,0.73437 0.0781,0.28125 0.25,0.45313 0.17188,0.17187 0.45313,0.26562 0.28125,0.0781 0.70312,0.125 l -0.25,1.48438 z m 3.89002,-0.1875 -1.76563,0 0,-9.875 1.76563,0 0,9.875 z m -0.89063,-11.67188 q -0.46875,0 -0.8125,-0.3125 -0.32812,-0.3125 -0.32812,-0.84375 0,-0.53125 0.32812,-0.84375 0.34375,-0.3125 0.8125,-0.3125 0.48438,0 0.8125,0.3125 0.32813,0.3125 0.32813,0.84375 0,0.53125 -0.32813,0.84375 -0.32812,0.3125 -0.8125,0.3125 z m 3.29816,6.75 q 0,-1.3125 0.375,-2.28125 0.39063,-0.98437 1.01563,-1.625 0.625,-0.65625 1.4375,-0.96875 0.8125,-0.32812 1.67187,-0.32812 2,0 3.0625,1.25 1.0625,1.23437 1.0625,3.78125 0,0.10937 0,0.29687 0,0.1875 -0.0156,0.32813 l -6.76563,0 q 0.10938,1.54687 0.89063,2.34375 0.78125,0.79687 2.4375,0.79687 0.92187,0 1.5625,-0.15625 0.64062,-0.17187 0.95312,-0.32812 l 0.25,1.48437 q -0.3125,0.17188 -1.125,0.35938 -0.8125,0.20312 -1.82812,0.20312 -1.29688,0 -2.23438,-0.39062 -0.9375,-0.39063 -1.54687,-1.07813 -0.60938,-0.6875 -0.90625,-1.625 -0.29688,-0.9375 -0.29688,-2.0625 z m 6.78125,-0.96875 q 0.0156,-1.20312 -0.60937,-1.96875 -0.60938,-0.76562 -1.6875,-0.76562 -0.60938,0 -1.07813,0.23437 -0.46875,0.23438 -0.79687,0.625 -0.3125,0.375 -0.5,0.875 -0.17188,0.48438 -0.23438,1 l 4.90625,0 z m 4.19446,-3.70312 q 0.60937,-0.15625 1.60937,-0.32813 1.01563,-0.17187 2.32813,-0.17187 1.17187,0 1.95312,0.34375 0.78125,0.32812 1.25,0.92187 0.46875,0.59375 0.65625,1.4375 0.1875,0.82813 0.1875,1.84375 l 0,5.54688 -1.76562,0 0,-5.17188 q 0,-0.90625 -0.125,-1.54687 -0.125,-0.65625 -0.40625,-1.04688 -0.28125,-0.40625 -0.76563,-0.57812 -0.46875,-0.1875 -1.17187,-0.1875 -0.28125,0 -0.59375,0.0156 -0.29688,0.0156 -0.57813,0.0469 -0.28125,0.0312 -0.5,0.0781 -0.21875,0.0312 -0.3125,0.0469 l 0,8.34375 -1.76562,0 0,-9.59375 z m 12.36499,-0.28125 3.75,0 0,1.48437 -3.75,0 0,4.54688 q 0,0.75 0.10937,1.23437 0.125,0.48438 0.34375,0.76563 0.23438,0.26562 0.57813,0.39062 0.34375,0.10938 0.79687,0.10938 0.79688,0 1.28125,-0.17188 0.48438,-0.1875 0.67188,-0.26562 l 0.34375,1.45312 q -0.26563,0.14063 -0.9375,0.32813 -0.65625,0.20312 -1.51563,0.20312 -1,0 -1.65625,-0.25 -0.65625,-0.25 -1.0625,-0.76562 -0.39062,-0.51563 -0.5625,-1.26563 -0.15625,-0.75 -0.15625,-1.73437 l 0,-8.82813 1.76563,-0.29687 0,3.0625 z m 5.29663,4.95312 q 0,-1.3125 0.375,-2.28125 0.39063,-0.98437 1.01563,-1.625 0.625,-0.65625 1.4375,-0.96875 0.8125,-0.32812 1.67187,-0.32812 2,0 3.0625,1.25 1.0625,1.23437 1.0625,3.78125 0,0.10937 0,0.29687 0,0.1875 -0.0156,0.32813 l -6.76563,0 q 0.10938,1.54687 0.89063,2.34375 0.78125,0.79687 2.4375,0.79687 0.92187,0 1.5625,-0.15625 0.64062,-0.17187 0.95312,-0.32812 l 0.25,1.48437 q -0.3125,0.17188 -1.125,0.35938 -0.8125,0.20312 -1.82812,0.20312 -1.29688,0 -2.23438,-0.39062 -0.9375,-0.39063 -1.54687,-1.07813 -0.60938,-0.6875 -0.90625,-1.625 -0.29688,-0.9375 -0.29688,-2.0625 z m 6.78125,-0.96875 q 0.0156,-1.20312 -0.60937,-1.96875 -0.60938,-0.76562 -1.6875,-0.76562 -0.60938,0 -1.07813,0.23437 -0.46875,0.23438 -0.79687,0.625 -0.3125,0.375 -0.5,0.875 -0.17188,0.48438 -0.23438,1 l 4.90625,0 z"
       id="path15"
       inkscape:connector-curvature="0"
       style="fill:#000000;fill-rule:nonzero;stroke:none;stroke-linecap:square;stroke-miterlimit:10" />
    <path
       d="m 373.26925,429.88567 0,0 c 0,-28.17087 24.04971,-51.00787 53.71652,-51.00787 l 0,0 c 14.24652,0 27.90952,5.37402 37.98334,14.93986 10.07379,9.56583 15.73318,22.53989 15.73318,36.06801 l 0,0 c 0,28.17087 -24.04971,51.00788 -53.71652,51.00788 l 0,0 c -29.66681,0 -53.71652,-22.83701 -53.71652,-51.00788 z"
       id="path17"
       inkscape:connector-curvature="0"
       style="fill:#cfe2f3;fill-rule:evenodd;stroke:none;stroke-linecap:square;stroke-miterlimit:10" />
    <path
       d="m 373.26925,429.88567 0,0 c 0,-28.17087 24.04971,-51.00787 53.71652,-51.00787 l 0,0 c 14.24652,0 27.90952,5.37402 37.98334,14.93986 10.07379,9.56583 15.73318,22.53989 15.73318,36.06801 l 0,0 c 0,28.17087 -24.04971,51.00788 -53.71652,51.00788 l 0,0 c -29.66681,0 -53.71652,-22.83701 -53.71652,-51.00788 z"
       id="path19"
       inkscape:connector-curvature="0"
       style="fill:none;fill-rule:evenodd;stroke:#000000;stroke-width:1;stroke-linecap:butt;stroke-linejoin:round;stroke-miterlimit:10" />
    <path
       d="m 408.31493,436.8057 q -0.26563,-0.78125 -0.54688,-1.53125 -0.28125,-0.76562 -0.54687,-1.5625 l -5.54688,0 q -0.26562,0.79688 -0.54687,1.5625 -0.28125,0.76563 -0.54688,1.53125 l -2.48437,0 q 0.75,-2.10937 1.40625,-3.89062 0.67187,-1.7969 1.29687,-3.39065 0.64063,-1.59375 1.26563,-3.03125 0.625,-1.45312 1.29687,-2.85937 l 2.26563,0 q 0.65625,1.40625 1.28125,2.85937 0.625,1.4375 1.26562,3.03125 0.64063,1.59375 1.3125,3.39065 0.67188,1.78125 1.42188,3.89062 l -2.59375,0 z m -3.875,-10.62501 q -0.4375,1.01562 -1,2.46875 -0.54688,1.4375 -1.15625,3.125 l 4.32812,0 q -0.60937,-1.6875 -1.1875,-3.15625 -0.5625,-1.46875 -0.98437,-2.4375 z m 7.22964,5.67187 q 0,-1.10937 0.34375,-2.0625 0.34375,-0.96875 0.98438,-1.67187 0.64062,-0.70313 1.54687,-1.09375 0.90625,-0.40625 2.04688,-0.40625 1.40625,0 2.67187,0.51562 l -0.5,1.875 q -0.40625,-0.17187 -0.90625,-0.28125 -0.5,-0.10937 -1.07812,-0.10937 -1.34375,0 -2.04688,0.84375 -0.70312,0.84375 -0.70312,2.39062 0,1.46877 0.65625,2.34377 0.67187,0.85937 2.25,0.85937 0.59375,0 1.15625,-0.10937 0.57812,-0.10938 1,-0.28125 l 0.3125,1.89062 q -0.375,0.1875 -1.15625,0.34375 -0.76563,0.15625 -1.57813,0.15625 -1.26562,0 -2.21875,-0.39062 -0.9375,-0.39063 -1.5625,-1.07813 -0.60937,-0.70312 -0.92187,-1.65625 -0.29688,-0.96875 -0.29688,-2.07814 z m 9.24326,-7.60937 2.29688,-0.375 0,3 3.54687,0 0,1.92187 -3.54687,0 0,4.04689 q 0,1.1875 0.375,1.70313 0.39062,0.51562 1.29687,0.51562 0.64063,0 1.125,-0.125 0.48438,-0.14062 0.76563,-0.25 l 0.375,1.82813 q -0.39063,0.15625 -1.04688,0.34375 -0.64062,0.1875 -1.51562,0.1875 -1.0625,0 -1.78125,-0.28125 -0.70313,-0.29688 -1.125,-0.82813 -0.42188,-0.54687 -0.59375,-1.3125 -0.17188,-0.78125 -0.17188,-1.76562 l 0,-8.60939 z m 10.23581,12.56251 -2.29688,0 0,-9.93751 2.29688,0 0,9.93751 z m 0.25,-12.84376 q 0,0.64062 -0.42188,1.03125 -0.42187,0.375 -0.98437,0.375 -0.59375,0 -1.01563,-0.375 -0.40625,-0.39063 -0.40625,-1.03125 0,-0.67188 0.40625,-1.04688 0.42188,-0.375 1.01563,-0.375 0.5625,0 0.98437,0.375 0.42188,0.375 0.42188,1.04688 z m 5.13348,12.84376 q -0.95312,-1.95312 -1.95312,-4.48437 -1,-2.5469 -1.8125,-5.45315 l 2.45312,0 q 0.20313,0.84375 0.46875,1.79688 0.28125,0.95312 0.59375,1.92187 0.3125,0.95313 0.64063,1.8594 0.34375,0.90625 0.625,1.625 0.28125,-0.71875 0.60937,-1.625 0.32813,-0.90627 0.64063,-1.8594 0.3125,-0.96875 0.59375,-1.92187 0.28125,-0.95313 0.5,-1.79688 l 2.375,0 q -0.8125,2.90625 -1.8125,5.45315 -1,2.53125 -1.95313,4.48437 l -1.96875,0 z m 16.25071,-4.98439 q 0,1.18752 -0.34375,2.15627 -0.34375,0.96875 -0.96875,1.65625 -0.625,0.67187 -1.51563,1.0625 -0.875,0.375 -1.9375,0.375 -1.07812,0 -1.95312,-0.375 -0.85938,-0.39063 -1.5,-1.0625 -0.625,-0.6875 -0.98438,-1.65625 -0.34375,-0.96875 -0.34375,-2.15627 0,-1.17188 0.34375,-2.125 0.35938,-0.96875 1,-1.64063 0.64063,-0.6875 1.51563,-1.0625 0.875,-0.375 1.92187,-0.375 1.03125,0 1.92188,0.375 0.89062,0.375 1.51562,1.0625 0.625,0.67188 0.96875,1.64063 0.35938,0.95312 0.35938,2.125 z m -2.35938,0 q 0,-1.46875 -0.64062,-2.32813 -0.625,-0.875 -1.76563,-0.875 -1.14062,0 -1.78125,0.875 -0.64062,0.85938 -0.64062,2.32813 0,1.50002 0.64062,2.37502 0.64063,0.875 1.78125,0.875 1.14063,0 1.76563,-0.875 0.64062,-0.875 0.64062,-2.37502 z"
       id="path21"
       inkscape:connector-curvature="0"
       style="fill:#000000;fill-rule:nonzero;stroke:none;stroke-linecap:square;stroke-miterlimit:10" />
    <path
       d="m 426.98577,378.8778 c 0,-12.49999 -24.42801,-32.28682 -48.85828,-24.99999 -24.43023,7.28685 -48.86276,41.64736 -48.85824,76.00786 0.004,34.36051 24.44598,68.72101 48.88974,76.00784 24.44375,7.28684 48.88977,-12.49996 48.88977,-24.99997"
       id="path23"
       inkscape:connector-curvature="0"
       style="fill:#000000;fill-opacity:0;fill-rule:evenodd;stroke:none;stroke-linecap:square;stroke-miterlimit:10" />
    <path
       d="m 422.16631,367.88813 -0.16049,-0.19621 c -0.0901,-0.10872 -0.18128,-0.21732 -0.27353,-0.32575 -0.36902,-0.43379 -0.75519,-0.86523 -1.15775,-1.29332 -0.80514,-0.85618 -1.67587,-1.69886 -2.60629,-2.5197 -1.86078,-1.64164 -3.96008,-3.19581 -6.25027,-4.59539 -9.16077,-5.59835 -21.37534,-8.72335 -33.59049,-5.07995 -24.43024,7.28685 -48.86276,41.64736 -48.85824,76.00786 0.004,34.36051 24.44598,68.72101 48.88974,76.00784 24.44378,7.28687 48.88977,-12.5 48.88977,-24.99997"
       id="path25"
       inkscape:connector-curvature="0"
       style="fill:none;fill-rule:evenodd;stroke:#000000;stroke-width:2;stroke-linecap:butt;stroke-linejoin:round;stroke-miterlimit:10;stroke-dasharray:8, 6" />
    <path
       d="m 419.14097,369.21488 6.67053,6.98528 -0.61987,-9.63877 z"
       id="path27"
       inkscape:connector-curvature="0"
       style="fill:#000000;fill-rule:evenodd;stroke:#000000;stroke-width:2;stroke-linecap:butt;stroke-miterlimit:10" />
    <path
       d="m 197.26923,400.8778 126.99214,0 0,58.01575 -126.99214,0 z"
       id="path29"
       inkscape:connector-curvature="0"
       style="fill:#000000;fill-opacity:0;fill-rule:evenodd;stroke:none;stroke-linecap:square;stroke-miterlimit:10" />
    <path
       d="m 234.49727,427.7978 0,-13.17188 8.03125,0 0,1.57813 -6.1875,0 0,3.92187 5.5,0 0,1.53125 -5.5,0 0,4.5625 6.65625,0 0,1.57813 -8.5,0 z m 8.93399,2.01562 9.5,0 0,1.5 -9.5,0 0,-1.5 z m 10.36636,-8.60937 q 0,-1.6875 0.5,-2.98438 0.5,-1.29687 1.35938,-2.15625 0.875,-0.85937 2.01562,-1.29687 1.15625,-0.4375 2.4375,-0.4375 1.28125,0 2.40625,0.4375 1.14063,0.4375 1.98438,1.29687 0.85937,0.85938 1.35937,2.15625 0.51563,1.29688 0.51563,2.98438 0,1.6875 -0.51563,2.98437 -0.5,1.29688 -1.35937,2.15625 -0.84375,0.85938 -1.98438,1.29688 -1.125,0.4375 -2.40625,0.4375 -1.28125,0 -2.4375,-0.4375 -1.14062,-0.4375 -2.01562,-1.29688 -0.85938,-0.85937 -1.35938,-2.15625 -0.5,-1.29687 -0.5,-2.98437 z m 1.9375,0 q 0,1.20312 0.29688,2.1875 0.29687,0.96875 0.85937,1.65625 0.5625,0.67187 1.375,1.04687 0.8125,0.375 1.8125,0.375 1,0 1.79688,-0.375 0.8125,-0.375 1.35937,-1.04687 0.5625,-0.6875 0.85938,-1.65625 0.3125,-0.98438 0.3125,-2.1875 0,-1.20313 -0.3125,-2.17188 -0.29688,-0.98437 -0.85938,-1.65625 -0.54687,-0.6875 -1.35937,-1.0625 -0.79688,-0.375 -1.79688,-0.375 -1,0 -1.8125,0.375 -0.8125,0.375 -1.375,1.0625 -0.5625,0.67188 -0.85937,1.65625 -0.29688,0.96875 -0.29688,2.17188 z m 20.85834,6.3125 q -0.60937,0.14062 -1.60937,0.3125 -1,0.17187 -2.3125,0.17187 -1.14063,0 -1.92188,-0.32812 -0.76562,-0.32813 -1.25,-0.9375 -0.46875,-0.60938 -0.6875,-1.4375 -0.20312,-0.82813 -0.20312,-1.82813 l 0,-5.54687 1.76562,0 0,5.15625 q 0,1.8125 0.5625,2.59375 0.57813,0.78125 1.92188,0.78125 0.29687,0 0.59375,-0.0156 0.3125,-0.0312 0.57812,-0.0469 0.26563,-0.0312 0.48438,-0.0625 0.21875,-0.0312 0.3125,-0.0625 l 0,-8.34375 1.76562,0 0,9.59375 z m 4.48993,-9.59375 3.75,0 0,1.48437 -3.75,0 0,4.54688 q 0,0.75 0.10938,1.23437 0.125,0.48438 0.34375,0.76563 0.23437,0.26562 0.57812,0.39062 0.34375,0.10938 0.79688,0.10938 0.79687,0 1.28125,-0.17188 0.48437,-0.1875 0.67187,-0.26562 l 0.34375,1.45312 q -0.26562,0.14063 -0.9375,0.32813 -0.65625,0.20312 -1.51562,0.20312 -1,0 -1.65625,-0.25 -0.65625,-0.25 -1.0625,-0.76562 -0.39063,-0.51563 -0.5625,-1.26563 -0.15625,-0.75 -0.15625,-1.73437 l 0,-8.82813 1.76562,-0.29687 0,3.0625 z m 9.63754,5.46875 8.70313,0 0,1.5 -8.70313,0 0,-1.5 z m 0,-4.04688 8.70313,0 0,1.5 -8.70313,0 0,-1.5 z m 15.34735,-1.14062 q 0.60938,-0.15625 1.60938,-0.32813 1.01562,-0.17187 2.32812,-0.17187 1.17188,0 1.95313,0.34375 0.78125,0.32812 1.25,0.92187 0.46875,0.59375 0.65625,1.4375 0.1875,0.82813 0.1875,1.84375 l 0,5.54688 -1.76563,0 0,-5.17188 q 0,-0.90625 -0.125,-1.54687 -0.125,-0.65625 -0.40625,-1.04688 -0.28125,-0.40625 -0.76562,-0.57812 -0.46875,-0.1875 -1.17188,-0.1875 -0.28125,0 -0.59375,0.0156 -0.29687,0.0156 -0.57812,0.0469 -0.28125,0.0312 -0.5,0.0781 -0.21875,0.0312 -0.3125,0.0469 l 0,8.34375 -1.76563,0 0,-9.59375 z"
       id="path31"
       inkscape:connector-curvature="0"
       style="fill:#000000;fill-rule:nonzero;stroke:none;stroke-linecap:square;stroke-miterlimit:10" />
    <path
       d="m 220.92312,440.20403 q 0.60937,-0.15625 1.60937,-0.32813 1.01563,-0.17187 2.32813,-0.17187 1.17187,0 1.95312,0.34375 0.78125,0.32812 1.25,0.92187 0.46875,0.59375 0.65625,1.4375 0.1875,0.82813 0.1875,1.84375 l 0,5.54688 -1.76562,0 0,-5.17188 q 0,-0.90625 -0.125,-1.54687 -0.125,-0.65625 -0.40625,-1.04688 -0.28125,-0.40625 -0.76563,-0.57812 -0.46875,-0.1875 -1.17187,-0.1875 -0.28125,0 -0.59375,0.0156 -0.29688,0.0156 -0.57813,0.0469 -0.28125,0.0312 -0.5,0.0781 -0.21875,0.0312 -0.3125,0.0469 l 0,8.34375 -1.76562,0 0,-9.59375 z"
       id="path33"
       inkscape:connector-curvature="0"
       style="fill:#000000;fill-rule:nonzero;stroke:none;stroke-linecap:square;stroke-miterlimit:10" />
    <path
       d="m 242.08205,449.79778 -2.59375,0 q -2.26563,0 -3.35938,-1.40625 -0.98437,-1.25 -0.95312,-3.51563 0.0156,-2.25 1.09375,-3.53125 1.15625,-1.40625 3.375,-1.40625 l 2.4375,0 0,1.4375 -2.5,0 q -1.20313,0 -1.92188,0.78125 -0.64062,0.70313 -0.78125,1.90625 l 3.48438,0 0,1.375 -3.48438,0 q 0.29688,2.92188 2.70313,2.92188 l 2.5,0 0,1.4375 z"
       id="path35"
       inkscape:connector-curvature="0"
       style="fill:#000000;fill-rule:nonzero;stroke:none;stroke-linecap:square;stroke-miterlimit:10" />
    <path
       d="m 247.74511,443.4384 q 0.45312,0 0.76562,-0.15625 0.32813,-0.17187 0.54688,-0.42187 0.21875,-0.26563 0.32812,-0.59375 0.10938,-0.32813 0.10938,-0.67188 l 0,-3.42187 q 0,-0.78125 0.15625,-1.39063 0.17187,-0.60937 0.59375,-1.01562 0.42187,-0.40625 1.10937,-0.625 0.70313,-0.21875 1.71875,-0.21875 l 0.0781,0 0,1.39062 q -1.07813,0 -1.54688,0.39063 -0.46875,0.375 -0.46875,1.48437 l 0,2.92188 q 0,1.26562 -0.32812,1.95312 -0.32813,0.67188 -0.9375,1.04688 0.60937,0.39062 0.9375,1.07812 0.32812,0.67188 0.32812,1.9375 l 0,2.92188 q 0,1.09375 0.46875,1.48437 0.46875,0.39063 1.54688,0.39063 l 0,1.39062 -0.0781,0 q -1.01562,0 -1.71875,-0.21875 -0.6875,-0.20312 -1.10937,-0.625 -0.42188,-0.40625 -0.59375,-1.01562 -0.15625,-0.60938 -0.15625,-1.39063 l 0,-3.42187 q 0,-0.34375 -0.10938,-0.67188 -0.10937,-0.32812 -0.32812,-0.57812 -0.21875,-0.26563 -0.54688,-0.42188 -0.3125,-0.17187 -0.76562,-0.17187 l 0,-1.35938 z m 7.21256,-4.09375 q 1.07812,-0.42187 2.10937,-1.0625 1.03125,-0.65625 1.875,-1.65625 l 1.26563,0 0,13.17188 -1.76563,0 0,-10.71875 q -0.23437,0.21875 -0.57812,0.45312 -0.32813,0.21875 -0.71875,0.42188 -0.375,0.20312 -0.8125,0.40625 -0.42188,0.1875 -0.82813,0.3125 l -0.54687,-1.32813 z m 12.1315,8.28125 q 0.0312,0.15625 0.0312,0.29688 0,0.14062 0,0.29687 0,1.20313 -0.35938,2.35938 -0.34375,1.17187 -0.95312,2.23437 l -1.375,-0.4375 q 0.48437,-0.96875 0.625,-1.96875 0.15625,-0.98437 0.15625,-1.85937 0,-0.25 -0.0156,-0.46875 0,-0.23438 -0.0156,-0.45313 l 1.90625,0 z m 10.08941,-7.625 q 0,0.67188 -0.28125,1.3125 -0.26562,0.64063 -0.73437,1.26563 -0.45313,0.60937 -1.03125,1.20312 -0.5625,0.59375 -1.125,1.17188 -0.32813,0.32812 -0.76563,0.76562 -0.42187,0.4375 -0.79687,0.90625 -0.375,0.46875 -0.64063,0.90625 -0.25,0.4375 -0.25,0.76563 l 6.0625,0 0,1.5 -7.98437,0 q -0.0156,-0.10938 -0.0156,-0.21875 0,-0.125 0,-0.21875 0,-0.89063 0.29688,-1.65625 0.29687,-0.78125 0.76562,-1.45313 0.46875,-0.6875 1.0625,-1.29687 0.59375,-0.60938 1.15625,-1.17188 0.48438,-0.46875 0.90625,-0.90625 0.42188,-0.45312 0.75,-0.89062 0.34375,-0.45313 0.53125,-0.92188 0.20313,-0.48437 0.20313,-1.01562 0,-0.5625 -0.1875,-0.95313 -0.17188,-0.40625 -0.48438,-0.67187 -0.29687,-0.26563 -0.70312,-0.39063 -0.40625,-0.125 -0.85938,-0.125 -0.54687,0 -1.01562,0.15625 -0.45313,0.14063 -0.8125,0.34375 -0.35938,0.20313 -0.60938,0.42188 -0.23437,0.21875 -0.375,0.32812 l -0.875,-1.25 q 0.17188,-0.1875 0.51563,-0.46875 0.34375,-0.28125 0.8125,-0.51562 0.48437,-0.25 1.0625,-0.42188 0.59375,-0.17187 1.28125,-0.17187 2.0625,0 3.09375,0.96875 1.04687,0.95312 1.04687,2.70312 z m 5.02213,7.625 q 0.0312,0.15625 0.0312,0.29688 0,0.14062 0,0.29687 0,1.20313 -0.35938,2.35938 -0.34375,1.17187 -0.95312,2.23437 l -1.375,-0.4375 q 0.48437,-0.96875 0.625,-1.96875 0.15625,-0.98437 0.15625,-1.85937 0,-0.25 -0.0156,-0.46875 0,-0.23438 -0.0156,-0.45313 l 1.90625,0 z m 5.51132,0.875 q 1.6875,0 2.42187,-0.65625 0.73438,-0.67187 0.73438,-1.79687 0,-0.71875 -0.3125,-1.20313 -0.29688,-0.5 -0.79688,-0.79687 -0.48437,-0.29688 -1.14062,-0.40625 -0.65625,-0.125 -1.34375,-0.125 l -0.45313,0 0,-1.45313 0.625,0 q 0.46875,0 0.96875,-0.0937 0.51563,-0.0937 0.92188,-0.34375 0.42187,-0.25 0.6875,-0.67187 0.26562,-0.42188 0.26562,-1.07813 0,-0.53125 -0.1875,-0.90625 -0.1875,-0.375 -0.5,-0.625 -0.3125,-0.25 -0.73437,-0.34375 -0.40625,-0.10937 -0.85938,-0.10937 -0.90625,0 -1.54687,0.26562 -0.64063,0.26563 -1.07813,0.54688 l -0.67187,-1.34375 q 0.21875,-0.15625 0.5625,-0.32813 0.35937,-0.1875 0.79687,-0.34375 0.4375,-0.15625 0.9375,-0.25 0.51563,-0.10937 1.0625,-0.10937 1.04688,0 1.79688,0.26562 0.76562,0.25 1.25,0.71875 0.5,0.45313 0.75,1.09375 0.25,0.64063 0.25,1.375 0,1.03125 -0.59375,1.76563 -0.57813,0.71875 -1.42188,1.10937 0.51563,0.15625 0.98438,0.4375 0.48437,0.28125 0.82812,0.71875 0.35938,0.4375 0.57813,1.01563 0.21875,0.5625 0.21875,1.26562 0,0.85938 -0.29688,1.59375 -0.29687,0.71875 -0.92187,1.25 -0.60938,0.53125 -1.54688,0.84375 -0.92187,0.29688 -2.20312,0.29688 -0.48438,0 -1.01563,-0.0781 -0.51562,-0.0625 -0.98437,-0.1875 -0.45313,-0.10937 -0.79688,-0.21875 -0.32812,-0.125 -0.48437,-0.20312 l 0.34375,-1.53125 q 0.3125,0.15625 1.0625,0.40625 0.76562,0.23437 1.84375,0.23437 z m 9.60025,-0.875 q 0.0312,0.15625 0.0312,0.29688 0,0.14062 0,0.29687 0,1.20313 -0.35938,2.35938 -0.34375,1.17187 -0.95312,2.23437 l -1.375,-0.4375 q 0.48437,-0.96875 0.625,-1.96875 0.15625,-0.98437 0.15625,-1.85937 0,-0.25 -0.0156,-0.46875 0,-0.23438 -0.0156,-0.45313 l 1.90625,0 z m 1.98004,-2.39062 q 0.35938,-0.82813 0.98438,-1.9375 0.625,-1.125 1.40625,-2.29688 0.79687,-1.17187 1.6875,-2.3125 0.90625,-1.14062 1.82812,-2.0625 l 1.6875,0 0,8.35938 1.5625,0 0,1.45312 -1.5625,0 0,3.35938 -1.70312,0 0,-3.35938 -5.89063,0 0,-1.20312 z m 5.89063,-6.51563 q -0.57813,0.60938 -1.15625,1.35938 -0.57813,0.75 -1.14063,1.57812 -0.54687,0.8125 -1.03125,1.67188 -0.48437,0.84375 -0.85937,1.65625 l 4.1875,0 0,-6.26563 z m 9.42837,6.07813 q -0.45312,0 -0.78125,0.17187 -0.3125,0.15625 -0.53125,0.42188 -0.21875,0.25 -0.32812,0.57812 -0.10938,0.32813 -0.10938,0.67188 l 0,3.42187 q 0,0.78125 -0.17187,1.39063 -0.15625,0.60937 -0.57813,1.01562 -0.42187,0.42188 -1.125,0.625 -0.6875,0.21875 -1.70312,0.21875 l -0.0781,0 0,-1.39062 q 1.07813,0 1.54688,-0.39063 0.46875,-0.39062 0.46875,-1.48437 l 0,-2.92188 q 0,-1.26562 0.32812,-1.9375 0.32813,-0.6875 0.9375,-1.07812 -0.60937,-0.375 -0.9375,-1.04688 -0.32812,-0.6875 -0.32812,-1.95312 l 0,-2.92188 q 0,-1.10937 -0.46875,-1.48437 -0.46875,-0.39063 -1.54688,-0.39063 l 0,-1.39062 0.0781,0 q 1.01562,0 1.70312,0.21875 0.70313,0.21875 1.125,0.625 0.42188,0.40625 0.57813,1.01562 0.17187,0.60938 0.17187,1.39063 l 0,3.42187 q 0,0.34375 0.10938,0.67188 0.10937,0.32812 0.32812,0.59375 0.21875,0.25 0.53125,0.42187 0.32813,0.15625 0.78125,0.15625 l 0,1.35938 z"
       id="path37"
       inkscape:connector-curvature="0"
       style="fill:#000000;fill-rule:nonzero;stroke:none;stroke-linecap:square;stroke-miterlimit:10" />
    <path
       d="m 137.98577,469.8778 77.00787,0 0,30.01575 -77.00787,0 z"
       id="path39"
       inkscape:connector-curvature="0"
       style="fill:#6d9eeb;fill-rule:evenodd;stroke:none;stroke-linecap:square;stroke-miterlimit:10" />
    <path
       d="m 137.98577,469.8778 77.00787,0 0,30.01575 -77.00787,0 z"
       id="path41"
       inkscape:connector-curvature="0"
       style="fill:none;fill-rule:evenodd;stroke:#000000;stroke-width:2;stroke-linecap:butt;stroke-linejoin:round;stroke-miterlimit:10" />
    <path
       d="m 149.2691,491.80566 0,-13.17188 8.03125,0 0,1.57813 -6.1875,0 0,3.92187 5.5,0 0,1.53125 -5.5,0 0,4.5625 6.65625,0 0,1.57813 -8.5,0 z m 8.93397,2.01562 9.5,0 0,1.5 -9.5,0 0,-1.5 z m 10.36638,-8.60937 q 0,-1.6875 0.5,-2.98438 0.5,-1.29687 1.35938,-2.15625 0.875,-0.85937 2.01562,-1.29687 1.15625,-0.4375 2.4375,-0.4375 1.28125,0 2.40625,0.4375 1.14063,0.4375 1.98438,1.29687 0.85937,0.85938 1.35937,2.15625 0.51563,1.29688 0.51563,2.98438 0,1.6875 -0.51563,2.98437 -0.5,1.29688 -1.35937,2.15625 -0.84375,0.85938 -1.98438,1.29688 -1.125,0.4375 -2.40625,0.4375 -1.28125,0 -2.4375,-0.4375 -1.14062,-0.4375 -2.01562,-1.29688 -0.85938,-0.85937 -1.35938,-2.15625 -0.5,-1.29687 -0.5,-2.98437 z m 1.9375,0 q 0,1.20312 0.29688,2.1875 0.29687,0.96875 0.85937,1.65625 0.5625,0.67187 1.375,1.04687 0.8125,0.375 1.8125,0.375 1,0 1.79688,-0.375 0.8125,-0.375 1.35937,-1.04687 0.5625,-0.6875 0.85938,-1.65625 0.3125,-0.98438 0.3125,-2.1875 0,-1.20313 -0.3125,-2.17188 -0.29688,-0.98437 -0.85938,-1.65625 -0.54687,-0.6875 -1.35937,-1.0625 -0.79688,-0.375 -1.79688,-0.375 -1,0 -1.8125,0.375 -0.8125,0.375 -1.375,1.0625 -0.5625,0.67188 -0.85937,1.65625 -0.29688,0.96875 -0.29688,2.17188 z m 17.99895,6.875 q -1.28125,0 -2.23437,-0.39063 -0.95313,-0.40625 -1.5625,-1.09375 -0.60938,-0.70312 -0.90625,-1.64062 -0.29688,-0.95313 -0.29688,-2.0625 l 0,-8.26563 1.84375,0 0,8.0625 q 0,1.96875 0.875,2.875 0.875,0.89063 2.28125,0.89063 0.70313,0 1.28125,-0.21875 0.57813,-0.21875 1,-0.67188 0.42188,-0.46875 0.64063,-1.17187 0.23437,-0.71875 0.23437,-1.70313 l 0,-8.0625 1.84375,0 0,8.26563 q 0,1.10937 -0.29687,2.0625 -0.29688,0.9375 -0.92188,1.64062 -0.60937,0.6875 -1.54687,1.09375 -0.9375,0.39063 -2.23438,0.39063 z m 16.74176,-13.45313 0,1.59375 -4.15625,0 0,11.57813 -1.82812,0 0,-11.57813 -4.15625,0 0,-1.59375 10.14062,0 z"
       id="path43"
       inkscape:connector-curvature="0"
       style="fill:#000000;fill-rule:nonzero;stroke:none;stroke-linecap:square;stroke-miterlimit:10" />
  </g>
</svg>
