<?xml version="1.0" encoding="UTF-8" standalone="no"?>
<!-- Created with Inkscape (http://www.inkscape.org/) -->

<svg
   xmlns:dc="http://purl.org/dc/elements/1.1/"
   xmlns:cc="http://creativecommons.org/ns#"
   xmlns:rdf="http://www.w3.org/1999/02/22-rdf-syntax-ns#"
   xmlns:svg="http://www.w3.org/2000/svg"
   xmlns="http://www.w3.org/2000/svg"
   xmlns:sodipodi="http://sodipodi.sourceforge.net/DTD/sodipodi-0.dtd"
   xmlns:inkscape="http://www.inkscape.org/namespaces/inkscape"
   width="210mm"
   height="297mm"
   viewBox="0 0 744.09448819 1052.3622047"
   id="svg4268"
   version="1.1"
   inkscape:version="0.91 r13725"
   sodipodi:docname="figura7.svg">
  <defs
     id="defs4270" />
  <sodipodi:namedview
     id="base"
     pagecolor="#ffffff"
     bordercolor="#666666"
     borderopacity="1.0"
     inkscape:pageopacity="0.0"
     inkscape:pageshadow="2"
     inkscape:zoom="1.3042969"
     inkscape:cx="231.24438"
     inkscape:cy="520"
     inkscape:document-units="px"
     inkscape:current-layer="layer1"
     showgrid="false"
     inkscape:window-width="1855"
     inkscape:window-height="1056"
     inkscape:window-x="65"
     inkscape:window-y="24"
     inkscape:window-maximized="1" />
  <metadata
     id="metadata4273">
    <rdf:RDF>
      <cc:Work
         rdf:about="">
        <dc:format>image/svg+xml</dc:format>
        <dc:type
           rdf:resource="http://purl.org/dc/dcmitype/StillImage" />
        <dc:title></dc:title>
      </cc:Work>
    </rdf:RDF>
  </metadata>
  <g
     inkscape:label="Capa 1"
     inkscape:groupmode="layer"
     id="layer1">
    <path
       d="m 165.33338,307.14107 317.98425,0 0,206.99213 -317.98425,0 z"
       id="path11"
       inkscape:connector-curvature="0"
       style="fill:#000000;fill-opacity:0;fill-rule:evenodd;stroke:none;stroke-linecap:square;stroke-miterlimit:10" />
    <path
       d="m 165.33338,307.14107 317.98425,0 0,206.99213 -317.98425,0 z"
       id="path13"
       inkscape:connector-curvature="0"
       style="fill:none;fill-rule:evenodd;stroke:#000000;stroke-width:2;stroke-linecap:butt;stroke-linejoin:round;stroke-miterlimit:10" />
    <path
       d="m 268.81633,403.76364 92.11603,0 0,55.12862 c -46.05554,0 -46.05554,21.21072 -92.11603,10.60537 z m 7.58923,0 0,-7.14709 91.48688,0 0,55.47447 c -3.47757,0 -6.96008,0.38424 -6.96008,0.38424 l 0,-48.71162 z m 7.13349,-7.14709 0,-6.97417 92.27948,0 0,55.30154 c -3.96305,0 -7.92609,0.28818 -7.92609,0.28818 l 0,-48.61556 z"
       id="path15"
       inkscape:connector-curvature="0"
       style="fill:#cfe2f3;fill-rule:evenodd;stroke:none;stroke-linecap:square;stroke-miterlimit:10" />
    <path
       d="m 268.81633,403.76364 92.11603,0 0,55.12862 c -46.05554,0 -46.05554,21.21072 -92.11603,10.60537 z m 7.58923,0 0,-7.14709 91.48688,0 0,55.47447 c -3.47757,0 -6.96008,0.38424 -6.96008,0.38424 m -77.39331,-55.85872 0,-6.97416 92.27948,0 0,55.30154 c -3.96304,0 -7.92609,0.28818 -7.92609,0.28818"
       id="path17"
       inkscape:connector-curvature="0"
       style="fill:#000000;fill-opacity:0;fill-rule:evenodd;stroke:none;stroke-linecap:square;stroke-miterlimit:10" />
    <path
       d="m 268.81633,469.49764 c 46.06049,10.60535 46.06049,-10.60538 92.11603,-10.60538 l 0,-6.41699 c 0,0 3.48251,-0.38425 6.96008,-0.38425 l 0,-6.85891 c 0,0 3.96305,-0.28818 7.92609,-0.28818 l 0,-55.30154 -92.27948,0 0,6.97416 -7.13348,0 0,7.1471 -7.58924,0 z"
       id="path19"
       inkscape:connector-curvature="0"
       style="fill:#000000;fill-opacity:0;fill-rule:evenodd;stroke:none;stroke-linecap:square;stroke-miterlimit:10" />
    <path
       d="m 268.81633,403.76364 92.11603,0 0,55.12862 c -46.05554,0 -46.05554,21.21072 -92.11603,10.60537 z m 7.58923,0 0,-7.14709 91.48688,0 0,55.47447 c -3.47757,0 -6.96008,0.38424 -6.96008,0.38424 m -77.39331,-55.85872 0,-6.97416 92.27948,0 0,55.30154 c -3.96304,0 -7.92609,0.28818 -7.92609,0.28818"
       id="path21"
       inkscape:connector-curvature="0"
       style="fill:none;fill-rule:evenodd;stroke:#000000;stroke-width:1;stroke-linecap:butt;stroke-linejoin:round;stroke-miterlimit:10" />
    <path
       d="m 296.72998,443.55065 0,-13.17188 7.9375,0 0,1.57813 -6.09375,0 0,3.96875 5.40625,0 0,1.5625 -5.40625,0 0,6.0625 -1.84375,0 z m 10.0184,-13.17188 1.84375,0 0,13.17188 -1.84375,0 0,-13.17188 z m 5.01856,13.17188 0,-13.17188 7.9375,0 0,1.57813 -6.09375,0 0,3.96875 5.40625,0 0,1.5625 -5.40625,0 0,6.0625 -1.84375,0 z m 9.48715,-6.59375 q 0,-1.6875 0.5,-2.98438 0.5,-1.29687 1.35937,-2.15625 0.875,-0.85937 2.01563,-1.29687 1.15625,-0.4375 2.4375,-0.4375 1.28125,0 2.40625,0.4375 1.14062,0.4375 1.98437,1.29687 0.85938,0.85938 1.35938,2.15625 0.51562,1.29688 0.51562,2.98438 0,1.6875 -0.51562,2.98437 -0.5,1.29688 -1.35938,2.15625 -0.84375,0.85938 -1.98437,1.29688 -1.125,0.4375 -2.40625,0.4375 -1.28125,0 -2.4375,-0.4375 -1.14063,-0.4375 -2.01563,-1.29688 -0.85937,-0.85937 -1.35937,-2.15625 -0.5,-1.29687 -0.5,-2.98437 z m 1.9375,0 q 0,1.20312 0.29687,2.1875 0.29688,0.96875 0.85938,1.65625 0.5625,0.67187 1.375,1.04687 0.8125,0.375 1.8125,0.375 1,0 1.79687,-0.375 0.8125,-0.375 1.35938,-1.04687 0.5625,-0.6875 0.85937,-1.65625 0.3125,-0.98438 0.3125,-2.1875 0,-1.20313 -0.3125,-2.17188 -0.29687,-0.98437 -0.85937,-1.65625 -0.54688,-0.6875 -1.35938,-1.0625 -0.79687,-0.375 -1.79687,-0.375 -1,0 -1.8125,0.375 -0.8125,0.375 -1.375,1.0625 -0.5625,0.67188 -0.85938,1.65625 -0.29687,0.96875 -0.29687,2.17188 z"
       id="path23"
       inkscape:connector-curvature="0"
       style="fill:#000000;fill-rule:nonzero;stroke:none;stroke-linecap:square;stroke-miterlimit:10" />
    <path
       d="m 232.06565,367.14107 0,130.01575"
       id="path25"
       inkscape:connector-curvature="0"
       style="fill:#000000;fill-opacity:0;fill-rule:evenodd;stroke:none;stroke-linecap:square;stroke-miterlimit:10" />
    <path
       d="m 232.06565,367.14107 0,130.01575"
       id="path27"
       inkscape:connector-curvature="0"
       style="fill:none;fill-rule:evenodd;stroke:#000000;stroke-width:2;stroke-linecap:butt;stroke-linejoin:round;stroke-miterlimit:10" />
    <path
       d="m 233.31763,496.14107 173.00787,0"
       id="path29"
       inkscape:connector-curvature="0"
       style="fill:#000000;fill-opacity:0;fill-rule:evenodd;stroke:none;stroke-linecap:square;stroke-miterlimit:10" />
    <path
       d="m 233.31763,496.14107 173.00787,0"
       id="path31"
       inkscape:connector-curvature="0"
       style="fill:none;fill-rule:evenodd;stroke:#000000;stroke-width:2;stroke-linecap:butt;stroke-linejoin:round;stroke-miterlimit:10" />
    <path
       d="m 405.31763,495.14107 0,-128"
       id="path33"
       inkscape:connector-curvature="0"
       style="fill:#000000;fill-opacity:0;fill-rule:evenodd;stroke:none;stroke-linecap:square;stroke-miterlimit:10" />
    <path
       d="m 405.31763,495.14107 0,-128"
       id="path35"
       inkscape:connector-curvature="0"
       style="fill:none;fill-rule:evenodd;stroke:#000000;stroke-width:2;stroke-linecap:butt;stroke-linejoin:round;stroke-miterlimit:10" />
    <path
       d="m 132.57485,321.14107 68.50394,0 0,28 -68.50394,0 z"
       id="path37"
       inkscape:connector-curvature="0"
       style="fill:#cfe2f3;fill-rule:evenodd;stroke:none;stroke-linecap:square;stroke-miterlimit:10" />
    <path
       d="m 132.57485,321.14107 68.50394,0 0,28 -68.50394,0 z"
       id="path39"
       inkscape:connector-curvature="0"
       style="fill:none;fill-rule:evenodd;stroke:#000000;stroke-width:2;stroke-linecap:butt;stroke-linejoin:round;stroke-miterlimit:10" />
    <path
       d="m 152.39073,328.76419 q 2.78125,0 4.26562,1.0625 1.5,1.04687 1.5,3.14062 0,1.125 -0.42187,1.9375 -0.40625,0.8125 -1.17188,1.3125 -0.76562,0.5 -1.875,0.73438 -1.09375,0.21875 -2.48437,0.21875 l -1.45313,0 0,4.89062 -1.84375,0 0,-12.98437 q 0.76563,-0.1875 1.71875,-0.25 0.96875,-0.0625 1.76563,-0.0625 z m 0.15625,1.60937 q -1.17188,0 -1.79688,0.0625 l 0,5.17188 1.375,0 q 0.95313,0 1.70313,-0.125 0.76562,-0.125 1.28125,-0.42188 0.53125,-0.29687 0.8125,-0.8125 0.29687,-0.51562 0.29687,-1.3125 0,-0.75 -0.29687,-1.25 -0.29688,-0.5 -0.79688,-0.78125 -0.5,-0.29687 -1.17187,-0.40625 -0.67188,-0.125 -1.40625,-0.125 z m 5.98363,13.70313 9.5,0 0,1.5 -9.5,0 0,-1.5 z m 10.89763,-15.1875 1.84375,0 0,13.17187 -1.84375,0 0,-13.17187 z m 14.03416,13.17187 q -0.42187,-0.70312 -0.96875,-1.57812 -0.53125,-0.875 -1.15625,-1.8125 -0.625,-0.9375 -1.29687,-1.90625 -0.67188,-0.96875 -1.34375,-1.875 -0.67188,-0.90625 -1.29688,-1.70313 -0.625,-0.79687 -1.15625,-1.40625 l 0,10.28125 -1.79687,0 0,-13.17187 1.45312,0 q 0.89063,0.95312 1.90625,2.21875 1.01563,1.26562 2.01563,2.60937 1,1.32813 1.875,2.625 0.89062,1.29688 1.5,2.29688 l 0,-9.75 1.8125,0 0,13.17187 -1.54688,0 z"
       id="path41"
       inkscape:connector-curvature="0"
       style="fill:#000000;fill-rule:nonzero;stroke:none;stroke-linecap:square;stroke-miterlimit:10" />
    <path
       d="m 444.31763,321.14107 84,0 0,28 -84,0 z"
       id="path43"
       inkscape:connector-curvature="0"
       style="fill:#cfe2f3;fill-rule:evenodd;stroke:none;stroke-linecap:square;stroke-miterlimit:10" />
    <path
       d="m 444.31763,321.14107 84,0 0,28 -84,0 z"
       id="path45"
       inkscape:connector-curvature="0"
       style="fill:none;fill-rule:evenodd;stroke:#000000;stroke-width:2;stroke-linecap:butt;stroke-linejoin:round;stroke-miterlimit:10" />
    <path
       d="m 462.23627,328.76419 q 2.78125,0 4.26562,1.0625 1.5,1.04687 1.5,3.14062 0,1.125 -0.42187,1.9375 -0.40625,0.8125 -1.17188,1.3125 -0.76562,0.5 -1.875,0.73438 -1.09375,0.21875 -2.48437,0.21875 l -1.45313,0 0,4.89062 -1.84375,0 0,-12.98437 q 0.76563,-0.1875 1.71875,-0.25 0.96875,-0.0625 1.76563,-0.0625 z m 0.15625,1.60937 q -1.17188,0 -1.79688,0.0625 l 0,5.17188 1.375,0 q 0.95313,0 1.70313,-0.125 0.76562,-0.125 1.28125,-0.42188 0.53125,-0.29687 0.8125,-0.8125 0.29687,-0.51562 0.29687,-1.3125 0,-0.75 -0.29687,-1.25 -0.29688,-0.5 -0.79688,-0.78125 -0.5,-0.29687 -1.17187,-0.40625 -0.67188,-0.125 -1.40625,-0.125 z m 5.98361,13.70313 9.49997,0 0,1.5 -9.49997,0 0,-1.5 z m 10.36637,-8.60938 q 0,-1.6875 0.5,-2.98437 0.5,-1.29688 1.35937,-2.15625 0.875,-0.85938 2.01563,-1.29688 1.15625,-0.4375 2.4375,-0.4375 1.28125,0 2.40625,0.4375 1.14062,0.4375 1.98437,1.29688 0.85938,0.85937 1.35938,2.15625 0.51562,1.29687 0.51562,2.98437 0,1.6875 -0.51562,2.98438 -0.5,1.29687 -1.35938,2.15625 -0.84375,0.85937 -1.98437,1.29687 -1.125,0.4375 -2.40625,0.4375 -1.28125,0 -2.4375,-0.4375 -1.14063,-0.4375 -2.01563,-1.29687 -0.85937,-0.85938 -1.35937,-2.15625 -0.5,-1.29688 -0.5,-2.98438 z m 1.9375,0 q 0,1.20313 0.29687,2.1875 0.29688,0.96875 0.85938,1.65625 0.5625,0.67188 1.375,1.04688 0.8125,0.375 1.8125,0.375 1,0 1.79687,-0.375 0.8125,-0.375 1.35938,-1.04688 0.5625,-0.6875 0.85937,-1.65625 0.3125,-0.98437 0.3125,-2.1875 0,-1.20312 -0.3125,-2.17187 -0.29687,-0.98438 -0.85937,-1.65625 -0.54688,-0.6875 -1.35938,-1.0625 -0.79687,-0.375 -1.79687,-0.375 -1,0 -1.8125,0.375 -0.8125,0.375 -1.375,1.0625 -0.5625,0.67187 -0.85938,1.65625 -0.29687,0.96875 -0.29687,2.17187 z m 17.99896,6.875 q -1.28125,0 -2.23438,-0.39062 -0.95312,-0.40625 -1.5625,-1.09375 -0.60937,-0.70313 -0.90625,-1.64063 -0.29687,-0.95312 -0.29687,-2.0625 l 0,-8.26562 1.84375,0 0,8.0625 q 0,1.96875 0.875,2.875 0.875,0.89062 2.28125,0.89062 0.70312,0 1.28125,-0.21875 0.57812,-0.21875 1,-0.67187 0.42187,-0.46875 0.64062,-1.17188 0.23438,-0.71875 0.23438,-1.70312 l 0,-8.0625 1.84375,0 0,8.26562 q 0,1.10938 -0.29688,2.0625 -0.29687,0.9375 -0.92187,1.64063 -0.60938,0.6875 -1.54688,1.09375 -0.9375,0.39062 -2.23437,0.39062 z m 16.74176,-13.45312 0,1.59375 -4.15625,0 0,11.57812 -1.82813,0 0,-11.57812 -4.15625,0 0,-1.59375 10.14063,0 z"
       id="path47"
       inkscape:connector-curvature="0"
       style="fill:#000000;fill-rule:nonzero;stroke:none;stroke-linecap:square;stroke-miterlimit:10" />
    <path
       d="m 201.07878,335.14107 42.23888,0 0,96 25.50915,0"
       id="path49"
       inkscape:connector-curvature="0"
       style="fill:#000000;fill-opacity:0;fill-rule:evenodd;stroke:none;stroke-linecap:square;stroke-miterlimit:10" />
    <path
       d="m 201.07878,335.14107 42.23888,0 0,96 13.50915,0"
       id="path51"
       inkscape:connector-curvature="0"
       style="fill:none;fill-rule:evenodd;stroke:#000000;stroke-width:2;stroke-linecap:butt;stroke-linejoin:round;stroke-miterlimit:10" />
    <path
       d="m 256.82683,434.44454 9.0762,-3.30347 -9.0762,-3.30346 z"
       id="path53"
       inkscape:connector-curvature="0"
       style="fill:#000000;fill-rule:evenodd;stroke:#000000;stroke-width:2;stroke-linecap:butt;stroke-miterlimit:10" />
    <path
       d="m 375.81853,431.14159 16.49918,0 0,-96 52.00476,0"
       id="path55"
       inkscape:connector-curvature="0"
       style="fill:#000000;fill-opacity:0;fill-rule:evenodd;stroke:none;stroke-linecap:square;stroke-miterlimit:10" />
    <path
       d="m 375.81855,431.14159 16.49918,0 0,-95.99998 40.00476,0"
       id="path57"
       inkscape:connector-curvature="0"
       style="fill:none;fill-rule:evenodd;stroke:#000000;stroke-width:2;stroke-linecap:butt;stroke-linejoin:round;stroke-miterlimit:10" />
    <path
       d="m 432.32248,338.44507 9.07617,-3.30347 -9.07617,-3.30346 z"
       id="path59"
       inkscape:connector-curvature="0"
       style="fill:#000000;fill-rule:evenodd;stroke:#000000;stroke-width:2;stroke-linecap:butt;stroke-miterlimit:10" />
    <path
       d="m 312.01316,349.14107 30.6142,0 0,42.48819 -30.6142,0 z"
       id="path61"
       inkscape:connector-curvature="0"
       style="fill:#000000;fill-opacity:0;fill-rule:evenodd;stroke:none;stroke-linecap:square;stroke-miterlimit:10" />
    <path
       d="m 322.46628,376.06107 0,-13.59375 1.84375,0 7.14062,10.67187 0,-10.67187 1.71875,0 0,13.59375 -1.84375,0 -7.14062,-10.6875 0,10.6875 -1.71875,0 z"
       id="path63"
       inkscape:connector-curvature="0"
       style="fill:#000000;fill-rule:nonzero;stroke:none;stroke-linecap:square;stroke-miterlimit:10" />
    <path
       d="m 132.57485,424.14107 68.50394,0 0,28 -68.50394,0 z"
       id="path65"
       inkscape:connector-curvature="0"
       style="fill:#cfe2f3;fill-rule:evenodd;stroke:none;stroke-linecap:square;stroke-miterlimit:10" />
    <path
       d="m 132.57485,424.14107 68.50394,0 0,28 -68.50394,0 z"
       id="path67"
       inkscape:connector-curvature="0"
       style="fill:none;fill-rule:evenodd;stroke:#000000;stroke-width:2;stroke-linecap:butt;stroke-linejoin:round;stroke-miterlimit:10" />
    <path
       d="m 146.78933,438.4673 q 0,-1.6875 0.5,-2.98438 0.5,-1.29687 1.35937,-2.15625 0.875,-0.85937 2.01563,-1.29687 1.15625,-0.4375 2.4375,-0.4375 1.28125,0 2.40625,0.4375 1.14062,0.4375 1.98437,1.29687 0.85938,0.85938 1.35938,2.15625 0.51562,1.29688 0.51562,2.98438 0,1.48437 -0.39062,2.64062 -0.375,1.15625 -1.04688,2 -0.67187,0.84375 -1.57812,1.375 -0.90625,0.51563 -1.9375,0.71875 0.0312,0.42188 0.39062,0.75 0.375,0.34375 0.9375,0.5625 0.57813,0.23438 1.28125,0.39063 0.70313,0.15625 1.40625,0.23437 l -0.4375,1.4375 q -0.98437,-0.14062 -1.89062,-0.35937 -0.90625,-0.21875 -1.64063,-0.57813 -0.71875,-0.35937 -1.21875,-0.92187 -0.5,-0.54688 -0.67187,-1.39063 -1.1875,-0.0781 -2.25,-0.5625 -1.0625,-0.48437 -1.84375,-1.34375 -0.78125,-0.875 -1.23438,-2.10937 -0.45312,-1.23438 -0.45312,-2.84375 z m 1.9375,0 q 0,1.20312 0.29687,2.1875 0.29688,0.96875 0.85938,1.65625 0.5625,0.67187 1.375,1.04687 0.8125,0.375 1.8125,0.375 1,0 1.79687,-0.375 0.8125,-0.375 1.35938,-1.04687 0.5625,-0.6875 0.85937,-1.65625 0.3125,-0.98438 0.3125,-2.1875 0,-1.20313 -0.3125,-2.17188 -0.29687,-0.98437 -0.85937,-1.65625 -0.54688,-0.6875 -1.35938,-1.0625 -0.79687,-0.375 -1.79687,-0.375 -1,0 -1.8125,0.375 -0.8125,0.375 -1.375,1.0625 -0.5625,0.67188 -0.85938,1.65625 -0.29687,0.96875 -0.29687,2.17188 z m 11.38957,8.60937 9.5,0 0,1.5 -9.5,0 0,-1.5 z m 10.89763,-15.1875 1.84375,0 0,13.17188 -1.84375,0 0,-13.17188 z m 14.03416,13.17188 q -0.42187,-0.70313 -0.96875,-1.57813 -0.53125,-0.875 -1.15625,-1.8125 -0.625,-0.9375 -1.29687,-1.90625 -0.67188,-0.96875 -1.34375,-1.875 -0.67188,-0.90625 -1.29688,-1.70312 -0.625,-0.79688 -1.15625,-1.40625 l 0,10.28125 -1.79687,0 0,-13.17188 1.45312,0 q 0.89063,0.95313 1.90625,2.21875 1.01563,1.26563 2.01563,2.60938 1,1.32812 1.875,2.625 0.89062,1.29687 1.5,2.29687 l 0,-9.75 1.8125,0 0,13.17188 -1.54688,0 z"
       id="path69"
       inkscape:connector-curvature="0"
       style="fill:#000000;fill-rule:nonzero;stroke:none;stroke-linecap:square;stroke-miterlimit:10" />
    <path
       d="m 443.55646,408.14107 84,0 0,28 -84,0 z"
       id="path71"
       inkscape:connector-curvature="0"
       style="fill:#cfe2f3;fill-rule:evenodd;stroke:none;stroke-linecap:square;stroke-miterlimit:10" />
    <path
       d="m 443.55646,408.14107 84,0 0,28 -84,0 z"
       id="path73"
       inkscape:connector-curvature="0"
       style="fill:none;fill-rule:evenodd;stroke:#000000;stroke-width:2;stroke-linecap:butt;stroke-linejoin:round;stroke-miterlimit:10" />
    <path
       d="m 455.87369,422.4673 q 0,-1.6875 0.5,-2.98438 0.5,-1.29687 1.35937,-2.15625 0.875,-0.85935 2.01563,-1.29685 1.15625,-0.4375 2.4375,-0.4375 1.28125,0 2.40625,0.4375 1.14062,0.4375 1.98437,1.29685 0.85938,0.85938 1.35938,2.15625 0.51562,1.29688 0.51562,2.98438 0,1.48437 -0.39062,2.64062 -0.375,1.15625 -1.04688,2 -0.67187,0.84375 -1.57812,1.375 -0.90625,0.51563 -1.9375,0.71875 0.0312,0.42188 0.39062,0.75 0.375,0.34375 0.9375,0.5625 0.57813,0.23438 1.28125,0.39063 0.70313,0.15625 1.40625,0.23437 l -0.4375,1.4375 q -0.98437,-0.14062 -1.89062,-0.35937 -0.90625,-0.21875 -1.64063,-0.57813 -0.71875,-0.35937 -1.21875,-0.92187 -0.5,-0.54688 -0.67187,-1.39063 -1.1875,-0.0781 -2.25,-0.5625 -1.0625,-0.48437 -1.84375,-1.34375 -0.78125,-0.875 -1.23438,-2.10937 -0.45312,-1.23438 -0.45312,-2.84375 z m 1.9375,0 q 0,1.20312 0.29687,2.1875 0.29688,0.96875 0.85938,1.65625 0.5625,0.67187 1.375,1.04687 0.8125,0.375 1.8125,0.375 1,0 1.79687,-0.375 0.8125,-0.375 1.35938,-1.04687 0.5625,-0.6875 0.85937,-1.65625 0.3125,-0.98438 0.3125,-2.1875 0,-1.20313 -0.3125,-2.17188 -0.29687,-0.98437 -0.85937,-1.65625 -0.54688,-0.6875 -1.35938,-1.0625 -0.79687,-0.375 -1.79687,-0.375 -1,0 -1.8125,0.375 -0.8125,0.375 -1.375,1.0625 -0.5625,0.67188 -0.85938,1.65625 -0.29687,0.96875 -0.29687,2.17188 z m 11.38956,8.60937 9.5,0 0,1.5 -9.5,0 0,-1.5 z m 10.36639,-8.60937 q 0,-1.6875 0.5,-2.98438 0.5,-1.29687 1.35938,-2.15625 0.875,-0.85935 2.01562,-1.29685 1.15625,-0.4375 2.4375,-0.4375 1.28125,0 2.40625,0.4375 1.14063,0.4375 1.98438,1.29685 0.85937,0.85938 1.35937,2.15625 0.51563,1.29688 0.51563,2.98438 0,1.6875 -0.51563,2.98437 -0.5,1.29688 -1.35937,2.15625 -0.84375,0.85938 -1.98438,1.29688 -1.125,0.4375 -2.40625,0.4375 -1.28125,0 -2.4375,-0.4375 -1.14062,-0.4375 -2.01562,-1.29688 -0.85938,-0.85937 -1.35938,-2.15625 -0.5,-1.29687 -0.5,-2.98437 z m 1.9375,0 q 0,1.20312 0.29688,2.1875 0.29687,0.96875 0.85937,1.65625 0.5625,0.67187 1.375,1.04687 0.8125,0.375 1.8125,0.375 1,0 1.79688,-0.375 0.8125,-0.375 1.35937,-1.04687 0.5625,-0.6875 0.85938,-1.65625 0.3125,-0.98438 0.3125,-2.1875 0,-1.20313 -0.3125,-2.17188 -0.29688,-0.98437 -0.85938,-1.65625 -0.54687,-0.6875 -1.35937,-1.0625 -0.79688,-0.375 -1.79688,-0.375 -1,0 -1.8125,0.375 -0.8125,0.375 -1.375,1.0625 -0.5625,0.67188 -0.85937,1.65625 -0.29688,0.96875 -0.29688,2.17188 z m 17.99896,6.875 q -1.28125,0 -2.23437,-0.39063 -0.95313,-0.40625 -1.5625,-1.09375 -0.60938,-0.70312 -0.90625,-1.64062 -0.29688,-0.95313 -0.29688,-2.0625 l 0,-8.26561 1.84375,0 0,8.06248 q 0,1.96875 0.875,2.875 0.875,0.89063 2.28125,0.89063 0.70313,0 1.28125,-0.21875 0.57813,-0.21875 1,-0.67188 0.42188,-0.46875 0.64063,-1.17187 0.23437,-0.71875 0.23437,-1.70313 l 0,-8.06248 1.84375,0 0,8.26561 q 0,1.10937 -0.29687,2.0625 -0.29688,0.9375 -0.92188,1.64062 -0.60937,0.6875 -1.54687,1.09375 -0.9375,0.39063 -2.23438,0.39063 z m 16.74176,-13.45311 0,1.59373 -4.15625,0 0,11.57813 -1.82812,0 0,-11.57813 -4.15625,0 0,-1.59373 10.14062,0 z"
       id="path75"
       inkscape:connector-curvature="0"
       style="fill:#000000;fill-rule:nonzero;stroke:none;stroke-linecap:square;stroke-miterlimit:10" />
    <path
       d="m 132.57485,459.14107 68.50394,0 0,28 -68.50394,0 z"
       id="path77"
       inkscape:connector-curvature="0"
       style="fill:#cfe2f3;fill-rule:evenodd;stroke:none;stroke-linecap:square;stroke-miterlimit:10" />
    <path
       d="m 132.57485,459.14107 68.50394,0 0,28 -68.50394,0 z"
       id="path79"
       inkscape:connector-curvature="0"
       style="fill:none;fill-rule:evenodd;stroke:#000000;stroke-width:2;stroke-linecap:butt;stroke-linejoin:round;stroke-miterlimit:10" />
    <path
       d="m 149.2515,480.06105 0,-13.17188 8.03125,0 0,1.57813 -6.1875,0 0,3.92187 5.5,0 0,1.53125 -5.5,0 0,4.5625 6.65625,0 0,1.57813 -8.5,0 z m 8.93398,2.01562 9.5,0 0,1.5 -9.5,0 0,-1.5 z m 10.89762,-15.1875 1.84375,0 0,13.17188 -1.84375,0 0,-13.17188 z m 14.03417,13.17188 q -0.42188,-0.70313 -0.96875,-1.57813 -0.53125,-0.875 -1.15625,-1.8125 -0.625,-0.9375 -1.29688,-1.90625 -0.67187,-0.96875 -1.34375,-1.875 -0.67187,-0.90625 -1.29687,-1.70312 -0.625,-0.79688 -1.15625,-1.40625 l 0,10.28125 -1.79688,0 0,-13.17188 1.45313,0 q 0.89062,0.95313 1.90625,2.21875 1.01562,1.26563 2.01562,2.60938 1,1.32812 1.875,2.625 0.89063,1.29687 1.5,2.29687 l 0,-9.75 1.8125,0 0,13.17188 -1.54687,0 z"
       id="path81"
       inkscape:connector-curvature="0"
       style="fill:#000000;fill-rule:nonzero;stroke:none;stroke-linecap:square;stroke-miterlimit:10" />
    <path
       d="m 132.57485,388.64238 79.74803,0 0,28 -79.74803,0 z"
       id="path83"
       inkscape:connector-curvature="0"
       style="fill:#cfe2f3;fill-rule:evenodd;stroke:none;stroke-linecap:square;stroke-miterlimit:10" />
    <path
       d="m 132.57485,388.64238 79.74803,0 0,28 -79.74803,0 z"
       id="path85"
       inkscape:connector-curvature="0"
       style="fill:none;fill-rule:evenodd;stroke:#000000;stroke-width:2;stroke-linecap:butt;stroke-linejoin:round;stroke-miterlimit:10" />
    <path
       d="m 151.06333,396.26551 q 2.78125,0 4.26562,1.0625 1.5,1.04687 1.5,3.14062 0,1.125 -0.42187,1.9375 -0.40625,0.8125 -1.17188,1.3125 -0.76562,0.5 -1.875,0.73438 -1.09375,0.21875 -2.48437,0.21875 l -1.45313,0 0,4.89062 -1.84375,0 0,-12.98437 q 0.76563,-0.1875 1.71875,-0.25 0.96875,-0.0625 1.76563,-0.0625 z m 0.15625,1.60937 q -1.17188,0 -1.79688,0.0625 l 0,5.17188 1.375,0 q 0.95313,0 1.70313,-0.125 0.76562,-0.125 1.28125,-0.42188 0.53125,-0.29687 0.8125,-0.8125 0.29687,-0.51562 0.29687,-1.3125 0,-0.75 -0.29687,-1.25 -0.29688,-0.5 -0.79688,-0.78125 -0.5,-0.29687 -1.17187,-0.40625 -0.67188,-0.125 -1.40625,-0.125 z m 5.98363,13.70313 9.5,0 0,1.5 -9.5,0 0,-1.5 z m 10.89763,-15.1875 1.84375,0 0,13.17187 -1.84375,0 0,-13.17187 z m 14.03416,13.17187 q -0.42187,-0.70312 -0.96875,-1.57812 -0.53125,-0.875 -1.15625,-1.8125 -0.625,-0.9375 -1.29687,-1.90625 -0.67188,-0.96875 -1.34375,-1.875 -0.67188,-0.90625 -1.29688,-1.70313 -0.625,-0.79687 -1.15625,-1.40625 l 0,10.28125 -1.79687,0 0,-13.17187 1.45312,0 q 0.89063,0.95312 1.90625,2.21875 1.01563,1.26562 2.01563,2.60937 1,1.32813 1.875,2.625 0.89062,1.29688 1.5,2.29688 l 0,-9.75 1.8125,0 0,13.17187 -1.54688,0 z m 2.84738,2.01563 9.5,0 0,1.5 -9.5,0 0,-1.5 z m 12.53826,-2.01563 -1.76563,0 0,-9.875 1.76563,0 0,9.875 z m -0.89063,-11.67187 q -0.46875,0 -0.8125,-0.3125 -0.32812,-0.3125 -0.32812,-0.84375 0,-0.53125 0.32812,-0.84375 0.34375,-0.3125 0.8125,-0.3125 0.48438,0 0.8125,0.3125 0.32813,0.3125 0.32813,0.84375 0,0.53125 -0.32813,0.84375 -0.32812,0.3125 -0.8125,0.3125 z"
       id="path87"
       inkscape:connector-curvature="0"
       style="fill:#000000;fill-rule:nonzero;stroke:none;stroke-linecap:square;stroke-miterlimit:10" />
  </g>
</svg>
