<?xml version="1.0" encoding="UTF-8" standalone="no"?>
<!-- Created with Inkscape (http://www.inkscape.org/) -->

<svg
   xmlns:dc="http://purl.org/dc/elements/1.1/"
   xmlns:cc="http://creativecommons.org/ns#"
   xmlns:rdf="http://www.w3.org/1999/02/22-rdf-syntax-ns#"
   xmlns:svg="http://www.w3.org/2000/svg"
   xmlns="http://www.w3.org/2000/svg"
   xmlns:sodipodi="http://sodipodi.sourceforge.net/DTD/sodipodi-0.dtd"
   xmlns:inkscape="http://www.inkscape.org/namespaces/inkscape"
   width="210mm"
   height="297mm"
   viewBox="0 0 744.09448819 1052.3622047"
   id="svg4285"
   version="1.1"
   inkscape:version="0.91 r13725"
   sodipodi:docname="figura3.svg">
  <defs
     id="defs4287" />
  <sodipodi:namedview
     id="base"
     pagecolor="#ffffff"
     bordercolor="#666666"
     borderopacity="1.0"
     inkscape:pageopacity="0.0"
     inkscape:pageshadow="2"
     inkscape:zoom="1.3042969"
     inkscape:cx="186.14809"
     inkscape:cy="664.88744"
     inkscape:document-units="px"
     inkscape:current-layer="layer1"
     showgrid="false"
     inkscape:window-width="1855"
     inkscape:window-height="1056"
     inkscape:window-x="65"
     inkscape:window-y="24"
     inkscape:window-maximized="1" />
  <metadata
     id="metadata4290">
    <rdf:RDF>
      <cc:Work
         rdf:about="">
        <dc:format>image/svg+xml</dc:format>
        <dc:type
           rdf:resource="http://purl.org/dc/dcmitype/StillImage" />
        <dc:title />
      </cc:Work>
    </rdf:RDF>
  </metadata>
  <g
     inkscape:label="Capa 1"
     inkscape:groupmode="layer"
     id="layer1">
    <path
       d="m 162.98037,180.56704 358.99213,0 0,257.73228 -358.99213,0 z"
       id="path11"
       inkscape:connector-curvature="0"
       style="fill:#000000;fill-opacity:0;fill-rule:evenodd;stroke:none;stroke-linecap:square;stroke-miterlimit:10" />
    <path
       d="m 162.98037,180.56704 358.99213,0 0,257.73228 -358.99213,0 z"
       id="path13"
       inkscape:connector-curvature="0"
       style="fill:none;fill-rule:evenodd;stroke:#000000;stroke-width:2;stroke-linecap:butt;stroke-linejoin:round;stroke-miterlimit:10" />
    <path
       d="m 443.51754,425.50058 q -1.39063,0 -2.53125,-0.45313 -1.14063,-0.45312 -1.95313,-1.32812 -0.8125,-0.875 -1.26562,-2.15625 -0.4375,-1.28125 -0.4375,-2.9375 0,-1.65625 0.5,-2.9375 0.5,-1.28125 1.34375,-2.15625 0.85937,-0.875 2,-1.32813 1.14062,-0.45312 2.4375,-0.45312 0.8125,0 1.46875,0.10937 0.65625,0.10938 1.14062,0.26563 0.48438,0.15625 0.78125,0.3125 0.3125,0.14062 0.42188,0.21875 l -0.53125,1.53125 q -0.17188,-0.125 -0.5,-0.25 -0.3125,-0.14063 -0.71875,-0.26563 -0.40625,-0.14062 -0.89063,-0.21875 -0.48437,-0.0937 -0.98437,-0.0937 -1.04688,0 -1.89063,0.35938 -0.82812,0.35937 -1.42187,1.04687 -0.57813,0.6875 -0.89063,1.67188 -0.3125,0.96875 -0.3125,2.1875 0,1.17187 0.26563,2.14062 0.28125,0.96875 0.82812,1.67188 0.5625,0.6875 1.375,1.07812 0.82813,0.375 1.9375,0.375 1.26563,0 2.09375,-0.26562 0.84375,-0.26563 1.26563,-0.48438 l 0.48437,1.53125 q -0.14062,0.0937 -0.48437,0.23438 -0.34375,0.14062 -0.85938,0.28125 -0.5,0.125 -1.1875,0.21875 -0.6875,0.0937 -1.48437,0.0937 z m 8.75439,-0.0937 q -1.64062,-0.0312 -2.32812,-0.6875 -0.67188,-0.67188 -0.67188,-2.07813 l 0,-11.85937 1.76563,-0.3125 0,11.875 q 0,0.4375 0.0781,0.73437 0.0781,0.28125 0.25,0.45313 0.17188,0.17187 0.45313,0.26562 0.28125,0.0781 0.70312,0.125 l -0.25,1.48438 z m 3.89002,-0.1875 -1.76563,0 0,-9.875 1.76563,0 0,9.875 z m -0.89063,-11.67188 q -0.46875,0 -0.8125,-0.3125 -0.32812,-0.3125 -0.32812,-0.84375 0,-0.53125 0.32812,-0.84375 0.34375,-0.3125 0.8125,-0.3125 0.48438,0 0.8125,0.3125 0.32813,0.3125 0.32813,0.84375 0,0.53125 -0.32813,0.84375 -0.32812,0.3125 -0.8125,0.3125 z m 3.29816,6.75 q 0,-1.3125 0.375,-2.28125 0.39063,-0.98437 1.01563,-1.625 0.625,-0.65625 1.4375,-0.96875 0.8125,-0.32812 1.67187,-0.32812 2,0 3.0625,1.25 1.0625,1.23437 1.0625,3.78125 0,0.10937 0,0.29687 0,0.1875 -0.0156,0.32813 l -6.76563,0 q 0.10938,1.54687 0.89063,2.34375 0.78125,0.79687 2.4375,0.79687 0.92187,0 1.5625,-0.15625 0.64062,-0.17187 0.95312,-0.32812 l 0.25,1.48437 q -0.3125,0.17188 -1.125,0.35938 -0.8125,0.20312 -1.82812,0.20312 -1.29688,0 -2.23438,-0.39062 -0.9375,-0.39063 -1.54687,-1.07813 -0.60938,-0.6875 -0.90625,-1.625 -0.29688,-0.9375 -0.29688,-2.0625 z m 6.78125,-0.96875 q 0.0156,-1.20312 -0.60937,-1.96875 -0.60938,-0.76562 -1.6875,-0.76562 -0.60938,0 -1.07813,0.23437 -0.46875,0.23438 -0.79687,0.625 -0.3125,0.375 -0.5,0.875 -0.17188,0.48438 -0.23438,1 l 4.90625,0 z m 4.19446,-3.70312 q 0.60937,-0.15625 1.60937,-0.32813 1.01563,-0.17187 2.32813,-0.17187 1.17187,0 1.95312,0.34375 0.78125,0.32812 1.25,0.92187 0.46875,0.59375 0.65625,1.4375 0.1875,0.82813 0.1875,1.84375 l 0,5.54688 -1.76562,0 0,-5.17188 q 0,-0.90625 -0.125,-1.54687 -0.125,-0.65625 -0.40625,-1.04688 -0.28125,-0.40625 -0.76563,-0.57812 -0.46875,-0.1875 -1.17187,-0.1875 -0.28125,0 -0.59375,0.0156 -0.29688,0.0156 -0.57813,0.0469 -0.28125,0.0312 -0.5,0.0781 -0.21875,0.0312 -0.3125,0.0469 l 0,8.34375 -1.76562,0 0,-9.59375 z m 12.36493,-0.28125 3.75,0 0,1.48437 -3.75,0 0,4.54688 q 0,0.75 0.10937,1.23437 0.125,0.48438 0.34375,0.76563 0.23438,0.26562 0.57813,0.39062 0.34375,0.10938 0.79687,0.10938 0.79688,0 1.28125,-0.17188 0.48438,-0.1875 0.67188,-0.26562 l 0.34375,1.45312 q -0.26563,0.14063 -0.9375,0.32813 -0.65625,0.20312 -1.51563,0.20312 -1,0 -1.65625,-0.25 -0.65625,-0.25 -1.0625,-0.76562 -0.39062,-0.51563 -0.5625,-1.26563 -0.15625,-0.75 -0.15625,-1.73437 l 0,-8.82813 1.76563,-0.29687 0,3.0625 z m 5.29669,4.95312 q 0,-1.3125 0.375,-2.28125 0.39063,-0.98437 1.01563,-1.625 0.625,-0.65625 1.4375,-0.96875 0.8125,-0.32812 1.67187,-0.32812 2,0 3.0625,1.25 1.0625,1.23437 1.0625,3.78125 0,0.10937 0,0.29687 0,0.1875 -0.0156,0.32813 l -6.76563,0 q 0.10938,1.54687 0.89063,2.34375 0.78125,0.79687 2.4375,0.79687 0.92187,0 1.5625,-0.15625 0.64062,-0.17187 0.95312,-0.32812 l 0.25,1.48437 q -0.3125,0.17188 -1.125,0.35938 -0.8125,0.20312 -1.82812,0.20312 -1.29688,0 -2.23438,-0.39062 -0.9375,-0.39063 -1.54687,-1.07813 -0.60938,-0.6875 -0.90625,-1.625 -0.29688,-0.9375 -0.29688,-2.0625 z m 6.78125,-0.96875 q 0.0156,-1.20312 -0.60937,-1.96875 -0.60938,-0.76562 -1.6875,-0.76562 -0.60938,0 -1.07813,0.23437 -0.46875,0.23438 -0.79687,0.625 -0.3125,0.375 -0.5,0.875 -0.17188,0.48438 -0.23438,1 l 4.90625,0 z m 12.17596,6 q -0.40625,0 -0.875,-0.0156 -0.45312,-0.0156 -0.92187,-0.0625 -0.46875,-0.0312 -0.92188,-0.0781 -0.45312,-0.0625 -0.82812,-0.15625 l 0,-12.78125 q 0.375,-0.0937 0.82812,-0.14062 0.45313,-0.0625 0.92188,-0.0937 0.46875,-0.0469 0.92187,-0.0625 0.45313,-0.0156 0.85938,-0.0156 1.14062,0 2.125,0.17188 1,0.17187 1.73437,0.57812 0.73438,0.40625 1.15625,1.07813 0.42188,0.65625 0.42188,1.625 0,1.07812 -0.51563,1.78125 -0.51562,0.6875 -1.375,1.03125 1.15625,0.34375 1.84375,1.09375 0.6875,0.73437 0.6875,2.07812 0,1.98438 -1.45312,2.98438 -1.45313,0.98437 -4.60938,0.98437 z m -1.73437,-6.25 0,4.64063 q 0.21875,0.0156 0.5,0.0312 0.25,0.0312 0.57812,0.0469 0.32813,0 0.76563,0 0.82812,0 1.54687,-0.10937 0.73438,-0.10938 1.28125,-0.375 0.5625,-0.26563 0.89063,-0.73438 0.32812,-0.46875 0.32812,-1.20312 0,-0.64063 -0.25,-1.07813 -0.23437,-0.45312 -0.70312,-0.71875 -0.46875,-0.26562 -1.125,-0.375 -0.64063,-0.125 -1.4375,-0.125 l -2.375,0 z m 0,-1.48437 1.9375,0 q 0.6875,0 1.29687,-0.0937 0.60938,-0.0937 1.04688,-0.32813 0.45312,-0.25 0.70312,-0.64062 0.26563,-0.40625 0.26563,-1.01563 0,-0.57812 -0.26563,-0.96875 -0.26562,-0.39062 -0.73437,-0.625 -0.46875,-0.23437 -1.09375,-0.34375 -0.625,-0.125 -1.32813,-0.125 -0.70312,0 -1.10937,0.0312 -0.39063,0.0156 -0.71875,0.0469 l 0,4.0625 z"
       id="path15"
       inkscape:connector-curvature="0"
       style="fill:#000000;fill-rule:nonzero;stroke:none;stroke-linecap:square;stroke-miterlimit:10" />
    <path
       d="m 430.36358,311.02112 0,0 c 0,-21.23904 18.13422,-38.4567 40.50394,-38.4567 l 0,0 c 10.74231,0 21.04461,4.05169 28.64062,11.26371 7.59595,7.21203 11.86328,16.99363 11.86328,27.19299 l 0,0 c 0,21.23904 -18.13421,38.4567 -40.5039,38.4567 l 0,0 c -22.36972,0 -40.50394,-17.21766 -40.50394,-38.4567 z"
       id="path17"
       inkscape:connector-curvature="0"
       style="fill:#cfe2f3;fill-rule:evenodd;stroke:none;stroke-linecap:square;stroke-miterlimit:10" />
    <path
       d="m 430.36358,311.02112 0,0 c 0,-21.23904 18.13422,-38.4567 40.50394,-38.4567 l 0,0 c 10.74231,0 21.04461,4.05169 28.64062,11.26371 7.59595,7.21203 11.86328,16.99363 11.86328,27.19299 l 0,0 c 0,21.23904 -18.13421,38.4567 -40.5039,38.4567 l 0,0 c -22.36972,0 -40.50394,-17.21766 -40.50394,-38.4567 z"
       id="path19"
       inkscape:connector-curvature="0"
       style="fill:none;fill-rule:evenodd;stroke:#000000;stroke-width:1;stroke-linecap:butt;stroke-linejoin:round;stroke-miterlimit:10" />
    <path
       d="m 460.24358,298.80549 1.64062,0 0,9.01562 -1.64062,0 0,-9.01562 z m 5.04803,5.59375 q 0,1.04687 0.48438,1.64062 0.5,0.57813 1.375,0.57813 0.375,0 0.64062,-0.0312 0.26563,-0.0312 0.4375,-0.0625 l 0,-3.90625 q -0.20312,-0.14063 -0.54687,-0.26563 -0.34375,-0.125 -0.73438,-0.125 -0.85937,0 -1.26562,0.59375 -0.39063,0.57813 -0.39063,1.57813 z m 4.51563,3.21875 q -0.46875,0.14062 -1.1875,0.25 -0.70313,0.125 -1.48438,0.125 -0.79687,0 -1.4375,-0.25 -0.64062,-0.25 -1.09375,-0.70313 -0.4375,-0.46875 -0.6875,-1.125 -0.23437,-0.65625 -0.23437,-1.46875 0,-0.8125 0.20312,-1.46875 0.20313,-0.65625 0.59375,-1.125 0.39063,-0.46875 0.9375,-0.71875 0.5625,-0.25 1.29688,-0.25 0.48437,0 0.85937,0.125 0.39063,0.10938 0.65625,0.25 l 0,-3.26562 1.57813,-0.26563 0,9.89063 z m 4.55292,0.32812 q -0.6875,-0.0156 -1.15625,-0.15625 -0.46875,-0.14062 -0.73438,-0.40625 -0.26562,-0.26562 -0.39062,-0.65625 -0.10938,-0.40625 -0.10938,-0.90625 l 0,-7.82812 1.57813,-0.26563 0,7.79688 q 0,0.28125 0.0469,0.48437 0.0469,0.1875 0.15625,0.32813 0.125,0.125 0.32813,0.20312 0.20312,0.0781 0.51562,0.10938 l -0.23437,1.29687 z m 1.22406,-3.48437 q 0,-0.90625 0.26562,-1.57813 0.26563,-0.67187 0.70313,-1.125 0.45312,-0.45312 1.01562,-0.67187 0.5781,-0.23438 1.17185,-0.23438 1.40625,0 2.1875,0.875 0.79687,0.875 0.79687,2.59375 0,0.14063 -0.0156,0.29688 0,0.15625 -0.0156,0.29687 l -4.48434,0 q 0.0625,0.8125 0.57812,1.26563 0.5156,0.4375 1.48435,0.4375 0.57812,0 1.04687,-0.0937 0.48438,-0.10938 0.75,-0.21875 l 0.20313,1.28125 q -0.125,0.0625 -0.35938,0.14062 -0.21875,0.0625 -0.51562,0.125 -0.29688,0.0625 -0.64063,0.0937 -0.32812,0.0469 -0.67187,0.0469 -0.90625,0 -1.5781,-0.26563 -0.65625,-0.26562 -1.07812,-0.73437 -0.42188,-0.48438 -0.64063,-1.125 -0.20312,-0.64063 -0.20312,-1.40625 z m 4.56247,-0.70313 q 0,-0.32812 -0.0937,-0.625 -0.0937,-0.29687 -0.26563,-0.5 -0.17187,-0.21875 -0.4375,-0.34375 -0.25,-0.125 -0.59375,-0.125 -0.35937,0 -0.64062,0.14063 -0.2656,0.14062 -0.4531,0.35937 -0.1875,0.21875 -0.29687,0.5 -0.10938,0.28125 -0.14063,0.59375 l 2.92185,0 z"
       id="path21"
       inkscape:connector-curvature="0"
       style="fill:#000000;fill-rule:nonzero;stroke:none;stroke-linecap:square;stroke-miterlimit:10" />
    <path
       d="m 335.23757,387.92662 c 67.81103,0 135.62207,-19.22836 135.62207,-38.4567"
       id="path23"
       inkscape:connector-curvature="0"
       style="fill:#000000;fill-opacity:0;fill-rule:evenodd;stroke:none;stroke-linecap:square;stroke-miterlimit:10" />
    <path
       d="m 347.23595,387.72862 0.69962,-0.0226 c 4.22168,-0.14554 8.42672,-0.36148 12.59869,-0.64313 8.34393,-0.56336 16.55542,-1.38956 24.50204,-2.4411 15.89319,-2.10312 30.72687,-5.10755 43.44144,-8.71286 25.42914,-7.21063 42.3819,-16.8248 42.3819,-26.43897"
       id="path25"
       inkscape:connector-curvature="0"
       style="fill:none;fill-rule:evenodd;stroke:#000000;stroke-width:2;stroke-linecap:butt;stroke-linejoin:round;stroke-miterlimit:10;stroke-dasharray:8, 6" />
    <path
       d="m 347.18145,384.42562 -9.02045,3.45276 9.12946,3.15326 z"
       id="path27"
       inkscape:connector-curvature="0"
       style="fill:#000000;fill-rule:evenodd;stroke:#000000;stroke-width:2;stroke-linecap:butt;stroke-miterlimit:10" />
    <path
       d="m 343.08272,377.55392 90.99213,0 0,43.74802 -90.99213,0 z"
       id="path29"
       inkscape:connector-curvature="0"
       style="fill:#000000;fill-opacity:0;fill-rule:evenodd;stroke:none;stroke-linecap:square;stroke-miterlimit:10" />
    <path
       d="m 364.19585,394.83828 q 0,-1.15625 0.34375,-2.03125 0.34375,-0.89062 0.9375,-1.48437 0.59375,-0.59375 1.375,-0.89063 0.79687,-0.29687 1.67187,-0.29687 0.875,0 1.64063,0.29687 0.78125,0.29688 1.35937,0.89063 0.59375,0.59375 0.9375,1.48437 0.34375,0.875 0.34375,2.03125 0,1.01563 -0.26562,1.8125 -0.25,0.79688 -0.71875,1.375 -0.45313,0.57813 -1.07813,0.9375 -0.60937,0.35938 -1.3125,0.48438 0.0156,0.29687 0.26563,0.51562 0.25,0.23438 0.64062,0.39063 0.39063,0.15625 0.85938,0.25 0.48437,0.10937 0.96875,0.17187 l -0.29688,0.98438 q -0.67187,-0.0937 -1.29687,-0.25 -0.60938,-0.14063 -1.10938,-0.39063 -0.5,-0.25 -0.84375,-0.64062 -0.32812,-0.375 -0.45312,-0.9375 -0.8125,-0.0625 -1.54688,-0.39063 -0.73437,-0.32812 -1.26562,-0.92187 -0.53125,-0.59375 -0.84375,-1.4375 -0.3125,-0.84375 -0.3125,-1.95313 z m 1.32812,0 q 0,0.82813 0.20313,1.5 0.21875,0.65625 0.59375,1.125 0.39062,0.46875 0.9375,0.73438 0.5625,0.25 1.25,0.25 0.6875,0 1.23437,-0.25 0.54688,-0.26563 0.92188,-0.73438 0.39062,-0.46875 0.59375,-1.125 0.20312,-0.67187 0.20312,-1.5 0,-0.8125 -0.20312,-1.48437 -0.20313,-0.67188 -0.59375,-1.14063 -0.375,-0.46875 -0.92188,-0.71875 -0.54687,-0.25 -1.23437,-0.25 -0.6875,0 -1.25,0.25 -0.54688,0.25 -0.9375,0.71875 -0.375,0.46875 -0.59375,1.14063 -0.20313,0.67187 -0.20313,1.48437 z m 8.24424,5.89063 6.5,0 0,1.03125 -6.5,0 0,-1.03125 z m 7.35431,-5.89063 q 0,-1.15625 0.34375,-2.03125 0.34375,-0.89062 0.9375,-1.48437 0.59375,-0.59375 1.375,-0.89063 0.79687,-0.29687 1.67187,-0.29687 0.875,0 1.64063,0.29687 0.78125,0.29688 1.35937,0.89063 0.59375,0.59375 0.9375,1.48437 0.34375,0.875 0.34375,2.03125 0,1.15625 -0.34375,2.04688 -0.34375,0.875 -0.9375,1.46875 -0.57812,0.59375 -1.35937,0.89062 -0.76563,0.29688 -1.64063,0.29688 -0.875,0 -1.67187,-0.29688 -0.78125,-0.29687 -1.375,-0.89062 -0.59375,-0.59375 -0.9375,-1.46875 -0.34375,-0.89063 -0.34375,-2.04688 z m 1.32812,0 q 0,0.82813 0.20313,1.5 0.21875,0.65625 0.59375,1.125 0.39062,0.46875 0.9375,0.73438 0.5625,0.25 1.25,0.25 0.6875,0 1.23437,-0.25 0.54688,-0.26563 0.92188,-0.73438 0.39062,-0.46875 0.59375,-1.125 0.20312,-0.67187 0.20312,-1.5 0,-0.8125 -0.20312,-1.48437 -0.20313,-0.67188 -0.59375,-1.14063 -0.375,-0.46875 -0.92188,-0.71875 -0.54687,-0.25 -1.23437,-0.25 -0.6875,0 -1.25,0.25 -0.54688,0.25 -0.9375,0.71875 -0.375,0.46875 -0.59375,1.14063 -0.20313,0.67187 -0.20313,1.48437 z m 14.71298,4.32813 q -0.42187,0.0937 -1.10937,0.20312 -0.67188,0.125 -1.5625,0.125 -0.78125,0 -1.32813,-0.21875 -0.53125,-0.23437 -0.85937,-0.64062 -0.3125,-0.42188 -0.45313,-0.98438 -0.14062,-0.57812 -0.14062,-1.26562 l 0,-3.79688 1.20312,0 0,3.54688 q 0,1.23437 0.39063,1.76562 0.39062,0.53125 1.3125,0.53125 0.1875,0 0.39062,-0.0156 0.21875,-0.0156 0.39063,-0.0312 0.1875,-0.0156 0.32812,-0.0312 0.15625,-0.0312 0.23438,-0.0469 l 0,-5.71875 1.20312,0 0,6.57813 z m 3.40033,-6.57813 2.5625,0 0,1.01563 -2.5625,0 0,3.125 q 0,0.5 0.0781,0.84375 0.0781,0.32812 0.23437,0.51562 0.15625,0.1875 0.39063,0.26563 0.23437,0.0781 0.54687,0.0781 0.54688,0 0.875,-0.125 0.32813,-0.125 0.46875,-0.17187 l 0.21875,1 q -0.17187,0.0937 -0.625,0.21875 -0.45312,0.14062 -1.04687,0.14062 -0.6875,0 -1.14063,-0.17187 -0.4375,-0.17188 -0.71875,-0.51563 -0.26562,-0.35937 -0.375,-0.875 -0.10937,-0.51562 -0.10937,-1.1875 l 0,-6.03125 1.20312,-0.21875 0,2.09375 z m 6.95227,3.75 5.95313,0 0,1.03125 -5.95313,0 0,-1.03125 z m 0,-2.76562 5.95313,0 0,1.01562 -5.95313,0 0,-1.01562 z m 10.9552,-0.78125 q 0.40625,-0.10938 1.09375,-0.21875 0.6875,-0.125 1.59375,-0.125 0.79688,0 1.32813,0.23437 0.54687,0.21875 0.85937,0.64063 0.3125,0.40625 0.4375,0.98437 0.14063,0.5625 0.14063,1.25 l 0,3.79688 -1.20313,0 0,-3.53125 q 0,-0.625 -0.0937,-1.0625 -0.0781,-0.45313 -0.28125,-0.71875 -0.1875,-0.28125 -0.51562,-0.40625 -0.32813,-0.125 -0.8125,-0.125 -0.1875,0 -0.40625,0.0156 -0.20313,0.0156 -0.39063,0.0469 -0.1875,0.0156 -0.34375,0.0469 -0.14062,0.0156 -0.20312,0.0312 l 0,5.70313 -1.20313,0 0,-6.5625 z"
       id="path31"
       inkscape:connector-curvature="0"
       style="fill:#000000;fill-rule:nonzero;stroke:none;stroke-linecap:square;stroke-miterlimit:10" />
    <path
       d="m 357.64352,408.79142 q 0.40625,-0.10938 1.09375,-0.21875 0.6875,-0.125 1.59375,-0.125 0.79687,0 1.32812,0.23437 0.54688,0.21875 0.85938,0.64063 0.3125,0.40625 0.4375,0.98437 0.14062,0.5625 0.14062,1.25 l 0,3.79688 -1.20312,0 0,-3.53125 q 0,-0.625 -0.0937,-1.0625 -0.0781,-0.45313 -0.28125,-0.71875 -0.1875,-0.28125 -0.51563,-0.40625 -0.32812,-0.125 -0.8125,-0.125 -0.1875,0 -0.40625,0.0156 -0.20312,0.0156 -0.39062,0.0469 -0.1875,0.0156 -0.34375,0.0469 -0.14063,0.0156 -0.20313,0.0312 l 0,5.70313 -1.20312,0 0,-6.5625 z"
       id="path33"
       inkscape:connector-curvature="0"
       style="fill:#000000;fill-rule:nonzero;stroke:none;stroke-linecap:square;stroke-miterlimit:10" />
    <path
       d="m 372.5601,415.35392 -1.76562,0 q -1.54688,0 -2.29688,-0.95313 -0.6875,-0.875 -0.65625,-2.42187 0.0156,-1.53125 0.73438,-2.40625 0.79687,-0.95313 2.32812,-0.95313 l 1.65625,0 0,0.98438 -1.71875,0 q -0.8125,0 -1.29687,0.53125 -0.4375,0.48437 -0.53125,1.29687 l 2.375,0 0,0.9375 -2.375,0 q 0.1875,2 1.84375,2 l 1.70312,0 0,0.98438 z"
       id="path35"
       inkscape:connector-curvature="0"
       style="fill:#000000;fill-rule:nonzero;stroke:none;stroke-linecap:square;stroke-miterlimit:10" />
    <path
       d="m 376.80978,410.99452 q 0.3125,0 0.53125,-0.10938 0.23437,-0.10937 0.375,-0.28125 0.15625,-0.17187 0.21875,-0.39062 0.0781,-0.23438 0.0781,-0.46875 l 0,-2.34375 q 0,-0.53125 0.10938,-0.95313 0.125,-0.42187 0.40625,-0.6875 0.28125,-0.28125 0.75,-0.42187 0.48437,-0.15625 1.1875,-0.15625 l 0.0469,0 0,0.9375 q -0.73437,0 -1.0625,0.26562 -0.3125,0.26563 -0.3125,1.03125 l 0,2 q 0,0.85938 -0.23437,1.32813 -0.21875,0.46875 -0.64063,0.71875 0.42188,0.26562 0.64063,0.73437 0.23437,0.46875 0.23437,1.32813 l 0,2 q 0,0.75 0.3125,1.01562 0.32813,0.26563 1.0625,0.26563 l 0,0.95312 -0.0469,0 q -0.70313,0 -1.1875,-0.14062 -0.46875,-0.14063 -0.75,-0.4375 -0.28125,-0.28125 -0.40625,-0.70313 -0.10938,-0.40625 -0.10938,-0.9375 l 0,-2.34375 q 0,-0.23437 -0.0781,-0.45312 -0.0625,-0.23438 -0.21875,-0.40625 -0.14063,-0.1875 -0.375,-0.29688 -0.21875,-0.10937 -0.53125,-0.10937 l 0,-0.9375 z m 5.12573,-2.79688 q 0.75,-0.28125 1.45313,-0.71875 0.70312,-0.45312 1.28125,-1.14062 l 0.85937,0 0,9.01562 -1.20312,0 0,-7.32812 q -0.15625,0.14062 -0.39063,0.29687 -0.21875,0.15625 -0.5,0.29688 -0.26562,0.14062 -0.5625,0.28125 -0.28125,0.125 -0.54687,0.21875 l -0.39063,-0.92188 z m 8.62641,5.67188 q 0.0156,0.10937 0.0156,0.20312 0,0.0937 0,0.20313 0,0.8125 -0.25,1.60937 -0.23437,0.8125 -0.64062,1.53125 l -0.9375,-0.29687 q 0.3125,-0.65625 0.42187,-1.34375 0.10938,-0.6875 0.10938,-1.28125 0,-0.17188 -0.0156,-0.32813 0,-0.15625 -0.0156,-0.29687 l 1.3125,0 z m 7.04434,-5.21875 q 0,0.46875 -0.20313,0.90625 -0.1875,0.42187 -0.5,0.84375 -0.3125,0.42187 -0.70312,0.84375 -0.375,0.40625 -0.76563,0.79687 -0.23437,0.21875 -0.53125,0.51563 -0.28125,0.29687 -0.54687,0.625 -0.25,0.32812 -0.4375,0.625 -0.17188,0.29687 -0.17188,0.51562 l 4.15625,0 0,1.03125 -5.46875,0 q -0.0156,-0.0781 -0.0156,-0.15625 0,-0.0781 0,-0.14062 0,-0.60938 0.20312,-1.14063 0.20313,-0.53125 0.53125,-1 0.32813,-0.46875 0.71875,-0.875 0.40625,-0.42187 0.79688,-0.8125 0.32812,-0.3125 0.625,-0.60937 0.29687,-0.3125 0.51562,-0.60938 0.23438,-0.3125 0.35938,-0.64062 0.14062,-0.32813 0.14062,-0.6875 0,-0.39063 -0.125,-0.65625 -0.125,-0.28125 -0.32812,-0.45313 -0.20313,-0.1875 -0.48438,-0.26562 -0.28125,-0.0937 -0.59375,-0.0937 -0.375,0 -0.6875,0.10937 -0.3125,0.0937 -0.5625,0.23438 -0.25,0.14062 -0.42187,0.29687 -0.15625,0.14063 -0.25,0.21875 l -0.59375,-0.85937 q 0.10937,-0.125 0.34375,-0.3125 0.23437,-0.1875 0.5625,-0.35938 0.32812,-0.17187 0.71875,-0.28125 0.40625,-0.125 0.875,-0.125 1.42187,0 2.125,0.65625 0.71875,0.65625 0.71875,1.85938 z m 3.7514,5.21875 q 0.0156,0.10937 0.0156,0.20312 0,0.0937 0,0.20313 0,0.8125 -0.25,1.60937 -0.23438,0.8125 -0.64063,1.53125 l -0.9375,-0.29687 q 0.3125,-0.65625 0.42188,-1.34375 0.10937,-0.6875 0.10937,-1.28125 0,-0.17188 -0.0156,-0.32813 0,-0.15625 -0.0156,-0.29687 l 1.3125,0 z m 3.90369,0.59375 q 1.15625,0 1.65625,-0.45313 0.5,-0.45312 0.5,-1.21875 0,-0.5 -0.20313,-0.82812 -0.20312,-0.34375 -0.54687,-0.54688 -0.34375,-0.20312 -0.79688,-0.28125 -0.4375,-0.0781 -0.90625,-0.0781 l -0.3125,0 0,-1 0.42188,0 q 0.32812,0 0.67187,-0.0625 0.34375,-0.0625 0.625,-0.23438 0.29688,-0.17187 0.46875,-0.45312 0.1875,-0.29688 0.1875,-0.73438 0,-0.375 -0.125,-0.625 -0.125,-0.26562 -0.34375,-0.4375 -0.21875,-0.17187 -0.5,-0.23437 -0.28125,-0.0781 -0.59375,-0.0781 -0.625,0 -1.0625,0.1875 -0.42187,0.1875 -0.71875,0.375 l -0.46875,-0.92187 q 0.15625,-0.10938 0.39063,-0.21875 0.23437,-0.125 0.53125,-0.23438 0.3125,-0.10937 0.65625,-0.17187 0.34375,-0.0781 0.71875,-0.0781 0.71875,0 1.23437,0.1875 0.51563,0.17188 0.84375,0.48438 0.34375,0.3125 0.51563,0.75 0.17187,0.4375 0.17187,0.95312 0,0.6875 -0.40625,1.20313 -0.40625,0.5 -0.96875,0.75 0.34375,0.10937 0.67188,0.3125 0.32812,0.1875 0.5625,0.48437 0.25,0.29688 0.39062,0.6875 0.15625,0.39063 0.15625,0.875 0,0.57813 -0.20312,1.07813 -0.20313,0.5 -0.625,0.875 -0.42188,0.35937 -1.0625,0.5625 -0.64063,0.20312 -1.5,0.20312 -0.34375,0 -0.70313,-0.0469 -0.35937,-0.0469 -0.67187,-0.125 -0.3125,-0.0781 -0.54688,-0.15625 -0.23437,-0.0781 -0.32812,-0.125 l 0.23437,-1.0625 q 0.21875,0.10937 0.73438,0.28125 0.51562,0.15625 1.25,0.15625 z m 6.89203,-0.59375 q 0.0156,0.10937 0.0156,0.20312 0,0.0937 0,0.20313 0,0.8125 -0.25,1.60937 -0.23437,0.8125 -0.64062,1.53125 l -0.9375,-0.29687 q 0.3125,-0.65625 0.42187,-1.34375 0.10938,-0.6875 0.10938,-1.28125 0,-0.17188 -0.0156,-0.32813 0,-0.15625 -0.0156,-0.29687 l 1.3125,0 z m 1.48184,-1.64063 q 0.25,-0.5625 0.67187,-1.32812 0.4375,-0.76563 0.96875,-1.5625 0.54688,-0.8125 1.15625,-1.59375 0.625,-0.78125 1.25,-1.40625 l 1.15625,0 0,5.73437 1.0625,0 0,0.98438 -1.0625,0 0,2.29687 -1.17187,0 0,-2.29687 -4.03125,0 0,-0.82813 z m 4.03125,-4.45312 q -0.39063,0.42187 -0.79688,0.9375 -0.39062,0.5 -0.76562,1.0625 -0.375,0.5625 -0.70313,1.15625 -0.32812,0.57812 -0.59375,1.14062 l 2.85938,0 0,-4.29687 z m 6.78265,4.15625 q -0.3125,0 -0.53125,0.10937 -0.21875,0.10938 -0.375,0.29688 -0.15625,0.17187 -0.23437,0.40625 -0.0625,0.21875 -0.0625,0.45312 l 0,2.34375 q 0,0.53125 -0.125,0.9375 -0.10938,0.42188 -0.39063,0.70313 -0.28125,0.29687 -0.76562,0.4375 -0.46875,0.14062 -1.17188,0.14062 l -0.0469,0 0,-0.95312 q 0.73437,0 1.04687,-0.26563 0.32813,-0.26562 0.32813,-1.01562 l 0,-2 q 0,-0.85938 0.21875,-1.32813 0.23437,-0.46875 0.65625,-0.73437 -0.42188,-0.25 -0.65625,-0.71875 -0.21875,-0.46875 -0.21875,-1.32813 l 0,-2 q 0,-0.76562 -0.32813,-1.03125 -0.3125,-0.26562 -1.04687,-0.26562 l 0,-0.9375 0.0469,0 q 0.70313,0 1.17188,0.15625 0.48437,0.14062 0.76562,0.42187 0.28125,0.26563 0.39063,0.6875 0.125,0.42188 0.125,0.95313 l 0,2.34375 q 0,0.23437 0.0625,0.46875 0.0781,0.21875 0.23437,0.39062 0.15625,0.17188 0.375,0.28125 0.21875,0.10938 0.53125,0.10938 l 0,0.9375 z"
       id="path37"
       inkscape:connector-curvature="0"
       style="fill:#000000;fill-rule:nonzero;stroke:none;stroke-linecap:square;stroke-miterlimit:10" />
    <path
       d="m 124.0801,387.56442 81.00787,0 0,30.01575 -81.00787,0 z"
       id="path39"
       inkscape:connector-curvature="0"
       style="fill:#6d9eeb;fill-rule:evenodd;stroke:none;stroke-linecap:square;stroke-miterlimit:10" />
    <path
       d="m 124.0801,387.56442 81.00787,0 0,30.01575 -81.00787,0 z"
       id="path41"
       inkscape:connector-curvature="0"
       style="fill:none;fill-rule:evenodd;stroke:#000000;stroke-width:2;stroke-linecap:butt;stroke-linejoin:round;stroke-miterlimit:10" />
    <path
       d="m 134.90125,402.89852 q 0,-1.6875 0.5,-2.98438 0.5,-1.29687 1.35937,-2.15625 0.875,-0.85937 2.01563,-1.29687 1.15625,-0.4375 2.4375,-0.4375 1.28125,0 2.40625,0.4375 1.14062,0.4375 1.98437,1.29687 0.85938,0.85938 1.35938,2.15625 0.51562,1.29688 0.51562,2.98438 0,1.48437 -0.39062,2.64062 -0.375,1.15625 -1.04688,2 -0.67187,0.84375 -1.57812,1.375 -0.90625,0.51563 -1.9375,0.71875 0.0312,0.42188 0.39062,0.75 0.375,0.34375 0.9375,0.5625 0.57813,0.23438 1.28125,0.39063 0.70313,0.15625 1.40625,0.23437 l -0.4375,1.4375 q -0.98437,-0.14062 -1.89062,-0.35937 -0.90625,-0.21875 -1.64063,-0.57813 -0.71875,-0.35937 -1.21875,-0.92187 -0.5,-0.54688 -0.67187,-1.39063 -1.1875,-0.0781 -2.25,-0.5625 -1.0625,-0.48437 -1.84375,-1.34375 -0.78125,-0.875 -1.23438,-2.10937 -0.45312,-1.23438 -0.45312,-2.84375 z m 1.9375,0 q 0,1.20312 0.29687,2.1875 0.29688,0.96875 0.85938,1.65625 0.5625,0.67187 1.375,1.04687 0.8125,0.375 1.8125,0.375 1,0 1.79687,-0.375 0.8125,-0.375 1.35938,-1.04687 0.5625,-0.6875 0.85937,-1.65625 0.3125,-0.98438 0.3125,-2.1875 0,-1.20313 -0.3125,-2.17188 -0.29687,-0.98437 -0.85937,-1.65625 -0.54688,-0.6875 -1.35938,-1.0625 -0.79687,-0.375 -1.79687,-0.375 -1,0 -1.8125,0.375 -0.8125,0.375 -1.375,1.0625 -0.5625,0.67188 -0.85938,1.65625 -0.29687,0.96875 -0.29687,2.17188 z m 11.38957,8.60937 9.5,0 0,1.5 -9.5,0 0,-1.5 z m 10.36638,-8.60937 q 0,-1.6875 0.5,-2.98438 0.5,-1.29687 1.35938,-2.15625 0.875,-0.85937 2.01562,-1.29687 1.15625,-0.4375 2.4375,-0.4375 1.28125,0 2.40625,0.4375 1.14063,0.4375 1.98438,1.29687 0.85937,0.85938 1.35937,2.15625 0.51563,1.29688 0.51563,2.98438 0,1.6875 -0.51563,2.98437 -0.5,1.29688 -1.35937,2.15625 -0.84375,0.85938 -1.98438,1.29688 -1.125,0.4375 -2.40625,0.4375 -1.28125,0 -2.4375,-0.4375 -1.14062,-0.4375 -2.01562,-1.29688 -0.85938,-0.85937 -1.35938,-2.15625 -0.5,-1.29687 -0.5,-2.98437 z m 1.9375,0 q 0,1.20312 0.29688,2.1875 0.29687,0.96875 0.85937,1.65625 0.5625,0.67187 1.375,1.04687 0.8125,0.375 1.8125,0.375 1,0 1.79688,-0.375 0.8125,-0.375 1.35937,-1.04687 0.5625,-0.6875 0.85938,-1.65625 0.3125,-0.98438 0.3125,-2.1875 0,-1.20313 -0.3125,-2.17188 -0.29688,-0.98437 -0.85938,-1.65625 -0.54687,-0.6875 -1.35937,-1.0625 -0.79688,-0.375 -1.79688,-0.375 -1,0 -1.8125,0.375 -0.8125,0.375 -1.375,1.0625 -0.5625,0.67188 -0.85937,1.65625 -0.29688,0.96875 -0.29688,2.17188 z m 17.99895,6.875 q -1.28125,0 -2.23438,-0.39063 -0.95312,-0.40625 -1.5625,-1.09375 -0.60937,-0.70312 -0.90625,-1.64062 -0.29687,-0.95313 -0.29687,-2.0625 l 0,-8.26563 1.84375,0 0,8.0625 q 0,1.96875 0.875,2.875 0.875,0.89063 2.28125,0.89063 0.70312,0 1.28125,-0.21875 0.57812,-0.21875 1,-0.67188 0.42187,-0.46875 0.64062,-1.17187 0.23438,-0.71875 0.23438,-1.70313 l 0,-8.0625 1.84375,0 0,8.26563 q 0,1.10937 -0.29688,2.0625 -0.29687,0.9375 -0.92187,1.64062 -0.60938,0.6875 -1.54688,1.09375 -0.9375,0.39063 -2.23437,0.39063 z m 16.74176,-13.45313 0,1.59375 -4.15625,0 0,11.57813 -1.82813,0 0,-11.57813 -4.15625,0 0,-1.59375 10.14063,0 z"
       id="path43"
       inkscape:connector-curvature="0"
       style="fill:#000000;fill-rule:nonzero;stroke:none;stroke-linecap:square;stroke-miterlimit:10" />
    <path
       d="m 133.0801,221.99749 60,0 0,30.01575 -60,0 z"
       id="path45"
       inkscape:connector-curvature="0"
       style="fill:#6d9eeb;fill-rule:evenodd;stroke:none;stroke-linecap:square;stroke-miterlimit:10" />
    <path
       d="m 133.0801,221.99749 60,0 0,30.01575 -60,0 z"
       id="path47"
       inkscape:connector-curvature="0"
       style="fill:none;fill-rule:evenodd;stroke:#000000;stroke-width:2;stroke-linecap:butt;stroke-linejoin:round;stroke-miterlimit:10" />
    <path
       d="m 155.42058,230.75349 1.84375,0 0,13.17187 -1.84375,0 0,-13.17187 z m 14.03415,13.17187 q -0.42188,-0.70312 -0.96875,-1.57812 -0.53125,-0.875 -1.15625,-1.8125 -0.625,-0.9375 -1.29688,-1.90625 -0.67187,-0.96875 -1.34375,-1.875 -0.67187,-0.90625 -1.29687,-1.70313 -0.625,-0.79687 -1.15625,-1.40625 l 0,10.28125 -1.79688,0 0,-13.17187 1.45313,0 q 0.89062,0.95312 1.90625,2.21875 1.01562,1.26562 2.01562,2.60937 1,1.32813 1.875,2.625 0.89063,1.29688 1.5,2.29688 l 0,-9.75 1.8125,0 0,13.17187 -1.54687,0 z"
       id="path49"
       inkscape:connector-curvature="0"
       style="fill:#000000;fill-rule:nonzero;stroke:none;stroke-linecap:square;stroke-miterlimit:10" />
    <path
       d="m 254.2297,387.92662 0,0 c 0,-21.23904 18.13425,-38.4567 40.50394,-38.4567 l 0,0 c 10.74231,0 21.04464,4.05167 28.64062,11.26371 7.59595,7.21203 11.86331,16.99362 11.86331,27.19299 l 0,0 c 0,21.23904 -18.13421,38.45669 -40.50393,38.45669 l 0,0 c -22.36969,0 -40.50394,-17.21765 -40.50394,-38.45669 z"
       id="path51"
       inkscape:connector-curvature="0"
       style="fill:#cfe2f3;fill-rule:evenodd;stroke:none;stroke-linecap:square;stroke-miterlimit:10" />
    <path
       d="m 254.2297,387.92662 0,0 c 0,-21.23904 18.13425,-38.4567 40.50394,-38.4567 l 0,0 c 10.74231,0 21.04464,4.05167 28.64062,11.26371 7.59595,7.21203 11.86331,16.99362 11.86331,27.19299 l 0,0 c 0,21.23904 -18.13421,38.45669 -40.50393,38.45669 l 0,0 c -22.36969,0 -40.50394,-17.21765 -40.50394,-38.45669 z"
       id="path53"
       inkscape:connector-curvature="0"
       style="fill:none;fill-rule:evenodd;stroke:#000000;stroke-width:1;stroke-linecap:butt;stroke-linejoin:round;stroke-miterlimit:10" />
    <path
       d="m 279.1617,389.36725 q 0,0.98437 0.39062,1.57812 0.40625,0.57813 1.26563,0.57813 0.39062,0 0.73437,-0.125 0.34375,-0.125 0.54688,-0.26563 l 0,-3.89062 q -0.17188,-0.0469 -0.42188,-0.0781 -0.25,-0.0312 -0.65625,-0.0312 -0.875,0 -1.375,0.59375 -0.48437,0.59375 -0.48437,1.64063 z m -1.60938,-0.0312 q 0,-0.8125 0.23438,-1.46875 0.25,-0.65625 0.6875,-1.10938 0.45312,-0.46875 1.09375,-0.71875 0.64062,-0.25 1.4375,-0.25 0.8125,0 1.51562,0.125 0.70313,0.10938 1.15625,0.23438 l 0,8.98437 -1.57812,0 0,-2.64062 q -0.26563,0.14062 -0.67188,0.25 -0.39062,0.125 -0.875,0.125 -0.71875,0 -1.28125,-0.25 -0.5625,-0.25 -0.9375,-0.71875 -0.375,-0.46875 -0.57812,-1.10938 -0.20313,-0.65625 -0.20313,-1.45312 z m 13.89667,3.1875 q -0.45312,0.10937 -1.1875,0.23437 -0.71875,0.125 -1.59375,0.125 -0.8125,0 -1.375,-0.23437 -0.54687,-0.23438 -0.89062,-0.64063 -0.32813,-0.42187 -0.46875,-1 -0.14063,-0.57812 -0.14063,-1.26562 l 0,-3.8125 1.57813,0 0,3.5625 q 0,1.09375 0.3125,1.5625 0.32812,0.46875 1.10937,0.46875 0.29688,0 0.60938,-0.0312 0.3125,-0.0312 0.46875,-0.0625 l 0,-5.5 1.57812,0 0,6.59375 z m 1.81714,-3.15625 q 0,-0.90625 0.26563,-1.57813 0.26562,-0.67187 0.70312,-1.125 0.45313,-0.45312 1.01563,-0.67187 0.57812,-0.23438 1.17187,-0.23438 1.40625,0 2.1875,0.875 0.79688,0.875 0.79688,2.59375 0,0.14063 -0.0156,0.29688 0,0.15625 -0.0156,0.29687 l -4.48438,0 q 0.0625,0.8125 0.57813,1.26563 0.51562,0.4375 1.48437,0.4375 0.57813,0 1.04688,-0.0937 0.48437,-0.10938 0.75,-0.21875 l 0.20312,1.28125 q -0.125,0.0625 -0.35937,0.14062 -0.21875,0.0625 -0.51563,0.125 -0.29687,0.0625 -0.64062,0.0937 -0.32813,0.0469 -0.67188,0.0469 -0.90625,0 -1.57812,-0.26563 -0.65625,-0.26562 -1.07813,-0.73437 -0.42187,-0.48438 -0.64062,-1.125 -0.20313,-0.64063 -0.20313,-1.40625 z m 4.5625,-0.70313 q 0,-0.32812 -0.0937,-0.625 -0.0937,-0.29687 -0.26562,-0.5 -0.17188,-0.21875 -0.4375,-0.34375 -0.25,-0.125 -0.59375,-0.125 -0.35938,0 -0.64063,0.14063 -0.26562,0.14062 -0.45312,0.35937 -0.1875,0.21875 -0.29688,0.5 -0.10937,0.28125 -0.14062,0.59375 l 2.92187,0 z m 7.29782,-1.3125 q -0.1875,-0.0781 -0.54687,-0.14062 -0.34375,-0.0781 -0.79688,-0.0781 -0.25,0 -0.54687,0.0625 -0.29688,0.0469 -0.40625,0.0781 l 0,5.45312 -1.57813,0 0,-6.46875 q 0.45313,-0.17187 1.14063,-0.3125 0.6875,-0.15625 1.51562,-0.15625 0.15625,0 0.35938,0.0156 0.20312,0.0156 0.40625,0.0469 0.21875,0.0312 0.40625,0.0781 0.20312,0.0469 0.3125,0.0937 l -0.26563,1.32812 z m 7.04309,-1.42187 q -1.04687,3.875 -2.4375,7.01562 -0.26562,0.59375 -0.54687,1 -0.26563,0.42188 -0.60938,0.6875 -0.32812,0.28125 -0.75,0.40625 -0.40625,0.125 -0.95312,0.125 -0.35938,0 -0.71875,-0.0781 -0.35938,-0.0781 -0.54688,-0.17188 l 0.28125,-1.26562 q 0.46875,0.1875 0.9375,0.1875 0.60938,0 0.95313,-0.29688 0.34375,-0.29687 0.59375,-0.90625 -0.73438,-1.42187 -1.42188,-3.10937 -0.67187,-1.70313 -1.21875,-3.59375 l 1.6875,0 q 0.125,0.54687 0.3125,1.1875 0.1875,0.625 0.40625,1.28125 0.23438,0.65625 0.46875,1.3125 0.25,0.65625 0.5,1.20312 0.42188,-1.15625 0.78125,-2.45312 0.35938,-1.3125 0.65625,-2.53125 l 1.625,0 z"
       id="path55"
       inkscape:connector-curvature="0"
       style="fill:#000000;fill-rule:nonzero;stroke:none;stroke-linecap:square;stroke-miterlimit:10" />
    <path
       d="m 254.22982,267.01062 0,0 c 0,-21.23904 18.13422,-38.4567 40.50394,-38.4567 l 0,0 c 10.74231,0 21.04464,4.05169 28.64059,11.26371 7.59598,7.21203 11.86334,16.99363 11.86334,27.19299 l 0,0 c 0,21.23904 -18.13424,38.45669 -40.50393,38.45669 l 0,0 c -22.36972,0 -40.50394,-17.21765 -40.50394,-38.45669 z"
       id="path57"
       inkscape:connector-curvature="0"
       style="fill:#cfe2f3;fill-rule:evenodd;stroke:none;stroke-linecap:square;stroke-miterlimit:10" />
    <path
       d="m 254.22982,267.01062 0,0 c 0,-21.23904 18.13422,-38.4567 40.50394,-38.4567 l 0,0 c 10.74231,0 21.04464,4.05169 28.64059,11.26371 7.59598,7.21203 11.86334,16.99363 11.86334,27.19299 l 0,0 c 0,21.23904 -18.13424,38.45669 -40.50393,38.45669 l 0,0 c -22.36972,0 -40.50394,-17.21765 -40.50394,-38.45669 z"
       id="path59"
       inkscape:connector-curvature="0"
       style="fill:none;fill-rule:evenodd;stroke:#000000;stroke-width:1;stroke-linecap:butt;stroke-linejoin:round;stroke-miterlimit:10" />
    <path
       d="m 283.53008,260.41998 q 0,-0.75 0.23437,-1.40625 0.23438,-0.65625 0.67188,-1.14063 0.4375,-0.48437 1.0625,-0.75 0.625,-0.28125 1.39062,-0.28125 0.96875,0 1.82813,0.35938 l -0.34375,1.28125 q -0.26563,-0.125 -0.60938,-0.20313 -0.34375,-0.0781 -0.73437,-0.0781 -0.92188,0 -1.40625,0.57812 -0.48438,0.57813 -0.48438,1.64063 0,1.01562 0.45313,1.60937 0.45312,0.57813 1.53125,0.57813 0.40625,0 0.79687,-0.0781 0.39063,-0.0781 0.67188,-0.1875 l 0.23437,1.29688 q -0.26562,0.14062 -0.79687,0.23439 -0.51563,0.10938 -1.07813,0.10938 -0.875,0 -1.51562,-0.26565 -0.64063,-0.26562 -1.0625,-0.73437 -0.42188,-0.48438 -0.64063,-1.14063 -0.20312,-0.65625 -0.20312,-1.42187 z m 9.05649,2.28125 q 0.73437,0 1.10937,-0.0781 l 0,-1.73437 q -0.125,-0.0469 -0.375,-0.0781 -0.25,-0.0469 -0.54687,-0.0469 -0.26563,0 -0.53125,0.0469 -0.26563,0.0312 -0.48438,0.14063 -0.20312,0.10937 -0.34375,0.29687 -0.125,0.1875 -0.125,0.46875 0,0.5625 0.34375,0.78125 0.35938,0.20313 0.95313,0.20313 z m -0.125,-5.85938 q 0.78125,0 1.3125,0.20313 0.53125,0.1875 0.84375,0.54687 0.32812,0.34375 0.45312,0.84375 0.14063,0.5 0.14063,1.09375 l 0,4.125 q -0.35938,0.0781 -1.09375,0.18752 -0.73438,0.10938 -1.65625,0.10938 -0.60938,0 -1.125,-0.125 -0.5,-0.1094 -0.85938,-0.3594 -0.35937,-0.26562 -0.5625,-0.67187 -0.20312,-0.42188 -0.20312,-1.03125 0,-0.59375 0.21875,-0.98438 0.23437,-0.40625 0.625,-0.65625 0.39062,-0.26562 0.90625,-0.375 0.51562,-0.10937 1.07812,-0.10937 0.25,0 0.53125,0.0312 0.29688,0.0312 0.625,0.10937 l 0,-0.26562 q 0,-0.26563 -0.0625,-0.51563 -0.0625,-0.25 -0.23437,-0.4375 -0.15625,-0.1875 -0.42188,-0.28125 -0.26562,-0.10937 -0.67187,-0.10937 -0.54688,0 -1,0.0781 -0.45313,0.0781 -0.75,0.1875 l -0.1875,-1.28125 q 0.29687,-0.10937 0.85937,-0.20312 0.57813,-0.10938 1.23438,-0.10938 z m 7.21094,7.09377 q -0.6875,-0.0156 -1.15625,-0.15626 -0.46875,-0.14063 -0.73438,-0.40625 -0.26562,-0.26563 -0.39062,-0.65625 -0.10938,-0.40625 -0.10938,-0.90625 l 0,-7.82813 1.57813,-0.26562 0,7.79687 q 0,0.28125 0.0469,0.48438 0.0469,0.1875 0.15625,0.32812 0.125,0.125 0.32813,0.20313 0.20312,0.0781 0.51562,0.10937 l -0.23437,1.29689 z m 1.22406,-3.51564 q 0,-0.75 0.23437,-1.40625 0.23438,-0.65625 0.67188,-1.14063 0.4375,-0.48437 1.0625,-0.75 0.625,-0.28125 1.39062,-0.28125 0.96875,0 1.82813,0.35938 l -0.34375,1.28125 q -0.26563,-0.125 -0.60938,-0.20313 -0.34375,-0.0781 -0.73437,-0.0781 -0.92188,0 -1.40625,0.57812 -0.48438,0.57813 -0.48438,1.64063 0,1.01562 0.45313,1.60937 0.45312,0.57813 1.53125,0.57813 0.40625,0 0.79687,-0.0781 0.39063,-0.0781 0.67188,-0.1875 l 0.23437,1.29688 q -0.26562,0.14062 -0.79687,0.23439 -0.51563,0.10938 -1.07813,0.10938 -0.875,0 -1.51562,-0.26565 -0.64063,-0.26562 -1.0625,-0.73437 -0.42188,-0.48438 -0.64063,-1.14063 -0.20312,-0.65625 -0.20312,-1.42187 z"
       id="path61"
       inkscape:connector-curvature="0"
       style="fill:#000000;fill-rule:nonzero;stroke:none;stroke-linecap:square;stroke-miterlimit:10" />
    <path
       d="m 266.09304,360.73364 c 0,-16.63242 7.15747,-26.35541 14.31494,-33.26486 7.1575,-6.90944 14.31497,-11.00536 14.31497,-22.01073"
       id="path63"
       inkscape:connector-curvature="0"
       style="fill:#000000;fill-opacity:0;fill-rule:evenodd;stroke:none;stroke-linecap:square;stroke-miterlimit:10" />
    <path
       d="m 266.09304,360.73364 c 0,-16.63245 7.15747,-26.35541 14.31497,-33.26486 3.57874,-3.45471 7.15747,-6.20607 9.84152,-9.46941 0.16776,-0.20393 0.33204,-0.40991 0.49256,-0.61816 0.0803,-0.10413 0.1596,-0.20883 0.238,-0.31415 l 0.12287,-0.16808"
       id="path65"
       inkscape:connector-curvature="0"
       style="fill:none;fill-rule:evenodd;stroke:#000000;stroke-width:2;stroke-linecap:butt;stroke-linejoin:round;stroke-miterlimit:10" />
    <path
       d="m 294.2525,317.89555 -0.41156,-9.64992 -5.88757,7.65682 z"
       id="path67"
       inkscape:connector-curvature="0"
       style="fill:#000000;fill-rule:evenodd;stroke:#000000;stroke-width:2;stroke-linecap:butt;stroke-miterlimit:10" />
    <path
       d="m 294.73376,228.55392 c 0,-12.49995 44.03149,-30.49992 88.06299,-24.99992 44.03149,5.5 88.06299,34.49997 88.06299,68.99992"
       id="path69"
       inkscape:connector-curvature="0"
       style="fill:#000000;fill-opacity:0;fill-rule:evenodd;stroke:none;stroke-linecap:square;stroke-miterlimit:10" />
    <path
       d="m 294.73376,228.55392 c 0,-12.49995 44.03146,-30.49992 88.06296,-24.99992 22.01575,2.75 44.03149,11.375 60.5433,23.62498 8.25592,6.12499 15.13584,13.15624 19.95179,20.81245 2.40795,3.82813 4.29995,7.8125 5.58993,11.91797 0.0806,0.2566 0.15891,0.51366 0.23477,0.77118 l 1.9e-4,6e-4"
       id="path71"
       inkscape:connector-curvature="0"
       style="fill:none;fill-rule:evenodd;stroke:#000000;stroke-width:2;stroke-linecap:butt;stroke-linejoin:round;stroke-miterlimit:10;stroke-dasharray:8, 6" />
    <path
       d="m 465.84826,261.16101 4.58676,8.50012 1.95011,-9.45978 z"
       id="path73"
       inkscape:connector-curvature="0"
       style="fill:#000000;fill-rule:evenodd;stroke:#000000;stroke-width:2;stroke-linecap:butt;stroke-miterlimit:10" />
    <path
       d="m 339.58666,210.53424 97.98425,0 0,30.01575 -97.98425,0 z"
       id="path75"
       inkscape:connector-curvature="0"
       style="fill:#000000;fill-opacity:0;fill-rule:evenodd;stroke:none;stroke-linecap:square;stroke-miterlimit:10" />
    <path
       d="m 351.79208,232.33424 0,-9.01563 5.48437,0 0,1.07813 -4.23437,0 0,2.6875 3.78125,0 0,1.04687 -3.78125,0 0,3.125 4.5625,0 0,1.07813 -5.8125,0 z m 6.43848,1.375 6.5,0 0,1.03125 -6.5,0 0,-1.03125 z m 7.35428,-5.89063 q 0,-1.15625 0.34375,-2.03125 0.34375,-0.89062 0.9375,-1.48437 0.59375,-0.59375 1.375,-0.89063 0.79687,-0.29687 1.67187,-0.29687 0.875,0 1.64063,0.29687 0.78125,0.29688 1.35937,0.89063 0.59375,0.59375 0.9375,1.48437 0.34375,0.875 0.34375,2.03125 0,1.15625 -0.34375,2.04688 -0.34375,0.875 -0.9375,1.46875 -0.57812,0.59375 -1.35937,0.89062 -0.76563,0.29688 -1.64063,0.29688 -0.875,0 -1.67187,-0.29688 -0.78125,-0.29687 -1.375,-0.89062 -0.59375,-0.59375 -0.9375,-1.46875 -0.34375,-0.89063 -0.34375,-2.04688 z m 1.32812,0 q 0,0.82813 0.20313,1.5 0.21875,0.65625 0.59375,1.125 0.39062,0.46875 0.9375,0.73438 0.5625,0.25 1.25,0.25 0.6875,0 1.23437,-0.25 0.54688,-0.26563 0.92188,-0.73438 0.39062,-0.46875 0.59375,-1.125 0.20312,-0.67187 0.20312,-1.5 0,-0.8125 -0.20312,-1.48437 -0.20313,-0.67188 -0.59375,-1.14063 -0.375,-0.46875 -0.92188,-0.71875 -0.54687,-0.25 -1.23437,-0.25 -0.6875,0 -1.25,0.25 -0.54688,0.25 -0.9375,0.71875 -0.375,0.46875 -0.59375,1.14063 -0.20313,0.67187 -0.20313,1.48437 z m 14.71301,4.32813 q -0.42187,0.0937 -1.10937,0.20312 -0.67188,0.125 -1.5625,0.125 -0.78125,0 -1.32813,-0.21875 -0.53125,-0.23437 -0.85937,-0.64062 -0.3125,-0.42188 -0.45313,-0.98438 -0.14062,-0.57812 -0.14062,-1.26562 l 0,-3.79688 1.20312,0 0,3.54688 q 0,1.23437 0.39063,1.76562 0.39062,0.53125 1.3125,0.53125 0.1875,0 0.39062,-0.0156 0.21875,-0.0156 0.39063,-0.0312 0.1875,-0.0156 0.32812,-0.0312 0.15625,-0.0312 0.23438,-0.0469 l 0,-5.71875 1.20312,0 0,6.57813 z m 3.4003,-6.57813 2.5625,0 0,1.01563 -2.5625,0 0,3.125 q 0,0.5 0.0781,0.84375 0.0781,0.32812 0.23437,0.51562 0.15625,0.1875 0.39063,0.26563 0.23437,0.0781 0.54687,0.0781 0.54688,0 0.875,-0.125 0.32813,-0.125 0.46875,-0.17187 l 0.21875,1 q -0.17187,0.0937 -0.625,0.21875 -0.45312,0.14062 -1.04687,0.14062 -0.6875,0 -1.14063,-0.17187 -0.4375,-0.17188 -0.71875,-0.51563 -0.26562,-0.35937 -0.375,-0.875 -0.10937,-0.51562 -0.10937,-1.1875 l 0,-6.03125 1.20312,-0.21875 0,2.09375 z m 6.9523,3.75 5.95313,0 0,1.03125 -5.95313,0 0,-1.03125 z m 0,-2.76562 5.95313,0 0,1.01562 -5.95313,0 0,-1.01562 z m 10.95517,-0.78125 q 0.40625,-0.10938 1.09375,-0.21875 0.6875,-0.125 1.59375,-0.125 0.79688,0 1.32813,0.23437 0.54687,0.21875 0.85937,0.64063 0.3125,0.40625 0.4375,0.98437 0.14063,0.5625 0.14063,1.25 l 0,3.79688 -1.20313,0 0,-3.53125 q 0,-0.625 -0.0937,-1.0625 -0.0781,-0.45313 -0.28125,-0.71875 -0.1875,-0.28125 -0.51562,-0.40625 -0.32813,-0.125 -0.8125,-0.125 -0.1875,0 -0.40625,0.0156 -0.20313,0.0156 -0.39063,0.0469 -0.1875,0.0156 -0.34375,0.0469 -0.14062,0.0156 -0.20312,0.0312 l 0,5.70313 -1.20313,0 0,-6.5625 z m 10.02597,2.10937 3.20313,0 0,1.125 -3.20313,0 0,-1.125 z m 11.79825,4.45313 q -0.14062,-0.28125 -0.34375,-0.625 -0.20312,-0.35938 -0.45312,-0.73438 -0.25,-0.375 -0.51563,-0.73437 -0.25,-0.35938 -0.5,-0.6875 -0.25,0.32812 -0.51562,0.70312 -0.25,0.35938 -0.5,0.73438 -0.23438,0.375 -0.45313,0.73437 -0.20312,0.34375 -0.34375,0.60938 l -1.25,0 q 0.45313,-0.89063 1.07813,-1.79688 0.64062,-0.92187 1.26562,-1.75 l -2.23437,-3.21875 1.35937,0 1.60938,2.375 1.625,-2.375 1.29687,0 -2.1875,3.14063 q 0.625,0.84375 1.28125,1.79687 0.65625,0.9375 1.10938,1.82813 l -1.32813,0 z"
       id="path77"
       inkscape:connector-curvature="0"
       style="fill:#000000;fill-rule:nonzero;stroke:none;stroke-linecap:square;stroke-miterlimit:10" />
    <path
       d="m 274.07485,318.08673 52,0 0,30.01575 -52,0 z"
       id="path79"
       inkscape:connector-curvature="0"
       style="fill:#000000;fill-opacity:0;fill-rule:evenodd;stroke:none;stroke-linecap:square;stroke-miterlimit:10" />
    <path
       d="m 285.33944,330.87109 1.25,0 0,9.01562 -1.25,0 0,-9.01562 z m 3.50714,2.45312 q 0.40625,-0.10937 1.09375,-0.21875 0.6875,-0.125 1.59375,-0.125 0.79688,0 1.32813,0.23438 0.54687,0.21875 0.85937,0.64062 0.3125,0.40625 0.4375,0.98438 0.14063,0.5625 0.14063,1.25 l 0,3.79687 -1.20313,0 0,-3.53125 q 0,-0.625 -0.0937,-1.0625 -0.0781,-0.45312 -0.28125,-0.71875 -0.1875,-0.28125 -0.51562,-0.40625 -0.32813,-0.125 -0.8125,-0.125 -0.1875,0 -0.40625,0.0156 -0.20313,0.0156 -0.39063,0.0469 -0.1875,0.0156 -0.34375,0.0469 -0.14062,0.0156 -0.20312,0.0312 l 0,5.70312 -1.20313,0 0,-6.5625 z m 10.36972,3.54688 5.95313,0 0,1.03125 -5.95313,0 0,-1.03125 z m 0,-2.76563 5.95313,0 0,1.01563 -5.95313,0 0,-1.01563 z m 14.98642,5.78125 q -0.14062,-0.28125 -0.34375,-0.625 -0.20312,-0.35937 -0.45312,-0.73437 -0.25,-0.375 -0.51563,-0.73438 -0.25,-0.35937 -0.5,-0.6875 -0.25,0.32813 -0.51562,0.70313 -0.25,0.35937 -0.5,0.73437 -0.23438,0.375 -0.45313,0.73438 -0.20312,0.34375 -0.34375,0.60937 l -1.25,0 q 0.45313,-0.89062 1.07813,-1.79687 0.64062,-0.92188 1.26562,-1.75 l -2.23437,-3.21875 1.35937,0 1.60938,2.375 1.625,-2.375 1.29687,0 -2.1875,3.14062 q 0.625,0.84375 1.28125,1.79688 0.65625,0.9375 1.10938,1.82812 l -1.32813,0 z"
       id="path81"
       inkscape:connector-curvature="0"
       style="fill:#000000;fill-rule:nonzero;stroke:none;stroke-linecap:square;stroke-miterlimit:10" />
    <path
       d="m 123.57616,341.14972 81.00787,0 0,30.01575 -81.00787,0 z"
       id="path83"
       inkscape:connector-curvature="0"
       style="fill:#6d9eeb;fill-rule:evenodd;stroke:none;stroke-linecap:square;stroke-miterlimit:10" />
    <path
       d="m 123.57616,341.14972 81.00787,0 0,30.01575 -81.00787,0 z"
       id="path85"
       inkscape:connector-curvature="0"
       style="fill:none;fill-rule:evenodd;stroke:#000000;stroke-width:2;stroke-linecap:butt;stroke-linejoin:round;stroke-miterlimit:10" />
    <path
       d="m 136.85949,363.0776 0,-13.17188 8.03125,0 0,1.57813 -6.1875,0 0,3.92187 5.5,0 0,1.53125 -5.5,0 0,4.5625 6.65625,0 0,1.57813 -8.5,0 z m 8.93397,2.01562 9.5,0 0,1.5 -9.5,0 0,-1.5 z m 10.36638,-8.60937 q 0,-1.6875 0.5,-2.98438 0.5,-1.29687 1.35938,-2.15625 0.875,-0.85937 2.01562,-1.29687 1.15625,-0.4375 2.4375,-0.4375 1.28125,0 2.40625,0.4375 1.14063,0.4375 1.98438,1.29687 0.85937,0.85938 1.35937,2.15625 0.51563,1.29688 0.51563,2.98438 0,1.6875 -0.51563,2.98437 -0.5,1.29688 -1.35937,2.15625 -0.84375,0.85938 -1.98438,1.29688 -1.125,0.4375 -2.40625,0.4375 -1.28125,0 -2.4375,-0.4375 -1.14062,-0.4375 -2.01562,-1.29688 -0.85938,-0.85937 -1.35938,-2.15625 -0.5,-1.29687 -0.5,-2.98437 z m 1.9375,0 q 0,1.20312 0.29688,2.1875 0.29687,0.96875 0.85937,1.65625 0.5625,0.67187 1.375,1.04687 0.8125,0.375 1.8125,0.375 1,0 1.79688,-0.375 0.8125,-0.375 1.35937,-1.04687 0.5625,-0.6875 0.85938,-1.65625 0.3125,-0.98438 0.3125,-2.1875 0,-1.20313 -0.3125,-2.17188 -0.29688,-0.98437 -0.85938,-1.65625 -0.54687,-0.6875 -1.35937,-1.0625 -0.79688,-0.375 -1.79688,-0.375 -1,0 -1.8125,0.375 -0.8125,0.375 -1.375,1.0625 -0.5625,0.67188 -0.85937,1.65625 -0.29688,0.96875 -0.29688,2.17188 z m 17.99895,6.875 q -1.28125,0 -2.23437,-0.39063 -0.95313,-0.40625 -1.5625,-1.09375 -0.60938,-0.70312 -0.90625,-1.64062 -0.29688,-0.95313 -0.29688,-2.0625 l 0,-8.26563 1.84375,0 0,8.0625 q 0,1.96875 0.875,2.875 0.875,0.89063 2.28125,0.89063 0.70313,0 1.28125,-0.21875 0.57813,-0.21875 1,-0.67188 0.42188,-0.46875 0.64063,-1.17187 0.23437,-0.71875 0.23437,-1.70313 l 0,-8.0625 1.84375,0 0,8.26563 q 0,1.10937 -0.29687,2.0625 -0.29688,0.9375 -0.92188,1.64062 -0.60937,0.6875 -1.54687,1.09375 -0.9375,0.39063 -2.23438,0.39063 z m 16.74176,-13.45313 0,1.59375 -4.15625,0 0,11.57813 -1.82812,0 0,-11.57813 -4.15625,0 0,-1.59375 10.14062,0 z"
       id="path87"
       inkscape:connector-curvature="0"
       style="fill:#000000;fill-rule:nonzero;stroke:none;stroke-linecap:square;stroke-miterlimit:10" />
    <path
       d="m 122.57616,294.73503 81.00787,0 0,30.01575 -81.00787,0 z"
       id="path89"
       inkscape:connector-curvature="0"
       style="fill:#6d9eeb;fill-rule:evenodd;stroke:none;stroke-linecap:square;stroke-miterlimit:10" />
    <path
       d="m 122.57616,294.73503 81.00787,0 0,30.01575 -81.00787,0 z"
       id="path91"
       inkscape:connector-curvature="0"
       style="fill:none;fill-rule:evenodd;stroke:#000000;stroke-width:2;stroke-linecap:butt;stroke-linejoin:round;stroke-miterlimit:10" />
    <path
       d="m 138.99872,303.36602 q 2.78125,0 4.26562,1.0625 1.5,1.04687 1.5,3.14062 0,1.125 -0.42187,1.9375 -0.40625,0.8125 -1.17188,1.3125 -0.76562,0.5 -1.875,0.73438 -1.09375,0.21875 -2.48437,0.21875 l -1.45313,0 0,4.89062 -1.84375,0 0,-12.98437 q 0.76563,-0.1875 1.71875,-0.25 0.96875,-0.0625 1.76563,-0.0625 z m 0.15625,1.60937 q -1.17188,0 -1.79688,0.0625 l 0,5.17188 1.375,0 q 0.95313,0 1.70313,-0.125 0.76562,-0.125 1.28125,-0.42188 0.53125,-0.29687 0.8125,-0.8125 0.29687,-0.51562 0.29687,-1.3125 0,-0.75 -0.29687,-1.25 -0.29688,-0.5 -0.79688,-0.78125 -0.5,-0.29687 -1.17187,-0.40625 -0.67188,-0.125 -1.40625,-0.125 z m 5.98363,13.70313 9.5,0 0,1.5 -9.5,0 0,-1.5 z m 10.36638,-8.60938 q 0,-1.6875 0.5,-2.98437 0.5,-1.29688 1.35937,-2.15625 0.875,-0.85938 2.01563,-1.29688 1.15625,-0.4375 2.4375,-0.4375 1.28125,0 2.40625,0.4375 1.14062,0.4375 1.98437,1.29688 0.85938,0.85937 1.35938,2.15625 0.51562,1.29687 0.51562,2.98437 0,1.6875 -0.51562,2.98438 -0.5,1.29687 -1.35938,2.15625 -0.84375,0.85937 -1.98437,1.29687 -1.125,0.4375 -2.40625,0.4375 -1.28125,0 -2.4375,-0.4375 -1.14063,-0.4375 -2.01563,-1.29687 -0.85937,-0.85938 -1.35937,-2.15625 -0.5,-1.29688 -0.5,-2.98438 z m 1.9375,0 q 0,1.20313 0.29687,2.1875 0.29688,0.96875 0.85938,1.65625 0.5625,0.67188 1.375,1.04688 0.8125,0.375 1.8125,0.375 1,0 1.79687,-0.375 0.8125,-0.375 1.35938,-1.04688 0.5625,-0.6875 0.85937,-1.65625 0.3125,-0.98437 0.3125,-2.1875 0,-1.20312 -0.3125,-2.17187 -0.29687,-0.98438 -0.85937,-1.65625 -0.54688,-0.6875 -1.35938,-1.0625 -0.79687,-0.375 -1.79687,-0.375 -1,0 -1.8125,0.375 -0.8125,0.375 -1.375,1.0625 -0.5625,0.67187 -0.85938,1.65625 -0.29687,0.96875 -0.29687,2.17187 z m 17.99894,6.875 q -1.28125,0 -2.23437,-0.39062 -0.95313,-0.40625 -1.5625,-1.09375 -0.60938,-0.70313 -0.90625,-1.64063 -0.29688,-0.95312 -0.29688,-2.0625 l 0,-8.26562 1.84375,0 0,8.0625 q 0,1.96875 0.875,2.875 0.875,0.89062 2.28125,0.89062 0.70313,0 1.28125,-0.21875 0.57813,-0.21875 1,-0.67187 0.42188,-0.46875 0.64063,-1.17188 0.23437,-0.71875 0.23437,-1.70312 l 0,-8.0625 1.84375,0 0,8.26562 q 0,1.10938 -0.29687,2.0625 -0.29688,0.9375 -0.92188,1.64063 -0.60937,0.6875 -1.54687,1.09375 -0.9375,0.39062 -2.23438,0.39062 z m 16.74176,-13.45312 0,1.59375 -4.15625,0 0,11.57812 -1.82812,0 0,-11.57812 -4.15625,0 0,-1.59375 10.14062,0 z"
       id="path93"
       inkscape:connector-curvature="0"
       style="fill:#000000;fill-rule:nonzero;stroke:none;stroke-linecap:square;stroke-miterlimit:10" />
    <path
       d="m 333.8045,229.99618 97.98425,0 0,30.01575 -97.98425,0 z"
       id="path95"
       inkscape:connector-curvature="0"
       style="fill:#000000;fill-opacity:0;fill-rule:evenodd;stroke:none;stroke-linecap:square;stroke-miterlimit:10" />
    <path
       d="m 355.51107,242.70242 q 1.89062,0 2.90625,0.71875 1.03125,0.71875 1.03125,2.14062 0,0.78125 -0.28125,1.34375 -0.28125,0.54688 -0.8125,0.89063 -0.51563,0.34375 -1.28125,0.5 -0.75,0.15625 -1.70313,0.15625 l -1,0 0,3.34375 -1.25,0 0,-8.875 q 0.53125,-0.14063 1.1875,-0.17188 0.65625,-0.0469 1.20313,-0.0469 z m 0.0937,1.09375 q -0.79688,0 -1.23438,0.0469 l 0,3.53125 0.95313,0 q 0.65625,0 1.17187,-0.0781 0.51563,-0.0937 0.875,-0.28125 0.35938,-0.20313 0.54688,-0.54688 0.20312,-0.35937 0.20312,-0.90625 0,-0.53125 -0.20312,-0.85937 -0.20313,-0.34375 -0.54688,-0.54688 -0.34375,-0.20312 -0.79687,-0.28125 -0.45313,-0.0781 -0.96875,-0.0781 z m 4.44723,9.375 6.5,0 0,1.03125 -6.5,0 0,-1.03125 z m 7.35428,-5.89063 q 0,-1.15625 0.34375,-2.03125 0.34375,-0.89062 0.9375,-1.48437 0.59375,-0.59375 1.375,-0.89063 0.79688,-0.29687 1.67188,-0.29687 0.875,0 1.64062,0.29687 0.78125,0.29688 1.35938,0.89063 0.59375,0.59375 0.9375,1.48437 0.34375,0.875 0.34375,2.03125 0,1.15625 -0.34375,2.04688 -0.34375,0.875 -0.9375,1.46875 -0.57813,0.59375 -1.35938,0.89062 -0.76562,0.29688 -1.64062,0.29688 -0.875,0 -1.67188,-0.29688 -0.78125,-0.29687 -1.375,-0.89062 -0.59375,-0.59375 -0.9375,-1.46875 -0.34375,-0.89063 -0.34375,-2.04688 z m 1.32813,0 q 0,0.82813 0.20312,1.5 0.21875,0.65625 0.59375,1.125 0.39063,0.46875 0.9375,0.73438 0.5625,0.25 1.25,0.25 0.6875,0 1.23438,-0.25 0.54687,-0.26563 0.92187,-0.73438 0.39063,-0.46875 0.59375,-1.125 0.20313,-0.67187 0.20313,-1.5 0,-0.8125 -0.20313,-1.48437 -0.20312,-0.67188 -0.59375,-1.14063 -0.375,-0.46875 -0.92187,-0.71875 -0.54688,-0.25 -1.23438,-0.25 -0.6875,0 -1.25,0.25 -0.54687,0.25 -0.9375,0.71875 -0.375,0.46875 -0.59375,1.14063 -0.20312,0.67187 -0.20312,1.48437 z m 14.71301,4.32813 q -0.42187,0.0937 -1.10937,0.20312 -0.67188,0.125 -1.5625,0.125 -0.78125,0 -1.32813,-0.21875 -0.53125,-0.23437 -0.85937,-0.64062 -0.3125,-0.42188 -0.45313,-0.98438 -0.14062,-0.57812 -0.14062,-1.26562 l 0,-3.79688 1.20312,0 0,3.54688 q 0,1.23437 0.39063,1.76562 0.39062,0.53125 1.3125,0.53125 0.1875,0 0.39062,-0.0156 0.21875,-0.0156 0.39063,-0.0312 0.1875,-0.0156 0.32812,-0.0312 0.15625,-0.0312 0.23438,-0.0469 l 0,-5.71875 1.20312,0 0,6.57813 z m 3.4003,-6.57813 2.5625,0 0,1.01563 -2.5625,0 0,3.125 q 0,0.5 0.0781,0.84375 0.0781,0.32812 0.23437,0.51562 0.15625,0.1875 0.39063,0.26563 0.23437,0.0781 0.54687,0.0781 0.54688,0 0.875,-0.125 0.32813,-0.125 0.46875,-0.17187 l 0.21875,1 q -0.17187,0.0937 -0.625,0.21875 -0.45312,0.14062 -1.04687,0.14062 -0.6875,0 -1.14063,-0.17187 -0.4375,-0.17188 -0.71875,-0.51563 -0.26562,-0.35937 -0.375,-0.875 -0.10937,-0.51562 -0.10937,-1.1875 l 0,-6.03125 1.20312,-0.21875 0,2.09375 z m 6.9523,3.75 5.95313,0 0,1.03125 -5.95313,0 0,-1.03125 z m 0,-2.76562 5.95313,0 0,1.01562 -5.95313,0 0,-1.01562 z m 18.06522,5.78125 q -0.14063,-0.28125 -0.34375,-0.625 -0.20313,-0.35938 -0.45313,-0.73438 -0.25,-0.375 -0.51562,-0.73437 -0.25,-0.35938 -0.5,-0.6875 -0.25,0.32812 -0.51563,0.70312 -0.25,0.35938 -0.5,0.73438 -0.23437,0.375 -0.45312,0.73437 -0.20313,0.34375 -0.34375,0.60938 l -1.25,0 q 0.45312,-0.89063 1.07812,-1.79688 0.64063,-0.92187 1.26563,-1.75 l -2.23438,-3.21875 1.35938,0 1.60937,2.375 1.625,-2.375 1.29688,0 -2.1875,3.14063 q 0.625,0.84375 1.28125,1.79687 0.65625,0.9375 1.10937,1.82813 l -1.32812,0 z"
       id="path97"
       inkscape:connector-curvature="0"
       style="fill:#000000;fill-rule:nonzero;stroke:none;stroke-linecap:square;stroke-miterlimit:10" />
    <text
       xml:space="preserve"
       style="font-style:normal;font-weight:normal;font-size:15px;line-height:393.00000668%;font-family:Sans;letter-spacing:0px;word-spacing:0px;fill:#000000;fill-opacity:1;stroke:none;stroke-width:1px;stroke-linecap:butt;stroke-linejoin:miter;stroke-opacity:1"
       x="278.13864"
       y="277.39655"
       id="text4214-3"
       sodipodi:linespacing="393.00001%"><tspan
         sodipodi:role="line"
         id="tspan4216-6"
         x="278.13864"
         y="277.39655"
         style="font-style:normal;font-variant:normal;font-weight:normal;font-stretch:normal;font-size:13.75px;font-family:ubuntu;-inkscape-font-specification:ubuntu">ta = 0</tspan></text>
    <text
       xml:space="preserve"
       style="font-style:normal;font-weight:normal;font-size:15px;line-height:393.00000668%;font-family:Sans;letter-spacing:0px;word-spacing:0px;fill:#000000;fill-opacity:1;stroke:none;stroke-width:1px;stroke-linecap:butt;stroke-linejoin:miter;stroke-opacity:1"
       x="448.57736"
       y="322.01978"
       id="text4214-3-7"
       sodipodi:linespacing="393.00001%"><tspan
         sodipodi:role="line"
         id="tspan4216-6-5"
         x="448.57736"
         y="322.01978"
         style="font-style:normal;font-variant:normal;font-weight:normal;font-stretch:normal;font-size:13.75px;font-family:ubuntu;-inkscape-font-specification:ubuntu">ta = rnd</tspan></text>
  </g>
</svg>
