<?xml version="1.0" encoding="UTF-8" standalone="no"?>
<!-- Created with Inkscape (http://www.inkscape.org/) -->

<svg
   xmlns:ns0="http://www.iki.fi/pav/software/textext/"
   xmlns:dc="http://purl.org/dc/elements/1.1/"
   xmlns:cc="http://creativecommons.org/ns#"
   xmlns:rdf="http://www.w3.org/1999/02/22-rdf-syntax-ns#"
   xmlns:svg="http://www.w3.org/2000/svg"
   xmlns="http://www.w3.org/2000/svg"
   xmlns:sodipodi="http://sodipodi.sourceforge.net/DTD/sodipodi-0.dtd"
   xmlns:inkscape="http://www.inkscape.org/namespaces/inkscape"
   width="210mm"
   height="297mm"
   viewBox="0 0 744.09448819 1052.3622047"
   id="svg4285"
   version="1.1"
   inkscape:version="0.91 r13725"
   sodipodi:docname="proveedorEncargodevsgraph.svg">
  <sodipodi:namedview
     id="base"
     pagecolor="#ffffff"
     bordercolor="#666666"
     borderopacity="1.0"
     inkscape:pageopacity="0.0"
     inkscape:pageshadow="2"
     inkscape:zoom="2.9830924"
     inkscape:cx="390.94245"
     inkscape:cy="721.8633"
     inkscape:document-units="px"
     inkscape:current-layer="layer1"
     showgrid="true"
     inkscape:window-width="1855"
     inkscape:window-height="1056"
     inkscape:window-x="65"
     inkscape:window-y="24"
     inkscape:window-maximized="1">
    <inkscape:grid
       id="grid5505"
       type="xygrid" />
  </sodipodi:namedview>
  <defs
     id="defs4287">
    <marker
       inkscape:isstock="true"
       style="overflow:visible"
       id="Arrow1Mstart"
       refX="0.0"
       refY="0.0"
       orient="auto"
       inkscape:stockid="Arrow1Mstart">
      <path
         transform="scale(0.4) translate(10,0)"
         style="fill-rule:evenodd;stroke:#000000;stroke-width:1pt;stroke-opacity:1;fill:#000000;fill-opacity:1"
         d="M 0.0,0.0 L 5.0,-5.0 L -12.5,0.0 L 5.0,5.0 L 0.0,0.0 z "
         id="path5517" />
    </marker>
    <marker
       inkscape:isstock="true"
       style="overflow:visible;"
       id="Arrow1Mend"
       refX="0.0"
       refY="0.0"
       orient="auto"
       inkscape:stockid="Arrow1Mend">
      <path
         transform="scale(0.4) rotate(180) translate(10,0)"
         style="fill-rule:evenodd;stroke:#000000;stroke-width:1pt;stroke-opacity:1;fill:#000000;fill-opacity:1"
         d="M 0.0,0.0 L 5.0,-5.0 L -12.5,0.0 L 5.0,5.0 L 0.0,0.0 z "
         id="path5520" />
    </marker>
  </defs>
  <metadata
     id="metadata4290">
    <rdf:RDF>
      <cc:Work
         rdf:about="">
        <dc:format>image/svg+xml</dc:format>
        <dc:type
           rdf:resource="http://purl.org/dc/dcmitype/StillImage" />
        <dc:title />
      </cc:Work>
    </rdf:RDF>
  </metadata>
  <g
     id="layer1"
     inkscape:groupmode="layer"
     inkscape:label="Capa 1">
    <path
       style="fill:#000000;fill-opacity:0;fill-rule:evenodd;stroke:none;stroke-linecap:square;stroke-miterlimit:10"
       inkscape:connector-curvature="0"
       id="path11"
       d="m 162.98037,180.56704 358.99213,0 0,257.73228 -358.99213,0 z" />
    <path
       style="fill:none;fill-rule:evenodd;stroke:#000000;stroke-width:2;stroke-linecap:butt;stroke-linejoin:round;stroke-miterlimit:10"
       inkscape:connector-curvature="0"
       id="path13"
       d="m 162.98037,180.56704 358.99213,0 0,257.73228 -358.99213,0 z" />
    <path
       style="fill:#cfe2f3;fill-rule:evenodd;stroke:none;stroke-linecap:square;stroke-miterlimit:10"
       inkscape:connector-curvature="0"
       id="path17"
       d="m 207.61263,310.57946 0,0 c 0,-21.23904 18.13422,-38.4567 40.50394,-38.4567 l 0,0 c 10.74231,0 21.04461,4.05169 28.64062,11.26371 7.59595,7.21203 11.86328,16.99363 11.86328,27.19299 l 0,0 c 0,21.23904 -18.13421,38.4567 -40.5039,38.4567 l 0,0 c -22.36972,0 -40.50394,-17.21766 -40.50394,-38.4567 z" />
    <path
       style="fill:none;fill-rule:evenodd;stroke:#000000;stroke-width:1;stroke-linecap:butt;stroke-linejoin:round;stroke-miterlimit:10"
       inkscape:connector-curvature="0"
       id="path19"
       d="m 207.61263,310.57946 0,0 c 0,-21.23904 18.13422,-38.4567 40.50394,-38.4567 l 0,0 c 10.74231,0 21.04461,4.05169 28.64062,11.26371 7.59595,7.21203 11.86328,16.99363 11.86328,27.19299 l 0,0 c 0,21.23904 -18.13421,38.4567 -40.5039,38.4567 l 0,0 c -22.36972,0 -40.50394,-17.21766 -40.50394,-38.4567 z" />
    <path
       style="fill:#000000;fill-opacity:0;fill-rule:evenodd;stroke:none;stroke-linecap:square;stroke-miterlimit:10"
       inkscape:connector-curvature="0"
       id="path23"
       d="m 311.23757,387.92662 c 67.81103,0 135.62207,-19.22836 135.62207,-38.4567" />
    <path
       style="fill:#000000;fill-opacity:0;fill-rule:evenodd;stroke:none;stroke-linecap:square;stroke-miterlimit:10"
       inkscape:connector-curvature="0"
       id="path29"
       d="m 319.08272,377.55392 90.99213,0 0,43.74802 -90.99213,0 z" />
    <path
       style="fill:#cfe2f3;fill-rule:evenodd;stroke:none;stroke-linecap:square;stroke-miterlimit:10"
       inkscape:connector-curvature="0"
       id="path51"
       d="m 406.01388,309.30958 0,0 c 0,-21.23904 18.13425,-38.4567 40.50394,-38.4567 l 0,0 c 10.74231,0 21.04464,4.05167 28.64062,11.26371 7.59595,7.21203 11.86331,16.99362 11.86331,27.19299 l 0,0 c 0,21.23904 -18.13421,38.45669 -40.50393,38.45669 l 0,0 c -22.36969,0 -40.50394,-17.21765 -40.50394,-38.45669 z" />
    <path
       style="fill:none;fill-rule:evenodd;stroke:#000000;stroke-width:1;stroke-linecap:butt;stroke-linejoin:round;stroke-miterlimit:10"
       inkscape:connector-curvature="0"
       id="path53"
       d="m 406.01388,309.30958 0,0 c 0,-21.23904 18.13425,-38.4567 40.50394,-38.4567 l 0,0 c 10.74231,0 21.04464,4.05167 28.64062,11.26371 7.59595,7.21203 11.86331,16.99362 11.86331,27.19299 l 0,0 c 0,21.23904 -18.13421,38.45669 -40.50393,38.45669 l 0,0 c -22.36969,0 -40.50394,-17.21765 -40.50394,-38.45669 z" />
    <path
       style="fill:#000000;fill-opacity:0;fill-rule:evenodd;stroke:none;stroke-linecap:square;stroke-miterlimit:10"
       inkscape:connector-curvature="0"
       id="path63"
       d="m 302.60166,295.36666 c 0,-16.63242 7.15747,-26.35541 14.31494,-33.26486 7.1575,-6.90944 14.31497,-11.00536 14.31497,-22.01073" />
    <path
       sodipodi:nodetypes="cc"
       style="fill:none;fill-rule:evenodd;stroke:#000000;stroke-width:2;stroke-linecap:butt;stroke-linejoin:round;stroke-miterlimit:10;marker-end:url(#Arrow1Mend)"
       inkscape:connector-curvature="0"
       id="path65"
       d="M 250.04307,267.09986 C 290,227.36218 400,227.36218 447.84273,268.44131" />
    <path
       style="fill:#000000;fill-opacity:0;fill-rule:evenodd;stroke:none;stroke-linecap:square;stroke-miterlimit:10"
       inkscape:connector-curvature="0"
       id="path69"
       d="m 270.73376,228.55392 c 0,-12.49995 44.03149,-30.49992 88.06299,-24.99992 44.03149,5.5 88.06299,34.49997 88.06299,68.99992" />
    <path
       sodipodi:nodetypes="cc"
       style="fill:none;fill-rule:evenodd;stroke:#000000;stroke-width:2;stroke-linecap:butt;stroke-linejoin:round;stroke-miterlimit:10;stroke-dasharray:8, 6;marker-start:url(#Arrow1Mstart)"
       inkscape:connector-curvature="0"
       id="path71"
       d="M 249.09198,353.54619 C 300.51239,370.88714 385,377.36218 448.04848,348.6379" />
    <path
       style="fill:#000000;fill-opacity:0;fill-rule:evenodd;stroke:none;stroke-linecap:square;stroke-miterlimit:10"
       inkscape:connector-curvature="0"
       id="path75"
       d="m 315.58666,210.53424 97.98425,0 0,30.01575 -97.98425,0 z" />
    <path
       style="fill:#000000;fill-opacity:0;fill-rule:evenodd;stroke:none;stroke-linecap:square;stroke-miterlimit:10"
       inkscape:connector-curvature="0"
       id="path79"
       d="m 310.58347,252.71975 52,0 0,30.01575 -52,0 z" />
    <path
       style="fill:#000000;fill-opacity:0;fill-rule:evenodd;stroke:none;stroke-linecap:square;stroke-miterlimit:10"
       inkscape:connector-curvature="0"
       id="path95"
       d="m 309.8045,229.99618 97.98425,0 0,30.01575 -97.98425,0 z" />
    <g
       style="font-style:normal;font-variant:normal;font-weight:normal;font-stretch:normal;letter-spacing:normal;word-spacing:normal;text-anchor:start;fill:none;fill-opacity:1;fill-rule:evenodd;stroke:#000000;stroke-linecap:butt;stroke-linejoin:miter;stroke-miterlimit:10.43299961;stroke-dasharray:none;stroke-dashoffset:0;stroke-opacity:1"
       ns0:preamble="/home/piter/.config/inkscape/extensions/preambulo.ini"
       ns0:text="\\Large{\n\\textbf{Idle}\n}"
       word-spacing="normal"
       letter-spacing="normal"
       font-size-adjust="none"
       font-stretch="normal"
       font-weight="normal"
       font-variant="normal"
       font-style="normal"
       stroke-miterlimit="10.433"
       xml:space="preserve"
       transform="matrix(1,0,0,-1,6.2229868,998.2276)"
       id="g5394"><path
         id="path5396"
         d="m 232.06,716.35 1.6,0 0,0.61 c -0.51,-0.03 -1.95,-0.03 -2.55,-0.03 -0.6,0 -2.04,0 -2.55,0.03 l 0,-0.61 1.6,0 0,-8.61 -1.6,0 0,-0.62 c 0.51,0.03 1.95,0.03 2.55,0.03 0.6,0 2.04,0 2.55,-0.03 l 0,0.62 -1.6,0 z"
         inkscape:connector-curvature="0"
         style="fill:#000000;stroke-width:0" /><path
         id="path5398"
         d="m 239.11,716.96 0,-0.61 c 0.88,0 0.99,0 0.99,-0.56 l 0,-2.9 c -0.32,0.27 -0.95,0.69 -1.94,0.69 l 0.17,-0.48 c 0.59,0 1.22,-0.25 1.69,-0.88 l 0,-3.65 c -0.6,-0.87 -1.33,-1.06 -1.85,-1.06 -1.78,0 -1.78,1.82 -1.78,2.77 0,0.67 0,1.39 0.32,1.94 0.44,0.8 1.29,0.88 1.62,0.88 l -0.17,0.48 c -2.04,0 -3.49,-1.26 -3.49,-3.27 0,-2.05 1.42,-3.27 3.33,-3.27 0.79,0 1.46,0.27 2.02,0.74 l 0,-0.74 2.56,0.08 0,0.62 c -0.89,0 -0.99,0 -0.99,0.56 l 0,8.78 z"
         inkscape:connector-curvature="0"
         style="fill:#000000;stroke-width:0" /><path
         id="path5400"
         d="m 246.2,717.08 -2.48,-0.12 0,-0.61 c 0.89,0 0.99,0 0.99,-0.56 l 0,-8.05 -0.99,0 0,-0.62 c 0.33,0.03 1.35,0.03 1.74,0.03 0.38,0 1.4,0 1.73,-0.03 l 0,0.62 -0.99,0 z"
         inkscape:connector-curvature="0"
         style="fill:#000000;stroke-width:0" /><path
         id="path5402"
         d="m 254.06,710.29 0.03,0 0.03,0 0.03,0 0.02,0 0.03,0 0.02,0.01 0.02,0 0.02,0 0.02,0 0.02,0 0.02,0.01 0.02,0 0.01,0.01 0.02,0 0.01,0.01 0.01,0.01 0.01,0.01 0.01,0.01 0.01,0.01 0.01,0.01 0.01,0.01 0.01,0.02 0,0.01 0,0.01 0,0.01 0.01,0 0,0.01 0,0.01 0,0.01 0.01,0.02 0,0.01 0,0.01 0,0.01 0,0.01 0,0.02 0,0.01 0,0.01 0,0.02 0.01,0.01 0,0.02 0,0.02 0,0.01 c 0,0.43 -0.1,1.51 -0.77,2.18 -0.6,0.6 -1.4,0.79 -2.23,0.79 -2.24,0 -3.46,-1.46 -3.46,-3.27 0,-2.01 1.48,-3.31 3.64,-3.31 2.17,0 2.82,1.52 2.82,1.76 0,0.22 -0.22,0.22 -0.31,0.22 -0.22,0 -0.24,-0.05 -0.33,-0.23 -0.37,-0.94 -1.32,-1.24 -2,-1.24 -2.08,0 -2.1,1.94 -2.1,2.74 l 0,0.42 c 0.03,0.59 0.04,1.15 0.35,1.66 0.27,0.46 0.77,0.78 1.39,0.78 1.53,0 1.66,-1.72 1.68,-2.44 l -3.42,0 0,-0.42 z"
         inkscape:connector-curvature="0"
         style="fill:#000000;stroke-width:0" /></g>    <path
       style="fill:none;fill-rule:evenodd;stroke:#000000;stroke-width:1;stroke-linecap:butt;stroke-linejoin:round;stroke-miterlimit:10;stroke-dasharray:none"
       inkscape:connector-curvature="0"
       id="path59-7-4-8"
       d="m 203.15822,310.31519 0,0 c 0,-23.63071 20.13491,-42.7872 44.97261,-42.7872 l 0,0 c 11.92747,0 23.36642,4.50794 31.8004,12.53208 8.43403,8.02417 13.17219,18.90723 13.17219,30.25512 l 0,0 c 0,23.6307 -20.13493,42.78718 -44.97259,42.78718 l 0,0 c -24.8377,0 -44.97261,-19.15648 -44.97261,-42.78718 z" />
    <g
       id="content"
       transform="matrix(1,0,0,-1,199.18218,1000.2902)"
       xml:space="preserve"
       stroke-miterlimit="10.433"
       font-style="normal"
       font-variant="normal"
       font-weight="normal"
       font-stretch="normal"
       font-size-adjust="none"
       letter-spacing="normal"
       word-spacing="normal"
       ns0:text="\\Large{\n\\textbf{Serve}\n}"
       ns0:preamble="/home/piter/.config/inkscape/extensions/preambulo.ini"
       style="font-style:normal;font-variant:normal;font-weight:normal;font-stretch:normal;letter-spacing:normal;word-spacing:normal;text-anchor:start;fill:none;fill-opacity:1;fill-rule:evenodd;stroke:#000000;stroke-linecap:butt;stroke-linejoin:miter;stroke-miterlimit:10.43299961;stroke-dasharray:none;stroke-dashoffset:0;stroke-opacity:1"><path
         d="m 231.76,713.43 -0.07,0.02 -0.06,0.02 -0.06,0.01 -0.06,0.02 -0.06,0.02 -0.06,0.02 -0.05,0.02 -0.05,0.02 -0.06,0.03 -0.04,0.02 -0.05,0.02 -0.05,0.03 -0.04,0.02 -0.04,0.03 -0.04,0.02 -0.04,0.03 -0.04,0.03 -0.04,0.03 -0.06,0.05 -0.06,0.06 -0.06,0.06 -0.05,0.06 -0.05,0.06 -0.04,0.06 -0.04,0.06 -0.03,0.06 -0.03,0.06 -0.03,0.06 -0.02,0.06 -0.02,0.05 -0.01,0.06 -0.02,0.05 -0.01,0.05 -0.01,0.05 0,0.04 -0.01,0.04 0,0.04 0,0.04 -0.01,0.03 0,0.02 0,0.02 c 0,0.74 0.48,1.58 1.87,1.58 1.39,0 2.64,-0.67 2.94,-2.55 0.04,-0.3 0.04,-0.32 0.31,-0.32 0.31,0 0.31,0.05 0.31,0.38 l 0,2.69 c 0,0.28 0,0.38 -0.22,0.38 -0.1,0 -0.14,-0.02 -0.27,-0.16 l -0.62,-0.7 c -0.36,0.3 -1.07,0.86 -2.47,0.86 -2.05,0 -3.14,-1.3 -3.14,-2.86 0,-0.96 0.52,-1.63 0.72,-1.83 0.74,-0.75 1.15,-0.84 2.64,-1.17 1.43,-0.31 1.61,-0.34 1.92,-0.64 0.19,-0.19 0.6,-0.59 0.6,-1.32 0,-0.62 -0.3,-1.75 -1.9,-1.75 -1.27,0 -3.26,0.43 -3.38,2.52 -0.01,0.26 -0.01,0.3 -0.3,0.3 -0.3,0 -0.3,-0.04 -0.3,-0.37 l 0,-2.7 c 0,-0.27 0,-0.37 0.22,-0.37 0.1,0 0.11,0.02 0.26,0.14 0.15,0.16 0.28,0.35 0.64,0.71 0.83,-0.66 2.01,-0.85 2.87,-0.85 2.24,0 3.19,1.52 3.19,3.04 0,1.35 -0.89,2.64 -2.46,3 z"
         id="path4375"
         inkscape:connector-curvature="0"
         style="fill:#000000;stroke-width:0" /><path
         d="m 243.57,710.29 0.03,0 0.03,0 0.02,0 0.03,0 0.02,0 0.03,0.01 0.02,0 0.02,0 0.02,0 0.02,0 0.02,0.01 0.01,0 0.02,0.01 0.01,0 0.02,0.01 0.01,0.01 0.01,0.01 0.01,0.01 0.01,0.01 0.01,0.01 0.01,0.01 0,0.01 0,0.01 0.01,0.01 0,0.01 0,0.01 0,0 0.01,0.01 0,0.01 0,0.01 0,0.02 0,0.01 0.01,0.01 0,0.01 0,0.01 0,0.02 0,0.01 0,0.01 0,0.02 0,0.01 0,0.02 0,0.02 0,0.01 c 0,0.43 -0.1,1.51 -0.76,2.18 -0.6,0.6 -1.4,0.79 -2.23,0.79 -2.24,0 -3.46,-1.46 -3.46,-3.27 0,-2.01 1.48,-3.31 3.64,-3.31 2.17,0 2.81,1.52 2.81,1.76 0,0.22 -0.21,0.22 -0.3,0.22 -0.23,0 -0.24,-0.05 -0.33,-0.23 -0.37,-0.94 -1.32,-1.24 -2.01,-1.24 -2.08,0 -2.09,1.94 -2.09,2.74 l 0,0.42 c 0.03,0.59 0.04,1.15 0.34,1.66 0.28,0.46 0.78,0.78 1.4,0.78 1.53,0 1.66,-1.72 1.67,-2.44 l -3.41,0 0,-0.42 z"
         id="path4377"
         inkscape:connector-curvature="0"
         style="fill:#000000;stroke-width:0" /><path
         d="m 247.43,710.35 0,0.02 0,0.03 0,0.03 0,0.03 0.01,0.07 0,0.07 0,0.09 0.01,0.09 0.01,0.1 0.01,0.1 0.02,0.11 0.02,0.11 0.02,0.11 0.02,0.12 0.03,0.12 0.03,0.12 0.04,0.12 0.04,0.12 0.05,0.11 0.05,0.12 0.06,0.11 0.06,0.11 0.07,0.1 0.07,0.1 0.09,0.09 0.04,0.05 0.04,0.04 0.05,0.04 0.05,0.04 0.05,0.04 0.05,0.03 0.06,0.03 0.05,0.03 0.06,0.03 0.06,0.03 0.06,0.02 0.07,0.02 0.06,0.02 0.07,0.01 0.07,0.01 0.08,0.01 0.07,0 0.08,0 c -0.2,-0.15 -0.3,-0.4 -0.3,-0.65 0,-0.59 0.47,-0.84 0.83,-0.84 0.36,0 0.83,0.25 0.83,0.84 0,0.73 -0.74,1.13 -1.43,1.13 -1.13,0 -1.62,-0.99 -1.82,-1.59 l -0.02,0 0,1.59 -2.35,-0.12 0,-0.61 c 0.89,0 0.99,0 0.99,-0.56 l 0,-4.55 -0.99,0 0,-0.62 c 0.33,0.03 1.41,0.03 1.81,0.03 0.41,0 1.58,0 1.92,-0.03 l 0,0.62 -1.25,0 z"
         id="path4379"
         inkscape:connector-curvature="0"
         style="fill:#000000;stroke-width:0" /><path
         d="m 258.14,712.54 0.02,0.04 0.02,0.04 0.01,0.02 0.01,0.02 0.01,0.01 0.01,0.02 0.02,0.01 0.01,0.02 0.02,0.01 0.01,0.01 0.02,0.02 0.02,0.01 0.03,0.01 0.02,0.01 0.03,0.01 0.03,0.01 0.03,0.01 0.04,0.01 0.03,0.01 0.03,0 0.02,0 0.02,0.01 0.02,0 0.03,0 0.02,0 0.03,0.01 0.02,0 0.03,0 0.03,0 0.03,0 0.03,0.01 0.03,0 0.03,0 0.04,0 0.03,0 0.04,0 0.03,0 0.04,0 0.04,0 0.04,0 0.04,0.01 0,0.61 c -0.51,-0.03 -0.54,-0.03 -1.13,-0.03 -0.39,0 -0.42,0 -1.23,0.03 l 0,-0.61 c 0.38,0 0.7,-0.08 0.7,-0.18 0,-0.01 0,-0.03 -0.07,-0.17 l -1.68,-3.69 -1.85,4.04 0.79,0 0,0.61 c -0.33,-0.03 -1.34,-0.03 -1.72,-0.03 -0.42,0 -1.25,0 -1.63,0.03 l 0,-0.61 0.91,0 2.52,-5.48 c 0.13,-0.28 0.16,-0.35 0.49,-0.35 0.23,0 0.35,0.03 0.47,0.32 z"
         id="path4381"
         inkscape:connector-curvature="0"
         style="fill:#000000;stroke-width:0" /><path
         d="m 265.59,710.29 0.03,0 0.03,0 0.03,0 0.03,0 0.02,0 0.03,0.01 0.02,0 0.02,0 0.02,0 0.02,0 0.01,0.01 0.02,0 0.02,0.01 0.01,0 0.01,0.01 0.02,0.01 0.01,0.01 0.01,0.01 0.01,0.01 0.01,0.01 0,0.01 0.01,0.02 0,0.01 0.01,0.01 0,0.01 0,0 0,0.01 0.01,0.01 0,0.01 0,0.02 0,0.01 0,0.01 0.01,0.01 0,0.01 0,0.02 0,0.01 0,0.01 0,0.02 0,0.01 0,0.02 0,0.02 0,0.01 c 0,0.43 -0.1,1.51 -0.76,2.18 -0.6,0.6 -1.41,0.79 -2.24,0.79 -2.24,0 -3.46,-1.46 -3.46,-3.27 0,-2.01 1.48,-3.31 3.65,-3.31 2.16,0 2.81,1.52 2.81,1.76 0,0.22 -0.21,0.22 -0.3,0.22 -0.23,0 -0.25,-0.05 -0.33,-0.23 -0.37,-0.94 -1.32,-1.24 -2.01,-1.24 -2.08,0 -2.09,1.94 -2.09,2.74 l 0,0.42 c 0.02,0.59 0.04,1.15 0.34,1.66 0.27,0.46 0.77,0.78 1.39,0.78 1.54,0 1.67,-1.72 1.68,-2.44 l -3.41,0 0,-0.42 z"
         id="path4383"
         inkscape:connector-curvature="0"
         style="fill:#000000;stroke-width:0" /></g>    <g
       style="font-style:normal;font-variant:normal;font-weight:normal;font-stretch:normal;letter-spacing:normal;word-spacing:normal;text-anchor:start;fill:none;fill-opacity:1;fill-rule:evenodd;stroke:#000000;stroke-linecap:butt;stroke-linejoin:miter;stroke-miterlimit:10.43299961;stroke-dasharray:none;stroke-dashoffset:0;stroke-opacity:1"
       ns0:preamble="/home/piter/.config/inkscape/extensions/preambulo.ini"
       ns0:text="\\Large{\n$t_a = \\infty$\n}"
       word-spacing="normal"
       letter-spacing="normal"
       font-size-adjust="none"
       font-stretch="normal"
       font-weight="normal"
       font-variant="normal"
       font-style="normal"
       stroke-miterlimit="10.433"
       xml:space="preserve"
       transform="matrix(1,0,0,-1,-1.8003532,1042.3988)"
       id="g4627"><path
         id="path4629"
         d="m 231,712.89 1.32,0 c 0.27,0 0.41,0 0.41,0.26 0,0.16 -0.08,0.16 -0.37,0.16 l -1.26,0 0.53,2.09 c 0.05,0.2 0.05,0.23 0.05,0.33 0,0.23 -0.18,0.36 -0.37,0.36 -0.11,0 -0.44,-0.04 -0.56,-0.5 l -0.56,-2.28 -1.35,0 c -0.28,0 -0.41,0 -0.41,-0.28 0,-0.14 0.1,-0.14 0.37,-0.14 l 1.28,0 -0.95,-3.79 c -0.11,-0.5 -0.16,-0.64 -0.16,-0.83 0,-0.67 0.48,-1.29 1.28,-1.29 1.45,0 2.22,2.09 2.22,2.19 0,0.09 -0.05,0.13 -0.14,0.13 -0.03,0 -0.09,0 -0.11,-0.05 -0.02,-0.02 -0.03,-0.03 -0.13,-0.26 -0.3,-0.72 -0.97,-1.72 -1.8,-1.72 -0.43,0 -0.46,0.35 -0.46,0.67 0,0.02 0,0.29 0.05,0.46 z"
         inkscape:connector-curvature="0"
         style="fill:#000000;stroke-width:0" /><path
         id="path4631"
         d="m 236.91,708.74 -0.02,0.03 -0.02,0.03 -0.02,0.04 -0.02,0.03 -0.02,0.03 -0.02,0.03 -0.02,0.03 -0.02,0.03 -0.02,0.03 -0.03,0.03 -0.02,0.02 -0.02,0.03 -0.03,0.02 -0.03,0.03 -0.02,0.02 -0.03,0.02 -0.03,0.02 -0.03,0.02 -0.03,0.02 -0.03,0.02 -0.03,0.01 -0.04,0.02 -0.03,0.01 -0.03,0.02 -0.04,0.01 -0.03,0.01 -0.04,0 -0.04,0.01 -0.04,0.01 -0.04,0 -0.04,0 -0.04,0 0.01,-0.22 c 0.65,0 0.79,-0.81 0.79,-0.87 0,-0.06 -0.02,-0.12 -0.03,-0.17 l -0.5,-1.95 c -0.05,-0.18 -0.05,-0.2 -0.2,-0.37 -0.44,-0.55 -0.85,-0.71 -1.13,-0.71 -0.5,0 -0.63,0.55 -0.63,0.94 0,0.49 0.32,1.72 0.54,2.18 0.31,0.59 0.76,0.95 1.16,0.95 l -0.01,0.22 c -1.17,0 -2.4,-1.46 -2.4,-2.92 0,-0.93 0.55,-1.59 1.32,-1.59 0.2,0 0.7,0.04 1.3,0.75 0.08,-0.42 0.43,-0.75 0.91,-0.75 0.34,0 0.57,0.23 0.73,0.55 0.17,0.36 0.3,0.97 0.3,0.99 0,0.09 -0.09,0.09 -0.12,0.09 -0.1,0 -0.11,-0.04 -0.14,-0.17 -0.17,-0.65 -0.35,-1.24 -0.76,-1.24 -0.26,0 -0.29,0.26 -0.29,0.46 0,0.22 0.02,0.3 0.13,0.74 0.1,0.41 0.13,0.51 0.21,0.89 l 0.36,1.4 c 0.07,0.27 0.07,0.29 0.07,0.34 0,0.17 -0.12,0.26 -0.29,0.26 -0.23,0 -0.38,-0.21 -0.41,-0.43 z"
         inkscape:connector-curvature="0"
         style="fill:#000000;stroke-width:0" /><path
         id="path4633"
         d="m 252.62,711.77 0.03,0 0.04,0 0.04,0 0.02,0 0.02,0.01 0.02,0 0.02,0 0.02,0 0.02,0 0.02,0.01 0.02,0 0.01,0.01 0.02,0 0.02,0.01 0.01,0.01 0.02,0 0.01,0.01 0.02,0.01 0.01,0.01 0.01,0.02 0.01,0.01 0.01,0.01 0,0 0.01,0.01 0,0.01 0,0.01 0.01,0.01 0,0 0,0.01 0.01,0.01 0,0.01 0,0.01 0,0.01 0,0.01 0,0.02 0,0.01 0,0.01 c 0,0.27 -0.24,0.27 -0.45,0.27 l -8.45,0 c -0.21,0 -0.46,0 -0.46,-0.26 0,-0.27 0.24,-0.27 0.46,-0.27 z"
         inkscape:connector-curvature="0"
         style="fill:#000000;stroke-width:0" /><path
         id="path4635"
         d="m 252.62,709.1 0.03,0 0.04,0 0.04,0 0.02,0 0.02,0.01 0.02,0 0.02,0 0.02,0 0.02,0.01 0.02,0 0.02,0 0.01,0.01 0.02,0 0.02,0.01 0.01,0.01 0.02,0.01 0.01,0.01 0.02,0.01 0.01,0.01 0.01,0.01 0.01,0.01 0.01,0.01 0,0.01 0.01,0 0,0.01 0,0.01 0.01,0.01 0,0.01 0,0.01 0.01,0 0,0.01 0,0.01 0,0.02 0,0.01 0,0.01 0,0.01 0,0.01 c 0,0.27 -0.24,0.27 -0.45,0.27 l -8.45,0 c -0.21,0 -0.46,0 -0.46,-0.25 0,-0.28 0.24,-0.28 0.46,-0.28 z"
         inkscape:connector-curvature="0"
         style="fill:#000000;stroke-width:0" /><path
         id="path4637"
         d="m 265.14,711.01 -0.07,0.09 -0.07,0.08 -0.06,0.09 -0.07,0.07 -0.05,0.08 -0.06,0.06 -0.05,0.07 -0.05,0.06 -0.05,0.06 -0.05,0.06 -0.04,0.05 -0.05,0.05 -0.04,0.05 -0.04,0.05 -0.03,0.04 -0.04,0.05 -0.04,0.04 -0.03,0.04 -0.04,0.03 -0.03,0.04 -0.07,0.07 -0.07,0.06 -0.07,0.07 -0.07,0.06 -0.07,0.06 -0.04,0.04 -0.04,0.03 c -0.81,0.65 -1.61,0.9 -2.34,0.9 -1.68,0 -2.77,-1.57 -2.77,-3.25 l 0.31,0 c 0,1.4 0.97,2.57 2.23,2.57 0.83,0 1.48,-0.61 1.78,-0.91 0.36,-0.39 0.69,-0.83 1.56,-1.96 l 0,0 c -0.59,-1.04 -1.65,-2.49 -3.27,-2.49 -1.52,0 -2.3,1.5 -2.3,2.79 l -0.31,0 c 0,-1.65 1.06,-3.24 2.71,-3.24 1.65,0 2.84,1.3 3.54,2.45 0.78,-0.98 0.95,-1.19 1.4,-1.55 0.8,-0.65 1.6,-0.9 2.33,-0.9 1.68,0 2.77,1.57 2.77,3.25 l -0.31,0 c 0,-1.4 -0.96,-2.57 -2.23,-2.57 -0.83,0 -1.47,0.61 -1.77,0.91 -0.36,0.39 -0.69,0.83 -1.57,1.96 l 0,0 c 0.59,1.03 1.65,2.48 3.27,2.48 1.52,0 2.3,-1.49 2.3,-2.78 l 0.31,0 c 0,1.65 -1.06,3.24 -2.71,3.24 -1.65,0 -2.84,-1.3 -3.54,-2.45 z"
         inkscape:connector-curvature="0"
         style="fill:#000000;stroke-width:0" /></g>    <g
       id="g4316"
       transform="matrix(1,0,0,-1,200.4143,1041.2907)"
       xml:space="preserve"
       stroke="black"
       stroke-linecap="butt"
       stroke-linejoin="miter"
       stroke-miterlimit="10.433"
       stroke-dasharray="none"
       stroke-dashoffset="0"
       stroke-opacity="1"
       fill="none"
       fill-rule="evenodd"
       fill-opacity="1"
       font-style="normal"
       font-variant="normal"
       font-weight="normal"
       font-stretch="normal"
       font-size-adjust="none"
       letter-spacing="normal"
       word-spacing="normal"
       text-anchor="start"
       ns0:text="\\Large{\n$t_a = 1$\n}"
       ns0:preamble="/home/piter/.config/inkscape/extensions/preambulo.ini"
       style="font-style:normal;font-variant:normal;font-weight:normal;font-stretch:normal;letter-spacing:normal;word-spacing:normal;text-anchor:start;fill:none;fill-opacity:1;fill-rule:evenodd;stroke:#000000;stroke-linecap:butt;stroke-linejoin:miter;stroke-miterlimit:10.43299961;stroke-dasharray:none;stroke-dashoffset:0;stroke-opacity:1"><path
         d="M231,712.89 H232.32 C232.59,712.89,232.73,712.89,232.73,713.15 C232.73,713.31,232.65,713.31,232.36,713.31 H231.1 L231.63,715.4 C231.68,715.6,231.68,715.63,231.68,715.73 C231.68,715.96,231.5,716.09,231.31,716.09 C231.2,716.09,230.87,716.05,230.75,715.59 L230.19,713.31 H228.84 C228.56,713.31,228.43,713.31,228.43,713.03 C228.43,712.89,228.53,712.89,228.8,712.89 H230.08 L229.13,709.1 C229.02,708.6,228.97,708.46,228.97,708.27 C228.97,707.6,229.45,706.98,230.25,706.98 C231.7,706.98,232.47,709.07,232.47,709.17 C232.47,709.26,232.42,709.3,232.33,709.3 C232.3,709.3,232.24,709.3,232.22,709.25 C232.2,709.23,232.19,709.22,232.09,708.99 C231.79,708.27,231.12,707.27,230.29,707.27 C229.86,707.27,229.83,707.62,229.83,707.94 C229.83,707.96,229.83,708.23,229.88,708.4 Z "
         stroke-width="0"
         fill="black"
         id="path4318" /><path
         d="M236.91,708.74 L236.89,708.77 L236.87,708.8 L236.85,708.84 L236.83,708.87 L236.81,708.9 L236.79,708.93 L236.77,708.96 L236.75,708.99 L236.73,709.02 L236.7,709.05 L236.68,709.07 L236.66,709.1 L236.63,709.12 L236.6,709.15 L236.58,709.17 L236.55,709.19 L236.52,709.21 L236.49,709.23 L236.46,709.25 L236.43,709.27 L236.4,709.28 L236.36,709.3 L236.33,709.31 L236.3,709.33 L236.26,709.34 L236.23,709.35 L236.19,709.35 L236.15,709.36 L236.11,709.37 L236.07,709.37 L236.03,709.37 L235.99,709.37 L236,709.15 C236.65,709.15,236.79,708.34,236.79,708.28 C236.79,708.22,236.77,708.16,236.76,708.11 L236.26,706.16 C236.21,705.98,236.21,705.96,236.06,705.79 C235.62,705.24,235.21,705.08,234.93,705.08 C234.43,705.08,234.3,705.63,234.3,706.02 C234.3,706.51,234.62,707.74,234.84,708.2 C235.15,708.79,235.6,709.15,236,709.15 L235.99,709.37 C234.82,709.37,233.59,707.91,233.59,706.45 C233.59,705.52,234.14,704.86,234.91,704.86 C235.11,704.86,235.61,704.9,236.21,705.61 C236.29,705.19,236.64,704.86,237.12,704.86 C237.46,704.86,237.69,705.09,237.85,705.41 C238.02,705.77,238.15,706.38,238.15,706.4 C238.15,706.49,238.06,706.49,238.03,706.49 C237.93,706.49,237.92,706.45,237.89,706.32 C237.72,705.67,237.54,705.08,237.13,705.08 C236.87,705.08,236.84,705.34,236.84,705.54 C236.84,705.76,236.86,705.84,236.97,706.28 C237.07,706.69,237.1,706.79,237.18,707.17 L237.54,708.57 C237.61,708.84,237.61,708.86,237.61,708.91 C237.61,709.08,237.49,709.17,237.32,709.17 C237.09,709.17,236.94,708.96,236.91,708.74 Z "
         stroke-width="0"
         fill="black"
         id="path4320" /><path
         d="M252.62,711.77 L252.65,711.77 L252.69,711.77 L252.73,711.77 L252.75,711.77 L252.77,711.78 L252.79,711.78 L252.81,711.78 L252.83,711.78 L252.85,711.78 L252.87,711.79 L252.89,711.79 L252.9,711.8 L252.92,711.8 L252.94,711.81 L252.95,711.82 L252.97,711.82 L252.98,711.83 L253,711.84 L253.01,711.85 L253.02,711.87 L253.03,711.88 L253.04,711.89 L253.04,711.89 L253.05,711.9 L253.05,711.91 L253.05,711.92 L253.06,711.93 L253.06,711.93 L253.06,711.94 L253.07,711.95 L253.07,711.96 L253.07,711.97 L253.07,711.98 L253.07,711.99 L253.07,712.01 L253.07,712.02 L253.07,712.03 C253.07,712.3,252.83,712.3,252.62,712.3 H244.17 C243.96,712.3,243.71,712.3,243.71,712.04 C243.71,711.77,243.95,711.77,244.17,711.77 Z "
         stroke-width="0"
         fill="black"
         id="path4322" /><path
         d="M252.62,709.1 L252.65,709.1 L252.69,709.1 L252.73,709.1 L252.75,709.1 L252.77,709.11 L252.79,709.11 L252.81,709.11 L252.83,709.11 L252.85,709.12 L252.87,709.12 L252.89,709.12 L252.9,709.13 L252.92,709.13 L252.94,709.14 L252.95,709.15 L252.97,709.16 L252.98,709.17 L253,709.18 L253.01,709.19 L253.02,709.2 L253.03,709.21 L253.04,709.22 L253.04,709.23 L253.05,709.23 L253.05,709.24 L253.05,709.25 L253.06,709.26 L253.06,709.27 L253.06,709.28 L253.07,709.28 L253.07,709.29 L253.07,709.3 L253.07,709.32 L253.07,709.33 L253.07,709.34 L253.07,709.35 L253.07,709.36 C253.07,709.63,252.83,709.63,252.62,709.63 H244.17 C243.96,709.63,243.71,709.63,243.71,709.38 C243.71,709.1,243.95,709.1,244.17,709.1 Z "
         stroke-width="0"
         fill="black"
         id="path4324" /><path
         d="M261.98,716.32 L261.98,716.33 L261.98,716.35 L261.98,716.36 L261.98,716.38 L261.98,716.39 L261.98,716.4 L261.98,716.42 L261.98,716.43 L261.98,716.44 L261.98,716.45 L261.98,716.46 L261.98,716.47 L261.98,716.48 L261.98,716.49 L261.98,716.5 L261.98,716.51 L261.98,716.52 L261.98,716.53 L261.97,716.54 L261.97,716.54 L261.97,716.55 L261.97,716.56 L261.97,716.57 L261.97,716.57 L261.96,716.58 L261.96,716.6 L261.95,716.61 L261.95,716.61 L261.94,716.62 L261.93,716.63 L261.92,716.64 L261.91,716.64 L261.9,716.65 L261.89,716.65 L261.88,716.65 L261.87,716.65 L261.86,716.66 L261.85,716.66 L261.85,716.66 L261.84,716.66 L261.83,716.66 L261.82,716.66 L261.81,716.66 L261.8,716.66 L261.79,716.66 L261.78,716.66 L261.77,716.66 L261.76,716.66 L261.75,716.66 L261.73,716.66 L261.72,716.66 L261.71,716.66 L261.7,716.66 C261.35,716.28,260.63,715.74,259.16,715.74 V715.33 C259.48,715.33,260.2,715.33,260.99,715.7 V708.23 C260.99,707.71,260.95,707.54,259.69,707.54 H259.24 V707.12 C259.63,707.15,261.02,707.15,261.49,707.15 C261.97,707.15,263.35,707.15,263.73,707.12 V707.54 H263.29 C262.02,707.54,261.98,707.71,261.98,708.23 Z "
         stroke-width="0"
         fill="black"
         id="path4326" /></g>    <g
       style="font-style:normal;font-variant:normal;font-weight:normal;font-stretch:normal;letter-spacing:normal;word-spacing:normal;text-anchor:start;fill:none;fill-opacity:1;fill-rule:evenodd;stroke:#000000;stroke-linecap:butt;stroke-linejoin:miter;stroke-miterlimit:10.43299961;stroke-dasharray:none;stroke-dashoffset:0;stroke-opacity:1"
       ns0:preamble="/home/piter/.config/inkscape/extensions/preambulo.ini"
       ns0:text="\\Large{\n\\textbf{Proveedor por Encargo}\n}"
       word-spacing="normal"
       letter-spacing="normal"
       font-size-adjust="none"
       font-stretch="normal"
       font-weight="normal"
       font-variant="normal"
       font-style="normal"
       stroke-miterlimit="10.433"
       xml:space="preserve"
       transform="matrix(1,0,0,-1,122.77136,1138.5613)"
       id="g4488"><path
         id="path4490"
         d="m 232.07,711.5 -0.07,0.54 0,4.31 1.99,0 c 2.23,0 2.23,-1.18 2.23,-2.15 0,-0.95 0,-2.16 -2.23,-2.16 l -1.99,0 0.07,-0.54 2.44,0 c 2.4,0 3.73,1.22 3.73,2.7 0,1.54 -1.36,2.76 -3.73,2.76 l -5.85,0 0,-0.61 1.52,0 0,-8.61 -1.52,0 0,-0.62 c 0.41,0.03 1.95,0.03 2.46,0.03 0.52,0 2.06,0 2.47,-0.03 l 0,0.62 -1.52,0 z"
         inkscape:connector-curvature="0"
         style="fill:#000000;stroke-width:0" /><path
         id="path4492"
         d="m 242.12,710.35 0,0.02 0,0.03 0,0.03 0,0.03 0.01,0.07 0,0.07 0,0.09 0.01,0.09 0.01,0.1 0.01,0.1 0.02,0.11 0.02,0.11 0.02,0.11 0.02,0.12 0.03,0.12 0.03,0.12 0.04,0.12 0.04,0.12 0.05,0.11 0.05,0.12 0.06,0.11 0.06,0.11 0.07,0.1 0.07,0.1 0.09,0.09 0.04,0.05 0.04,0.04 0.05,0.04 0.05,0.04 0.05,0.04 0.05,0.03 0.06,0.03 0.05,0.03 0.06,0.03 0.06,0.03 0.06,0.02 0.07,0.02 0.06,0.02 0.07,0.01 0.07,0.01 0.08,0.01 0.07,0 0.08,0 c -0.2,-0.15 -0.3,-0.4 -0.3,-0.65 0,-0.59 0.47,-0.84 0.83,-0.84 0.36,0 0.83,0.25 0.83,0.84 0,0.73 -0.74,1.13 -1.43,1.13 -1.13,0 -1.62,-0.99 -1.82,-1.59 l -0.02,0 0,1.59 -2.35,-0.12 0,-0.61 c 0.89,0 0.99,0 0.99,-0.56 l 0,-4.55 -0.99,0 0,-0.62 c 0.33,0.03 1.41,0.03 1.81,0.03 0.41,0 1.57,0 1.92,-0.03 l 0,0.62 -1.25,0 z"
         inkscape:connector-curvature="0"
         style="fill:#000000;stroke-width:0" /><path
         id="path4494"
         d="m 253.33,710.26 0,0.18 -0.01,0.18 -0.02,0.17 -0.03,0.17 -0.03,0.17 -0.04,0.16 -0.05,0.16 -0.06,0.16 -0.06,0.15 -0.07,0.14 -0.08,0.14 -0.08,0.14 -0.09,0.13 -0.1,0.12 -0.11,0.12 -0.11,0.12 -0.12,0.11 -0.12,0.1 -0.13,0.1 -0.14,0.09 -0.14,0.08 -0.15,0.08 -0.16,0.07 -0.16,0.07 -0.17,0.06 -0.17,0.05 -0.18,0.04 -0.19,0.04 -0.19,0.02 -0.2,0.02 -0.2,0.02 -0.21,0 -0.01,-0.47 c 0.82,0 1.33,-0.39 1.57,-0.79 0.29,-0.52 0.29,-1.26 0.29,-1.95 0,-1.19 0,-2.86 -1.85,-2.86 l 0,0 c -1.86,0 -1.86,1.68 -1.86,2.86 0,0.67 0,1.39 0.27,1.91 0.31,0.57 0.96,0.83 1.58,0.83 l 0.01,0.47 c -2.34,0 -3.58,-1.49 -3.58,-3.36 0,-1.87 1.31,-3.22 3.57,-3.22 2.34,0 3.58,1.42 3.58,3.22 z"
         inkscape:connector-curvature="0"
         style="fill:#000000;stroke-width:0" /><path
         id="path4496"
         d="m 260.46,712.54 0.02,0.04 0.02,0.04 0.01,0.02 0.01,0.02 0.01,0.01 0.01,0.02 0.01,0.01 0.02,0.02 0.01,0.01 0.02,0.01 0.02,0.02 0.02,0.01 0.02,0.01 0.03,0.01 0.03,0.01 0.03,0.01 0.03,0.01 0.03,0.01 0.04,0.01 0.02,0 0.02,0 0.03,0.01 0.02,0 0.02,0 0.03,0 0.02,0.01 0.03,0 0.03,0 0.03,0 0.03,0 0.03,0.01 0.03,0 0.03,0 0.03,0 0.04,0 0.03,0 0.04,0 0.04,0 0.04,0 0.04,0 0.04,0.01 0,0.61 c -0.52,-0.03 -0.54,-0.03 -1.13,-0.03 -0.39,0 -0.42,0 -1.24,0.03 l 0,-0.61 c 0.39,0 0.71,-0.08 0.71,-0.18 0,-0.01 0,-0.03 -0.07,-0.17 l -1.68,-3.69 -1.85,4.04 0.78,0 0,0.61 c -0.33,-0.03 -1.33,-0.03 -1.72,-0.03 -0.41,0 -1.25,0 -1.62,0.03 l 0,-0.61 0.91,0 2.52,-5.48 c 0.13,-0.28 0.16,-0.35 0.49,-0.35 0.23,0 0.34,0.03 0.47,0.32 z"
         inkscape:connector-curvature="0"
         style="fill:#000000;stroke-width:0" /><path
         id="path4498"
         d="m 267.91,710.29 0.03,0 0.03,0 0.03,0 0.02,0 0.03,0 0.02,0.01 0.03,0 0.02,0 0.02,0 0.01,0 0.02,0.01 0.02,0 0.01,0.01 0.02,0 0.01,0.01 0.01,0.01 0.02,0.01 0.01,0.01 0,0.01 0.01,0.01 0.01,0.01 0,0.01 0.01,0.01 0,0.01 0,0.01 0.01,0.01 0,0 0,0.01 0,0.01 0.01,0.01 0,0.02 0,0.01 0,0.01 0,0.01 0,0.01 0,0.02 0.01,0.01 0,0.01 0,0.02 0,0.01 0,0.02 0,0.02 0,0.01 c 0,0.43 -0.1,1.51 -0.76,2.18 -0.61,0.6 -1.41,0.79 -2.24,0.79 -2.24,0 -3.46,-1.46 -3.46,-3.27 0,-2.01 1.48,-3.31 3.65,-3.31 2.16,0 2.81,1.52 2.81,1.76 0,0.22 -0.22,0.22 -0.3,0.22 -0.23,0 -0.25,-0.05 -0.33,-0.23 -0.38,-0.94 -1.32,-1.24 -2.01,-1.24 -2.08,0 -2.1,1.94 -2.1,2.74 l 0,0.42 c 0.03,0.59 0.05,1.15 0.35,1.66 0.27,0.46 0.77,0.78 1.39,0.78 1.53,0 1.66,-1.72 1.68,-2.44 l -3.42,0 0,-0.42 z"
         inkscape:connector-curvature="0"
         style="fill:#000000;stroke-width:0" /><path
         id="path4500"
         d="m 275.28,710.29 0.03,0 0.03,0 0.02,0 0.03,0 0.02,0 0.03,0.01 0.02,0 0.02,0 0.02,0 0.02,0 0.02,0.01 0.01,0 0.02,0.01 0.01,0 0.02,0.01 0.01,0.01 0.01,0.01 0.01,0.01 0.01,0.01 0.01,0.01 0.01,0.01 0,0.01 0,0.01 0.01,0.01 0,0.01 0,0.01 0,0 0.01,0.01 0,0.01 0,0.01 0,0.02 0,0.01 0.01,0.01 0,0.01 0,0.01 0,0.02 0,0.01 0,0.01 0,0.02 0,0.01 0,0.02 0,0.02 0,0.01 c 0,0.43 -0.1,1.51 -0.76,2.18 -0.6,0.6 -1.4,0.79 -2.23,0.79 -2.24,0 -3.46,-1.46 -3.46,-3.27 0,-2.01 1.47,-3.31 3.64,-3.31 2.17,0 2.81,1.52 2.81,1.76 0,0.22 -0.21,0.22 -0.3,0.22 -0.23,0 -0.24,-0.05 -0.33,-0.23 -0.37,-0.94 -1.32,-1.24 -2.01,-1.24 -2.08,0 -2.09,1.94 -2.09,2.74 l 0,0.42 c 0.03,0.59 0.04,1.15 0.34,1.66 0.28,0.46 0.78,0.78 1.4,0.78 1.53,0 1.66,-1.72 1.67,-2.44 l -3.41,0 0,-0.42 z"
         inkscape:connector-curvature="0"
         style="fill:#000000;stroke-width:0" /><path
         id="path4502"
         d="m 281.14,716.96 0,-0.61 c 0.88,0 0.99,0 0.99,-0.56 l 0,-2.9 c -0.32,0.27 -0.95,0.69 -1.94,0.69 l 0.17,-0.48 c 0.59,0 1.22,-0.25 1.69,-0.88 l 0,-3.65 c -0.6,-0.87 -1.33,-1.06 -1.85,-1.06 -1.78,0 -1.78,1.82 -1.78,2.77 0,0.67 0,1.39 0.32,1.94 0.44,0.8 1.29,0.88 1.62,0.88 l -0.17,0.48 c -2.04,0 -3.49,-1.26 -3.49,-3.27 0,-2.05 1.42,-3.27 3.33,-3.27 0.79,0 1.46,0.27 2.02,0.74 l 0,-0.74 2.56,0.08 0,0.62 c -0.89,0 -0.99,0 -0.99,0.56 l 0,8.78 z"
         inkscape:connector-curvature="0"
         style="fill:#000000;stroke-width:0" /><path
         id="path4504"
         d="m 292.72,710.26 0,0.18 -0.01,0.18 -0.02,0.17 -0.03,0.17 -0.03,0.17 -0.04,0.16 -0.05,0.16 -0.06,0.16 -0.06,0.15 -0.07,0.14 -0.08,0.14 -0.08,0.14 -0.09,0.13 -0.1,0.12 -0.11,0.12 -0.11,0.12 -0.12,0.11 -0.12,0.1 -0.13,0.1 -0.14,0.09 -0.14,0.08 -0.15,0.08 -0.16,0.07 -0.16,0.07 -0.17,0.06 -0.17,0.05 -0.18,0.04 -0.19,0.04 -0.19,0.02 -0.2,0.02 -0.2,0.02 -0.21,0 -0.01,-0.47 c 0.81,0 1.33,-0.39 1.57,-0.79 0.29,-0.52 0.29,-1.26 0.29,-1.95 0,-1.19 0,-2.86 -1.85,-2.86 l 0,0 c -1.86,0 -1.86,1.68 -1.86,2.86 0,0.67 0,1.39 0.27,1.91 0.31,0.57 0.96,0.83 1.58,0.83 l 0.01,0.47 c -2.34,0 -3.58,-1.49 -3.58,-3.36 0,-1.87 1.32,-3.22 3.57,-3.22 2.34,0 3.58,1.42 3.58,3.22 z"
         inkscape:connector-curvature="0"
         style="fill:#000000;stroke-width:0" /><path
         id="path4506"
         d="m 296.17,710.35 0,0.02 0,0.03 0,0.03 0.01,0.03 0,0.07 0,0.07 0.01,0.09 0,0.09 0.01,0.1 0.02,0.1 0.01,0.11 0.02,0.11 0.02,0.11 0.02,0.12 0.03,0.12 0.04,0.12 0.03,0.12 0.04,0.12 0.05,0.11 0.05,0.12 0.06,0.11 0.06,0.11 0.07,0.1 0.08,0.1 0.08,0.09 0.04,0.05 0.05,0.04 0.04,0.04 0.05,0.04 0.05,0.04 0.06,0.03 0.05,0.03 0.06,0.03 0.05,0.03 0.06,0.03 0.07,0.02 0.06,0.02 0.07,0.02 0.07,0.01 0.07,0.01 0.07,0.01 0.08,0 0.07,0 c -0.2,-0.15 -0.3,-0.4 -0.3,-0.65 0,-0.59 0.47,-0.84 0.83,-0.84 0.36,0 0.84,0.25 0.84,0.84 0,0.73 -0.75,1.13 -1.44,1.13 -1.13,0 -1.62,-0.99 -1.82,-1.59 l -0.01,0 0,1.59 -2.36,-0.12 0,-0.61 c 0.89,0 0.99,0 0.99,-0.56 l 0,-4.55 -0.99,0 0,-0.62 c 0.33,0.03 1.41,0.03 1.81,0.03 0.42,0 1.58,0 1.92,-0.03 l 0,0.62 -1.25,0 z"
         inkscape:connector-curvature="0"
         style="fill:#000000;stroke-width:0" /><path
         id="path4508"
         d="m 309.21,704.96 -0.99,0 0,2.75 c 0.36,-0.31 0.99,-0.67 1.85,-0.67 l -0.17,0.47 c -0.61,0 -1.23,0.32 -1.68,0.99 l 0,3.64 c 0.53,0.69 1.29,0.92 1.85,0.92 0.94,0 1.78,-0.84 1.78,-2.74 0,-2.08 -1.03,-2.81 -1.95,-2.81 l 0.17,-0.47 c 1.97,0 3.5,1.19 3.5,3.28 0,1.98 -1.33,3.26 -3.27,3.26 -0.84,0 -1.57,-0.29 -2.15,-0.75 l 0,0.75 -2.48,-0.12 0,-0.61 c 0.89,0 0.99,0 0.99,-0.56 l 0,-7.33 -0.99,0 0,-0.62 c 0.33,0.03 1.36,0.03 1.76,0.03 0.41,0 1.45,0 1.78,-0.03 z"
         inkscape:connector-curvature="0"
         style="fill:#000000;stroke-width:0" /><path
         id="path4510"
         d="m 322.18,710.26 -0.01,0.18 -0.01,0.18 -0.02,0.17 -0.03,0.17 -0.03,0.17 -0.04,0.16 -0.05,0.16 -0.06,0.16 -0.06,0.15 -0.07,0.14 -0.08,0.14 -0.08,0.14 -0.09,0.13 -0.1,0.12 -0.1,0.12 -0.12,0.12 -0.11,0.11 -0.13,0.1 -0.13,0.1 -0.14,0.09 -0.14,0.08 -0.15,0.08 -0.16,0.07 -0.16,0.07 -0.17,0.06 -0.17,0.05 -0.18,0.04 -0.19,0.04 -0.19,0.02 -0.19,0.02 -0.21,0.02 -0.21,0 -0.01,-0.47 c 0.82,0 1.33,-0.39 1.58,-0.79 0.28,-0.52 0.28,-1.26 0.28,-1.95 0,-1.19 0,-2.86 -1.85,-2.86 l 0,0 c -1.86,0 -1.86,1.68 -1.86,2.86 0,0.67 0,1.39 0.27,1.91 0.32,0.57 0.96,0.83 1.58,0.83 l 0.01,0.47 c -2.33,0 -3.58,-1.49 -3.58,-3.36 0,-1.87 1.32,-3.22 3.57,-3.22 2.34,0 3.59,1.42 3.59,3.22 z"
         inkscape:connector-curvature="0"
         style="fill:#000000;stroke-width:0" /><path
         id="path4512"
         d="m 325.63,710.35 0,0.02 0,0.03 0,0.03 0,0.03 0,0.07 0,0.07 0.01,0.09 0.01,0.09 0.01,0.1 0.01,0.1 0.01,0.11 0.02,0.11 0.02,0.11 0.03,0.12 0.03,0.12 0.03,0.12 0.04,0.12 0.04,0.12 0.04,0.11 0.05,0.12 0.06,0.11 0.07,0.11 0.06,0.1 0.08,0.1 0.08,0.09 0.04,0.05 0.05,0.04 0.05,0.04 0.04,0.04 0.06,0.04 0.05,0.03 0.05,0.03 0.06,0.03 0.06,0.03 0.06,0.03 0.06,0.02 0.06,0.02 0.07,0.02 0.07,0.01 0.07,0.01 0.07,0.01 0.08,0 0.07,0 c -0.2,-0.15 -0.3,-0.4 -0.3,-0.65 0,-0.59 0.48,-0.84 0.84,-0.84 0.36,0 0.83,0.25 0.83,0.84 0,0.73 -0.75,1.13 -1.44,1.13 -1.13,0 -1.62,-0.99 -1.82,-1.59 l -0.01,0 0,1.59 -2.36,-0.12 0,-0.61 c 0.89,0 1,0 1,-0.56 l 0,-4.55 -1,0 0,-0.62 c 0.34,0.03 1.41,0.03 1.81,0.03 0.42,0 1.58,0 1.93,-0.03 l 0,0.62 -1.25,0 z"
         inkscape:connector-curvature="0"
         style="fill:#000000;stroke-width:0" /><path
         id="path4514"
         d="m 344.75,711 -0.6,0 c -0.3,-2.14 -0.84,-3.26 -3.33,-3.26 l -2.24,0 0,4.15 0.85,0 c 1.37,0 1.52,-0.59 1.52,-1.68 l 0.6,0 0,3.97 -0.6,0 c 0,-1.08 -0.15,-1.68 -1.52,-1.68 l -0.85,0 0,3.78 2.24,0 c 2.19,0 2.67,-0.94 2.88,-2.79 l 0.6,0 -0.41,3.4 -8.72,0 0,-0.61 1.52,0 0,-8.54 -1.52,0 0,-0.62 8.96,0 z"
         inkscape:connector-curvature="0"
         style="fill:#000000;stroke-width:0" /><path
         id="path4516"
         d="m 352.83,711.51 0,0.13 -0.01,0.12 -0.01,0.12 -0.01,0.11 -0.02,0.11 -0.02,0.11 -0.02,0.1 -0.03,0.1 -0.03,0.09 -0.04,0.1 -0.04,0.08 -0.04,0.08 -0.05,0.08 -0.05,0.08 -0.06,0.07 -0.06,0.07 -0.07,0.06 -0.07,0.06 -0.08,0.05 -0.08,0.05 -0.09,0.05 -0.09,0.04 -0.09,0.04 -0.1,0.04 -0.11,0.03 -0.11,0.02 -0.12,0.03 -0.12,0.02 -0.13,0.01 -0.13,0.01 -0.14,0.01 -0.15,0 c -1.03,0 -1.92,-0.5 -2.41,-1.58 l -0.01,0 0,1.58 -2.43,-0.12 0,-0.61 c 0.89,0 0.99,0 0.99,-0.56 l 0,-4.55 -0.99,0 0,-0.62 c 0.33,0.03 1.36,0.03 1.77,0.03 0.4,0 1.45,0 1.78,-0.03 l 0,0.62 -0.99,0 0,3.05 c 0,1.55 1.14,2.31 2.06,2.31 0.53,0 0.83,-0.34 0.83,-1.43 l 0,-3.93 -0.99,0 0,-0.62 c 0.33,0.03 1.37,0.03 1.77,0.03 0.4,0 1.45,0 1.78,-0.03 l 0,0.62 -0.99,0 z"
         inkscape:connector-curvature="0"
         style="fill:#000000;stroke-width:0" /><path
         id="path4518"
         d="m 360.89,708.8 0,0.01 0,0.01 0,0 0,0.01 0,0.01 0,0.01 0,0 0,0.01 0,0 -0.01,0.01 0,0.01 0,0 0,0.01 -0.01,0 0,0.01 0,0 -0.01,0.01 -0.01,0.01 0,0 -0.01,0.01 -0.01,0.01 -0.01,0 -0.01,0.01 -0.01,0 -0.01,0.01 -0.02,0 -0.01,0 -0.01,0 -0.01,0.01 -0.01,0 -0.02,0 -0.01,0 -0.01,0 -0.02,0 -0.02,0 -0.03,0 -0.03,0 c -0.23,0 -0.24,-0.01 -0.31,-0.18 -0.1,-0.28 -0.49,-1.24 -1.81,-1.24 -2.02,0 -2.02,2.18 -2.02,2.83 0,0.85 0.01,2.72 1.89,2.72 0.1,0 0.95,-0.02 0.95,-0.1 0,-0.01 -0.02,-0.02 -0.05,-0.04 -0.04,-0.04 -0.22,-0.26 -0.22,-0.62 0,-0.6 0.48,-0.84 0.84,-0.84 0.3,0 0.85,0.18 0.85,0.86 0,1.17 -1.65,1.26 -2.43,1.26 -2.55,0 -3.55,-1.66 -3.55,-3.31 0,-1.95 1.36,-3.27 3.47,-3.27 2.25,0 2.69,1.66 2.69,1.76 z"
         inkscape:connector-curvature="0"
         style="fill:#000000;stroke-width:0" /><path
         id="path4520"
         d="m 367.95,711.41 0,0.12 -0.01,0.12 -0.02,0.12 -0.02,0.12 -0.03,0.11 -0.03,0.11 -0.04,0.1 -0.05,0.1 -0.05,0.1 -0.06,0.1 -0.06,0.09 -0.07,0.09 -0.07,0.09 -0.09,0.08 -0.08,0.08 -0.1,0.07 -0.1,0.07 -0.1,0.07 -0.11,0.06 -0.12,0.06 -0.12,0.05 -0.13,0.05 -0.14,0.05 -0.14,0.04 -0.14,0.04 -0.16,0.03 -0.15,0.03 -0.17,0.02 -0.17,0.02 -0.17,0.01 -0.18,0.01 -0.19,0 c -0.8,0 -2.5,-0.07 -2.5,-1.28 0,-0.6 0.46,-0.86 0.85,-0.86 0.43,0 0.85,0.3 0.85,0.85 0,0.27 -0.1,0.53 -0.35,0.69 0.47,0.13 0.82,0.13 1.09,0.13 0.98,0 1.57,-0.55 1.57,-1.72 l 0,-0.58 0,-0.38 0,-1.35 c 0,-1.35 -1.21,-1.61 -1.67,-1.61 -0.7,0 -1.29,0.47 -1.29,1.13 0,1.31 1.55,1.75 2.96,1.83 l 0,0.38 c -2.27,0 -4.55,-0.63 -4.55,-2.22 0,-1.31 1.66,-1.59 2.65,-1.59 1.11,0 1.81,0.6 2.1,1.23 0,-0.53 0,-1.15 1.45,-1.15 l 0.73,0 c 0.3,0 0.41,0 0.41,0.32 0,0.3 -0.13,0.3 -0.33,0.3 -0.9,0.01 -0.9,0.24 -0.9,0.57 z"
         inkscape:connector-curvature="0"
         style="fill:#000000;stroke-width:0" /><path
         id="path4522"
         d="m 372.18,710.35 0,0.02 0,0.03 0,0.03 0,0.03 0,0.07 0.01,0.07 0,0.09 0.01,0.09 0.01,0.1 0.01,0.1 0.02,0.11 0.01,0.11 0.02,0.11 0.03,0.12 0.03,0.12 0.03,0.12 0.04,0.12 0.04,0.12 0.05,0.11 0.05,0.12 0.05,0.11 0.07,0.11 0.07,0.1 0.07,0.1 0.08,0.09 0.05,0.05 0.04,0.04 0.05,0.04 0.05,0.04 0.05,0.04 0.05,0.03 0.05,0.03 0.06,0.03 0.06,0.03 0.06,0.03 0.06,0.02 0.07,0.02 0.06,0.02 0.07,0.01 0.07,0.01 0.08,0.01 0.07,0 0.08,0 c -0.2,-0.15 -0.3,-0.4 -0.3,-0.65 0,-0.59 0.47,-0.84 0.83,-0.84 0.36,0 0.83,0.25 0.83,0.84 0,0.73 -0.74,1.13 -1.43,1.13 -1.14,0 -1.62,-0.99 -1.83,-1.59 l -0.01,0 0,1.59 -2.35,-0.12 0,-0.61 c 0.89,0 0.99,0 0.99,-0.56 l 0,-4.55 -0.99,0 0,-0.62 c 0.33,0.03 1.4,0.03 1.81,0.03 0.41,0 1.57,0 1.92,-0.03 l 0,0.62 -1.25,0 z"
         inkscape:connector-curvature="0"
         style="fill:#000000;stroke-width:0" /><path
         id="path4524"
         d="m 377.65,709.73 0.07,-0.03 0.06,-0.03 0.07,-0.03 0.07,-0.03 0.06,-0.02 0.07,-0.03 0.06,-0.02 0.07,-0.02 0.07,-0.02 0.06,-0.02 0.06,-0.01 0.07,-0.02 0.06,-0.01 0.06,-0.01 0.06,-0.01 0.06,-0.01 0.06,-0.01 0.06,-0.01 0.05,0 0.06,-0.01 0.05,0 0.05,-0.01 0.04,0 0.05,0 0.04,-0.01 0.04,0 0.04,0 0.03,0 0.03,0 0.03,0 0.03,0 0.02,0 0,0.46 c -1.25,0 -1.25,0.99 -1.25,1.65 0,0.66 0,1.65 1.25,1.65 1.25,0 1.25,-0.99 1.25,-1.65 0,-0.66 0,-1.65 -1.25,-1.65 l 0,0 0,-0.46 c 1.98,0 2.77,1.11 2.77,2.11 0,0.73 -0.42,1.25 -0.59,1.39 0.42,0.23 0.76,0.29 1.01,0.32 -0.05,-0.08 -0.09,-0.13 -0.09,-0.32 0,-0.3 0.2,-0.57 0.57,-0.57 0.37,0 0.58,0.27 0.58,0.57 0,0.35 -0.26,0.8 -0.87,0.8 -0.61,0 -1.2,-0.3 -1.5,-0.56 -0.59,0.35 -1.15,0.48 -1.88,0.48 -1.98,0 -2.77,-1.11 -2.77,-2.11 0,-0.44 0.14,-1.03 0.75,-1.52 -0.25,-0.27 -0.51,-0.78 -0.51,-1.29 0,-0.62 0.34,-1.15 0.64,-1.38 -0.35,-0.09 -1.24,-0.42 -1.24,-1.23 0,-0.85 0.94,-1.81 3.57,-1.81 l 0.02,0.46 c -1.9,0 -2.41,0.8 -2.41,1.35 0,0.92 0.9,0.92 1.12,0.92 l 1.63,0 c 1.05,0 2.05,-0.19 2.05,-0.94 0,-0.5 -0.5,-1.33 -2.39,-1.33 l -0.02,-0.46 c 2.39,0 3.59,0.77 3.59,1.85 0,1.26 -0.83,1.68 -1.19,1.85 -0.69,0.34 -1.61,0.34 -2.87,0.34 -0.36,0 -0.99,0 -1.06,0.02 -0.62,0.1 -0.79,0.65 -0.79,0.92 0,0.11 0.01,0.33 0.17,0.51 z"
         inkscape:connector-curvature="0"
         style="fill:#000000;stroke-width:0" /><path
         id="path4526"
         d="m 391.46,710.26 0,0.18 -0.01,0.18 -0.02,0.17 -0.03,0.17 -0.03,0.17 -0.05,0.16 -0.04,0.16 -0.06,0.16 -0.06,0.15 -0.07,0.14 -0.08,0.14 -0.09,0.14 -0.09,0.13 -0.09,0.12 -0.11,0.12 -0.11,0.12 -0.12,0.11 -0.12,0.1 -0.13,0.1 -0.14,0.09 -0.14,0.08 -0.15,0.08 -0.16,0.07 -0.16,0.07 -0.17,0.06 -0.18,0.05 -0.18,0.04 -0.18,0.04 -0.19,0.02 -0.2,0.02 -0.2,0.02 -0.21,0 -0.02,-0.47 c 0.82,0 1.34,-0.39 1.58,-0.79 0.29,-0.52 0.29,-1.26 0.29,-1.95 0,-1.19 0,-2.86 -1.85,-2.86 l 0,0 c -1.87,0 -1.87,1.68 -1.87,2.86 0,0.67 0,1.39 0.28,1.91 0.31,0.57 0.96,0.83 1.57,0.83 l 0.02,0.47 c -2.34,0 -3.59,-1.49 -3.59,-3.36 0,-1.87 1.32,-3.22 3.57,-3.22 2.34,0 3.59,1.42 3.59,3.22 z"
         inkscape:connector-curvature="0"
         style="fill:#000000;stroke-width:0" /></g>    <g
       id="g4697"
       transform="matrix(1,0,0,-1,89.905855,937.37145)"
       xml:space="preserve"
       stroke="black"
       stroke-linecap="butt"
       stroke-linejoin="miter"
       stroke-miterlimit="10.433"
       stroke-dasharray="none"
       stroke-dashoffset="0"
       stroke-opacity="1"
       fill="none"
       fill-rule="evenodd"
       fill-opacity="1"
       font-style="normal"
       font-variant="normal"
       font-weight="normal"
       font-stretch="normal"
       font-size-adjust="none"
       letter-spacing="normal"
       word-spacing="normal"
       text-anchor="start"
       ns0:text="\\Large{\\texttt{pedido?} n}"
       ns0:preamble="/home/piter/.config/inkscape/extensions/preambulo.ini"
       style="font-style:normal;font-variant:normal;font-weight:normal;font-stretch:normal;letter-spacing:normal;word-spacing:normal;text-anchor:start;fill:none;fill-opacity:1;fill-rule:evenodd;stroke:#000000;stroke-linecap:butt;stroke-linejoin:miter;stroke-miterlimit:10.43299961;stroke-dasharray:none;stroke-dashoffset:0;stroke-opacity:1"><path
         d="M226.33,703.94 L226.35,703.94 L226.37,703.94 L226.39,703.94 L226.41,703.94 L226.43,703.94 L226.46,703.94 L226.48,703.94 L226.5,703.94 L226.53,703.95 L226.55,703.95 L226.58,703.95 L226.6,703.96 L226.62,703.97 L226.65,703.97 L226.67,703.98 L226.69,703.99 L226.71,704 L226.74,704.01 L226.76,704.03 L226.78,704.04 L226.79,704.06 L226.81,704.07 L226.82,704.08 L226.83,704.09 L226.84,704.1 L226.84,704.11 L226.85,704.12 L226.86,704.14 L226.86,704.15 L226.87,704.16 L226.87,704.17 L226.88,704.19 L226.88,704.2 L226.89,704.22 L226.89,704.23 L226.89,704.25 L226.9,704.26 L226.9,704.28 L226.9,704.3 L226.9,704.32 L226.9,704.33 L226.9,704.35 C226.9,704.77,226.53,704.77,226.33,704.77 H225.74 V707.84 C226.09,707.45,226.62,707.04,227.42,707.04 L227.35,707.87 C226.27,707.87,225.74,709.09,225.74,709.8 V710.94 C225.74,711.76,226.55,712.56,227.48,712.56 C228.51,712.56,229.34,711.51,229.34,710.22 C229.34,708.84,228.37,707.87,227.35,707.87 L227.42,707.04 C228.94,707.04,230.28,708.4,230.28,710.22 C230.28,711.99,229.07,713.39,227.58,713.39 C226.53,713.39,225.87,712.76,225.74,712.62 C225.74,713.09,225.74,713.31,225.17,713.31 H224.22 C224.02,713.31,223.65,713.31,223.65,712.89 C223.65,712.47,224.02,712.47,224.22,712.47 H224.81 V704.77 H224.22 C224.02,704.77,223.65,704.77,223.65,704.35 C223.65,703.94,224.02,703.94,224.22,703.94 Z "
         stroke-width="0"
         fill="black"
         id="path4699" /><path
         d="M236.78,709.88 L236.84,709.88 L236.89,709.88 L236.92,709.88 L236.95,709.88 L236.97,709.88 L237,709.89 L237.02,709.89 L237.05,709.89 L237.07,709.9 L237.09,709.91 L237.12,709.91 L237.14,709.92 L237.16,709.93 L237.18,709.94 L237.2,709.96 L237.22,709.97 L237.24,709.99 L237.25,710.01 L237.27,710.03 L237.27,710.04 L237.28,710.05 L237.29,710.06 L237.29,710.07 L237.3,710.09 L237.31,710.1 L237.31,710.12 L237.32,710.13 L237.32,710.15 L237.33,710.16 L237.33,710.18 L237.34,710.2 L237.34,710.21 L237.34,710.23 L237.34,710.25 L237.35,710.27 L237.35,710.29 L237.35,710.31 L237.35,710.34 L237.35,710.36 L237.35,710.38 L237.35,710.41 C237.35,712.09,236.41,713.43,234.61,713.43 C232.95,713.43,231.62,712,231.62,710.25 C231.62,708.44,233.07,707.04,234.83,707.04 C236.68,707.04,237.35,708.31,237.35,708.69 C237.35,708.77,237.33,709.09,236.88,709.09 C236.61,709.09,236.52,708.99,236.44,708.77 C236.08,707.94,235.15,707.87,234.87,707.87 C233.68,707.87,232.74,708.77,232.58,709.88 L232.59,710.67 C232.78,711.89,233.71,712.6,234.61,712.6 C236.05,712.6,236.35,711.38,236.41,710.67 H232.59 L232.58,709.88 Z "
         stroke-width="0"
         fill="black"
         id="path4701" /><path
         d="M244.2,715.3 L244.2,715.34 L244.2,715.38 L244.19,715.42 L244.19,715.45 L244.19,715.49 L244.19,715.52 L244.18,715.55 L244.18,715.58 L244.17,715.61 L244.16,715.63 L244.15,715.66 L244.14,715.68 L244.13,715.7 L244.12,715.72 L244.11,715.74 L244.09,715.76 L244.08,715.78 L244.06,715.79 L244.04,715.81 L244.02,715.82 L244,715.83 L243.97,715.84 L243.95,715.85 L243.92,715.86 L243.89,715.87 L243.86,715.87 L243.82,715.88 L243.79,715.88 L243.75,715.88 L243.71,715.89 L243.67,715.89 L243.65,715.89 L243.62,715.89 H242.68 C242.48,715.89,242.1,715.89,242.1,715.47 C242.1,715.06,242.48,715.06,242.68,715.06 H243.26 V712.67 C243.04,712.9,242.45,713.39,241.57,713.39 L241.66,712.56 C242.59,712.56,243.26,711.71,243.26,710.97 V709.85 C243.26,709.04,242.6,707.87,241.53,707.87 C240.49,707.87,239.66,708.92,239.66,710.21 C239.66,711.58,240.64,712.56,241.66,712.56 L241.57,713.39 C240.05,713.39,238.73,712.02,238.73,710.21 C238.73,708.44,239.96,707.04,241.44,707.04 C242.38,707.04,242.99,707.6,243.26,707.91 C243.26,707.31,243.26,707.12,243.84,707.12 H244.79 C244.99,707.12,245.36,707.12,245.36,707.54 C245.36,707.96,244.99,707.96,244.79,707.96 H244.2 Z "
         stroke-width="0"
         fill="black"
         id="path4703" /><path
         d="M249.91,715.26 L249.91,715.29 L249.91,715.32 L249.91,715.36 L249.9,715.39 L249.89,715.42 L249.88,715.45 L249.87,715.48 L249.86,715.51 L249.85,715.54 L249.84,715.57 L249.82,715.59 L249.8,715.62 L249.79,715.64 L249.77,715.67 L249.75,715.69 L249.72,715.71 L249.7,715.74 L249.68,715.76 L249.65,715.77 L249.63,715.79 L249.6,715.81 L249.58,715.82 L249.55,715.84 L249.52,715.85 L249.49,715.86 L249.46,715.87 L249.43,715.88 L249.4,715.89 L249.37,715.89 L249.33,715.9 L249.3,715.9 L249.27,715.9 C248.91,715.9,248.62,715.61,248.62,715.26 C248.62,714.9,248.91,714.61,249.27,714.61 C249.63,714.61,249.91,714.9,249.91,715.26 Z "
         stroke-width="0"
         fill="black"
         id="path4705" /><path
         d="M247.45,713.31 L247.43,713.31 L247.41,713.31 L247.38,713.31 L247.36,713.31 L247.34,713.3 L247.32,713.3 L247.29,713.3 L247.27,713.3 L247.25,713.3 L247.22,713.29 L247.2,713.29 L247.18,713.28 L247.15,713.28 L247.13,713.27 L247.11,713.26 L247.08,713.25 L247.06,713.24 L247.04,713.23 L247.02,713.22 L247,713.2 L246.98,713.19 L246.96,713.17 L246.96,713.16 L246.95,713.15 L246.94,713.14 L246.93,713.13 L246.93,713.12 L246.92,713.11 L246.91,713.1 L246.91,713.08 L246.9,713.07 L246.9,713.06 L246.89,713.04 L246.89,713.03 L246.88,713.01 L246.88,713 L246.88,712.98 L246.88,712.96 L246.87,712.95 L246.87,712.93 L246.87,712.91 L246.87,712.89 C246.87,712.47,247.24,712.47,247.45,712.47 H248.98 V707.96 H247.35 C247.14,707.96,246.76,707.96,246.76,707.54 C246.76,707.12,247.14,707.12,247.35,707.12 H251.33 C251.53,707.12,251.91,707.12,251.91,707.54 C251.91,707.96,251.53,707.96,251.33,707.96 H249.91 V712.72 C249.91,713.16,249.83,713.31,249.34,713.31 Z "
         stroke-width="0"
         fill="black"
         id="path4707" /><path
         d="M258.96,715.3 L258.96,715.34 L258.96,715.38 L258.95,715.42 L258.95,715.45 L258.95,715.49 L258.95,715.52 L258.94,715.55 L258.94,715.58 L258.93,715.61 L258.92,715.63 L258.91,715.66 L258.9,715.68 L258.89,715.7 L258.88,715.72 L258.87,715.74 L258.85,715.76 L258.84,715.78 L258.82,715.79 L258.8,715.81 L258.78,715.82 L258.76,715.83 L258.73,715.84 L258.71,715.85 L258.68,715.86 L258.65,715.87 L258.62,715.87 L258.58,715.88 L258.55,715.88 L258.51,715.88 L258.47,715.89 L258.43,715.89 L258.41,715.89 L258.38,715.89 H257.44 C257.23,715.89,256.86,715.89,256.86,715.47 C256.86,715.06,257.23,715.06,257.44,715.06 H258.02 V712.67 C257.8,712.9,257.21,713.39,256.33,713.39 L256.42,712.56 C257.35,712.56,258.02,711.71,258.02,710.97 V709.85 C258.02,709.04,257.36,707.87,256.29,707.87 C255.26,707.87,254.42,708.92,254.42,710.21 C254.42,711.58,255.4,712.56,256.42,712.56 L256.33,713.39 C254.81,713.39,253.49,712.02,253.49,710.21 C253.49,708.44,254.73,707.04,256.2,707.04 C257.14,707.04,257.75,707.6,258.02,707.91 C258.02,707.31,258.02,707.12,258.6,707.12 H259.55 C259.75,707.12,260.12,707.12,260.12,707.54 C260.12,707.96,259.75,707.96,259.55,707.96 H258.96 Z "
         stroke-width="0"
         fill="black"
         id="path4709" /><path
         d="M266.89,710.22 L266.89,710.39 L266.87,710.55 L266.86,710.71 L266.83,710.87 L266.8,711.03 L266.76,711.18 L266.71,711.33 L266.66,711.48 L266.6,711.62 L266.54,711.76 L266.47,711.9 L266.39,712.03 L266.31,712.15 L266.23,712.27 L266.14,712.39 L266.04,712.5 L265.94,712.61 L265.84,712.71 L265.73,712.8 L265.62,712.89 L265.5,712.97 L265.38,713.05 L265.26,713.12 L265.13,713.19 L265,713.24 L264.87,713.29 L264.74,713.33 L264.6,713.37 L264.46,713.4 L264.32,713.42 L264.18,713.43 L264.03,713.43 V712.6 C265.04,712.6,265.96,711.66,265.96,710.32 C265.96,708.95,265.07,707.87,264.03,707.87 H264.03 C263,707.87,262.11,708.96,262.11,710.32 C262.11,711.66,263.03,712.6,264.03,712.6 V713.43 C262.48,713.43,261.18,712.02,261.18,710.22 C261.18,708.41,262.5,707.04,264.03,707.04 C265.57,707.04,266.89,708.41,266.89,710.22 Z "
         stroke-width="0"
         fill="black"
         id="path4711" /><path
         d="M271.72,710.44 L271.72,710.53 L271.72,710.62 L271.73,710.7 L271.74,710.79 L271.75,710.88 L271.77,710.96 L271.79,711.04 L271.81,711.12 L271.84,711.2 L271.87,711.28 L271.9,711.36 L271.93,711.43 L271.97,711.51 L272.01,711.58 L272.06,711.66 L272.11,711.73 L272.16,711.8 L272.21,711.87 L272.27,711.94 L272.33,712.01 L272.4,712.08 L272.47,712.14 L272.54,712.21 L272.61,712.27 L272.69,712.34 L272.77,712.4 L272.86,712.47 L272.95,712.53 L273.04,712.59 L273.13,712.65 L273.23,712.71 L273.34,712.78 C273.97,713.15,274.23,713.65,274.23,714.17 C274.23,714.68,273.9,715.97,271.27,715.97 C269.39,715.97,268.6,715.06,268.6,714.2 C268.6,713.69,269.02,713.58,269.19,713.58 C269.41,713.58,269.77,713.75,269.77,714.17 C269.77,714.4,269.69,714.47,269.64,714.54 C269.84,714.83,270.31,715.14,271.27,715.14 C272.78,715.14,273.29,714.64,273.29,714.17 C273.29,713.77,272.93,713.55,272.81,713.48 C270.73,712.26,270.68,711.07,270.68,710.34 C270.68,709.82,270.68,709.62,271.2,709.62 C271.72,709.62,271.72,709.86,271.72,710.18 Z "
         stroke-width="0"
         fill="black"
         id="path4713" /><path
         d="M271.85,707.77 L271.84,707.8 L271.84,707.83 L271.84,707.87 L271.83,707.9 L271.82,707.93 L271.82,707.96 L271.81,707.99 L271.79,708.02 L271.78,708.05 L271.77,708.08 L271.75,708.1 L271.74,708.13 L271.72,708.16 L271.7,708.18 L271.68,708.2 L271.66,708.23 L271.63,708.25 L271.61,708.27 L271.59,708.29 L271.56,708.3 L271.53,708.32 L271.51,708.34 L271.48,708.35 L271.45,708.36 L271.42,708.38 L271.39,708.39 L271.36,708.39 L271.33,708.4 L271.3,708.41 L271.27,708.41 L271.23,708.41 L271.2,708.41 C270.84,708.41,270.55,708.13,270.55,707.77 C270.55,707.41,270.84,707.12,271.2,707.12 C271.56,707.12,271.85,707.41,271.85,707.77 Z "
         stroke-width="0"
         fill="black"
         id="path4715" /><path
         d="M287.73,710.61 L287.73,710.73 L287.73,710.85 L287.73,710.96 L287.73,711.07 L287.73,711.17 L287.73,711.27 L287.73,711.36 L287.73,711.45 L287.72,711.54 L287.72,711.62 L287.72,711.69 L287.71,711.77 L287.71,711.84 L287.7,711.91 L287.7,711.97 L287.69,712.03 L287.68,712.09 L287.67,712.15 L287.66,712.21 L287.65,712.26 L287.64,712.31 L287.62,712.36 L287.61,712.41 L287.59,712.45 L287.57,712.5 L287.55,712.55 L287.53,712.59 L287.51,712.63 L287.49,712.68 L287.46,712.72 L287.43,712.76 L287.4,712.8 C286.99,713.36,286.31,713.45,285.82,713.45 C284.43,713.45,283.89,712.26,283.77,711.97 H283.76 V713.45 L281.81,713.29 V712.88 C282.78,712.88,282.9,712.78,282.9,712.07 V708.18 C282.9,707.54,282.74,707.54,281.81,707.54 V707.12 C282.18,707.15,282.95,707.15,283.36,707.15 C283.77,707.15,284.55,707.15,284.92,707.12 V707.54 C284,707.54,283.83,707.54,283.83,708.18 V710.85 C283.83,712.36,284.82,713.16,285.71,713.16 C286.6,713.16,286.8,712.43,286.8,711.55 V708.18 C286.8,707.54,286.64,707.54,285.71,707.54 V707.12 C286.08,707.15,286.86,707.15,287.26,707.15 C287.67,707.15,288.45,707.15,288.82,707.12 V707.54 C288.11,707.54,287.75,707.54,287.73,707.97 Z "
         stroke-width="0"
         fill="black"
         id="path4717" /></g>    <g
       style="font-style:normal;font-variant:normal;font-weight:normal;font-stretch:normal;letter-spacing:normal;word-spacing:normal;text-anchor:start;fill:none;fill-opacity:1;fill-rule:evenodd;stroke:#000000;stroke-linecap:butt;stroke-linejoin:miter;stroke-miterlimit:10.43299961;stroke-dasharray:none;stroke-dashoffset:0;stroke-opacity:1"
       ns0:preamble="/home/piter/.config/inkscape/extensions/preambulo.ini"
       ns0:text="\\Large{\\texttt{entrega!} n}"
       text-anchor="start"
       word-spacing="normal"
       letter-spacing="normal"
       font-size-adjust="none"
       font-stretch="normal"
       font-weight="normal"
       font-variant="normal"
       font-style="normal"
       fill-opacity="1"
       fill-rule="evenodd"
       fill="none"
       stroke-opacity="1"
       stroke-dashoffset="0"
       stroke-dasharray="none"
       stroke-miterlimit="10.433"
       stroke-linejoin="miter"
       stroke-linecap="butt"
       stroke="black"
       xml:space="preserve"
       transform="matrix(1,0,0,-1,82.199977,1093.7566)"
       id="g4888"><path
         id="path4890"
         fill="black"
         stroke-width="0"
         d="M229.4,709.88 L229.46,709.88 L229.51,709.88 L229.54,709.88 L229.57,709.88 L229.59,709.88 L229.62,709.89 L229.64,709.89 L229.67,709.89 L229.69,709.9 L229.71,709.91 L229.74,709.91 L229.76,709.92 L229.78,709.93 L229.8,709.94 L229.82,709.96 L229.84,709.97 L229.86,709.99 L229.87,710.01 L229.89,710.03 L229.89,710.04 L229.9,710.05 L229.91,710.06 L229.91,710.07 L229.92,710.09 L229.93,710.1 L229.93,710.12 L229.94,710.13 L229.94,710.15 L229.95,710.16 L229.95,710.18 L229.96,710.2 L229.96,710.21 L229.96,710.23 L229.96,710.25 L229.97,710.27 L229.97,710.29 L229.97,710.31 L229.97,710.34 L229.97,710.36 L229.97,710.38 L229.97,710.41 C229.97,712.09,229.03,713.43,227.23,713.43 C225.57,713.43,224.24,712,224.24,710.25 C224.24,708.44,225.68,707.04,227.45,707.04 C229.3,707.04,229.97,708.31,229.97,708.69 C229.97,708.77,229.95,709.09,229.5,709.09 C229.23,709.09,229.14,708.99,229.06,708.77 C228.7,707.94,227.76,707.87,227.49,707.87 C226.3,707.87,225.35,708.77,225.2,709.88 L225.21,710.67 C225.4,711.89,226.33,712.6,227.23,712.6 C228.67,712.6,228.97,711.38,229.03,710.67 H225.21 L225.2,709.88 Z " /><path
         id="path4892"
         fill="black"
         stroke-width="0"
         d="M236.81,711.33 L236.81,711.46 L236.8,711.58 L236.79,711.7 L236.78,711.82 L236.76,711.93 L236.74,712.04 L236.72,712.14 L236.69,712.24 L236.66,712.34 L236.62,712.43 L236.58,712.51 L236.54,712.6 L236.49,712.68 L236.44,712.75 L236.39,712.82 L236.33,712.89 L236.27,712.95 L236.21,713.01 L236.14,713.06 L236.07,713.11 L236,713.15 L235.92,713.2 L235.84,713.23 L235.76,713.27 L235.67,713.3 L235.58,713.32 L235.49,713.34 L235.39,713.36 L235.29,713.37 L235.19,713.38 L235.08,713.39 L234.97,713.39 C234,713.39,233.37,712.85,233.12,712.57 C233.12,713.1,233.12,713.31,232.55,713.31 H231.6 C231.4,713.31,231.03,713.31,231.03,712.89 C231.03,712.47,231.4,712.47,231.6,712.47 H232.19 V707.96 H231.6 C231.4,707.96,231.03,707.96,231.03,707.54 C231.03,707.12,231.4,707.12,231.6,707.12 H233.71 C233.91,707.12,234.28,707.12,234.28,707.54 C234.28,707.96,233.91,707.96,233.71,707.96 H233.12 V710.55 C233.12,711.94,234.1,712.56,234.87,712.56 C235.71,712.56,235.88,712.09,235.88,711.27 V707.96 H235.29 C235.09,707.96,234.71,707.96,234.71,707.54 C234.71,707.12,235.09,707.12,235.29,707.12 H237.4 C237.6,707.12,237.97,707.12,237.97,707.54 C237.97,707.96,237.6,707.96,237.4,707.96 H236.81 Z " /><path
         id="path4894"
         fill="black"
         stroke-width="0"
         d="M241.3,712.47 H243.62 C243.82,712.47,244.2,712.47,244.2,712.89 C244.2,713.31,243.82,713.31,243.62,713.31 H241.3 V714.48 C241.3,714.74,241.3,715.07,240.84,715.07 C240.37,715.07,240.37,714.74,240.37,714.48 V713.31 H239.15 C238.95,713.31,238.56,713.31,238.56,712.89 C238.56,712.47,238.93,712.47,239.13,712.47 H240.37 V708.86 C240.37,707.52,241.28,707.04,242.32,707.04 C243.09,707.04,244.51,707.42,244.51,708.89 C244.51,709.17,244.51,709.49,244.04,709.49 C243.58,709.49,243.58,709.17,243.58,708.87 C243.57,708.01,242.75,707.87,242.42,707.87 C241.3,707.87,241.3,708.59,241.3,708.93 Z " /><path
         id="path4896"
         fill="black"
         stroke-width="0"
         d="M248.68,709.83 L248.68,709.99 L248.69,710.15 L248.71,710.3 L248.73,710.44 L248.76,710.58 L248.8,710.72 L248.84,710.85 L248.89,710.98 L248.94,711.1 L249,711.22 L249.06,711.34 L249.12,711.45 L249.2,711.55 L249.27,711.65 L249.35,711.75 L249.43,711.84 L249.52,711.92 L249.61,712 L249.7,712.08 L249.8,712.15 L249.9,712.21 L250,712.27 L250.1,712.33 L250.21,712.37 L250.32,712.42 L250.43,712.45 L250.54,712.49 L250.65,712.51 L250.76,712.53 L250.87,712.55 L250.99,712.56 L251.1,712.56 C251.18,712.56,251.26,712.56,251.33,712.54 C251.38,712.03,251.78,711.99,251.88,711.99 C252.21,711.99,252.44,712.23,252.44,712.54 C252.44,713.16,251.84,713.39,251.12,713.39 C250.16,713.39,249.34,712.96,248.68,712.16 V712.72 C248.68,713.16,248.59,713.31,248.1,713.31 H246.66 C246.46,713.31,246.08,713.31,246.08,712.89 C246.08,712.47,246.46,712.47,246.66,712.47 H247.75 V707.96 H246.66 C246.46,707.96,246.08,707.96,246.08,707.54 C246.08,707.12,246.46,707.12,246.66,707.12 H250.18 C250.39,707.12,250.76,707.12,250.76,707.54 C250.76,707.96,250.39,707.96,250.18,707.96 H248.68 Z " /><path
         id="path4898"
         fill="black"
         stroke-width="0"
         d="M258.93,709.88 L258.98,709.88 L259.04,709.88 L259.07,709.88 L259.09,709.88 L259.12,709.88 L259.14,709.89 L259.17,709.89 L259.19,709.89 L259.22,709.9 L259.24,709.91 L259.26,709.91 L259.29,709.92 L259.31,709.93 L259.33,709.94 L259.35,709.96 L259.37,709.97 L259.38,709.99 L259.4,710.01 L259.42,710.03 L259.42,710.04 L259.43,710.05 L259.44,710.06 L259.44,710.07 L259.45,710.09 L259.45,710.1 L259.46,710.12 L259.47,710.13 L259.47,710.15 L259.47,710.16 L259.48,710.18 L259.48,710.2 L259.49,710.21 L259.49,710.23 L259.49,710.25 L259.5,710.27 L259.5,710.29 L259.5,710.31 L259.5,710.34 L259.5,710.36 L259.5,710.38 L259.5,710.41 C259.5,712.09,258.55,713.43,256.76,713.43 C255.1,713.43,253.76,712,253.76,710.25 C253.76,708.44,255.21,707.04,256.98,707.04 C258.83,707.04,259.5,708.31,259.5,708.69 C259.5,708.77,259.47,709.09,259.03,709.09 C258.76,709.09,258.67,708.99,258.58,708.77 C258.23,707.94,257.29,707.87,257.02,707.87 C255.83,707.87,254.88,708.77,254.73,709.88 L254.74,710.67 C254.93,711.89,255.86,712.6,256.76,712.6 C258.2,712.6,258.5,711.38,258.55,710.67 H254.74 L254.73,709.88 Z " /><path
         id="path4900"
         fill="black"
         stroke-width="0"
         d="M263.07,708 L263.06,708 L263.04,708 L263.01,708 L262.99,708 L262.96,708 L262.93,708 L262.9,708.01 L262.87,708.01 L262.84,708.02 L262.8,708.02 L262.77,708.03 L262.73,708.04 L262.7,708.05 L262.66,708.06 L262.63,708.08 L262.59,708.09 L262.56,708.11 L262.52,708.14 L262.49,708.16 L262.46,708.19 L262.43,708.22 L262.41,708.23 L262.4,708.25 L262.39,708.27 L262.37,708.29 L262.36,708.3 L262.35,708.32 L262.33,708.35 L262.32,708.37 L262.31,708.39 L262.3,708.41 L262.29,708.44 L262.28,708.46 L262.28,708.49 L262.27,708.52 L262.26,708.54 L262.26,708.57 L262.25,708.6 L262.25,708.64 L262.25,708.67 L262.24,708.7 L262.24,708.74 L262.24,708.77 C262.24,709.04,262.28,709.1,262.34,709.22 C262.63,709.02,263.1,708.83,263.62,708.83 V709.63 C262.9,709.63,262.26,710.26,262.26,711.11 C262.26,711.96,262.92,712.59,263.62,712.59 C264.38,712.59,265,711.93,265,711.11 C265,710.29,264.38,709.63,263.62,709.63 H263.62 V708.83 C264.92,708.83,265.93,709.88,265.93,711.11 C265.93,711.47,265.84,711.91,265.54,712.39 C265.91,712.59,266.26,712.63,266.47,712.65 C266.56,712.2,266.98,712.19,266.99,712.19 C267.16,712.19,267.52,712.3,267.52,712.73 C267.52,713,267.3,713.48,266.5,713.48 C266.24,713.48,265.6,713.42,265,712.95 C264.52,713.28,264.03,713.39,263.63,713.39 C262.33,713.39,261.32,712.34,261.32,711.11 C261.32,710.79,261.39,710.25,261.8,709.73 C261.52,709.33,261.48,708.9,261.48,708.73 C261.48,708.23,261.73,707.83,261.84,707.7 L262.18,706.98 C262.51,707.19,262.66,707.19,263.65,707.19 C264.91,707.19,266.49,707.19,266.49,705.93 C266.49,705.27,265.44,704.64,264.03,704.64 H264.03 C262.63,704.64,261.58,705.27,261.58,705.93 C261.58,706.15,261.65,706.65,262.18,706.98 L261.84,707.7 C261.05,707.27,260.76,706.49,260.76,705.93 C260.76,704.74,262.21,703.84,264.03,703.84 C265.86,703.84,267.3,704.73,267.3,705.93 C267.3,708,264.77,708,264.29,708 Z " /><path
         id="path4902"
         fill="black"
         stroke-width="0"
         d="M273.67,711.2 L273.66,711.3 L273.66,711.4 L273.65,711.5 L273.63,711.61 L273.61,711.71 L273.58,711.81 L273.55,711.91 L273.51,712.01 L273.47,712.1 L273.42,712.2 L273.36,712.29 L273.31,712.38 L273.24,712.47 L273.17,712.56 L273.1,712.64 L273.02,712.72 L272.93,712.8 L272.84,712.88 L272.74,712.95 L272.63,713.01 L272.53,713.08 L272.41,713.14 L272.29,713.19 L272.16,713.24 L272.03,713.28 L271.89,713.32 L271.74,713.36 L271.59,713.38 L271.43,713.41 L271.26,713.42 L271.09,713.43 L270.91,713.43 C270.31,713.43,268.92,713.43,268.92,712.45 C268.92,712.06,269.19,711.84,269.51,711.84 C269.59,711.84,270.07,711.87,270.08,712.47 C270.08,712.54,270.1,712.56,270.4,712.59 C270.57,712.6,270.76,712.6,270.93,712.6 C271.26,712.6,271.74,712.6,272.22,712.24 C272.73,711.84,272.73,711.44,272.73,711.03 V710.25 V709.02 C272.73,708.69,272.73,708.39,272.15,708.11 C271.64,707.87,270.97,707.87,270.93,707.87 C270.08,707.87,269.46,708.33,269.46,708.92 C269.46,709.76,271,710.25,272.73,710.25 V711.03 C271.89,711,271.06,710.94,270.17,710.65 C269.45,710.41,268.53,709.89,268.53,708.92 C268.53,707.9,269.43,707.04,270.77,707.04 C271.23,707.04,272.12,707.11,272.86,707.62 C273.15,707.15,273.87,707.12,274.41,707.12 C274.76,707.12,275.1,707.12,275.1,707.54 C275.1,707.96,274.73,707.96,274.53,707.96 C274.15,707.96,273.87,707.98,273.67,708.07 Z " /><path
         id="path4904"
         fill="black"
         stroke-width="0"
         d="M279.44,715.3 L279.44,715.33 L279.44,715.37 L279.44,715.4 L279.43,715.43 L279.43,715.46 L279.43,715.48 L279.42,715.51 L279.42,715.54 L279.41,715.56 L279.41,715.59 L279.4,715.61 L279.39,715.64 L279.38,715.66 L279.38,715.68 L279.37,715.7 L279.36,715.72 L279.35,715.74 L279.34,715.76 L279.33,715.78 L279.32,715.79 L279.31,715.81 L279.29,715.83 L279.27,715.86 L279.25,715.88 L279.22,715.91 L279.19,715.93 L279.17,715.95 L279.14,715.97 L279.11,715.98 L279.08,716 L279.06,716.01 L279.03,716.02 L279,716.03 L278.98,716.04 L278.95,716.04 L278.93,716.05 L278.9,716.05 L278.88,716.05 L278.86,716.06 L278.84,716.06 L278.82,716.06 L278.81,716.06 L278.79,716.06 C278.65,716.06,278.15,716,278.15,715.3 C278.15,715.09,278.25,711.11,278.26,710.55 C278.28,709.75,278.29,709.62,278.79,709.62 C279.27,709.62,279.3,709.8,279.31,710.09 C279.35,710.92,279.35,711.78,279.37,712.63 C279.4,713.51,279.44,714.42,279.44,715.3 Z " /><path
         id="path4906"
         fill="black"
         stroke-width="0"
         d="M279.44,707.77 L279.44,707.8 L279.44,707.83 L279.43,707.87 L279.43,707.9 L279.42,707.93 L279.41,707.96 L279.4,707.99 L279.39,708.02 L279.38,708.05 L279.36,708.08 L279.35,708.1 L279.33,708.13 L279.31,708.16 L279.29,708.18 L279.27,708.2 L279.25,708.23 L279.23,708.25 L279.21,708.27 L279.18,708.29 L279.16,708.3 L279.13,708.32 L279.1,708.34 L279.08,708.35 L279.05,708.36 L279.02,708.38 L278.99,708.39 L278.96,708.39 L278.92,708.4 L278.89,708.41 L278.86,708.41 L278.83,708.41 L278.79,708.41 C278.44,708.41,278.15,708.13,278.15,707.77 C278.15,707.41,278.44,707.12,278.79,707.12 C279.15,707.12,279.44,707.41,279.44,707.77 Z " /><path
         id="path4908"
         fill="black"
         stroke-width="0"
         d="M295.12,710.61 L295.12,710.73 L295.12,710.85 L295.12,710.96 L295.12,711.07 L295.12,711.17 L295.12,711.27 L295.12,711.36 L295.11,711.45 L295.11,711.54 L295.11,711.62 L295.11,711.69 L295.1,711.77 L295.1,711.84 L295.09,711.91 L295.09,711.97 L295.08,712.03 L295.07,712.09 L295.06,712.15 L295.05,712.21 L295.04,712.26 L295.03,712.31 L295.01,712.36 L295,712.41 L294.98,712.45 L294.96,712.5 L294.94,712.55 L294.92,712.59 L294.9,712.63 L294.87,712.68 L294.85,712.72 L294.82,712.76 L294.79,712.8 C294.37,713.36,293.7,713.45,293.21,713.45 C291.82,713.45,291.27,712.26,291.16,711.97 H291.14 V713.45 L289.19,713.29 V712.88 C290.17,712.88,290.28,712.78,290.28,712.07 V708.18 C290.28,707.54,290.13,707.54,289.19,707.54 V707.12 C289.57,707.15,290.34,707.15,290.74,707.15 C291.16,707.15,291.93,707.15,292.31,707.12 V707.54 C291.39,707.54,291.22,707.54,291.22,708.18 V710.85 C291.22,712.36,292.21,713.16,293.1,713.16 C293.99,713.16,294.19,712.43,294.19,711.55 V708.18 C294.19,707.54,294.03,707.54,293.1,707.54 V707.12 C293.47,707.15,294.24,707.15,294.65,707.15 C295.06,707.15,295.84,707.15,296.21,707.12 V707.54 C295.49,707.54,295.13,707.54,295.12,707.97 Z " /></g>  </g>
</svg>
