<?xml version="1.0" encoding="UTF-8" standalone="no"?>
<!-- Created with Inkscape (http://www.inkscape.org/) -->

<svg
   xmlns:ns0="http://www.iki.fi/pav/software/textext/"
   xmlns:dc="http://purl.org/dc/elements/1.1/"
   xmlns:cc="http://creativecommons.org/ns#"
   xmlns:rdf="http://www.w3.org/1999/02/22-rdf-syntax-ns#"
   xmlns:svg="http://www.w3.org/2000/svg"
   xmlns="http://www.w3.org/2000/svg"
   xmlns:sodipodi="http://sodipodi.sourceforge.net/DTD/sodipodi-0.dtd"
   xmlns:inkscape="http://www.inkscape.org/namespaces/inkscape"
   width="210mm"
   height="297mm"
   viewBox="0 0 744.09448819 1052.3622047"
   id="svg26024"
   version="1.1"
   inkscape:version="0.91 r13725"
   sodipodi:docname="CC_esquematico.svg">
  <defs
     id="defs26026">
    <marker
       inkscape:stockid="TriangleOutL"
       orient="auto"
       refY="0.0"
       refX="0.0"
       id="TriangleOutL"
       style="overflow:visible"
       inkscape:isstock="true">
      <path
         id="path16487"
         d="M 5.77,0.0 L -2.88,5.0 L -2.88,-5.0 L 5.77,0.0 z "
         style="fill-rule:evenodd;stroke:#000000;stroke-width:1pt;stroke-opacity:1;fill:#000000;fill-opacity:1"
         transform="scale(0.8)" />
    </marker>
    <marker
       inkscape:stockid="TriangleInL"
       orient="auto"
       refY="0.0"
       refX="0.0"
       id="TriangleInL"
       style="overflow:visible"
       inkscape:isstock="true">
      <path
         id="path16478"
         d="M 5.77,0.0 L -2.88,5.0 L -2.88,-5.0 L 5.77,0.0 z "
         style="fill-rule:evenodd;stroke:#000000;stroke-width:1pt;stroke-opacity:1;fill:#000000;fill-opacity:1"
         transform="scale(-0.8)" />
    </marker>
    <marker
       inkscape:stockid="TriangleInL"
       orient="auto"
       refY="0"
       refX="0"
       id="TriangleInL-7"
       style="overflow:visible"
       inkscape:isstock="true">
      <path
         inkscape:connector-curvature="0"
         id="path16478-4"
         d="m 5.77,0 -8.65,5 0,-10 8.65,5 z"
         style="fill:#000000;fill-opacity:1;fill-rule:evenodd;stroke:#000000;stroke-width:1pt;stroke-opacity:1"
         transform="scale(-0.8,-0.8)" />
    </marker>
    <marker
       inkscape:stockid="TriangleOutL"
       orient="auto"
       refY="0"
       refX="0"
       id="TriangleOutL-4"
       style="overflow:visible"
       inkscape:isstock="true">
      <path
         inkscape:connector-curvature="0"
         id="path16487-3"
         d="m 5.77,0 -8.65,5 0,-10 8.65,5 z"
         style="fill:#000000;fill-opacity:1;fill-rule:evenodd;stroke:#000000;stroke-width:1pt;stroke-opacity:1"
         transform="scale(0.8,0.8)" />
    </marker>
  </defs>
  <sodipodi:namedview
     id="base"
     pagecolor="#ffffff"
     bordercolor="#666666"
     borderopacity="1.0"
     inkscape:pageopacity="0.0"
     inkscape:pageshadow="2"
     inkscape:zoom="2.6085937"
     inkscape:cx="161.12363"
     inkscape:cy="547.07031"
     inkscape:document-units="px"
     inkscape:current-layer="layer1"
     showgrid="true"
     inkscape:window-width="1855"
     inkscape:window-height="1056"
     inkscape:window-x="65"
     inkscape:window-y="24"
     inkscape:window-maximized="1">
    <inkscape:grid
       type="xygrid"
       id="grid26730" />
  </sodipodi:namedview>
  <metadata
     id="metadata26029">
    <rdf:RDF>
      <cc:Work
         rdf:about="">
        <dc:format>image/svg+xml</dc:format>
        <dc:type
           rdf:resource="http://purl.org/dc/dcmitype/StillImage" />
        <dc:title></dc:title>
      </cc:Work>
    </rdf:RDF>
  </metadata>
  <g
     inkscape:label="Capa 1"
     inkscape:groupmode="layer"
     id="layer1">
    <rect
       y="402.76697"
       x="121.54653"
       height="114.59346"
       width="134.67879"
       id="rect47535-6-1"
       style="fill:#b4f3f4;fill-opacity:1;stroke:#000000;stroke-width:1;stroke-miterlimit:4;stroke-dasharray:none;stroke-dashoffset:0;stroke-opacity:1" />
    <g
       id="g11839"
       transform="matrix(1,0,0,-1,-84.665869,1159.9274)"
       xml:space="preserve"
       stroke-miterlimit="10.433"
       font-style="normal"
       font-variant="normal"
       font-weight="normal"
       font-stretch="normal"
       font-size-adjust="none"
       letter-spacing="normal"
       word-spacing="normal"
       ns0:text="\\Large{\n\\begin{tabular}{c}\n\\textbf{Control}\\\\\n\\textbf{de Calidad}\\\\\n\\end{tabular}}"
       ns0:preamble="/home/piter/.config/inkscape/extensions/preambulo.ini"
       style="font-style:normal;font-variant:normal;font-weight:normal;font-stretch:normal;letter-spacing:normal;word-spacing:normal;text-anchor:start;fill:none;fill-opacity:1;fill-rule:evenodd;stroke:#000000;stroke-linecap:butt;stroke-linejoin:miter;stroke-miterlimit:10.43299961;stroke-dasharray:none;stroke-dashoffset:0;stroke-opacity:1"><path
         d="m 255.98,714.18 0,0.01 0,0.02 0,0.01 0,0.01 0,0.02 0,0.01 0,0.01 0,0.02 0,0.01 0,0.01 0,0.01 0,0.01 0,0.02 0,0.02 -0.01,0.02 0,0.02 0,0.01 -0.01,0.02 0,0.01 -0.01,0.01 0,0.02 -0.01,0.01 -0.01,0.01 -0.01,0 -0.01,0.01 -0.01,0.01 -0.01,0 -0.01,0.01 -0.01,0 -0.01,0 0,0.01 -0.01,0 -0.01,0 -0.01,0 -0.01,0 -0.01,0 -0.01,0 -0.01,0 -0.01,0.01 -0.01,0 -0.01,0 -0.01,0 -0.02,0 -0.01,0 -0.01,0 -0.02,0 -0.01,0 -0.02,0 -1.07,-1.03 c -0.8,0.68 -1.77,1.03 -2.83,1.03 -3.43,0 -5.64,-2.08 -5.64,-5.09 0,-2.96 2.14,-5.1 5.66,-5.1 2.55,0 4.2,1.75 4.2,3.45 0,0.24 -0.09,0.25 -0.3,0.25 -0.14,0 -0.29,0 -0.3,-0.15 -0.13,-2.18 -1.98,-2.93 -3.27,-2.93 -0.94,0 -2.2,0.26 -3,1.16 -0.5,0.55 -0.96,1.34 -0.96,3.32 0,1.4 0.21,2.45 0.89,3.25 0.92,1.08 2.35,1.22 3.04,1.22 1.07,0 2.81,-0.6 3.24,-3.13 0.03,-0.13 0.16,-0.13 0.33,-0.13 0.33,0 0.33,0.03 0.33,0.38 z"
         id="path11841"
         inkscape:connector-curvature="0"
         style="fill:#000000;stroke-width:0" /><path
         d="m 264.5,707.68 0,0.18 -0.01,0.17 -0.02,0.18 -0.03,0.17 -0.03,0.16 -0.05,0.17 -0.04,0.15 -0.06,0.16 -0.06,0.15 -0.07,0.14 -0.08,0.14 -0.09,0.14 -0.09,0.13 -0.09,0.13 -0.11,0.12 -0.11,0.11 -0.12,0.11 -0.12,0.1 -0.13,0.1 -0.14,0.09 -0.14,0.09 -0.15,0.08 -0.16,0.07 -0.16,0.06 -0.17,0.06 -0.18,0.05 -0.18,0.04 -0.18,0.04 -0.19,0.03 -0.2,0.02 -0.2,0.01 -0.21,0 -0.02,-0.47 c 0.82,0 1.34,-0.39 1.58,-0.79 0.29,-0.51 0.29,-1.26 0.29,-1.95 0,-1.19 0,-2.85 -1.85,-2.85 l 0,0 c -1.87,0 -1.87,1.67 -1.87,2.85 0,0.67 0,1.39 0.28,1.91 0.31,0.57 0.96,0.83 1.57,0.83 l 0.02,0.47 c -2.34,0 -3.59,-1.49 -3.59,-3.35 0,-1.88 1.32,-3.23 3.57,-3.23 2.34,0 3.59,1.42 3.59,3.23 z"
         id="path11843"
         inkscape:connector-curvature="0"
         style="fill:#000000;stroke-width:0" /><path
         d="m 272.58,708.92 0,0.13 0,0.12 -0.01,0.12 -0.01,0.12 -0.02,0.11 -0.02,0.1 -0.02,0.1 -0.03,0.1 -0.03,0.1 -0.04,0.09 -0.04,0.08 -0.04,0.09 -0.05,0.08 -0.06,0.07 -0.05,0.07 -0.07,0.07 -0.06,0.06 -0.07,0.06 -0.08,0.06 -0.08,0.05 -0.09,0.04 -0.09,0.05 -0.1,0.04 -0.1,0.03 -0.1,0.03 -0.12,0.03 -0.11,0.02 -0.12,0.02 -0.13,0.01 -0.14,0.01 -0.14,0.01 -0.14,0 c -1.03,0 -1.92,-0.5 -2.41,-1.58 l -0.02,0 0,1.58 -2.42,-0.11 0,-0.62 c 0.89,0 0.99,0 0.99,-0.56 l 0,-4.55 -0.99,0 0,-0.62 c 0.33,0.03 1.36,0.03 1.76,0.03 0.41,0 1.45,0 1.78,-0.03 l 0,0.62 -0.99,0 0,3.06 c 0,1.55 1.15,2.31 2.07,2.31 0.53,0 0.83,-0.35 0.83,-1.44 l 0,-3.93 -0.99,0 0,-0.62 c 0.33,0.03 1.36,0.03 1.77,0.03 0.4,0 1.44,0 1.78,-0.03 l 0,0.62 -1,0 z"
         id="path11845"
         inkscape:connector-curvature="0"
         style="fill:#000000;stroke-width:0" /><path
         d="m 276.52,710.29 2.06,0 0,0.62 -2.06,0 0,2.74 -0.61,0 c -0.01,-1.43 -0.7,-2.85 -2.12,-2.89 l 0,-0.47 1.16,0 0,-3.99 c 0,-1.52 1.18,-1.85 2.21,-1.85 1.06,0 1.69,0.8 1.69,1.86 l 0,0.76 -0.6,0 0,-0.74 c 0,-0.95 -0.43,-1.36 -0.87,-1.36 -0.86,0 -0.86,0.96 -0.86,1.29 z"
         id="path11847"
         inkscape:connector-curvature="0"
         style="fill:#000000;stroke-width:0" /><path
         d="m 282.75,707.76 0,0.03 0,0.02 0,0.03 0,0.03 0,0.07 0.01,0.08 0,0.08 0.01,0.09 0.01,0.1 0.01,0.1 0.02,0.11 0.01,0.11 0.02,0.12 0.03,0.11 0.03,0.12 0.03,0.12 0.04,0.12 0.04,0.12 0.05,0.11 0.05,0.12 0.05,0.11 0.07,0.11 0.07,0.1 0.07,0.1 0.08,0.1 0.05,0.04 0.04,0.04 0.05,0.04 0.05,0.04 0.05,0.04 0.05,0.03 0.05,0.04 0.06,0.03 0.06,0.02 0.06,0.03 0.06,0.02 0.07,0.02 0.06,0.02 0.07,0.01 0.07,0.01 0.08,0.01 0.07,0.01 0.08,0 c -0.2,-0.16 -0.3,-0.4 -0.3,-0.66 0,-0.59 0.47,-0.83 0.83,-0.83 0.36,0 0.83,0.24 0.83,0.83 0,0.73 -0.75,1.13 -1.43,1.13 -1.14,0 -1.63,-0.99 -1.83,-1.59 l -0.01,0 0,1.59 -2.35,-0.11 0,-0.62 c 0.89,0 0.99,0 0.99,-0.56 l 0,-4.55 -0.99,0 0,-0.62 c 0.33,0.03 1.4,0.03 1.81,0.03 0.41,0 1.57,0 1.92,-0.03 l 0,0.62 -1.25,0 z"
         id="path11849"
         inkscape:connector-curvature="0"
         style="fill:#000000;stroke-width:0" /><path
         d="m 293.96,707.68 0,0.18 -0.01,0.17 -0.02,0.18 -0.03,0.17 -0.03,0.16 -0.05,0.17 -0.04,0.15 -0.06,0.16 -0.06,0.15 -0.07,0.14 -0.08,0.14 -0.09,0.14 -0.09,0.13 -0.09,0.13 -0.11,0.12 -0.11,0.11 -0.12,0.11 -0.12,0.1 -0.13,0.1 -0.14,0.09 -0.14,0.09 -0.15,0.08 -0.16,0.07 -0.16,0.06 -0.17,0.06 -0.18,0.05 -0.18,0.04 -0.18,0.04 -0.19,0.03 -0.2,0.02 -0.2,0.01 -0.21,0 -0.02,-0.47 c 0.82,0 1.34,-0.39 1.58,-0.79 0.29,-0.51 0.29,-1.26 0.29,-1.95 0,-1.19 0,-2.85 -1.85,-2.85 l 0,0 c -1.87,0 -1.87,1.67 -1.87,2.85 0,0.67 0,1.39 0.28,1.91 0.31,0.57 0.96,0.83 1.57,0.83 l 0.02,0.47 c -2.34,0 -3.59,-1.49 -3.59,-3.35 0,-1.88 1.32,-3.23 3.57,-3.23 2.34,0 3.59,1.42 3.59,3.23 z"
         id="path11851"
         inkscape:connector-curvature="0"
         style="fill:#000000;stroke-width:0" /><path
         d="m 297.54,714.49 -2.48,-0.11 0,-0.62 c 0.89,0 0.99,0 0.99,-0.56 l 0,-8.05 -0.99,0 0,-0.62 c 0.33,0.03 1.35,0.03 1.74,0.03 0.38,0 1.4,0 1.73,-0.03 l 0,0.62 -0.99,0 z"
         id="path11853"
         inkscape:connector-curvature="0"
         style="fill:#000000;stroke-width:0" /><path
         d="m 239.07,696.44 0,-0.61 c 0.89,0 0.99,0 0.99,-0.56 l 0,-2.9 c -0.32,0.27 -0.95,0.69 -1.94,0.69 l 0.17,-0.47 c 0.59,0 1.22,-0.26 1.7,-0.89 l 0,-3.65 c -0.61,-0.87 -1.34,-1.06 -1.85,-1.06 -1.78,0 -1.78,1.82 -1.78,2.77 0,0.67 0,1.39 0.31,1.94 0.45,0.8 1.29,0.89 1.62,0.89 l -0.17,0.47 c -2.04,0 -3.49,-1.26 -3.49,-3.27 0,-2.05 1.42,-3.27 3.33,-3.27 0.79,0 1.47,0.27 2.03,0.74 l 0,-0.74 2.55,0.08 0,0.62 c -0.89,0 -0.99,0 -0.99,0.56 l 0,8.78 z"
         id="path11855"
         inkscape:connector-curvature="0"
         style="fill:#000000;stroke-width:0" /><path
         d="m 249.54,689.77 0.03,0 0.03,0 0.03,0 0.03,0 0.02,0 0.03,0.01 0.02,0 0.02,0 0.02,0 0.02,0 0.01,0.01 0.02,0 0.02,0.01 0.01,0 0.01,0.01 0.02,0.01 0.01,0.01 0.01,0.01 0.01,0.01 0.01,0.01 0,0.01 0.01,0.02 0,0.01 0.01,0.01 0,0.01 0,0 0,0.01 0.01,0.01 0,0.01 0,0.02 0,0.01 0,0.01 0.01,0.01 0,0.01 0,0.02 0,0.01 0,0.01 0,0.02 0,0.01 0,0.02 0,0.02 0,0.01 c 0,0.43 -0.1,1.51 -0.76,2.18 -0.6,0.6 -1.41,0.79 -2.24,0.79 -2.24,0 -3.45,-1.46 -3.45,-3.27 0,-2.01 1.47,-3.31 3.64,-3.31 2.17,0 2.81,1.52 2.81,1.76 0,0.22 -0.22,0.22 -0.3,0.22 -0.23,0 -0.25,-0.05 -0.33,-0.23 -0.37,-0.94 -1.32,-1.24 -2.01,-1.24 -2.08,0 -2.09,1.94 -2.09,2.74 l 0,0.42 c 0.03,0.59 0.04,1.15 0.34,1.66 0.27,0.46 0.78,0.78 1.39,0.78 1.54,0 1.67,-1.72 1.68,-2.44 l -3.41,0 0,-0.42 z"
         id="path11857"
         inkscape:connector-curvature="0"
         style="fill:#000000;stroke-width:0" /><path
         d="m 266.55,696.24 0,0.02 0,0.01 0,0.02 0,0.01 0,0.02 0,0.01 0,0.01 0,0.01 0,0.02 0,0.01 0,0.01 0,0.01 -0.01,0.02 0,0.02 0,0.02 0,0.02 0,0.01 -0.01,0.02 0,0.01 -0.01,0.01 0,0.01 -0.01,0.01 -0.01,0.01 -0.01,0.01 -0.01,0.01 -0.01,0.01 -0.01,0 -0.01,0.01 -0.01,0 -0.01,0 -0.01,0 -0.01,0 0,0.01 -0.01,0 -0.01,0 -0.01,0 -0.01,0 -0.01,0 -0.01,0 -0.01,0 -0.02,0 -0.01,0 -0.01,0.01 -0.01,0 -0.02,0 -0.01,0 -0.01,0 -0.02,0 -1.07,-1.04 c -0.81,0.69 -1.77,1.04 -2.83,1.04 -3.43,0 -5.64,-2.08 -5.64,-5.1 0,-2.95 2.14,-5.09 5.65,-5.09 2.56,0 4.21,1.75 4.21,3.44 0,0.25 -0.09,0.26 -0.3,0.26 -0.15,0 -0.29,0 -0.3,-0.16 -0.13,-2.18 -1.99,-2.92 -3.28,-2.92 -0.93,0 -2.19,0.25 -2.99,1.16 -0.51,0.54 -0.97,1.33 -0.97,3.31 0,1.41 0.22,2.46 0.89,3.26 0.92,1.08 2.36,1.22 3.05,1.22 1.07,0 2.81,-0.6 3.24,-3.13 0.03,-0.13 0.16,-0.13 0.33,-0.13 0.33,0 0.33,0.03 0.33,0.38 z"
         id="path11859"
         inkscape:connector-curvature="0"
         style="fill:#000000;stroke-width:0" /><path
         d="m 274.06,690.89 -0.01,0.12 -0.01,0.12 -0.01,0.12 -0.02,0.12 -0.03,0.11 -0.03,0.11 -0.04,0.1 -0.05,0.1 -0.05,0.1 -0.06,0.1 -0.06,0.09 -0.07,0.09 -0.08,0.09 -0.08,0.08 -0.09,0.08 -0.09,0.07 -0.1,0.07 -0.1,0.07 -0.12,0.06 -0.11,0.06 -0.13,0.05 -0.12,0.05 -0.14,0.05 -0.14,0.04 -0.15,0.04 -0.15,0.03 -0.16,0.03 -0.16,0.02 -0.17,0.02 -0.18,0.01 -0.18,0.01 -0.18,0 c -0.81,0 -2.5,-0.07 -2.5,-1.27 0,-0.61 0.46,-0.87 0.85,-0.87 0.43,0 0.84,0.31 0.84,0.85 0,0.27 -0.1,0.53 -0.34,0.69 0.47,0.13 0.82,0.13 1.09,0.13 0.97,0 1.56,-0.55 1.56,-1.72 l 0,-0.58 0,-0.38 0,-1.35 c 0,-1.35 -1.2,-1.61 -1.66,-1.61 -0.7,0 -1.29,0.47 -1.29,1.13 0,1.31 1.55,1.75 2.95,1.83 l 0,0.38 c -2.26,0 -4.54,-0.63 -4.54,-2.22 0,-1.31 1.66,-1.59 2.65,-1.59 1.1,0 1.81,0.6 2.09,1.23 0,-0.53 0,-1.15 1.45,-1.15 l 0.73,0 c 0.31,0 0.42,0 0.42,0.32 0,0.3 -0.13,0.3 -0.33,0.3 -0.9,0.01 -0.9,0.24 -0.9,0.57 z"
         id="path11861"
         inkscape:connector-curvature="0"
         style="fill:#000000;stroke-width:0" /><path
         d="m 278.42,696.56 -2.49,-0.12 0,-0.61 c 0.89,0 0.99,0 0.99,-0.56 l 0,-8.05 -0.99,0 0,-0.62 c 0.33,0.03 1.35,0.03 1.74,0.03 0.39,0 1.41,0 1.74,-0.03 l 0,0.62 -0.99,0 z"
         id="path11863"
         inkscape:connector-curvature="0"
         style="fill:#000000;stroke-width:0" /><path
         d="m 282.99,695.54 0,0.05 -0.01,0.06 -0.01,0.05 0,0.05 -0.02,0.05 -0.01,0.05 -0.02,0.05 -0.02,0.05 -0.02,0.05 -0.02,0.04 -0.03,0.04 -0.02,0.05 -0.03,0.04 -0.03,0.03 -0.04,0.04 -0.03,0.04 -0.04,0.03 -0.03,0.03 -0.04,0.03 -0.04,0.03 -0.05,0.03 -0.04,0.02 -0.04,0.02 -0.05,0.02 -0.05,0.02 -0.04,0.02 -0.05,0.01 -0.05,0.01 -0.05,0.01 -0.05,0.01 -0.05,0 -0.06,0 c -0.58,0 -1.03,-0.48 -1.03,-1.03 0,-0.55 0.45,-1.03 1.03,-1.03 0.56,0 1.04,0.44 1.04,1.03 z"
         id="path11865"
         inkscape:connector-curvature="0"
         style="fill:#000000;stroke-width:0" /><path
         d="m 280.46,692.94 0,-0.61 c 0.85,0 0.95,0 0.95,-0.56 l 0,-4.55 -0.99,0 0,-0.62 c 0.33,0.03 1.32,0.03 1.71,0.03 0.4,0 1.32,0 1.66,-0.03 l 0,0.62 -0.89,0 0,5.84 z"
         id="path11867"
         inkscape:connector-curvature="0"
         style="fill:#000000;stroke-width:0" /><path
         d="m 289.25,696.44 0,-0.61 c 0.89,0 0.99,0 0.99,-0.56 l 0,-2.9 c -0.32,0.27 -0.95,0.69 -1.94,0.69 l 0.18,-0.47 c 0.58,0 1.22,-0.26 1.69,-0.89 l 0,-3.65 c -0.6,-0.87 -1.34,-1.06 -1.85,-1.06 -1.78,0 -1.78,1.82 -1.78,2.77 0,0.67 0,1.39 0.32,1.94 0.44,0.8 1.29,0.89 1.62,0.89 l -0.18,0.47 c -2.03,0 -3.48,-1.26 -3.48,-3.27 0,-2.05 1.42,-3.27 3.33,-3.27 0.78,0 1.46,0.27 2.02,0.74 l 0,-0.74 2.55,0.08 0,0.62 c -0.89,0 -0.99,0 -0.99,0.56 l 0,8.78 z"
         id="path11869"
         inkscape:connector-curvature="0"
         style="fill:#000000;stroke-width:0" /><path
         d="m 299.83,690.89 0,0.12 -0.01,0.12 -0.01,0.12 -0.02,0.12 -0.03,0.11 -0.04,0.11 -0.04,0.1 -0.04,0.1 -0.05,0.1 -0.06,0.1 -0.06,0.09 -0.07,0.09 -0.08,0.09 -0.08,0.08 -0.09,0.08 -0.09,0.07 -0.1,0.07 -0.11,0.07 -0.11,0.06 -0.12,0.06 -0.12,0.05 -0.13,0.05 -0.13,0.05 -0.14,0.04 -0.15,0.04 -0.15,0.03 -0.16,0.03 -0.16,0.02 -0.17,0.02 -0.18,0.01 -0.18,0.01 -0.19,0 c -0.8,0 -2.49,-0.07 -2.49,-1.27 0,-0.61 0.46,-0.87 0.84,-0.87 0.44,0 0.85,0.31 0.85,0.85 0,0.27 -0.1,0.53 -0.34,0.69 0.47,0.13 0.81,0.13 1.09,0.13 0.97,0 1.56,-0.55 1.56,-1.72 l 0,-0.58 0,-0.38 0,-1.35 c 0,-1.35 -1.2,-1.61 -1.66,-1.61 -0.71,0 -1.29,0.47 -1.29,1.13 0,1.31 1.54,1.75 2.95,1.83 l 0,0.38 c -2.27,0 -4.55,-0.63 -4.55,-2.22 0,-1.31 1.67,-1.59 2.66,-1.59 1.1,0 1.8,0.6 2.09,1.23 0,-0.53 0,-1.15 1.45,-1.15 l 0.73,0 c 0.3,0 0.42,0 0.42,0.32 0,0.3 -0.13,0.3 -0.33,0.3 -0.91,0.01 -0.91,0.24 -0.91,0.57 z"
         id="path11871"
         inkscape:connector-curvature="0"
         style="fill:#000000;stroke-width:0" /><path
         d="m 306.06,696.44 0,-0.61 c 0.89,0 0.99,0 0.99,-0.56 l 0,-2.9 c -0.32,0.27 -0.95,0.69 -1.94,0.69 l 0.17,-0.47 c 0.59,0 1.22,-0.26 1.7,-0.89 l 0,-3.65 c -0.61,-0.87 -1.34,-1.06 -1.85,-1.06 -1.78,0 -1.78,1.82 -1.78,2.77 0,0.67 0,1.39 0.31,1.94 0.45,0.8 1.29,0.89 1.62,0.89 l -0.17,0.47 c -2.04,0 -3.49,-1.26 -3.49,-3.27 0,-2.05 1.43,-3.27 3.33,-3.27 0.79,0 1.47,0.27 2.03,0.74 l 0,-0.74 2.55,0.08 0,0.62 c -0.89,0 -0.99,0 -0.99,0.56 l 0,8.78 z"
         id="path11873"
         inkscape:connector-curvature="0"
         style="fill:#000000;stroke-width:0" /></g>    <path
       inkscape:connector-curvature="0"
       id="path47022"
       d="m 260.73503,422.49952 48.61246,0"
       style="fill:none;fill-rule:evenodd;stroke:#000000;stroke-width:1px;stroke-linecap:butt;stroke-linejoin:miter;stroke-opacity:1;marker-start:url(#TriangleInL)"
       sodipodi:nodetypes="cc" />
    <g
       style="font-style:normal;font-variant:normal;font-weight:normal;font-stretch:normal;letter-spacing:normal;word-spacing:normal;text-anchor:start;fill:none;fill-opacity:1;fill-rule:evenodd;stroke:#000000;stroke-linecap:butt;stroke-linejoin:miter;stroke-miterlimit:10.43299961;stroke-dasharray:none;stroke-dashoffset:0;stroke-opacity:1"
       ns0:preamble="/home/piter/.config/inkscape/extensions/preambulo.ini"
       ns0:text="\\Large{\\texttt{queryClient\\_i}}"
       word-spacing="normal"
       letter-spacing="normal"
       font-size-adjust="none"
       font-stretch="normal"
       font-weight="normal"
       font-variant="normal"
       font-style="normal"
       stroke-miterlimit="10.433"
       xml:space="preserve"
       transform="matrix(1,0,0,-1,38.487263,1124.9405)"
       id="g47668"><path
         style="fill:#000000;stroke-width:0"
         inkscape:connector-curvature="0"
         id="path47670"
         d="m 229.72,712.8 0,0.05 0,0.05 -0.01,0.05 0,0.03 0,0.02 0,0.03 -0.01,0.02 0,0.03 -0.01,0.02 0,0.03 -0.01,0.02 -0.01,0.02 -0.01,0.02 -0.01,0.03 -0.02,0.02 -0.01,0.02 -0.02,0.01 -0.01,0.02 -0.02,0.02 -0.01,0.01 -0.01,0 -0.02,0.01 -0.01,0.01 -0.01,0 -0.01,0.01 -0.02,0 -0.01,0.01 -0.01,0 -0.02,0.01 -0.02,0 -0.01,0.01 -0.02,0 -0.02,0 -0.01,0.01 -0.02,0 -0.02,0 -0.02,0 -0.02,0 -0.02,0 c -0.48,0 -0.48,-0.31 -0.48,-0.59 l 0,-0.27 c -0.27,0.29 -0.8,0.86 -1.79,0.86 l 0.09,-0.83 c 1.09,0 1.7,-1.16 1.7,-2.05 l 0,-0.65 c 0,-0.8 -0.7,-1.99 -1.85,-1.99 -1.09,0 -1.98,1.05 -1.98,2.34 0,1.34 1.01,2.35 2.13,2.35 l -0.09,0.83 c -1.56,0 -2.97,-1.35 -2.97,-3.18 0,-1.75 1.26,-3.17 2.83,-3.17 1.04,0 1.63,0.61 1.93,0.93 l 0,-3.2 -0.64,0 c -0.2,0 -0.59,0 -0.59,-0.42 0,-0.41 0.39,-0.41 0.59,-0.41 l 2.22,0 c 0.2,0 0.59,0 0.59,0.41 0,0.42 -0.39,0.42 -0.59,0.42 l -0.64,0 z" /><path
         style="fill:#000000;stroke-width:0"
         inkscape:connector-curvature="0"
         id="path47672"
         d="m 236.81,712.72 0,0.04 0,0.04 0,0.04 -0.01,0.03 0,0.03 0,0.04 -0.01,0.03 0,0.03 -0.01,0.02 -0.01,0.03 0,0.03 -0.01,0.02 -0.01,0.02 -0.02,0.02 -0.01,0.02 -0.01,0.02 -0.02,0.02 -0.02,0.01 -0.02,0.01 -0.02,0.02 -0.02,0.01 -0.03,0.01 -0.02,0.01 -0.03,0.01 -0.03,0 -0.03,0.01 -0.03,0 -0.04,0.01 -0.04,0 -0.04,0 -0.04,0.01 -0.02,0 -0.02,0 -0.95,0 c -0.2,0 -0.58,0 -0.58,-0.42 0,-0.42 0.38,-0.42 0.58,-0.42 l 0.59,0 0,-3.11 c 0,-1.18 -0.98,-1.49 -1.62,-1.49 -1.14,0 -1.14,0.52 -1.14,0.96 l 0,3.89 c 0,0.44 -0.08,0.59 -0.57,0.59 l -0.95,0 c -0.2,0 -0.57,0 -0.57,-0.42 0,-0.42 0.37,-0.42 0.57,-0.42 l 0.59,0 0,-3.71 c 0,-1.32 0.86,-1.72 1.96,-1.72 0.88,0 1.42,0.36 1.71,0.6 0,-0.52 0.35,-0.52 0.59,-0.52 l 0.95,0 c 0.2,0 0.57,0 0.57,0.42 0,0.42 -0.37,0.42 -0.57,0.42 l -0.59,0 z" /><path
         style="fill:#000000;stroke-width:0"
         inkscape:connector-curvature="0"
         id="path47674"
         d="m 244.17,709.88 0.05,0 0.06,0 0.03,0 0.02,0 0.03,0 0.02,0.01 0.03,0 0.02,0 0.03,0.01 0.02,0.01 0.02,0 0.03,0.01 0.02,0.01 0.02,0.01 0.02,0.02 0.02,0.01 0.01,0.02 0.02,0.02 0.02,0.02 0,0.01 0.01,0.01 0.01,0.01 0,0.01 0.01,0.02 0,0.01 0.01,0.02 0.01,0.01 0,0.02 0,0.01 0.01,0.02 0,0.02 0.01,0.01 0,0.02 0,0.02 0.01,0.02 0,0.02 0,0.02 0,0.03 0,0.02 0,0.02 0,0.03 c 0,1.68 -0.95,3.02 -2.74,3.02 -1.66,0 -3,-1.43 -3,-3.18 0,-1.81 1.45,-3.21 3.22,-3.21 1.85,0 2.52,1.27 2.52,1.65 0,0.08 -0.03,0.4 -0.47,0.4 -0.27,0 -0.36,-0.1 -0.45,-0.32 -0.36,-0.83 -1.29,-0.9 -1.56,-0.9 -1.19,0 -2.14,0.9 -2.3,2.01 l 0.02,0.79 c 0.18,1.22 1.12,1.93 2.02,1.93 1.44,0 1.74,-1.22 1.79,-1.93 l -3.81,0 -0.02,-0.79 z" /><path
         style="fill:#000000;stroke-width:0"
         inkscape:connector-curvature="0"
         id="path47676"
         d="m 248.68,709.83 0,0.16 0.01,0.16 0.02,0.15 0.02,0.14 0.03,0.14 0.04,0.14 0.04,0.13 0.05,0.13 0.05,0.12 0.06,0.12 0.06,0.12 0.06,0.11 0.08,0.1 0.07,0.1 0.08,0.1 0.08,0.09 0.09,0.08 0.09,0.08 0.09,0.08 0.1,0.07 0.1,0.06 0.1,0.06 0.1,0.06 0.11,0.04 0.11,0.05 0.11,0.03 0.11,0.04 0.11,0.02 0.11,0.02 0.11,0.02 0.12,0.01 0.11,0 c 0.08,0 0.16,0 0.23,-0.02 0.05,-0.51 0.45,-0.55 0.55,-0.55 0.33,0 0.56,0.24 0.56,0.55 0,0.62 -0.6,0.85 -1.32,0.85 -0.96,0 -1.78,-0.43 -2.44,-1.23 l 0,0.56 c 0,0.44 -0.09,0.59 -0.58,0.59 l -1.44,0 c -0.2,0 -0.58,0 -0.58,-0.42 0,-0.42 0.38,-0.42 0.58,-0.42 l 1.09,0 0,-4.51 -1.09,0 c -0.2,0 -0.58,0 -0.58,-0.42 0,-0.42 0.38,-0.42 0.58,-0.42 l 3.52,0 c 0.21,0 0.58,0 0.58,0.42 0,0.42 -0.37,0.42 -0.58,0.42 l -1.5,0 z" /><path
         style="fill:#000000;stroke-width:0"
         inkscape:connector-curvature="0"
         id="path47678"
         d="m 259.04,712.47 0.38,0 c 0.2,0 0.58,0 0.58,0.42 0,0.42 -0.38,0.42 -0.58,0.42 l -1.58,0 c -0.2,0 -0.59,0 -0.59,-0.42 0,-0.42 0.39,-0.42 0.59,-0.42 l 0.36,0 c -0.4,-1.17 -1.22,-3.57 -1.42,-4.39 l -0.02,0 c -0.07,0.32 -0.13,0.48 -0.27,0.87 l -1.34,3.52 0.34,0 c 0.2,0 0.58,0 0.58,0.42 0,0.42 -0.38,0.42 -0.58,0.42 l -1.58,0 c -0.2,0 -0.59,0 -0.59,-0.42 0,-0.42 0.39,-0.42 0.59,-0.42 l 0.38,0 2.01,-5.16 c 0.06,-0.14 0.06,-0.17 0.06,-0.19 0,-0.03 -0.37,-1.27 -0.59,-1.68 -0.08,-0.14 -0.44,-0.81 -1.13,-0.74 0.01,0.04 0.06,0.13 0.06,0.28 0,0.34 -0.23,0.56 -0.56,0.56 -0.36,0 -0.58,-0.24 -0.58,-0.57 0,-0.55 0.46,-1.12 1.18,-1.12 1.39,0 2.01,1.85 2.05,1.97 z" /><path
         style="fill:#000000;stroke-width:0"
         inkscape:connector-curvature="0"
         id="path47680"
         d="m 267.15,715.52 0,0.04 0,0.04 0,0.05 -0.01,0.02 0,0.03 0,0.02 0,0.02 -0.01,0.03 0,0.02 -0.01,0.02 -0.01,0.02 0,0.02 -0.01,0.02 -0.01,0.02 -0.01,0.02 -0.02,0.02 -0.01,0.02 -0.02,0.01 -0.01,0.02 -0.01,0.01 -0.01,0 -0.01,0.01 -0.01,0.01 -0.01,0 -0.01,0.01 -0.02,0 -0.01,0.01 -0.01,0 -0.01,0.01 -0.02,0 -0.01,0.01 -0.02,0 -0.01,0 -0.02,0 -0.01,0.01 -0.02,0 -0.02,0 -0.02,0 -0.01,0 c -0.26,0 -0.33,-0.16 -0.39,-0.26 -0.04,-0.11 -0.16,-0.37 -0.2,-0.47 -0.59,0.51 -1.25,0.73 -1.85,0.73 -1.85,0 -3.39,-1.98 -3.39,-4.55 0,-2.62 1.58,-4.56 3.39,-4.56 1.68,0 2.84,1.33 2.84,2.6 0,0.44 -0.3,0.44 -0.48,0.44 -0.2,0 -0.43,-0.07 -0.46,-0.31 -0.11,-1.8 -1.56,-1.9 -1.8,-1.9 -1.34,0 -2.56,1.57 -2.56,3.73 0,2.17 1.24,3.72 2.54,3.72 0.78,0 1.62,-0.62 1.82,-1.94 0.05,-0.31 0.18,-0.4 0.46,-0.4 0.48,0 0.48,0.26 0.48,0.54 z" /><path
         style="fill:#000000;stroke-width:0"
         inkscape:connector-curvature="0"
         id="path47682"
         d="m 271.89,715.3 0,0.04 0,0.04 0,0.04 -0.01,0.03 0,0.04 0,0.03 -0.01,0.03 0,0.03 -0.01,0.03 -0.01,0.02 -0.01,0.03 0,0.02 -0.02,0.02 -0.01,0.02 -0.01,0.02 -0.02,0.02 -0.01,0.02 -0.02,0.01 -0.02,0.02 -0.02,0.01 -0.02,0.01 -0.03,0.01 -0.02,0.01 -0.03,0.01 -0.03,0.01 -0.03,0 -0.04,0.01 -0.03,0 -0.04,0 -0.04,0.01 -0.04,0 -0.02,0 -0.03,0 -2.11,0 c -0.2,0 -0.57,0 -0.57,-0.42 0,-0.41 0.37,-0.41 0.57,-0.41 l 1.75,0 0,-7.1 -1.75,0 c -0.2,0 -0.57,0 -0.57,-0.42 0,-0.42 0.37,-0.42 0.57,-0.42 l 4.44,0 c 0.2,0 0.57,0 0.57,0.42 0,0.42 -0.37,0.42 -0.57,0.42 l -1.75,0 z" /><path
         style="fill:#000000;stroke-width:0"
         inkscape:connector-curvature="0"
         id="path47684"
         d="m 279.44,715.26 0,0.03 0,0.03 -0.01,0.04 0,0.03 -0.01,0.03 -0.01,0.03 -0.01,0.03 -0.01,0.03 -0.01,0.03 -0.02,0.03 -0.01,0.02 -0.02,0.03 -0.02,0.02 -0.02,0.03 -0.02,0.02 -0.02,0.02 -0.02,0.03 -0.02,0.02 -0.03,0.01 -0.02,0.02 -0.03,0.02 -0.03,0.01 -0.02,0.02 -0.03,0.01 -0.03,0.01 -0.03,0.01 -0.03,0.01 -0.04,0.01 -0.03,0 -0.03,0.01 -0.03,0 -0.04,0 c -0.35,0 -0.64,-0.29 -0.64,-0.64 0,-0.36 0.29,-0.65 0.64,-0.65 0.36,0 0.65,0.29 0.65,0.65 z" /><path
         style="fill:#000000;stroke-width:0"
         inkscape:connector-curvature="0"
         id="path47686"
         d="m 276.97,713.31 -0.02,0 -0.02,0 -0.02,0 -0.02,0 -0.02,-0.01 -0.02,0 -0.03,0 -0.02,0 -0.03,0 -0.02,-0.01 -0.02,0 -0.03,-0.01 -0.02,0 -0.02,-0.01 -0.03,-0.01 -0.02,-0.01 -0.02,-0.01 -0.02,-0.01 -0.02,-0.01 -0.02,-0.02 -0.02,-0.01 -0.02,-0.02 -0.01,-0.01 0,-0.01 -0.01,-0.01 -0.01,-0.01 -0.01,-0.01 0,-0.01 -0.01,-0.01 -0.01,-0.02 0,-0.01 -0.01,-0.01 0,-0.02 0,-0.01 -0.01,-0.02 0,-0.01 0,-0.02 -0.01,-0.02 0,-0.01 0,-0.02 0,-0.02 0,-0.02 c 0,-0.42 0.37,-0.42 0.57,-0.42 l 1.54,0 0,-4.51 -1.64,0 c -0.2,0 -0.59,0 -0.59,-0.42 0,-0.42 0.39,-0.42 0.59,-0.42 l 3.99,0 c 0.2,0 0.57,0 0.57,0.42 0,0.42 -0.37,0.42 -0.57,0.42 l -1.42,0 0,4.76 c 0,0.44 -0.09,0.59 -0.57,0.59 z" /><path
         style="fill:#000000;stroke-width:0"
         inkscape:connector-curvature="0"
         id="path47688"
         d="m 288.46,709.88 0.06,0 0.05,0 0.03,0 0.03,0 0.02,0 0.03,0.01 0.02,0 0.03,0 0.02,0.01 0.03,0.01 0.02,0 0.02,0.01 0.02,0.01 0.02,0.01 0.02,0.02 0.02,0.01 0.02,0.02 0.01,0.02 0.02,0.02 0.01,0.01 0,0.01 0.01,0.01 0.01,0.01 0,0.02 0.01,0.01 0.01,0.02 0,0.01 0.01,0.02 0,0.01 0,0.02 0.01,0.02 0,0.01 0,0.02 0.01,0.02 0,0.02 0,0.02 0,0.02 0.01,0.03 0,0.02 0,0.02 0,0.03 c 0,1.68 -0.95,3.02 -2.74,3.02 -1.67,0 -3,-1.43 -3,-3.18 0,-1.81 1.45,-3.21 3.21,-3.21 1.85,0 2.53,1.27 2.53,1.65 0,0.08 -0.03,0.4 -0.48,0.4 -0.27,0 -0.36,-0.1 -0.44,-0.32 -0.36,-0.83 -1.29,-0.9 -1.57,-0.9 -1.19,0 -2.13,0.9 -2.29,2.01 l 0.01,0.79 c 0.19,1.22 1.12,1.93 2.03,1.93 1.43,0 1.73,-1.22 1.79,-1.93 l -3.82,0 -0.01,-0.79 z" /><path
         style="fill:#000000;stroke-width:0"
         inkscape:connector-curvature="0"
         id="path47690"
         d="m 295.87,711.33 0,0.13 -0.01,0.12 -0.01,0.12 -0.01,0.12 -0.02,0.11 -0.02,0.11 -0.02,0.1 -0.03,0.1 -0.03,0.1 -0.04,0.09 -0.04,0.08 -0.04,0.09 -0.05,0.08 -0.05,0.07 -0.05,0.07 -0.06,0.07 -0.06,0.06 -0.06,0.06 -0.07,0.05 -0.07,0.05 -0.07,0.04 -0.08,0.05 -0.08,0.03 -0.08,0.04 -0.09,0.03 -0.09,0.02 -0.09,0.02 -0.1,0.02 -0.1,0.01 -0.1,0.01 -0.11,0.01 -0.1,0 c -0.98,0 -1.61,-0.54 -1.86,-0.82 0,0.53 0,0.74 -0.57,0.74 l -0.95,0 c -0.2,0 -0.57,0 -0.57,-0.42 0,-0.42 0.37,-0.42 0.57,-0.42 l 0.59,0 0,-4.51 -0.59,0 c -0.2,0 -0.57,0 -0.57,-0.42 0,-0.42 0.37,-0.42 0.57,-0.42 l 2.11,0 c 0.2,0 0.58,0 0.58,0.42 0,0.42 -0.38,0.42 -0.58,0.42 l -0.59,0 0,2.59 c 0,1.39 0.98,2.01 1.75,2.01 0.84,0 1.01,-0.47 1.01,-1.29 l 0,-3.31 -0.59,0 c -0.2,0 -0.57,0 -0.57,-0.42 0,-0.42 0.37,-0.42 0.57,-0.42 l 2.11,0 c 0.2,0 0.57,0 0.57,0.42 0,0.42 -0.37,0.42 -0.57,0.42 l -0.59,0 z" /><path
         style="fill:#000000;stroke-width:0"
         inkscape:connector-curvature="0"
         id="path47692"
         d="m 300.35,712.47 2.33,0 c 0.2,0 0.57,0 0.57,0.42 0,0.42 -0.37,0.42 -0.57,0.42 l -2.33,0 0,1.17 c 0,0.26 0,0.59 -0.46,0.59 -0.47,0 -0.47,-0.33 -0.47,-0.59 l 0,-1.17 -1.22,0 c -0.2,0 -0.59,0 -0.59,-0.42 0,-0.42 0.38,-0.42 0.58,-0.42 l 1.23,0 0,-3.61 c 0,-1.34 0.92,-1.82 1.95,-1.82 0.78,0 2.2,0.38 2.2,1.85 0,0.28 0,0.6 -0.48,0.6 -0.45,0 -0.45,-0.32 -0.45,-0.62 -0.02,-0.86 -0.84,-1 -1.17,-1 -1.12,0 -1.12,0.72 -1.12,1.06 z" /><line
         style="stroke-width:0.398"
         id="line47694"
         y2="707.32001"
         x2="309.95001"
         y1="707.32001"
         x1="305.51999" /><path
         style="fill:#000000;stroke-width:0"
         inkscape:connector-curvature="0"
         id="path47696"
         d="m 314.29,715.26 -0.01,0.03 0,0.03 0,0.04 -0.01,0.03 -0.01,0.03 0,0.03 -0.01,0.03 -0.02,0.03 -0.01,0.03 -0.01,0.03 -0.02,0.02 -0.01,0.03 -0.02,0.02 -0.02,0.03 -0.02,0.02 -0.02,0.02 -0.03,0.03 -0.02,0.02 -0.02,0.01 -0.03,0.02 -0.03,0.02 -0.02,0.01 -0.03,0.02 -0.03,0.01 -0.03,0.01 -0.03,0.01 -0.03,0.01 -0.03,0.01 -0.03,0 -0.03,0.01 -0.04,0 -0.03,0 c -0.36,0 -0.65,-0.29 -0.65,-0.64 0,-0.36 0.29,-0.65 0.65,-0.65 0.36,0 0.65,0.29 0.65,0.65 z" /><path
         style="fill:#000000;stroke-width:0"
         inkscape:connector-curvature="0"
         id="path47698"
         d="m 311.82,713.31 -0.02,0 -0.02,0 -0.02,0 -0.02,0 -0.03,-0.01 -0.02,0 -0.02,0 -0.03,0 -0.02,0 -0.02,-0.01 -0.03,0 -0.02,-0.01 -0.03,0 -0.02,-0.01 -0.02,-0.01 -0.02,-0.01 -0.03,-0.01 -0.02,-0.01 -0.02,-0.01 -0.02,-0.02 -0.02,-0.01 -0.01,-0.02 -0.01,-0.01 -0.01,-0.01 -0.01,-0.01 0,-0.01 -0.01,-0.01 -0.01,-0.01 0,-0.01 -0.01,-0.02 -0.01,-0.01 0,-0.01 -0.01,-0.02 0,-0.01 0,-0.02 -0.01,-0.01 0,-0.02 0,-0.02 0,-0.01 0,-0.02 -0.01,-0.02 0,-0.02 c 0,-0.42 0.38,-0.42 0.58,-0.42 l 1.53,0 0,-4.51 -1.63,0 c -0.2,0 -0.59,0 -0.59,-0.42 0,-0.42 0.39,-0.42 0.59,-0.42 l 3.98,0 c 0.21,0 0.58,0 0.58,0.42 0,0.42 -0.37,0.42 -0.58,0.42 l -1.41,0 0,4.76 c 0,0.44 -0.09,0.59 -0.58,0.59 z" /></g>    <path
       style="fill:none;fill-rule:evenodd;stroke:#000000;stroke-width:1px;stroke-linecap:butt;stroke-linejoin:miter;stroke-opacity:1;marker-end:url(#TriangleOutL)"
       d="m 256.669,497.55856 47.40741,0"
       id="path48426"
       inkscape:connector-curvature="0"
       sodipodi:nodetypes="cc" />
    <g
       id="g49092"
       transform="matrix(1,0,0,-1,39.131922,1199.6442)"
       xml:space="preserve"
       stroke-miterlimit="10.433"
       font-style="normal"
       font-variant="normal"
       font-weight="normal"
       font-stretch="normal"
       font-size-adjust="none"
       letter-spacing="normal"
       word-spacing="normal"
       ns0:text="\\Large{\\texttt{prod\\_o}}"
       ns0:preamble="/home/piter/.config/inkscape/extensions/preambulo.ini"
       style="font-style:normal;font-variant:normal;font-weight:normal;font-stretch:normal;letter-spacing:normal;word-spacing:normal;text-anchor:start;fill:none;fill-opacity:1;fill-rule:evenodd;stroke:#000000;stroke-linecap:butt;stroke-linejoin:miter;stroke-miterlimit:10.43299961;stroke-dasharray:none;stroke-dashoffset:0;stroke-opacity:1"><path
         style="fill:#000000;stroke-width:0"
         inkscape:connector-curvature="0"
         d="m 226.33,703.94 0.02,0 0.02,0 0.02,0 0.02,0 0.02,0 0.03,0 0.02,0 0.02,0 0.03,0.01 0.02,0 0.03,0 0.02,0.01 0.02,0.01 0.03,0 0.02,0.01 0.02,0.01 0.02,0.01 0.03,0.01 0.02,0.02 0.02,0.01 0.01,0.02 0.02,0.01 0.01,0.01 0.01,0.01 0.01,0.01 0,0.01 0.01,0.01 0.01,0.02 0,0.01 0.01,0.01 0,0.01 0.01,0.02 0,0.01 0.01,0.02 0,0.01 0,0.02 0.01,0.01 0,0.02 0,0.02 0,0.02 0,0.01 0,0.02 c 0,0.42 -0.37,0.42 -0.57,0.42 l -0.59,0 0,3.07 c 0.35,-0.39 0.88,-0.8 1.68,-0.8 l -0.07,0.83 c -1.08,0 -1.61,1.22 -1.61,1.93 l 0,1.14 c 0,0.82 0.81,1.62 1.74,1.62 1.03,0 1.86,-1.05 1.86,-2.34 0,-1.38 -0.97,-2.35 -1.99,-2.35 l 0.07,-0.83 c 1.52,0 2.86,1.36 2.86,3.18 0,1.77 -1.21,3.17 -2.7,3.17 -1.05,0 -1.71,-0.63 -1.84,-0.77 0,0.47 0,0.69 -0.57,0.69 l -0.95,0 c -0.2,0 -0.57,0 -0.57,-0.42 0,-0.42 0.37,-0.42 0.57,-0.42 l 0.59,0 0,-7.7 -0.59,0 c -0.2,0 -0.57,0 -0.57,-0.42 0,-0.41 0.37,-0.41 0.57,-0.41 z"
         id="path49094" /><path
         style="fill:#000000;stroke-width:0"
         inkscape:connector-curvature="0"
         d="m 233.91,709.83 0,0.16 0.01,0.16 0.02,0.15 0.03,0.14 0.02,0.14 0.04,0.14 0.04,0.13 0.05,0.13 0.05,0.12 0.06,0.12 0.06,0.12 0.07,0.11 0.07,0.1 0.07,0.1 0.08,0.1 0.09,0.09 0.08,0.08 0.09,0.08 0.1,0.08 0.09,0.07 0.1,0.06 0.1,0.06 0.11,0.06 0.1,0.04 0.11,0.05 0.11,0.03 0.11,0.04 0.11,0.02 0.11,0.02 0.12,0.02 0.11,0.01 0.12,0 c 0.07,0 0.15,0 0.23,-0.02 0.04,-0.51 0.44,-0.55 0.54,-0.55 0.33,0 0.56,0.24 0.56,0.55 0,0.62 -0.6,0.85 -1.32,0.85 -0.96,0 -1.78,-0.43 -2.44,-1.23 l 0,0.56 c 0,0.44 -0.09,0.59 -0.57,0.59 l -1.45,0 c -0.2,0 -0.57,0 -0.57,-0.42 0,-0.42 0.37,-0.42 0.57,-0.42 l 1.09,0 0,-4.51 -1.09,0 c -0.2,0 -0.57,0 -0.57,-0.42 0,-0.42 0.37,-0.42 0.57,-0.42 l 3.53,0 c 0.2,0 0.57,0 0.57,0.42 0,0.42 -0.37,0.42 -0.57,0.42 l -1.51,0 z"
         id="path49096" /><path
         style="fill:#000000;stroke-width:0"
         inkscape:connector-curvature="0"
         d="m 244.74,710.22 0,0.17 -0.01,0.16 -0.02,0.16 -0.03,0.16 -0.03,0.16 -0.04,0.15 -0.04,0.15 -0.06,0.15 -0.05,0.14 -0.07,0.14 -0.07,0.14 -0.07,0.13 -0.08,0.12 -0.09,0.12 -0.09,0.12 -0.09,0.11 -0.1,0.11 -0.11,0.1 -0.11,0.09 -0.11,0.09 -0.11,0.08 -0.12,0.08 -0.13,0.07 -0.12,0.07 -0.13,0.05 -0.13,0.05 -0.14,0.04 -0.14,0.04 -0.13,0.03 -0.15,0.02 -0.14,0.01 -0.14,0 0,-0.83 c 1,0 1.92,-0.94 1.92,-2.28 0,-1.37 -0.89,-2.45 -1.92,-2.45 l 0,0 c -1.04,0 -1.93,1.09 -1.93,2.45 0,1.34 0.92,2.28 1.93,2.28 l 0,0.83 c -1.55,0 -2.86,-1.41 -2.86,-3.21 0,-1.81 1.32,-3.18 2.86,-3.18 1.53,0 2.85,1.37 2.85,3.18 z"
         id="path49098" /><path
         style="fill:#000000;stroke-width:0"
         inkscape:connector-curvature="0"
         d="m 251.58,715.3 0,0.04 0,0.04 -0.01,0.04 0,0.03 0,0.04 0,0.03 -0.01,0.03 0,0.03 -0.01,0.03 -0.01,0.02 -0.01,0.03 -0.01,0.02 -0.01,0.02 -0.01,0.02 -0.01,0.02 -0.02,0.02 -0.01,0.02 -0.02,0.01 -0.02,0.02 -0.02,0.01 -0.02,0.01 -0.03,0.01 -0.02,0.01 -0.03,0.01 -0.03,0.01 -0.03,0 -0.04,0.01 -0.03,0 -0.04,0 -0.04,0.01 -0.04,0 -0.02,0 -0.03,0 -0.94,0 c -0.21,0 -0.58,0 -0.58,-0.42 0,-0.41 0.37,-0.41 0.58,-0.41 l 0.58,0 0,-2.39 c -0.23,0.23 -0.81,0.72 -1.69,0.72 l 0.09,-0.83 c 0.93,0 1.6,-0.85 1.6,-1.59 l 0,-1.12 c 0,-0.81 -0.66,-1.98 -1.73,-1.98 -1.03,0 -1.87,1.05 -1.87,2.34 0,1.37 0.98,2.35 2,2.35 l -0.09,0.83 c -1.52,0 -2.84,-1.37 -2.84,-3.18 0,-1.77 1.24,-3.17 2.71,-3.17 0.94,0 1.55,0.56 1.82,0.87 0,-0.6 0,-0.79 0.58,-0.79 l 0.94,0 c 0.21,0 0.58,0 0.58,0.42 0,0.42 -0.37,0.42 -0.58,0.42 l -0.58,0 z"
         id="path49100" /><line
         style="stroke-width:0.398"
         x1="253.85001"
         y1="707.32001"
         x2="258.28"
         y2="707.32001"
         id="line49102" /><path
         style="fill:#000000;stroke-width:0"
         inkscape:connector-curvature="0"
         d="m 264.82,710.22 0,0.17 -0.02,0.16 -0.01,0.16 -0.03,0.16 -0.03,0.16 -0.04,0.15 -0.05,0.15 -0.05,0.15 -0.06,0.14 -0.06,0.14 -0.07,0.14 -0.08,0.13 -0.08,0.12 -0.08,0.12 -0.09,0.12 -0.1,0.11 -0.1,0.11 -0.1,0.1 -0.11,0.09 -0.11,0.09 -0.12,0.08 -0.12,0.08 -0.12,0.07 -0.13,0.07 -0.13,0.05 -0.13,0.05 -0.13,0.04 -0.14,0.04 -0.14,0.03 -0.14,0.02 -0.14,0.01 -0.15,0 0,-0.83 c 1.01,0 1.93,-0.94 1.93,-2.28 0,-1.37 -0.89,-2.45 -1.93,-2.45 l 0,0 c -1.03,0 -1.92,1.09 -1.92,2.45 0,1.34 0.92,2.28 1.92,2.28 l 0,0.83 c -1.54,0 -2.85,-1.41 -2.85,-3.21 0,-1.81 1.32,-3.18 2.85,-3.18 1.54,0 2.86,1.37 2.86,3.18 z"
         id="path49104" /></g>    <g
       id="g54309"
       transform="matrix(1,0,0,-1,-150.86866,1199.7152)"
       xml:space="preserve"
       stroke-miterlimit="10.433"
       font-style="normal"
       font-variant="normal"
       font-weight="normal"
       font-stretch="normal"
       font-size-adjust="none"
       letter-spacing="normal"
       word-spacing="normal"
       ns0:text="\\Large{\\texttt{prod\\_i}}"
       ns0:preamble="/home/piter/.config/inkscape/extensions/preambulo.ini"
       style="font-style:normal;font-variant:normal;font-weight:normal;font-stretch:normal;letter-spacing:normal;word-spacing:normal;text-anchor:start;fill:none;fill-opacity:1;fill-rule:evenodd;stroke:#000000;stroke-linecap:butt;stroke-linejoin:miter;stroke-miterlimit:10.43299961;stroke-dasharray:none;stroke-dashoffset:0;stroke-opacity:1"><path
         d="m 226.33,703.94 0.02,0 0.02,0 0.02,0 0.02,0 0.02,0 0.03,0 0.02,0 0.02,0 0.03,0.01 0.02,0 0.03,0 0.02,0.01 0.02,0.01 0.03,0 0.02,0.01 0.02,0.01 0.02,0.01 0.03,0.01 0.02,0.02 0.02,0.01 0.01,0.02 0.02,0.01 0.01,0.01 0.01,0.01 0.01,0.01 0,0.01 0.01,0.01 0.01,0.02 0,0.01 0.01,0.01 0,0.01 0.01,0.02 0,0.01 0.01,0.02 0,0.01 0,0.02 0.01,0.01 0,0.02 0,0.02 0,0.02 0,0.01 0,0.02 c 0,0.42 -0.37,0.42 -0.57,0.42 l -0.59,0 0,3.07 c 0.35,-0.39 0.88,-0.8 1.68,-0.8 l -0.07,0.83 c -1.08,0 -1.61,1.22 -1.61,1.93 l 0,1.14 c 0,0.82 0.81,1.62 1.74,1.62 1.03,0 1.86,-1.05 1.86,-2.34 0,-1.38 -0.97,-2.35 -1.99,-2.35 l 0.07,-0.83 c 1.52,0 2.86,1.36 2.86,3.18 0,1.77 -1.21,3.17 -2.7,3.17 -1.05,0 -1.71,-0.63 -1.84,-0.77 0,0.47 0,0.69 -0.57,0.69 l -0.95,0 c -0.2,0 -0.57,0 -0.57,-0.42 0,-0.42 0.37,-0.42 0.57,-0.42 l 0.59,0 0,-7.7 -0.59,0 c -0.2,0 -0.57,0 -0.57,-0.42 0,-0.41 0.37,-0.41 0.57,-0.41 z"
         id="path54311"
         inkscape:connector-curvature="0"
         style="fill:#000000;stroke-width:0" /><path
         d="m 233.91,709.83 0,0.16 0.01,0.16 0.02,0.15 0.03,0.14 0.02,0.14 0.04,0.14 0.04,0.13 0.05,0.13 0.05,0.12 0.06,0.12 0.06,0.12 0.07,0.11 0.07,0.1 0.07,0.1 0.08,0.1 0.09,0.09 0.08,0.08 0.09,0.08 0.1,0.08 0.09,0.07 0.1,0.06 0.1,0.06 0.11,0.06 0.1,0.04 0.11,0.05 0.11,0.03 0.11,0.04 0.11,0.02 0.11,0.02 0.12,0.02 0.11,0.01 0.12,0 c 0.07,0 0.15,0 0.23,-0.02 0.04,-0.51 0.44,-0.55 0.54,-0.55 0.33,0 0.56,0.24 0.56,0.55 0,0.62 -0.6,0.85 -1.32,0.85 -0.96,0 -1.78,-0.43 -2.44,-1.23 l 0,0.56 c 0,0.44 -0.09,0.59 -0.57,0.59 l -1.45,0 c -0.2,0 -0.57,0 -0.57,-0.42 0,-0.42 0.37,-0.42 0.57,-0.42 l 1.09,0 0,-4.51 -1.09,0 c -0.2,0 -0.57,0 -0.57,-0.42 0,-0.42 0.37,-0.42 0.57,-0.42 l 3.53,0 c 0.2,0 0.57,0 0.57,0.42 0,0.42 -0.37,0.42 -0.57,0.42 l -1.51,0 z"
         id="path54313"
         inkscape:connector-curvature="0"
         style="fill:#000000;stroke-width:0" /><path
         d="m 244.74,710.22 0,0.17 -0.01,0.16 -0.02,0.16 -0.03,0.16 -0.03,0.16 -0.04,0.15 -0.04,0.15 -0.06,0.15 -0.05,0.14 -0.07,0.14 -0.07,0.14 -0.07,0.13 -0.08,0.12 -0.09,0.12 -0.09,0.12 -0.09,0.11 -0.1,0.11 -0.11,0.1 -0.11,0.09 -0.11,0.09 -0.11,0.08 -0.12,0.08 -0.13,0.07 -0.12,0.07 -0.13,0.05 -0.13,0.05 -0.14,0.04 -0.14,0.04 -0.13,0.03 -0.15,0.02 -0.14,0.01 -0.14,0 0,-0.83 c 1,0 1.92,-0.94 1.92,-2.28 0,-1.37 -0.89,-2.45 -1.92,-2.45 l 0,0 c -1.04,0 -1.93,1.09 -1.93,2.45 0,1.34 0.92,2.28 1.93,2.28 l 0,0.83 c -1.55,0 -2.86,-1.41 -2.86,-3.21 0,-1.81 1.32,-3.18 2.86,-3.18 1.53,0 2.85,1.37 2.85,3.18 z"
         id="path54315"
         inkscape:connector-curvature="0"
         style="fill:#000000;stroke-width:0" /><path
         d="m 251.58,715.3 0,0.04 0,0.04 -0.01,0.04 0,0.03 0,0.04 0,0.03 -0.01,0.03 0,0.03 -0.01,0.03 -0.01,0.02 -0.01,0.03 -0.01,0.02 -0.01,0.02 -0.01,0.02 -0.01,0.02 -0.02,0.02 -0.01,0.02 -0.02,0.01 -0.02,0.02 -0.02,0.01 -0.02,0.01 -0.03,0.01 -0.02,0.01 -0.03,0.01 -0.03,0.01 -0.03,0 -0.04,0.01 -0.03,0 -0.04,0 -0.04,0.01 -0.04,0 -0.02,0 -0.03,0 -0.94,0 c -0.21,0 -0.58,0 -0.58,-0.42 0,-0.41 0.37,-0.41 0.58,-0.41 l 0.58,0 0,-2.39 c -0.23,0.23 -0.81,0.72 -1.69,0.72 l 0.09,-0.83 c 0.93,0 1.6,-0.85 1.6,-1.59 l 0,-1.12 c 0,-0.81 -0.66,-1.98 -1.73,-1.98 -1.03,0 -1.87,1.05 -1.87,2.34 0,1.37 0.98,2.35 2,2.35 l -0.09,0.83 c -1.52,0 -2.84,-1.37 -2.84,-3.18 0,-1.77 1.24,-3.17 2.71,-3.17 0.94,0 1.55,0.56 1.82,0.87 0,-0.6 0,-0.79 0.58,-0.79 l 0.94,0 c 0.21,0 0.58,0 0.58,0.42 0,0.42 -0.37,0.42 -0.58,0.42 l -0.58,0 z"
         id="path54317"
         inkscape:connector-curvature="0"
         style="fill:#000000;stroke-width:0" /><line
         x1="253.85001"
         y1="707.32001"
         x2="258.28"
         y2="707.32001"
         id="line54319"
         style="stroke-width:0.398" /><path
         d="m 262.61,715.26 0,0.03 0,0.03 -0.01,0.04 0,0.03 -0.01,0.03 -0.01,0.03 -0.01,0.03 -0.01,0.03 -0.01,0.03 -0.02,0.03 -0.01,0.02 -0.02,0.03 -0.02,0.02 -0.02,0.03 -0.02,0.02 -0.02,0.02 -0.02,0.03 -0.02,0.02 -0.03,0.01 -0.02,0.02 -0.03,0.02 -0.03,0.01 -0.02,0.02 -0.03,0.01 -0.03,0.01 -0.03,0.01 -0.03,0.01 -0.04,0.01 -0.03,0 -0.03,0.01 -0.03,0 -0.04,0 c -0.35,0 -0.64,-0.29 -0.64,-0.64 0,-0.36 0.29,-0.65 0.64,-0.65 0.36,0 0.65,0.29 0.65,0.65 z"
         id="path54321"
         inkscape:connector-curvature="0"
         style="fill:#000000;stroke-width:0" /><path
         d="m 260.14,713.31 -0.02,0 -0.02,0 -0.02,0 -0.02,0 -0.02,-0.01 -0.02,0 -0.03,0 -0.02,0 -0.03,0 -0.02,-0.01 -0.02,0 -0.03,-0.01 -0.02,0 -0.02,-0.01 -0.03,-0.01 -0.02,-0.01 -0.02,-0.01 -0.02,-0.01 -0.02,-0.01 -0.02,-0.02 -0.02,-0.01 -0.02,-0.02 -0.01,-0.01 0,-0.01 -0.01,-0.01 -0.01,-0.01 -0.01,-0.01 0,-0.01 -0.01,-0.01 -0.01,-0.02 0,-0.01 -0.01,-0.01 0,-0.02 0,-0.01 -0.01,-0.02 0,-0.01 0,-0.02 -0.01,-0.02 0,-0.01 0,-0.02 0,-0.02 0,-0.02 c 0,-0.42 0.37,-0.42 0.57,-0.42 l 1.54,0 0,-4.51 -1.64,0 c -0.2,0 -0.59,0 -0.59,-0.42 0,-0.42 0.39,-0.42 0.59,-0.42 l 3.99,0 c 0.2,0 0.57,0 0.57,0.42 0,0.42 -0.37,0.42 -0.57,0.42 l -1.42,0 0,4.76 c 0,0.44 -0.09,0.59 -0.57,0.59 z"
         id="path54323"
         inkscape:connector-curvature="0"
         style="fill:#000000;stroke-width:0" /></g>    <g
       style="font-style:normal;font-variant:normal;font-weight:normal;font-stretch:normal;letter-spacing:normal;word-spacing:normal;text-anchor:start;fill:none;fill-opacity:1;fill-rule:evenodd;stroke:#000000;stroke-linecap:butt;stroke-linejoin:miter;stroke-miterlimit:10.43299961;stroke-dasharray:none;stroke-dashoffset:0;stroke-opacity:1"
       ns0:preamble="/home/piter/.config/inkscape/extensions/preambulo.ini"
       ns0:text="\\Large{\\texttt{queryInventory\\_o}}"
       word-spacing="normal"
       letter-spacing="normal"
       font-size-adjust="none"
       font-stretch="normal"
       font-weight="normal"
       font-variant="normal"
       font-style="normal"
       stroke-miterlimit="10.433"
       xml:space="preserve"
       transform="matrix(1,0,0,-1,-221.50577,1124.5266)"
       id="g55616"><path
         id="path55618"
         d="m 229.72,712.8 0,0.05 0,0.05 -0.01,0.05 0,0.03 0,0.02 0,0.03 -0.01,0.02 0,0.03 -0.01,0.02 0,0.03 -0.01,0.02 -0.01,0.02 -0.01,0.02 -0.01,0.03 -0.02,0.02 -0.01,0.02 -0.02,0.01 -0.01,0.02 -0.02,0.02 -0.01,0.01 -0.01,0 -0.02,0.01 -0.01,0.01 -0.01,0 -0.01,0.01 -0.02,0 -0.01,0.01 -0.01,0 -0.02,0.01 -0.02,0 -0.01,0.01 -0.02,0 -0.02,0 -0.01,0.01 -0.02,0 -0.02,0 -0.02,0 -0.02,0 -0.02,0 c -0.48,0 -0.48,-0.31 -0.48,-0.59 l 0,-0.27 c -0.27,0.29 -0.8,0.86 -1.79,0.86 l 0.09,-0.83 c 1.09,0 1.7,-1.16 1.7,-2.05 l 0,-0.65 c 0,-0.8 -0.7,-1.99 -1.85,-1.99 -1.09,0 -1.98,1.05 -1.98,2.34 0,1.34 1.01,2.35 2.13,2.35 l -0.09,0.83 c -1.56,0 -2.97,-1.35 -2.97,-3.18 0,-1.75 1.26,-3.17 2.83,-3.17 1.04,0 1.63,0.61 1.93,0.93 l 0,-3.2 -0.64,0 c -0.2,0 -0.59,0 -0.59,-0.42 0,-0.41 0.39,-0.41 0.59,-0.41 l 2.22,0 c 0.2,0 0.59,0 0.59,0.41 0,0.42 -0.39,0.42 -0.59,0.42 l -0.64,0 z"
         inkscape:connector-curvature="0"
         style="fill:#000000;stroke-width:0" /><path
         id="path55620"
         d="m 236.81,712.72 0,0.04 0,0.04 0,0.04 -0.01,0.03 0,0.03 0,0.04 -0.01,0.03 0,0.03 -0.01,0.02 -0.01,0.03 0,0.03 -0.01,0.02 -0.01,0.02 -0.02,0.02 -0.01,0.02 -0.01,0.02 -0.02,0.02 -0.02,0.01 -0.02,0.01 -0.02,0.02 -0.02,0.01 -0.03,0.01 -0.02,0.01 -0.03,0.01 -0.03,0 -0.03,0.01 -0.03,0 -0.04,0.01 -0.04,0 -0.04,0 -0.04,0.01 -0.02,0 -0.02,0 -0.95,0 c -0.2,0 -0.58,0 -0.58,-0.42 0,-0.42 0.38,-0.42 0.58,-0.42 l 0.59,0 0,-3.11 c 0,-1.18 -0.98,-1.49 -1.62,-1.49 -1.14,0 -1.14,0.52 -1.14,0.96 l 0,3.89 c 0,0.44 -0.08,0.59 -0.57,0.59 l -0.95,0 c -0.2,0 -0.57,0 -0.57,-0.42 0,-0.42 0.37,-0.42 0.57,-0.42 l 0.59,0 0,-3.71 c 0,-1.32 0.86,-1.72 1.96,-1.72 0.88,0 1.42,0.36 1.71,0.6 0,-0.52 0.35,-0.52 0.59,-0.52 l 0.95,0 c 0.2,0 0.57,0 0.57,0.42 0,0.42 -0.37,0.42 -0.57,0.42 l -0.59,0 z"
         inkscape:connector-curvature="0"
         style="fill:#000000;stroke-width:0" /><path
         id="path55622"
         d="m 244.17,709.88 0.05,0 0.06,0 0.03,0 0.02,0 0.03,0 0.02,0.01 0.03,0 0.02,0 0.03,0.01 0.02,0.01 0.02,0 0.03,0.01 0.02,0.01 0.02,0.01 0.02,0.02 0.02,0.01 0.01,0.02 0.02,0.02 0.02,0.02 0,0.01 0.01,0.01 0.01,0.01 0,0.01 0.01,0.02 0,0.01 0.01,0.02 0.01,0.01 0,0.02 0,0.01 0.01,0.02 0,0.02 0.01,0.01 0,0.02 0,0.02 0.01,0.02 0,0.02 0,0.02 0,0.03 0,0.02 0,0.02 0,0.03 c 0,1.68 -0.95,3.02 -2.74,3.02 -1.66,0 -3,-1.43 -3,-3.18 0,-1.81 1.45,-3.21 3.22,-3.21 1.85,0 2.52,1.27 2.52,1.65 0,0.08 -0.03,0.4 -0.47,0.4 -0.27,0 -0.36,-0.1 -0.45,-0.32 -0.36,-0.83 -1.29,-0.9 -1.56,-0.9 -1.19,0 -2.14,0.9 -2.3,2.01 l 0.02,0.79 c 0.18,1.22 1.12,1.93 2.02,1.93 1.44,0 1.74,-1.22 1.79,-1.93 l -3.81,0 -0.02,-0.79 z"
         inkscape:connector-curvature="0"
         style="fill:#000000;stroke-width:0" /><path
         id="path55624"
         d="m 248.68,709.83 0,0.16 0.01,0.16 0.02,0.15 0.02,0.14 0.03,0.14 0.04,0.14 0.04,0.13 0.05,0.13 0.05,0.12 0.06,0.12 0.06,0.12 0.06,0.11 0.08,0.1 0.07,0.1 0.08,0.1 0.08,0.09 0.09,0.08 0.09,0.08 0.09,0.08 0.1,0.07 0.1,0.06 0.1,0.06 0.1,0.06 0.11,0.04 0.11,0.05 0.11,0.03 0.11,0.04 0.11,0.02 0.11,0.02 0.11,0.02 0.12,0.01 0.11,0 c 0.08,0 0.16,0 0.23,-0.02 0.05,-0.51 0.45,-0.55 0.55,-0.55 0.33,0 0.56,0.24 0.56,0.55 0,0.62 -0.6,0.85 -1.32,0.85 -0.96,0 -1.78,-0.43 -2.44,-1.23 l 0,0.56 c 0,0.44 -0.09,0.59 -0.58,0.59 l -1.44,0 c -0.2,0 -0.58,0 -0.58,-0.42 0,-0.42 0.38,-0.42 0.58,-0.42 l 1.09,0 0,-4.51 -1.09,0 c -0.2,0 -0.58,0 -0.58,-0.42 0,-0.42 0.38,-0.42 0.58,-0.42 l 3.52,0 c 0.21,0 0.58,0 0.58,0.42 0,0.42 -0.37,0.42 -0.58,0.42 l -1.5,0 z"
         inkscape:connector-curvature="0"
         style="fill:#000000;stroke-width:0" /><path
         id="path55626"
         d="m 259.04,712.47 0.38,0 c 0.2,0 0.58,0 0.58,0.42 0,0.42 -0.38,0.42 -0.58,0.42 l -1.58,0 c -0.2,0 -0.59,0 -0.59,-0.42 0,-0.42 0.39,-0.42 0.59,-0.42 l 0.36,0 c -0.4,-1.17 -1.22,-3.57 -1.42,-4.39 l -0.02,0 c -0.07,0.32 -0.13,0.48 -0.27,0.87 l -1.34,3.52 0.34,0 c 0.2,0 0.58,0 0.58,0.42 0,0.42 -0.38,0.42 -0.58,0.42 l -1.58,0 c -0.2,0 -0.59,0 -0.59,-0.42 0,-0.42 0.39,-0.42 0.59,-0.42 l 0.38,0 2.01,-5.16 c 0.06,-0.14 0.06,-0.17 0.06,-0.19 0,-0.03 -0.37,-1.27 -0.59,-1.68 -0.08,-0.14 -0.44,-0.81 -1.13,-0.74 0.01,0.04 0.06,0.13 0.06,0.28 0,0.34 -0.23,0.56 -0.56,0.56 -0.36,0 -0.58,-0.24 -0.58,-0.57 0,-0.55 0.46,-1.12 1.18,-1.12 1.39,0 2.01,1.85 2.05,1.97 z"
         inkscape:connector-curvature="0"
         style="fill:#000000;stroke-width:0" /><path
         id="path55628"
         d="m 264.51,715.06 1.46,0 c 0.2,0 0.58,0 0.58,0.41 0,0.42 -0.38,0.42 -0.58,0.42 l -3.86,0 c -0.2,0 -0.57,0 -0.57,-0.42 0,-0.41 0.37,-0.41 0.57,-0.41 l 1.47,0 0,-7.1 -1.47,0 c -0.2,0 -0.57,0 -0.57,-0.42 0,-0.42 0.37,-0.42 0.57,-0.42 l 3.86,0 c 0.2,0 0.58,0 0.58,0.42 0,0.42 -0.38,0.42 -0.58,0.42 l -1.46,0 z"
         inkscape:connector-curvature="0"
         style="fill:#000000;stroke-width:0" /><path
         id="path55630"
         d="m 273.72,711.33 0,0.13 0,0.12 -0.01,0.12 -0.02,0.12 -0.01,0.11 -0.02,0.11 -0.03,0.1 -0.03,0.1 -0.03,0.1 -0.03,0.09 -0.04,0.08 -0.05,0.09 -0.04,0.08 -0.05,0.07 -0.06,0.07 -0.05,0.07 -0.06,0.06 -0.07,0.06 -0.06,0.05 -0.07,0.05 -0.08,0.04 -0.08,0.05 -0.08,0.03 -0.08,0.04 -0.09,0.03 -0.09,0.02 -0.09,0.02 -0.1,0.02 -0.09,0.01 -0.11,0.01 -0.1,0.01 -0.11,0 c -0.98,0 -1.61,-0.54 -1.85,-0.82 0,0.53 0,0.74 -0.58,0.74 l -0.94,0 c -0.2,0 -0.58,0 -0.58,-0.42 0,-0.42 0.38,-0.42 0.58,-0.42 l 0.59,0 0,-4.51 -0.59,0 c -0.2,0 -0.58,0 -0.58,-0.42 0,-0.42 0.38,-0.42 0.58,-0.42 l 2.1,0 c 0.21,0 0.58,0 0.58,0.42 0,0.42 -0.37,0.42 -0.58,0.42 l -0.58,0 0,2.59 c 0,1.39 0.97,2.01 1.75,2.01 0.83,0 1,-0.47 1,-1.29 l 0,-3.31 -0.59,0 c -0.2,0 -0.57,0 -0.57,-0.42 0,-0.42 0.37,-0.42 0.57,-0.42 l 2.11,0 c 0.2,0 0.58,0 0.58,0.42 0,0.42 -0.38,0.42 -0.58,0.42 l -0.59,0 z"
         inkscape:connector-curvature="0"
         style="fill:#000000;stroke-width:0" /><path
         id="path55632"
         d="m 281.19,712.47 0.37,0 c 0.2,0 0.59,0 0.59,0.42 0,0.42 -0.39,0.42 -0.59,0.42 l -1.58,0 c -0.2,0 -0.58,0 -0.58,-0.42 0,-0.42 0.38,-0.42 0.58,-0.42 l 0.36,0 -1.55,-4.62 -1.55,4.62 0.36,0 c 0.2,0 0.59,0 0.59,0.42 0,0.42 -0.39,0.42 -0.59,0.42 l -1.57,0 c -0.2,0 -0.59,0 -0.59,-0.42 0,-0.42 0.39,-0.42 0.59,-0.42 l 0.37,0 1.65,-4.93 c 0.16,-0.49 0.47,-0.49 0.74,-0.49 0.28,0 0.59,0 0.75,0.49 z"
         inkscape:connector-curvature="0"
         style="fill:#000000;stroke-width:0" /><path
         id="path55634"
         d="m 288.46,709.88 0.06,0 0.05,0 0.03,0 0.03,0 0.02,0 0.03,0.01 0.02,0 0.03,0 0.02,0.01 0.03,0.01 0.02,0 0.02,0.01 0.02,0.01 0.02,0.01 0.02,0.02 0.02,0.01 0.02,0.02 0.01,0.02 0.02,0.02 0.01,0.01 0,0.01 0.01,0.01 0.01,0.01 0,0.02 0.01,0.01 0.01,0.02 0,0.01 0.01,0.02 0,0.01 0,0.02 0.01,0.02 0,0.01 0,0.02 0.01,0.02 0,0.02 0,0.02 0,0.02 0.01,0.03 0,0.02 0,0.02 0,0.03 c 0,1.68 -0.95,3.02 -2.74,3.02 -1.67,0 -3,-1.43 -3,-3.18 0,-1.81 1.45,-3.21 3.21,-3.21 1.85,0 2.53,1.27 2.53,1.65 0,0.08 -0.03,0.4 -0.48,0.4 -0.27,0 -0.36,-0.1 -0.44,-0.32 -0.36,-0.83 -1.29,-0.9 -1.57,-0.9 -1.19,0 -2.13,0.9 -2.29,2.01 l 0.01,0.79 c 0.19,1.22 1.12,1.93 2.03,1.93 1.43,0 1.73,-1.22 1.79,-1.93 l -3.82,0 -0.01,-0.79 z"
         inkscape:connector-curvature="0"
         style="fill:#000000;stroke-width:0" /><path
         id="path55636"
         d="m 295.87,711.33 0,0.13 -0.01,0.12 -0.01,0.12 -0.01,0.12 -0.02,0.11 -0.02,0.11 -0.02,0.1 -0.03,0.1 -0.03,0.1 -0.04,0.09 -0.04,0.08 -0.04,0.09 -0.05,0.08 -0.05,0.07 -0.05,0.07 -0.06,0.07 -0.06,0.06 -0.06,0.06 -0.07,0.05 -0.07,0.05 -0.07,0.04 -0.08,0.05 -0.08,0.03 -0.08,0.04 -0.09,0.03 -0.09,0.02 -0.09,0.02 -0.1,0.02 -0.1,0.01 -0.1,0.01 -0.11,0.01 -0.1,0 c -0.98,0 -1.61,-0.54 -1.86,-0.82 0,0.53 0,0.74 -0.57,0.74 l -0.95,0 c -0.2,0 -0.57,0 -0.57,-0.42 0,-0.42 0.37,-0.42 0.57,-0.42 l 0.59,0 0,-4.51 -0.59,0 c -0.2,0 -0.57,0 -0.57,-0.42 0,-0.42 0.37,-0.42 0.57,-0.42 l 2.11,0 c 0.2,0 0.58,0 0.58,0.42 0,0.42 -0.38,0.42 -0.58,0.42 l -0.59,0 0,2.59 c 0,1.39 0.98,2.01 1.75,2.01 0.84,0 1.01,-0.47 1.01,-1.29 l 0,-3.31 -0.59,0 c -0.2,0 -0.57,0 -0.57,-0.42 0,-0.42 0.37,-0.42 0.57,-0.42 l 2.11,0 c 0.2,0 0.57,0 0.57,0.42 0,0.42 -0.37,0.42 -0.57,0.42 l -0.59,0 z"
         inkscape:connector-curvature="0"
         style="fill:#000000;stroke-width:0" /><path
         id="path55638"
         d="m 300.35,712.47 2.33,0 c 0.2,0 0.57,0 0.57,0.42 0,0.42 -0.37,0.42 -0.57,0.42 l -2.33,0 0,1.17 c 0,0.26 0,0.59 -0.46,0.59 -0.47,0 -0.47,-0.33 -0.47,-0.59 l 0,-1.17 -1.22,0 c -0.2,0 -0.59,0 -0.59,-0.42 0,-0.42 0.38,-0.42 0.58,-0.42 l 1.23,0 0,-3.61 c 0,-1.34 0.92,-1.82 1.95,-1.82 0.78,0 2.2,0.38 2.2,1.85 0,0.28 0,0.6 -0.48,0.6 -0.45,0 -0.45,-0.32 -0.45,-0.62 -0.02,-0.86 -0.84,-1 -1.17,-1 -1.12,0 -1.12,0.72 -1.12,1.06 z"
         inkscape:connector-curvature="0"
         style="fill:#000000;stroke-width:0" /><path
         id="path55640"
         d="m 311.18,710.22 0,0.17 -0.01,0.16 -0.02,0.16 -0.03,0.16 -0.03,0.16 -0.04,0.15 -0.04,0.15 -0.05,0.15 -0.06,0.14 -0.07,0.14 -0.07,0.14 -0.07,0.13 -0.08,0.12 -0.09,0.12 -0.09,0.12 -0.09,0.11 -0.1,0.11 -0.11,0.1 -0.1,0.09 -0.12,0.09 -0.11,0.08 -0.12,0.08 -0.12,0.07 -0.13,0.07 -0.13,0.05 -0.13,0.05 -0.14,0.04 -0.13,0.04 -0.14,0.03 -0.14,0.02 -0.15,0.01 -0.14,0 0,-0.83 c 1,0 1.92,-0.94 1.92,-2.28 0,-1.37 -0.89,-2.45 -1.92,-2.45 l 0,0 c -1.03,0 -1.92,1.09 -1.92,2.45 0,1.34 0.92,2.28 1.92,2.28 l 0,0.83 c -1.55,0 -2.85,-1.41 -2.85,-3.21 0,-1.81 1.31,-3.18 2.85,-3.18 1.53,0 2.85,1.37 2.85,3.18 z"
         inkscape:connector-curvature="0"
         style="fill:#000000;stroke-width:0" /><path
         id="path55642"
         d="m 315.12,709.83 0,0.16 0.01,0.16 0.02,0.15 0.03,0.14 0.02,0.14 0.04,0.14 0.04,0.13 0.05,0.13 0.05,0.12 0.06,0.12 0.06,0.12 0.07,0.11 0.07,0.1 0.07,0.1 0.08,0.1 0.09,0.09 0.08,0.08 0.09,0.08 0.1,0.08 0.09,0.07 0.1,0.06 0.1,0.06 0.11,0.06 0.1,0.04 0.11,0.05 0.11,0.03 0.11,0.04 0.11,0.02 0.11,0.02 0.12,0.02 0.11,0.01 0.12,0 c 0.07,0 0.15,0 0.22,-0.02 0.05,-0.51 0.45,-0.55 0.55,-0.55 0.33,0 0.56,0.24 0.56,0.55 0,0.62 -0.6,0.85 -1.32,0.85 -0.96,0 -1.78,-0.43 -2.44,-1.23 l 0,0.56 c 0,0.44 -0.08,0.59 -0.57,0.59 l -1.45,0 c -0.2,0 -0.58,0 -0.58,-0.42 0,-0.42 0.38,-0.42 0.58,-0.42 l 1.09,0 0,-4.51 -1.09,0 c -0.2,0 -0.58,0 -0.58,-0.42 0,-0.42 0.38,-0.42 0.58,-0.42 l 3.53,0 c 0.2,0 0.57,0 0.57,0.42 0,0.42 -0.37,0.42 -0.57,0.42 l -1.51,0 z"
         inkscape:connector-curvature="0"
         style="fill:#000000;stroke-width:0" /><path
         id="path55644"
         d="m 325.48,712.47 0.38,0 c 0.2,0 0.59,0 0.59,0.42 0,0.42 -0.39,0.42 -0.59,0.42 l -1.58,0 c -0.2,0 -0.59,0 -0.59,-0.42 0,-0.42 0.39,-0.42 0.59,-0.42 l 0.36,0 c -0.4,-1.17 -1.22,-3.57 -1.42,-4.39 l -0.02,0 c -0.07,0.32 -0.12,0.48 -0.27,0.87 l -1.33,3.52 0.33,0 c 0.2,0 0.59,0 0.59,0.42 0,0.42 -0.39,0.42 -0.59,0.42 l -1.58,0 c -0.2,0 -0.59,0 -0.59,-0.42 0,-0.42 0.39,-0.42 0.59,-0.42 l 0.39,0 2,-5.16 c 0.06,-0.14 0.06,-0.17 0.06,-0.19 0,-0.03 -0.37,-1.27 -0.59,-1.68 -0.08,-0.14 -0.44,-0.81 -1.13,-0.74 0.02,0.04 0.06,0.13 0.06,0.28 0,0.34 -0.23,0.56 -0.56,0.56 -0.36,0 -0.57,-0.24 -0.57,-0.57 0,-0.55 0.45,-1.12 1.17,-1.12 1.39,0 2.01,1.85 2.05,1.97 z"
         inkscape:connector-curvature="0"
         style="fill:#000000;stroke-width:0" /><line
         id="line55646"
         y2="707.32001"
         x2="332.10001"
         y1="707.32001"
         x1="327.67001"
         style="stroke-width:0.398" /><path
         id="path55648"
         d="m 338.64,710.22 0,0.17 -0.01,0.16 -0.02,0.16 -0.03,0.16 -0.03,0.16 -0.04,0.15 -0.04,0.15 -0.06,0.15 -0.05,0.14 -0.07,0.14 -0.07,0.14 -0.07,0.13 -0.08,0.12 -0.09,0.12 -0.09,0.12 -0.09,0.11 -0.1,0.11 -0.11,0.1 -0.11,0.09 -0.11,0.09 -0.11,0.08 -0.12,0.08 -0.13,0.07 -0.12,0.07 -0.13,0.05 -0.13,0.05 -0.14,0.04 -0.14,0.04 -0.13,0.03 -0.15,0.02 -0.14,0.01 -0.14,0 0,-0.83 c 1,0 1.92,-0.94 1.92,-2.28 0,-1.37 -0.89,-2.45 -1.92,-2.45 l 0,0 c -1.04,0 -1.93,1.09 -1.93,2.45 0,1.34 0.92,2.28 1.93,2.28 l 0,0.83 c -1.55,0 -2.86,-1.41 -2.86,-3.21 0,-1.81 1.32,-3.18 2.86,-3.18 1.53,0 2.85,1.37 2.85,3.18 z"
         inkscape:connector-curvature="0"
         style="fill:#000000;stroke-width:0" /></g>    <path
       inkscape:connector-curvature="0"
       id="path47022-0"
       d="m 73.456435,422.19625 48.612455,0"
       style="fill:none;fill-rule:evenodd;stroke:#000000;stroke-width:1px;stroke-linecap:butt;stroke-linejoin:miter;stroke-opacity:1;marker-start:url(#TriangleInL-7)"
       sodipodi:nodetypes="cc" />
    <path
       style="fill:none;fill-rule:evenodd;stroke:#000000;stroke-width:1px;stroke-linecap:butt;stroke-linejoin:miter;stroke-opacity:1;marker-end:url(#TriangleOutL-4)"
       d="m 69.390405,497.25529 47.407405,0"
       id="path48426-7"
       inkscape:connector-curvature="0"
       sodipodi:nodetypes="cc" />
  </g>
</svg>
