<?xml version="1.0" encoding="UTF-8" standalone="no"?>
<!-- Created with Inkscape (http://www.inkscape.org/) -->

<svg
   xmlns:ns0="http://www.iki.fi/pav/software/textext/"
   xmlns:dc="http://purl.org/dc/elements/1.1/"
   xmlns:cc="http://creativecommons.org/ns#"
   xmlns:rdf="http://www.w3.org/1999/02/22-rdf-syntax-ns#"
   xmlns:svg="http://www.w3.org/2000/svg"
   xmlns="http://www.w3.org/2000/svg"
   xmlns:sodipodi="http://sodipodi.sourceforge.net/DTD/sodipodi-0.dtd"
   xmlns:inkscape="http://www.inkscape.org/namespaces/inkscape"
   width="210mm"
   height="297mm"
   viewBox="0 0 744.09448819 1052.3622047"
   id="svg4248"
   version="1.1"
   inkscape:version="0.91 r13725"
   sodipodi:docname="clienteAdevsgraph.svg">
  <sodipodi:namedview
     id="base"
     pagecolor="#ffffff"
     bordercolor="#666666"
     borderopacity="1.0"
     inkscape:pageopacity="0.0"
     inkscape:pageshadow="2"
     inkscape:zoom="2.430272"
     inkscape:cx="251.79035"
     inkscape:cy="629.16324"
     inkscape:document-units="px"
     inkscape:current-layer="layer1"
     showgrid="true"
     inkscape:window-width="1855"
     inkscape:window-height="1056"
     inkscape:window-x="65"
     inkscape:window-y="24"
     inkscape:window-maximized="1">
    <inkscape:grid
       id="grid4904"
       type="xygrid" />
  </sodipodi:namedview>
  <defs
     id="defs4250">
    <marker
       inkscape:stockid="Arrow2Mstart"
       orient="auto"
       refY="0.0"
       refX="0.0"
       id="Arrow2Mstart"
       style="overflow:visible"
       inkscape:isstock="true">
      <path
         id="path4433"
         style="fill-rule:evenodd;stroke-width:0.625;stroke-linejoin:round;stroke:#000000;stroke-opacity:1;fill:#000000;fill-opacity:1"
         d="M 8.7185878,4.0337352 L -2.2072895,0.016013256 L 8.7185884,-4.0017078 C 6.9730900,-1.6296469 6.9831476,1.6157441 8.7185878,4.0337352 z "
         transform="scale(0.6) translate(0,0)" />
    </marker>
    <marker
       inkscape:stockid="Arrow2Lstart"
       orient="auto"
       refY="0.0"
       refX="0.0"
       id="Arrow2Lstart"
       style="overflow:visible"
       inkscape:isstock="true">
      <path
         id="path4427"
         style="fill-rule:evenodd;stroke-width:0.625;stroke-linejoin:round;stroke:#000000;stroke-opacity:1;fill:#000000;fill-opacity:1"
         d="M 8.7185878,4.0337352 L -2.2072895,0.016013256 L 8.7185884,-4.0017078 C 6.9730900,-1.6296469 6.9831476,1.6157441 8.7185878,4.0337352 z "
         transform="scale(1.1) translate(1,0)" />
    </marker>
  </defs>
  <metadata
     id="metadata4253">
    <rdf:RDF>
      <cc:Work
         rdf:about="">
        <dc:format>image/svg+xml</dc:format>
        <dc:type
           rdf:resource="http://purl.org/dc/dcmitype/StillImage" />
        <dc:title></dc:title>
      </cc:Work>
    </rdf:RDF>
  </metadata>
  <g
     id="layer1"
     inkscape:groupmode="layer"
     inkscape:label="Capa 1">
    <path
       d="m 240.36358,387.02112 0,0 c 0,-21.23904 18.13422,-38.4567 40.50394,-38.4567 l 0,0 c 10.74231,0 21.04461,4.05169 28.64062,11.26371 7.59595,7.21203 11.86328,16.99363 11.86328,27.19299 l 0,0 c 0,21.23904 -18.13421,38.4567 -40.5039,38.4567 l 0,0 c -22.36972,0 -40.50394,-17.21766 -40.50394,-38.4567 z"
       id="path17"
       inkscape:connector-curvature="0"
       style="fill:#cfe2f3;fill-rule:evenodd;stroke:none;stroke-linecap:square;stroke-miterlimit:10" />
    <path
       d="m 240.36358,387.02112 0,0 c 0,-21.23904 18.13422,-38.4567 40.50394,-38.4567 l 0,0 c 10.74231,0 21.04461,4.05169 28.64062,11.26371 7.59595,7.21203 11.86328,16.99363 11.86328,27.19299 l 0,0 c 0,21.23904 -18.13421,38.4567 -40.5039,38.4567 l 0,0 c -22.36972,0 -40.50394,-17.21766 -40.50394,-38.4567 z"
       id="path19"
       inkscape:connector-curvature="0"
       style="fill:none;fill-rule:evenodd;stroke:#000000;stroke-width:1;stroke-linecap:butt;stroke-linejoin:round;stroke-miterlimit:10" />
    <path
       d="m 59.471369,277.63624 358.992131,0 0,220 -358.992131,0 z"
       id="path82648"
       inkscape:connector-curvature="0"
       style="fill:#000000;fill-opacity:0;fill-rule:evenodd;stroke:none;stroke-linecap:square;stroke-miterlimit:10" />
    <path
       d="m 59.471369,277.63624 358.992131,0 0,220 -358.992131,0 z"
       id="path82650"
       inkscape:connector-curvature="0"
       style="fill:none;fill-rule:evenodd;stroke:#000000;stroke-width:2;stroke-linecap:butt;stroke-linejoin:round;stroke-miterlimit:10" />
    <path
       d="m 279.47137,335.63624 c 0,-12.49999 -24.42801,-32.28682 -48.85828,-24.99999 -24.43023,7.28685 -48.86276,41.64736 -48.85824,76.00786 0.004,34.36051 24.44598,68.72101 48.88974,76.00784 24.44375,7.28684 48.88977,-12.49996 48.88977,-24.99997"
       id="path82660"
       inkscape:connector-curvature="0"
       style="fill:#000000;fill-opacity:0;fill-rule:evenodd;stroke:none;stroke-linecap:square;stroke-miterlimit:10" />
    <path
       d="m 282.94663,345.58275 c -1.68612,-12.92777 -10.46948,-17.23737 -19.03401,-26.15684 -8.91262,-7.06373 -21.08438,-12.43306 -33.29953,-8.78966 -24.43024,7.28685 -48.86276,41.64736 -48.85824,76.00786 0.004,34.36051 24.44598,68.72101 48.88974,76.00784 24.44378,7.28687 50.34456,-24.13832 50.34456,-36.63829"
       id="path82662"
       inkscape:connector-curvature="0"
       style="fill:none;fill-rule:evenodd;stroke:#000000;stroke-width:2;stroke-linecap:butt;stroke-linejoin:round;stroke-miterlimit:10;stroke-dasharray:8, 6;marker-start:url(#Arrow2Mstart)"
       sodipodi:nodetypes="ccscsc" />
    <path
       d="m 49.754829,357.63624 126.992141,0 0,58.01575 -126.992141,0 z"
       id="path82666"
       inkscape:connector-curvature="0"
       style="fill:#000000;fill-opacity:0;fill-rule:evenodd;stroke:none;stroke-linecap:square;stroke-miterlimit:10" />
    <g
       id="content"
       transform="matrix(1,0,0,-1,17.094099,1084.6927)"
       xml:space="preserve"
       stroke-miterlimit="10.433"
       font-style="normal"
       font-variant="normal"
       font-weight="normal"
       font-stretch="normal"
       font-size-adjust="none"
       letter-spacing="normal"
       word-spacing="normal"
       ns0:text="\\Large{\n\\textbf{Inventario}\n}"
       ns0:preamble="/home/piter/.config/inkscape/extensions/preambulo.ini"
       style="font-style:normal;font-variant:normal;font-weight:normal;font-stretch:normal;letter-spacing:normal;word-spacing:normal;text-anchor:start;fill:none;fill-opacity:1;fill-rule:evenodd;stroke:#000000;stroke-linecap:butt;stroke-linejoin:miter;stroke-miterlimit:10.43299961;stroke-dasharray:none;stroke-dashoffset:0;stroke-opacity:1"><path
         style="fill:#000000;stroke-width:0"
         inkscape:connector-curvature="0"
         d="m 232.06,716.35 1.6,0 0,0.61 c -0.51,-0.03 -1.95,-0.03 -2.55,-0.03 -0.6,0 -2.04,0 -2.55,0.03 l 0,-0.61 1.6,0 0,-8.61 -1.6,0 0,-0.62 c 0.51,0.03 1.95,0.03 2.55,0.03 0.6,0 2.04,0 2.55,-0.03 l 0,0.62 -1.6,0 z"
         id="path83364" /><path
         style="fill:#000000;stroke-width:0"
         inkscape:connector-curvature="0"
         d="m 241.74,711.51 0,0.13 0,0.12 -0.01,0.12 -0.01,0.11 -0.02,0.11 -0.02,0.11 -0.02,0.1 -0.03,0.1 -0.03,0.09 -0.04,0.1 -0.04,0.08 -0.04,0.08 -0.05,0.08 -0.06,0.08 -0.05,0.07 -0.07,0.07 -0.06,0.06 -0.07,0.06 -0.08,0.05 -0.08,0.05 -0.09,0.05 -0.09,0.04 -0.1,0.04 -0.1,0.04 -0.1,0.03 -0.12,0.02 -0.11,0.03 -0.12,0.02 -0.13,0.01 -0.14,0.01 -0.14,0.01 -0.14,0 c -1.03,0 -1.92,-0.5 -2.41,-1.58 l -0.02,0 0,1.58 -2.42,-0.12 0,-0.61 c 0.89,0 0.99,0 0.99,-0.56 l 0,-4.55 -0.99,0 0,-0.62 c 0.33,0.03 1.36,0.03 1.76,0.03 0.41,0 1.45,0 1.78,-0.03 l 0,0.62 -0.99,0 0,3.05 c 0,1.55 1.15,2.31 2.07,2.31 0.53,0 0.83,-0.34 0.83,-1.43 l 0,-3.93 -0.99,0 0,-0.62 c 0.33,0.03 1.36,0.03 1.77,0.03 0.4,0 1.44,0 1.78,-0.03 l 0,0.62 -1,0 z"
         id="path83366" /><path
         style="fill:#000000;stroke-width:0"
         inkscape:connector-curvature="0"
         d="m 249.75,712.54 0.02,0.04 0.02,0.04 0.01,0.02 0.01,0.02 0.01,0.01 0.01,0.02 0.01,0.01 0.02,0.02 0.01,0.01 0.02,0.01 0.02,0.02 0.02,0.01 0.02,0.01 0.03,0.01 0.03,0.01 0.03,0.01 0.03,0.01 0.03,0.01 0.04,0.01 0.02,0 0.02,0 0.03,0.01 0.02,0 0.02,0 0.03,0 0.02,0.01 0.03,0 0.03,0 0.03,0 0.03,0 0.03,0.01 0.03,0 0.03,0 0.03,0 0.04,0 0.03,0 0.04,0 0.04,0 0.04,0 0.04,0 0.04,0.01 0,0.61 c -0.52,-0.03 -0.55,-0.03 -1.13,-0.03 -0.39,0 -0.42,0 -1.24,0.03 l 0,-0.61 c 0.39,0 0.71,-0.08 0.71,-0.18 0,-0.01 0,-0.03 -0.08,-0.17 l -1.67,-3.69 -1.86,4.04 0.79,0 0,0.61 c -0.32,-0.03 -1.33,-0.03 -1.72,-0.03 -0.41,0 -1.24,0 -1.62,0.03 l 0,-0.61 0.91,0 2.52,-5.48 c 0.13,-0.28 0.16,-0.35 0.49,-0.35 0.23,0 0.34,0.03 0.47,0.32 z"
         id="path83368" /><path
         style="fill:#000000;stroke-width:0"
         inkscape:connector-curvature="0"
         d="m 257.2,710.29 0.03,0 0.03,0 0.03,0 0.02,0 0.03,0 0.02,0.01 0.03,0 0.02,0 0.02,0 0.01,0 0.02,0.01 0.02,0 0.01,0.01 0.02,0 0.01,0.01 0.01,0.01 0.02,0.01 0.01,0.01 0,0.01 0.01,0.01 0.01,0.01 0,0.01 0.01,0.01 0,0.01 0,0.01 0.01,0.01 0,0 0,0.01 0,0.01 0.01,0.01 0,0.02 0,0.01 0,0.01 0,0.01 0,0.01 0,0.02 0.01,0.01 0,0.01 0,0.02 0,0.01 0,0.02 0,0.02 0,0.01 c 0,0.43 -0.1,1.51 -0.76,2.18 -0.6,0.6 -1.41,0.79 -2.24,0.79 -2.24,0 -3.46,-1.46 -3.46,-3.27 0,-2.01 1.48,-3.31 3.65,-3.31 2.16,0 2.81,1.52 2.81,1.76 0,0.22 -0.22,0.22 -0.3,0.22 -0.23,0 -0.25,-0.05 -0.33,-0.23 -0.38,-0.94 -1.32,-1.24 -2.01,-1.24 -2.08,0 -2.1,1.94 -2.1,2.74 l 0,0.42 c 0.03,0.59 0.05,1.15 0.35,1.66 0.27,0.46 0.77,0.78 1.39,0.78 1.53,0 1.66,-1.72 1.68,-2.44 l -3.42,0 0,-0.42 z"
         id="path83370" /><path
         style="fill:#000000;stroke-width:0"
         inkscape:connector-curvature="0"
         d="m 265.7,711.51 0,0.13 -0.01,0.12 -0.01,0.12 -0.01,0.11 -0.01,0.11 -0.02,0.11 -0.03,0.1 -0.03,0.1 -0.03,0.09 -0.03,0.1 -0.04,0.08 -0.05,0.08 -0.05,0.08 -0.05,0.08 -0.06,0.07 -0.06,0.07 -0.07,0.06 -0.07,0.06 -0.08,0.05 -0.08,0.05 -0.08,0.05 -0.09,0.04 -0.1,0.04 -0.1,0.04 -0.11,0.03 -0.11,0.02 -0.12,0.03 -0.12,0.02 -0.13,0.01 -0.13,0.01 -0.14,0.01 -0.15,0 c -1.03,0 -1.92,-0.5 -2.41,-1.58 l -0.01,0 0,1.58 -2.43,-0.12 0,-0.61 c 0.9,0 0.99,0 0.99,-0.56 l 0,-4.55 -0.99,0 0,-0.62 c 0.34,0.03 1.37,0.03 1.77,0.03 0.4,0 1.45,0 1.78,-0.03 l 0,0.62 -0.99,0 0,3.05 c 0,1.55 1.15,2.31 2.06,2.31 0.53,0 0.84,-0.34 0.84,-1.43 l 0,-3.93 -0.99,0 0,-0.62 c 0.33,0.03 1.36,0.03 1.76,0.03 0.4,0 1.45,0 1.78,-0.03 l 0,0.62 -0.99,0 z"
         id="path83372" /><path
         style="fill:#000000;stroke-width:0"
         inkscape:connector-curvature="0"
         d="m 269.61,712.88 2.07,0 0,0.61 -2.07,0 0,2.74 -0.6,0 c -0.01,-1.42 -0.7,-2.84 -2.12,-2.88 l 0,-0.47 1.16,0 0,-3.99 c 0,-1.52 1.18,-1.85 2.21,-1.85 1.06,0 1.69,0.8 1.69,1.86 l 0,0.76 -0.6,0 0,-0.74 c 0,-0.95 -0.43,-1.37 -0.87,-1.37 -0.87,0 -0.87,0.96 -0.87,1.29 z"
         id="path83374" /><path
         style="fill:#000000;stroke-width:0"
         inkscape:connector-curvature="0"
         d="m 279.46,711.41 0,0.12 -0.01,0.12 -0.01,0.12 -0.02,0.12 -0.03,0.11 -0.04,0.11 -0.04,0.1 -0.04,0.1 -0.05,0.1 -0.06,0.1 -0.06,0.09 -0.07,0.09 -0.08,0.09 -0.08,0.08 -0.09,0.08 -0.09,0.07 -0.1,0.07 -0.11,0.07 -0.11,0.06 -0.12,0.06 -0.12,0.05 -0.13,0.05 -0.13,0.05 -0.14,0.04 -0.15,0.04 -0.15,0.03 -0.16,0.03 -0.16,0.02 -0.17,0.02 -0.18,0.01 -0.18,0.01 -0.19,0 c -0.8,0 -2.49,-0.07 -2.49,-1.28 0,-0.6 0.46,-0.86 0.84,-0.86 0.43,0 0.85,0.3 0.85,0.85 0,0.27 -0.1,0.53 -0.34,0.69 0.47,0.13 0.81,0.13 1.09,0.13 0.97,0 1.56,-0.55 1.56,-1.72 l 0,-0.58 0,-0.38 0,-1.35 c 0,-1.35 -1.2,-1.61 -1.66,-1.61 -0.71,0 -1.29,0.47 -1.29,1.13 0,1.31 1.54,1.75 2.95,1.83 l 0,0.38 c -2.27,0 -4.55,-0.63 -4.55,-2.22 0,-1.31 1.67,-1.59 2.66,-1.59 1.1,0 1.8,0.6 2.09,1.23 0,-0.53 0,-1.15 1.45,-1.15 l 0.73,0 c 0.3,0 0.42,0 0.42,0.32 0,0.3 -0.13,0.3 -0.33,0.3 -0.91,0.01 -0.91,0.24 -0.91,0.57 z"
         id="path83376" /><path
         style="fill:#000000;stroke-width:0"
         inkscape:connector-curvature="0"
         d="m 283.69,710.35 0,0.02 0,0.03 0,0.03 0.01,0.03 0,0.07 0,0.07 0.01,0.09 0,0.09 0.01,0.1 0.02,0.1 0.01,0.11 0.02,0.11 0.02,0.11 0.02,0.12 0.03,0.12 0.04,0.12 0.03,0.12 0.04,0.12 0.05,0.11 0.05,0.12 0.06,0.11 0.06,0.11 0.07,0.1 0.08,0.1 0.08,0.09 0.04,0.05 0.05,0.04 0.04,0.04 0.05,0.04 0.05,0.04 0.06,0.03 0.05,0.03 0.06,0.03 0.05,0.03 0.06,0.03 0.07,0.02 0.06,0.02 0.07,0.02 0.07,0.01 0.07,0.01 0.07,0.01 0.08,0 0.07,0 c -0.2,-0.15 -0.3,-0.4 -0.3,-0.65 0,-0.59 0.47,-0.84 0.83,-0.84 0.36,0 0.84,0.25 0.84,0.84 0,0.73 -0.75,1.13 -1.44,1.13 -1.13,0 -1.62,-0.99 -1.82,-1.59 l -0.01,0 0,1.59 -2.36,-0.12 0,-0.61 c 0.89,0 0.99,0 0.99,-0.56 l 0,-4.55 -0.99,0 0,-0.62 c 0.33,0.03 1.41,0.03 1.81,0.03 0.42,0 1.58,0 1.92,-0.03 l 0,0.62 -1.25,0 z"
         id="path83378" /><path
         style="fill:#000000;stroke-width:0"
         inkscape:connector-curvature="0"
         d="m 290.5,716.06 0,0.05 0,0.06 -0.01,0.05 -0.01,0.05 -0.01,0.05 -0.02,0.05 -0.01,0.05 -0.02,0.05 -0.02,0.05 -0.02,0.04 -0.03,0.04 -0.03,0.05 -0.03,0.04 -0.03,0.03 -0.03,0.04 -0.03,0.04 -0.04,0.03 -0.04,0.03 -0.04,0.03 -0.04,0.03 -0.04,0.03 -0.04,0.02 -0.05,0.02 -0.04,0.02 -0.05,0.02 -0.05,0.02 -0.05,0.01 -0.05,0.01 -0.05,0.01 -0.05,0.01 -0.05,0 -0.05,0 c -0.59,0 -1.03,-0.49 -1.03,-1.03 0,-0.54 0.44,-1.03 1.03,-1.03 0.56,0 1.03,0.44 1.03,1.03 z"
         id="path83380" /><path
         style="fill:#000000;stroke-width:0"
         inkscape:connector-curvature="0"
         d="m 287.98,713.46 0,-0.61 c 0.84,0 0.94,0 0.94,-0.56 l 0,-4.55 -0.99,0 0,-0.62 c 0.33,0.03 1.32,0.03 1.71,0.03 0.4,0 1.32,0 1.66,-0.03 l 0,0.62 -0.88,0 0,5.84 z"
         id="path83382" /><path
         style="fill:#000000;stroke-width:0"
         inkscape:connector-curvature="0"
         d="m 299.39,710.26 0,0.18 -0.01,0.18 -0.02,0.17 -0.03,0.17 -0.03,0.17 -0.05,0.16 -0.04,0.16 -0.06,0.16 -0.06,0.15 -0.07,0.14 -0.08,0.14 -0.09,0.14 -0.09,0.13 -0.09,0.12 -0.11,0.12 -0.11,0.12 -0.12,0.11 -0.12,0.1 -0.13,0.1 -0.14,0.09 -0.14,0.08 -0.15,0.08 -0.16,0.07 -0.16,0.07 -0.17,0.06 -0.18,0.05 -0.18,0.04 -0.18,0.04 -0.19,0.02 -0.2,0.02 -0.2,0.02 -0.21,0 -0.02,-0.47 c 0.82,0 1.34,-0.39 1.58,-0.79 0.29,-0.52 0.29,-1.26 0.29,-1.95 0,-1.19 0,-2.86 -1.85,-2.86 l 0,0 c -1.87,0 -1.87,1.68 -1.87,2.86 0,0.67 0,1.39 0.28,1.91 0.31,0.57 0.96,0.83 1.57,0.83 l 0.02,0.47 c -2.34,0 -3.59,-1.49 -3.59,-3.36 0,-1.87 1.32,-3.22 3.57,-3.22 2.34,0 3.59,1.42 3.59,3.22 z"
         id="path83384" /></g>    <g
       style="font-style:normal;font-variant:normal;font-weight:normal;font-stretch:normal;letter-spacing:normal;word-spacing:normal;text-anchor:start;fill:none;fill-opacity:1;fill-rule:evenodd;stroke:#000000;stroke-linecap:butt;stroke-linejoin:miter;stroke-miterlimit:10.43299961;stroke-dasharray:none;stroke-dashoffset:0;stroke-opacity:1"
       ns0:preamble="/home/piter/.config/inkscape/extensions/preambulo.ini"
       ns0:text="\\Large{\n\\textbf{Cliente A}\n}"
       word-spacing="normal"
       letter-spacing="normal"
       font-size-adjust="none"
       font-stretch="normal"
       font-weight="normal"
       font-variant="normal"
       font-style="normal"
       stroke-miterlimit="10.433"
       xml:space="preserve"
       transform="matrix(1,0,0,-1,107.1303,1196.6577)"
       id="g83785"><path
         id="path83787"
         d="m 238.86,716.76 0,0.02 0,0.01 0,0.02 0,0.01 0,0.02 0,0.01 0,0.01 0,0.01 0,0.02 0,0.01 0,0.01 0,0.01 -0.01,0.02 0,0.02 0,0.02 0,0.02 0,0.01 -0.01,0.02 0,0.01 -0.01,0.01 0,0.01 -0.01,0.01 -0.01,0.01 -0.01,0.01 -0.01,0.01 -0.01,0 -0.01,0.01 -0.01,0.01 -0.01,0 -0.01,0 -0.01,0 -0.01,0 0,0.01 -0.01,0 -0.01,0 -0.01,0 -0.01,0 -0.01,0 -0.01,0 -0.01,0 -0.02,0 -0.01,0 -0.01,0.01 -0.01,0 -0.02,0 -0.01,0 -0.01,0 -0.02,0 -1.07,-1.04 c -0.81,0.69 -1.77,1.04 -2.83,1.04 -3.43,0 -5.64,-2.08 -5.64,-5.1 0,-2.95 2.14,-5.09 5.65,-5.09 2.56,0 4.21,1.75 4.21,3.44 0,0.25 -0.09,0.26 -0.3,0.26 -0.15,0 -0.29,0 -0.3,-0.16 -0.13,-2.18 -1.99,-2.92 -3.28,-2.92 -0.93,0 -2.19,0.26 -2.99,1.16 -0.51,0.54 -0.97,1.33 -0.97,3.31 0,1.41 0.22,2.46 0.89,3.26 0.92,1.08 2.36,1.22 3.05,1.22 1.07,0 2.81,-0.6 3.24,-3.13 0.03,-0.13 0.16,-0.13 0.33,-0.13 0.33,0 0.33,0.03 0.33,0.38 z"
         inkscape:connector-curvature="0"
         style="fill:#000000;stroke-width:0" /><path
         id="path83789"
         d="m 242.88,717.08 -2.48,-0.12 0,-0.61 c 0.89,0 0.99,0 0.99,-0.56 l 0,-8.05 -0.99,0 0,-0.62 c 0.33,0.03 1.35,0.03 1.73,0.03 0.39,0 1.41,0 1.74,-0.03 l 0,0.62 -0.99,0 z"
         inkscape:connector-curvature="0"
         style="fill:#000000;stroke-width:0" /><path
         id="path83791"
         d="m 247.45,716.06 0,0.05 0,0.06 -0.01,0.05 -0.01,0.05 -0.01,0.05 -0.02,0.05 -0.01,0.05 -0.02,0.05 -0.02,0.05 -0.02,0.04 -0.03,0.04 -0.03,0.05 -0.03,0.04 -0.03,0.03 -0.03,0.04 -0.03,0.04 -0.04,0.03 -0.04,0.03 -0.04,0.03 -0.04,0.03 -0.04,0.03 -0.04,0.02 -0.05,0.02 -0.04,0.02 -0.05,0.02 -0.05,0.02 -0.05,0.01 -0.05,0.01 -0.05,0.01 -0.05,0.01 -0.05,0 -0.05,0 c -0.59,0 -1.03,-0.49 -1.03,-1.03 0,-0.54 0.44,-1.03 1.03,-1.03 0.56,0 1.03,0.44 1.03,1.03 z"
         inkscape:connector-curvature="0"
         style="fill:#000000;stroke-width:0" /><path
         id="path83793"
         d="m 244.93,713.46 0,-0.61 c 0.84,0 0.94,0 0.94,-0.56 l 0,-4.55 -0.99,0 0,-0.62 c 0.33,0.03 1.32,0.03 1.71,0.03 0.4,0 1.32,0 1.67,-0.03 l 0,0.62 -0.89,0 0,5.84 z"
         inkscape:connector-curvature="0"
         style="fill:#000000;stroke-width:0" /><path
         id="path83795"
         d="m 255.22,710.29 0.03,0 0.03,0 0.03,0 0.02,0 0.03,0 0.02,0.01 0.03,0 0.02,0 0.02,0 0.01,0 0.02,0.01 0.02,0 0.01,0.01 0.02,0 0.01,0.01 0.01,0.01 0.02,0.01 0.01,0.01 0,0.01 0.01,0.01 0.01,0.01 0,0.01 0.01,0.01 0,0.01 0,0.01 0.01,0.01 0,0 0,0.01 0,0.01 0.01,0.01 0,0.02 0,0.01 0,0.01 0,0.01 0,0.01 0,0.02 0.01,0.01 0,0.01 0,0.02 0,0.01 0,0.02 0,0.02 0,0.01 c 0,0.43 -0.1,1.51 -0.76,2.18 -0.61,0.6 -1.41,0.79 -2.24,0.79 -2.24,0 -3.46,-1.46 -3.46,-3.27 0,-2.01 1.48,-3.31 3.65,-3.31 2.16,0 2.81,1.52 2.81,1.76 0,0.22 -0.22,0.22 -0.3,0.22 -0.23,0 -0.25,-0.05 -0.33,-0.23 -0.38,-0.94 -1.32,-1.24 -2.01,-1.24 -2.08,0 -2.1,1.94 -2.1,2.74 l 0,0.42 c 0.03,0.59 0.05,1.15 0.35,1.66 0.27,0.46 0.77,0.78 1.39,0.78 1.54,0 1.66,-1.72 1.68,-2.44 l -3.42,0 0,-0.42 z"
         inkscape:connector-curvature="0"
         style="fill:#000000;stroke-width:0" /><path
         id="path83797"
         d="m 263.72,711.51 0,0.13 -0.01,0.12 -0.01,0.12 -0.01,0.11 -0.01,0.11 -0.02,0.11 -0.03,0.1 -0.03,0.1 -0.03,0.09 -0.03,0.1 -0.04,0.08 -0.05,0.08 -0.05,0.08 -0.05,0.08 -0.06,0.07 -0.06,0.07 -0.07,0.06 -0.07,0.06 -0.08,0.05 -0.08,0.05 -0.08,0.05 -0.09,0.04 -0.1,0.04 -0.1,0.04 -0.11,0.03 -0.11,0.02 -0.12,0.03 -0.12,0.02 -0.13,0.01 -0.13,0.01 -0.14,0.01 -0.15,0 c -1.03,0 -1.92,-0.5 -2.41,-1.58 l -0.01,0 0,1.58 -2.43,-0.12 0,-0.61 c 0.9,0 1,0 1,-0.56 l 0,-4.55 -1,0 0,-0.62 c 0.34,0.03 1.37,0.03 1.77,0.03 0.4,0 1.45,0 1.78,-0.03 l 0,0.62 -0.99,0 0,3.05 c 0,1.55 1.15,2.31 2.07,2.31 0.53,0 0.83,-0.34 0.83,-1.43 l 0,-3.93 -0.99,0 0,-0.62 c 0.33,0.03 1.36,0.03 1.76,0.03 0.4,0 1.45,0 1.78,-0.03 l 0,0.62 -0.99,0 z"
         inkscape:connector-curvature="0"
         style="fill:#000000;stroke-width:0" /><path
         id="path83799"
         d="m 267.65,712.88 2.06,0 0,0.61 -2.06,0 0,2.74 -0.6,0 c -0.02,-1.42 -0.71,-2.84 -2.13,-2.88 l 0,-0.47 1.17,0 0,-3.99 c 0,-1.52 1.17,-1.85 2.21,-1.85 1.06,0 1.69,0.8 1.69,1.86 l 0,0.76 -0.6,0 0,-0.74 c 0,-0.95 -0.44,-1.37 -0.88,-1.37 -0.86,0 -0.86,0.96 -0.86,1.29 z"
         inkscape:connector-curvature="0"
         style="fill:#000000;stroke-width:0" /><path
         id="path83801"
         d="m 277.38,710.29 0.03,0 0.03,0 0.03,0 0.03,0 0.02,0 0.03,0.01 0.02,0 0.02,0 0.02,0 0.02,0 0.01,0.01 0.02,0 0.02,0.01 0.01,0 0.01,0.01 0.02,0.01 0.01,0.01 0.01,0.01 0.01,0.01 0.01,0.01 0,0.01 0.01,0.02 0,0.01 0.01,0.01 0,0.01 0,0 0,0.01 0.01,0.01 0,0.01 0,0.02 0,0.01 0,0.01 0.01,0.01 0,0.01 0,0.02 0,0.01 0,0.01 0,0.02 0,0.01 0,0.02 0,0.02 0,0.01 c 0,0.43 -0.1,1.51 -0.76,2.18 -0.6,0.6 -1.41,0.79 -2.24,0.79 -2.24,0 -3.45,-1.46 -3.45,-3.27 0,-2.01 1.47,-3.31 3.64,-3.31 2.16,0 2.81,1.52 2.81,1.76 0,0.22 -0.22,0.22 -0.3,0.22 -0.23,0 -0.24,-0.05 -0.33,-0.23 -0.37,-0.94 -1.32,-1.24 -2.01,-1.24 -2.08,0 -2.09,1.94 -2.09,2.74 l 0,0.42 c 0.03,0.59 0.04,1.15 0.34,1.66 0.27,0.46 0.77,0.78 1.39,0.78 1.54,0 1.67,-1.72 1.68,-2.44 l -3.41,0 0,-0.42 z"
         inkscape:connector-curvature="0"
         style="fill:#000000;stroke-width:0" /><path
         id="path83803"
         d="m 290.21,716.84 -0.01,0.02 -0.01,0.02 0,0.02 -0.01,0.02 -0.01,0.02 -0.01,0.02 -0.01,0.02 0,0.02 -0.01,0.01 -0.01,0.02 -0.01,0.01 -0.01,0.01 -0.01,0.01 -0.01,0.02 -0.01,0.01 -0.01,0.01 -0.01,0.01 -0.02,0 -0.01,0.01 -0.02,0.01 -0.01,0 -0.02,0.01 -0.02,0.01 -0.02,0 -0.02,0 -0.02,0.01 -0.02,0 -0.03,0 -0.02,0 -0.01,0 -0.02,0 -0.01,0 -0.02,0 -0.01,0 -0.02,0 c -0.36,0 -0.39,-0.07 -0.49,-0.32 l -3.56,-8.76 c -0.1,-0.23 -0.1,-0.25 -0.5,-0.3 -0.36,-0.04 -0.41,-0.04 -0.73,-0.04 l -0.26,0 0,-0.62 c 0.38,0.03 1.24,0.03 1.65,0.03 0.39,0 1.44,0 1.77,-0.03 l 0,0.62 c -0.32,0 -0.86,0 -1.27,0.16 0.05,0.13 0.05,0.15 0.08,0.21 l 0.76,1.87 0.24,0.61 1.68,4.14 1.66,-4.14 -3.34,0 -0.24,-0.61 3.84,0 0.9,-2.24 -1.34,0 0,-0.62 c 0.46,0.03 1.85,0.03 2.39,0.03 0.46,0 1.92,0 2.28,-0.03 l 0,0.62 -1.36,0 z"
         inkscape:connector-curvature="0"
         style="fill:#000000;stroke-width:0" /></g>    <g
       id="g84291"
       transform="matrix(1,0,0,-1,-111.40978,1096.8807)"
       xml:space="preserve"
       stroke-miterlimit="10.433"
       font-style="normal"
       font-variant="normal"
       font-weight="normal"
       font-stretch="normal"
       font-size-adjust="none"
       letter-spacing="normal"
       word-spacing="normal"
       ns0:text="\\Large{\\texttt{query\\_o!}n}"
       ns0:preamble="/home/piter/.config/inkscape/extensions/preambulo.ini"
       style="font-style:normal;font-variant:normal;font-weight:normal;font-stretch:normal;letter-spacing:normal;word-spacing:normal;text-anchor:start;fill:none;fill-opacity:1;fill-rule:evenodd;stroke:#000000;stroke-linecap:butt;stroke-linejoin:miter;stroke-miterlimit:10.43299961;stroke-dasharray:none;stroke-dashoffset:0;stroke-opacity:1"><path
         style="fill:#000000;stroke-width:0"
         inkscape:connector-curvature="0"
         d="m 229.72,712.8 0,0.05 0,0.05 -0.01,0.05 0,0.03 0,0.02 0,0.03 -0.01,0.02 0,0.03 -0.01,0.02 0,0.03 -0.01,0.02 -0.01,0.02 -0.01,0.02 -0.01,0.03 -0.02,0.02 -0.01,0.02 -0.02,0.01 -0.01,0.02 -0.02,0.02 -0.01,0.01 -0.01,0 -0.02,0.01 -0.01,0.01 -0.01,0 -0.01,0.01 -0.02,0 -0.01,0.01 -0.01,0 -0.02,0.01 -0.02,0 -0.01,0.01 -0.02,0 -0.02,0 -0.01,0.01 -0.02,0 -0.02,0 -0.02,0 -0.02,0 -0.02,0 c -0.48,0 -0.48,-0.31 -0.48,-0.59 l 0,-0.27 c -0.27,0.29 -0.8,0.86 -1.79,0.86 l 0.09,-0.83 c 1.09,0 1.7,-1.16 1.7,-2.05 l 0,-0.65 c 0,-0.8 -0.7,-1.99 -1.85,-1.99 -1.09,0 -1.98,1.05 -1.98,2.34 0,1.34 1.01,2.35 2.13,2.35 l -0.09,0.83 c -1.56,0 -2.97,-1.35 -2.97,-3.18 0,-1.75 1.26,-3.17 2.83,-3.17 1.04,0 1.63,0.61 1.93,0.93 l 0,-3.2 -0.64,0 c -0.2,0 -0.59,0 -0.59,-0.42 0,-0.41 0.39,-0.41 0.59,-0.41 l 2.22,0 c 0.2,0 0.59,0 0.59,0.41 0,0.42 -0.39,0.42 -0.59,0.42 l -0.64,0 z"
         id="path84293" /><path
         style="fill:#000000;stroke-width:0"
         inkscape:connector-curvature="0"
         d="m 236.81,712.72 0,0.04 0,0.04 0,0.04 -0.01,0.03 0,0.03 0,0.04 -0.01,0.03 0,0.03 -0.01,0.02 -0.01,0.03 0,0.03 -0.01,0.02 -0.01,0.02 -0.02,0.02 -0.01,0.02 -0.01,0.02 -0.02,0.02 -0.02,0.01 -0.02,0.01 -0.02,0.02 -0.02,0.01 -0.03,0.01 -0.02,0.01 -0.03,0.01 -0.03,0 -0.03,0.01 -0.03,0 -0.04,0.01 -0.04,0 -0.04,0 -0.04,0.01 -0.02,0 -0.02,0 -0.95,0 c -0.2,0 -0.58,0 -0.58,-0.42 0,-0.42 0.38,-0.42 0.58,-0.42 l 0.59,0 0,-3.11 c 0,-1.18 -0.98,-1.49 -1.62,-1.49 -1.14,0 -1.14,0.52 -1.14,0.96 l 0,3.89 c 0,0.44 -0.08,0.59 -0.57,0.59 l -0.95,0 c -0.2,0 -0.57,0 -0.57,-0.42 0,-0.42 0.37,-0.42 0.57,-0.42 l 0.59,0 0,-3.71 c 0,-1.32 0.86,-1.72 1.96,-1.72 0.88,0 1.42,0.36 1.71,0.6 0,-0.52 0.35,-0.52 0.59,-0.52 l 0.95,0 c 0.2,0 0.57,0 0.57,0.42 0,0.42 -0.37,0.42 -0.57,0.42 l -0.59,0 z"
         id="path84295" /><path
         style="fill:#000000;stroke-width:0"
         inkscape:connector-curvature="0"
         d="m 244.17,709.88 0.05,0 0.06,0 0.03,0 0.02,0 0.03,0 0.02,0.01 0.03,0 0.02,0 0.03,0.01 0.02,0.01 0.02,0 0.03,0.01 0.02,0.01 0.02,0.01 0.02,0.02 0.02,0.01 0.01,0.02 0.02,0.02 0.02,0.02 0,0.01 0.01,0.01 0.01,0.01 0,0.01 0.01,0.02 0,0.01 0.01,0.02 0.01,0.01 0,0.02 0,0.01 0.01,0.02 0,0.02 0.01,0.01 0,0.02 0,0.02 0.01,0.02 0,0.02 0,0.02 0,0.03 0,0.02 0,0.02 0,0.03 c 0,1.68 -0.95,3.02 -2.74,3.02 -1.66,0 -3,-1.43 -3,-3.18 0,-1.81 1.45,-3.21 3.22,-3.21 1.85,0 2.52,1.27 2.52,1.65 0,0.08 -0.03,0.4 -0.47,0.4 -0.27,0 -0.36,-0.1 -0.45,-0.32 -0.36,-0.83 -1.29,-0.9 -1.56,-0.9 -1.19,0 -2.14,0.9 -2.3,2.01 l 0.02,0.79 c 0.18,1.22 1.12,1.93 2.02,1.93 1.44,0 1.74,-1.22 1.79,-1.93 l -3.81,0 -0.02,-0.79 z"
         id="path84297" /><path
         style="fill:#000000;stroke-width:0"
         inkscape:connector-curvature="0"
         d="m 248.68,709.83 0,0.16 0.01,0.16 0.02,0.15 0.02,0.14 0.03,0.14 0.04,0.14 0.04,0.13 0.05,0.13 0.05,0.12 0.06,0.12 0.06,0.12 0.06,0.11 0.08,0.1 0.07,0.1 0.08,0.1 0.08,0.09 0.09,0.08 0.09,0.08 0.09,0.08 0.1,0.07 0.1,0.06 0.1,0.06 0.1,0.06 0.11,0.04 0.11,0.05 0.11,0.03 0.11,0.04 0.11,0.02 0.11,0.02 0.11,0.02 0.12,0.01 0.11,0 c 0.08,0 0.16,0 0.23,-0.02 0.05,-0.51 0.45,-0.55 0.55,-0.55 0.33,0 0.56,0.24 0.56,0.55 0,0.62 -0.6,0.85 -1.32,0.85 -0.96,0 -1.78,-0.43 -2.44,-1.23 l 0,0.56 c 0,0.44 -0.09,0.59 -0.58,0.59 l -1.44,0 c -0.2,0 -0.58,0 -0.58,-0.42 0,-0.42 0.38,-0.42 0.58,-0.42 l 1.09,0 0,-4.51 -1.09,0 c -0.2,0 -0.58,0 -0.58,-0.42 0,-0.42 0.38,-0.42 0.58,-0.42 l 3.52,0 c 0.21,0 0.58,0 0.58,0.42 0,0.42 -0.37,0.42 -0.58,0.42 l -1.5,0 z"
         id="path84299" /><path
         style="fill:#000000;stroke-width:0"
         inkscape:connector-curvature="0"
         d="m 259.04,712.47 0.38,0 c 0.2,0 0.58,0 0.58,0.42 0,0.42 -0.38,0.42 -0.58,0.42 l -1.58,0 c -0.2,0 -0.59,0 -0.59,-0.42 0,-0.42 0.39,-0.42 0.59,-0.42 l 0.36,0 c -0.4,-1.17 -1.22,-3.57 -1.42,-4.39 l -0.02,0 c -0.07,0.32 -0.13,0.48 -0.27,0.87 l -1.34,3.52 0.34,0 c 0.2,0 0.58,0 0.58,0.42 0,0.42 -0.38,0.42 -0.58,0.42 l -1.58,0 c -0.2,0 -0.59,0 -0.59,-0.42 0,-0.42 0.39,-0.42 0.59,-0.42 l 0.38,0 2.01,-5.16 c 0.06,-0.14 0.06,-0.17 0.06,-0.19 0,-0.03 -0.37,-1.27 -0.59,-1.68 -0.08,-0.14 -0.44,-0.81 -1.13,-0.74 0.01,0.04 0.06,0.13 0.06,0.28 0,0.34 -0.23,0.56 -0.56,0.56 -0.36,0 -0.58,-0.24 -0.58,-0.57 0,-0.55 0.46,-1.12 1.18,-1.12 1.39,0 2.01,1.85 2.05,1.97 z"
         id="path84301" /><line
         style="stroke-width:0.398"
         x1="261.23001"
         y1="707.32001"
         x2="265.66"
         y2="707.32001"
         id="line84303" /><path
         style="fill:#000000;stroke-width:0"
         inkscape:connector-curvature="0"
         d="m 272.2,710.22 0,0.17 -0.02,0.16 -0.01,0.16 -0.03,0.16 -0.03,0.16 -0.04,0.15 -0.05,0.15 -0.05,0.15 -0.06,0.14 -0.06,0.14 -0.07,0.14 -0.08,0.13 -0.08,0.12 -0.08,0.12 -0.09,0.12 -0.1,0.11 -0.1,0.11 -0.1,0.1 -0.11,0.09 -0.11,0.09 -0.12,0.08 -0.12,0.08 -0.12,0.07 -0.13,0.07 -0.13,0.05 -0.13,0.05 -0.13,0.04 -0.14,0.04 -0.14,0.03 -0.14,0.02 -0.14,0.01 -0.15,0 0,-0.83 c 1.01,0 1.93,-0.94 1.93,-2.28 0,-1.37 -0.89,-2.45 -1.93,-2.45 l 0,0 c -1.03,0 -1.92,1.09 -1.92,2.45 0,1.34 0.92,2.28 1.92,2.28 l 0,0.83 c -1.54,0 -2.85,-1.41 -2.85,-3.21 0,-1.81 1.32,-3.18 2.85,-3.18 1.54,0 2.86,1.37 2.86,3.18 z"
         id="path84305" /><path
         style="fill:#000000;stroke-width:0"
         inkscape:connector-curvature="0"
         d="m 277.38,715.3 0,0.03 0,0.04 -0.01,0.03 0,0.03 0,0.03 0,0.02 -0.01,0.03 0,0.03 -0.01,0.02 -0.01,0.03 0,0.02 -0.01,0.03 -0.01,0.02 -0.01,0.02 -0.01,0.02 0,0.02 -0.01,0.02 -0.01,0.02 -0.02,0.02 -0.01,0.01 -0.01,0.02 -0.01,0.02 -0.02,0.03 -0.03,0.02 -0.02,0.03 -0.03,0.02 -0.03,0.02 -0.02,0.02 -0.03,0.01 -0.03,0.02 -0.03,0.01 -0.02,0.01 -0.03,0.01 -0.03,0.01 -0.02,0 -0.03,0.01 -0.02,0 -0.02,0 -0.02,0.01 -0.02,0 -0.02,0 -0.01,0 -0.02,0 c -0.14,0 -0.64,-0.06 -0.64,-0.76 0,-0.21 0.1,-4.19 0.11,-4.75 0.02,-0.8 0.03,-0.93 0.53,-0.93 0.47,0 0.5,0.18 0.52,0.47 0.04,0.83 0.04,1.69 0.06,2.54 0.02,0.88 0.07,1.79 0.07,2.67 z"
         id="path84307" /><path
         style="fill:#000000;stroke-width:0"
         inkscape:connector-curvature="0"
         d="m 277.38,707.77 0,0.03 -0.01,0.03 0,0.04 -0.01,0.03 0,0.03 -0.01,0.03 -0.01,0.03 -0.01,0.03 -0.02,0.03 -0.01,0.03 -0.02,0.02 -0.01,0.03 -0.02,0.03 -0.02,0.02 -0.02,0.02 -0.02,0.03 -0.02,0.02 -0.03,0.02 -0.02,0.02 -0.03,0.01 -0.02,0.02 -0.03,0.02 -0.03,0.01 -0.03,0.01 -0.02,0.02 -0.04,0.01 -0.03,0 -0.03,0.01 -0.03,0.01 -0.03,0 -0.03,0 -0.04,0 c -0.36,0 -0.64,-0.28 -0.64,-0.64 0,-0.36 0.28,-0.65 0.64,-0.65 0.36,0 0.65,0.29 0.65,0.65 z"
         id="path84309" /><path
         style="fill:#000000;stroke-width:0"
         inkscape:connector-curvature="0"
         d="m 286.81,710.61 0,0.12 0,0.12 0,0.11 0,0.11 0,0.1 0,0.1 0,0.09 -0.01,0.09 0,0.09 0,0.08 0,0.07 -0.01,0.08 0,0.07 -0.01,0.07 0,0.06 -0.01,0.06 -0.01,0.06 -0.01,0.06 -0.01,0.06 -0.01,0.05 -0.01,0.05 -0.02,0.05 -0.01,0.05 -0.02,0.04 -0.02,0.05 -0.02,0.05 -0.02,0.04 -0.02,0.04 -0.03,0.05 -0.02,0.04 -0.03,0.04 -0.03,0.04 c -0.42,0.56 -1.09,0.65 -1.58,0.65 -1.39,0 -1.94,-1.19 -2.05,-1.48 l -0.02,0 0,1.48 -1.95,-0.16 0,-0.41 c 0.98,0 1.09,-0.1 1.09,-0.81 l 0,-3.89 c 0,-0.64 -0.15,-0.64 -1.09,-0.64 l 0,-0.42 c 0.38,0.03 1.15,0.03 1.55,0.03 0.42,0 1.19,0 1.57,-0.03 l 0,0.42 c -0.92,0 -1.09,0 -1.09,0.64 l 0,2.67 c 0,1.51 0.99,2.31 1.88,2.31 0.89,0 1.09,-0.73 1.09,-1.61 l 0,-3.37 c 0,-0.64 -0.16,-0.64 -1.09,-0.64 l 0,-0.42 c 0.37,0.03 1.14,0.03 1.55,0.03 0.41,0 1.19,0 1.56,-0.03 l 0,0.42 c -0.72,0 -1.08,0 -1.09,0.43 z"
         id="path84311" /></g>    <g
       style="font-style:normal;font-variant:normal;font-weight:normal;font-stretch:normal;letter-spacing:normal;word-spacing:normal;text-anchor:start;fill:none;fill-opacity:1;fill-rule:evenodd;stroke:#000000;stroke-linecap:butt;stroke-linejoin:miter;stroke-miterlimit:10.43299961;stroke-dasharray:none;stroke-dashoffset:0;stroke-opacity:1"
       ns0:preamble="/home/piter/.config/inkscape/extensions/preambulo.ini"
       ns0:text="\\Large{\n$t_a = \\textrm{EXP}$\n}"
       word-spacing="normal"
       letter-spacing="normal"
       font-size-adjust="none"
       font-stretch="normal"
       font-weight="normal"
       font-variant="normal"
       font-style="normal"
       stroke-miterlimit="10.433"
       xml:space="preserve"
       transform="matrix(1,0,0,-1,23.608289,1116.8476)"
       id="g4336"><path
         id="path4338"
         d="m 231,712.89 1.32,0 c 0.27,0 0.41,0 0.41,0.26 0,0.16 -0.08,0.16 -0.37,0.16 l -1.26,0 0.53,2.09 c 0.05,0.2 0.05,0.23 0.05,0.33 0,0.23 -0.18,0.36 -0.37,0.36 -0.11,0 -0.44,-0.04 -0.56,-0.5 l -0.56,-2.28 -1.35,0 c -0.28,0 -0.41,0 -0.41,-0.28 0,-0.14 0.1,-0.14 0.37,-0.14 l 1.28,0 -0.95,-3.79 c -0.11,-0.5 -0.16,-0.64 -0.16,-0.83 0,-0.67 0.48,-1.29 1.28,-1.29 1.45,0 2.22,2.09 2.22,2.19 0,0.09 -0.05,0.13 -0.14,0.13 -0.03,0 -0.09,0 -0.11,-0.05 -0.02,-0.02 -0.03,-0.03 -0.13,-0.26 -0.3,-0.72 -0.97,-1.72 -1.8,-1.72 -0.43,0 -0.46,0.35 -0.46,0.67 0,0.02 0,0.29 0.05,0.46 z"
         inkscape:connector-curvature="0"
         style="fill:#000000;stroke-width:0" /><path
         id="path4340"
         d="m 236.91,708.74 -0.02,0.03 -0.02,0.03 -0.02,0.04 -0.02,0.03 -0.02,0.03 -0.02,0.03 -0.02,0.03 -0.02,0.03 -0.02,0.03 -0.03,0.03 -0.02,0.02 -0.02,0.03 -0.03,0.02 -0.03,0.03 -0.02,0.02 -0.03,0.02 -0.03,0.02 -0.03,0.02 -0.03,0.02 -0.03,0.02 -0.03,0.01 -0.04,0.02 -0.03,0.01 -0.03,0.02 -0.04,0.01 -0.03,0.01 -0.04,0 -0.04,0.01 -0.04,0.01 -0.04,0 -0.04,0 -0.04,0 0.01,-0.22 c 0.65,0 0.79,-0.81 0.79,-0.87 0,-0.06 -0.02,-0.12 -0.03,-0.17 l -0.5,-1.95 c -0.05,-0.18 -0.05,-0.2 -0.2,-0.37 -0.44,-0.55 -0.85,-0.71 -1.13,-0.71 -0.5,0 -0.63,0.55 -0.63,0.94 0,0.49 0.32,1.72 0.54,2.18 0.31,0.59 0.76,0.95 1.16,0.95 l -0.01,0.22 c -1.17,0 -2.4,-1.46 -2.4,-2.92 0,-0.93 0.55,-1.59 1.32,-1.59 0.2,0 0.7,0.04 1.3,0.75 0.08,-0.42 0.43,-0.75 0.91,-0.75 0.34,0 0.57,0.23 0.73,0.55 0.17,0.36 0.3,0.97 0.3,0.99 0,0.09 -0.09,0.09 -0.12,0.09 -0.1,0 -0.11,-0.04 -0.14,-0.17 -0.17,-0.65 -0.35,-1.24 -0.76,-1.24 -0.26,0 -0.29,0.26 -0.29,0.46 0,0.22 0.02,0.3 0.13,0.74 0.1,0.41 0.13,0.51 0.21,0.89 l 0.36,1.4 c 0.07,0.27 0.07,0.29 0.07,0.34 0,0.17 -0.12,0.26 -0.29,0.26 -0.23,0 -0.38,-0.21 -0.41,-0.43 z"
         inkscape:connector-curvature="0"
         style="fill:#000000;stroke-width:0" /><path
         id="path4342"
         d="m 252.62,711.77 0.03,0 0.04,0 0.04,0 0.02,0 0.02,0.01 0.02,0 0.02,0 0.02,0 0.02,0 0.02,0.01 0.02,0 0.01,0.01 0.02,0 0.02,0.01 0.01,0.01 0.02,0 0.01,0.01 0.02,0.01 0.01,0.01 0.01,0.02 0.01,0.01 0.01,0.01 0,0 0.01,0.01 0,0.01 0,0.01 0.01,0.01 0,0 0,0.01 0.01,0.01 0,0.01 0,0.01 0,0.01 0,0.01 0,0.02 0,0.01 0,0.01 c 0,0.27 -0.24,0.27 -0.45,0.27 l -8.45,0 c -0.21,0 -0.46,0 -0.46,-0.26 0,-0.27 0.24,-0.27 0.46,-0.27 z"
         inkscape:connector-curvature="0"
         style="fill:#000000;stroke-width:0" /><path
         id="path4344"
         d="m 252.62,709.1 0.03,0 0.04,0 0.04,0 0.02,0 0.02,0.01 0.02,0 0.02,0 0.02,0 0.02,0.01 0.02,0 0.02,0 0.01,0.01 0.02,0 0.02,0.01 0.01,0.01 0.02,0.01 0.01,0.01 0.02,0.01 0.01,0.01 0.01,0.01 0.01,0.01 0.01,0.01 0,0.01 0.01,0 0,0.01 0,0.01 0.01,0.01 0,0.01 0,0.01 0.01,0 0,0.01 0,0.01 0,0.02 0,0.01 0,0.01 0,0.01 0,0.01 c 0,0.27 -0.24,0.27 -0.45,0.27 l -8.45,0 c -0.21,0 -0.46,0 -0.46,-0.25 0,-0.28 0.24,-0.28 0.46,-0.28 z"
         inkscape:connector-curvature="0"
         style="fill:#000000;stroke-width:0" /><path
         id="path4346"
         d="m 267,710.79 -0.31,0 c -0.35,-2.23 -0.69,-3.25 -3.12,-3.25 l -1.95,0 c -0.63,0 -0.66,0.1 -0.66,0.57 l 0,3.88 1.31,0 c 1.38,0 1.53,-0.45 1.53,-1.68 l 0.32,0 0,3.77 -0.32,0 c 0,-1.23 -0.15,-1.68 -1.53,-1.68 l -1.31,0 0,3.5 c 0,0.48 0.03,0.58 0.66,0.58 l 1.91,0 c 2.11,0 2.55,-0.72 2.77,-2.79 l 0.32,0 -0.38,3.2 -7.8,0 0,-0.41 0.29,0 c 1.03,0 1.07,-0.15 1.07,-0.68 l 0,-7.59 c 0,-0.53 -0.04,-0.67 -1.07,-0.67 l -0.29,0 0,-0.42 7.99,0 z"
         inkscape:connector-curvature="0"
         style="fill:#000000;stroke-width:0" /><path
         id="path4348"
         d="m 273.01,712.63 1.98,2.89 c 0.25,0.34 0.66,0.97 2.03,0.99 l 0,0.41 c -0.62,-0.03 -0.78,-0.03 -1.51,-0.03 -0.39,0 -1.31,0 -1.63,0.03 l 0,-0.41 c 0.58,-0.05 0.77,-0.39 0.77,-0.64 0,-0.15 -0.06,-0.24 -0.14,-0.37 l -1.72,-2.52 -1.94,2.86 c -0.05,0.06 -0.1,0.16 -0.1,0.24 0,0.2 0.3,0.43 0.82,0.43 l 0,0.41 c -0.35,-0.03 -1.48,-0.03 -1.9,-0.03 -0.4,0 -1.4,0 -1.75,0.03 l 0,-0.41 c 1.08,0 1.22,-0.08 1.52,-0.54 l 2.68,-3.97 -2.41,-3.52 c -0.24,-0.35 -0.7,-0.93 -1.99,-0.94 l 0,-0.42 c 0.62,0.03 0.77,0.03 1.51,0.03 0.38,0 1.32,0 1.65,-0.03 l 0,0.42 c -0.61,0.03 -0.79,0.39 -0.79,0.63 0,0.16 0.07,0.26 0.16,0.39 l 2.1,3.08 2.33,-3.47 c 0.09,-0.13 0.1,-0.14 0.1,-0.2 0,-0.17 -0.26,-0.42 -0.82,-0.43 l 0,-0.42 c 0.35,0.03 1.46,0.03 1.88,0.03 0.4,0 1.42,0 1.77,-0.03 l 0,0.42 c -0.85,0 -1.2,0 -1.53,0.5 z"
         inkscape:connector-curvature="0"
         style="fill:#000000;stroke-width:0" /><path
         id="path4350"
         d="m 281.06,711.68 -0.03,0.35 0,3.9 c 0,0.47 0.03,0.58 0.66,0.58 l 1.35,0 c 2.33,0 2.33,-1.63 2.33,-2.24 0,-0.61 0,-2.24 -2.34,-2.24 l -2,0 0.03,-0.35 2.43,0 c 1.68,0 3.21,1.14 3.21,2.59 0,1.39 -1.39,2.65 -3.33,2.65 l -4.83,0 0,-0.41 0.28,0 c 1.04,0 1.08,-0.15 1.08,-0.68 l 0,-7.62 c 0,-0.53 -0.04,-0.67 -1.08,-0.67 l -0.28,0 0,-0.42 c 0.34,0.03 1.52,0.03 1.93,0.03 0.43,0 1.61,0 1.95,-0.03 l 0,0.42 -0.28,0 c -1.03,0 -1.08,0.14 -1.08,0.67 z"
         inkscape:connector-curvature="0"
         style="fill:#000000;stroke-width:0" /></g>  </g>
</svg>
