<?xml version="1.0" encoding="UTF-8" standalone="no"?>
<!-- Created with Inkscape (http://www.inkscape.org/) -->

<svg
   xmlns:ns0="http://www.iki.fi/pav/software/textext/"
   xmlns:dc="http://purl.org/dc/elements/1.1/"
   xmlns:cc="http://creativecommons.org/ns#"
   xmlns:rdf="http://www.w3.org/1999/02/22-rdf-syntax-ns#"
   xmlns:svg="http://www.w3.org/2000/svg"
   xmlns="http://www.w3.org/2000/svg"
   xmlns:sodipodi="http://sodipodi.sourceforge.net/DTD/sodipodi-0.dtd"
   xmlns:inkscape="http://www.inkscape.org/namespaces/inkscape"
   width="210mm"
   height="297mm"
   viewBox="0 0 744.09448819 1052.3622047"
   id="svg18199"
   version="1.1"
   inkscape:version="0.91 r13725"
   sodipodi:docname="CTA-esquematico.svg">
  <defs
     id="defs18201">
    <marker
       inkscape:isstock="true"
       style="overflow:visible"
       id="marker21986"
       refX="0.0"
       refY="0.0"
       orient="auto"
       inkscape:stockid="TriangleOutL">
      <path
         transform="scale(0.8)"
         style="fill-rule:evenodd;stroke:#000000;stroke-width:1pt;stroke-opacity:1;fill:#000000;fill-opacity:1"
         d="M 5.77,0.0 L -2.88,5.0 L -2.88,-5.0 L 5.77,0.0 z "
         id="path21988" />
    </marker>
    <marker
       inkscape:stockid="TriangleInL"
       orient="auto"
       refY="0.0"
       refX="0.0"
       id="TriangleInL"
       style="overflow:visible"
       inkscape:isstock="true">
      <path
         id="path16478"
         d="M 5.77,0.0 L -2.88,5.0 L -2.88,-5.0 L 5.77,0.0 z "
         style="fill-rule:evenodd;stroke:#000000;stroke-width:1pt;stroke-opacity:1;fill:#000000;fill-opacity:1"
         transform="scale(-0.8)" />
    </marker>
    <marker
       inkscape:stockid="TriangleOutL"
       orient="auto"
       refY="0.0"
       refX="0.0"
       id="TriangleOutL"
       style="overflow:visible"
       inkscape:isstock="true"
       inkscape:collect="always">
      <path
         id="path16487"
         d="M 5.77,0.0 L -2.88,5.0 L -2.88,-5.0 L 5.77,0.0 z "
         style="fill-rule:evenodd;stroke:#000000;stroke-width:1pt;stroke-opacity:1;fill:#000000;fill-opacity:1"
         transform="scale(0.8)" />
    </marker>
    <marker
       inkscape:stockid="Arrow2Lstart"
       orient="auto"
       refY="0.0"
       refX="0.0"
       id="Arrow2Lstart"
       style="overflow:visible"
       inkscape:isstock="true">
      <path
         id="path16363"
         style="fill-rule:evenodd;stroke-width:0.625;stroke-linejoin:round;stroke:#000000;stroke-opacity:1;fill:#000000;fill-opacity:1"
         d="M 8.7185878,4.0337352 L -2.2072895,0.016013256 L 8.7185884,-4.0017078 C 6.9730900,-1.6296469 6.9831476,1.6157441 8.7185878,4.0337352 z "
         transform="scale(1.1) translate(1,0)" />
    </marker>
    <marker
       inkscape:stockid="TriangleOutL"
       orient="auto"
       refY="0"
       refX="0"
       id="TriangleOutL-0"
       style="overflow:visible"
       inkscape:isstock="true">
      <path
         inkscape:connector-curvature="0"
         id="path16487-6"
         d="m 5.77,0 -8.65,5 0,-10 8.65,5 z"
         style="fill:#000000;fill-opacity:1;fill-rule:evenodd;stroke:#000000;stroke-width:1pt;stroke-opacity:1"
         transform="scale(0.8,0.8)" />
    </marker>
  </defs>
  <sodipodi:namedview
     id="base"
     pagecolor="#ffffff"
     bordercolor="#666666"
     borderopacity="1.0"
     inkscape:pageopacity="0.0"
     inkscape:pageshadow="2"
     inkscape:zoom="1.2151359"
     inkscape:cx="327.74117"
     inkscape:cy="633.92713"
     inkscape:document-units="px"
     inkscape:current-layer="layer1"
     showgrid="true"
     inkscape:window-width="1855"
     inkscape:window-height="1056"
     inkscape:window-x="65"
     inkscape:window-y="24"
     inkscape:window-maximized="1">
    <inkscape:grid
       type="xygrid"
       id="grid18747" />
  </sodipodi:namedview>
  <metadata
     id="metadata18204">
    <rdf:RDF>
      <cc:Work
         rdf:about="">
        <dc:format>image/svg+xml</dc:format>
        <dc:type
           rdf:resource="http://purl.org/dc/dcmitype/StillImage" />
        <dc:title />
      </cc:Work>
    </rdf:RDF>
  </metadata>
  <g
     inkscape:label="Capa 1"
     inkscape:groupmode="layer"
     id="layer1">
    <rect
       y="187.17159"
       x="448.90829"
       height="114.59346"
       width="134.67879"
       id="rect47535-3-5"
       style="fill:#71ff60;fill-opacity:1;stroke:#000000;stroke-width:1;stroke-miterlimit:4;stroke-dasharray:none;stroke-dashoffset:0;stroke-opacity:1" />
    <g
       id="content"
       transform="matrix(1,0,0,-1,256.32282,942.40439)"
       xml:space="preserve"
       stroke-miterlimit="10.433"
       font-style="normal"
       font-variant="normal"
       font-weight="normal"
       font-stretch="normal"
       font-size-adjust="none"
       letter-spacing="normal"
       word-spacing="normal"
       ns0:text="\\Large{\n\\begin{tabular}{c}\n\\textbf{Clientes}\\\\\n\\textbf{A}\\\\\n\\end{tabular}}"
       ns0:preamble="/home/piter/.config/inkscape/extensions/preambulo.ini"
       style="font-style:normal;font-variant:normal;font-weight:normal;font-stretch:normal;letter-spacing:normal;word-spacing:normal;text-anchor:start;fill:none;fill-opacity:1;fill-rule:evenodd;stroke:#000000;stroke-linecap:butt;stroke-linejoin:miter;stroke-miterlimit:10.43299961;stroke-dasharray:none;stroke-dashoffset:0;stroke-opacity:1"><path
         style="fill:#000000;stroke-width:0"
         inkscape:connector-curvature="0"
         d="m 244.84,714.18 0,0.01 -0.01,0.02 0,0.01 0,0.01 0,0.02 0,0.01 0,0.01 0,0.02 0,0.01 0,0.01 0,0.01 0,0.01 0,0.02 0,0.02 0,0.02 0,0.02 -0.01,0.01 0,0.02 -0.01,0.01 0,0.01 -0.01,0.02 0,0.01 -0.01,0.01 -0.01,0 -0.01,0.01 -0.01,0.01 -0.01,0 -0.02,0.01 0,0 -0.01,0 -0.01,0.01 -0.01,0 -0.01,0 -0.01,0 0,0 -0.01,0 -0.01,0 -0.01,0 -0.01,0.01 -0.02,0 -0.01,0 -0.01,0 -0.01,0 -0.01,0 -0.02,0 -0.01,0 -0.02,0 -0.01,0 -1.08,-1.03 c -0.8,0.68 -1.76,1.03 -2.82,1.03 -3.43,0 -5.64,-2.08 -5.64,-5.09 0,-2.96 2.14,-5.1 5.65,-5.1 2.55,0 4.21,1.75 4.21,3.45 0,0.24 -0.09,0.25 -0.31,0.25 -0.14,0 -0.28,0 -0.3,-0.15 -0.13,-2.18 -1.98,-2.93 -3.27,-2.93 -0.93,0 -2.19,0.26 -3,1.16 -0.5,0.55 -0.96,1.34 -0.96,3.32 0,1.4 0.22,2.45 0.89,3.25 0.92,1.08 2.35,1.22 3.04,1.22 1.08,0 2.81,-0.6 3.25,-3.13 0.02,-0.13 0.15,-0.13 0.33,-0.13 0.33,0 0.33,0.03 0.33,0.38 z"
         id="path8597" /><path
         style="fill:#000000;stroke-width:0"
         inkscape:connector-curvature="0"
         d="m 248.86,714.49 -2.48,-0.11 0,-0.62 c 0.89,0 0.99,0 0.99,-0.56 l 0,-8.05 -0.99,0 0,-0.62 c 0.33,0.03 1.35,0.03 1.73,0.03 0.39,0 1.41,0 1.74,-0.03 l 0,0.62 -0.99,0 z"
         id="path8599" /><path
         style="fill:#000000;stroke-width:0"
         inkscape:connector-curvature="0"
         d="m 253.43,713.47 0,0.06 -0.01,0.05 0,0.05 -0.01,0.06 -0.01,0.05 -0.02,0.05 -0.01,0.05 -0.02,0.04 -0.02,0.05 -0.03,0.04 -0.02,0.05 -0.03,0.04 -0.03,0.04 -0.03,0.04 -0.03,0.03 -0.04,0.04 -0.03,0.03 -0.04,0.04 -0.04,0.03 -0.04,0.02 -0.04,0.03 -0.05,0.02 -0.04,0.03 -0.05,0.02 -0.04,0.02 -0.05,0.01 -0.05,0.01 -0.05,0.02 -0.05,0 -0.05,0.01 -0.05,0 -0.05,0.01 c -0.59,0 -1.04,-0.49 -1.04,-1.04 0,-0.54 0.45,-1.03 1.04,-1.03 0.56,0 1.03,0.44 1.03,1.03 z"
         id="path8601" /><path
         style="fill:#000000;stroke-width:0"
         inkscape:connector-curvature="0"
         d="m 250.9,710.88 0,-0.62 c 0.85,0 0.95,0 0.95,-0.56 l 0,-4.55 -0.99,0 0,-0.62 c 0.33,0.03 1.32,0.03 1.71,0.03 0.4,0 1.32,0 1.66,-0.03 l 0,0.62 -0.89,0 0,5.84 z"
         id="path8603" /><path
         style="fill:#000000;stroke-width:0"
         inkscape:connector-curvature="0"
         d="m 261.2,707.71 0.03,0 0.03,0 0.03,0 0.02,0 0.03,0 0.02,0 0.02,0 0.02,0 0.02,0 0.02,0.01 0.02,0 0.02,0 0.01,0.01 0.02,0.01 0.01,0 0.01,0.01 0.01,0.01 0.01,0.01 0.01,0.01 0.01,0.01 0.01,0.02 0.01,0.01 0,0.01 0,0.01 0,0.01 0.01,0.01 0,0.01 0,0.01 0,0.01 0.01,0.01 0,0.01 0,0.01 0,0.01 0,0.02 0,0.01 0,0.01 0,0.02 0,0.01 0.01,0.02 0,0.01 0,0.02 0,0.01 c 0,0.43 -0.1,1.51 -0.76,2.18 -0.61,0.61 -1.41,0.79 -2.24,0.79 -2.24,0 -3.46,-1.46 -3.46,-3.27 0,-2.01 1.48,-3.31 3.64,-3.31 2.17,0 2.82,1.52 2.82,1.76 0,0.22 -0.22,0.22 -0.31,0.22 -0.23,0 -0.24,-0.04 -0.33,-0.23 -0.37,-0.93 -1.32,-1.23 -2,-1.23 -2.08,0 -2.1,1.93 -2.1,2.74 l 0,0.41 c 0.03,0.59 0.04,1.15 0.35,1.67 0.27,0.45 0.77,0.77 1.39,0.77 1.53,0 1.66,-1.72 1.68,-2.44 l -3.42,0 0,-0.41 z"
         id="path8605" /><path
         style="fill:#000000;stroke-width:0"
         inkscape:connector-curvature="0"
         d="m 269.7,708.92 0,0.13 -0.01,0.12 -0.01,0.12 -0.01,0.12 -0.02,0.11 -0.02,0.1 -0.02,0.1 -0.03,0.1 -0.03,0.1 -0.04,0.09 -0.04,0.08 -0.04,0.09 -0.05,0.08 -0.05,0.07 -0.06,0.07 -0.06,0.07 -0.07,0.06 -0.07,0.06 -0.08,0.06 -0.08,0.05 -0.09,0.04 -0.09,0.05 -0.09,0.04 -0.1,0.03 -0.11,0.03 -0.11,0.03 -0.12,0.02 -0.12,0.02 -0.13,0.01 -0.13,0.01 -0.14,0.01 -0.15,0 c -1.03,0 -1.92,-0.5 -2.41,-1.58 l -0.01,0 0,1.58 -2.43,-0.11 0,-0.62 c 0.89,0 0.99,0 0.99,-0.56 l 0,-4.55 -0.99,0 0,-0.62 c 0.33,0.03 1.37,0.03 1.77,0.03 0.4,0 1.45,0 1.78,-0.03 l 0,0.62 -0.99,0 0,3.06 c 0,1.55 1.14,2.31 2.06,2.31 0.53,0 0.83,-0.35 0.83,-1.44 l 0,-3.93 -0.99,0 0,-0.62 c 0.33,0.03 1.37,0.03 1.77,0.03 0.4,0 1.45,0 1.78,-0.03 l 0,0.62 -0.99,0 z"
         id="path8607" /><path
         style="fill:#000000;stroke-width:0"
         inkscape:connector-curvature="0"
         d="m 273.63,710.29 2.06,0 0,0.62 -2.06,0 0,2.74 -0.61,0 c -0.01,-1.43 -0.7,-2.85 -2.12,-2.89 l 0,-0.47 1.16,0 0,-3.99 c 0,-1.52 1.18,-1.85 2.21,-1.85 1.06,0 1.69,0.8 1.69,1.86 l 0,0.76 -0.6,0 0,-0.74 c 0,-0.95 -0.43,-1.36 -0.87,-1.36 -0.86,0 -0.86,0.96 -0.86,1.29 z"
         id="path8609" /><path
         style="fill:#000000;stroke-width:0"
         inkscape:connector-curvature="0"
         d="m 283.36,707.71 0.03,0 0.03,0 0.03,0 0.02,0 0.03,0 0.02,0 0.03,0 0.02,0 0.02,0 0.01,0.01 0.02,0 0.02,0 0.01,0.01 0.02,0.01 0.01,0 0.01,0.01 0.02,0.01 0.01,0.01 0,0.01 0.01,0.01 0.01,0.02 0.01,0.01 0,0.01 0,0.01 0.01,0.01 0,0.01 0,0.01 0,0.01 0.01,0.01 0,0.01 0,0.01 0,0.01 0,0.01 0,0.02 0,0.01 0.01,0.01 0,0.02 0,0.01 0,0.02 0,0.01 0,0.02 0,0.01 c 0,0.43 -0.1,1.51 -0.76,2.18 -0.6,0.61 -1.41,0.79 -2.24,0.79 -2.24,0 -3.46,-1.46 -3.46,-3.27 0,-2.01 1.48,-3.31 3.65,-3.31 2.16,0 2.81,1.52 2.81,1.76 0,0.22 -0.22,0.22 -0.3,0.22 -0.23,0 -0.25,-0.04 -0.33,-0.23 -0.38,-0.93 -1.32,-1.23 -2.01,-1.23 -2.08,0 -2.1,1.93 -2.1,2.74 l 0,0.41 c 0.03,0.59 0.05,1.15 0.35,1.67 0.27,0.45 0.77,0.77 1.39,0.77 1.54,0 1.66,-1.72 1.68,-2.44 l -3.42,0 0,-0.41 z"
         id="path8611" /><path
         style="fill:#000000;stroke-width:0"
         inkscape:connector-curvature="0"
         d="m 289.65,710.66 0,0.03 0,0.02 0,0.02 0,0.03 0,0.02 0,0.02 0,0.02 0,0.01 0,0.02 -0.01,0.02 0,0.01 0,0.02 0,0.01 -0.01,0.02 0,0.01 -0.01,0.01 0,0.01 -0.01,0.01 0,0.01 -0.01,0.01 -0.01,0.01 -0.01,0 -0.01,0.01 -0.01,0 -0.01,0.01 -0.01,0 -0.02,0.01 -0.01,0 -0.01,0 -0.01,0 -0.01,0 -0.01,0 -0.01,0 0,0 -0.01,0 -0.01,0 c -0.09,0 -0.12,0 -0.33,-0.12 -0.06,-0.05 -0.22,-0.15 -0.29,-0.19 -0.4,0.23 -0.93,0.31 -1.45,0.31 -0.43,0 -2.58,0 -2.58,-1.86 0,-1.51 1.78,-1.82 2.22,-1.89 0.39,-0.08 0.86,-0.16 0.92,-0.16 0.57,-0.13 1.15,-0.49 1.15,-1.09 0,-1.11 -1.31,-1.11 -1.61,-1.11 -0.73,0 -1.64,0.23 -2.04,1.62 -0.08,0.29 -0.1,0.3 -0.34,0.3 -0.3,0 -0.3,-0.04 -0.3,-0.37 l 0,-1.65 c 0,-0.27 0,-0.37 0.21,-0.37 0.1,0 0.13,0 0.42,0.23 l 0.37,0.27 c 0.65,-0.5 1.42,-0.5 1.68,-0.5 0.79,0 2.58,0.17 2.58,2.08 0,0.69 -0.37,1.16 -0.66,1.42 -0.59,0.49 -1.07,0.57 -1.85,0.72 -0.92,0.16 -1.78,0.31 -1.78,1 0,0.93 1.28,0.93 1.58,0.93 1.59,0 1.68,-1 1.71,-1.36 0.01,-0.19 0.13,-0.19 0.3,-0.19 0.3,0 0.3,0.05 0.3,0.38 z"
         id="path8613" /><path
         style="fill:#000000;stroke-width:0"
         inkscape:connector-curvature="0"
         d="m 262.82,696.32 -0.01,0.02 -0.01,0.02 0,0.02 -0.01,0.02 -0.01,0.02 -0.01,0.02 -0.01,0.02 0,0.02 -0.01,0.01 -0.01,0.02 -0.01,0.01 -0.01,0.01 -0.01,0.01 -0.01,0.02 -0.01,0.01 -0.01,0.01 -0.01,0.01 -0.02,0 -0.01,0.01 -0.02,0.01 -0.01,0 -0.02,0.01 -0.02,0.01 -0.02,0 -0.02,0 -0.02,0.01 -0.02,0 -0.03,0 -0.02,0 -0.01,0 -0.02,0 -0.01,0 -0.02,0 -0.01,0 -0.02,0.01 c -0.36,0 -0.39,-0.08 -0.49,-0.33 l -3.56,-8.76 c -0.1,-0.23 -0.1,-0.26 -0.5,-0.3 -0.36,-0.04 -0.41,-0.04 -0.73,-0.04 l -0.26,0 0,-0.62 c 0.37,0.03 1.24,0.03 1.65,0.03 0.39,0 1.44,0 1.77,-0.03 l 0,0.62 c -0.32,0 -0.86,0 -1.27,0.16 0.05,0.13 0.05,0.15 0.08,0.21 l 0.76,1.87 0.24,0.61 1.68,4.14 1.66,-4.14 -3.34,0 -0.24,-0.61 3.84,0 0.91,-2.24 -1.35,0 0,-0.62 c 0.45,0.03 1.85,0.03 2.39,0.03 0.46,0 1.92,0 2.28,-0.03 l 0,0.62 -1.36,0 z"
         id="path8615" /></g>    <g
       id="g17705"
       transform="matrix(1,0,0,-1,172.59705,942.76725)"
       xml:space="preserve"
       stroke-miterlimit="10.433"
       font-style="normal"
       font-variant="normal"
       font-weight="normal"
       font-stretch="normal"
       font-size-adjust="none"
       letter-spacing="normal"
       word-spacing="normal"
       ns0:text="\\Large{\\texttt{query\\_o}}"
       ns0:preamble="/home/piter/.config/inkscape/extensions/preambulo.ini"
       style="font-style:normal;font-variant:normal;font-weight:normal;font-stretch:normal;letter-spacing:normal;word-spacing:normal;text-anchor:start;fill:none;fill-opacity:1;fill-rule:evenodd;stroke:#000000;stroke-linecap:butt;stroke-linejoin:miter;stroke-miterlimit:10.43299961;stroke-dasharray:none;stroke-dashoffset:0;stroke-opacity:1"><path
         style="fill:#000000;stroke-width:0"
         inkscape:connector-curvature="0"
         d="m 229.72,712.8 0,0.05 0,0.05 -0.01,0.05 0,0.03 0,0.02 0,0.03 -0.01,0.02 0,0.03 -0.01,0.02 0,0.03 -0.01,0.02 -0.01,0.02 -0.01,0.02 -0.01,0.03 -0.02,0.02 -0.01,0.02 -0.02,0.01 -0.01,0.02 -0.02,0.02 -0.01,0.01 -0.01,0 -0.02,0.01 -0.01,0.01 -0.01,0 -0.01,0.01 -0.02,0 -0.01,0.01 -0.01,0 -0.02,0.01 -0.02,0 -0.01,0.01 -0.02,0 -0.02,0 -0.01,0.01 -0.02,0 -0.02,0 -0.02,0 -0.02,0 -0.02,0 c -0.48,0 -0.48,-0.31 -0.48,-0.59 l 0,-0.27 c -0.27,0.29 -0.8,0.86 -1.79,0.86 l 0.09,-0.83 c 1.09,0 1.7,-1.16 1.7,-2.05 l 0,-0.65 c 0,-0.8 -0.7,-1.99 -1.85,-1.99 -1.09,0 -1.98,1.05 -1.98,2.34 0,1.34 1.01,2.35 2.13,2.35 l -0.09,0.83 c -1.56,0 -2.97,-1.35 -2.97,-3.18 0,-1.75 1.26,-3.17 2.83,-3.17 1.04,0 1.63,0.61 1.93,0.93 l 0,-3.2 -0.64,0 c -0.2,0 -0.59,0 -0.59,-0.42 0,-0.41 0.39,-0.41 0.59,-0.41 l 2.22,0 c 0.2,0 0.59,0 0.59,0.41 0,0.42 -0.39,0.42 -0.59,0.42 l -0.64,0 z"
         id="path17707" /><path
         style="fill:#000000;stroke-width:0"
         inkscape:connector-curvature="0"
         d="m 236.81,712.72 0,0.04 0,0.04 0,0.04 -0.01,0.03 0,0.03 0,0.04 -0.01,0.03 0,0.03 -0.01,0.02 -0.01,0.03 0,0.03 -0.01,0.02 -0.01,0.02 -0.02,0.02 -0.01,0.02 -0.01,0.02 -0.02,0.02 -0.02,0.01 -0.02,0.01 -0.02,0.02 -0.02,0.01 -0.03,0.01 -0.02,0.01 -0.03,0.01 -0.03,0 -0.03,0.01 -0.03,0 -0.04,0.01 -0.04,0 -0.04,0 -0.04,0.01 -0.02,0 -0.02,0 -0.95,0 c -0.2,0 -0.58,0 -0.58,-0.42 0,-0.42 0.38,-0.42 0.58,-0.42 l 0.59,0 0,-3.11 c 0,-1.18 -0.98,-1.49 -1.62,-1.49 -1.14,0 -1.14,0.52 -1.14,0.96 l 0,3.89 c 0,0.44 -0.08,0.59 -0.57,0.59 l -0.95,0 c -0.2,0 -0.57,0 -0.57,-0.42 0,-0.42 0.37,-0.42 0.57,-0.42 l 0.59,0 0,-3.71 c 0,-1.32 0.86,-1.72 1.96,-1.72 0.88,0 1.42,0.36 1.71,0.6 0,-0.52 0.35,-0.52 0.59,-0.52 l 0.95,0 c 0.2,0 0.57,0 0.57,0.42 0,0.42 -0.37,0.42 -0.57,0.42 l -0.59,0 z"
         id="path17709" /><path
         style="fill:#000000;stroke-width:0"
         inkscape:connector-curvature="0"
         d="m 244.17,709.88 0.05,0 0.06,0 0.03,0 0.02,0 0.03,0 0.02,0.01 0.03,0 0.02,0 0.03,0.01 0.02,0.01 0.02,0 0.03,0.01 0.02,0.01 0.02,0.01 0.02,0.02 0.02,0.01 0.01,0.02 0.02,0.02 0.02,0.02 0,0.01 0.01,0.01 0.01,0.01 0,0.01 0.01,0.02 0,0.01 0.01,0.02 0.01,0.01 0,0.02 0,0.01 0.01,0.02 0,0.02 0.01,0.01 0,0.02 0,0.02 0.01,0.02 0,0.02 0,0.02 0,0.03 0,0.02 0,0.02 0,0.03 c 0,1.68 -0.95,3.02 -2.74,3.02 -1.66,0 -3,-1.43 -3,-3.18 0,-1.81 1.45,-3.21 3.22,-3.21 1.85,0 2.52,1.27 2.52,1.65 0,0.08 -0.03,0.4 -0.47,0.4 -0.27,0 -0.36,-0.1 -0.45,-0.32 -0.36,-0.83 -1.29,-0.9 -1.56,-0.9 -1.19,0 -2.14,0.9 -2.3,2.01 l 0.02,0.79 c 0.18,1.22 1.12,1.93 2.02,1.93 1.44,0 1.74,-1.22 1.79,-1.93 l -3.81,0 -0.02,-0.79 z"
         id="path17711" /><path
         style="fill:#000000;stroke-width:0"
         inkscape:connector-curvature="0"
         d="m 248.68,709.83 0,0.16 0.01,0.16 0.02,0.15 0.02,0.14 0.03,0.14 0.04,0.14 0.04,0.13 0.05,0.13 0.05,0.12 0.06,0.12 0.06,0.12 0.06,0.11 0.08,0.1 0.07,0.1 0.08,0.1 0.08,0.09 0.09,0.08 0.09,0.08 0.09,0.08 0.1,0.07 0.1,0.06 0.1,0.06 0.1,0.06 0.11,0.04 0.11,0.05 0.11,0.03 0.11,0.04 0.11,0.02 0.11,0.02 0.11,0.02 0.12,0.01 0.11,0 c 0.08,0 0.16,0 0.23,-0.02 0.05,-0.51 0.45,-0.55 0.55,-0.55 0.33,0 0.56,0.24 0.56,0.55 0,0.62 -0.6,0.85 -1.32,0.85 -0.96,0 -1.78,-0.43 -2.44,-1.23 l 0,0.56 c 0,0.44 -0.09,0.59 -0.58,0.59 l -1.44,0 c -0.2,0 -0.58,0 -0.58,-0.42 0,-0.42 0.38,-0.42 0.58,-0.42 l 1.09,0 0,-4.51 -1.09,0 c -0.2,0 -0.58,0 -0.58,-0.42 0,-0.42 0.38,-0.42 0.58,-0.42 l 3.52,0 c 0.21,0 0.58,0 0.58,0.42 0,0.42 -0.37,0.42 -0.58,0.42 l -1.5,0 z"
         id="path17713" /><path
         style="fill:#000000;stroke-width:0"
         inkscape:connector-curvature="0"
         d="m 259.04,712.47 0.38,0 c 0.2,0 0.58,0 0.58,0.42 0,0.42 -0.38,0.42 -0.58,0.42 l -1.58,0 c -0.2,0 -0.59,0 -0.59,-0.42 0,-0.42 0.39,-0.42 0.59,-0.42 l 0.36,0 c -0.4,-1.17 -1.22,-3.57 -1.42,-4.39 l -0.02,0 c -0.07,0.32 -0.13,0.48 -0.27,0.87 l -1.34,3.52 0.34,0 c 0.2,0 0.58,0 0.58,0.42 0,0.42 -0.38,0.42 -0.58,0.42 l -1.58,0 c -0.2,0 -0.59,0 -0.59,-0.42 0,-0.42 0.39,-0.42 0.59,-0.42 l 0.38,0 2.01,-5.16 c 0.06,-0.14 0.06,-0.17 0.06,-0.19 0,-0.03 -0.37,-1.27 -0.59,-1.68 -0.08,-0.14 -0.44,-0.81 -1.13,-0.74 0.01,0.04 0.06,0.13 0.06,0.28 0,0.34 -0.23,0.56 -0.56,0.56 -0.36,0 -0.58,-0.24 -0.58,-0.57 0,-0.55 0.46,-1.12 1.18,-1.12 1.39,0 2.01,1.85 2.05,1.97 z"
         id="path17715" /><line
         style="stroke-width:0.398"
         x1="261.23001"
         y1="707.32001"
         x2="265.66"
         y2="707.32001"
         id="line17717" /><path
         style="fill:#000000;stroke-width:0"
         inkscape:connector-curvature="0"
         d="m 272.2,710.22 0,0.17 -0.02,0.16 -0.01,0.16 -0.03,0.16 -0.03,0.16 -0.04,0.15 -0.05,0.15 -0.05,0.15 -0.06,0.14 -0.06,0.14 -0.07,0.14 -0.08,0.13 -0.08,0.12 -0.08,0.12 -0.09,0.12 -0.1,0.11 -0.1,0.11 -0.1,0.1 -0.11,0.09 -0.11,0.09 -0.12,0.08 -0.12,0.08 -0.12,0.07 -0.13,0.07 -0.13,0.05 -0.13,0.05 -0.13,0.04 -0.14,0.04 -0.14,0.03 -0.14,0.02 -0.14,0.01 -0.15,0 0,-0.83 c 1.01,0 1.93,-0.94 1.93,-2.28 0,-1.37 -0.89,-2.45 -1.93,-2.45 l 0,0 c -1.03,0 -1.92,1.09 -1.92,2.45 0,1.34 0.92,2.28 1.92,2.28 l 0,0.83 c -1.54,0 -2.85,-1.41 -2.85,-3.21 0,-1.81 1.32,-3.18 2.85,-3.18 1.54,0 2.86,1.37 2.86,3.18 z"
         id="path17719" /></g>    <path
       style="fill:none;fill-rule:evenodd;stroke:#000000;stroke-width:1px;stroke-linecap:butt;stroke-linejoin:miter;stroke-opacity:1;marker-end:url(#TriangleOutL)"
       d="m 450,242.3622 -50,0"
       id="path21684"
       inkscape:connector-curvature="0" />
  </g>
</svg>
