<?xml version="1.0" standalone="yes"?>

<svg version="1.1" viewBox="0.0 0.0 720.0 540.0" fill="none" stroke="none" stroke-linecap="square" stroke-miterlimit="10" xmlns="http://www.w3.org/2000/svg" xmlns:xlink="http://www.w3.org/1999/xlink"><clipPath id="p.0"><path d="m0 0l720.0 0l0 540.0l-720.0 0l0 -540.0z" clip-rule="nonzero"></path></clipPath><g clip-path="url(#p.0)"><path fill="#000000" fill-opacity="0.0" d="m0 0l720.0 0l0 540.0l-720.0 0z" fill-rule="evenodd"></path><path fill="#000000" fill-opacity="0.0" d="m196.90027 111.002625l358.99213 0l0 257.73227l-358.99213 0z" fill-rule="evenodd"></path><path stroke="#000000" stroke-width="2.0" stroke-linejoin="round" stroke-linecap="butt" d="m196.90027 111.002625l358.99213 0l0 257.73227l-358.99213 0z" fill-rule="evenodd"></path><path fill="#000000" d="m477.43744 355.93616q-1.390625 0 -2.53125 -0.453125q-1.140625 -0.453125 -1.953125 -1.328125q-0.8125 -0.875 -1.265625 -2.15625q-0.4375 -1.28125 -0.4375 -2.9375q0 -1.65625 0.5 -2.9375q0.5 -1.28125 1.34375 -2.15625q0.859375 -0.875 2.0 -1.328125q1.140625 -0.453125 2.4375 -0.453125q0.8125 0 1.46875 0.109375q0.65625 0.109375 1.140625 0.265625q0.484375 0.15625 0.78125 0.3125q0.3125 0.140625 0.421875 0.21875l-0.53125 1.53125q-0.171875 -0.125 -0.5 -0.25q-0.3125 -0.140625 -0.71875 -0.265625q-0.40625 -0.140625 -0.890625 -0.21875q-0.484375 -0.09375 -0.984375 -0.09375q-1.046875 0 -1.890625 0.359375q-0.828125 0.359375 -1.421875 1.046875q-0.578125 0.6875 -0.890625 1.671875q-0.3125 0.96875 -0.3125 2.1875q0 1.171875 0.265625 2.140625q0.28125 0.96875 0.828125 1.671875q0.5625 0.6875 1.375 1.078125q0.828125 0.375 1.9375 0.375q1.265625 0 2.09375 -0.265625q0.84375 -0.265625 1.265625 -0.484375l0.484375 1.53125q-0.140625 0.09375 -0.484375 0.234375q-0.34375 0.140625 -0.859375 0.28125q-0.5 0.125 -1.1875 0.21875q-0.6875 0.09375 -1.484375 0.09375zm8.754395 -0.09375q-1.640625 -0.03125 -2.328125 -0.6875q-0.671875 -0.671875 -0.671875 -2.078125l0 -11.859375l1.765625 -0.3125l0 11.875q0 0.4375 0.078125 0.734375q0.078125 0.28125 0.25 0.453125q0.171875 0.171875 0.453125 0.265625q0.28125 0.078125 0.703125 0.125l-0.25 1.484375zm3.8900146 -0.1875l-1.765625 0l0 -9.875l1.765625 0l0 9.875zm-0.890625 -11.671875q-0.46875 0 -0.8125 -0.3125q-0.328125 -0.3125 -0.328125 -0.84375q0 -0.53125 0.328125 -0.84375q0.34375 -0.3125 0.8125 -0.3125q0.484375 0 0.8125 0.3125q0.328125 0.3125 0.328125 0.84375q0 0.53125 -0.328125 0.84375q-0.328125 0.3125 -0.8125 0.3125zm3.2981567 6.75q0 -1.3125 0.375 -2.28125q0.390625 -0.984375 1.015625 -1.625q0.625 -0.65625 1.4375 -0.96875q0.8125 -0.328125 1.671875 -0.328125q2.0 0 3.0625 1.25q1.0625 1.234375 1.0625 3.78125q0 0.109375 0 0.296875q0 0.1875 -0.015625 0.328125l-6.765625 0q0.109375 1.546875 0.890625 2.34375q0.78125 0.796875 2.4375 0.796875q0.921875 0 1.5625 -0.15625q0.640625 -0.171875 0.953125 -0.328125l0.25 1.484375q-0.3125 0.171875 -1.125 0.359375q-0.8125 0.203125 -1.828125 0.203125q-1.296875 0 -2.234375 -0.390625q-0.9375 -0.390625 -1.546875 -1.078125q-0.609375 -0.6875 -0.90625 -1.625q-0.296875 -0.9375 -0.296875 -2.0625zm6.78125 -0.96875q0.015625 -1.203125 -0.609375 -1.96875q-0.609375 -0.765625 -1.6875 -0.765625q-0.609375 0 -1.078125 0.234375q-0.46875 0.234375 -0.796875 0.625q-0.3125 0.375 -0.5 0.875q-0.171875 0.484375 -0.234375 1.0l4.90625 0zm4.194458 -3.703125q0.609375 -0.15625 1.609375 -0.328125q1.015625 -0.171875 2.328125 -0.171875q1.171875 0 1.953125 0.34375q0.78125 0.328125 1.25 0.921875q0.46875 0.59375 0.65625 1.4375q0.1875 0.828125 0.1875 1.84375l0 5.546875l-1.765625 0l0 -5.171875q0 -0.90625 -0.125 -1.546875q-0.125 -0.65625 -0.40625 -1.046875q-0.28125 -0.40625 -0.765625 -0.578125q-0.46875 -0.1875 -1.171875 -0.1875q-0.28125 0 -0.59375 0.015625q-0.296875 0.015625 -0.578125 0.046875q-0.28125 0.03125 -0.5 0.078125q-0.21875 0.03125 -0.3125 0.046875l0 8.34375l-1.765625 0l0 -9.59375zm12.364929 -0.28125l3.75 0l0 1.484375l-3.75 0l0 4.546875q0 0.75 0.109375 1.234375q0.125 0.484375 0.34375 0.765625q0.234375 0.265625 0.578125 0.390625q0.34375 0.109375 0.796875 0.109375q0.796875 0 1.28125 -0.171875q0.484375 -0.1875 0.671875 -0.265625l0.34375 1.453125q-0.265625 0.140625 -0.9375 0.328125q-0.65625 0.203125 -1.515625 0.203125q-1.0 0 -1.65625 -0.25q-0.65625 -0.25 -1.0625 -0.765625q-0.390625 -0.515625 -0.5625 -1.265625q-0.15625 -0.75 -0.15625 -1.734375l0 -8.828125l1.765625 -0.296875l0 3.0625zm5.296692 4.953125q0 -1.3125 0.375 -2.28125q0.390625 -0.984375 1.015625 -1.625q0.625 -0.65625 1.4375 -0.96875q0.8125 -0.328125 1.671875 -0.328125q2.0 0 3.0625 1.25q1.0625 1.234375 1.0625 3.78125q0 0.109375 0 0.296875q0 0.1875 -0.015625 0.328125l-6.765625 0q0.109375 1.546875 0.890625 2.34375q0.78125 0.796875 2.4375 0.796875q0.921875 0 1.5625 -0.15625q0.640625 -0.171875 0.953125 -0.328125l0.25 1.484375q-0.3125 0.171875 -1.125 0.359375q-0.8125 0.203125 -1.828125 0.203125q-1.296875 0 -2.234375 -0.390625q-0.9375 -0.390625 -1.546875 -1.078125q-0.609375 -0.6875 -0.90625 -1.625q-0.296875 -0.9375 -0.296875 -2.0625zm6.78125 -0.96875q0.015625 -1.203125 -0.609375 -1.96875q-0.609375 -0.765625 -1.6875 -0.765625q-0.609375 0 -1.078125 0.234375q-0.46875 0.234375 -0.796875 0.625q-0.3125 0.375 -0.5 0.875q-0.171875 0.484375 -0.234375 1.0l4.90625 0zm12.175964 6.0q-0.40625 0 -0.875 -0.015625q-0.453125 -0.015625 -0.921875 -0.0625q-0.46875 -0.03125 -0.921875 -0.078125q-0.453125 -0.0625 -0.828125 -0.15625l0 -12.78125q0.375 -0.09375 0.828125 -0.140625q0.453125 -0.0625 0.921875 -0.09375q0.46875 -0.046875 0.921875 -0.0625q0.453125 -0.015625 0.859375 -0.015625q1.140625 0 2.125 0.171875q1.0 0.171875 1.734375 0.578125q0.734375 0.40625 1.15625 1.078125q0.421875 0.65625 0.421875 1.625q0 1.078125 -0.515625 1.78125q-0.515625 0.6875 -1.375 1.03125q1.15625 0.34375 1.84375 1.09375q0.6875 0.734375 0.6875 2.078125q0 1.984375 -1.453125 2.984375q-1.453125 0.984375 -4.609375 0.984375zm-1.734375 -6.25l0 4.640625q0.21875 0.015625 0.5 0.03125q0.25 0.03125 0.578125 0.046875q0.328125 0 0.765625 0q0.828125 0 1.546875 -0.109375q0.734375 -0.109375 1.28125 -0.375q0.5625 -0.265625 0.890625 -0.734375q0.328125 -0.46875 0.328125 -1.203125q0 -0.640625 -0.25 -1.078125q-0.234375 -0.453125 -0.703125 -0.71875q-0.46875 -0.265625 -1.125 -0.375q-0.640625 -0.125 -1.4375 -0.125l-2.375 0zm0 -1.484375l1.9375 0q0.6875 0 1.296875 -0.09375q0.609375 -0.09375 1.046875 -0.328125q0.453125 -0.25 0.703125 -0.640625q0.265625 -0.40625 0.265625 -1.015625q0 -0.578125 -0.265625 -0.96875q-0.265625 -0.390625 -0.734375 -0.625q-0.46875 -0.234375 -1.09375 -0.34375q-0.625 -0.125 -1.328125 -0.125q-0.703125 0 -1.109375 0.03125q-0.390625 0.015625 -0.71875 0.046875l0 4.0625z" fill-rule="nonzero"></path><path fill="#cfe2f3" d="m464.28348 241.4567l0 0c0 -21.239044 18.134216 -38.456696 40.503937 -38.456696l0 0c10.74231 0 21.044617 4.0516815 28.640625 11.263702c7.5959473 7.212036 11.863281 16.993637 11.863281 27.192993l0 0c0 21.239044 -18.134216 38.456696 -40.503906 38.456696l0 0c-22.36972 0 -40.503937 -17.217651 -40.503937 -38.456696z" fill-rule="evenodd"></path><path stroke="#000000" stroke-width="1.0" stroke-linejoin="round" stroke-linecap="butt" d="m464.28348 241.4567l0 0c0 -21.239044 18.134216 -38.456696 40.503937 -38.456696l0 0c10.74231 0 21.044617 4.0516815 28.640625 11.263702c7.5959473 7.212036 11.863281 16.993637 11.863281 27.192993l0 0c0 21.239044 -18.134216 38.456696 -40.503906 38.456696l0 0c-22.36972 0 -40.503937 -17.217651 -40.503937 -38.456696z" fill-rule="evenodd"></path><path fill="#000000" d="m494.16348 237.24107l1.640625 0l0 9.015625l-1.640625 0l0 -9.015625zm5.0480347 5.59375q0 1.046875 0.484375 1.640625q0.5 0.578125 1.375 0.578125q0.375 0 0.640625 -0.03125q0.265625 -0.03125 0.4375 -0.0625l0 -3.90625q-0.203125 -0.140625 -0.546875 -0.265625q-0.34375 -0.125 -0.734375 -0.125q-0.859375 0 -1.265625 0.59375q-0.390625 0.578125 -0.390625 1.578125zm4.515625 3.21875q-0.46875 0.140625 -1.1875 0.25q-0.703125 0.125 -1.484375 0.125q-0.796875 0 -1.4375 -0.25q-0.640625 -0.25 -1.09375 -0.703125q-0.4375 -0.46875 -0.6875 -1.125q-0.234375 -0.65625 -0.234375 -1.46875q0 -0.8125 0.203125 -1.46875q0.203125 -0.65625 0.59375 -1.125q0.390625 -0.46875 0.9375 -0.71875q0.5625 -0.25 1.296875 -0.25q0.484375 0 0.859375 0.125q0.390625 0.109375 0.65625 0.25l0 -3.265625l1.578125 -0.265625l0 9.890625zm4.5529175 0.328125q-0.6875 -0.015625 -1.15625 -0.15625q-0.46875 -0.140625 -0.734375 -0.40625q-0.265625 -0.265625 -0.390625 -0.65625q-0.109375 -0.40625 -0.109375 -0.90625l0 -7.828125l1.578125 -0.265625l0 7.796875q0 0.28125 0.046875 0.484375q0.046875 0.1875 0.15625 0.328125q0.125 0.125 0.328125 0.203125q0.203125 0.078125 0.515625 0.109375l-0.234375 1.296875zm1.22406 -3.484375q0 -0.90625 0.265625 -1.578125q0.265625 -0.671875 0.703125 -1.125q0.453125 -0.453125 1.015625 -0.671875q0.5780945 -0.234375 1.1718445 -0.234375q1.40625 0 2.1875 0.875q0.796875 0.875 0.796875 2.59375q0 0.140625 -0.015625 0.296875q0 0.15625 -0.015625 0.296875l-4.4843445 0q0.0625 0.8125 0.578125 1.265625q0.5155945 0.4375 1.4843445 0.4375q0.578125 0 1.046875 -0.09375q0.484375 -0.109375 0.75 -0.21875l0.203125 1.28125q-0.125 0.0625 -0.359375 0.140625q-0.21875 0.0625 -0.515625 0.125q-0.296875 0.0625 -0.640625 0.09375q-0.328125 0.046875 -0.671875 0.046875q-0.90625 0 -1.5780945 -0.265625q-0.65625 -0.265625 -1.078125 -0.734375q-0.421875 -0.484375 -0.640625 -1.125q-0.203125 -0.640625 -0.203125 -1.40625zm4.5624695 -0.703125q0 -0.328125 -0.09375 -0.625q-0.09375 -0.296875 -0.265625 -0.5q-0.171875 -0.21875 -0.4375 -0.34375q-0.25 -0.125 -0.59375 -0.125q-0.359375 0 -0.640625 0.140625q-0.26559448 0.140625 -0.45309448 0.359375q-0.1875 0.21875 -0.296875 0.5q-0.109375 0.28125 -0.140625 0.59375l2.9218445 0z" fill-rule="nonzero"></path><path fill="#000000" fill-opacity="0.0" d="m369.15747 318.3622c67.811035 0 135.62207 -19.228363 135.62207 -38.456696" fill-rule="evenodd"></path><path stroke="#000000" stroke-width="2.0" stroke-linejoin="round" stroke-linecap="butt" stroke-dasharray="8.0,6.0" d="m381.15585 318.1642l0.6996155 -0.022644043c4.2216797 -0.14553833 8.426727 -0.3614807 12.598694 -0.64312744c8.343933 -0.5633545 16.55542 -1.3895569 24.502045 -2.441101c15.893188 -2.103119 30.726868 -5.107544 43.441437 -8.71286c25.429138 -7.2106323 42.381897 -16.824799 42.381897 -26.438965" fill-rule="evenodd"></path><path fill="#000000" stroke="#000000" stroke-width="2.0" stroke-linecap="butt" d="m381.10135 314.8612l-9.020447 3.4527588l9.129456 3.1532593z" fill-rule="evenodd"></path><path fill="#000000" fill-opacity="0.0" d="m377.00262 307.9895l90.99213 0l0 43.748016l-90.99213 0z" fill-rule="evenodd"></path><path fill="#000000" d="m398.11575 325.27386q0 -1.15625 0.34375 -2.03125q0.34375 -0.890625 0.9375 -1.484375q0.59375 -0.59375 1.375 -0.890625q0.796875 -0.296875 1.671875 -0.296875q0.875 0 1.640625 0.296875q0.78125 0.296875 1.359375 0.890625q0.59375 0.59375 0.9375 1.484375q0.34375 0.875 0.34375 2.03125q0 1.015625 -0.265625 1.8125q-0.25 0.796875 -0.71875 1.375q-0.453125 0.578125 -1.078125 0.9375q-0.609375 0.359375 -1.3125 0.484375q0.015625 0.296875 0.265625 0.515625q0.25 0.234375 0.640625 0.390625q0.390625 0.15625 0.859375 0.25q0.484375 0.109375 0.96875 0.171875l-0.296875 0.984375q-0.671875 -0.09375 -1.296875 -0.25q-0.609375 -0.140625 -1.109375 -0.390625q-0.5 -0.25 -0.84375 -0.640625q-0.328125 -0.375 -0.453125 -0.9375q-0.8125 -0.0625 -1.546875 -0.390625q-0.734375 -0.328125 -1.265625 -0.921875q-0.53125 -0.59375 -0.84375 -1.4375q-0.3125 -0.84375 -0.3125 -1.953125zm1.328125 0q0 0.828125 0.203125 1.5q0.21875 0.65625 0.59375 1.125q0.390625 0.46875 0.9375 0.734375q0.5625 0.25 1.25 0.25q0.6875 0 1.234375 -0.25q0.546875 -0.265625 0.921875 -0.734375q0.390625 -0.46875 0.59375 -1.125q0.203125 -0.671875 0.203125 -1.5q0 -0.8125 -0.203125 -1.484375q-0.203125 -0.671875 -0.59375 -1.140625q-0.375 -0.46875 -0.921875 -0.71875q-0.546875 -0.25 -1.234375 -0.25q-0.6875 0 -1.25 0.25q-0.546875 0.25 -0.9375 0.71875q-0.375 0.46875 -0.59375 1.140625q-0.203125 0.671875 -0.203125 1.484375zm8.244232 5.890625l6.5 0l0 1.03125l-6.5 0l0 -1.03125zm7.354309 -5.890625q0 -1.15625 0.34375 -2.03125q0.34375 -0.890625 0.9375 -1.484375q0.59375 -0.59375 1.375 -0.890625q0.796875 -0.296875 1.671875 -0.296875q0.875 0 1.640625 0.296875q0.78125 0.296875 1.359375 0.890625q0.59375 0.59375 0.9375 1.484375q0.34375 0.875 0.34375 2.03125q0 1.15625 -0.34375 2.046875q-0.34375 0.875 -0.9375 1.46875q-0.578125 0.59375 -1.359375 0.890625q-0.765625 0.296875 -1.640625 0.296875q-0.875 0 -1.671875 -0.296875q-0.78125 -0.296875 -1.375 -0.890625q-0.59375 -0.59375 -0.9375 -1.46875q-0.34375 -0.890625 -0.34375 -2.046875zm1.328125 0q0 0.828125 0.203125 1.5q0.21875 0.65625 0.59375 1.125q0.390625 0.46875 0.9375 0.734375q0.5625 0.25 1.25 0.25q0.6875 0 1.234375 -0.25q0.546875 -0.265625 0.921875 -0.734375q0.390625 -0.46875 0.59375 -1.125q0.203125 -0.671875 0.203125 -1.5q0 -0.8125 -0.203125 -1.484375q-0.203125 -0.671875 -0.59375 -1.140625q-0.375 -0.46875 -0.921875 -0.71875q-0.546875 -0.25 -1.234375 -0.25q-0.6875 0 -1.25 0.25q-0.546875 0.25 -0.9375 0.71875q-0.375 0.46875 -0.59375 1.140625q-0.203125 0.671875 -0.203125 1.484375zm14.712982 4.328125q-0.421875 0.09375 -1.109375 0.203125q-0.671875 0.125 -1.5625 0.125q-0.78125 0 -1.328125 -0.21875q-0.53125 -0.234375 -0.859375 -0.640625q-0.3125 -0.421875 -0.453125 -0.984375q-0.140625 -0.578125 -0.140625 -1.265625l0 -3.796875l1.203125 0l0 3.546875q0 1.234375 0.390625 1.765625q0.390625 0.53125 1.3125 0.53125q0.1875 0 0.390625 -0.015625q0.21875 -0.015625 0.390625 -0.03125q0.1875 -0.015625 0.328125 -0.03125q0.15625 -0.03125 0.234375 -0.046875l0 -5.71875l1.203125 0l0 6.578125zm3.4003296 -6.578125l2.5625 0l0 1.015625l-2.5625 0l0 3.125q0 0.5 0.078125 0.84375q0.078125 0.328125 0.234375 0.515625q0.15625 0.1875 0.390625 0.265625q0.234375 0.078125 0.546875 0.078125q0.546875 0 0.875 -0.125q0.328125 -0.125 0.46875 -0.171875l0.21875 1.0q-0.171875 0.09375 -0.625 0.21875q-0.453125 0.140625 -1.046875 0.140625q-0.6875 0 -1.140625 -0.171875q-0.4375 -0.171875 -0.71875 -0.515625q-0.265625 -0.359375 -0.375 -0.875q-0.109375 -0.515625 -0.109375 -1.1875l0 -6.03125l1.203125 -0.21875l0 2.09375zm6.9522705 3.75l5.953125 0l0 1.03125l-5.953125 0l0 -1.03125zm0 -2.765625l5.953125 0l0 1.015625l-5.953125 0l0 -1.015625zm10.9552 -0.78125q0.40625 -0.109375 1.09375 -0.21875q0.6875 -0.125 1.59375 -0.125q0.796875 0 1.328125 0.234375q0.546875 0.21875 0.859375 0.640625q0.3125 0.40625 0.4375 0.984375q0.140625 0.5625 0.140625 1.25l0 3.796875l-1.203125 0l0 -3.53125q0 -0.625 -0.09375 -1.0625q-0.078125 -0.453125 -0.28125 -0.71875q-0.1875 -0.28125 -0.515625 -0.40625q-0.328125 -0.125 -0.8125 -0.125q-0.1875 0 -0.40625 0.015625q-0.203125 0.015625 -0.390625 0.046875q-0.1875 0.015625 -0.34375 0.046875q-0.140625 0.015625 -0.203125 0.03125l0 5.703125l-1.203125 0l0 -6.5625z" fill-rule="nonzero"></path><path fill="#000000" d="m391.56342 339.227q0.40625 -0.109375 1.09375 -0.21875q0.6875 -0.125 1.59375 -0.125q0.796875 0 1.328125 0.234375q0.546875 0.21875 0.859375 0.640625q0.3125 0.40625 0.4375 0.984375q0.140625 0.5625 0.140625 1.25l0 3.796875l-1.203125 0l0 -3.53125q0 -0.625 -0.09375 -1.0625q-0.078125 -0.453125 -0.28125 -0.71875q-0.1875 -0.28125 -0.515625 -0.40625q-0.328125 -0.125 -0.8125 -0.125q-0.1875 0 -0.40625 0.015625q-0.203125 0.015625 -0.390625 0.046875q-0.1875 0.015625 -0.34375 0.046875q-0.140625 0.015625 -0.203125 0.03125l0 5.703125l-1.203125 0l0 -6.5625z" fill-rule="nonzero"></path><path fill="#000000" d="m406.48 345.7895l-1.765625 0q-1.546875 0 -2.296875 -0.953125q-0.6875 -0.875 -0.65625 -2.421875q0.015625 -1.53125 0.734375 -2.40625q0.796875 -0.953125 2.328125 -0.953125l1.65625 0l0 0.984375l-1.71875 0q-0.8125 0 -1.296875 0.53125q-0.4375 0.484375 -0.53125 1.296875l2.375 0l0 0.9375l-2.375 0q0.1875 2.0 1.84375 2.0l1.703125 0l0 0.984375z" fill-rule="nonzero"></path><path fill="#000000" d="m410.72968 341.4301q0.3125 0 0.53125 -0.109375q0.234375 -0.109375 0.375 -0.28125q0.15625 -0.171875 0.21875 -0.390625q0.078125 -0.234375 0.078125 -0.46875l0 -2.34375q0 -0.53125 0.109375 -0.953125q0.125 -0.421875 0.40625 -0.6875q0.28125 -0.28125 0.75 -0.421875q0.484375 -0.15625 1.1875 -0.15625l0.046875 0l0 0.9375q-0.734375 0 -1.0625 0.265625q-0.3125 0.265625 -0.3125 1.03125l0 2.0q0 0.859375 -0.234375 1.328125q-0.21875 0.46875 -0.640625 0.71875q0.421875 0.265625 0.640625 0.734375q0.234375 0.46875 0.234375 1.328125l0 2.0q0 0.75 0.3125 1.015625q0.328125 0.265625 1.0625 0.265625l0 0.953125l-0.046875 0q-0.703125 0 -1.1875 -0.140625q-0.46875 -0.140625 -0.75 -0.4375q-0.28125 -0.28125 -0.40625 -0.703125q-0.109375 -0.40625 -0.109375 -0.9375l0 -2.34375q0 -0.234375 -0.078125 -0.453125q-0.0625 -0.234375 -0.21875 -0.40625q-0.140625 -0.1875 -0.375 -0.296875q-0.21875 -0.109375 -0.53125 -0.109375l0 -0.9375zm5.1257324 -2.796875q0.75 -0.28125 1.453125 -0.71875q0.703125 -0.453125 1.28125 -1.140625l0.859375 0l0 9.015625l-1.203125 0l0 -7.328125q-0.15625 0.140625 -0.390625 0.296875q-0.21875 0.15625 -0.5 0.296875q-0.265625 0.140625 -0.5625 0.28125q-0.28125 0.125 -0.546875 0.21875l-0.390625 -0.921875zm8.626404 5.671875q0.015625 0.109375 0.015625 0.203125q0 0.09375 0 0.203125q0 0.8125 -0.25 1.609375q-0.234375 0.8125 -0.640625 1.53125l-0.9375 -0.296875q0.3125 -0.65625 0.421875 -1.34375q0.109375 -0.6875 0.109375 -1.28125q0 -0.171875 -0.015625 -0.328125q0 -0.15625 -0.015625 -0.296875l1.3125 0zm7.044342 -5.21875q0 0.46875 -0.203125 0.90625q-0.1875 0.421875 -0.5 0.84375q-0.3125 0.421875 -0.703125 0.84375q-0.375 0.40625 -0.765625 0.796875q-0.234375 0.21875 -0.53125 0.515625q-0.28125 0.296875 -0.546875 0.625q-0.25 0.328125 -0.4375 0.625q-0.171875 0.296875 -0.171875 0.515625l4.15625 0l0 1.03125l-5.46875 0q-0.015625 -0.078125 -0.015625 -0.15625q0 -0.078125 0 -0.140625q0 -0.609375 0.203125 -1.140625q0.203125 -0.53125 0.53125 -1.0q0.328125 -0.46875 0.71875 -0.875q0.40625 -0.421875 0.796875 -0.8125q0.328125 -0.3125 0.625 -0.609375q0.296875 -0.3125 0.515625 -0.609375q0.234375 -0.3125 0.359375 -0.640625q0.140625 -0.328125 0.140625 -0.6875q0 -0.390625 -0.125 -0.65625q-0.125 -0.28125 -0.328125 -0.453125q-0.203125 -0.1875 -0.484375 -0.265625q-0.28125 -0.09375 -0.59375 -0.09375q-0.375 0 -0.6875 0.109375q-0.3125 0.09375 -0.5625 0.234375q-0.25 0.140625 -0.421875 0.296875q-0.15625 0.140625 -0.25 0.21875l-0.59375 -0.859375q0.109375 -0.125 0.34375 -0.3125q0.234375 -0.1875 0.5625 -0.359375q0.328125 -0.171875 0.71875 -0.28125q0.40625 -0.125 0.875 -0.125q1.421875 0 2.125 0.65625q0.71875 0.65625 0.71875 1.859375zm3.7514038 5.21875q0.015625 0.109375 0.015625 0.203125q0 0.09375 0 0.203125q0 0.8125 -0.25 1.609375q-0.234375 0.8125 -0.640625 1.53125l-0.9375 -0.296875q0.3125 -0.65625 0.421875 -1.34375q0.109375 -0.6875 0.109375 -1.28125q0 -0.171875 -0.015625 -0.328125q0 -0.15625 -0.015625 -0.296875l1.3125 0zm3.9036865 0.59375q1.15625 0 1.65625 -0.453125q0.5 -0.453125 0.5 -1.21875q0 -0.5 -0.203125 -0.828125q-0.203125 -0.34375 -0.546875 -0.546875q-0.34375 -0.203125 -0.796875 -0.28125q-0.4375 -0.078125 -0.90625 -0.078125l-0.3125 0l0 -1.0l0.421875 0q0.328125 0 0.671875 -0.0625q0.34375 -0.0625 0.625 -0.234375q0.296875 -0.171875 0.46875 -0.453125q0.1875 -0.296875 0.1875 -0.734375q0 -0.375 -0.125 -0.625q-0.125 -0.265625 -0.34375 -0.4375q-0.21875 -0.171875 -0.5 -0.234375q-0.28125 -0.078125 -0.59375 -0.078125q-0.625 0 -1.0625 0.1875q-0.421875 0.1875 -0.71875 0.375l-0.46875 -0.921875q0.15625 -0.109375 0.390625 -0.21875q0.234375 -0.125 0.53125 -0.234375q0.3125 -0.109375 0.65625 -0.171875q0.34375 -0.078125 0.71875 -0.078125q0.71875 0 1.234375 0.1875q0.515625 0.171875 0.84375 0.484375q0.34375 0.3125 0.515625 0.75q0.171875 0.4375 0.171875 0.953125q0 0.6875 -0.40625 1.203125q-0.40625 0.5 -0.96875 0.75q0.34375 0.109375 0.671875 0.3125q0.328125 0.1875 0.5625 0.484375q0.25 0.296875 0.390625 0.6875q0.15625 0.390625 0.15625 0.875q0 0.578125 -0.203125 1.078125q-0.203125 0.5 -0.625 0.875q-0.421875 0.359375 -1.0625 0.5625q-0.640625 0.203125 -1.5 0.203125q-0.34375 0 -0.703125 -0.046875q-0.359375 -0.046875 -0.671875 -0.125q-0.3125 -0.078125 -0.546875 -0.15625q-0.234375 -0.078125 -0.328125 -0.125l0.234375 -1.0625q0.21875 0.109375 0.734375 0.28125q0.515625 0.15625 1.25 0.15625zm6.892029 -0.59375q0.015625 0.109375 0.015625 0.203125q0 0.09375 0 0.203125q0 0.8125 -0.25 1.609375q-0.234375 0.8125 -0.640625 1.53125l-0.9375 -0.296875q0.3125 -0.65625 0.421875 -1.34375q0.109375 -0.6875 0.109375 -1.28125q0 -0.171875 -0.015625 -0.328125q0 -0.15625 -0.015625 -0.296875l1.3125 0zm1.481842 -1.640625q0.25 -0.5625 0.671875 -1.328125q0.4375 -0.765625 0.96875 -1.5625q0.546875 -0.8125 1.15625 -1.59375q0.625 -0.78125 1.25 -1.40625l1.15625 0l0 5.734375l1.0625 0l0 0.984375l-1.0625 0l0 2.296875l-1.171875 0l0 -2.296875l-4.03125 0l0 -0.828125zm4.03125 -4.453125q-0.390625 0.421875 -0.796875 0.9375q-0.390625 0.5 -0.765625 1.0625q-0.375 0.5625 -0.703125 1.15625q-0.328125 0.578125 -0.59375 1.140625l2.859375 0l0 -4.296875zm6.782654 4.15625q-0.3125 0 -0.53125 0.109375q-0.21875 0.109375 -0.375 0.296875q-0.15625 0.171875 -0.234375 0.40625q-0.0625 0.21875 -0.0625 0.453125l0 2.34375q0 0.53125 -0.125 0.9375q-0.109375 0.421875 -0.390625 0.703125q-0.28125 0.296875 -0.765625 0.4375q-0.46875 0.140625 -1.171875 0.140625l-0.046875 0l0 -0.953125q0.734375 0 1.046875 -0.265625q0.328125 -0.265625 0.328125 -1.015625l0 -2.0q0 -0.859375 0.21875 -1.328125q0.234375 -0.46875 0.65625 -0.734375q-0.421875 -0.25 -0.65625 -0.71875q-0.21875 -0.46875 -0.21875 -1.328125l0 -2.0q0 -0.765625 -0.328125 -1.03125q-0.3125 -0.265625 -1.046875 -0.265625l0 -0.9375l0.046875 0q0.703125 0 1.171875 0.15625q0.484375 0.140625 0.765625 0.421875q0.28125 0.265625 0.390625 0.6875q0.125 0.421875 0.125 0.953125l0 2.34375q0 0.234375 0.0625 0.46875q0.078125 0.21875 0.234375 0.390625q0.15625 0.171875 0.375 0.28125q0.21875 0.109375 0.53125 0.109375l0 0.9375z" fill-rule="nonzero"></path><path fill="#6d9eeb" d="m158.0 318.0l81.00787 0l0 30.015747l-81.00787 0z" fill-rule="evenodd"></path><path stroke="#000000" stroke-width="2.0" stroke-linejoin="round" stroke-linecap="butt" d="m158.0 318.0l81.00787 0l0 30.015747l-81.00787 0z" fill-rule="evenodd"></path><path fill="#000000" d="m168.82115 333.3341q0 -1.6875 0.5 -2.984375q0.5 -1.296875 1.359375 -2.15625q0.875 -0.859375 2.015625 -1.296875q1.15625 -0.4375 2.4375 -0.4375q1.28125 0 2.40625 0.4375q1.140625 0.4375 1.984375 1.296875q0.859375 0.859375 1.359375 2.15625q0.515625 1.296875 0.515625 2.984375q0 1.484375 -0.390625 2.640625q-0.375 1.15625 -1.046875 2.0q-0.671875 0.84375 -1.578125 1.375q-0.90625 0.515625 -1.9375 0.71875q0.03125 0.421875 0.390625 0.75q0.375 0.34375 0.9375 0.5625q0.578125 0.234375 1.28125 0.390625q0.703125 0.15625 1.40625 0.234375l-0.4375 1.4375q-0.984375 -0.140625 -1.890625 -0.359375q-0.90625 -0.21875 -1.640625 -0.578125q-0.71875 -0.359375 -1.21875 -0.921875q-0.5 -0.546875 -0.671875 -1.390625q-1.1875 -0.078125 -2.25 -0.5625q-1.0625 -0.484375 -1.84375 -1.34375q-0.78125 -0.875 -1.234375 -2.109375q-0.453125 -1.234375 -0.453125 -2.84375zm1.9375 0q0 1.203125 0.296875 2.1875q0.296875 0.96875 0.859375 1.65625q0.5625 0.671875 1.375 1.046875q0.8125 0.375 1.8125 0.375q1.0 0 1.796875 -0.375q0.8125 -0.375 1.359375 -1.046875q0.5625 -0.6875 0.859375 -1.65625q0.3125 -0.984375 0.3125 -2.1875q0 -1.203125 -0.3125 -2.171875q-0.296875 -0.984375 -0.859375 -1.65625q-0.546875 -0.6875 -1.359375 -1.0625q-0.796875 -0.375 -1.796875 -0.375q-1.0 0 -1.8125 0.375q-0.8125 0.375 -1.375 1.0625q-0.5625 0.671875 -0.859375 1.65625q-0.296875 0.96875 -0.296875 2.171875zm11.389572 8.609375l9.5 0l0 1.5l-9.5 0l0 -1.5zm10.366379 -8.609375q0 -1.6875 0.5 -2.984375q0.5 -1.296875 1.359375 -2.15625q0.875 -0.859375 2.015625 -1.296875q1.15625 -0.4375 2.4375 -0.4375q1.28125 0 2.40625 0.4375q1.140625 0.4375 1.984375 1.296875q0.859375 0.859375 1.359375 2.15625q0.515625 1.296875 0.515625 2.984375q0 1.6875 -0.515625 2.984375q-0.5 1.296875 -1.359375 2.15625q-0.84375 0.859375 -1.984375 1.296875q-1.125 0.4375 -2.40625 0.4375q-1.28125 0 -2.4375 -0.4375q-1.140625 -0.4375 -2.015625 -1.296875q-0.859375 -0.859375 -1.359375 -2.15625q-0.5 -1.296875 -0.5 -2.984375zm1.9375 0q0 1.203125 0.296875 2.1875q0.296875 0.96875 0.859375 1.65625q0.5625 0.671875 1.375 1.046875q0.8125 0.375 1.8125 0.375q1.0 0 1.796875 -0.375q0.8125 -0.375 1.359375 -1.046875q0.5625 -0.6875 0.859375 -1.65625q0.3125 -0.984375 0.3125 -2.1875q0 -1.203125 -0.3125 -2.171875q-0.296875 -0.984375 -0.859375 -1.65625q-0.546875 -0.6875 -1.359375 -1.0625q-0.796875 -0.375 -1.796875 -0.375q-1.0 0 -1.8125 0.375q-0.8125 0.375 -1.375 1.0625q-0.5625 0.671875 -0.859375 1.65625q-0.296875 0.96875 -0.296875 2.171875zm17.998947 6.875q-1.28125 0 -2.234375 -0.390625q-0.953125 -0.40625 -1.5625 -1.09375q-0.609375 -0.703125 -0.90625 -1.640625q-0.296875 -0.953125 -0.296875 -2.0625l0 -8.265625l1.84375 0l0 8.0625q0 1.96875 0.875 2.875q0.875 0.890625 2.28125 0.890625q0.703125 0 1.28125 -0.21875q0.578125 -0.21875 1.0 -0.671875q0.421875 -0.46875 0.640625 -1.171875q0.234375 -0.71875 0.234375 -1.703125l0 -8.0625l1.84375 0l0 8.265625q0 1.109375 -0.296875 2.0625q-0.296875 0.9375 -0.921875 1.640625q-0.609375 0.6875 -1.546875 1.09375q-0.9375 0.390625 -2.234375 0.390625zm16.74176 -13.453125l0 1.59375l-4.15625 0l0 11.578125l-1.828125 0l0 -11.578125l-4.15625 0l0 -1.59375l10.140625 0z" fill-rule="nonzero"></path><path fill="#6d9eeb" d="m167.0 152.43307l60.0 0l0 30.015747l-60.0 0z" fill-rule="evenodd"></path><path stroke="#000000" stroke-width="2.0" stroke-linejoin="round" stroke-linecap="butt" d="m167.0 152.43307l60.0 0l0 30.015747l-60.0 0z" fill-rule="evenodd"></path><path fill="#000000" d="m189.34048 161.18907l1.84375 0l0 13.171875l-1.84375 0l0 -13.171875zm14.034149 13.171875q-0.421875 -0.703125 -0.96875 -1.578125q-0.53125 -0.875 -1.15625 -1.8125q-0.625 -0.9375 -1.296875 -1.90625q-0.671875 -0.96875 -1.34375 -1.875q-0.671875 -0.90625 -1.296875 -1.703125q-0.625 -0.796875 -1.15625 -1.40625l0 10.28125l-1.796875 0l0 -13.171875l1.453125 0q0.890625 0.953125 1.90625 2.21875q1.015625 1.265625 2.015625 2.609375q1.0 1.328125 1.875 2.625q0.890625 1.296875 1.5 2.296875l0 -9.75l1.8125 0l0 13.171875l-1.546875 0z" fill-rule="nonzero"></path><path fill="#cfe2f3" d="m288.1496 318.3622l0 0c0 -21.239044 18.134247 -38.456696 40.503937 -38.456696l0 0c10.74231 0 21.044647 4.0516663 28.640625 11.263702c7.5959473 7.212036 11.863312 16.993622 11.863312 27.192993l0 0c0 21.239044 -18.134216 38.456696 -40.503937 38.456696l0 0c-22.36969 0 -40.503937 -17.217651 -40.503937 -38.456696z" fill-rule="evenodd"></path><path stroke="#000000" stroke-width="1.0" stroke-linejoin="round" stroke-linecap="butt" d="m288.1496 318.3622l0 0c0 -21.239044 18.134247 -38.456696 40.503937 -38.456696l0 0c10.74231 0 21.044647 4.0516663 28.640625 11.263702c7.5959473 7.212036 11.863312 16.993622 11.863312 27.192993l0 0c0 21.239044 -18.134216 38.456696 -40.503937 38.456696l0 0c-22.36969 0 -40.503937 -17.217651 -40.503937 -38.456696z" fill-rule="evenodd"></path><path fill="#000000" d="m313.0816 319.80283q0 0.984375 0.390625 1.578125q0.40625 0.578125 1.265625 0.578125q0.390625 0 0.734375 -0.125q0.34375 -0.125 0.546875 -0.265625l0 -3.890625q-0.171875 -0.046875 -0.421875 -0.078125q-0.25 -0.03125 -0.65625 -0.03125q-0.875 0 -1.375 0.59375q-0.484375 0.59375 -0.484375 1.640625zm-1.609375 -0.03125q0 -0.8125 0.234375 -1.46875q0.25 -0.65625 0.6875 -1.109375q0.453125 -0.46875 1.09375 -0.71875q0.640625 -0.25 1.4375 -0.25q0.8125 0 1.515625 0.125q0.703125 0.109375 1.15625 0.234375l0 8.984375l-1.578125 0l0 -2.640625q-0.265625 0.140625 -0.671875 0.25q-0.390625 0.125 -0.875 0.125q-0.71875 0 -1.28125 -0.25q-0.5625 -0.25 -0.9375 -0.71875q-0.375 -0.46875 -0.578125 -1.109375q-0.203125 -0.65625 -0.203125 -1.453125zm13.8966675 3.1875q-0.453125 0.109375 -1.1875 0.234375q-0.71875 0.125 -1.59375 0.125q-0.8125 0 -1.375 -0.234375q-0.546875 -0.234375 -0.890625 -0.640625q-0.328125 -0.421875 -0.46875 -1.0q-0.140625 -0.578125 -0.140625 -1.265625l0 -3.8125l1.578125 0l0 3.5625q0 1.09375 0.3125 1.5625q0.328125 0.46875 1.109375 0.46875q0.296875 0 0.609375 -0.03125q0.3125 -0.03125 0.46875 -0.0625l0 -5.5l1.578125 0l0 6.59375zm1.8171387 -3.15625q0 -0.90625 0.265625 -1.578125q0.265625 -0.671875 0.703125 -1.125q0.453125 -0.453125 1.015625 -0.671875q0.578125 -0.234375 1.171875 -0.234375q1.40625 0 2.1875 0.875q0.796875 0.875 0.796875 2.59375q0 0.140625 -0.015625 0.296875q0 0.15625 -0.015625 0.296875l-4.484375 0q0.0625 0.8125 0.578125 1.265625q0.515625 0.4375 1.484375 0.4375q0.578125 0 1.046875 -0.09375q0.484375 -0.109375 0.75 -0.21875l0.203125 1.28125q-0.125 0.0625 -0.359375 0.140625q-0.21875 0.0625 -0.515625 0.125q-0.296875 0.0625 -0.640625 0.09375q-0.328125 0.046875 -0.671875 0.046875q-0.90625 0 -1.578125 -0.265625q-0.65625 -0.265625 -1.078125 -0.734375q-0.421875 -0.484375 -0.640625 -1.125q-0.203125 -0.640625 -0.203125 -1.40625zm4.5625 -0.703125q0 -0.328125 -0.09375 -0.625q-0.09375 -0.296875 -0.265625 -0.5q-0.171875 -0.21875 -0.4375 -0.34375q-0.25 -0.125 -0.59375 -0.125q-0.359375 0 -0.640625 0.140625q-0.265625 0.140625 -0.453125 0.359375q-0.1875 0.21875 -0.296875 0.5q-0.109375 0.28125 -0.140625 0.59375l2.921875 0zm7.297821 -1.3125q-0.1875 -0.078125 -0.546875 -0.140625q-0.34375 -0.078125 -0.796875 -0.078125q-0.25 0 -0.546875 0.0625q-0.296875 0.046875 -0.40625 0.078125l0 5.453125l-1.578125 0l0 -6.46875q0.453125 -0.171875 1.140625 -0.3125q0.6875 -0.15625 1.515625 -0.15625q0.15625 0 0.359375 0.015625q0.203125 0.015625 0.40625 0.046875q0.21875 0.03125 0.40625 0.078125q0.203125 0.046875 0.3125 0.09375l-0.265625 1.328125zm7.043091 -1.421875q-1.046875 3.875 -2.4375 7.015625q-0.265625 0.59375 -0.546875 1.0q-0.265625 0.421875 -0.609375 0.6875q-0.328125 0.28125 -0.75 0.40625q-0.40625 0.125 -0.953125 0.125q-0.359375 0 -0.71875 -0.078125q-0.359375 -0.078125 -0.546875 -0.171875l0.28125 -1.265625q0.46875 0.1875 0.9375 0.1875q0.609375 0 0.953125 -0.296875q0.34375 -0.296875 0.59375 -0.90625q-0.734375 -1.421875 -1.421875 -3.109375q-0.671875 -1.703125 -1.21875 -3.59375l1.6875 0q0.125 0.546875 0.3125 1.1875q0.1875 0.625 0.40625 1.28125q0.234375 0.65625 0.46875 1.3125q0.25 0.65625 0.5 1.203125q0.421875 -1.15625 0.78125 -2.453125q0.359375 -1.3125 0.65625 -2.53125l1.625 0z" fill-rule="nonzero"></path><path fill="#cfe2f3" d="m288.14972 197.4462l0 0c0 -21.239044 18.134216 -38.456696 40.503937 -38.456696l0 0c10.74231 0 21.044647 4.0516815 28.640594 11.263702c7.595978 7.212036 11.863342 16.993637 11.863342 27.192993l0 0c0 21.239044 -18.134247 38.456696 -40.503937 38.456696l0 0c-22.36972 0 -40.503937 -17.217651 -40.503937 -38.456696z" fill-rule="evenodd"></path><path stroke="#000000" stroke-width="1.0" stroke-linejoin="round" stroke-linecap="butt" d="m288.14972 197.4462l0 0c0 -21.239044 18.134216 -38.456696 40.503937 -38.456696l0 0c10.74231 0 21.044647 4.0516815 28.640594 11.263702c7.595978 7.212036 11.863342 16.993637 11.863342 27.192993l0 0c0 21.239044 -18.134247 38.456696 -40.503937 38.456696l0 0c-22.36972 0 -40.503937 -17.217651 -40.503937 -38.456696z" fill-rule="evenodd"></path><path fill="#000000" d="m317.44998 198.85556q0 -0.75 0.234375 -1.40625q0.234375 -0.65625 0.671875 -1.140625q0.4375 -0.484375 1.0625 -0.75q0.625 -0.28125 1.390625 -0.28125q0.96875 0 1.828125 0.359375l-0.34375 1.28125q-0.265625 -0.125 -0.609375 -0.203125q-0.34375 -0.078125 -0.734375 -0.078125q-0.921875 0 -1.40625 0.578125q-0.484375 0.578125 -0.484375 1.640625q0 1.015625 0.453125 1.609375q0.453125 0.578125 1.53125 0.578125q0.40625 0 0.796875 -0.078125q0.390625 -0.078125 0.671875 -0.1875l0.234375 1.296875q-0.265625 0.140625 -0.796875 0.23439026q-0.515625 0.109375 -1.078125 0.109375q-0.875 0 -1.515625 -0.26564026q-0.640625 -0.265625 -1.0625 -0.734375q-0.421875 -0.484375 -0.640625 -1.140625q-0.203125 -0.65625 -0.203125 -1.421875zm9.056488 2.28125q0.734375 0 1.109375 -0.078125l0 -1.734375q-0.125 -0.046875 -0.375 -0.078125q-0.25 -0.046875 -0.546875 -0.046875q-0.265625 0 -0.53125 0.046875q-0.265625 0.03125 -0.484375 0.140625q-0.203125 0.109375 -0.34375 0.296875q-0.125 0.1875 -0.125 0.46875q0 0.5625 0.34375 0.78125q0.359375 0.203125 0.953125 0.203125zm-0.125 -5.859375q0.78125 0 1.3125 0.203125q0.53125 0.1875 0.84375 0.546875q0.328125 0.34375 0.453125 0.84375q0.140625 0.5 0.140625 1.09375l0 4.125q-0.359375 0.078125 -1.09375 0.18751526q-0.734375 0.109375 -1.65625 0.109375q-0.609375 0 -1.125 -0.125q-0.5 -0.10939026 -0.859375 -0.35939026q-0.359375 -0.265625 -0.5625 -0.671875q-0.203125 -0.421875 -0.203125 -1.03125q0 -0.59375 0.21875 -0.984375q0.234375 -0.40625 0.625 -0.65625q0.390625 -0.265625 0.90625 -0.375q0.515625 -0.109375 1.078125 -0.109375q0.25 0 0.53125 0.03125q0.296875 0.03125 0.625 0.109375l0 -0.265625q0 -0.265625 -0.0625 -0.515625q-0.0625 -0.25 -0.234375 -0.4375q-0.15625 -0.1875 -0.421875 -0.28125q-0.265625 -0.109375 -0.671875 -0.109375q-0.546875 0 -1.0 0.078125q-0.453125 0.078125 -0.75 0.1875l-0.1875 -1.28125q0.296875 -0.109375 0.859375 -0.203125q0.578125 -0.109375 1.234375 -0.109375zm7.2109375 7.0937653q-0.6875 -0.015625 -1.15625 -0.15626526q-0.46875 -0.140625 -0.734375 -0.40625q-0.265625 -0.265625 -0.390625 -0.65625q-0.109375 -0.40625 -0.109375 -0.90625l0 -7.828125l1.578125 -0.265625l0 7.796875q0 0.28125 0.046875 0.484375q0.046875 0.1875 0.15625 0.328125q0.125 0.125 0.328125 0.203125q0.203125 0.078125 0.515625 0.109375l-0.234375 1.2968903zm1.22406 -3.5156403q0 -0.75 0.234375 -1.40625q0.234375 -0.65625 0.671875 -1.140625q0.4375 -0.484375 1.0625 -0.75q0.625 -0.28125 1.390625 -0.28125q0.96875 0 1.828125 0.359375l-0.34375 1.28125q-0.265625 -0.125 -0.609375 -0.203125q-0.34375 -0.078125 -0.734375 -0.078125q-0.921875 0 -1.40625 0.578125q-0.484375 0.578125 -0.484375 1.640625q0 1.015625 0.453125 1.609375q0.453125 0.578125 1.53125 0.578125q0.40625 0 0.796875 -0.078125q0.390625 -0.078125 0.671875 -0.1875l0.234375 1.296875q-0.265625 0.140625 -0.796875 0.23439026q-0.515625 0.109375 -1.078125 0.109375q-0.875 0 -1.515625 -0.26564026q-0.640625 -0.265625 -1.0625 -0.734375q-0.421875 -0.484375 -0.640625 -1.140625q-0.203125 -0.65625 -0.203125 -1.421875z" fill-rule="nonzero"></path><path fill="#000000" fill-opacity="0.0" d="m300.01294 291.16922c0 -16.632416 7.1574707 -26.355408 14.314941 -33.264862c7.157501 -6.909439 14.314972 -11.005356 14.314972 -22.010727" fill-rule="evenodd"></path><path stroke="#000000" stroke-width="2.0" stroke-linejoin="round" stroke-linecap="butt" d="m300.01294 291.16922c0 -16.632446 7.1574707 -26.355408 14.314972 -33.264862c3.5787354 -3.454712 7.1574707 -6.20607 9.841522 -9.469406c0.16775513 -0.20393372 0.33203125 -0.4099121 0.4925537 -0.61816406c0.08029175 -0.10412598 0.15960693 -0.20883179 0.23800659 -0.31414795l0.12286377 -0.16807556" fill-rule="evenodd"></path><path fill="#000000" stroke="#000000" stroke-width="2.0" stroke-linecap="butt" d="m328.1724 248.33113l-0.41156006 -9.649918l-5.8875732 7.6568146z" fill-rule="evenodd"></path><path fill="#000000" fill-opacity="0.0" d="m328.65366 158.9895c0 -12.499954 44.031494 -30.499924 88.06299 -24.999924c44.031494 5.5 88.06299 34.49997 88.06299 68.99992" fill-rule="evenodd"></path><path stroke="#000000" stroke-width="2.0" stroke-linejoin="round" stroke-linecap="butt" stroke-dasharray="8.0,6.0" d="m328.65366 158.9895c0 -12.499954 44.031464 -30.499924 88.06296 -24.999924c22.015747 2.75 44.031494 11.375 60.543304 23.624985c8.25592 6.1249847 15.135834 13.156235 19.951782 20.812454c2.407959 3.828125 4.2999573 7.8125 5.5899353 11.917969c0.08062744 0.2565918 0.15890503 0.5136566 0.23477173 0.7711792l1.8310547E-4 5.950928E-4" fill-rule="evenodd"></path><path fill="#000000" stroke="#000000" stroke-width="2.0" stroke-linecap="butt" d="m499.76816 191.59659l4.5867615 8.500122l1.9501038 -9.459778z" fill-rule="evenodd"></path><path fill="#000000" fill-opacity="0.0" d="m373.50656 140.96982l97.98425 0l0 30.015747l-97.98425 0z" fill-rule="evenodd"></path><path fill="#000000" d="m385.71198 162.76982l0 -9.015625l5.484375 0l0 1.078125l-4.234375 0l0 2.6875l3.78125 0l0 1.046875l-3.78125 0l0 3.125l4.5625 0l0 1.078125l-5.8125 0zm6.4384766 1.375l6.5 0l0 1.03125l-6.5 0l0 -1.03125zm7.3542786 -5.890625q0 -1.15625 0.34375 -2.03125q0.34375 -0.890625 0.9375 -1.484375q0.59375 -0.59375 1.375 -0.890625q0.796875 -0.296875 1.671875 -0.296875q0.875 0 1.640625 0.296875q0.78125 0.296875 1.359375 0.890625q0.59375 0.59375 0.9375 1.484375q0.34375 0.875 0.34375 2.03125q0 1.15625 -0.34375 2.046875q-0.34375 0.875 -0.9375 1.46875q-0.578125 0.59375 -1.359375 0.890625q-0.765625 0.296875 -1.640625 0.296875q-0.875 0 -1.671875 -0.296875q-0.78125 -0.296875 -1.375 -0.890625q-0.59375 -0.59375 -0.9375 -1.46875q-0.34375 -0.890625 -0.34375 -2.046875zm1.328125 0q0 0.828125 0.203125 1.5q0.21875 0.65625 0.59375 1.125q0.390625 0.46875 0.9375 0.734375q0.5625 0.25 1.25 0.25q0.6875 0 1.234375 -0.25q0.546875 -0.265625 0.921875 -0.734375q0.390625 -0.46875 0.59375 -1.125q0.203125 -0.671875 0.203125 -1.5q0 -0.8125 -0.203125 -1.484375q-0.203125 -0.671875 -0.59375 -1.140625q-0.375 -0.46875 -0.921875 -0.71875q-0.546875 -0.25 -1.234375 -0.25q-0.6875 0 -1.25 0.25q-0.546875 0.25 -0.9375 0.71875q-0.375 0.46875 -0.59375 1.140625q-0.203125 0.671875 -0.203125 1.484375zm14.713013 4.328125q-0.421875 0.09375 -1.109375 0.203125q-0.671875 0.125 -1.5625 0.125q-0.78125 0 -1.328125 -0.21875q-0.53125 -0.234375 -0.859375 -0.640625q-0.3125 -0.421875 -0.453125 -0.984375q-0.140625 -0.578125 -0.140625 -1.265625l0 -3.796875l1.203125 0l0 3.546875q0 1.234375 0.390625 1.765625q0.390625 0.53125 1.3125 0.53125q0.1875 0 0.390625 -0.015625q0.21875 -0.015625 0.390625 -0.03125q0.1875 -0.015625 0.328125 -0.03125q0.15625 -0.03125 0.234375 -0.046875l0 -5.71875l1.203125 0l0 6.578125zm3.400299 -6.578125l2.5625 0l0 1.015625l-2.5625 0l0 3.125q0 0.5 0.078125 0.84375q0.078125 0.328125 0.234375 0.515625q0.15625 0.1875 0.390625 0.265625q0.234375 0.078125 0.546875 0.078125q0.546875 0 0.875 -0.125q0.328125 -0.125 0.46875 -0.171875l0.21875 1.0q-0.171875 0.09375 -0.625 0.21875q-0.453125 0.140625 -1.046875 0.140625q-0.6875 0 -1.140625 -0.171875q-0.4375 -0.171875 -0.71875 -0.515625q-0.265625 -0.359375 -0.375 -0.875q-0.109375 -0.515625 -0.109375 -1.1875l0 -6.03125l1.203125 -0.21875l0 2.09375zm6.952301 3.75l5.953125 0l0 1.03125l-5.953125 0l0 -1.03125zm0 -2.765625l5.953125 0l0 1.015625l-5.953125 0l0 -1.015625zm10.95517 -0.78125q0.40625 -0.109375 1.09375 -0.21875q0.6875 -0.125 1.59375 -0.125q0.796875 0 1.328125 0.234375q0.546875 0.21875 0.859375 0.640625q0.3125 0.40625 0.4375 0.984375q0.140625 0.5625 0.140625 1.25l0 3.796875l-1.203125 0l0 -3.53125q0 -0.625 -0.09375 -1.0625q-0.078125 -0.453125 -0.28125 -0.71875q-0.1875 -0.28125 -0.515625 -0.40625q-0.328125 -0.125 -0.8125 -0.125q-0.1875 0 -0.40625 0.015625q-0.203125 0.015625 -0.390625 0.046875q-0.1875 0.015625 -0.34375 0.046875q-0.140625 0.015625 -0.203125 0.03125l0 5.703125l-1.203125 0l0 -6.5625zm10.02597 2.109375l3.203125 0l0 1.125l-3.203125 0l0 -1.125zm11.798248 4.453125q-0.140625 -0.28125 -0.34375 -0.625q-0.203125 -0.359375 -0.453125 -0.734375q-0.25 -0.375 -0.515625 -0.734375q-0.25 -0.359375 -0.5 -0.6875q-0.25 0.328125 -0.515625 0.703125q-0.25 0.359375 -0.5 0.734375q-0.234375 0.375 -0.453125 0.734375q-0.203125 0.34375 -0.34375 0.609375l-1.25 0q0.453125 -0.890625 1.078125 -1.796875q0.640625 -0.921875 1.265625 -1.75l-2.234375 -3.21875l1.359375 0l1.609375 2.375l1.625 -2.375l1.296875 0l-2.1875 3.140625q0.625 0.84375 1.28125 1.796875q0.65625 0.9375 1.109375 1.828125l-1.328125 0z" fill-rule="nonzero"></path><path fill="#000000" fill-opacity="0.0" d="m307.99475 248.52231l52.0 0l0 30.015747l-52.0 0z" fill-rule="evenodd"></path><path fill="#000000" d="m319.25934 261.30667l1.25 0l0 9.015625l-1.25 0l0 -9.015625zm3.507141 2.453125q0.40625 -0.109375 1.09375 -0.21875q0.6875 -0.125 1.59375 -0.125q0.796875 0 1.328125 0.234375q0.546875 0.21875 0.859375 0.640625q0.3125 0.40625 0.4375 0.984375q0.140625 0.5625 0.140625 1.25l0 3.796875l-1.203125 0l0 -3.53125q0 -0.625 -0.09375 -1.0625q-0.078125 -0.453125 -0.28125 -0.71875q-0.1875 -0.28125 -0.515625 -0.40625q-0.328125 -0.125 -0.8125 -0.125q-0.1875 0 -0.40625 0.015625q-0.203125 0.015625 -0.390625 0.046875q-0.1875 0.015625 -0.34375 0.046875q-0.140625 0.015625 -0.203125 0.03125l0 5.703125l-1.203125 0l0 -6.5625zm10.36972 3.546875l5.953125 0l0 1.03125l-5.953125 0l0 -1.03125zm0 -2.765625l5.953125 0l0 1.015625l-5.953125 0l0 -1.015625zm14.98642 5.78125q-0.140625 -0.28125 -0.34375 -0.625q-0.203125 -0.359375 -0.453125 -0.734375q-0.25 -0.375 -0.515625 -0.734375q-0.25 -0.359375 -0.5 -0.6875q-0.25 0.328125 -0.515625 0.703125q-0.25 0.359375 -0.5 0.734375q-0.234375 0.375 -0.453125 0.734375q-0.203125 0.34375 -0.34375 0.609375l-1.25 0q0.453125 -0.890625 1.078125 -1.796875q0.640625 -0.921875 1.265625 -1.75l-2.234375 -3.21875l1.359375 0l1.609375 2.375l1.625 -2.375l1.296875 0l-2.1875 3.140625q0.625 0.84375 1.28125 1.796875q0.65625 0.9375 1.109375 1.828125l-1.328125 0z" fill-rule="nonzero"></path><path fill="#6d9eeb" d="m157.49606 271.5853l81.00787 0l0 30.015747l-81.00787 0z" fill-rule="evenodd"></path><path stroke="#000000" stroke-width="2.0" stroke-linejoin="round" stroke-linecap="butt" d="m157.49606 271.5853l81.00787 0l0 30.015747l-81.00787 0z" fill-rule="evenodd"></path><path fill="#000000" d="m170.77939 293.51318l0 -13.171875l8.03125 0l0 1.578125l-6.1875 0l0 3.921875l5.5 0l0 1.53125l-5.5 0l0 4.5625l6.65625 0l0 1.578125l-8.5 0zm8.933975 2.015625l9.5 0l0 1.5l-9.5 0l0 -1.5zm10.366379 -8.609375q0 -1.6875 0.5 -2.984375q0.5 -1.296875 1.359375 -2.15625q0.875 -0.859375 2.015625 -1.296875q1.15625 -0.4375 2.4375 -0.4375q1.28125 0 2.40625 0.4375q1.140625 0.4375 1.984375 1.296875q0.859375 0.859375 1.359375 2.15625q0.515625 1.296875 0.515625 2.984375q0 1.6875 -0.515625 2.984375q-0.5 1.296875 -1.359375 2.15625q-0.84375 0.859375 -1.984375 1.296875q-1.125 0.4375 -2.40625 0.4375q-1.28125 0 -2.4375 -0.4375q-1.140625 -0.4375 -2.015625 -1.296875q-0.859375 -0.859375 -1.359375 -2.15625q-0.5 -1.296875 -0.5 -2.984375zm1.9375 0q0 1.203125 0.296875 2.1875q0.296875 0.96875 0.859375 1.65625q0.5625 0.671875 1.375 1.046875q0.8125 0.375 1.8125 0.375q1.0 0 1.796875 -0.375q0.8125 -0.375 1.359375 -1.046875q0.5625 -0.6875 0.859375 -1.65625q0.3125 -0.984375 0.3125 -2.1875q0 -1.203125 -0.3125 -2.171875q-0.296875 -0.984375 -0.859375 -1.65625q-0.546875 -0.6875 -1.359375 -1.0625q-0.796875 -0.375 -1.796875 -0.375q-1.0 0 -1.8125 0.375q-0.8125 0.375 -1.375 1.0625q-0.5625 0.671875 -0.859375 1.65625q-0.296875 0.96875 -0.296875 2.171875zm17.998947 6.875q-1.28125 0 -2.234375 -0.390625q-0.953125 -0.40625 -1.5625 -1.09375q-0.609375 -0.703125 -0.90625 -1.640625q-0.296875 -0.953125 -0.296875 -2.0625l0 -8.265625l1.84375 0l0 8.0625q0 1.96875 0.875 2.875q0.875 0.890625 2.28125 0.890625q0.703125 0 1.28125 -0.21875q0.578125 -0.21875 1.0 -0.671875q0.421875 -0.46875 0.640625 -1.171875q0.234375 -0.71875 0.234375 -1.703125l0 -8.0625l1.84375 0l0 8.265625q0 1.109375 -0.296875 2.0625q-0.296875 0.9375 -0.921875 1.640625q-0.609375 0.6875 -1.546875 1.09375q-0.9375 0.390625 -2.234375 0.390625zm16.74176 -13.453125l0 1.59375l-4.15625 0l0 11.578125l-1.828125 0l0 -11.578125l-4.15625 0l0 -1.59375l10.140625 0z" fill-rule="nonzero"></path><path fill="#6d9eeb" d="m156.49606 225.17061l81.00787 0l0 30.015747l-81.00787 0z" fill-rule="evenodd"></path><path stroke="#000000" stroke-width="2.0" stroke-linejoin="round" stroke-linecap="butt" d="m156.49606 225.17061l81.00787 0l0 30.015747l-81.00787 0z" fill-rule="evenodd"></path><path fill="#000000" d="m172.91862 233.8016q2.78125 0 4.265625 1.0625q1.5 1.046875 1.5 3.140625q0 1.125 -0.421875 1.9375q-0.40625 0.8125 -1.171875 1.3125q-0.765625 0.5 -1.875 0.734375q-1.09375 0.21875 -2.484375 0.21875l-1.453125 0l0 4.890625l-1.84375 0l0 -12.984375q0.765625 -0.1875 1.71875 -0.25q0.96875 -0.0625 1.765625 -0.0625zm0.15625 1.609375q-1.171875 0 -1.796875 0.0625l0 5.171875l1.375 0q0.953125 0 1.703125 -0.125q0.765625 -0.125 1.28125 -0.421875q0.53125 -0.296875 0.8125 -0.8125q0.296875 -0.515625 0.296875 -1.3125q0 -0.75 -0.296875 -1.25q-0.296875 -0.5 -0.796875 -0.78125q-0.5 -0.296875 -1.171875 -0.40625q-0.671875 -0.125 -1.40625 -0.125zm5.9836273 13.703125l9.5 0l0 1.5l-9.5 0l0 -1.5zm10.366379 -8.609375q0 -1.6875 0.5 -2.984375q0.5 -1.296875 1.359375 -2.15625q0.875 -0.859375 2.015625 -1.296875q1.15625 -0.4375 2.4375 -0.4375q1.28125 0 2.40625 0.4375q1.140625 0.4375 1.984375 1.296875q0.859375 0.859375 1.359375 2.15625q0.515625 1.296875 0.515625 2.984375q0 1.6875 -0.515625 2.984375q-0.5 1.296875 -1.359375 2.15625q-0.84375 0.859375 -1.984375 1.296875q-1.125 0.4375 -2.40625 0.4375q-1.28125 0 -2.4375 -0.4375q-1.140625 -0.4375 -2.015625 -1.296875q-0.859375 -0.859375 -1.359375 -2.15625q-0.5 -1.296875 -0.5 -2.984375zm1.9375 0q0 1.203125 0.296875 2.1875q0.296875 0.96875 0.859375 1.65625q0.5625 0.671875 1.375 1.046875q0.8125 0.375 1.8125 0.375q1.0 0 1.796875 -0.375q0.8125 -0.375 1.359375 -1.046875q0.5625 -0.6875 0.859375 -1.65625q0.3125 -0.984375 0.3125 -2.1875q0 -1.203125 -0.3125 -2.171875q-0.296875 -0.984375 -0.859375 -1.65625q-0.546875 -0.6875 -1.359375 -1.0625q-0.796875 -0.375 -1.796875 -0.375q-1.0 0 -1.8125 0.375q-0.8125 0.375 -1.375 1.0625q-0.5625 0.671875 -0.859375 1.65625q-0.296875 0.96875 -0.296875 2.171875zm17.998947 6.875q-1.28125 0 -2.234375 -0.390625q-0.953125 -0.40625 -1.5625 -1.09375q-0.609375 -0.703125 -0.90625 -1.640625q-0.296875 -0.953125 -0.296875 -2.0625l0 -8.265625l1.84375 0l0 8.0625q0 1.96875 0.875 2.875q0.875 0.890625 2.28125 0.890625q0.703125 0 1.28125 -0.21875q0.578125 -0.21875 1.0 -0.671875q0.421875 -0.46875 0.640625 -1.171875q0.234375 -0.71875 0.234375 -1.703125l0 -8.0625l1.84375 0l0 8.265625q0 1.109375 -0.296875 2.0625q-0.296875 0.9375 -0.921875 1.640625q-0.609375 0.6875 -1.546875 1.09375q-0.9375 0.390625 -2.234375 0.390625zm16.74176 -13.453125l0 1.59375l-4.15625 0l0 11.578125l-1.828125 0l0 -11.578125l-4.15625 0l0 -1.59375l10.140625 0z" fill-rule="nonzero"></path><path fill="#000000" fill-opacity="0.0" d="m367.7244 160.43176l97.98425 0l0 30.015747l-97.98425 0z" fill-rule="evenodd"></path><path fill="#000000" d="m389.43097 173.138q1.890625 0 2.90625 0.71875q1.03125 0.71875 1.03125 2.140625q0 0.78125 -0.28125 1.34375q-0.28125 0.546875 -0.8125 0.890625q-0.515625 0.34375 -1.28125 0.5q-0.75 0.15625 -1.703125 0.15625l-1.0 0l0 3.34375l-1.25 0l0 -8.875q0.53125 -0.140625 1.1875 -0.171875q0.65625 -0.046875 1.203125 -0.046875zm0.09375 1.09375q-0.796875 0 -1.234375 0.046875l0 3.53125l0.953125 0q0.65625 0 1.171875 -0.078125q0.515625 -0.09375 0.875 -0.28125q0.359375 -0.203125 0.546875 -0.546875q0.203125 -0.359375 0.203125 -0.90625q0 -0.53125 -0.203125 -0.859375q-0.203125 -0.34375 -0.546875 -0.546875q-0.34375 -0.203125 -0.796875 -0.28125q-0.453125 -0.078125 -0.96875 -0.078125zm4.447235 9.375l6.5 0l0 1.03125l-6.5 0l0 -1.03125zm7.3542786 -5.890625q0 -1.15625 0.34375 -2.03125q0.34375 -0.890625 0.9375 -1.484375q0.59375 -0.59375 1.375 -0.890625q0.796875 -0.296875 1.671875 -0.296875q0.875 0 1.640625 0.296875q0.78125 0.296875 1.359375 0.890625q0.59375 0.59375 0.9375 1.484375q0.34375 0.875 0.34375 2.03125q0 1.15625 -0.34375 2.046875q-0.34375 0.875 -0.9375 1.46875q-0.578125 0.59375 -1.359375 0.890625q-0.765625 0.296875 -1.640625 0.296875q-0.875 0 -1.671875 -0.296875q-0.78125 -0.296875 -1.375 -0.890625q-0.59375 -0.59375 -0.9375 -1.46875q-0.34375 -0.890625 -0.34375 -2.046875zm1.328125 0q0 0.828125 0.203125 1.5q0.21875 0.65625 0.59375 1.125q0.390625 0.46875 0.9375 0.734375q0.5625 0.25 1.25 0.25q0.6875 0 1.234375 -0.25q0.546875 -0.265625 0.921875 -0.734375q0.390625 -0.46875 0.59375 -1.125q0.203125 -0.671875 0.203125 -1.5q0 -0.8125 -0.203125 -1.484375q-0.203125 -0.671875 -0.59375 -1.140625q-0.375 -0.46875 -0.921875 -0.71875q-0.546875 -0.25 -1.234375 -0.25q-0.6875 0 -1.25 0.25q-0.546875 0.25 -0.9375 0.71875q-0.375 0.46875 -0.59375 1.140625q-0.203125 0.671875 -0.203125 1.484375zm14.713013 4.328125q-0.421875 0.09375 -1.109375 0.203125q-0.671875 0.125 -1.5625 0.125q-0.78125 0 -1.328125 -0.21875q-0.53125 -0.234375 -0.859375 -0.640625q-0.3125 -0.421875 -0.453125 -0.984375q-0.140625 -0.578125 -0.140625 -1.265625l0 -3.796875l1.203125 0l0 3.546875q0 1.234375 0.390625 1.765625q0.390625 0.53125 1.3125 0.53125q0.1875 0 0.390625 -0.015625q0.21875 -0.015625 0.390625 -0.03125q0.1875 -0.015625 0.328125 -0.03125q0.15625 -0.03125 0.234375 -0.046875l0 -5.71875l1.203125 0l0 6.578125zm3.400299 -6.578125l2.5625 0l0 1.015625l-2.5625 0l0 3.125q0 0.5 0.078125 0.84375q0.078125 0.328125 0.234375 0.515625q0.15625 0.1875 0.390625 0.265625q0.234375 0.078125 0.546875 0.078125q0.546875 0 0.875 -0.125q0.328125 -0.125 0.46875 -0.171875l0.21875 1.0q-0.171875 0.09375 -0.625 0.21875q-0.453125 0.140625 -1.046875 0.140625q-0.6875 0 -1.140625 -0.171875q-0.4375 -0.171875 -0.71875 -0.515625q-0.265625 -0.359375 -0.375 -0.875q-0.109375 -0.515625 -0.109375 -1.1875l0 -6.03125l1.203125 -0.21875l0 2.09375zm6.952301 3.75l5.953125 0l0 1.03125l-5.953125 0l0 -1.03125zm0 -2.765625l5.953125 0l0 1.015625l-5.953125 0l0 -1.015625zm18.065216 5.78125q-0.140625 -0.28125 -0.34375 -0.625q-0.203125 -0.359375 -0.453125 -0.734375q-0.25 -0.375 -0.515625 -0.734375q-0.25 -0.359375 -0.5 -0.6875q-0.25 0.328125 -0.515625 0.703125q-0.25 0.359375 -0.5 0.734375q-0.234375 0.375 -0.453125 0.734375q-0.203125 0.34375 -0.34375 0.609375l-1.25 0q0.453125 -0.890625 1.078125 -1.796875q0.640625 -0.921875 1.265625 -1.75l-2.234375 -3.21875l1.359375 0l1.609375 2.375l1.625 -2.375l1.296875 0l-2.1875 3.140625q0.625 0.84375 1.28125 1.796875q0.65625 0.9375 1.109375 1.828125l-1.328125 0z" fill-rule="nonzero"></path></g></svg>

