<?xml version="1.0" encoding="UTF-8" standalone="no"?>
<!-- Created with Inkscape (http://www.inkscape.org/) -->

<svg
   xmlns:dc="http://purl.org/dc/elements/1.1/"
   xmlns:cc="http://creativecommons.org/ns#"
   xmlns:rdf="http://www.w3.org/1999/02/22-rdf-syntax-ns#"
   xmlns:svg="http://www.w3.org/2000/svg"
   xmlns="http://www.w3.org/2000/svg"
   xmlns:sodipodi="http://sodipodi.sourceforge.net/DTD/sodipodi-0.dtd"
   xmlns:inkscape="http://www.inkscape.org/namespaces/inkscape"
   width="210mm"
   height="297mm"
   viewBox="0 0 744.09448819 1052.3622047"
   id="svg4222"
   version="1.1"
   inkscape:version="0.91 r13725"
   sodipodi:docname="figura5.svg">
  <defs
     id="defs4224" />
  <sodipodi:namedview
     id="base"
     pagecolor="#ffffff"
     bordercolor="#666666"
     borderopacity="1.0"
     inkscape:pageopacity="0.0"
     inkscape:pageshadow="2"
     inkscape:zoom="1.3042969"
     inkscape:cx="231.24438"
     inkscape:cy="520"
     inkscape:document-units="px"
     inkscape:current-layer="layer1"
     showgrid="false"
     inkscape:window-width="1855"
     inkscape:window-height="1056"
     inkscape:window-x="65"
     inkscape:window-y="24"
     inkscape:window-maximized="1" />
  <metadata
     id="metadata4227">
    <rdf:RDF>
      <cc:Work
         rdf:about="">
        <dc:format>image/svg+xml</dc:format>
        <dc:type
           rdf:resource="http://purl.org/dc/dcmitype/StillImage" />
        <dc:title></dc:title>
      </cc:Work>
    </rdf:RDF>
  </metadata>
  <g
     inkscape:label="Capa 1"
     inkscape:groupmode="layer"
     id="layer1">
    <path
       d="m 271.83909,268.02998 203.49606,0 0,322.01575 -203.49606,0 z"
       id="path11"
       inkscape:connector-curvature="0"
       style="fill:#000000;fill-opacity:0;fill-rule:evenodd;stroke:none;stroke-linecap:square;stroke-miterlimit:10" />
    <path
       d="m 271.83909,268.02998 203.49606,0 0,322.01575 -203.49606,0 z"
       id="path13"
       inkscape:connector-curvature="0"
       style="fill:none;fill-rule:evenodd;stroke:#000000;stroke-width:2;stroke-linecap:butt;stroke-linejoin:round;stroke-miterlimit:10" />
    <path
       d="m 235.77669,352.21502 68.12599,0 0,30.01575 -68.12599,0 z"
       id="path15"
       inkscape:connector-curvature="0"
       style="fill:#6d9eeb;fill-rule:evenodd;stroke:none;stroke-linecap:square;stroke-miterlimit:10" />
    <path
       d="m 235.77669,352.21502 68.12599,0 0,30.01575 -68.12599,0 z"
       id="path17"
       inkscape:connector-curvature="0"
       style="fill:none;fill-rule:evenodd;stroke:#000000;stroke-width:2;stroke-linecap:butt;stroke-linejoin:round;stroke-miterlimit:10" />
    <path
       d="m 252.26436,374.1429 0,-13.17188 8.03125,0 0,1.57813 -6.1875,0 0,3.92187 5.5,0 0,1.53125 -5.5,0 0,4.5625 6.65625,0 0,1.57813 -8.5,0 z m 8.93397,2.01562 9.50001,0 0,1.5 -9.5,0 0,-1.5 z m 10.89765,-15.1875 1.84375,0 0,13.17188 -1.84375,0 0,-13.17188 z m 14.03415,13.17188 q -0.42188,-0.70313 -0.96875,-1.57813 -0.53125,-0.875 -1.15625,-1.8125 -0.625,-0.9375 -1.29688,-1.90625 -0.67187,-0.96875 -1.34375,-1.875 -0.67187,-0.90625 -1.29687,-1.70312 -0.625,-0.79688 -1.15625,-1.40625 l 0,10.28125 -1.79688,0 0,-13.17188 1.45313,0 q 0.89062,0.95313 1.90625,2.21875 1.01562,1.26563 2.01562,2.60938 1,1.32812 1.875,2.625 0.89063,1.29687 1.5,2.29687 l 0,-9.75 1.8125,0 0,13.17188 -1.54687,0 z"
       id="path19"
       inkscape:connector-curvature="0"
       style="fill:#000000;fill-rule:nonzero;stroke:none;stroke-linecap:square;stroke-miterlimit:10" />
    <path
       d="m 235.77669,305.64808 68.12599,0 0,30.01576 -68.12599,0 z"
       id="path21"
       inkscape:connector-curvature="0"
       style="fill:#6d9eeb;fill-rule:evenodd;stroke:none;stroke-linecap:square;stroke-miterlimit:10" />
    <path
       d="m 235.77669,305.64808 68.12599,0 0,30.01576 -68.12599,0 z"
       id="path23"
       inkscape:connector-curvature="0"
       style="fill:none;fill-rule:evenodd;stroke:#000000;stroke-width:2;stroke-linecap:butt;stroke-linejoin:round;stroke-miterlimit:10" />
    <path
       d="m 249.80219,320.9822 q 0,-1.6875 0.5,-2.98438 0.5,-1.29687 1.35937,-2.15625 0.875,-0.85937 2.01563,-1.29687 1.15625,-0.4375 2.4375,-0.4375 1.28125,0 2.40625,0.4375 1.14062,0.4375 1.98437,1.29687 0.85938,0.85938 1.35938,2.15625 0.51562,1.29688 0.51562,2.98438 0,1.48437 -0.39062,2.64062 -0.375,1.15625 -1.04688,2 -0.67187,0.84375 -1.57812,1.375 -0.90625,0.51563 -1.9375,0.71875 0.0312,0.42188 0.39062,0.75 0.375,0.34375 0.9375,0.5625 0.57813,0.23438 1.28125,0.39063 0.70313,0.15625 1.40625,0.23437 l -0.4375,1.4375 q -0.98437,-0.14062 -1.89062,-0.35937 -0.90625,-0.21875 -1.64063,-0.57813 -0.71875,-0.35937 -1.21875,-0.92187 -0.5,-0.54688 -0.67187,-1.39063 -1.1875,-0.0781 -2.25,-0.5625 -1.0625,-0.48437 -1.84375,-1.34375 -0.78125,-0.875 -1.23438,-2.10937 -0.45312,-1.23438 -0.45312,-2.84375 z m 1.9375,0 q 0,1.20312 0.29687,2.1875 0.29688,0.96875 0.85938,1.65625 0.5625,0.67187 1.375,1.04687 0.8125,0.375 1.8125,0.375 1,0 1.79687,-0.375 0.8125,-0.375 1.35938,-1.04687 0.5625,-0.6875 0.85937,-1.65625 0.3125,-0.98438 0.3125,-2.1875 0,-1.20313 -0.3125,-2.17188 -0.29687,-0.98437 -0.85937,-1.65625 -0.54688,-0.6875 -1.35938,-1.0625 -0.79687,-0.375 -1.79687,-0.375 -1,0 -1.8125,0.375 -0.8125,0.375 -1.375,1.0625 -0.5625,0.67188 -0.85938,1.65625 -0.29687,0.96875 -0.29687,2.17188 z m 11.38959,8.60937 9.5,0 0,1.5 -9.5,0 0,-1.5 z m 10.89761,-15.1875 1.84375,0 0,13.17188 -1.84375,0 0,-13.17188 z m 14.03418,13.17188 q -0.42187,-0.70313 -0.96875,-1.57813 -0.53125,-0.875 -1.15625,-1.8125 -0.625,-0.9375 -1.29687,-1.90625 -0.67188,-0.96875 -1.34375,-1.875 -0.67188,-0.90625 -1.29688,-1.70312 -0.625,-0.79688 -1.15625,-1.40625 l 0,10.28125 -1.79687,0 0,-13.17188 1.45312,0 q 0.89063,0.95313 1.90625,2.21875 1.01563,1.26563 2.01563,2.60938 1,1.32812 1.875,2.625 0.89062,1.29687 1.5,2.29687 l 0,-9.75 1.8125,0 0,13.17188 -1.54688,0 z"
       id="path25"
       inkscape:connector-curvature="0"
       style="fill:#000000;fill-rule:nonzero;stroke:none;stroke-linecap:square;stroke-miterlimit:10" />
    <path
       d="m 441.82394,460.59691 88.59845,0 0,38.99213 -88.59845,0 z"
       id="path27"
       inkscape:connector-curvature="0"
       style="fill:#6d9eeb;fill-rule:evenodd;stroke:none;stroke-linecap:square;stroke-miterlimit:10" />
    <path
       d="m 441.82394,460.59691 88.59845,0 0,38.99213 -88.59845,0 z"
       id="path29"
       inkscape:connector-curvature="0"
       style="fill:none;fill-rule:evenodd;stroke:#000000;stroke-width:2;stroke-linecap:butt;stroke-linejoin:round;stroke-miterlimit:10" />
    <path
       d="m 456.44037,480.41923 q 0,-1.6875 0.5,-2.98438 0.5,-1.29687 1.35937,-2.15625 0.875,-0.85937 2.01563,-1.29687 1.15625,-0.4375 2.4375,-0.4375 1.28125,0 2.40625,0.4375 1.14062,0.4375 1.98437,1.29687 0.85938,0.85938 1.35938,2.15625 0.51562,1.29688 0.51562,2.98438 0,1.48437 -0.39062,2.64062 -0.375,1.15625 -1.04688,2 -0.67187,0.84375 -1.57812,1.375 -0.90625,0.51563 -1.9375,0.71875 0.0312,0.42188 0.39062,0.75 0.375,0.34375 0.9375,0.5625 0.57813,0.23438 1.28125,0.39063 0.70313,0.15625 1.40625,0.23437 l -0.4375,1.4375 q -0.98437,-0.14062 -1.89062,-0.35937 -0.90625,-0.21875 -1.64063,-0.57813 -0.71875,-0.35937 -1.21875,-0.92187 -0.5,-0.54688 -0.67187,-1.39063 -1.1875,-0.0781 -2.25,-0.5625 -1.0625,-0.48437 -1.84375,-1.34375 -0.78125,-0.875 -1.23438,-2.10937 -0.45312,-1.23438 -0.45312,-2.84375 z m 1.9375,0 q 0,1.20312 0.29687,2.1875 0.29688,0.96875 0.85938,1.65625 0.5625,0.67187 1.375,1.04687 0.8125,0.375 1.8125,0.375 1,0 1.79687,-0.375 0.8125,-0.375 1.35938,-1.04687 0.5625,-0.6875 0.85937,-1.65625 0.3125,-0.98438 0.3125,-2.1875 0,-1.20313 -0.3125,-2.17188 -0.29687,-0.98437 -0.85937,-1.65625 -0.54688,-0.6875 -1.35938,-1.0625 -0.79687,-0.375 -1.79687,-0.375 -1,0 -1.8125,0.375 -0.8125,0.375 -1.375,1.0625 -0.5625,0.67188 -0.85938,1.65625 -0.29687,0.96875 -0.29687,2.17188 z m 11.38959,8.60937 9.5,0 0,1.5 -9.5,0 0,-1.5 z m 10.36636,-8.60937 q 0,-1.6875 0.5,-2.98438 0.5,-1.29687 1.35938,-2.15625 0.875,-0.85937 2.01562,-1.29687 1.15625,-0.4375 2.4375,-0.4375 1.28125,0 2.40625,0.4375 1.14063,0.4375 1.98438,1.29687 0.85937,0.85938 1.35937,2.15625 0.51563,1.29688 0.51563,2.98438 0,1.6875 -0.51563,2.98437 -0.5,1.29688 -1.35937,2.15625 -0.84375,0.85938 -1.98438,1.29688 -1.125,0.4375 -2.40625,0.4375 -1.28125,0 -2.4375,-0.4375 -1.14062,-0.4375 -2.01562,-1.29688 -0.85938,-0.85937 -1.35938,-2.15625 -0.5,-1.29687 -0.5,-2.98437 z m 1.9375,0 q 0,1.20312 0.29688,2.1875 0.29687,0.96875 0.85937,1.65625 0.5625,0.67187 1.375,1.04687 0.8125,0.375 1.8125,0.375 1,0 1.79688,-0.375 0.8125,-0.375 1.35937,-1.04687 0.5625,-0.6875 0.85938,-1.65625 0.3125,-0.98438 0.3125,-2.1875 0,-1.20313 -0.3125,-2.17188 -0.29688,-0.98437 -0.85938,-1.65625 -0.54687,-0.6875 -1.35937,-1.0625 -0.79688,-0.375 -1.79688,-0.375 -1,0 -1.8125,0.375 -0.8125,0.375 -1.375,1.0625 -0.5625,0.67188 -0.85937,1.65625 -0.29688,0.96875 -0.29688,2.17188 z m 17.99896,6.875 q -1.28125,0 -2.23437,-0.39063 -0.95313,-0.40625 -1.5625,-1.09375 -0.60938,-0.70312 -0.90625,-1.64062 -0.29688,-0.95313 -0.29688,-2.0625 l 0,-8.26563 1.84375,0 0,8.0625 q 0,1.96875 0.875,2.875 0.875,0.89063 2.28125,0.89063 0.70313,0 1.28125,-0.21875 0.57813,-0.21875 1,-0.67188 0.42188,-0.46875 0.64063,-1.17187 0.23437,-0.71875 0.23437,-1.70313 l 0,-8.0625 1.84375,0 0,8.26563 q 0,1.10937 -0.29687,2.0625 -0.29688,0.9375 -0.92188,1.64062 -0.60937,0.6875 -1.54687,1.09375 -0.9375,0.39063 -2.23438,0.39063 z m 16.74173,-13.45313 0,1.59375 -4.15625,0 0,11.57813 -1.82812,0 0,-11.57813 -4.15625,0 0,-1.59375 10.14062,0 z"
       id="path31"
       inkscape:connector-curvature="0"
       style="fill:#000000;fill-rule:nonzero;stroke:none;stroke-linecap:square;stroke-miterlimit:10" />
    <path
       d="m 235.77669,400.21502 68.12599,0 0,30.01573 -68.12599,0 z"
       id="path33"
       inkscape:connector-curvature="0"
       style="fill:#6d9eeb;fill-rule:evenodd;stroke:none;stroke-linecap:square;stroke-miterlimit:10" />
    <path
       d="m 235.77669,400.21502 68.12599,0 0,30.01573 -68.12599,0 z"
       id="path35"
       inkscape:connector-curvature="0"
       style="fill:none;fill-rule:evenodd;stroke:#000000;stroke-width:2;stroke-linecap:butt;stroke-linejoin:round;stroke-miterlimit:10" />
    <path
       d="m 255.40359,408.84602 q 2.78125,0 4.26562,1.0625 1.5,1.04687 1.5,3.14062 0,1.125 -0.42187,1.9375 -0.40625,0.8125 -1.17188,1.3125 -0.76562,0.5 -1.875,0.73438 -1.09375,0.21875 -2.48437,0.21875 l -1.45313,0 0,4.89062 -1.84375,0 0,-12.98437 q 0.76563,-0.1875 1.71875,-0.25 0.96875,-0.0625 1.76563,-0.0625 z m 0.15625,1.60937 q -1.17188,0 -1.79688,0.0625 l 0,5.17188 1.375,0 q 0.95313,0 1.70313,-0.125 0.76562,-0.125 1.28125,-0.42188 0.53125,-0.29687 0.8125,-0.8125 0.29687,-0.51562 0.29687,-1.3125 0,-0.75 -0.29687,-1.25 -0.29688,-0.5 -0.79688,-0.78125 -0.5,-0.29687 -1.17187,-0.40625 -0.67188,-0.125 -1.40625,-0.125 z m 5.98363,13.70313 9.50001,0 0,1.5 -9.50001,0 0,-1.5 z m 10.89763,-15.1875 1.84375,0 0,13.17187 -1.84375,0 0,-13.17187 z m 14.03418,13.17187 q -0.42188,-0.70312 -0.96875,-1.57812 -0.53125,-0.875 -1.15625,-1.8125 -0.625,-0.9375 -1.29688,-1.90625 -0.67187,-0.96875 -1.34375,-1.875 -0.67187,-0.90625 -1.29687,-1.70313 -0.625,-0.79687 -1.15625,-1.40625 l 0,10.28125 -1.79688,0 0,-13.17187 1.45313,0 q 0.89062,0.95312 1.90625,2.21875 1.01562,1.26562 2.01562,2.60937 1,1.32813 1.875,2.625 0.89063,1.29688 1.5,2.29688 l 0,-9.75 1.8125,0 0,13.17187 -1.54687,0 z"
       id="path37"
       inkscape:connector-curvature="0"
       style="fill:#000000;fill-rule:nonzero;stroke:none;stroke-linecap:square;stroke-miterlimit:10" />
    <path
       d="m 441.82394,322.54179 88.59845,0 0,38.99213 -88.59845,0 z"
       id="path39"
       inkscape:connector-curvature="0"
       style="fill:#6d9eeb;fill-rule:evenodd;stroke:none;stroke-linecap:square;stroke-miterlimit:10" />
    <path
       d="m 441.82394,322.54179 88.59845,0 0,38.99213 -88.59845,0 z"
       id="path41"
       inkscape:connector-curvature="0"
       style="fill:none;fill-rule:evenodd;stroke:#000000;stroke-width:2;stroke-linecap:butt;stroke-linejoin:round;stroke-miterlimit:10" />
    <path
       d="m 462.04179,335.66098 q 2.78125,0 4.26562,1.0625 1.5,1.04687 1.5,3.14062 0,1.125 -0.42187,1.9375 -0.40625,0.8125 -1.17188,1.3125 -0.76562,0.5 -1.875,0.73438 -1.09375,0.21875 -2.48437,0.21875 l -1.45313,0 0,4.89062 -1.84375,0 0,-12.98437 q 0.76563,-0.1875 1.71875,-0.25 0.96875,-0.0625 1.76563,-0.0625 z m 0.15625,1.60937 q -1.17188,0 -1.79688,0.0625 l 0,5.17188 1.375,0 q 0.95313,0 1.70313,-0.125 0.76562,-0.125 1.28125,-0.42188 0.53125,-0.29687 0.8125,-0.8125 0.29687,-0.51562 0.29687,-1.3125 0,-0.75 -0.29687,-1.25 -0.29688,-0.5 -0.79688,-0.78125 -0.5,-0.29687 -1.17187,-0.40625 -0.67188,-0.125 -1.40625,-0.125 z m 5.98364,13.70313 9.5,0 0,1.5 -9.5,0 0,-1.5 z m 10.36637,-8.60938 q 0,-1.6875 0.5,-2.98437 0.5,-1.29688 1.35937,-2.15625 0.875,-0.85938 2.01563,-1.29688 1.15625,-0.4375 2.4375,-0.4375 1.28125,0 2.40625,0.4375 1.14062,0.4375 1.98437,1.29688 0.85938,0.85937 1.35938,2.15625 0.51562,1.29687 0.51562,2.98437 0,1.6875 -0.51562,2.98438 -0.5,1.29687 -1.35938,2.15625 -0.84375,0.85937 -1.98437,1.29687 -1.125,0.4375 -2.40625,0.4375 -1.28125,0 -2.4375,-0.4375 -1.14063,-0.4375 -2.01563,-1.29687 -0.85937,-0.85938 -1.35937,-2.15625 -0.5,-1.29688 -0.5,-2.98438 z m 1.9375,0 q 0,1.20313 0.29687,2.1875 0.29688,0.96875 0.85938,1.65625 0.5625,0.67188 1.375,1.04688 0.8125,0.375 1.8125,0.375 1,0 1.79687,-0.375 0.8125,-0.375 1.35938,-1.04688 0.5625,-0.6875 0.85937,-1.65625 0.3125,-0.98437 0.3125,-2.1875 0,-1.20312 -0.3125,-2.17187 -0.29687,-0.98438 -0.85937,-1.65625 -0.54688,-0.6875 -1.35938,-1.0625 -0.79687,-0.375 -1.79687,-0.375 -1,0 -1.8125,0.375 -0.8125,0.375 -1.375,1.0625 -0.5625,0.67187 -0.85938,1.65625 -0.29687,0.96875 -0.29687,2.17187 z m 17.99896,6.875 q -1.28125,0 -2.23438,-0.39062 -0.95312,-0.40625 -1.5625,-1.09375 -0.60937,-0.70313 -0.90625,-1.64063 -0.29687,-0.95312 -0.29687,-2.0625 l 0,-8.26562 1.84375,0 0,8.0625 q 0,1.96875 0.875,2.875 0.875,0.89062 2.28125,0.89062 0.70312,0 1.28125,-0.21875 0.57812,-0.21875 1,-0.67187 0.42187,-0.46875 0.64062,-1.17188 0.23438,-0.71875 0.23438,-1.70312 l 0,-8.0625 1.84375,0 0,8.26562 q 0,1.10938 -0.29688,2.0625 -0.29687,0.9375 -0.92187,1.64063 -0.60938,0.6875 -1.54688,1.09375 -0.9375,0.39062 -2.23437,0.39062 z m 16.74173,-13.45312 0,1.59375 -4.15625,0 0,11.57812 -1.82813,0 0,-11.57812 -4.15622,0 0,-1.59375 10.1406,0 z"
       id="path43"
       inkscape:connector-curvature="0"
       style="fill:#000000;fill-rule:nonzero;stroke:none;stroke-linecap:square;stroke-miterlimit:10" />
    <path
       d="m 441.82394,392.94206 88.59845,0 0,38.99213 -88.59845,0 z"
       id="path45"
       inkscape:connector-curvature="0"
       style="fill:#6d9eeb;fill-rule:evenodd;stroke:none;stroke-linecap:square;stroke-miterlimit:10" />
    <path
       d="m 441.82394,392.94206 88.59845,0 0,38.99213 -88.59845,0 z"
       id="path47"
       inkscape:connector-curvature="0"
       style="fill:none;fill-rule:evenodd;stroke:#000000;stroke-width:2;stroke-linecap:butt;stroke-linejoin:round;stroke-miterlimit:10" />
    <path
       d="m 458.90256,419.3581 0,-13.17186 8.03125,0 0,1.57812 -6.1875,0 0,3.92188 5.5,0 0,1.53125 -5.5,0 0,4.56248 6.65625,0 0,1.57813 -8.5,0 z m 8.93396,2.01563 9.5,0 0,1.5 -9.5,0 0,-1.5 z m 10.36639,-8.60937 q 0,-1.6875 0.5,-2.98437 0.5,-1.29688 1.35938,-2.15625 0.875,-0.85938 2.01562,-1.29688 1.15625,-0.4375 2.4375,-0.4375 1.28125,0 2.40625,0.4375 1.14063,0.4375 1.98438,1.29688 0.85937,0.85937 1.35937,2.15625 0.51563,1.29687 0.51563,2.98437 0,1.6875 -0.51563,2.98436 -0.5,1.29688 -1.35937,2.15625 -0.84375,0.85938 -1.98438,1.29688 -1.125,0.4375 -2.40625,0.4375 -1.28125,0 -2.4375,-0.4375 -1.14062,-0.4375 -2.01562,-1.29688 -0.85938,-0.85937 -1.35938,-2.15625 -0.5,-1.29686 -0.5,-2.98436 z m 1.9375,0 q 0,1.20313 0.29688,2.1875 0.29687,0.96874 0.85937,1.65624 0.5625,0.67187 1.375,1.04687 0.8125,0.375 1.8125,0.375 1,0 1.79688,-0.375 0.8125,-0.375 1.35937,-1.04687 0.5625,-0.6875 0.85938,-1.65624 0.3125,-0.98437 0.3125,-2.1875 0,-1.20312 -0.3125,-2.17187 -0.29688,-0.98438 -0.85938,-1.65625 -0.54687,-0.6875 -1.35937,-1.0625 -0.79688,-0.375 -1.79688,-0.375 -1,0 -1.8125,0.375 -0.8125,0.375 -1.375,1.0625 -0.5625,0.67187 -0.85937,1.65625 -0.29688,0.96875 -0.29688,2.17187 z m 17.99894,6.87499 q -1.28125,0 -2.23438,-0.39063 -0.95312,-0.40625 -1.5625,-1.09375 -0.60937,-0.70312 -0.90625,-1.64062 -0.29687,-0.95313 -0.29687,-2.06249 l 0,-8.26562 1.84375,0 0,8.0625 q 0,1.96873 0.875,2.87498 0.875,0.89063 2.28125,0.89063 0.70312,0 1.28125,-0.21875 0.57812,-0.21875 1,-0.67188 0.42187,-0.46875 0.64062,-1.17187 0.23438,-0.71875 0.23438,-1.70311 l 0,-8.0625 1.84375,0 0,8.26562 q 0,1.10936 -0.29688,2.06249 -0.29687,0.9375 -0.92187,1.64062 -0.60938,0.6875 -1.54688,1.09375 -0.9375,0.39063 -2.23437,0.39063 z m 16.74176,-13.45311 0,1.59375 -4.15625,0 0,11.57811 -1.82813,0 0,-11.57811 -4.15625,0 0,-1.59375 10.14063,0 z"
       id="path49"
       inkscape:connector-curvature="0"
       style="fill:#000000;fill-rule:nonzero;stroke:none;stroke-linecap:square;stroke-miterlimit:10" />
    <path
       d="m 225.54048,513.4355 88.59843,0 0,38.99213 -88.59843,0 z"
       id="path51"
       inkscape:connector-curvature="0"
       style="fill:#6d9eeb;fill-rule:evenodd;stroke:none;stroke-linecap:square;stroke-miterlimit:10" />
    <path
       d="m 225.54048,513.4355 88.59843,0 0,38.99213 -88.59843,0 z"
       id="path53"
       inkscape:connector-curvature="0"
       style="fill:none;fill-rule:evenodd;stroke:#000000;stroke-width:2;stroke-linecap:butt;stroke-linejoin:round;stroke-miterlimit:10" />
    <path
       d="m 242.85274,533.25778 q 0,-1.6875 0.5,-2.98438 0.5,-1.29687 1.35937,-2.15625 0.875,-0.85937 2.01563,-1.29687 1.15625,-0.4375 2.4375,-0.4375 1.28125,0 2.40625,0.4375 1.14062,0.4375 1.98437,1.29687 0.85938,0.85938 1.35938,2.15625 0.51562,1.29688 0.51562,2.98438 0,1.48437 -0.39062,2.64062 -0.375,1.15625 -1.04688,2 -0.67187,0.84375 -1.57812,1.375 -0.90625,0.51563 -1.9375,0.71875 0.0312,0.42188 0.39062,0.75 0.375,0.34375 0.9375,0.5625 0.57813,0.23438 1.28125,0.39063 0.70313,0.15625 1.40625,0.23437 l -0.4375,1.4375 q -0.98437,-0.14062 -1.89062,-0.35937 -0.90625,-0.21875 -1.64063,-0.57813 -0.71875,-0.35937 -1.21875,-0.92187 -0.5,-0.54688 -0.67187,-1.39063 -1.1875,-0.0781 -2.25,-0.5625 -1.0625,-0.48437 -1.84375,-1.34375 -0.78125,-0.875 -1.23438,-2.10937 -0.45312,-1.23438 -0.45312,-2.84375 z m 1.9375,0 q 0,1.20312 0.29687,2.1875 0.29688,0.96875 0.85938,1.65625 0.5625,0.67187 1.375,1.04687 0.8125,0.375 1.8125,0.375 1,0 1.79687,-0.375 0.8125,-0.375 1.35938,-1.04687 0.5625,-0.6875 0.85937,-1.65625 0.3125,-0.98438 0.3125,-2.1875 0,-1.20313 -0.3125,-2.17188 -0.29687,-0.98437 -0.85937,-1.65625 -0.54688,-0.6875 -1.35938,-1.0625 -0.79687,-0.375 -1.79687,-0.375 -1,0 -1.8125,0.375 -0.8125,0.375 -1.375,1.0625 -0.5625,0.67188 -0.85938,1.65625 -0.29687,0.96875 -0.29687,2.17188 z m 11.38957,8.60937 9.5,0 0,1.5 -9.5,0 0,-1.5 z m 10.89765,-15.1875 1.84375,0 0,13.17188 -1.84375,0 0,-13.17188 z m 14.03414,13.17188 q -0.42187,-0.70313 -0.96875,-1.57813 -0.53125,-0.875 -1.15625,-1.8125 -0.625,-0.9375 -1.29687,-1.90625 -0.67188,-0.96875 -1.34375,-1.875 -0.67188,-0.90625 -1.29688,-1.70312 -0.625,-0.79688 -1.15625,-1.40625 l 0,10.28125 -1.79687,0 0,-13.17188 1.45312,0 q 0.89063,0.95313 1.90625,2.21875 1.01563,1.26563 2.01563,2.60938 1,1.32812 1.875,2.625 0.89062,1.29687 1.5,2.29687 l 0,-9.75 1.8125,0 0,13.17188 -1.54688,0 z m 2.84739,2.01562 9.5,0 0,1.5 -9.5,0 0,-1.5 z m 12.53824,-2.01562 -1.76563,0 0,-9.875 1.76563,0 0,9.875 z m -0.89063,-11.67188 q -0.46875,0 -0.8125,-0.3125 -0.32812,-0.3125 -0.32812,-0.84375 0,-0.53125 0.32812,-0.84375 0.34375,-0.3125 0.8125,-0.3125 0.48438,0 0.8125,0.3125 0.32813,0.3125 0.32813,0.84375 0,0.53125 -0.32813,0.84375 -0.32812,0.3125 -0.8125,0.3125 z"
       id="path55"
       inkscape:connector-curvature="0"
       style="fill:#000000;fill-rule:nonzero;stroke:none;stroke-linecap:square;stroke-miterlimit:10" />
  </g>
</svg>
