<?xml version="1.0" encoding="UTF-8" standalone="no"?>
<!-- Created with Inkscape (http://www.inkscape.org/) -->

<svg
   xmlns:dc="http://purl.org/dc/elements/1.1/"
   xmlns:cc="http://creativecommons.org/ns#"
   xmlns:rdf="http://www.w3.org/1999/02/22-rdf-syntax-ns#"
   xmlns:svg="http://www.w3.org/2000/svg"
   xmlns="http://www.w3.org/2000/svg"
   xmlns:sodipodi="http://sodipodi.sourceforge.net/DTD/sodipodi-0.dtd"
   xmlns:inkscape="http://www.inkscape.org/namespaces/inkscape"
   width="210mm"
   height="297mm"
   viewBox="0 0 744.09448819 1052.3622047"
   id="svg4298"
   version="1.1"
   inkscape:version="0.91 r13725"
   sodipodi:docname="figura4.svg">
  <defs
     id="defs4300" />
  <sodipodi:namedview
     id="base"
     pagecolor="#ffffff"
     bordercolor="#666666"
     borderopacity="1.0"
     inkscape:pageopacity="0.0"
     inkscape:pageshadow="2"
     inkscape:zoom="1.3042969"
     inkscape:cx="231.24438"
     inkscape:cy="520"
     inkscape:document-units="px"
     inkscape:current-layer="layer1"
     showgrid="false"
     inkscape:window-width="1855"
     inkscape:window-height="1056"
     inkscape:window-x="65"
     inkscape:window-y="24"
     inkscape:window-maximized="1" />
  <metadata
     id="metadata4303">
    <rdf:RDF>
      <cc:Work
         rdf:about="">
        <dc:format>image/svg+xml</dc:format>
        <dc:type
           rdf:resource="http://purl.org/dc/dcmitype/StillImage" />
        <dc:title></dc:title>
      </cc:Work>
    </rdf:RDF>
  </metadata>
  <g
     inkscape:label="Capa 1"
     inkscape:groupmode="layer"
     id="layer1">
    <path
       d="m 144.5846,252.63653 358.99213,0 0,257.73228 -358.99213,0 z"
       id="path11"
       inkscape:connector-curvature="0"
       style="fill:#000000;fill-opacity:0;fill-rule:evenodd;stroke:none;stroke-linecap:square;stroke-miterlimit:10" />
    <path
       d="m 144.5846,252.63653 358.99213,0 0,257.73228 -358.99213,0 z"
       id="path13"
       inkscape:connector-curvature="0"
       style="fill:none;fill-rule:evenodd;stroke:#000000;stroke-width:2;stroke-linecap:butt;stroke-linejoin:round;stroke-miterlimit:10" />
    <path
       d="m 425.55085,497.57007 q -1.39063,0 -2.53125,-0.45313 -1.14063,-0.45312 -1.95313,-1.32812 -0.8125,-0.875 -1.26562,-2.15625 -0.4375,-1.28125 -0.4375,-2.9375 0,-1.65625 0.5,-2.9375 0.5,-1.28125 1.34375,-2.15625 0.85937,-0.875 2,-1.32813 1.14062,-0.45312 2.4375,-0.45312 0.8125,0 1.46875,0.10937 0.65625,0.10938 1.14062,0.26563 0.48438,0.15625 0.78125,0.3125 0.3125,0.14062 0.42188,0.21875 l -0.53125,1.53125 q -0.17188,-0.125 -0.5,-0.25 -0.3125,-0.14063 -0.71875,-0.26563 -0.40625,-0.14062 -0.89063,-0.21875 -0.48437,-0.0937 -0.98437,-0.0937 -1.04688,0 -1.89063,0.35938 -0.82812,0.35937 -1.42187,1.04687 -0.57813,0.6875 -0.89063,1.67188 -0.3125,0.96875 -0.3125,2.1875 0,1.17187 0.26563,2.14062 0.28125,0.96875 0.82812,1.67188 0.5625,0.6875 1.375,1.07812 0.82813,0.375 1.9375,0.375 1.26563,0 2.09375,-0.26562 0.84375,-0.26563 1.26563,-0.48438 l 0.48437,1.53125 q -0.14062,0.0937 -0.48437,0.23438 -0.34375,0.14062 -0.85938,0.28125 -0.5,0.125 -1.1875,0.21875 -0.6875,0.0937 -1.48437,0.0937 z m 8.75439,-0.0937 q -1.64062,-0.0312 -2.32812,-0.6875 -0.67188,-0.67188 -0.67188,-2.07813 l 0,-11.85937 1.76563,-0.3125 0,11.875 q 0,0.4375 0.0781,0.73437 0.0781,0.28125 0.25,0.45313 0.17188,0.17187 0.45313,0.26562 0.28125,0.0781 0.70312,0.125 l -0.25,1.48438 z m 3.89002,-0.1875 -1.76563,0 0,-9.875 1.76563,0 0,9.875 z m -0.89063,-11.67188 q -0.46875,0 -0.8125,-0.3125 -0.32812,-0.3125 -0.32812,-0.84375 0,-0.53125 0.32812,-0.84375 0.34375,-0.3125 0.8125,-0.3125 0.48438,0 0.8125,0.3125 0.32813,0.3125 0.32813,0.84375 0,0.53125 -0.32813,0.84375 -0.32812,0.3125 -0.8125,0.3125 z m 3.29816,6.75 q 0,-1.3125 0.375,-2.28125 0.39063,-0.98437 1.01563,-1.625 0.625,-0.65625 1.4375,-0.96875 0.8125,-0.32812 1.67187,-0.32812 2,0 3.0625,1.25 1.0625,1.23437 1.0625,3.78125 0,0.10937 0,0.29687 0,0.1875 -0.0156,0.32813 l -6.76563,0 q 0.10938,1.54687 0.89063,2.34375 0.78125,0.79687 2.4375,0.79687 0.92187,0 1.5625,-0.15625 0.64062,-0.17187 0.95312,-0.32812 l 0.25,1.48437 q -0.3125,0.17188 -1.125,0.35938 -0.8125,0.20312 -1.82812,0.20312 -1.29688,0 -2.23438,-0.39062 -0.9375,-0.39063 -1.54687,-1.07813 -0.60938,-0.6875 -0.90625,-1.625 -0.29688,-0.9375 -0.29688,-2.0625 z m 6.78125,-0.96875 q 0.0156,-1.20312 -0.60937,-1.96875 -0.60938,-0.76562 -1.6875,-0.76562 -0.60938,0 -1.07813,0.23437 -0.46875,0.23438 -0.79687,0.625 -0.3125,0.375 -0.5,0.875 -0.17188,0.48438 -0.23438,1 l 4.90625,0 z m 4.19446,-3.70312 q 0.60937,-0.15625 1.60937,-0.32813 1.01563,-0.17187 2.32813,-0.17187 1.17187,0 1.95312,0.34375 0.78125,0.32812 1.25,0.92187 0.46875,0.59375 0.65625,1.4375 0.1875,0.82813 0.1875,1.84375 l 0,5.54688 -1.76562,0 0,-5.17188 q 0,-0.90625 -0.125,-1.54687 -0.125,-0.65625 -0.40625,-1.04688 -0.28125,-0.40625 -0.76563,-0.57812 -0.46875,-0.1875 -1.17187,-0.1875 -0.28125,0 -0.59375,0.0156 -0.29688,0.0156 -0.57813,0.0469 -0.28125,0.0312 -0.5,0.0781 -0.21875,0.0312 -0.3125,0.0469 l 0,8.34375 -1.76562,0 0,-9.59375 z m 12.36493,-0.28125 3.75,0 0,1.48437 -3.75,0 0,4.54688 q 0,0.75 0.10937,1.23437 0.125,0.48438 0.34375,0.76563 0.23438,0.26562 0.57813,0.39062 0.34375,0.10938 0.79687,0.10938 0.79688,0 1.28125,-0.17188 0.48438,-0.1875 0.67188,-0.26562 l 0.34375,1.45312 q -0.26563,0.14063 -0.9375,0.32813 -0.65625,0.20312 -1.51563,0.20312 -1,0 -1.65625,-0.25 -0.65625,-0.25 -1.0625,-0.76562 -0.39062,-0.51563 -0.5625,-1.26563 -0.15625,-0.75 -0.15625,-1.73437 l 0,-8.82813 1.76563,-0.29687 0,3.0625 z m 5.29669,4.95312 q 0,-1.3125 0.375,-2.28125 0.39063,-0.98437 1.01563,-1.625 0.625,-0.65625 1.4375,-0.96875 0.8125,-0.32812 1.67187,-0.32812 2,0 3.0625,1.25 1.0625,1.23437 1.0625,3.78125 0,0.10937 0,0.29687 0,0.1875 -0.0156,0.32813 l -6.76563,0 q 0.10938,1.54687 0.89063,2.34375 0.78125,0.79687 2.4375,0.79687 0.92187,0 1.5625,-0.15625 0.64062,-0.17187 0.95312,-0.32812 l 0.25,1.48437 q -0.3125,0.17188 -1.125,0.35938 -0.8125,0.20312 -1.82812,0.20312 -1.29688,0 -2.23438,-0.39062 -0.9375,-0.39063 -1.54687,-1.07813 -0.60938,-0.6875 -0.90625,-1.625 -0.29688,-0.9375 -0.29688,-2.0625 z m 6.78125,-0.96875 q 0.0156,-1.20312 -0.60937,-1.96875 -0.60938,-0.76562 -1.6875,-0.76562 -0.60938,0 -1.07813,0.23437 -0.46875,0.23438 -0.79687,0.625 -0.3125,0.375 -0.5,0.875 -0.17188,0.48438 -0.23438,1 l 4.90625,0 z m 14.28534,6.17188 q -1.39063,0 -2.53125,-0.45313 -1.14063,-0.45312 -1.95313,-1.32812 -0.8125,-0.875 -1.26562,-2.15625 -0.4375,-1.28125 -0.4375,-2.9375 0,-1.65625 0.5,-2.9375 0.5,-1.28125 1.34375,-2.15625 0.85937,-0.875 2,-1.32813 1.14062,-0.45312 2.4375,-0.45312 0.8125,0 1.46875,0.10937 0.65625,0.10938 1.14062,0.26563 0.48438,0.15625 0.78125,0.3125 0.3125,0.14062 0.42188,0.21875 l -0.53125,1.53125 q -0.17188,-0.125 -0.5,-0.25 -0.3125,-0.14063 -0.71875,-0.26563 -0.40625,-0.14062 -0.89063,-0.21875 -0.48437,-0.0937 -0.98437,-0.0937 -1.04688,0 -1.89063,0.35938 -0.82812,0.35937 -1.42187,1.04687 -0.57813,0.6875 -0.89063,1.67188 -0.3125,0.96875 -0.3125,2.1875 0,1.17187 0.26563,2.14062 0.28125,0.96875 0.82812,1.67188 0.5625,0.6875 1.375,1.07812 0.82813,0.375 1.9375,0.375 1.26563,0 2.09375,-0.26562 0.84375,-0.26563 1.26563,-0.48438 l 0.48437,1.53125 q -0.14062,0.0937 -0.48437,0.23438 -0.34375,0.14062 -0.85938,0.28125 -0.5,0.125 -1.1875,0.21875 -0.6875,0.0937 -1.48437,0.0937 z"
       id="path15"
       inkscape:connector-curvature="0"
       style="fill:#000000;fill-rule:nonzero;stroke:none;stroke-linecap:square;stroke-miterlimit:10" />
    <path
       d="m 411.96781,383.09061 0,0 c 0,-21.23904 18.13422,-38.4567 40.50394,-38.4567 l 0,0 c 10.74231,0 21.04461,4.05169 28.64062,11.26371 7.59595,7.21203 11.86328,16.99363 11.86328,27.19299 l 0,0 c 0,21.23904 -18.13421,38.4567 -40.5039,38.4567 l 0,0 c -22.36972,0 -40.50394,-17.21766 -40.50394,-38.4567 z"
       id="path17"
       inkscape:connector-curvature="0"
       style="fill:#cfe2f3;fill-rule:evenodd;stroke:none;stroke-linecap:square;stroke-miterlimit:10" />
    <path
       d="m 411.96781,383.09061 0,0 c 0,-21.23904 18.13422,-38.4567 40.50394,-38.4567 l 0,0 c 10.74231,0 21.04461,4.05169 28.64062,11.26371 7.59595,7.21203 11.86328,16.99363 11.86328,27.19299 l 0,0 c 0,21.23904 -18.13421,38.4567 -40.5039,38.4567 l 0,0 c -22.36972,0 -40.50394,-17.21766 -40.50394,-38.4567 z"
       id="path19"
       inkscape:connector-curvature="0"
       style="fill:none;fill-rule:evenodd;stroke:#000000;stroke-width:1;stroke-linecap:butt;stroke-linejoin:round;stroke-miterlimit:10" />
    <path
       d="m 441.84781,378.87498 1.64062,0 0,9.01562 -1.64062,0 0,-9.01562 z m 5.04803,5.59375 q 0,1.04687 0.48438,1.64062 0.5,0.57813 1.375,0.57813 0.375,0 0.64062,-0.0312 0.26563,-0.0312 0.4375,-0.0625 l 0,-3.90625 q -0.20312,-0.14063 -0.54687,-0.26563 -0.34375,-0.125 -0.73438,-0.125 -0.85937,0 -1.26562,0.59375 -0.39063,0.57813 -0.39063,1.57813 z m 4.51563,3.21875 q -0.46875,0.14062 -1.1875,0.25 -0.70313,0.125 -1.48438,0.125 -0.79687,0 -1.4375,-0.25 -0.64062,-0.25 -1.09375,-0.70313 -0.4375,-0.46875 -0.6875,-1.125 -0.23437,-0.65625 -0.23437,-1.46875 0,-0.8125 0.20312,-1.46875 0.20313,-0.65625 0.59375,-1.125 0.39063,-0.46875 0.9375,-0.71875 0.5625,-0.25 1.29688,-0.25 0.48437,0 0.85937,0.125 0.39063,0.10938 0.65625,0.25 l 0,-3.26562 1.57813,-0.26563 0,9.89063 z m 4.55292,0.32812 q -0.6875,-0.0156 -1.15625,-0.15625 -0.46875,-0.14062 -0.73438,-0.40625 -0.26562,-0.26562 -0.39062,-0.65625 -0.10938,-0.40625 -0.10938,-0.90625 l 0,-7.82812 1.57813,-0.26563 0,7.79688 q 0,0.28125 0.0469,0.48437 0.0469,0.1875 0.15625,0.32813 0.125,0.125 0.32813,0.20312 0.20312,0.0781 0.51562,0.10938 l -0.23437,1.29687 z m 1.22406,-3.48437 q 0,-0.90625 0.26562,-1.57813 0.26563,-0.67187 0.70313,-1.125 0.45312,-0.45312 1.01562,-0.67187 0.5781,-0.23438 1.17185,-0.23438 1.40625,0 2.1875,0.875 0.79687,0.875 0.79687,2.59375 0,0.14063 -0.0156,0.29688 0,0.15625 -0.0156,0.29687 l -4.48434,0 q 0.0625,0.8125 0.57812,1.26563 0.5156,0.4375 1.48435,0.4375 0.57812,0 1.04687,-0.0937 0.48438,-0.10938 0.75,-0.21875 l 0.20313,1.28125 q -0.125,0.0625 -0.35938,0.14062 -0.21875,0.0625 -0.51562,0.125 -0.29688,0.0625 -0.64063,0.0937 -0.32812,0.0469 -0.67187,0.0469 -0.90625,0 -1.5781,-0.26563 -0.65625,-0.26562 -1.07812,-0.73437 -0.42188,-0.48438 -0.64063,-1.125 -0.20312,-0.64063 -0.20312,-1.40625 z m 4.56247,-0.70313 q 0,-0.32812 -0.0937,-0.625 -0.0937,-0.29687 -0.26563,-0.5 -0.17187,-0.21875 -0.4375,-0.34375 -0.25,-0.125 -0.59375,-0.125 -0.35937,0 -0.64062,0.14063 -0.2656,0.14062 -0.4531,0.35937 -0.1875,0.21875 -0.29687,0.5 -0.10938,0.28125 -0.14063,0.59375 l 2.92185,0 z"
       id="path21"
       inkscape:connector-curvature="0"
       style="fill:#000000;fill-rule:nonzero;stroke:none;stroke-linecap:square;stroke-miterlimit:10" />
    <path
       d="m 316.8418,459.99611 c 67.81103,0 135.62207,-19.22836 135.62207,-38.4567"
       id="path23"
       inkscape:connector-curvature="0"
       style="fill:#000000;fill-opacity:0;fill-rule:evenodd;stroke:none;stroke-linecap:square;stroke-miterlimit:10" />
    <path
       d="m 328.84018,459.79811 0.69962,-0.0226 c 4.22168,-0.14554 8.42672,-0.36148 12.59869,-0.64313 8.34393,-0.56336 16.55542,-1.38956 24.50204,-2.4411 15.89319,-2.10312 30.72687,-5.10755 43.44144,-8.71286 25.42914,-7.21063 42.3819,-16.8248 42.3819,-26.43897"
       id="path25"
       inkscape:connector-curvature="0"
       style="fill:none;fill-rule:evenodd;stroke:#000000;stroke-width:2;stroke-linecap:butt;stroke-linejoin:round;stroke-miterlimit:10;stroke-dasharray:8, 6" />
    <path
       d="m 328.78568,456.49511 -9.02045,3.45276 9.12946,3.15326 z"
       id="path27"
       inkscape:connector-curvature="0"
       style="fill:#000000;fill-rule:evenodd;stroke:#000000;stroke-width:2;stroke-linecap:butt;stroke-miterlimit:10" />
    <path
       d="m 324.68695,449.62341 90.99213,0 0,43.74802 -90.99213,0 z"
       id="path29"
       inkscape:connector-curvature="0"
       style="fill:#000000;fill-opacity:0;fill-rule:evenodd;stroke:none;stroke-linecap:square;stroke-miterlimit:10" />
    <path
       d="m 345.80008,466.90777 q 0,-1.15625 0.34375,-2.03125 0.34375,-0.89062 0.9375,-1.48437 0.59375,-0.59375 1.375,-0.89063 0.79687,-0.29687 1.67187,-0.29687 0.875,0 1.64063,0.29687 0.78125,0.29688 1.35937,0.89063 0.59375,0.59375 0.9375,1.48437 0.34375,0.875 0.34375,2.03125 0,1.01563 -0.26562,1.8125 -0.25,0.79688 -0.71875,1.375 -0.45313,0.57813 -1.07813,0.9375 -0.60937,0.35938 -1.3125,0.48438 0.0156,0.29687 0.26563,0.51562 0.25,0.23438 0.64062,0.39063 0.39063,0.15625 0.85938,0.25 0.48437,0.10937 0.96875,0.17187 l -0.29688,0.98438 q -0.67187,-0.0937 -1.29687,-0.25 -0.60938,-0.14063 -1.10938,-0.39063 -0.5,-0.25 -0.84375,-0.64062 -0.32812,-0.375 -0.45312,-0.9375 -0.8125,-0.0625 -1.54688,-0.39063 -0.73437,-0.32812 -1.26562,-0.92187 -0.53125,-0.59375 -0.84375,-1.4375 -0.3125,-0.84375 -0.3125,-1.95313 z m 1.32812,0 q 0,0.82813 0.20313,1.5 0.21875,0.65625 0.59375,1.125 0.39062,0.46875 0.9375,0.73438 0.5625,0.25 1.25,0.25 0.6875,0 1.23437,-0.25 0.54688,-0.26563 0.92188,-0.73438 0.39062,-0.46875 0.59375,-1.125 0.20312,-0.67187 0.20312,-1.5 0,-0.8125 -0.20312,-1.48437 -0.20313,-0.67188 -0.59375,-1.14063 -0.375,-0.46875 -0.92188,-0.71875 -0.54687,-0.25 -1.23437,-0.25 -0.6875,0 -1.25,0.25 -0.54688,0.25 -0.9375,0.71875 -0.375,0.46875 -0.59375,1.14063 -0.20313,0.67187 -0.20313,1.48437 z m 8.24424,5.89063 6.5,0 0,1.03125 -6.5,0 0,-1.03125 z m 7.35431,-5.89063 q 0,-1.15625 0.34375,-2.03125 0.34375,-0.89062 0.9375,-1.48437 0.59375,-0.59375 1.375,-0.89063 0.79687,-0.29687 1.67187,-0.29687 0.875,0 1.64063,0.29687 0.78125,0.29688 1.35937,0.89063 0.59375,0.59375 0.9375,1.48437 0.34375,0.875 0.34375,2.03125 0,1.15625 -0.34375,2.04688 -0.34375,0.875 -0.9375,1.46875 -0.57812,0.59375 -1.35937,0.89062 -0.76563,0.29688 -1.64063,0.29688 -0.875,0 -1.67187,-0.29688 -0.78125,-0.29687 -1.375,-0.89062 -0.59375,-0.59375 -0.9375,-1.46875 -0.34375,-0.89063 -0.34375,-2.04688 z m 1.32812,0 q 0,0.82813 0.20313,1.5 0.21875,0.65625 0.59375,1.125 0.39062,0.46875 0.9375,0.73438 0.5625,0.25 1.25,0.25 0.6875,0 1.23437,-0.25 0.54688,-0.26563 0.92188,-0.73438 0.39062,-0.46875 0.59375,-1.125 0.20312,-0.67187 0.20312,-1.5 0,-0.8125 -0.20312,-1.48437 -0.20313,-0.67188 -0.59375,-1.14063 -0.375,-0.46875 -0.92188,-0.71875 -0.54687,-0.25 -1.23437,-0.25 -0.6875,0 -1.25,0.25 -0.54688,0.25 -0.9375,0.71875 -0.375,0.46875 -0.59375,1.14063 -0.20313,0.67187 -0.20313,1.48437 z m 14.71298,4.32813 q -0.42187,0.0937 -1.10937,0.20312 -0.67188,0.125 -1.5625,0.125 -0.78125,0 -1.32813,-0.21875 -0.53125,-0.23437 -0.85937,-0.64062 -0.3125,-0.42188 -0.45313,-0.98438 -0.14062,-0.57812 -0.14062,-1.26562 l 0,-3.79688 1.20312,0 0,3.54688 q 0,1.23437 0.39063,1.76562 0.39062,0.53125 1.3125,0.53125 0.1875,0 0.39062,-0.0156 0.21875,-0.0156 0.39063,-0.0312 0.1875,-0.0156 0.32812,-0.0312 0.15625,-0.0312 0.23438,-0.0469 l 0,-5.71875 1.20312,0 0,6.57813 z m 3.40033,-6.57813 2.5625,0 0,1.01563 -2.5625,0 0,3.125 q 0,0.5 0.0781,0.84375 0.0781,0.32812 0.23437,0.51562 0.15625,0.1875 0.39063,0.26563 0.23437,0.0781 0.54687,0.0781 0.54688,0 0.875,-0.125 0.32813,-0.125 0.46875,-0.17187 l 0.21875,1 q -0.17187,0.0937 -0.625,0.21875 -0.45312,0.14062 -1.04687,0.14062 -0.6875,0 -1.14063,-0.17187 -0.4375,-0.17188 -0.71875,-0.51563 -0.26562,-0.35937 -0.375,-0.875 -0.10937,-0.51562 -0.10937,-1.1875 l 0,-6.03125 1.20312,-0.21875 0,2.09375 z m 6.95227,3.75 5.95313,0 0,1.03125 -5.95313,0 0,-1.03125 z m 0,-2.76562 5.95313,0 0,1.01562 -5.95313,0 0,-1.01562 z m 10.9552,-0.78125 q 0.40625,-0.10938 1.09375,-0.21875 0.6875,-0.125 1.59375,-0.125 0.79688,0 1.32813,0.23437 0.54687,0.21875 0.85937,0.64063 0.3125,0.40625 0.4375,0.98437 0.14063,0.5625 0.14063,1.25 l 0,3.79688 -1.20313,0 0,-3.53125 q 0,-0.625 -0.0937,-1.0625 -0.0781,-0.45313 -0.28125,-0.71875 -0.1875,-0.28125 -0.51562,-0.40625 -0.32813,-0.125 -0.8125,-0.125 -0.1875,0 -0.40625,0.0156 -0.20313,0.0156 -0.39063,0.0469 -0.1875,0.0156 -0.34375,0.0469 -0.14062,0.0156 -0.20312,0.0312 l 0,5.70313 -1.20313,0 0,-6.5625 z"
       id="path31"
       inkscape:connector-curvature="0"
       style="fill:#000000;fill-rule:nonzero;stroke:none;stroke-linecap:square;stroke-miterlimit:10" />
    <path
       d="m 339.24775,480.86091 q 0.40625,-0.10938 1.09375,-0.21875 0.6875,-0.125 1.59375,-0.125 0.79687,0 1.32812,0.23437 0.54688,0.21875 0.85938,0.64063 0.3125,0.40625 0.4375,0.98437 0.14062,0.5625 0.14062,1.25 l 0,3.79688 -1.20312,0 0,-3.53125 q 0,-0.625 -0.0937,-1.0625 -0.0781,-0.45313 -0.28125,-0.71875 -0.1875,-0.28125 -0.51563,-0.40625 -0.32812,-0.125 -0.8125,-0.125 -0.1875,0 -0.40625,0.0156 -0.20312,0.0156 -0.39062,0.0469 -0.1875,0.0156 -0.34375,0.0469 -0.14063,0.0156 -0.20313,0.0312 l 0,5.70313 -1.20312,0 0,-6.5625 z"
       id="path33"
       inkscape:connector-curvature="0"
       style="fill:#000000;fill-rule:nonzero;stroke:none;stroke-linecap:square;stroke-miterlimit:10" />
    <path
       d="m 354.16433,487.42341 -1.76562,0 q -1.54688,0 -2.29688,-0.95313 -0.6875,-0.875 -0.65625,-2.42187 0.0156,-1.53125 0.73438,-2.40625 0.79687,-0.95313 2.32812,-0.95313 l 1.65625,0 0,0.98438 -1.71875,0 q -0.8125,0 -1.29687,0.53125 -0.4375,0.48437 -0.53125,1.29687 l 2.375,0 0,0.9375 -2.375,0 q 0.1875,2 1.84375,2 l 1.70312,0 0,0.98438 z"
       id="path35"
       inkscape:connector-curvature="0"
       style="fill:#000000;fill-rule:nonzero;stroke:none;stroke-linecap:square;stroke-miterlimit:10" />
    <path
       d="m 358.41401,483.06401 q 0.3125,0 0.53125,-0.10938 0.23437,-0.10937 0.375,-0.28125 0.15625,-0.17187 0.21875,-0.39062 0.0781,-0.23438 0.0781,-0.46875 l 0,-2.34375 q 0,-0.53125 0.10938,-0.95313 0.125,-0.42187 0.40625,-0.6875 0.28125,-0.28125 0.75,-0.42187 0.48437,-0.15625 1.1875,-0.15625 l 0.0469,0 0,0.9375 q -0.73437,0 -1.0625,0.26562 -0.3125,0.26563 -0.3125,1.03125 l 0,2 q 0,0.85938 -0.23437,1.32813 -0.21875,0.46875 -0.64063,0.71875 0.42188,0.26562 0.64063,0.73437 0.23437,0.46875 0.23437,1.32813 l 0,2 q 0,0.75 0.3125,1.01562 0.32813,0.26563 1.0625,0.26563 l 0,0.95312 -0.0469,0 q -0.70313,0 -1.1875,-0.14062 -0.46875,-0.14063 -0.75,-0.4375 -0.28125,-0.28125 -0.40625,-0.70313 -0.10938,-0.40625 -0.10938,-0.9375 l 0,-2.34375 q 0,-0.23437 -0.0781,-0.45312 -0.0625,-0.23438 -0.21875,-0.40625 -0.14063,-0.1875 -0.375,-0.29688 -0.21875,-0.10937 -0.53125,-0.10937 l 0,-0.9375 z m 5.12573,-2.79688 q 0.75,-0.28125 1.45313,-0.71875 0.70312,-0.45312 1.28125,-1.14062 l 0.85937,0 0,9.01562 -1.20312,0 0,-7.32812 q -0.15625,0.14062 -0.39063,0.29687 -0.21875,0.15625 -0.5,0.29688 -0.26562,0.14062 -0.5625,0.28125 -0.28125,0.125 -0.54687,0.21875 l -0.39063,-0.92188 z m 8.62641,5.67188 q 0.0156,0.10937 0.0156,0.20312 0,0.0937 0,0.20313 0,0.8125 -0.25,1.60937 -0.23437,0.8125 -0.64062,1.53125 l -0.9375,-0.29687 q 0.3125,-0.65625 0.42187,-1.34375 0.10938,-0.6875 0.10938,-1.28125 0,-0.17188 -0.0156,-0.32813 0,-0.15625 -0.0156,-0.29687 l 1.3125,0 z m 7.04434,-5.21875 q 0,0.46875 -0.20313,0.90625 -0.1875,0.42187 -0.5,0.84375 -0.3125,0.42187 -0.70312,0.84375 -0.375,0.40625 -0.76563,0.79687 -0.23437,0.21875 -0.53125,0.51563 -0.28125,0.29687 -0.54687,0.625 -0.25,0.32812 -0.4375,0.625 -0.17188,0.29687 -0.17188,0.51562 l 4.15625,0 0,1.03125 -5.46875,0 q -0.0156,-0.0781 -0.0156,-0.15625 0,-0.0781 0,-0.14062 0,-0.60938 0.20312,-1.14063 0.20313,-0.53125 0.53125,-1 0.32813,-0.46875 0.71875,-0.875 0.40625,-0.42187 0.79688,-0.8125 0.32812,-0.3125 0.625,-0.60937 0.29687,-0.3125 0.51562,-0.60938 0.23438,-0.3125 0.35938,-0.64062 0.14062,-0.32813 0.14062,-0.6875 0,-0.39063 -0.125,-0.65625 -0.125,-0.28125 -0.32812,-0.45313 -0.20313,-0.1875 -0.48438,-0.26562 -0.28125,-0.0937 -0.59375,-0.0937 -0.375,0 -0.6875,0.10937 -0.3125,0.0937 -0.5625,0.23438 -0.25,0.14062 -0.42187,0.29687 -0.15625,0.14063 -0.25,0.21875 l -0.59375,-0.85937 q 0.10937,-0.125 0.34375,-0.3125 0.23437,-0.1875 0.5625,-0.35938 0.32812,-0.17187 0.71875,-0.28125 0.40625,-0.125 0.875,-0.125 1.42187,0 2.125,0.65625 0.71875,0.65625 0.71875,1.85938 z m 3.7514,5.21875 q 0.0156,0.10937 0.0156,0.20312 0,0.0937 0,0.20313 0,0.8125 -0.25,1.60937 -0.23438,0.8125 -0.64063,1.53125 l -0.9375,-0.29687 q 0.3125,-0.65625 0.42188,-1.34375 0.10937,-0.6875 0.10937,-1.28125 0,-0.17188 -0.0156,-0.32813 0,-0.15625 -0.0156,-0.29687 l 1.3125,0 z m 3.90369,0.59375 q 1.15625,0 1.65625,-0.45313 0.5,-0.45312 0.5,-1.21875 0,-0.5 -0.20313,-0.82812 -0.20312,-0.34375 -0.54687,-0.54688 -0.34375,-0.20312 -0.79688,-0.28125 -0.4375,-0.0781 -0.90625,-0.0781 l -0.3125,0 0,-1 0.42188,0 q 0.32812,0 0.67187,-0.0625 0.34375,-0.0625 0.625,-0.23438 0.29688,-0.17187 0.46875,-0.45312 0.1875,-0.29688 0.1875,-0.73438 0,-0.375 -0.125,-0.625 -0.125,-0.26562 -0.34375,-0.4375 -0.21875,-0.17187 -0.5,-0.23437 -0.28125,-0.0781 -0.59375,-0.0781 -0.625,0 -1.0625,0.1875 -0.42187,0.1875 -0.71875,0.375 l -0.46875,-0.92187 q 0.15625,-0.10938 0.39063,-0.21875 0.23437,-0.125 0.53125,-0.23438 0.3125,-0.10937 0.65625,-0.17187 0.34375,-0.0781 0.71875,-0.0781 0.71875,0 1.23437,0.1875 0.51563,0.17188 0.84375,0.48438 0.34375,0.3125 0.51563,0.75 0.17187,0.4375 0.17187,0.95312 0,0.6875 -0.40625,1.20313 -0.40625,0.5 -0.96875,0.75 0.34375,0.10937 0.67188,0.3125 0.32812,0.1875 0.5625,0.48437 0.25,0.29688 0.39062,0.6875 0.15625,0.39063 0.15625,0.875 0,0.57813 -0.20312,1.07813 -0.20313,0.5 -0.625,0.875 -0.42188,0.35937 -1.0625,0.5625 -0.64063,0.20312 -1.5,0.20312 -0.34375,0 -0.70313,-0.0469 -0.35937,-0.0469 -0.67187,-0.125 -0.3125,-0.0781 -0.54688,-0.15625 -0.23437,-0.0781 -0.32812,-0.125 l 0.23437,-1.0625 q 0.21875,0.10937 0.73438,0.28125 0.51562,0.15625 1.25,0.15625 z m 6.89203,-0.59375 q 0.0156,0.10937 0.0156,0.20312 0,0.0937 0,0.20313 0,0.8125 -0.25,1.60937 -0.23437,0.8125 -0.64062,1.53125 l -0.9375,-0.29687 q 0.3125,-0.65625 0.42187,-1.34375 0.10938,-0.6875 0.10938,-1.28125 0,-0.17188 -0.0156,-0.32813 0,-0.15625 -0.0156,-0.29687 l 1.3125,0 z m 1.48184,-1.64063 q 0.25,-0.5625 0.67187,-1.32812 0.4375,-0.76563 0.96875,-1.5625 0.54688,-0.8125 1.15625,-1.59375 0.625,-0.78125 1.25,-1.40625 l 1.15625,0 0,5.73437 1.0625,0 0,0.98438 -1.0625,0 0,2.29687 -1.17187,0 0,-2.29687 -4.03125,0 0,-0.82813 z m 4.03125,-4.45312 q -0.39063,0.42187 -0.79688,0.9375 -0.39062,0.5 -0.76562,1.0625 -0.375,0.5625 -0.70313,1.15625 -0.32812,0.57812 -0.59375,1.14062 l 2.85938,0 0,-4.29687 z m 6.78265,4.15625 q -0.3125,0 -0.53125,0.10937 -0.21875,0.10938 -0.375,0.29688 -0.15625,0.17187 -0.23437,0.40625 -0.0625,0.21875 -0.0625,0.45312 l 0,2.34375 q 0,0.53125 -0.125,0.9375 -0.10938,0.42188 -0.39063,0.70313 -0.28125,0.29687 -0.76562,0.4375 -0.46875,0.14062 -1.17188,0.14062 l -0.0469,0 0,-0.95312 q 0.73437,0 1.04687,-0.26563 0.32813,-0.26562 0.32813,-1.01562 l 0,-2 q 0,-0.85938 0.21875,-1.32813 0.23437,-0.46875 0.65625,-0.73437 -0.42188,-0.25 -0.65625,-0.71875 -0.21875,-0.46875 -0.21875,-1.32813 l 0,-2 q 0,-0.76562 -0.32813,-1.03125 -0.3125,-0.26562 -1.04687,-0.26562 l 0,-0.9375 0.0469,0 q 0.70313,0 1.17188,0.15625 0.48437,0.14062 0.76562,0.42187 0.28125,0.26563 0.39063,0.6875 0.125,0.42188 0.125,0.95313 l 0,2.34375 q 0,0.23437 0.0625,0.46875 0.0781,0.21875 0.23437,0.39062 0.15625,0.17188 0.375,0.28125 0.21875,0.10938 0.53125,0.10938 l 0,0.9375 z"
       id="path37"
       inkscape:connector-curvature="0"
       style="fill:#000000;fill-rule:nonzero;stroke:none;stroke-linecap:square;stroke-miterlimit:10" />
    <path
       d="m 105.68433,435.63391 81.00787,0 0,30.01575 -81.00787,0 z"
       id="path39"
       inkscape:connector-curvature="0"
       style="fill:#6d9eeb;fill-rule:evenodd;stroke:none;stroke-linecap:square;stroke-miterlimit:10" />
    <path
       d="m 105.68433,435.63391 81.00787,0 0,30.01575 -81.00787,0 z"
       id="path41"
       inkscape:connector-curvature="0"
       style="fill:none;fill-rule:evenodd;stroke:#000000;stroke-width:2;stroke-linecap:butt;stroke-linejoin:round;stroke-miterlimit:10" />
    <path
       d="m 116.50548,450.96801 q 0,-1.6875 0.5,-2.98438 0.5,-1.29687 1.35937,-2.15625 0.875,-0.85937 2.01563,-1.29687 1.15625,-0.4375 2.4375,-0.4375 1.28125,0 2.40625,0.4375 1.14062,0.4375 1.98437,1.29687 0.85938,0.85938 1.35938,2.15625 0.51562,1.29688 0.51562,2.98438 0,1.48437 -0.39062,2.64062 -0.375,1.15625 -1.04688,2 -0.67187,0.84375 -1.57812,1.375 -0.90625,0.51563 -1.9375,0.71875 0.0312,0.42188 0.39062,0.75 0.375,0.34375 0.9375,0.5625 0.57813,0.23438 1.28125,0.39063 0.70313,0.15625 1.40625,0.23437 l -0.4375,1.4375 q -0.98437,-0.14062 -1.89062,-0.35937 -0.90625,-0.21875 -1.64063,-0.57813 -0.71875,-0.35937 -1.21875,-0.92187 -0.5,-0.54688 -0.67187,-1.39063 -1.1875,-0.0781 -2.25,-0.5625 -1.0625,-0.48437 -1.84375,-1.34375 -0.78125,-0.875 -1.23438,-2.10937 -0.45312,-1.23438 -0.45312,-2.84375 z m 1.9375,0 q 0,1.20312 0.29687,2.1875 0.29688,0.96875 0.85938,1.65625 0.5625,0.67187 1.375,1.04687 0.8125,0.375 1.8125,0.375 1,0 1.79687,-0.375 0.8125,-0.375 1.35938,-1.04687 0.5625,-0.6875 0.85937,-1.65625 0.3125,-0.98438 0.3125,-2.1875 0,-1.20313 -0.3125,-2.17188 -0.29687,-0.98437 -0.85937,-1.65625 -0.54688,-0.6875 -1.35938,-1.0625 -0.79687,-0.375 -1.79687,-0.375 -1,0 -1.8125,0.375 -0.8125,0.375 -1.375,1.0625 -0.5625,0.67188 -0.85938,1.65625 -0.29687,0.96875 -0.29687,2.17188 z m 11.38957,8.60937 9.5,0 0,1.5 -9.5,0 0,-1.5 z m 10.36638,-8.60937 q 0,-1.6875 0.5,-2.98438 0.5,-1.29687 1.35938,-2.15625 0.875,-0.85937 2.01562,-1.29687 1.15625,-0.4375 2.4375,-0.4375 1.28125,0 2.40625,0.4375 1.14063,0.4375 1.98438,1.29687 0.85937,0.85938 1.35937,2.15625 0.51563,1.29688 0.51563,2.98438 0,1.6875 -0.51563,2.98437 -0.5,1.29688 -1.35937,2.15625 -0.84375,0.85938 -1.98438,1.29688 -1.125,0.4375 -2.40625,0.4375 -1.28125,0 -2.4375,-0.4375 -1.14062,-0.4375 -2.01562,-1.29688 -0.85938,-0.85937 -1.35938,-2.15625 -0.5,-1.29687 -0.5,-2.98437 z m 1.9375,0 q 0,1.20312 0.29688,2.1875 0.29687,0.96875 0.85937,1.65625 0.5625,0.67187 1.375,1.04687 0.8125,0.375 1.8125,0.375 1,0 1.79688,-0.375 0.8125,-0.375 1.35937,-1.04687 0.5625,-0.6875 0.85938,-1.65625 0.3125,-0.98438 0.3125,-2.1875 0,-1.20313 -0.3125,-2.17188 -0.29688,-0.98437 -0.85938,-1.65625 -0.54687,-0.6875 -1.35937,-1.0625 -0.79688,-0.375 -1.79688,-0.375 -1,0 -1.8125,0.375 -0.8125,0.375 -1.375,1.0625 -0.5625,0.67188 -0.85937,1.65625 -0.29688,0.96875 -0.29688,2.17188 z m 17.99895,6.875 q -1.28125,0 -2.23438,-0.39063 -0.95312,-0.40625 -1.5625,-1.09375 -0.60937,-0.70312 -0.90625,-1.64062 -0.29687,-0.95313 -0.29687,-2.0625 l 0,-8.26563 1.84375,0 0,8.0625 q 0,1.96875 0.875,2.875 0.875,0.89063 2.28125,0.89063 0.70312,0 1.28125,-0.21875 0.57812,-0.21875 1,-0.67188 0.42187,-0.46875 0.64062,-1.17187 0.23438,-0.71875 0.23438,-1.70313 l 0,-8.0625 1.84375,0 0,8.26563 q 0,1.10937 -0.29688,2.0625 -0.29687,0.9375 -0.92187,1.64062 -0.60938,0.6875 -1.54688,1.09375 -0.9375,0.39063 -2.23437,0.39063 z m 16.74176,-13.45313 0,1.59375 -4.15625,0 0,11.57813 -1.82813,0 0,-11.57813 -4.15625,0 0,-1.59375 10.14063,0 z"
       id="path43"
       inkscape:connector-curvature="0"
       style="fill:#000000;fill-rule:nonzero;stroke:none;stroke-linecap:square;stroke-miterlimit:10" />
    <path
       d="m 114.68433,294.06698 60,0 0,30.01575 -60,0 z"
       id="path45"
       inkscape:connector-curvature="0"
       style="fill:#6d9eeb;fill-rule:evenodd;stroke:none;stroke-linecap:square;stroke-miterlimit:10" />
    <path
       d="m 114.68433,294.06698 60,0 0,30.01575 -60,0 z"
       id="path47"
       inkscape:connector-curvature="0"
       style="fill:none;fill-rule:evenodd;stroke:#000000;stroke-width:2;stroke-linecap:butt;stroke-linejoin:round;stroke-miterlimit:10" />
    <path
       d="m 137.02481,302.82298 1.84375,0 0,13.17187 -1.84375,0 0,-13.17187 z m 14.03415,13.17187 q -0.42188,-0.70312 -0.96875,-1.57812 -0.53125,-0.875 -1.15625,-1.8125 -0.625,-0.9375 -1.29688,-1.90625 -0.67187,-0.96875 -1.34375,-1.875 -0.67187,-0.90625 -1.29687,-1.70313 -0.625,-0.79687 -1.15625,-1.40625 l 0,10.28125 -1.79688,0 0,-13.17187 1.45313,0 q 0.89062,0.95312 1.90625,2.21875 1.01562,1.26562 2.01562,2.60937 1,1.32813 1.875,2.625 0.89063,1.29688 1.5,2.29688 l 0,-9.75 1.8125,0 0,13.17187 -1.54687,0 z"
       id="path49"
       inkscape:connector-curvature="0"
       style="fill:#000000;fill-rule:nonzero;stroke:none;stroke-linecap:square;stroke-miterlimit:10" />
    <path
       d="m 235.83393,459.99611 0,0 c 0,-21.23904 18.13425,-38.4567 40.50394,-38.4567 l 0,0 c 10.74231,0 21.04464,4.05167 28.64062,11.26371 7.59595,7.21203 11.86331,16.99362 11.86331,27.19299 l 0,0 c 0,21.23904 -18.13421,38.45669 -40.50393,38.45669 l 0,0 c -22.36969,0 -40.50394,-17.21765 -40.50394,-38.45669 z"
       id="path51"
       inkscape:connector-curvature="0"
       style="fill:#cfe2f3;fill-rule:evenodd;stroke:none;stroke-linecap:square;stroke-miterlimit:10" />
    <path
       d="m 235.83393,459.99611 0,0 c 0,-21.23904 18.13425,-38.4567 40.50394,-38.4567 l 0,0 c 10.74231,0 21.04464,4.05167 28.64062,11.26371 7.59595,7.21203 11.86331,16.99362 11.86331,27.19299 l 0,0 c 0,21.23904 -18.13421,38.45669 -40.50393,38.45669 l 0,0 c -22.36969,0 -40.50394,-17.21765 -40.50394,-38.45669 z"
       id="path53"
       inkscape:connector-curvature="0"
       style="fill:none;fill-rule:evenodd;stroke:#000000;stroke-width:1;stroke-linecap:butt;stroke-linejoin:round;stroke-miterlimit:10" />
    <path
       d="m 260.76593,461.43674 q 0,0.98437 0.39062,1.57812 0.40625,0.57813 1.26563,0.57813 0.39062,0 0.73437,-0.125 0.34375,-0.125 0.54688,-0.26563 l 0,-3.89062 q -0.17188,-0.0469 -0.42188,-0.0781 -0.25,-0.0312 -0.65625,-0.0312 -0.875,0 -1.375,0.59375 -0.48437,0.59375 -0.48437,1.64063 z m -1.60938,-0.0312 q 0,-0.8125 0.23438,-1.46875 0.25,-0.65625 0.6875,-1.10938 0.45312,-0.46875 1.09375,-0.71875 0.64062,-0.25 1.4375,-0.25 0.8125,0 1.51562,0.125 0.70313,0.10938 1.15625,0.23438 l 0,8.98437 -1.57812,0 0,-2.64062 q -0.26563,0.14062 -0.67188,0.25 -0.39062,0.125 -0.875,0.125 -0.71875,0 -1.28125,-0.25 -0.5625,-0.25 -0.9375,-0.71875 -0.375,-0.46875 -0.57812,-1.10938 -0.20313,-0.65625 -0.20313,-1.45312 z m 13.89667,3.1875 q -0.45312,0.10937 -1.1875,0.23437 -0.71875,0.125 -1.59375,0.125 -0.8125,0 -1.375,-0.23437 -0.54687,-0.23438 -0.89062,-0.64063 -0.32813,-0.42187 -0.46875,-1 -0.14063,-0.57812 -0.14063,-1.26562 l 0,-3.8125 1.57813,0 0,3.5625 q 0,1.09375 0.3125,1.5625 0.32812,0.46875 1.10937,0.46875 0.29688,0 0.60938,-0.0312 0.3125,-0.0312 0.46875,-0.0625 l 0,-5.5 1.57812,0 0,6.59375 z m 1.81714,-3.15625 q 0,-0.90625 0.26563,-1.57813 0.26562,-0.67187 0.70312,-1.125 0.45313,-0.45312 1.01563,-0.67187 0.57812,-0.23438 1.17187,-0.23438 1.40625,0 2.1875,0.875 0.79688,0.875 0.79688,2.59375 0,0.14063 -0.0156,0.29688 0,0.15625 -0.0156,0.29687 l -4.48438,0 q 0.0625,0.8125 0.57813,1.26563 0.51562,0.4375 1.48437,0.4375 0.57813,0 1.04688,-0.0937 0.48437,-0.10938 0.75,-0.21875 l 0.20312,1.28125 q -0.125,0.0625 -0.35937,0.14062 -0.21875,0.0625 -0.51563,0.125 -0.29687,0.0625 -0.64062,0.0937 -0.32813,0.0469 -0.67188,0.0469 -0.90625,0 -1.57812,-0.26563 -0.65625,-0.26562 -1.07813,-0.73437 -0.42187,-0.48438 -0.64062,-1.125 -0.20313,-0.64063 -0.20313,-1.40625 z m 4.5625,-0.70313 q 0,-0.32812 -0.0937,-0.625 -0.0937,-0.29687 -0.26562,-0.5 -0.17188,-0.21875 -0.4375,-0.34375 -0.25,-0.125 -0.59375,-0.125 -0.35938,0 -0.64063,0.14063 -0.26562,0.14062 -0.45312,0.35937 -0.1875,0.21875 -0.29688,0.5 -0.10937,0.28125 -0.14062,0.59375 l 2.92187,0 z m 7.29782,-1.3125 q -0.1875,-0.0781 -0.54687,-0.14062 -0.34375,-0.0781 -0.79688,-0.0781 -0.25,0 -0.54687,0.0625 -0.29688,0.0469 -0.40625,0.0781 l 0,5.45312 -1.57813,0 0,-6.46875 q 0.45313,-0.17187 1.14063,-0.3125 0.6875,-0.15625 1.51562,-0.15625 0.15625,0 0.35938,0.0156 0.20312,0.0156 0.40625,0.0469 0.21875,0.0312 0.40625,0.0781 0.20312,0.0469 0.3125,0.0937 l -0.26563,1.32812 z m 7.04309,-1.42187 q -1.04687,3.875 -2.4375,7.01562 -0.26562,0.59375 -0.54687,1 -0.26563,0.42188 -0.60938,0.6875 -0.32812,0.28125 -0.75,0.40625 -0.40625,0.125 -0.95312,0.125 -0.35938,0 -0.71875,-0.0781 -0.35938,-0.0781 -0.54688,-0.17188 l 0.28125,-1.26562 q 0.46875,0.1875 0.9375,0.1875 0.60938,0 0.95313,-0.29688 0.34375,-0.29687 0.59375,-0.90625 -0.73438,-1.42187 -1.42188,-3.10937 -0.67187,-1.70313 -1.21875,-3.59375 l 1.6875,0 q 0.125,0.54687 0.3125,1.1875 0.1875,0.625 0.40625,1.28125 0.23438,0.65625 0.46875,1.3125 0.25,0.65625 0.5,1.20312 0.42188,-1.15625 0.78125,-2.45312 0.35938,-1.3125 0.65625,-2.53125 l 1.625,0 z"
       id="path55"
       inkscape:connector-curvature="0"
       style="fill:#000000;fill-rule:nonzero;stroke:none;stroke-linecap:square;stroke-miterlimit:10" />
    <path
       d="m 190.68564,357.81239 0,0 c 0,-24.19617 20.36926,-43.81104 45.49606,-43.81104 l 0,0 c 12.06629,0 23.6384,4.6158 32.17057,12.83196 8.53216,8.21617 13.3255,19.35966 13.3255,30.97908 l 0,0 c 0,24.19615 -20.3693,43.81102 -45.49607,43.81102 l 0,0 c -25.1268,0 -45.49606,-19.61487 -45.49606,-43.81102 z"
       id="path57"
       inkscape:connector-curvature="0"
       style="fill:#cfe2f3;fill-rule:evenodd;stroke:none;stroke-linecap:square;stroke-miterlimit:10" />
    <path
       d="m 190.68564,357.81239 0,0 c 0,-24.19617 20.36926,-43.81104 45.49606,-43.81104 l 0,0 c 12.06629,0 23.6384,4.6158 32.17057,12.83196 8.53216,8.21617 13.3255,19.35966 13.3255,30.97908 l 0,0 c 0,24.19615 -20.3693,43.81102 -45.49607,43.81102 l 0,0 c -25.1268,0 -45.49606,-19.61487 -45.49606,-43.81102 z"
       id="path59"
       inkscape:connector-curvature="0"
       style="fill:none;fill-rule:evenodd;stroke:#000000;stroke-width:1;stroke-linecap:butt;stroke-linejoin:round;stroke-miterlimit:10" />
    <path
       d="m 219.16037,361.50302 q 0.73437,0 1.10937,-0.0781 l 0,-1.73437 q -0.125,-0.0469 -0.375,-0.0781 -0.25,-0.0469 -0.54687,-0.0469 -0.26563,0 -0.53125,0.0469 -0.26563,0.0312 -0.48438,0.14063 -0.20312,0.10937 -0.34375,0.29687 -0.125,0.1875 -0.125,0.46875 0,0.5625 0.34375,0.78125 0.35938,0.20313 0.95313,0.20313 z m -0.125,-5.85938 q 0.78125,0 1.3125,0.20313 0.53125,0.1875 0.84375,0.54687 0.32812,0.34375 0.45312,0.84375 0.14063,0.5 0.14063,1.09375 l 0,4.125 q -0.35938,0.0781 -1.09375,0.1875 -0.73438,0.10938 -1.65625,0.10938 -0.60938,0 -1.125,-0.125 -0.5,-0.10938 -0.85938,-0.35938 -0.35937,-0.26562 -0.5625,-0.67187 -0.20312,-0.42188 -0.20312,-1.03125 0,-0.59375 0.21875,-0.98438 0.23437,-0.40625 0.625,-0.65625 0.39062,-0.26562 0.90625,-0.375 0.51562,-0.10937 1.07812,-0.10937 0.25,0 0.53125,0.0312 0.29688,0.0312 0.625,0.10937 l 0,-0.26562 q 0,-0.26563 -0.0625,-0.51563 -0.0625,-0.25 -0.23437,-0.4375 -0.15625,-0.1875 -0.42188,-0.28125 -0.26562,-0.10937 -0.67187,-0.10937 -0.54688,0 -1,0.0781 -0.45313,0.0781 -0.75,0.1875 l -0.1875,-1.28125 q 0.29687,-0.10937 0.85937,-0.20312 0.57813,-0.10938 1.23438,-0.10938 z m 4.47656,3.57813 q 0,-0.75 0.23438,-1.40625 0.23437,-0.65625 0.67187,-1.14063 0.4375,-0.48437 1.0625,-0.75 0.625,-0.28125 1.39063,-0.28125 0.96875,0 1.82812,0.35938 l -0.34375,1.28125 q -0.26562,-0.125 -0.60937,-0.20313 -0.34375,-0.0781 -0.73438,-0.0781 -0.92187,0 -1.40625,0.57812 -0.48437,0.57813 -0.48437,1.64063 0,1.01562 0.45312,1.60937 0.45313,0.57813 1.53125,0.57813 0.40625,0 0.79688,-0.0781 0.39062,-0.0781 0.67187,-0.1875 l 0.23438,1.29688 q -0.26563,0.14062 -0.79688,0.23437 -0.51562,0.10938 -1.07812,0.10938 -0.875,0 -1.51563,-0.26563 -0.64062,-0.26562 -1.0625,-0.73437 -0.42187,-0.48438 -0.64062,-1.14063 -0.20313,-0.65625 -0.20313,-1.42187 z m 6.29087,0 q 0,-0.75 0.23437,-1.40625 0.23438,-0.65625 0.67188,-1.14063 0.4375,-0.48437 1.0625,-0.75 0.625,-0.28125 1.39062,-0.28125 0.96875,0 1.82813,0.35938 l -0.34375,1.28125 q -0.26563,-0.125 -0.60938,-0.20313 -0.34375,-0.0781 -0.73437,-0.0781 -0.92188,0 -1.40625,0.57812 -0.48438,0.57813 -0.48438,1.64063 0,1.01562 0.45313,1.60937 0.45312,0.57813 1.53125,0.57813 0.40625,0 0.79687,-0.0781 0.39063,-0.0781 0.67188,-0.1875 l 0.23437,1.29688 q -0.26562,0.14062 -0.79687,0.23437 -0.51563,0.10938 -1.07813,0.10938 -0.875,0 -1.51562,-0.26563 -0.64063,-0.26562 -1.0625,-0.73437 -0.42188,-0.48438 -0.64063,-1.14063 -0.20312,-0.65625 -0.20312,-1.42187 z m 6.29083,0.0312 q 0,-0.90625 0.26562,-1.57813 0.26563,-0.67187 0.70313,-1.125 0.45312,-0.45312 1.01562,-0.67187 0.57813,-0.23438 1.17188,-0.23438 1.40625,0 2.1875,0.875 0.79687,0.875 0.79687,2.59375 0,0.14063 -0.0156,0.29688 0,0.15625 -0.0156,0.29687 l -4.48437,0 q 0.0625,0.8125 0.57812,1.26563 0.51563,0.4375 1.48438,0.4375 0.57812,0 1.04687,-0.0937 0.48438,-0.10938 0.75,-0.21875 l 0.20313,1.28125 q -0.125,0.0625 -0.35938,0.14062 -0.21875,0.0625 -0.51562,0.125 -0.29688,0.0625 -0.64063,0.0937 -0.32812,0.0469 -0.67187,0.0469 -0.90625,0 -1.57813,-0.26563 -0.65625,-0.26562 -1.07812,-0.73437 -0.42188,-0.48438 -0.64063,-1.125 -0.20312,-0.64063 -0.20312,-1.40625 z m 4.5625,-0.70313 q 0,-0.32812 -0.0937,-0.625 -0.0937,-0.29687 -0.26563,-0.5 -0.17187,-0.21875 -0.4375,-0.34375 -0.25,-0.125 -0.59375,-0.125 -0.35937,0 -0.64062,0.14063 -0.26563,0.14062 -0.45313,0.35937 -0.1875,0.21875 -0.29687,0.5 -0.10938,0.28125 -0.14063,0.59375 l 2.92188,0 z m 7.93847,0.70313 q 0,-1.0625 -0.48437,-1.64063 -0.46875,-0.59375 -1.51563,-0.59375 -0.23437,0 -0.46875,0.0312 -0.23437,0.0156 -0.46875,0.0781 l 0,3.89062 q 0.20313,0.14063 0.54688,0.26563 0.34375,0.125 0.73437,0.125 0.85938,0 1.25,-0.57813 0.40625,-0.59375 0.40625,-1.57812 z m 1.60938,-0.0312 q 0,0.78125 -0.20313,1.4375 -0.20312,0.64062 -0.57812,1.10937 -0.375,0.46875 -0.9375,0.73438 -0.5625,0.25 -1.28125,0.25 -0.48438,0 -0.89063,-0.125 -0.40625,-0.10938 -0.65625,-0.25 l 0,2.64062 -1.57812,0 0,-8.98437 q 0.48437,-0.125 1.1875,-0.23438 0.70312,-0.125 1.48437,-0.125 0.79688,0 1.4375,0.25 0.64063,0.23438 1.07813,0.70313 0.45312,0.45312 0.6875,1.10937 0.25,0.65625 0.25,1.48438 z m 1.74039,-5.20313 1.57812,-0.26562 0,2.0625 2.40625,0 0,1.3125 -2.40625,0 0,2.76562 q 0,0.82813 0.25,1.17188 0.26563,0.34375 0.89063,0.34375 0.42187,0 0.75,-0.0781 0.34375,-0.0937 0.53125,-0.17187 l 0.26562,1.25 q -0.28125,0.10937 -0.71875,0.23437 -0.4375,0.125 -1.03125,0.125 -0.73437,0 -1.21875,-0.1875 -0.48437,-0.20312 -0.78125,-0.5625 -0.28125,-0.375 -0.40625,-0.90625 -0.10937,-0.53125 -0.10937,-1.20312 l 0,-5.89063 z"
       id="path61"
       inkscape:connector-curvature="0"
       style="fill:#000000;fill-rule:nonzero;stroke:none;stroke-linecap:square;stroke-miterlimit:10" />
    <path
       d="m 297.67908,357.81239 0,0 c 0,-24.19617 20.36929,-43.81104 45.49606,-43.81104 l 0,0 c 12.06632,0 23.6384,4.6158 32.17057,12.83196 8.53216,8.21617 13.3255,19.35966 13.3255,30.97908 l 0,0 c 0,24.19615 -20.3693,43.81102 -45.49607,43.81102 l 0,0 c -25.12677,0 -45.49606,-19.61487 -45.49606,-43.81102 z"
       id="path63"
       inkscape:connector-curvature="0"
       style="fill:#cfe2f3;fill-rule:evenodd;stroke:none;stroke-linecap:square;stroke-miterlimit:10" />
    <path
       d="m 297.67908,357.81239 0,0 c 0,-24.19617 20.36929,-43.81104 45.49606,-43.81104 l 0,0 c 12.06632,0 23.6384,4.6158 32.17057,12.83196 8.53216,8.21617 13.3255,19.35966 13.3255,30.97908 l 0,0 c 0,24.19615 -20.3693,43.81102 -45.49607,43.81102 l 0,0 c -25.12677,0 -45.49606,-19.61487 -45.49606,-43.81102 z"
       id="path65"
       inkscape:connector-curvature="0"
       style="fill:none;fill-rule:evenodd;stroke:#000000;stroke-width:1;stroke-linecap:butt;stroke-linejoin:round;stroke-miterlimit:10" />
    <path
       d="m 322.96503,359.19052 q 0,1.04687 0.48438,1.64062 0.5,0.57813 1.375,0.57813 0.375,0 0.64062,-0.0312 0.26563,-0.0312 0.4375,-0.0625 l 0,-3.90625 q -0.20312,-0.14063 -0.54687,-0.26563 -0.34375,-0.125 -0.73438,-0.125 -0.85937,0 -1.26562,0.59375 -0.39063,0.57813 -0.39063,1.57813 z m 4.51563,3.21875 q -0.46875,0.14062 -1.1875,0.25 -0.70313,0.125 -1.48438,0.125 -0.79687,0 -1.4375,-0.25 -0.64062,-0.25 -1.09375,-0.70313 -0.4375,-0.46875 -0.6875,-1.125 -0.23437,-0.65625 -0.23437,-1.46875 0,-0.8125 0.20312,-1.46875 0.20313,-0.65625 0.59375,-1.125 0.39063,-0.46875 0.9375,-0.71875 0.5625,-0.25 1.29688,-0.25 0.48437,0 0.85937,0.125 0.39063,0.10938 0.65625,0.25 l 0,-3.26562 1.57813,-0.26563 0,9.89063 z m 1.81854,-3.15625 q 0,-0.90625 0.26562,-1.57813 0.26563,-0.67187 0.70313,-1.125 0.45312,-0.45312 1.01562,-0.67187 0.57813,-0.23438 1.17188,-0.23438 1.40625,0 2.1875,0.875 0.79687,0.875 0.79687,2.59375 0,0.14063 -0.0156,0.29688 0,0.15625 -0.0156,0.29687 l -4.48437,0 q 0.0625,0.8125 0.57812,1.26563 0.51563,0.4375 1.48438,0.4375 0.57812,0 1.04687,-0.0937 0.48438,-0.10938 0.75,-0.21875 l 0.20313,1.28125 q -0.125,0.0625 -0.35938,0.14062 -0.21875,0.0625 -0.51562,0.125 -0.29688,0.0625 -0.64063,0.0937 -0.32812,0.0469 -0.67187,0.0469 -0.90625,0 -1.57813,-0.26563 -0.65625,-0.26562 -1.07812,-0.73437 -0.42188,-0.48438 -0.64063,-1.125 -0.20312,-0.64063 -0.20312,-1.40625 z m 4.5625,-0.70313 q 0,-0.32812 -0.0937,-0.625 -0.0937,-0.29687 -0.26563,-0.5 -0.17187,-0.21875 -0.4375,-0.34375 -0.25,-0.125 -0.59375,-0.125 -0.35937,0 -0.64062,0.14063 -0.26563,0.14062 -0.45313,0.35937 -0.1875,0.21875 -0.29687,0.5 -0.10938,0.28125 -0.14063,0.59375 l 2.92188,0 z m 3.04782,0.67188 q 0,-0.75 0.23437,-1.40625 0.23438,-0.65625 0.67188,-1.14063 0.4375,-0.48437 1.0625,-0.75 0.625,-0.28125 1.39062,-0.28125 0.96875,0 1.82813,0.35938 l -0.34375,1.28125 q -0.26563,-0.125 -0.60938,-0.20313 -0.34375,-0.0781 -0.73437,-0.0781 -0.92188,0 -1.40625,0.57812 -0.48438,0.57813 -0.48438,1.64063 0,1.01562 0.45313,1.60937 0.45312,0.57813 1.53125,0.57813 0.40625,0 0.79687,-0.0781 0.39063,-0.0781 0.67188,-0.1875 l 0.23437,1.29688 q -0.26562,0.14062 -0.79687,0.23437 -0.51563,0.10938 -1.07813,0.10938 -0.875,0 -1.51562,-0.26563 -0.64063,-0.26562 -1.0625,-0.73437 -0.42188,-0.48438 -0.64063,-1.14063 -0.20312,-0.65625 -0.20312,-1.42187 z m 9.02524,3.51562 q -0.6875,-0.0156 -1.15625,-0.15625 -0.46875,-0.14062 -0.73438,-0.40625 -0.26562,-0.26562 -0.39062,-0.65625 -0.10938,-0.40625 -0.10938,-0.90625 l 0,-7.82812 1.57813,-0.26563 0,7.79688 q 0,0.28125 0.0469,0.48437 0.0469,0.1875 0.15625,0.32813 0.125,0.125 0.32813,0.20312 0.20312,0.0781 0.51562,0.10938 l -0.23437,1.29687 z m 3.19281,-0.125 -1.57813,0 0,-6.79687 1.57813,0 0,6.79687 z m 0.15625,-8.78125 q 0,0.4375 -0.28125,0.70313 -0.28125,0.25 -0.67188,0.25 -0.40625,0 -0.70312,-0.25 -0.28125,-0.26563 -0.28125,-0.70313 0,-0.46875 0.28125,-0.71875 0.29687,-0.26562 0.70312,-0.26562 0.39063,0 0.67188,0.26562 0.28125,0.25 0.28125,0.71875 z m 1.92852,2.20313 q 0.45313,-0.125 1.17188,-0.23438 0.73437,-0.125 1.625,-0.125 0.82812,0 1.39062,0.23438 0.5625,0.21875 0.89063,0.625 0.32812,0.40625 0.46875,0.98437 0.14062,0.57813 0.14062,1.26563 l 0,3.82812 -1.57812,0 0,-3.57812 q 0,-0.54688 -0.0781,-0.92188 -0.0625,-0.39062 -0.23437,-0.625 -0.15625,-0.25 -0.4375,-0.35937 -0.28125,-0.10938 -0.6875,-0.10938 -0.29688,0 -0.625,0.0469 -0.3125,0.0312 -0.46875,0.0625 l 0,5.48437 -1.57813,0 0,-6.57812 z m 7.42194,3.21875 q 0,-0.90625 0.26563,-1.57813 0.26562,-0.67187 0.70312,-1.125 0.45313,-0.45312 1.01563,-0.67187 0.57812,-0.23438 1.17187,-0.23438 1.40625,0 2.1875,0.875 0.79688,0.875 0.79688,2.59375 0,0.14063 -0.0156,0.29688 0,0.15625 -0.0156,0.29687 l -4.48438,0 q 0.0625,0.8125 0.57813,1.26563 0.51562,0.4375 1.48437,0.4375 0.57813,0 1.04688,-0.0937 0.48437,-0.10938 0.75,-0.21875 l 0.20312,1.28125 q -0.125,0.0625 -0.35937,0.14062 -0.21875,0.0625 -0.51563,0.125 -0.29687,0.0625 -0.64062,0.0937 -0.32813,0.0469 -0.67188,0.0469 -0.90625,0 -1.57812,-0.26563 -0.65625,-0.26562 -1.07813,-0.73437 -0.42187,-0.48438 -0.64062,-1.125 -0.20313,-0.64063 -0.20313,-1.40625 z m 4.5625,-0.70313 q 0,-0.32812 -0.0937,-0.625 -0.0937,-0.29687 -0.26562,-0.5 -0.17188,-0.21875 -0.4375,-0.34375 -0.25,-0.125 -0.59375,-0.125 -0.35938,0 -0.64063,0.14063 -0.26562,0.14062 -0.45312,0.35937 -0.1875,0.21875 -0.29688,0.5 -0.10937,0.28125 -0.14062,0.59375 l 2.92187,0 z"
       id="path67"
       inkscape:connector-curvature="0"
       style="fill:#000000;fill-rule:nonzero;stroke:none;stroke-linecap:square;stroke-miterlimit:10" />
    <path
       d="m 247.69727,432.80313 c 0,-10.61093 -2.8819,-17.32422 -5.76379,-21.22186 -2.88187,-3.89765 -5.76377,-4.97962 -5.76377,-9.95923"
       id="path69"
       inkscape:connector-curvature="0"
       style="fill:#000000;fill-opacity:0;fill-rule:evenodd;stroke:none;stroke-linecap:square;stroke-miterlimit:10" />
    <path
       d="m 247.69727,432.80313 c 0,-10.61093 -2.8819,-17.32422 -5.76379,-21.22186 -2.88187,-3.89765 -5.76377,-4.97962 -5.76377,-9.95923"
       id="path71"
       inkscape:connector-curvature="0"
       style="fill:none;fill-rule:evenodd;stroke:#000000;stroke-width:1;stroke-linecap:butt;stroke-linejoin:round;stroke-miterlimit:10" />
    <path
       d="m 304.97849,432.80313 c 0,-10.61093 9.55118,-17.32422 19.10236,-21.22186 9.55117,-3.89765 19.10235,-4.97962 19.10235,-9.95923"
       id="path73"
       inkscape:connector-curvature="0"
       style="fill:#000000;fill-opacity:0;fill-rule:evenodd;stroke:none;stroke-linecap:square;stroke-miterlimit:10" />
    <path
       d="m 304.97849,432.80313 c 0,-10.61093 9.55118,-17.32422 19.10236,-21.22186 9.55117,-3.89765 19.10235,-4.97962 19.10235,-9.95923"
       id="path75"
       inkscape:connector-curvature="0"
       style="fill:none;fill-rule:evenodd;stroke:#000000;stroke-width:1;stroke-linecap:butt;stroke-linejoin:round;stroke-miterlimit:10" />
    <path
       d="m 236.18171,314.00136 c 0,-24.6837 54.07086,-53.19812 108.14172,-49.36741 54.07086,3.83071 108.14172,40.00654 108.14172,80.01308"
       id="path77"
       inkscape:connector-curvature="0"
       style="fill:#000000;fill-opacity:0;fill-rule:evenodd;stroke:none;stroke-linecap:square;stroke-miterlimit:10" />
    <path
       d="m 236.18171,314.00136 c 0,-24.6837 54.07086,-53.19812 108.14172,-49.36741 54.07086,3.83071 108.14172,40.00654 108.14172,80.01308"
       id="path79"
       inkscape:connector-curvature="0"
       style="fill:none;fill-rule:evenodd;stroke:#000000;stroke-width:1;stroke-linecap:butt;stroke-linejoin:round;stroke-miterlimit:10;stroke-dasharray:4, 3" />
    <path
       d="m 343.17513,314.00136 c 0,-12.50006 27.32284,-28.83083 54.64566,-25.00012 27.32284,3.83072 54.64569,27.8229 54.64569,55.6458"
       id="path81"
       inkscape:connector-curvature="0"
       style="fill:#000000;fill-opacity:0;fill-rule:evenodd;stroke:none;stroke-linecap:square;stroke-miterlimit:10" />
    <path
       d="m 343.17513,314.00136 c 0,-12.50006 27.32284,-28.83083 54.64566,-25.00012 13.66144,1.91536 27.32284,8.87109 37.56891,18.82583 5.12302,4.97737 9.39221,10.7045 12.38065,16.92623 1.49423,3.11085 2.66824,6.34537 3.46872,9.6716 0.20013,0.83157 0.37689,1.66887 0.52948,2.5114 0.0763,0.42129 0.14654,0.84385 0.21063,1.26768 l 0.0659,0.45789"
       id="path83"
       inkscape:connector-curvature="0"
       style="fill:none;fill-rule:evenodd;stroke:#000000;stroke-width:1;stroke-linecap:butt;stroke-linejoin:round;stroke-miterlimit:10;stroke-dasharray:4, 3" />
    <path
       d="m 450.39737,338.77788 1.96643,4.41086 1.32889,-4.6429 z"
       id="path85"
       inkscape:connector-curvature="0"
       style="fill:#000000;fill-rule:evenodd;stroke:#000000;stroke-width:1;stroke-linecap:butt;stroke-miterlimit:10" />
    <path
       d="m 180.68695,265.62341 81.00787,0 0,30.01575 -81.00787,0 z"
       id="path87"
       inkscape:connector-curvature="0"
       style="fill:#000000;fill-opacity:0;fill-rule:evenodd;stroke:none;stroke-linecap:square;stroke-miterlimit:10" />
    <path
       d="m 195.02491,278.32967 q 1.89062,0 2.90625,0.71875 1.03125,0.71875 1.03125,2.14062 0,0.78125 -0.28125,1.34375 -0.28125,0.54688 -0.8125,0.89063 -0.51563,0.34375 -1.28125,0.5 -0.75,0.15625 -1.70313,0.15625 l -1,0 0,3.34375 -1.25,0 0,-8.875 q 0.53125,-0.14063 1.1875,-0.17188 0.65625,-0.0469 1.20313,-0.0469 z m 0.0937,1.09375 q -0.79688,0 -1.23438,0.0469 l 0,3.53125 0.95313,0 q 0.65625,0 1.17187,-0.0781 0.51563,-0.0937 0.875,-0.28125 0.35938,-0.20313 0.54688,-0.54688 0.20312,-0.35937 0.20312,-0.90625 0,-0.53125 -0.20312,-0.85937 -0.20313,-0.34375 -0.54688,-0.54688 -0.34375,-0.20312 -0.79687,-0.28125 -0.45313,-0.0781 -0.96875,-0.0781 z m 4.44722,9.375 6.49998,0 0,1.03125 -6.49998,0 0,-1.03125 z m 7.35429,-5.89063 q 0,-1.15625 0.34375,-2.03125 0.34375,-0.89062 0.9375,-1.48437 0.59375,-0.59375 1.375,-0.89063 0.79688,-0.29687 1.67188,-0.29687 0.875,0 1.64062,0.29687 0.78125,0.29688 1.35938,0.89063 0.59375,0.59375 0.9375,1.48437 0.34375,0.875 0.34375,2.03125 0,1.15625 -0.34375,2.04688 -0.34375,0.875 -0.9375,1.46875 -0.57813,0.59375 -1.35938,0.89062 -0.76562,0.29688 -1.64062,0.29688 -0.875,0 -1.67188,-0.29688 -0.78125,-0.29687 -1.375,-0.89062 -0.59375,-0.59375 -0.9375,-1.46875 -0.34375,-0.89063 -0.34375,-2.04688 z m 1.32813,0 q 0,0.82813 0.20312,1.5 0.21875,0.65625 0.59375,1.125 0.39063,0.46875 0.9375,0.73438 0.5625,0.25 1.25,0.25 0.6875,0 1.23438,-0.25 0.54687,-0.26563 0.92187,-0.73438 0.39063,-0.46875 0.59375,-1.125 0.20313,-0.67187 0.20313,-1.5 0,-0.8125 -0.20313,-1.48437 -0.20312,-0.67188 -0.59375,-1.14063 -0.375,-0.46875 -0.92187,-0.71875 -0.54688,-0.25 -1.23438,-0.25 -0.6875,0 -1.25,0.25 -0.54687,0.25 -0.9375,0.71875 -0.375,0.46875 -0.59375,1.14063 -0.20312,0.67187 -0.20312,1.48437 z m 14.71298,4.32813 q -0.42187,0.0937 -1.10937,0.20312 -0.67188,0.125 -1.5625,0.125 -0.78125,0 -1.32813,-0.21875 -0.53125,-0.23437 -0.85937,-0.64062 -0.3125,-0.42188 -0.45313,-0.98438 -0.14062,-0.57812 -0.14062,-1.26562 l 0,-3.79688 1.20312,0 0,3.54688 q 0,1.23437 0.39063,1.76562 0.39062,0.53125 1.3125,0.53125 0.1875,0 0.39062,-0.0156 0.21875,-0.0156 0.39063,-0.0312 0.1875,-0.0156 0.32812,-0.0312 0.15625,-0.0312 0.23438,-0.0469 l 0,-5.71875 1.20312,0 0,6.57813 z m 3.40033,-6.57813 2.5625,0 0,1.01563 -2.5625,0 0,3.125 q 0,0.5 0.0781,0.84375 0.0781,0.32812 0.23437,0.51562 0.15625,0.1875 0.39063,0.26563 0.23437,0.0781 0.54687,0.0781 0.54688,0 0.875,-0.125 0.32813,-0.125 0.46875,-0.17187 l 0.21875,1 q -0.17187,0.0937 -0.625,0.21875 -0.45312,0.14062 -1.04687,0.14062 -0.6875,0 -1.14063,-0.17187 -0.4375,-0.17188 -0.71875,-0.51563 -0.26562,-0.35937 -0.375,-0.875 -0.10937,-0.51562 -0.10937,-1.1875 l 0,-6.03125 1.20312,-0.21875 0,2.09375 z m 6.95227,3.75 5.95313,0 0,1.03125 -5.95313,0 0,-1.03125 z m 0,-2.76562 5.95313,0 0,1.01562 -5.95313,0 0,-1.01562 z m 10.9552,-0.78125 q 0.40625,-0.10938 1.09375,-0.21875 0.6875,-0.125 1.59375,-0.125 0.79688,0 1.32813,0.23437 0.54687,0.21875 0.85937,0.64063 0.3125,0.40625 0.4375,0.98437 0.14063,0.5625 0.14063,1.25 l 0,3.79688 -1.20313,0 0,-3.53125 q 0,-0.625 -0.0937,-1.0625 -0.0781,-0.45313 -0.28125,-0.71875 -0.1875,-0.28125 -0.51562,-0.40625 -0.32813,-0.125 -0.8125,-0.125 -0.1875,0 -0.40625,0.0156 -0.20313,0.0156 -0.39063,0.0469 -0.1875,0.0156 -0.34375,0.0469 -0.14062,0.0156 -0.20312,0.0312 l 0,5.70313 -1.20313,0 0,-6.5625 z"
       id="path89"
       inkscape:connector-curvature="0"
       style="fill:#000000;fill-rule:nonzero;stroke:none;stroke-linecap:square;stroke-miterlimit:10" />
    <path
       d="m 284.68695,273.62341 81.00787,0 0,30.01575 -81.00787,0 z"
       id="path91"
       inkscape:connector-curvature="0"
       style="fill:#000000;fill-opacity:0;fill-rule:evenodd;stroke:none;stroke-linecap:square;stroke-miterlimit:10" />
    <path
       d="m 299.09156,286.32967 q 1.89063,0 2.90625,0.71875 1.03125,0.71875 1.03125,2.14062 0,0.78125 -0.28125,1.34375 -0.28125,0.54688 -0.8125,0.89063 -0.51562,0.34375 -1.28125,0.5 -0.75,0.15625 -1.70312,0.15625 l -1,0 0,3.34375 -1.25,0 0,-8.875 q 0.53125,-0.14063 1.1875,-0.17188 0.65625,-0.0469 1.20312,-0.0469 z m 0.0937,1.09375 q -0.79687,0 -1.23437,0.0469 l 0,3.53125 0.95312,0 q 0.65625,0 1.17188,-0.0781 0.51562,-0.0937 0.875,-0.28125 0.35937,-0.20313 0.54687,-0.54688 0.20313,-0.35937 0.20313,-0.90625 0,-0.53125 -0.20313,-0.85937 -0.20312,-0.34375 -0.54687,-0.54688 -0.34375,-0.20312 -0.79688,-0.28125 -0.45312,-0.0781 -0.96875,-0.0781 z m 4.4472,9.375 6.5,0 0,1.03125 -6.5,0 0,-1.03125 z m 7.35431,-5.89063 q 0,-1.15625 0.34375,-2.03125 0.34375,-0.89062 0.9375,-1.48437 0.59375,-0.59375 1.375,-0.89063 0.79688,-0.29687 1.67188,-0.29687 0.875,0 1.64062,0.29687 0.78125,0.29688 1.35938,0.89063 0.59375,0.59375 0.9375,1.48437 0.34375,0.875 0.34375,2.03125 0,1.15625 -0.34375,2.04688 -0.34375,0.875 -0.9375,1.46875 -0.57813,0.59375 -1.35938,0.89062 -0.76562,0.29688 -1.64062,0.29688 -0.875,0 -1.67188,-0.29688 -0.78125,-0.29687 -1.375,-0.89062 -0.59375,-0.59375 -0.9375,-1.46875 -0.34375,-0.89063 -0.34375,-2.04688 z m 1.32813,0 q 0,0.82813 0.20312,1.5 0.21875,0.65625 0.59375,1.125 0.39063,0.46875 0.9375,0.73438 0.5625,0.25 1.25,0.25 0.6875,0 1.23438,-0.25 0.54687,-0.26563 0.92187,-0.73438 0.39063,-0.46875 0.59375,-1.125 0.20313,-0.67187 0.20313,-1.5 0,-0.8125 -0.20313,-1.48437 -0.20312,-0.67188 -0.59375,-1.14063 -0.375,-0.46875 -0.92187,-0.71875 -0.54688,-0.25 -1.23438,-0.25 -0.6875,0 -1.25,0.25 -0.54687,0.25 -0.9375,0.71875 -0.375,0.46875 -0.59375,1.14063 -0.20312,0.67187 -0.20312,1.48437 z m 14.71298,4.32813 q -0.42187,0.0937 -1.10937,0.20312 -0.67188,0.125 -1.5625,0.125 -0.78125,0 -1.32813,-0.21875 -0.53125,-0.23437 -0.85937,-0.64062 -0.3125,-0.42188 -0.45313,-0.98438 -0.14062,-0.57812 -0.14062,-1.26562 l 0,-3.79688 1.20312,0 0,3.54688 q 0,1.23437 0.39063,1.76562 0.39062,0.53125 1.3125,0.53125 0.1875,0 0.39062,-0.0156 0.21875,-0.0156 0.39063,-0.0312 0.1875,-0.0156 0.32812,-0.0312 0.15625,-0.0312 0.23438,-0.0469 l 0,-5.71875 1.20312,0 0,6.57813 z m 3.40033,-6.57813 2.5625,0 0,1.01563 -2.5625,0 0,3.125 q 0,0.5 0.0781,0.84375 0.0781,0.32812 0.23437,0.51562 0.15625,0.1875 0.39063,0.26563 0.23437,0.0781 0.54687,0.0781 0.54688,0 0.875,-0.125 0.32813,-0.125 0.46875,-0.17187 l 0.21875,1 q -0.17187,0.0937 -0.625,0.21875 -0.45312,0.14062 -1.04687,0.14062 -0.6875,0 -1.14063,-0.17187 -0.4375,-0.17188 -0.71875,-0.51563 -0.26562,-0.35937 -0.375,-0.875 -0.10937,-0.51562 -0.10937,-1.1875 l 0,-6.03125 1.20312,-0.21875 0,2.09375 z m 6.95227,3.75 5.95313,0 0,1.03125 -5.95313,0 0,-1.03125 z m 0,-2.76562 5.95313,0 0,1.01562 -5.95313,0 0,-1.01562 z m 10.56458,1.26562 q 0,-2.25 0.79687,-3.46875 0.79688,-1.23437 2.21875,-1.23437 1.40625,0 2.20313,1.23437 0.8125,1.21875 0.8125,3.46875 0,2.26563 -0.8125,3.48438 -0.79688,1.21875 -2.20313,1.21875 -1.42187,0 -2.21875,-1.21875 -0.79687,-1.21875 -0.79687,-3.48438 z m 4.75,0 q 0,-0.73437 -0.0937,-1.39062 -0.0781,-0.67188 -0.28125,-1.15625 -0.1875,-0.5 -0.53125,-0.79688 -0.34375,-0.29687 -0.82813,-0.29687 -0.5,0 -0.84375,0.29687 -0.32812,0.29688 -0.53125,0.79688 -0.20312,0.48437 -0.29687,1.15625 -0.0781,0.65625 -0.0781,1.39062 0,0.75 0.0781,1.42188 0.0937,0.65625 0.29687,1.15625 0.20313,0.48437 0.53125,0.78125 0.34375,0.28125 0.84375,0.28125 0.48438,0 0.82813,-0.28125 0.34375,-0.29688 0.53125,-0.78125 0.20312,-0.5 0.28125,-1.15625 0.0937,-0.67188 0.0937,-1.42188 z"
       id="path93"
       inkscape:connector-curvature="0"
       style="fill:#000000;fill-rule:nonzero;stroke:none;stroke-linecap:square;stroke-miterlimit:10" />
    <path
       d="m 105.18039,387.99611 81.00787,0 0,30.01576 -81.00787,0 z"
       id="path95"
       inkscape:connector-curvature="0"
       style="fill:#6d9eeb;fill-rule:evenodd;stroke:none;stroke-linecap:square;stroke-miterlimit:10" />
    <path
       d="m 105.18039,387.99611 81.00787,0 0,30.01576 -81.00787,0 z"
       id="path97"
       inkscape:connector-curvature="0"
       style="fill:none;fill-rule:evenodd;stroke:#000000;stroke-width:2;stroke-linecap:butt;stroke-linejoin:round;stroke-miterlimit:10" />
    <path
       d="m 121.60295,396.62711 q 2.78125,0 4.26562,1.0625 1.5,1.04687 1.5,3.14062 0,1.125 -0.42187,1.9375 -0.40625,0.8125 -1.17188,1.3125 -0.76562,0.5 -1.875,0.73438 -1.09375,0.21875 -2.48437,0.21875 l -1.45313,0 0,4.89062 -1.84375,0 0,-12.98437 q 0.76563,-0.1875 1.71875,-0.25 0.96875,-0.0625 1.76563,-0.0625 z m 0.15625,1.60937 q -1.17188,0 -1.79688,0.0625 l 0,5.17188 1.375,0 q 0.95313,0 1.70313,-0.125 0.76562,-0.125 1.28125,-0.42188 0.53125,-0.29687 0.8125,-0.8125 0.29687,-0.51562 0.29687,-1.3125 0,-0.75 -0.29687,-1.25 -0.29688,-0.5 -0.79688,-0.78125 -0.5,-0.29687 -1.17187,-0.40625 -0.67188,-0.125 -1.40625,-0.125 z m 5.98363,13.70313 9.5,0 0,1.5 -9.5,0 0,-1.5 z m 10.36638,-8.60938 q 0,-1.6875 0.5,-2.98437 0.5,-1.29688 1.35937,-2.15625 0.875,-0.85938 2.01563,-1.29688 1.15625,-0.4375 2.4375,-0.4375 1.28125,0 2.40625,0.4375 1.14062,0.4375 1.98437,1.29688 0.85938,0.85937 1.35938,2.15625 0.51562,1.29687 0.51562,2.98437 0,1.6875 -0.51562,2.98438 -0.5,1.29687 -1.35938,2.15625 -0.84375,0.85937 -1.98437,1.29687 -1.125,0.4375 -2.40625,0.4375 -1.28125,0 -2.4375,-0.4375 -1.14063,-0.4375 -2.01563,-1.29687 -0.85937,-0.85938 -1.35937,-2.15625 -0.5,-1.29688 -0.5,-2.98438 z m 1.9375,0 q 0,1.20313 0.29687,2.1875 0.29688,0.96875 0.85938,1.65625 0.5625,0.67188 1.375,1.04688 0.8125,0.375 1.8125,0.375 1,0 1.79687,-0.375 0.8125,-0.375 1.35938,-1.04688 0.5625,-0.6875 0.85937,-1.65625 0.3125,-0.98437 0.3125,-2.1875 0,-1.20312 -0.3125,-2.17187 -0.29687,-0.98438 -0.85937,-1.65625 -0.54688,-0.6875 -1.35938,-1.0625 -0.79687,-0.375 -1.79687,-0.375 -1,0 -1.8125,0.375 -0.8125,0.375 -1.375,1.0625 -0.5625,0.67187 -0.85938,1.65625 -0.29687,0.96875 -0.29687,2.17187 z m 17.99894,6.875 q -1.28125,0 -2.23437,-0.39062 -0.95313,-0.40625 -1.5625,-1.09375 -0.60938,-0.70313 -0.90625,-1.64063 -0.29688,-0.95312 -0.29688,-2.0625 l 0,-8.26562 1.84375,0 0,8.0625 q 0,1.96875 0.875,2.875 0.875,0.89062 2.28125,0.89062 0.70313,0 1.28125,-0.21875 0.57813,-0.21875 1,-0.67187 0.42188,-0.46875 0.64063,-1.17188 0.23437,-0.71875 0.23437,-1.70312 l 0,-8.0625 1.84375,0 0,8.26562 q 0,1.10938 -0.29687,2.0625 -0.29688,0.9375 -0.92188,1.64063 -0.60937,0.6875 -1.54687,1.09375 -0.9375,0.39062 -2.23438,0.39062 z m 16.74176,-13.45312 0,1.59375 -4.15625,0 0,11.57812 -1.82812,0 0,-11.57812 -4.15625,0 0,-1.59375 10.14062,0 z"
       id="path99"
       inkscape:connector-curvature="0"
       style="fill:#000000;fill-rule:nonzero;stroke:none;stroke-linecap:square;stroke-miterlimit:10" />
    <path
       d="m 297.67908,402.61029 81.00787,0 0,30.01575 -81.00787,0 z"
       id="path101"
       inkscape:connector-curvature="0"
       style="fill:#000000;fill-opacity:0;fill-rule:evenodd;stroke:none;stroke-linecap:square;stroke-miterlimit:10" />
    <path
       d="m 323.02777,415.39465 1.25,0 0,9.01562 -1.25,0 0,-9.01562 z m 3.50714,2.45312 q 0.40625,-0.10937 1.09375,-0.21875 0.6875,-0.125 1.59375,-0.125 0.79688,0 1.32813,0.23438 0.54687,0.21875 0.85937,0.64062 0.3125,0.40625 0.4375,0.98438 0.14063,0.5625 0.14063,1.25 l 0,3.79687 -1.20313,0 0,-3.53125 q 0,-0.625 -0.0937,-1.0625 -0.0781,-0.45312 -0.28125,-0.71875 -0.1875,-0.28125 -0.51562,-0.40625 -0.32813,-0.125 -0.8125,-0.125 -0.1875,0 -0.40625,0.0156 -0.20313,0.0156 -0.39063,0.0469 -0.1875,0.0156 -0.34375,0.0469 -0.14062,0.0156 -0.20312,0.0312 l 0,5.70312 -1.20313,0 0,-6.5625 z m 11.71347,2.67188 4.60938,1.90625 -0.32813,1 -5.625,-2.375 0,-1.04688 5.625,-2.375 0.32813,1 -4.60938,1.89063 z m 9.61142,-2.67188 q 0.40625,-0.10937 1.09375,-0.21875 0.6875,-0.125 1.59375,-0.125 0.79688,0 1.32813,0.23438 0.54687,0.21875 0.85937,0.64062 0.3125,0.40625 0.4375,0.98438 0.14063,0.5625 0.14063,1.25 l 0,3.79687 -1.20313,0 0,-3.53125 q 0,-0.625 -0.0937,-1.0625 -0.0781,-0.45312 -0.28125,-0.71875 -0.1875,-0.28125 -0.51562,-0.40625 -0.32813,-0.125 -0.8125,-0.125 -0.1875,0 -0.40625,0.0156 -0.20313,0.0156 -0.39063,0.0469 -0.1875,0.0156 -0.34375,0.0469 -0.14062,0.0156 -0.20312,0.0312 l 0,5.70312 -1.20313,0 0,-6.5625 z"
       id="path103"
       inkscape:connector-curvature="0"
       style="fill:#000000;fill-rule:nonzero;stroke:none;stroke-linecap:square;stroke-miterlimit:10" />
    <path
       d="m 237.67908,391.99611 52,0 0,30.01576 -52,0 z"
       id="path105"
       inkscape:connector-curvature="0"
       style="fill:#000000;fill-opacity:0;fill-rule:evenodd;stroke:none;stroke-linecap:square;stroke-miterlimit:10" />
    <path
       d="m 248.52383,404.78049 1.25,0 0,9.01562 -1.25,0 0,-9.01562 z m 3.50714,2.45312 q 0.40625,-0.10937 1.09375,-0.21875 0.6875,-0.125 1.59375,-0.125 0.79688,0 1.32813,0.23438 0.54687,0.21875 0.85937,0.64062 0.3125,0.40625 0.4375,0.98438 0.14063,0.5625 0.14063,1.25 l 0,3.79687 -1.20313,0 0,-3.53125 q 0,-0.625 -0.0937,-1.0625 -0.0781,-0.45312 -0.28125,-0.71875 -0.1875,-0.28125 -0.51562,-0.40625 -0.32813,-0.125 -0.8125,-0.125 -0.1875,0 -0.40625,0.0156 -0.20313,0.0156 -0.39063,0.0469 -0.1875,0.0156 -0.34375,0.0469 -0.14062,0.0156 -0.20312,0.0312 l 0,5.70312 -1.20313,0 0,-6.5625 z m 10.36972,3.54688 5.95313,0 0,1.03125 -5.95313,0 0,-1.03125 z m 0,-2.76563 5.95313,0 0,1.01563 -5.95313,0 0,-1.01563 z m 10.95517,-0.78125 q 0.40625,-0.10937 1.09375,-0.21875 0.6875,-0.125 1.59375,-0.125 0.79688,0 1.32813,0.23438 0.54687,0.21875 0.85937,0.64062 0.3125,0.40625 0.4375,0.98438 0.14063,0.5625 0.14063,1.25 l 0,3.79687 -1.20313,0 0,-3.53125 q 0,-0.625 -0.0937,-1.0625 -0.0781,-0.45312 -0.28125,-0.71875 -0.1875,-0.28125 -0.51562,-0.40625 -0.32813,-0.125 -0.8125,-0.125 -0.1875,0 -0.40625,0.0156 -0.20313,0.0156 -0.39063,0.0469 -0.1875,0.0156 -0.34375,0.0469 -0.14062,0.0156 -0.20312,0.0312 l 0,5.70312 -1.20313,0 0,-6.5625 z"
       id="path107"
       inkscape:connector-curvature="0"
       style="fill:#000000;fill-rule:nonzero;stroke:none;stroke-linecap:square;stroke-miterlimit:10" />
  </g>
</svg>
