<?xml version="1.0" standalone="yes"?>

<svg version="1.1" viewBox="0.0 0.0 720.0 540.0" fill="none" stroke="none" stroke-linecap="square" stroke-miterlimit="10" xmlns="http://www.w3.org/2000/svg" xmlns:xlink="http://www.w3.org/1999/xlink"><clipPath id="p.0"><path d="m0 0l720.0 0l0 540.0l-720.0 0l0 -540.0z" clip-rule="nonzero"></path></clipPath><g clip-path="url(#p.0)"><path fill="#000000" fill-opacity="0.0" d="m0 0l720.0 0l0 540.0l-720.0 0z" fill-rule="evenodd"></path><path fill="#000000" fill-opacity="0.0" d="m203.01575 146.0l317.98425 0l0 206.99213l-317.98425 0z" fill-rule="evenodd"></path><path stroke="#000000" stroke-width="2.0" stroke-linejoin="round" stroke-linecap="butt" d="m203.01575 146.0l317.98425 0l0 206.99213l-317.98425 0z" fill-rule="evenodd"></path><path fill="#cfe2f3" d="m306.4987 242.62257l92.11603 0l0 55.128616c-46.055542 0 -46.055542 21.210724 -92.11603 10.605377zm7.5892334 0l0 -7.1470947l91.48688 0l0 55.474472c-3.4775696 0 -6.960083 0.38424683 -6.960083 0.38424683l0 -48.711624zm7.133484 -7.1470947l0 -6.974167l92.27948 0l0 55.301544c-3.9630432 0 -7.9260864 0.2881775 -7.9260864 0.2881775l0 -48.615555z" fill-rule="evenodd"></path><path fill="#000000" fill-opacity="0.0" d="m306.4987 242.62257l92.11603 0l0 55.128616c-46.055542 0 -46.055542 21.210724 -92.11603 10.605377zm7.5892334 0l0 -7.1470947l91.48688 0l0 55.474472c-3.4775696 0 -6.960083 0.38424683 -6.960083 0.38424683m-77.39331 -55.85872l0 -6.974167l92.27948 0l0 55.301544c-3.9630432 0 -7.9260864 0.2881775 -7.9260864 0.2881775" fill-rule="evenodd"></path><path fill="#000000" fill-opacity="0.0" d="m306.4987 308.35657c46.060486 10.605347 46.060486 -10.605377 92.11603 -10.605377l0 -6.416992c0 0 3.4825134 -0.38424683 6.960083 -0.38424683l0 -6.858917c0 0 3.9630432 -0.2881775 7.9260864 -0.2881775l0 -55.301544l-92.27948 0l0 6.974167l-7.133484 0l0 7.1470947l-7.5892334 0z" fill-rule="evenodd"></path><path stroke="#000000" stroke-width="1.0" stroke-linejoin="round" stroke-linecap="butt" d="m306.4987 242.62257l92.11603 0l0 55.128616c-46.055542 0 -46.055542 21.210724 -92.11603 10.605377zm7.5892334 0l0 -7.1470947l91.48688 0l0 55.474472c-3.4775696 0 -6.960083 0.38424683 -6.960083 0.38424683m-77.39331 -55.85872l0 -6.974167l92.27948 0l0 55.301544c-3.9630432 0 -7.9260864 0.2881775 -7.9260864 0.2881775" fill-rule="evenodd"></path><path fill="#000000" d="m334.41235 282.40958l0 -13.171875l7.9375 0l0 1.578125l-6.09375 0l0 3.96875l5.40625 0l0 1.5625l-5.40625 0l0 6.0625l-1.84375 0zm10.018402 -13.171875l1.84375 0l0 13.171875l-1.84375 0l0 -13.171875zm5.0185547 13.171875l0 -13.171875l7.9375 0l0 1.578125l-6.09375 0l0 3.96875l5.40625 0l0 1.5625l-5.40625 0l0 6.0625l-1.84375 0zm9.487152 -6.59375q0 -1.6875 0.5 -2.984375q0.5 -1.296875 1.359375 -2.15625q0.875 -0.859375 2.015625 -1.296875q1.15625 -0.4375 2.4375 -0.4375q1.28125 0 2.40625 0.4375q1.140625 0.4375 1.984375 1.296875q0.859375 0.859375 1.359375 2.15625q0.515625 1.296875 0.515625 2.984375q0 1.6875 -0.515625 2.984375q-0.5 1.296875 -1.359375 2.15625q-0.84375 0.859375 -1.984375 1.296875q-1.125 0.4375 -2.40625 0.4375q-1.28125 0 -2.4375 -0.4375q-1.140625 -0.4375 -2.015625 -1.296875q-0.859375 -0.859375 -1.359375 -2.15625q-0.5 -1.296875 -0.5 -2.984375zm1.9375 0q0 1.203125 0.296875 2.1875q0.296875 0.96875 0.859375 1.65625q0.5625 0.671875 1.375 1.046875q0.8125 0.375 1.8125 0.375q1.0 0 1.796875 -0.375q0.8125 -0.375 1.359375 -1.046875q0.5625 -0.6875 0.859375 -1.65625q0.3125 -0.984375 0.3125 -2.1875q0 -1.203125 -0.3125 -2.171875q-0.296875 -0.984375 -0.859375 -1.65625q-0.546875 -0.6875 -1.359375 -1.0625q-0.796875 -0.375 -1.796875 -0.375q-1.0 0 -1.8125 0.375q-0.8125 0.375 -1.375 1.0625q-0.5625 0.671875 -0.859375 1.65625q-0.296875 0.96875 -0.296875 2.171875z" fill-rule="nonzero"></path><path fill="#000000" fill-opacity="0.0" d="m269.74802 206.0l0 130.01575" fill-rule="evenodd"></path><path stroke="#000000" stroke-width="2.0" stroke-linejoin="round" stroke-linecap="butt" d="m269.74802 206.0l0 130.01575" fill-rule="evenodd"></path><path fill="#000000" fill-opacity="0.0" d="m271.0 335.0l173.00787 0" fill-rule="evenodd"></path><path stroke="#000000" stroke-width="2.0" stroke-linejoin="round" stroke-linecap="butt" d="m271.0 335.0l173.00787 0" fill-rule="evenodd"></path><path fill="#000000" fill-opacity="0.0" d="m443.0 334.0l0 -128.0" fill-rule="evenodd"></path><path stroke="#000000" stroke-width="2.0" stroke-linejoin="round" stroke-linecap="butt" d="m443.0 334.0l0 -128.0" fill-rule="evenodd"></path><path fill="#cfe2f3" d="m170.25722 160.0l68.50394 0l0 28.0l-68.50394 0z" fill-rule="evenodd"></path><path stroke="#000000" stroke-width="2.0" stroke-linejoin="round" stroke-linecap="butt" d="m170.25722 160.0l68.50394 0l0 28.0l-68.50394 0z" fill-rule="evenodd"></path><path fill="#000000" d="m190.0731 167.62312q2.78125 0 4.265625 1.0625q1.5 1.046875 1.5 3.140625q0 1.125 -0.421875 1.9375q-0.40625 0.8125 -1.171875 1.3125q-0.765625 0.5 -1.875 0.734375q-1.09375 0.21875 -2.484375 0.21875l-1.453125 0l0 4.890625l-1.84375 0l0 -12.984375q0.765625 -0.1875 1.71875 -0.25q0.96875 -0.0625 1.765625 -0.0625zm0.15625 1.609375q-1.171875 0 -1.796875 0.0625l0 5.171875l1.375 0q0.953125 0 1.703125 -0.125q0.765625 -0.125 1.28125 -0.421875q0.53125 -0.296875 0.8125 -0.8125q0.296875 -0.515625 0.296875 -1.3125q0 -0.75 -0.296875 -1.25q-0.296875 -0.5 -0.796875 -0.78125q-0.5 -0.296875 -1.171875 -0.40625q-0.671875 -0.125 -1.40625 -0.125zm5.9836273 13.703125l9.5 0l0 1.5l-9.5 0l0 -1.5zm10.897629 -15.1875l1.84375 0l0 13.171875l-1.84375 0l0 -13.171875zm14.034164 13.171875q-0.421875 -0.703125 -0.96875 -1.578125q-0.53125 -0.875 -1.15625 -1.8125q-0.625 -0.9375 -1.296875 -1.90625q-0.671875 -0.96875 -1.34375 -1.875q-0.671875 -0.90625 -1.296875 -1.703125q-0.625 -0.796875 -1.15625 -1.40625l0 10.28125l-1.796875 0l0 -13.171875l1.453125 0q0.890625 0.953125 1.90625 2.21875q1.015625 1.265625 2.015625 2.609375q1.0 1.328125 1.875 2.625q0.890625 1.296875 1.5 2.296875l0 -9.75l1.8125 0l0 13.171875l-1.546875 0z" fill-rule="nonzero"></path><path fill="#cfe2f3" d="m482.0 160.0l84.0 0l0 28.0l-84.0 0z" fill-rule="evenodd"></path><path stroke="#000000" stroke-width="2.0" stroke-linejoin="round" stroke-linecap="butt" d="m482.0 160.0l84.0 0l0 28.0l-84.0 0z" fill-rule="evenodd"></path><path fill="#000000" d="m499.91864 167.62312q2.78125 0 4.265625 1.0625q1.5 1.046875 1.5 3.140625q0 1.125 -0.421875 1.9375q-0.40625 0.8125 -1.171875 1.3125q-0.765625 0.5 -1.875 0.734375q-1.09375 0.21875 -2.484375 0.21875l-1.453125 0l0 4.890625l-1.84375 0l0 -12.984375q0.765625 -0.1875 1.71875 -0.25q0.96875 -0.0625 1.765625 -0.0625zm0.15625 1.609375q-1.171875 0 -1.796875 0.0625l0 5.171875l1.375 0q0.953125 0 1.703125 -0.125q0.765625 -0.125 1.28125 -0.421875q0.53125 -0.296875 0.8125 -0.8125q0.296875 -0.515625 0.296875 -1.3125q0 -0.75 -0.296875 -1.25q-0.296875 -0.5 -0.796875 -0.78125q-0.5 -0.296875 -1.171875 -0.40625q-0.671875 -0.125 -1.40625 -0.125zm5.983612 13.703125l9.4999695 0l0 1.5l-9.4999695 0l0 -1.5zm10.366364 -8.609375q0 -1.6875 0.5 -2.984375q0.5 -1.296875 1.359375 -2.15625q0.875 -0.859375 2.015625 -1.296875q1.15625 -0.4375 2.4375 -0.4375q1.28125 0 2.40625 0.4375q1.140625 0.4375 1.984375 1.296875q0.859375 0.859375 1.359375 2.15625q0.515625 1.296875 0.515625 2.984375q0 1.6875 -0.515625 2.984375q-0.5 1.296875 -1.359375 2.15625q-0.84375 0.859375 -1.984375 1.296875q-1.125 0.4375 -2.40625 0.4375q-1.28125 0 -2.4375 -0.4375q-1.140625 -0.4375 -2.015625 -1.296875q-0.859375 -0.859375 -1.359375 -2.15625q-0.5 -1.296875 -0.5 -2.984375zm1.9375 0q0 1.203125 0.296875 2.1875q0.296875 0.96875 0.859375 1.65625q0.5625 0.671875 1.375 1.046875q0.8125 0.375 1.8125 0.375q1.0 0 1.796875 -0.375q0.8125 -0.375 1.359375 -1.046875q0.5625 -0.6875 0.859375 -1.65625q0.3125 -0.984375 0.3125 -2.1875q0 -1.203125 -0.3125 -2.171875q-0.296875 -0.984375 -0.859375 -1.65625q-0.546875 -0.6875 -1.359375 -1.0625q-0.796875 -0.375 -1.796875 -0.375q-1.0 0 -1.8125 0.375q-0.8125 0.375 -1.375 1.0625q-0.5625 0.671875 -0.859375 1.65625q-0.296875 0.96875 -0.296875 2.171875zm17.998962 6.875q-1.28125 0 -2.234375 -0.390625q-0.953125 -0.40625 -1.5625 -1.09375q-0.609375 -0.703125 -0.90625 -1.640625q-0.296875 -0.953125 -0.296875 -2.0625l0 -8.265625l1.84375 0l0 8.0625q0 1.96875 0.875 2.875q0.875 0.890625 2.28125 0.890625q0.703125 0 1.28125 -0.21875q0.578125 -0.21875 1.0 -0.671875q0.421875 -0.46875 0.640625 -1.171875q0.234375 -0.71875 0.234375 -1.703125l0 -8.0625l1.84375 0l0 8.265625q0 1.109375 -0.296875 2.0625q-0.296875 0.9375 -0.921875 1.640625q-0.609375 0.6875 -1.546875 1.09375q-0.9375 0.390625 -2.234375 0.390625zm16.74176 -13.453125l0 1.59375l-4.15625 0l0 11.578125l-1.828125 0l0 -11.578125l-4.15625 0l0 -1.59375l10.140625 0z" fill-rule="nonzero"></path><path fill="#000000" fill-opacity="0.0" d="m238.76115 174.0l42.238876 0l0 96.0l25.509155 0" fill-rule="evenodd"></path><path stroke="#000000" stroke-width="2.0" stroke-linejoin="round" stroke-linecap="butt" d="m238.76115 174.0l42.238876 0l0 96.0l13.509155 0" fill-rule="evenodd"></path><path fill="#000000" stroke="#000000" stroke-width="2.0" stroke-linecap="butt" d="m294.5092 273.30347l9.076202 -3.3034668l-9.076202 -3.3034668z" fill-rule="evenodd"></path><path fill="#000000" fill-opacity="0.0" d="m413.5009 270.00052l16.499176 0l0 -96.0l52.00476 0" fill-rule="evenodd"></path><path stroke="#000000" stroke-width="2.0" stroke-linejoin="round" stroke-linecap="butt" d="m413.50092 270.00052l16.499176 0l0 -95.999985l40.00476 0" fill-rule="evenodd"></path><path fill="#000000" stroke="#000000" stroke-width="2.0" stroke-linecap="butt" d="m470.00485 177.304l9.076172 -3.3034668l-9.076172 -3.3034668z" fill-rule="evenodd"></path><path fill="#000000" fill-opacity="0.0" d="m349.69553 188.0l30.614197 0l0 42.48819l-30.614197 0z" fill-rule="evenodd"></path><path fill="#000000" d="m360.14865 214.92l0 -13.59375l1.84375 0l7.140625 10.671875l0 -10.671875l1.71875 0l0 13.59375l-1.84375 0l-7.140625 -10.6875l0 10.6875l-1.71875 0z" fill-rule="nonzero"></path><path fill="#cfe2f3" d="m170.25722 263.0l68.50394 0l0 28.0l-68.50394 0z" fill-rule="evenodd"></path><path stroke="#000000" stroke-width="2.0" stroke-linejoin="round" stroke-linecap="butt" d="m170.25722 263.0l68.50394 0l0 28.0l-68.50394 0z" fill-rule="evenodd"></path><path fill="#000000" d="m184.4717 277.32623q0 -1.6875 0.5 -2.984375q0.5 -1.296875 1.359375 -2.15625q0.875 -0.859375 2.015625 -1.296875q1.15625 -0.4375 2.4375 -0.4375q1.28125 0 2.40625 0.4375q1.140625 0.4375 1.984375 1.296875q0.859375 0.859375 1.359375 2.15625q0.515625 1.296875 0.515625 2.984375q0 1.484375 -0.390625 2.640625q-0.375 1.15625 -1.046875 2.0q-0.671875 0.84375 -1.578125 1.375q-0.90625 0.515625 -1.9375 0.71875q0.03125 0.421875 0.390625 0.75q0.375 0.34375 0.9375 0.5625q0.578125 0.234375 1.28125 0.390625q0.703125 0.15625 1.40625 0.234375l-0.4375 1.4375q-0.984375 -0.140625 -1.890625 -0.359375q-0.90625 -0.21875 -1.640625 -0.578125q-0.71875 -0.359375 -1.21875 -0.921875q-0.5 -0.546875 -0.671875 -1.390625q-1.1875 -0.078125 -2.25 -0.5625q-1.0625 -0.484375 -1.84375 -1.34375q-0.78125 -0.875 -1.234375 -2.109375q-0.453125 -1.234375 -0.453125 -2.84375zm1.9375 0q0 1.203125 0.296875 2.1875q0.296875 0.96875 0.859375 1.65625q0.5625 0.671875 1.375 1.046875q0.8125 0.375 1.8125 0.375q1.0 0 1.796875 -0.375q0.8125 -0.375 1.359375 -1.046875q0.5625 -0.6875 0.859375 -1.65625q0.3125 -0.984375 0.3125 -2.1875q0 -1.203125 -0.3125 -2.171875q-0.296875 -0.984375 -0.859375 -1.65625q-0.546875 -0.6875 -1.359375 -1.0625q-0.796875 -0.375 -1.796875 -0.375q-1.0 0 -1.8125 0.375q-0.8125 0.375 -1.375 1.0625q-0.5625 0.671875 -0.859375 1.65625q-0.296875 0.96875 -0.296875 2.171875zm11.389572 8.609375l9.5 0l0 1.5l-9.5 0l0 -1.5zm10.897629 -15.1875l1.84375 0l0 13.171875l-1.84375 0l0 -13.171875zm14.034164 13.171875q-0.421875 -0.703125 -0.96875 -1.578125q-0.53125 -0.875 -1.15625 -1.8125q-0.625 -0.9375 -1.296875 -1.90625q-0.671875 -0.96875 -1.34375 -1.875q-0.671875 -0.90625 -1.296875 -1.703125q-0.625 -0.796875 -1.15625 -1.40625l0 10.28125l-1.796875 0l0 -13.171875l1.453125 0q0.890625 0.953125 1.90625 2.21875q1.015625 1.265625 2.015625 2.609375q1.0 1.328125 1.875 2.625q0.890625 1.296875 1.5 2.296875l0 -9.75l1.8125 0l0 13.171875l-1.546875 0z" fill-rule="nonzero"></path><path fill="#cfe2f3" d="m481.23883 247.0l84.0 0l0 28.0l-84.0 0z" fill-rule="evenodd"></path><path stroke="#000000" stroke-width="2.0" stroke-linejoin="round" stroke-linecap="butt" d="m481.23883 247.0l84.0 0l0 28.0l-84.0 0z" fill-rule="evenodd"></path><path fill="#000000" d="m493.55606 261.32623q0 -1.6875 0.5 -2.984375q0.5 -1.296875 1.359375 -2.15625q0.875 -0.85935974 2.015625 -1.2968597q1.15625 -0.4375 2.4375 -0.4375q1.28125 0 2.40625 0.4375q1.140625 0.4375 1.984375 1.2968597q0.859375 0.859375 1.359375 2.15625q0.515625 1.296875 0.515625 2.984375q0 1.484375 -0.390625 2.640625q-0.375 1.15625 -1.046875 2.0q-0.671875 0.84375 -1.578125 1.375q-0.90625 0.515625 -1.9375 0.71875q0.03125 0.421875 0.390625 0.75q0.375 0.34375 0.9375 0.5625q0.578125 0.234375 1.28125 0.390625q0.703125 0.15625 1.40625 0.234375l-0.4375 1.4375q-0.984375 -0.140625 -1.890625 -0.359375q-0.90625 -0.21875 -1.640625 -0.578125q-0.71875 -0.359375 -1.21875 -0.921875q-0.5 -0.546875 -0.671875 -1.390625q-1.1875 -0.078125 -2.25 -0.5625q-1.0625 -0.484375 -1.84375 -1.34375q-0.78125 -0.875 -1.234375 -2.109375q-0.453125 -1.234375 -0.453125 -2.84375zm1.9375 0q0 1.203125 0.296875 2.1875q0.296875 0.96875 0.859375 1.65625q0.5625 0.671875 1.375 1.046875q0.8125 0.375 1.8125 0.375q1.0 0 1.796875 -0.375q0.8125 -0.375 1.359375 -1.046875q0.5625 -0.6875 0.859375 -1.65625q0.3125 -0.984375 0.3125 -2.1875q0 -1.203125 -0.3125 -2.171875q-0.296875 -0.984375 -0.859375 -1.65625q-0.546875 -0.6875 -1.359375 -1.0625q-0.796875 -0.375 -1.796875 -0.375q-1.0 0 -1.8125 0.375q-0.8125 0.375 -1.375 1.0625q-0.5625 0.671875 -0.859375 1.65625q-0.296875 0.96875 -0.296875 2.171875zm11.389557 8.609375l9.5 0l0 1.5l-9.5 0l0 -1.5zm10.366394 -8.609375q0 -1.6875 0.5 -2.984375q0.5 -1.296875 1.359375 -2.15625q0.875 -0.85935974 2.015625 -1.2968597q1.15625 -0.4375 2.4375 -0.4375q1.28125 0 2.40625 0.4375q1.140625 0.4375 1.984375 1.2968597q0.859375 0.859375 1.359375 2.15625q0.515625 1.296875 0.515625 2.984375q0 1.6875 -0.515625 2.984375q-0.5 1.296875 -1.359375 2.15625q-0.84375 0.859375 -1.984375 1.296875q-1.125 0.4375 -2.40625 0.4375q-1.28125 0 -2.4375 -0.4375q-1.140625 -0.4375 -2.015625 -1.296875q-0.859375 -0.859375 -1.359375 -2.15625q-0.5 -1.296875 -0.5 -2.984375zm1.9375 0q0 1.203125 0.296875 2.1875q0.296875 0.96875 0.859375 1.65625q0.5625 0.671875 1.375 1.046875q0.8125 0.375 1.8125 0.375q1.0 0 1.796875 -0.375q0.8125 -0.375 1.359375 -1.046875q0.5625 -0.6875 0.859375 -1.65625q0.3125 -0.984375 0.3125 -2.1875q0 -1.203125 -0.3125 -2.171875q-0.296875 -0.984375 -0.859375 -1.65625q-0.546875 -0.6875 -1.359375 -1.0625q-0.796875 -0.375 -1.796875 -0.375q-1.0 0 -1.8125 0.375q-0.8125 0.375 -1.375 1.0625q-0.5625 0.671875 -0.859375 1.65625q-0.296875 0.96875 -0.296875 2.171875zm17.998962 6.875q-1.28125 0 -2.234375 -0.390625q-0.953125 -0.40625 -1.5625 -1.09375q-0.609375 -0.703125 -0.90625 -1.640625q-0.296875 -0.953125 -0.296875 -2.0625l0 -8.26561l1.84375 0l0 8.062485q0 1.96875 0.875 2.875q0.875 0.890625 2.28125 0.890625q0.703125 0 1.28125 -0.21875q0.578125 -0.21875 1.0 -0.671875q0.421875 -0.46875 0.640625 -1.171875q0.234375 -0.71875 0.234375 -1.703125l0 -8.062485l1.84375 0l0 8.26561q0 1.109375 -0.296875 2.0625q-0.296875 0.9375 -0.921875 1.640625q-0.609375 0.6875 -1.546875 1.09375q-0.9375 0.390625 -2.234375 0.390625zm16.74176 -13.45311l0 1.5937347l-4.15625 0l0 11.578125l-1.828125 0l0 -11.578125l-4.15625 0l0 -1.5937347l10.140625 0z" fill-rule="nonzero"></path><path fill="#cfe2f3" d="m170.25722 298.0l68.50394 0l0 28.0l-68.50394 0z" fill-rule="evenodd"></path><path stroke="#000000" stroke-width="2.0" stroke-linejoin="round" stroke-linecap="butt" d="m170.25722 298.0l68.50394 0l0 28.0l-68.50394 0z" fill-rule="evenodd"></path><path fill="#000000" d="m186.93387 318.91998l0 -13.171875l8.03125 0l0 1.578125l-6.1875 0l0 3.921875l5.5 0l0 1.53125l-5.5 0l0 4.5625l6.65625 0l0 1.578125l-8.5 0zm8.933975 2.015625l9.5 0l0 1.5l-9.5 0l0 -1.5zm10.897629 -15.1875l1.84375 0l0 13.171875l-1.84375 0l0 -13.171875zm14.034164 13.171875q-0.421875 -0.703125 -0.96875 -1.578125q-0.53125 -0.875 -1.15625 -1.8125q-0.625 -0.9375 -1.296875 -1.90625q-0.671875 -0.96875 -1.34375 -1.875q-0.671875 -0.90625 -1.296875 -1.703125q-0.625 -0.796875 -1.15625 -1.40625l0 10.28125l-1.796875 0l0 -13.171875l1.453125 0q0.890625 0.953125 1.90625 2.21875q1.015625 1.265625 2.015625 2.609375q1.0 1.328125 1.875 2.625q0.890625 1.296875 1.5 2.296875l0 -9.75l1.8125 0l0 13.171875l-1.546875 0z" fill-rule="nonzero"></path><path fill="#cfe2f3" d="m170.25722 227.50131l79.74803 0l0 28.0l-79.74803 0z" fill-rule="evenodd"></path><path stroke="#000000" stroke-width="2.0" stroke-linejoin="round" stroke-linecap="butt" d="m170.25722 227.50131l79.74803 0l0 28.0l-79.74803 0z" fill-rule="evenodd"></path><path fill="#000000" d="m188.7457 235.12444q2.78125 0 4.265625 1.0625q1.5 1.046875 1.5 3.140625q0 1.125 -0.421875 1.9375q-0.40625 0.8125 -1.171875 1.3125q-0.765625 0.5 -1.875 0.734375q-1.09375 0.21875 -2.484375 0.21875l-1.453125 0l0 4.890625l-1.84375 0l0 -12.984375q0.765625 -0.1875 1.71875 -0.25q0.96875 -0.0625 1.765625 -0.0625zm0.15625 1.609375q-1.171875 0 -1.796875 0.0625l0 5.171875l1.375 0q0.953125 0 1.703125 -0.125q0.765625 -0.125 1.28125 -0.421875q0.53125 -0.296875 0.8125 -0.8125q0.296875 -0.515625 0.296875 -1.3125q0 -0.75 -0.296875 -1.25q-0.296875 -0.5 -0.796875 -0.78125q-0.5 -0.296875 -1.171875 -0.40625q-0.671875 -0.125 -1.40625 -0.125zm5.9836273 13.703125l9.5 0l0 1.5l-9.5 0l0 -1.5zm10.897629 -15.1875l1.84375 0l0 13.171875l-1.84375 0l0 -13.171875zm14.034164 13.171875q-0.421875 -0.703125 -0.96875 -1.578125q-0.53125 -0.875 -1.15625 -1.8125q-0.625 -0.9375 -1.296875 -1.90625q-0.671875 -0.96875 -1.34375 -1.875q-0.671875 -0.90625 -1.296875 -1.703125q-0.625 -0.796875 -1.15625 -1.40625l0 10.28125l-1.796875 0l0 -13.171875l1.453125 0q0.890625 0.953125 1.90625 2.21875q1.015625 1.265625 2.015625 2.609375q1.0 1.328125 1.875 2.625q0.890625 1.296875 1.5 2.296875l0 -9.75l1.8125 0l0 13.171875l-1.546875 0zm2.8473816 2.015625l9.5 0l0 1.5l-9.5 0l0 -1.5zm12.538254 -2.015625l-1.765625 0l0 -9.875l1.765625 0l0 9.875zm-0.890625 -11.671875q-0.46875 0 -0.8125 -0.3125q-0.328125 -0.3125 -0.328125 -0.84375q0 -0.53125 0.328125 -0.84375q0.34375 -0.3125 0.8125 -0.3125q0.484375 0 0.8125 0.3125q0.328125 0.3125 0.328125 0.84375q0 0.53125 -0.328125 0.84375q-0.328125 0.3125 -0.8125 0.3125z" fill-rule="nonzero"></path></g></svg>

