<?xml version="1.0" encoding="UTF-8" standalone="no"?>
<!-- Created with Inkscape (http://www.inkscape.org/) -->

<svg
   xmlns:dc="http://purl.org/dc/elements/1.1/"
   xmlns:cc="http://creativecommons.org/ns#"
   xmlns:rdf="http://www.w3.org/1999/02/22-rdf-syntax-ns#"
   xmlns:svg="http://www.w3.org/2000/svg"
   xmlns="http://www.w3.org/2000/svg"
   xmlns:sodipodi="http://sodipodi.sourceforge.net/DTD/sodipodi-0.dtd"
   xmlns:inkscape="http://www.inkscape.org/namespaces/inkscape"
   width="210mm"
   height="297mm"
   viewBox="0 0 744.09448819 1052.3622047"
   id="svg4295"
   version="1.1"
   inkscape:version="0.91 r13725"
   sodipodi:docname="figura6.svg">
  <defs
     id="defs4297" />
  <sodipodi:namedview
     id="base"
     pagecolor="#ffffff"
     bordercolor="#666666"
     borderopacity="1.0"
     inkscape:pageopacity="0.0"
     inkscape:pageshadow="2"
     inkscape:zoom="1.3042969"
     inkscape:cx="231.24438"
     inkscape:cy="612.00359"
     inkscape:document-units="px"
     inkscape:current-layer="layer1"
     showgrid="false"
     inkscape:window-width="1855"
     inkscape:window-height="1056"
     inkscape:window-x="65"
     inkscape:window-y="24"
     inkscape:window-maximized="1" />
  <metadata
     id="metadata4300">
    <rdf:RDF>
      <cc:Work
         rdf:about="">
        <dc:format>image/svg+xml</dc:format>
        <dc:type
           rdf:resource="http://purl.org/dc/dcmitype/StillImage" />
        <dc:title></dc:title>
      </cc:Work>
    </rdf:RDF>
  </metadata>
  <g
     inkscape:label="Capa 1"
     inkscape:groupmode="layer"
     id="layer1">
    <path
       d="m 167.82983,246.56248 380,0 0,322.01575 -380,0 z"
       id="path11"
       inkscape:connector-curvature="0"
       style="fill:#000000;fill-opacity:0;fill-rule:evenodd;stroke:none;stroke-linecap:square;stroke-miterlimit:10" />
    <path
       d="m 167.82983,246.56248 380,0 0,322.01575 -380,0 z"
       id="path13"
       inkscape:connector-curvature="0"
       style="fill:none;fill-rule:evenodd;stroke:#000000;stroke-width:2;stroke-linecap:butt;stroke-linejoin:round;stroke-miterlimit:10" />
    <path
       d="m 182.97045,556.17258 q -1.17187,0 -2.125,-0.375 -0.95312,-0.39063 -1.64062,-1.125 -0.6875,-0.73438 -1.07813,-1.8125 -0.375,-1.07813 -0.375,-2.46875 0,-1.39063 0.42188,-2.46875 0.4375,-1.09375 1.15625,-1.82813 0.71875,-0.73437 1.67187,-1.10937 0.96875,-0.39063 2.04688,-0.39063 0.6875,0 1.23437,0.0937 0.5625,0.0937 0.96875,0.23438 0.40625,0.125 0.65625,0.25 0.26563,0.125 0.35938,0.1875 l -0.45313,1.28125 q -0.14062,-0.0937 -0.42187,-0.20313 -0.26563,-0.10937 -0.60938,-0.21875 -0.34375,-0.125 -0.75,-0.1875 -0.40625,-0.0781 -0.8125,-0.0781 -0.89062,0 -1.59375,0.3125 -0.70312,0.29687 -1.20312,0.875 -0.48438,0.57812 -0.75,1.40625 -0.26563,0.8125 -0.26563,1.84375 0,0.98437 0.23438,1.8125 0.23437,0.8125 0.6875,1.39062 0.46875,0.57813 1.15625,0.90625 0.70312,0.3125 1.625,0.3125 1.07812,0 1.78125,-0.21875 0.70312,-0.21875 1.0625,-0.40625 l 0.39062,1.28125 q -0.10937,0.0781 -0.40625,0.20313 -0.28125,0.125 -0.71875,0.23437 -0.42187,0.10938 -1,0.1875 -0.57812,0.0781 -1.25,0.0781 z m 12.40439,-4.39063 q 0,0.98438 -0.29688,1.79688 -0.28125,0.79687 -0.79687,1.375 -0.51563,0.5625 -1.25,0.875 -0.71875,0.3125 -1.5625,0.3125 -0.84375,0 -1.5625,-0.3125 -0.71875,-0.3125 -1.25,-0.875 -0.51563,-0.57813 -0.8125,-1.375 -0.28125,-0.8125 -0.28125,-1.79688 0,-0.98437 0.28125,-1.78125 0.29687,-0.8125 0.8125,-1.39062 0.53125,-0.57813 1.25,-0.89063 0.71875,-0.3125 1.5625,-0.3125 0.84375,0 1.5625,0.3125 0.73437,0.3125 1.25,0.89063 0.51562,0.57812 0.79687,1.39062 0.29688,0.79688 0.29688,1.78125 z m -1.54688,0 q 0,-1.40625 -0.64062,-2.23437 -0.625,-0.82813 -1.71875,-0.82813 -1.09375,0 -1.71875,0.82813 -0.625,0.82812 -0.625,2.23437 0,1.40625 0.625,2.23438 0.625,0.8125 1.71875,0.8125 1.09375,0 1.71875,-0.8125 0.64062,-0.82813 0.64062,-2.23438 z m 3.64315,-3.92187 q 0.51562,-0.125 1.35937,-0.26563 0.84375,-0.15625 1.95313,-0.15625 0.98437,0 1.64062,0.28125 0.65625,0.28125 1.04688,0.79688 0.40625,0.5 0.5625,1.20312 0.15625,0.70313 0.15625,1.54688 l 0,4.67187 -1.48438,0 0,-4.35937 q 0,-0.76563 -0.10937,-1.29688 -0.10938,-0.54687 -0.34375,-0.875 -0.23438,-0.34375 -0.64063,-0.5 -0.39062,-0.15625 -0.98437,-0.15625 -0.25,0 -0.5,0.0156 -0.25,0.0156 -0.48438,0.0469 -0.23437,0.0156 -0.42187,0.0469 -0.1875,0.0312 -0.26563,0.0469 l 0,7.03125 -1.48437,0 0,-8.07812 z m 10.57464,-0.23438 3.15625,0 0,1.23438 -3.15625,0 0,3.84375 q 0,0.625 0.0937,1.03125 0.0937,0.40625 0.28125,0.64062 0.20313,0.23438 0.48438,0.32813 0.29687,0.0937 0.67187,0.0937 0.67188,0 1.07813,-0.14063 0.42187,-0.15625 0.57812,-0.21875 l 0.28125,1.23438 q -0.21875,0.10937 -0.78125,0.26562 -0.5625,0.17188 -1.28125,0.17188 -0.84375,0 -1.40625,-0.20313 -0.54687,-0.21875 -0.89062,-0.65625 -0.32813,-0.4375 -0.46875,-1.0625 -0.125,-0.64062 -0.125,-1.46875 l 0,-7.42187 1.48437,-0.25 0,2.57812 z m 8.11951,-0.1875 q 0.1875,0 0.4375,0.0312 0.25,0.0156 0.48437,0.0625 0.23438,0.0312 0.4375,0.0781 0.20313,0.0469 0.29688,0.0781 l -0.25,1.29688 q -0.1875,-0.0781 -0.59375,-0.15625 -0.40625,-0.0937 -1.04688,-0.0937 -0.40625,0 -0.82812,0.0937 -0.40625,0.0781 -0.53125,0.125 l 0,6.98437 -1.48438,0 0,-7.96875 q 0.53125,-0.1875 1.3125,-0.35937 0.78125,-0.17188 1.76563,-0.17188 z m 10.44163,4.34375 q 0,0.98438 -0.29687,1.79688 -0.28125,0.79687 -0.79688,1.375 -0.51562,0.5625 -1.25,0.875 -0.71875,0.3125 -1.5625,0.3125 -0.84375,0 -1.5625,-0.3125 -0.71875,-0.3125 -1.25,-0.875 -0.51562,-0.57813 -0.8125,-1.375 -0.28125,-0.8125 -0.28125,-1.79688 0,-0.98437 0.28125,-1.78125 0.29688,-0.8125 0.8125,-1.39062 0.53125,-0.57813 1.25,-0.89063 0.71875,-0.3125 1.5625,-0.3125 0.84375,0 1.5625,0.3125 0.73438,0.3125 1.25,0.89063 0.51563,0.57812 0.79688,1.39062 0.29687,0.79688 0.29687,1.78125 z m -1.54687,0 q 0,-1.40625 -0.64063,-2.23437 -0.625,-0.82813 -1.71875,-0.82813 -1.09375,0 -1.71875,0.82813 -0.625,0.82812 -0.625,2.23437 0,1.40625 0.625,2.23438 0.625,0.8125 1.71875,0.8125 1.09375,0 1.71875,-0.8125 0.64063,-0.82813 0.64063,-2.23438 z m 6.14314,4.3125 q -1.375,-0.0312 -1.95312,-0.57812 -0.57813,-0.5625 -0.57813,-1.75 l 0,-9.98438 1.48438,-0.26562 0,10 q 0,0.375 0.0625,0.625 0.0625,0.23437 0.20312,0.375 0.15625,0.14062 0.39063,0.21875 0.23437,0.0625 0.59375,0.10937 l -0.20313,1.25 z m 10.93904,-6.71875 q -0.26562,-0.21875 -0.78125,-0.42187 -0.51562,-0.21875 -1.125,-0.21875 -0.64062,0 -1.09375,0.23437 -0.45312,0.23438 -0.75,0.64063 -0.28126,0.40625 -0.40626,0.96875 -0.125,0.5625 -0.125,1.20312 0,1.45313 0.71876,2.25 0.71875,0.78125 1.92188,0.78125 0.59375,0 1,-0.0469 0.42187,-0.0625 0.64062,-0.125 l 0,-5.26563 z m 0,-5.59375 1.48438,-0.26562 0,12.1875 q -0.51563,0.14062 -1.3125,0.28125 -0.79688,0.14062 -1.84375,0.14062 -0.95313,0 -1.71875,-0.29687 -0.76564,-0.3125 -1.31252,-0.85938 -0.54687,-0.5625 -0.84375,-1.375 -0.29687,-0.8125 -0.29687,-1.8125 0,-0.96875 0.25,-1.76562 0.25,-0.79688 0.71875,-1.375 0.48437,-0.57813 1.17189,-0.89063 0.70312,-0.32812 1.60937,-0.32812 0.71875,0 1.26563,0.20312 0.5625,0.1875 0.82812,0.35938 l 0,-4.20313 z m 3.58026,8.01563 q 0,-1.10938 0.3125,-1.92188 0.32813,-0.82812 0.85938,-1.375 0.53125,-0.54687 1.21875,-0.8125 0.6875,-0.28125 1.40625,-0.28125 1.67187,0 2.5625,1.04688 0.90625,1.04687 0.90625,3.20312 0,0.0937 0,0.25 0,0.14063 -0.0156,0.26563 l -5.6875,0 q 0.0937,1.29687 0.75,1.96875 0.65625,0.67187 2.04688,0.67187 0.78125,0 1.3125,-0.125 0.54687,-0.14062 0.8125,-0.26562 l 0.20312,1.25 q -0.26562,0.14062 -0.95312,0.29687 -0.67188,0.15625 -1.53125,0.15625 -1.09375,0 -1.89063,-0.32812 -0.78125,-0.32813 -1.29687,-0.89063 -0.51563,-0.57812 -0.76563,-1.375 -0.25,-0.79687 -0.25,-1.73437 z m 5.71875,-0.8125 q 0.0156,-1.01563 -0.51562,-1.65625 -0.51563,-0.65625 -1.42188,-0.65625 -0.51562,0 -0.90625,0.20312 -0.39062,0.20313 -0.67187,0.53125 -0.26563,0.3125 -0.42188,0.73438 -0.14062,0.40625 -0.1875,0.84375 l 4.125,0 z m 8.87439,4.95312 -1.48437,0 0,-8.3125 1.48437,0 0,8.3125 z m -0.75,-9.82812 q -0.40625,0 -0.6875,-0.26563 -0.26562,-0.26562 -0.26562,-0.70312 0,-0.45313 0.26562,-0.71875 0.28125,-0.26563 0.6875,-0.26563 0.40625,0 0.67188,0.26563 0.28125,0.26562 0.28125,0.71875 0,0.4375 -0.28125,0.70312 -0.26563,0.26563 -0.67188,0.26563 z m 3.31366,1.75 q 0.51563,-0.125 1.35938,-0.26563 0.84375,-0.15625 1.95312,-0.15625 0.98438,0 1.64063,0.28125 0.65625,0.28125 1.04687,0.79688 0.40625,0.5 0.5625,1.20312 0.15625,0.70313 0.15625,1.54688 l 0,4.67187 -1.48437,0 0,-4.35937 q 0,-0.76563 -0.10938,-1.29688 -0.10937,-0.54687 -0.34375,-0.875 -0.23437,-0.34375 -0.64062,-0.5 -0.39063,-0.15625 -0.98438,-0.15625 -0.25,0 -0.5,0.0156 -0.25,0.0156 -0.48437,0.0469 -0.23438,0.0156 -0.42188,0.0469 -0.1875,0.0312 -0.26562,0.0469 l 0,7.03125 -1.48438,0 0,-8.07812 z m 15.68402,-0.23438 q -0.625,2.32813 -1.46875,4.46875 -0.84375,2.14063 -1.625,3.84375 l -1.34375,0 q -0.78125,-1.70312 -1.625,-3.84375 -0.84375,-2.14062 -1.46875,-4.46875 l 1.60938,0 q 0.1875,0.78125 0.45312,1.67188 0.26563,0.875 0.5625,1.75 0.29688,0.875 0.59375,1.6875 0.3125,0.8125 0.57813,1.45312 0.26562,-0.64062 0.5625,-1.45312 0.3125,-0.8125 0.60937,-1.6875 0.29688,-0.875 0.5625,-1.75 0.26563,-0.89063 0.45313,-1.67188 l 1.54687,0 z m 1.06324,4.17188 q 0,-1.10938 0.3125,-1.92188 0.32812,-0.82812 0.85937,-1.375 0.53125,-0.54687 1.21875,-0.8125 0.6875,-0.28125 1.40625,-0.28125 1.67188,0 2.5625,1.04688 0.90625,1.04687 0.90625,3.20312 0,0.0937 0,0.25 0,0.14063 -0.0156,0.26563 l -5.6875,0 q 0.0937,1.29687 0.75,1.96875 0.65625,0.67187 2.04687,0.67187 0.78125,0 1.3125,-0.125 0.54688,-0.14062 0.8125,-0.26562 l 0.20313,1.25 q -0.26563,0.14062 -0.95313,0.29687 -0.67187,0.15625 -1.53125,0.15625 -1.09375,0 -1.89062,-0.32812 -0.78125,-0.32813 -1.29688,-0.89063 -0.51562,-0.57812 -0.76562,-1.375 -0.25,-0.79687 -0.25,-1.73437 z m 5.71875,-0.8125 q 0.0156,-1.01563 -0.51563,-1.65625 -0.51562,-0.65625 -1.42187,-0.65625 -0.51563,0 -0.90625,0.20312 -0.39063,0.20313 -0.67188,0.53125 -0.26562,0.3125 -0.42187,0.73438 -0.14063,0.40625 -0.1875,0.84375 l 4.125,0 z m 3.69403,-3.125 q 0.51562,-0.125 1.35937,-0.26563 0.84375,-0.15625 1.95313,-0.15625 0.98437,0 1.64062,0.28125 0.65625,0.28125 1.04688,0.79688 0.40625,0.5 0.5625,1.20312 0.15625,0.70313 0.15625,1.54688 l 0,4.67187 -1.48438,0 0,-4.35937 q 0,-0.76563 -0.10937,-1.29688 -0.10938,-0.54687 -0.34375,-0.875 -0.23438,-0.34375 -0.64063,-0.5 -0.39062,-0.15625 -0.98437,-0.15625 -0.25,0 -0.5,0.0156 -0.25,0.0156 -0.48438,0.0469 -0.23437,0.0156 -0.42187,0.0469 -0.1875,0.0312 -0.26563,0.0469 l 0,7.03125 -1.48437,0 0,-8.07812 z m 10.57464,-0.23438 3.15625,0 0,1.23438 -3.15625,0 0,3.84375 q 0,0.625 0.0937,1.03125 0.0937,0.40625 0.28125,0.64062 0.20313,0.23438 0.48438,0.32813 0.29687,0.0937 0.67187,0.0937 0.67188,0 1.07813,-0.14063 0.42187,-0.15625 0.57812,-0.21875 l 0.28125,1.23438 q -0.21875,0.10937 -0.78125,0.26562 -0.5625,0.17188 -1.28125,0.17188 -0.84375,0 -1.40625,-0.20313 -0.54687,-0.21875 -0.89062,-0.65625 -0.32813,-0.4375 -0.46875,-1.0625 -0.125,-0.64062 -0.125,-1.46875 l 0,-7.42187 1.48437,-0.25 0,2.57812 z m 7.85389,7.23438 q 0.53125,0 0.9375,-0.0156 0.40625,-0.0312 0.6875,-0.0937 l 0,-2.46875 q -0.17188,-0.0937 -0.53125,-0.14062 -0.35938,-0.0625 -0.875,-0.0625 -0.32813,0 -0.70313,0.0469 -0.375,0.0469 -0.6875,0.20313 -0.3125,0.15625 -0.53125,0.42187 -0.20312,0.26563 -0.20312,0.6875 0,0.79688 0.51562,1.10938 0.51563,0.3125 1.39063,0.3125 z m -0.125,-7.45313 q 0.89062,0 1.5,0.23438 0.625,0.23437 1,0.65625 0.375,0.42187 0.53125,1.01562 0.17187,0.57813 0.17187,1.28125 l 0,5.20313 q -0.20312,0.0312 -0.54687,0.0937 -0.34375,0.0469 -0.78125,0.0937 -0.42188,0.0469 -0.92188,0.0781 -0.5,0.0469 -1,0.0469 -0.70312,0 -1.29687,-0.14063 -0.59375,-0.14062 -1.03125,-0.45312 -0.42188,-0.3125 -0.67188,-0.82813 -0.23437,-0.51562 -0.23437,-1.23437 0,-0.6875 0.28125,-1.17188 0.28125,-0.5 0.75,-0.79687 0.48437,-0.3125 1.125,-0.45313 0.64062,-0.15625 1.34375,-0.15625 0.23437,0 0.46875,0.0312 0.23437,0.0156 0.45312,0.0625 0.21875,0.0469 0.375,0.0781 0.15625,0.0312 0.23438,0.0469 l 0,-0.42187 q 0,-0.35938 -0.0937,-0.71875 -0.0781,-0.375 -0.28125,-0.64063 -0.20313,-0.28125 -0.5625,-0.45312 -0.35938,-0.17188 -0.9375,-0.17188 -0.73438,0 -1.29688,0.10938 -0.54687,0.0937 -0.8125,0.21875 l -0.1875,-1.23438 q 0.29688,-0.125 0.96875,-0.25 0.67188,-0.125 1.45313,-0.125 z m 8.74264,0.0312 q 0.1875,0 0.4375,0.0312 0.25,0.0156 0.48438,0.0625 0.23437,0.0312 0.4375,0.0781 0.20312,0.0469 0.29687,0.0781 l -0.25,1.29688 q -0.1875,-0.0781 -0.59375,-0.15625 -0.40625,-0.0937 -1.04687,-0.0937 -0.40625,0 -0.82813,0.0937 -0.40625,0.0781 -0.53125,0.125 l 0,6.98437 -1.48437,0 0,-7.96875 q 0.53125,-0.1875 1.3125,-0.35937 0.78125,-0.17188 1.76562,-0.17188 z m 4.58225,8.5 -1.48438,0 0,-8.3125 1.48438,0 0,8.3125 z m -0.75,-9.82812 q -0.40625,0 -0.6875,-0.26563 -0.26563,-0.26562 -0.26563,-0.70312 0,-0.45313 0.26563,-0.71875 0.28125,-0.26563 0.6875,-0.26563 0.40625,0 0.67187,0.26563 0.28125,0.26562 0.28125,0.71875 0,0.4375 -0.28125,0.70312 -0.26562,0.26563 -0.67187,0.26563 z m 10.65741,5.67187 q 0,0.98438 -0.29688,1.79688 -0.28125,0.79687 -0.79687,1.375 -0.51563,0.5625 -1.25,0.875 -0.71875,0.3125 -1.5625,0.3125 -0.84375,0 -1.5625,-0.3125 -0.71875,-0.3125 -1.25,-0.875 -0.51563,-0.57813 -0.8125,-1.375 -0.28125,-0.8125 -0.28125,-1.79688 0,-0.98437 0.28125,-1.78125 0.29687,-0.8125 0.8125,-1.39062 0.53125,-0.57813 1.25,-0.89063 0.71875,-0.3125 1.5625,-0.3125 0.84375,0 1.5625,0.3125 0.73437,0.3125 1.25,0.89063 0.51562,0.57812 0.79687,1.39062 0.29688,0.79688 0.29688,1.78125 z m -1.54688,0 q 0,-1.40625 -0.64062,-2.23437 -0.625,-0.82813 -1.71875,-0.82813 -1.09375,0 -1.71875,0.82813 -0.625,0.82812 -0.625,2.23437 0,1.40625 0.625,2.23438 0.625,0.8125 1.71875,0.8125 1.09375,0 1.71875,-0.8125 0.64062,-0.82813 0.64062,-2.23438 z"
       id="path15"
       inkscape:connector-curvature="0"
       style="fill:#000000;fill-rule:nonzero;stroke:none;stroke-linecap:square;stroke-miterlimit:10" />
    <path
       d="m 402.11331,462.13728 0,0 c 0,-25.62253 21.87106,-46.39371 48.85037,-46.39371 l 0,0 c 12.95593,0 25.38123,4.88791 34.54245,13.58841 9.16123,8.7005 14.30795,20.50092 14.30795,32.8053 l 0,0 c 0,25.62253 -21.87106,46.39371 -48.8504,46.39371 l 0,0 c -26.97931,0 -48.85037,-20.77118 -48.85037,-46.39371 z"
       id="path17"
       inkscape:connector-curvature="0"
       style="fill:#cfe2f3;fill-rule:evenodd;stroke:none;stroke-linecap:square;stroke-miterlimit:10" />
    <path
       d="m 402.11331,462.13728 0,0 c 0,-25.62253 21.87106,-46.39371 48.85037,-46.39371 l 0,0 c 12.95593,0 25.38123,4.88791 34.54245,13.58841 9.16123,8.7005 14.30795,20.50092 14.30795,32.8053 l 0,0 c 0,25.62253 -21.87106,46.39371 -48.8504,46.39371 l 0,0 c -26.97931,0 -48.85037,-20.77118 -48.85037,-46.39371 z"
       id="path19"
       inkscape:connector-curvature="0"
       style="fill:none;fill-rule:evenodd;stroke:#000000;stroke-width:1;stroke-linecap:butt;stroke-linejoin:round;stroke-miterlimit:10" />
    <path
       d="m 442.07315,458.15354 q 0.25,0.875 0.53125,1.8125 0.29687,0.92188 0.60937,1.85938 0.3125,0.9375 0.625,1.84375 0.3125,0.90625 0.59375,1.70312 0.25,-0.85937 0.46875,-1.875 0.21875,-1.01562 0.4375,-2.10937 0.23438,-1.10938 0.45313,-2.23438 0.21875,-1.14062 0.40625,-2.25 l 2.07812,0 q -0.5625,3.01563 -1.25,5.79688 -0.6875,2.76562 -1.53125,5.29687 l -1.92187,0 q -1.25,-3.23437 -2.42188,-7.0625 -0.59375,1.9375 -1.20312,3.6875 -0.59375,1.75 -1.20313,3.375 l -1.92187,0 q -0.875,-2.53125 -1.5625,-5.29687 -0.67188,-2.78125 -1.21875,-5.79688 l 2.15625,0 q 0.1875,1.09375 0.40625,2.23438 0.21875,1.125 0.4375,2.23437 0.23437,1.09375 0.46875,2.125 0.25,1.01563 0.5,1.875 0.29687,-0.8125 0.60937,-1.71875 0.3125,-0.90625 0.60938,-1.84375 0.3125,-0.9375 0.59375,-1.85937 0.28125,-0.92188 0.51562,-1.79688 l 1.73438,0 z m 10.7424,8.48438 q 0.90625,0 1.35938,-0.0937 l 0,-2.14063 q -0.15625,-0.0469 -0.46875,-0.0937 -0.29688,-0.0625 -0.65625,-0.0625 -0.32813,0 -0.65625,0.0625 -0.32813,0.0469 -0.59375,0.17188 -0.26563,0.125 -0.42188,0.35937 -0.15625,0.23438 -0.15625,0.57813 0,0.6875 0.42188,0.95312 0.4375,0.26563 1.17187,0.26563 z m -0.15625,-7.21875 q 0.95313,0 1.60938,0.25 0.65625,0.23437 1.04687,0.67187 0.40625,0.42188 0.5625,1.04688 0.17188,0.60937 0.17188,1.34375 l 0,5.07812 q -0.45313,0.0937 -1.35938,0.21875 -0.89062,0.14063 -2.03125,0.14063 -0.75,0 -1.375,-0.14063 -0.625,-0.14062 -1.0625,-0.45312 -0.4375,-0.32813 -0.6875,-0.84375 -0.25,-0.51563 -0.25,-1.26563 0,-0.71875 0.28125,-1.20312 0.28125,-0.5 0.75,-0.8125 0.48438,-0.3125 1.10938,-0.45313 0.64062,-0.14062 1.32812,-0.14062 0.32813,0 0.67188,0.0469 0.35937,0.0312 0.75,0.14063 l 0,-0.32813 q 0,-0.32812 -0.0781,-0.625 -0.0781,-0.3125 -0.28125,-0.54687 -0.20312,-0.23438 -0.53125,-0.35938 -0.32812,-0.125 -0.8125,-0.125 -0.67187,0 -1.23437,0.0937 -0.5625,0.0937 -0.90625,0.21875 l -0.25,-1.5625 q 0.375,-0.125 1.07812,-0.25 0.70313,-0.14062 1.5,-0.14062 z m 7.71588,8.57812 -1.9375,0 0,-8.375 1.9375,0 0,8.375 z m 0.20313,-10.8125 q 0,0.54688 -0.35938,0.875 -0.34375,0.3125 -0.82812,0.3125 -0.48438,0 -0.84375,-0.3125 -0.34375,-0.32812 -0.34375,-0.875 0,-0.5625 0.34375,-0.875 0.35937,-0.32812 0.84375,-0.32812 0.48437,0 0.82812,0.32812 0.35938,0.3125 0.35938,0.875 z m 2.16601,0.23438 1.9375,-0.3125 0,2.51562 2.96875,0 0,1.625 -2.96875,0 0,3.40625 q 0,1 0.3125,1.4375 0.32813,0.4375 1.09375,0.4375 0.53125,0 0.9375,-0.10937 0.40625,-0.125 0.64063,-0.21875 l 0.32812,1.54687 q -0.34375,0.14063 -0.89062,0.28125 -0.54688,0.15625 -1.28125,0.15625 -0.89063,0 -1.5,-0.23437 -0.59375,-0.23438 -0.95313,-0.6875 -0.34375,-0.46875 -0.48437,-1.10938 -0.14063,-0.65625 -0.14063,-1.48437 l 0,-7.25 z"
       id="path21"
       inkscape:connector-curvature="0"
       style="fill:#000000;fill-rule:nonzero;stroke:none;stroke-linecap:square;stroke-miterlimit:10" />
    <path
       d="m 431.52273,380.07429 93.29135,0 0,38.99213 -93.29135,0 z"
       id="path23"
       inkscape:connector-curvature="0"
       style="fill:#000000;fill-opacity:0;fill-rule:evenodd;stroke:none;stroke-linecap:square;stroke-miterlimit:10" />
    <path
       d="m 454.36901,400.40054 q 0,-1.6875 0.5,-2.98437 0.5,-1.29688 1.35937,-2.15625 0.875,-0.85938 2.01563,-1.29688 1.15625,-0.4375 2.4375,-0.4375 1.28125,0 2.40625,0.4375 1.14062,0.4375 1.98437,1.29688 0.85938,0.85937 1.35938,2.15625 0.51562,1.29687 0.51562,2.98437 0,1.68752 -0.51562,2.98439 -0.5,1.29688 -1.35938,2.15625 -0.84375,0.85938 -1.98437,1.29688 -1.125,0.4375 -2.40625,0.4375 -1.28125,0 -2.4375,-0.4375 -1.14063,-0.4375 -2.01563,-1.29688 -0.85937,-0.85937 -1.35937,-2.15625 -0.5,-1.29687 -0.5,-2.98439 z m 1.9375,0 q 0,1.20314 0.29687,2.18752 0.29688,0.96875 0.85938,1.65625 0.5625,0.67187 1.375,1.04687 0.8125,0.375 1.8125,0.375 1,0 1.79687,-0.375 0.8125,-0.375 1.35938,-1.04687 0.5625,-0.6875 0.85937,-1.65625 0.3125,-0.98438 0.3125,-2.18752 0,-1.20312 -0.3125,-2.17187 -0.29687,-0.98438 -0.85937,-1.65625 -0.54688,-0.6875 -1.35938,-1.0625 -0.79687,-0.375 -1.79687,-0.375 -1,0 -1.8125,0.375 -0.8125,0.375 -1.375,1.0625 -0.5625,0.67187 -0.85938,1.65625 -0.29687,0.96875 -0.29687,2.17187 z m 20.85831,6.31252 q -0.60938,0.14062 -1.60938,0.3125 -1,0.17187 -2.3125,0.17187 -1.14062,0 -1.92187,-0.32812 -0.76563,-0.32813 -1.25,-0.9375 -0.46875,-0.60938 -0.6875,-1.4375 -0.20313,-0.82813 -0.20313,-1.82813 l 0,-5.54689 1.76563,0 0,5.15627 q 0,1.8125 0.5625,2.59375 0.57812,0.78125 1.92187,0.78125 0.29688,0 0.59375,-0.0156 0.3125,-0.0312 0.57813,-0.0469 0.26562,-0.0312 0.48437,-0.0625 0.21875,-0.0312 0.3125,-0.0625 l 0,-8.34377 1.76563,0 0,9.59377 z m 4.48996,-9.59377 3.75,0 0,1.48438 -3.75,0 0,4.54689 q 0,0.75 0.10937,1.23437 0.125,0.48438 0.34375,0.76563 0.23438,0.26562 0.57813,0.39062 0.34375,0.10938 0.79687,0.10938 0.79688,0 1.28125,-0.17188 0.48438,-0.1875 0.67188,-0.26562 l 0.34375,1.45312 q -0.26563,0.14063 -0.9375,0.32813 -0.65625,0.20312 -1.51563,0.20312 -1,0 -1.65625,-0.25 -0.65625,-0.25 -1.0625,-0.76562 -0.39062,-0.51563 -0.5625,-1.26563 -0.15625,-0.75 -0.15625,-1.73437 l 0,-8.82814 1.76563,-0.29688 0,3.0625 z m 9.63754,5.46877 8.70309,0 0,1.5 -8.70309,0 0,-1.5 z m 0,-4.04689 8.70309,0 0,1.5 -8.70309,0 0,-1.5 z m 23.8317,-3.25 q -0.4375,0.5 -1.03125,1.1875 -0.57813,0.6875 -1.21875,1.54687 -0.64063,0.84375 -1.32813,1.78125 -0.6875,0.9375 -1.34375,1.90627 -0.65625,0.95312 -1.25,1.90625 -0.57812,0.9375 -1.04687,1.79687 l 7.40625,0 0,1.57813 -9.5625,0 0,-1.23438 q 0.40625,-0.76562 0.9375,-1.67187 0.54687,-0.90625 1.15625,-1.85938 0.625,-0.95314 1.28125,-1.92189 0.67187,-0.96875 1.32812,-1.85937 0.65625,-0.89063 1.26563,-1.67188 0.625,-0.78125 1.14062,-1.375 l -6.76562,0 0,-1.57812 9.03125,0 0,1.46875 z"
       id="path25"
       inkscape:connector-curvature="0"
       style="fill:#000000;fill-rule:nonzero;stroke:none;stroke-linecap:square;stroke-miterlimit:10" />
    <path
       d="m 136.82983,447.12941 60,0 0,30.01575 -60,0 z"
       id="path27"
       inkscape:connector-curvature="0"
       style="fill:#6d9eeb;fill-rule:evenodd;stroke:none;stroke-linecap:square;stroke-miterlimit:10" />
    <path
       d="m 136.82983,447.12941 60,0 0,30.01575 -60,0 z"
       id="path29"
       inkscape:connector-curvature="0"
       style="fill:none;fill-rule:evenodd;stroke:#000000;stroke-width:2;stroke-linecap:butt;stroke-linejoin:round;stroke-miterlimit:10" />
    <path
       d="m 148.99377,462.46354 q 0,-1.6875 0.5,-2.98438 0.5,-1.29687 1.35937,-2.15625 0.875,-0.85937 2.01563,-1.29687 1.15625,-0.4375 2.4375,-0.4375 1.28125,0 2.40625,0.4375 1.14062,0.4375 1.98437,1.29687 0.85938,0.85938 1.35938,2.15625 0.51562,1.29688 0.51562,2.98438 0,1.6875 -0.51562,2.98437 -0.5,1.29688 -1.35938,2.15625 -0.84375,0.85938 -1.98437,1.29688 -1.125,0.4375 -2.40625,0.4375 -1.28125,0 -2.4375,-0.4375 -1.14063,-0.4375 -2.01563,-1.29688 -0.85937,-0.85937 -1.35937,-2.15625 -0.5,-1.29687 -0.5,-2.98437 z m 1.9375,0 q 0,1.20312 0.29687,2.1875 0.29688,0.96875 0.85938,1.65625 0.5625,0.67187 1.375,1.04687 0.8125,0.375 1.8125,0.375 1,0 1.79687,-0.375 0.8125,-0.375 1.35938,-1.04687 0.5625,-0.6875 0.85937,-1.65625 0.3125,-0.98438 0.3125,-2.1875 0,-1.20313 -0.3125,-2.17188 -0.29687,-0.98437 -0.85937,-1.65625 -0.54688,-0.6875 -1.35938,-1.0625 -0.79687,-0.375 -1.79687,-0.375 -1,0 -1.8125,0.375 -0.8125,0.375 -1.375,1.0625 -0.5625,0.67188 -0.85938,1.65625 -0.29687,0.96875 -0.29687,2.17188 z m 17.99895,6.875 q -1.28125,0 -2.23438,-0.39063 -0.95312,-0.40625 -1.5625,-1.09375 -0.60937,-0.70312 -0.90625,-1.64062 -0.29687,-0.95313 -0.29687,-2.0625 l 0,-8.26563 1.84375,0 0,8.0625 q 0,1.96875 0.875,2.875 0.875,0.89063 2.28125,0.89063 0.70312,0 1.28125,-0.21875 0.57812,-0.21875 1,-0.67188 0.42187,-0.46875 0.64062,-1.17187 0.23438,-0.71875 0.23438,-1.70313 l 0,-8.0625 1.84375,0 0,8.26563 q 0,1.10937 -0.29688,2.0625 -0.29687,0.9375 -0.92187,1.64062 -0.60938,0.6875 -1.54688,1.09375 -0.9375,0.39063 -2.23437,0.39063 z m 16.74176,-13.45313 0,1.59375 -4.15625,0 0,11.57813 -1.82813,0 0,-11.57813 -4.15625,0 0,-1.59375 10.14063,0 z"
       id="path31"
       inkscape:connector-curvature="0"
       style="fill:#000000;fill-rule:nonzero;stroke:none;stroke-linecap:square;stroke-miterlimit:10" />
    <path
       d="m 136.82983,321.99555 60,0 0,30.01575 -60,0 z"
       id="path33"
       inkscape:connector-curvature="0"
       style="fill:#6d9eeb;fill-rule:evenodd;stroke:none;stroke-linecap:square;stroke-miterlimit:10" />
    <path
       d="m 136.82983,321.99555 60,0 0,30.01575 -60,0 z"
       id="path35"
       inkscape:connector-curvature="0"
       style="fill:none;fill-rule:evenodd;stroke:#000000;stroke-width:2;stroke-linecap:butt;stroke-linejoin:round;stroke-miterlimit:10" />
    <path
       d="m 159.17031,330.75155 1.84375,0 0,13.17187 -1.84375,0 0,-13.17187 z m 14.03415,13.17187 q -0.42188,-0.70312 -0.96875,-1.57812 -0.53125,-0.875 -1.15625,-1.8125 -0.625,-0.9375 -1.29688,-1.90625 -0.67187,-0.96875 -1.34375,-1.875 -0.67187,-0.90625 -1.29687,-1.70313 -0.625,-0.79687 -1.15625,-1.40625 l 0,10.28125 -1.79688,0 0,-13.17187 1.45313,0 q 0.89062,0.95312 1.90625,2.21875 1.01562,1.26562 2.01562,2.60937 1,1.32813 1.875,2.625 0.89063,1.29688 1.5,2.29688 l 0,-9.75 1.8125,0 0,13.17187 -1.54687,0 z"
       id="path37"
       inkscape:connector-curvature="0"
       style="fill:#000000;fill-rule:nonzero;stroke:none;stroke-linecap:square;stroke-miterlimit:10" />
    <path
       d="m 230.12117,399.57035 0,0 c 0,-25.62253 21.87108,-46.39371 48.85039,-46.39371 l 0,0 c 12.95593,0 25.38122,4.8879 34.54245,13.58841 9.16122,8.7005 14.30795,20.50093 14.30795,32.8053 l 0,0 c 0,25.62253 -21.87106,46.39371 -48.8504,46.39371 l 0,0 c -26.97931,0 -48.85039,-20.77118 -48.85039,-46.39371 z"
       id="path39"
       inkscape:connector-curvature="0"
       style="fill:#cfe2f3;fill-rule:evenodd;stroke:none;stroke-linecap:square;stroke-miterlimit:10" />
    <path
       d="m 230.12117,399.57035 0,0 c 0,-25.62253 21.87108,-46.39371 48.85039,-46.39371 l 0,0 c 12.95593,0 25.38122,4.8879 34.54245,13.58841 9.16122,8.7005 14.30795,20.50093 14.30795,32.8053 l 0,0 c 0,25.62253 -21.87106,46.39371 -48.8504,46.39371 l 0,0 c -26.97931,0 -48.85039,-20.77118 -48.85039,-46.39371 z"
       id="path41"
       inkscape:connector-curvature="0"
       style="fill:none;fill-rule:evenodd;stroke:#000000;stroke-width:1;stroke-linecap:butt;stroke-linejoin:round;stroke-miterlimit:10" />
    <path
       d="m 256.39785,399.88348 q 0,0.90625 0.21875,1.65625 0.23437,0.73436 0.65625,1.26561 0.42187,0.51562 1.03125,0.8125 0.60937,0.28125 1.375,0.28125 0.76562,0 1.35937,-0.28125 0.60938,-0.29688 1.03125,-0.8125 0.4375,-0.53125 0.65625,-1.26561 0.21875,-0.75 0.21875,-1.65625 0,-0.92188 -0.21875,-1.65625 -0.21875,-0.75 -0.65625,-1.26563 -0.42187,-0.51562 -1.03125,-0.79687 -0.59375,-0.29688 -1.35937,-0.29688 -0.76563,0 -1.375,0.29688 -0.60938,0.28125 -1.03125,0.8125 -0.42188,0.51562 -0.65625,1.25 -0.21875,0.73437 -0.21875,1.65625 z m 8.65625,0 q 0,1.1875 -0.29688,2.15623 -0.29687,0.95313 -0.84375,1.67188 -0.54687,0.70312 -1.28125,1.15625 -0.71875,0.45312 -1.59375,0.64062 0.0469,0.34375 0.32813,0.57813 0.29687,0.23437 0.73437,0.39062 0.45313,0.17188 1.01563,0.26563 0.5625,0.10937 1.1875,0.15625 l -0.4375,1.51562 q -2.0625,-0.15625 -3.28125,-0.79687 -1.21875,-0.625 -1.5625,-2 -0.98438,-0.0937 -1.84375,-0.5 -0.85938,-0.42188 -1.5,-1.14063 -0.64063,-0.71875 -1.01563,-1.73437 -0.35937,-1.03124 -0.35937,-2.35936 0,-1.42188 0.4375,-2.5 0.4375,-1.09375 1.17187,-1.82813 0.75,-0.73437 1.71875,-1.09375 0.98438,-0.375 2.0625,-0.375 1.09375,0 2.0625,0.375 0.98438,0.35938 1.70313,1.09375 0.73437,0.73438 1.15625,1.82813 0.4375,1.07812 0.4375,2.5 z m 8.98077,5.29686 q -0.5625,0.14062 -1.45312,0.28125 -0.89063,0.15625 -1.96875,0.15625 -1.01563,0 -1.70313,-0.28125 -0.67187,-0.29688 -1.07812,-0.79688 -0.40625,-0.51562 -0.57813,-1.21875 -0.17187,-0.71875 -0.17187,-1.57812 l 0,-4.68749 1.9375,0 0,4.39063 q 0,1.34373 0.39062,1.92186 0.39063,0.57812 1.35938,0.57812 0.35937,0 0.75,-0.0312 0.39062,-0.0312 0.57812,-0.0781 l 0,-6.78124 1.9375,0 0,8.12499 z m 1.99991,-3.89061 q 0,-1.10938 0.32813,-1.9375 0.32812,-0.82813 0.875,-1.375 0.54687,-0.5625 1.25,-0.84375 0.70312,-0.28125 1.4375,-0.28125 1.73437,0 2.6875,1.07812 0.96875,1.0625 0.96875,3.20313 0,0.15625 -0.0156,0.35937 0,0.18749 -0.0156,0.35936 l -5.51563,0 q 0.0781,1 0.70313,1.5625 0.64062,0.54688 1.84375,0.54688 0.70312,0 1.28125,-0.125 0.59375,-0.14063 0.92187,-0.28125 l 0.26563,1.59375 q -0.17188,0.0781 -0.45313,0.17187 -0.26562,0.0781 -0.625,0.14063 -0.35937,0.0781 -0.78125,0.125 -0.42187,0.0469 -0.84375,0.0469 -1.10937,0 -1.92187,-0.32812 -0.8125,-0.32813 -1.34375,-0.90625 -0.53125,-0.57813 -0.79688,-1.375 -0.25,-0.79688 -0.25,-1.73436 z m 5.625,-0.875 q 0,-0.39063 -0.125,-0.75 -0.10937,-0.35938 -0.32812,-0.625 -0.20313,-0.26563 -0.51563,-0.40625 -0.3125,-0.15625 -0.75,-0.15625 -0.45312,0 -0.79687,0.17187 -0.32813,0.15625 -0.5625,0.4375 -0.21875,0.26563 -0.35938,0.625 -0.125,0.34375 -0.17187,0.70313 l 3.60937,0 z m 8.74539,-1.60938 q -0.23437,-0.0781 -0.67187,-0.15625 -0.42188,-0.0937 -0.96875,-0.0937 -0.32813,0 -0.6875,0.0625 -0.35938,0.0625 -0.5,0.10938 l 0,6.70311 -1.9375,0 0,-7.96874 q 0.5625,-0.20312 1.39062,-0.39062 0.84375,-0.1875 1.875,-0.1875 0.1875,0 0.4375,0.0312 0.26563,0.0156 0.51563,0.0625 0.26562,0.0312 0.5,0.0937 0.23437,0.0625 0.39062,0.10937 l -0.34375,1.625 z m 8.5105,-1.75 q -1.29687,4.78124 -3,8.64061 -0.32812,0.71875 -0.67187,1.23438 -0.32813,0.51562 -0.75,0.84375 -0.40625,0.34375 -0.92188,0.48437 -0.51562,0.15625 -1.1875,0.15625 -0.4375,0 -0.89062,-0.0937 -0.4375,-0.0937 -0.65625,-0.20312 l 0.35937,-1.54688 q 0.5625,0.21875 1.125,0.21875 0.75,0 1.17188,-0.35937 0.4375,-0.35938 0.75,-1.10938 -0.90625,-1.76562 -1.75,-3.84373 -0.84375,-2.07812 -1.5,-4.42187 l 2.0625,0 q 0.17187,0.67187 0.39062,1.46875 0.23438,0.78125 0.5,1.59375 0.28125,0.79687 0.57813,1.60935 0.3125,0.79688 0.60937,1.48438 0.51563,-1.42188 0.96875,-3.03123 0.45313,-1.60938 0.8125,-3.125 l 2,0 z"
       id="path43"
       inkscape:connector-curvature="0"
       style="fill:#000000;fill-rule:nonzero;stroke:none;stroke-linecap:square;stroke-miterlimit:10" />
    <path
       d="m 402.11331,337.00343 0,0 c 0,-25.62254 21.87106,-46.39371 48.85037,-46.39371 l 0,0 c 12.95593,0 25.38123,4.8879 34.54245,13.58841 9.16123,8.7005 14.30795,20.50092 14.30795,32.8053 l 0,0 c 0,25.62253 -21.87106,46.39369 -48.8504,46.39369 l 0,0 c -26.97931,0 -48.85037,-20.77116 -48.85037,-46.39369 z"
       id="path45"
       inkscape:connector-curvature="0"
       style="fill:#cfe2f3;fill-rule:evenodd;stroke:none;stroke-linecap:square;stroke-miterlimit:10" />
    <path
       d="m 402.11331,337.00343 0,0 c 0,-25.62254 21.87106,-46.39371 48.85037,-46.39371 l 0,0 c 12.95593,0 25.38123,4.8879 34.54245,13.58841 9.16123,8.7005 14.30795,20.50092 14.30795,32.8053 l 0,0 c 0,25.62253 -21.87106,46.39369 -48.8504,46.39369 l 0,0 c -26.97931,0 -48.85037,-20.77116 -48.85037,-46.39369 z"
       id="path47"
       inkscape:connector-curvature="0"
       style="fill:none;fill-rule:evenodd;stroke:#000000;stroke-width:1;stroke-linecap:butt;stroke-linejoin:round;stroke-miterlimit:10" />
    <path
       d="m 441.68566,343.0978 q -1.23437,0 -2.23437,-0.375 -0.98438,-0.39062 -1.6875,-1.125 -0.6875,-0.75 -1.0625,-1.8125 -0.35938,-1.07812 -0.35938,-2.46875 0,-1.39062 0.42188,-2.46875 0.4375,-1.07812 1.17187,-1.8125 0.73438,-0.75 1.71875,-1.125 1,-0.39062 2.14063,-0.39062 0.6875,0 1.23437,0.10937 0.5625,0.0937 0.96875,0.23438 0.42188,0.125 0.6875,0.26562 0.28125,0.14063 0.39063,0.20313 l -0.57813,1.65625 q -0.39062,-0.25 -1.10937,-0.45313 -0.70313,-0.21875 -1.53125,-0.21875 -0.71875,0 -1.34375,0.25 -0.625,0.23438 -1.09375,0.73438 -0.45313,0.5 -0.70313,1.25 -0.25,0.75 -0.25,1.75 0,0.875 0.1875,1.60937 0.20313,0.73438 0.60938,1.28125 0.42187,0.53125 1.0625,0.82813 0.64062,0.29687 1.54687,0.29687 1.0625,0 1.73438,-0.21875 0.67187,-0.21875 1.04687,-0.40625 l 0.54688,1.64063 q -0.20313,0.125 -0.53125,0.26562 -0.32813,0.125 -0.78125,0.25 -0.4375,0.10938 -1,0.17188 -0.5625,0.0781 -1.20313,0.0781 z m 8.12988,-1.59375 q 0.90625,0 1.35938,-0.0937 l 0,-2.14062 q -0.15625,-0.0469 -0.46875,-0.0937 -0.29688,-0.0625 -0.65625,-0.0625 -0.32813,0 -0.65625,0.0625 -0.32813,0.0469 -0.59375,0.17187 -0.26563,0.125 -0.42188,0.35938 -0.15625,0.23437 -0.15625,0.57812 0,0.6875 0.42188,0.95313 0.4375,0.26562 1.17187,0.26562 z m -0.15625,-7.21875 q 0.95313,0 1.60938,0.25 0.65625,0.23438 1.04687,0.67188 0.40625,0.42187 0.5625,1.04687 0.17188,0.60938 0.17188,1.34375 l 0,5.07813 q -0.45313,0.0937 -1.35938,0.21875 -0.89062,0.14062 -2.03125,0.14062 -0.75,0 -1.375,-0.14062 -0.625,-0.14063 -1.0625,-0.45313 -0.4375,-0.32812 -0.6875,-0.84375 -0.25,-0.51562 -0.25,-1.26562 0,-0.71875 0.28125,-1.20313 0.28125,-0.5 0.75,-0.8125 0.48438,-0.3125 1.10938,-0.45312 0.64062,-0.14063 1.32812,-0.14063 0.32813,0 0.67188,0.0469 0.35937,0.0312 0.75,0.14062 l 0,-0.32812 q 0,-0.32813 -0.0781,-0.625 -0.0781,-0.3125 -0.28125,-0.54688 -0.20312,-0.23437 -0.53125,-0.35937 -0.32812,-0.125 -0.8125,-0.125 -0.67187,0 -1.23437,0.0937 -0.5625,0.0937 -0.90625,0.21875 l -0.25,-1.5625 q 0.375,-0.125 1.07812,-0.25 0.70313,-0.14063 1.5,-0.14063 z m 8.66901,8.73438 q -0.85938,-0.0156 -1.4375,-0.1875 -0.5625,-0.17188 -0.90625,-0.5 -0.32813,-0.32813 -0.46875,-0.8125 -0.125,-0.5 -0.125,-1.125 l 0,-9.625 1.9375,-0.32813 0,9.59375 q 0,0.34375 0.0469,0.59375 0.0625,0.23438 0.20313,0.40625 0.14062,0.17188 0.39062,0.26563 0.25,0.0781 0.64063,0.125 l -0.28125,1.59375 z m 1.37701,-4.32813 q 0,-0.9375 0.28125,-1.73437 0.29688,-0.8125 0.82813,-1.40625 0.54687,-0.59375 1.3125,-0.92188 0.76562,-0.34375 1.71875,-0.34375 1.1875,0 2.25,0.4375 l -0.42188,1.57813 q -0.32812,-0.14063 -0.76562,-0.23438 -0.42188,-0.0937 -0.89063,-0.0937 -1.14062,0 -1.73437,0.71875 -0.59375,0.70313 -0.59375,2 0,1.25 0.5625,1.98438 0.5625,0.71875 1.89062,0.71875 0.5,0 0.96875,-0.0937 0.48438,-0.0937 0.84375,-0.25 l 0.26563,1.60937 q -0.32813,0.15625 -0.98438,0.28125 -0.64062,0.125 -1.32812,0.125 -1.0625,0 -1.85938,-0.32812 -0.79687,-0.32813 -1.3125,-0.90625 -0.51562,-0.57813 -0.78125,-1.39063 -0.25,-0.8125 -0.25,-1.75 z"
       id="path49"
       inkscape:connector-curvature="0"
       style="fill:#000000;fill-rule:nonzero;stroke:none;stroke-linecap:square;stroke-miterlimit:10" />
    <path
       d="m 416.42123,494.94258 c 0,12.30997 -34.36218,30.742 -68.7244,24.61993 -34.36221,-6.12204 -68.72439,-36.79815 -68.72439,-73.59631"
       id="path51"
       inkscape:connector-curvature="0"
       style="fill:#000000;fill-opacity:0;fill-rule:evenodd;stroke:none;stroke-linecap:square;stroke-miterlimit:10" />
    <path
       d="m 416.42123,494.94258 c 0,12.31 -34.36218,30.742 -68.7244,24.61993 -17.18109,-3.061 -34.36221,-12.26055 -47.24804,-25.29461 -6.4429,-6.517 -11.81198,-13.99268 -15.57038,-22.13895 -1.87918,-4.07315 -3.35568,-8.31393 -4.36236,-12.6864 -0.0629,-0.27329 -0.124,-0.54709 -0.18326,-0.82138 l -0.14954,-0.71622"
       id="path53"
       inkscape:connector-curvature="0"
       style="fill:none;fill-rule:evenodd;stroke:#000000;stroke-width:2;stroke-linecap:butt;stroke-linejoin:round;stroke-miterlimit:10;stroke-dasharray:8, 6" />
    <path
       d="m 283.46988,457.57164 -4.20242,-8.69653 -2.37079,9.36319 z"
       id="path55"
       inkscape:connector-curvature="0"
       style="fill:#000000;fill-rule:evenodd;stroke:#000000;stroke-width:2;stroke-linecap:butt;stroke-miterlimit:10" />
    <path
       d="m 278.97155,353.17665 c 0,-31.80696 34.36221,-57.4919 68.72443,-63.61394 34.36218,-6.12205 68.7244,7.31879 68.7244,14.63758"
       id="path57"
       inkscape:connector-curvature="0"
       style="fill:#000000;fill-opacity:0;fill-rule:evenodd;stroke:none;stroke-linecap:square;stroke-miterlimit:10" />
    <path
       d="m 278.97155,353.17665 c 0,-31.80698 34.36221,-57.4919 68.72443,-63.61394 17.18109,-3.06102 34.36218,-1.23134 47.24802,2.27848 3.22146,0.87744 6.17446,1.8599 8.79193,2.8972 0.65429,0.25932 1.28772,0.52208 1.89904,0.78747 0.3057,0.13269 0.6059,0.26606 0.90046,0.39998 0.14724,0.067 0.29309,0.13407 0.43753,0.20128 l 0.401,0.18887"
       id="path59"
       inkscape:connector-curvature="0"
       style="fill:none;fill-rule:evenodd;stroke:#000000;stroke-width:2;stroke-linecap:butt;stroke-linejoin:round;stroke-miterlimit:10" />
    <path
       d="m 405.20349,298.80636 9.01273,3.4729 -4.67182,-8.45366 z"
       id="path61"
       inkscape:connector-curvature="0"
       style="fill:#000000;fill-rule:evenodd;stroke:#000000;stroke-width:2;stroke-linecap:butt;stroke-miterlimit:10" />
    <path
       d="m 499.81408,337.00343 c 12.5,0 24.99213,31.28346 25,62.56692 0.008,31.28348 -12.46851,62.56693 -24.93701,62.56693"
       id="path63"
       inkscape:connector-curvature="0"
       style="fill:#000000;fill-opacity:0;fill-rule:evenodd;stroke:none;stroke-linecap:square;stroke-miterlimit:10" />
    <path
       d="m 499.81408,337.00343 c 12.5,0 24.99213,31.28346 25,62.56692 0.004,15.64173 -3.11322,31.28348 -7.78986,43.01477 -1.16919,2.93284 -2.43585,5.62125 -3.77551,8.00415 -0.66986,1.19147 -1.35797,2.30655 -2.06134,3.33762 -0.35168,0.51556 -0.70715,1.01007 -1.06604,1.48267 l -0.16547,0.21481"
       id="path65"
       inkscape:connector-curvature="0"
       style="fill:none;fill-rule:evenodd;stroke:#000000;stroke-width:2;stroke-linecap:butt;stroke-linejoin:round;stroke-miterlimit:10;stroke-dasharray:8, 6" />
    <path
       d="m 508.1629,452.8498 -5.83014,7.70059 9.41602,-2.15146 z"
       id="path67"
       inkscape:connector-curvature="0"
       style="fill:#000000;fill-rule:evenodd;stroke:#000000;stroke-width:2;stroke-linecap:butt;stroke-miterlimit:10" />
    <path
       d="m 246.72091,273.56248 64.50394,0 0,30.01575 -64.50394,0 z"
       id="path69"
       inkscape:connector-curvature="0"
       style="fill:#000000;fill-opacity:0;fill-rule:evenodd;stroke:none;stroke-linecap:square;stroke-miterlimit:10" />
    <path
       d="m 263.97836,282.31848 1.84375,0 0,13.17187 -1.84375,0 0,-13.17187 z m 4.89355,3.57812 q 0.60938,-0.15625 1.60938,-0.32812 1.01562,-0.17188 2.32812,-0.17188 1.17188,0 1.95313,0.34375 0.78125,0.32813 1.25,0.92188 0.46875,0.59375 0.65625,1.4375 0.1875,0.82812 0.1875,1.84375 l 0,5.54687 -1.76563,0 0,-5.17187 q 0,-0.90625 -0.125,-1.54688 -0.125,-0.65625 -0.40625,-1.04687 -0.28125,-0.40625 -0.76562,-0.57813 -0.46875,-0.1875 -1.17188,-0.1875 -0.28125,0 -0.59375,0.0156 -0.29687,0.0156 -0.57812,0.0469 -0.28125,0.0312 -0.5,0.0781 -0.21875,0.0312 -0.3125,0.0469 l 0,8.34375 -1.76563,0 0,-9.59375 z m 14.50266,5.1875 8.70312,0 0,1.5 -8.70312,0 0,-1.5 z m 0,-4.04687 8.70312,0 0,1.5 -8.70312,0 0,-1.5 z m 15.47235,-4.71875 1.84375,0 0,13.17187 -1.84375,0 0,-13.17187 z"
       id="path71"
       inkscape:connector-curvature="0"
       style="fill:#000000;fill-rule:nonzero;stroke:none;stroke-linecap:square;stroke-miterlimit:10" />
    <path
       d="m 125.3298,399.12941 81.00787,0 0,30.01575 -81.00787,0 z"
       id="path73"
       inkscape:connector-curvature="0"
       style="fill:#6d9eeb;fill-rule:evenodd;stroke:none;stroke-linecap:square;stroke-miterlimit:10" />
    <path
       d="m 125.3298,399.12941 81.00787,0 0,30.01575 -81.00787,0 z"
       id="path75"
       inkscape:connector-curvature="0"
       style="fill:none;fill-rule:evenodd;stroke:#000000;stroke-width:2;stroke-linecap:butt;stroke-linejoin:round;stroke-miterlimit:10" />
    <path
       d="m 136.15095,414.46354 q 0,-1.6875 0.5,-2.98438 0.5,-1.29687 1.35937,-2.15625 0.875,-0.85937 2.01563,-1.29687 1.15625,-0.4375 2.4375,-0.4375 1.28125,0 2.40625,0.4375 1.14062,0.4375 1.98437,1.29687 0.85938,0.85938 1.35938,2.15625 0.51562,1.29688 0.51562,2.98438 0,1.48437 -0.39062,2.64062 -0.375,1.15625 -1.04688,2 -0.67187,0.84375 -1.57812,1.375 -0.90625,0.51563 -1.9375,0.71875 0.0312,0.42188 0.39062,0.75 0.375,0.34375 0.9375,0.5625 0.57813,0.23438 1.28125,0.39063 0.70313,0.15625 1.40625,0.23437 l -0.4375,1.4375 q -0.98437,-0.14062 -1.89062,-0.35937 -0.90625,-0.21875 -1.64063,-0.57813 -0.71875,-0.35937 -1.21875,-0.92187 -0.5,-0.54688 -0.67187,-1.39063 -1.1875,-0.0781 -2.25,-0.5625 -1.0625,-0.48437 -1.84375,-1.34375 -0.78125,-0.875 -1.23438,-2.10937 -0.45312,-1.23438 -0.45312,-2.84375 z m 1.9375,0 q 0,1.20312 0.29687,2.1875 0.29688,0.96875 0.85938,1.65625 0.5625,0.67187 1.375,1.04687 0.8125,0.375 1.8125,0.375 1,0 1.79687,-0.375 0.8125,-0.375 1.35938,-1.04687 0.5625,-0.6875 0.85937,-1.65625 0.3125,-0.98438 0.3125,-2.1875 0,-1.20313 -0.3125,-2.17188 -0.29687,-0.98437 -0.85937,-1.65625 -0.54688,-0.6875 -1.35938,-1.0625 -0.79687,-0.375 -1.79687,-0.375 -1,0 -1.8125,0.375 -0.8125,0.375 -1.375,1.0625 -0.5625,0.67188 -0.85938,1.65625 -0.29687,0.96875 -0.29687,2.17188 z m 11.38957,8.60937 9.5,0 0,1.5 -9.5,0 0,-1.5 z m 10.36638,-8.60937 q 0,-1.6875 0.5,-2.98438 0.5,-1.29687 1.35938,-2.15625 0.875,-0.85937 2.01562,-1.29687 1.15625,-0.4375 2.4375,-0.4375 1.28125,0 2.40625,0.4375 1.14063,0.4375 1.98438,1.29687 0.85937,0.85938 1.35937,2.15625 0.51563,1.29688 0.51563,2.98438 0,1.6875 -0.51563,2.98437 -0.5,1.29688 -1.35937,2.15625 -0.84375,0.85938 -1.98438,1.29688 -1.125,0.4375 -2.40625,0.4375 -1.28125,0 -2.4375,-0.4375 -1.14062,-0.4375 -2.01562,-1.29688 -0.85938,-0.85937 -1.35938,-2.15625 -0.5,-1.29687 -0.5,-2.98437 z m 1.9375,0 q 0,1.20312 0.29688,2.1875 0.29687,0.96875 0.85937,1.65625 0.5625,0.67187 1.375,1.04687 0.8125,0.375 1.8125,0.375 1,0 1.79688,-0.375 0.8125,-0.375 1.35937,-1.04687 0.5625,-0.6875 0.85938,-1.65625 0.3125,-0.98438 0.3125,-2.1875 0,-1.20313 -0.3125,-2.17188 -0.29688,-0.98437 -0.85938,-1.65625 -0.54687,-0.6875 -1.35937,-1.0625 -0.79688,-0.375 -1.79688,-0.375 -1,0 -1.8125,0.375 -0.8125,0.375 -1.375,1.0625 -0.5625,0.67188 -0.85937,1.65625 -0.29688,0.96875 -0.29688,2.17188 z m 17.99895,6.875 q -1.28125,0 -2.23438,-0.39063 -0.95312,-0.40625 -1.5625,-1.09375 -0.60937,-0.70312 -0.90625,-1.64062 -0.29687,-0.95313 -0.29687,-2.0625 l 0,-8.26563 1.84375,0 0,8.0625 q 0,1.96875 0.875,2.875 0.875,0.89063 2.28125,0.89063 0.70312,0 1.28125,-0.21875 0.57812,-0.21875 1,-0.67188 0.42187,-0.46875 0.64062,-1.17187 0.23438,-0.71875 0.23438,-1.70313 l 0,-8.0625 1.84375,0 0,8.26563 q 0,1.10937 -0.29688,2.0625 -0.29687,0.9375 -0.92187,1.64062 -0.60938,0.6875 -1.54688,1.09375 -0.9375,0.39063 -2.23437,0.39063 z m 16.74176,-13.45313 0,1.59375 -4.15625,0 0,11.57813 -1.82813,0 0,-11.57813 -4.15625,0 0,-1.59375 10.14063,0 z"
       id="path77"
       inkscape:connector-curvature="0"
       style="fill:#000000;fill-rule:nonzero;stroke:none;stroke-linecap:square;stroke-miterlimit:10" />
  </g>
</svg>
