<?xml version="1.0" standalone="yes"?>

<svg version="1.1" viewBox="0.0 0.0 720.0 540.0" fill="none" stroke="none" stroke-linecap="square" stroke-miterlimit="10" xmlns="http://www.w3.org/2000/svg" xmlns:xlink="http://www.w3.org/1999/xlink"><clipPath id="p.0"><path d="m0 0l720.0 0l0 540.0l-720.0 0l0 -540.0z" clip-rule="nonzero"></path></clipPath><g clip-path="url(#p.0)"><path fill="#000000" fill-opacity="0.0" d="m0 0l720.0 0l0 540.0l-720.0 0z" fill-rule="evenodd"></path><path fill="#000000" fill-opacity="0.0" d="m185.5 101.0l380.0 0l0 322.01575l-380.0 0z" fill-rule="evenodd"></path><path stroke="#000000" stroke-width="2.0" stroke-linejoin="round" stroke-linecap="butt" d="m185.5 101.0l380.0 0l0 322.01575l-380.0 0z" fill-rule="evenodd"></path><path fill="#cfe2f3" d="m223.79134 254.00787l0 0c0 -25.622528 21.871063 -46.393707 48.850388 -46.393707l0 0c12.955933 0 25.381226 4.8878937 34.54245 13.588409c9.161224 8.7005005 14.307953 20.50093 14.307953 32.805298l0 0c0 25.622528 -21.871063 46.393707 -48.850403 46.393707l0 0c-26.979324 0 -48.850388 -20.77118 -48.850388 -46.393707z" fill-rule="evenodd"></path><path stroke="#000000" stroke-width="1.0" stroke-linejoin="round" stroke-linecap="butt" d="m223.79134 254.00787l0 0c0 -25.622528 21.871063 -46.393707 48.850388 -46.393707l0 0c12.955933 0 25.381226 4.8878937 34.54245 13.588409c9.161224 8.7005005 14.307953 20.50093 14.307953 32.805298l0 0c0 25.622528 -21.871063 46.393707 -48.850403 46.393707l0 0c-26.979324 0 -48.850388 -20.77118 -48.850388 -46.393707z" fill-rule="evenodd"></path><path fill="#000000" d="m248.42741 248.77412l2.015625 0l0 11.093735l-2.015625 0l0 -11.093735zm6.0938873 6.890625q0 1.2812347 0.609375 2.0156097q0.609375 0.71875 1.6875 0.71875q0.453125 0 0.78125 -0.03125q0.328125 -0.046875 0.546875 -0.09375l0 -4.8124847q-0.265625 -0.171875 -0.6875 -0.3125q-0.421875 -0.15625 -0.90625 -0.15625q-1.046875 0 -1.546875 0.71875q-0.484375 0.71875 -0.484375 1.953125zm5.546875 3.9531097q-0.5625 0.171875 -1.4375 0.3125q-0.875 0.140625 -1.828125 0.140625q-1.0 0 -1.78125 -0.296875q-0.78125 -0.3125 -1.34375 -0.875q-0.546875 -0.5625 -0.84375 -1.375q-0.296875 -0.8125 -0.296875 -1.8124847q0 -1.0 0.25 -1.796875q0.25 -0.8125 0.71875 -1.390625q0.484375 -0.578125 1.171875 -0.890625q0.6875 -0.3125 1.59375 -0.3125q0.609375 0 1.0625 0.15625q0.46875 0.140625 0.8125 0.3125l0 -4.015625l1.921875 -0.328125l0 12.17186zm5.3797607 0.40625q-0.859375 -0.015625 -1.4375 -0.1875q-0.5625 -0.171875 -0.90625 -0.5q-0.328125 -0.328125 -0.46875 -0.8125q-0.125 -0.5 -0.125 -1.125l0 -9.624985l1.9375 -0.328125l0 9.593735q0 0.34375 0.046875 0.59375q0.0625 0.234375 0.203125 0.40625q0.140625 0.171875 0.390625 0.265625q0.25 0.078125 0.640625 0.125l-0.28125 1.59375zm1.3770142 -4.2968597q0 -1.109375 0.328125 -1.9375q0.328125 -0.828125 0.875 -1.375q0.546875 -0.5625 1.25 -0.84375q0.703125 -0.28125 1.4375 -0.28125q1.734375 0 2.6875 1.078125q0.96875 1.0625 0.96875 3.203125q0 0.15625 -0.015625 0.359375q0 0.18748474 -0.015625 0.35935974l-5.515625 0q0.078125 1.0 0.703125 1.5625q0.640625 0.546875 1.84375 0.546875q0.703125 0 1.28125 -0.125q0.59375 -0.140625 0.921875 -0.28125l0.265625 1.59375q-0.171875 0.078125 -0.453125 0.171875q-0.265625 0.078125 -0.625 0.140625q-0.359375 0.078125 -0.78125 0.125q-0.421875 0.046875 -0.84375 0.046875q-1.109375 0 -1.921875 -0.328125q-0.8125 -0.328125 -1.34375 -0.90625q-0.53125 -0.578125 -0.796875 -1.375q-0.25 -0.796875 -0.25 -1.7343597zm5.625 -0.875q0 -0.390625 -0.125 -0.75q-0.109375 -0.359375 -0.328125 -0.625q-0.203125 -0.265625 -0.515625 -0.40625q-0.3125 -0.15625 -0.75 -0.15625q-0.453125 0 -0.796875 0.171875q-0.328125 0.15625 -0.5625 0.4375q-0.21875 0.265625 -0.359375 0.625q-0.125 0.34375 -0.171875 0.703125l3.609375 0z" fill-rule="nonzero"></path><path fill="#cfe2f3" d="m412.2021 258.87402l0 0c0 -28.310043 24.804138 -51.259857 55.40158 -51.259857l0 0c30.597443 0 55.40158 22.949814 55.40158 51.259857l0 0c0 28.310028 -24.804138 51.259827 -55.40158 51.259827l0 0c-30.597443 0 -55.40158 -22.949799 -55.40158 -51.259827z" fill-rule="evenodd"></path><path stroke="#000000" stroke-width="1.0" stroke-linejoin="round" stroke-linecap="butt" d="m412.2021 258.87402l0 0c0 -28.310043 24.804138 -51.259857 55.40158 -51.259857l0 0c30.597443 0 55.40158 22.949814 55.40158 51.259857l0 0c0 28.310028 -24.804138 51.259827 -55.40158 51.259827l0 0c-30.597443 0 -55.40158 -22.949799 -55.40158 -51.259827z" fill-rule="evenodd"></path><path fill="#000000" d="m450.70776 263.34338q0.765625 0 1.109375 -0.1875q0.359375 -0.1875 0.359375 -0.625q0 -0.421875 -0.375 -0.6875q-0.375 -0.28125 -1.234375 -0.59375q-0.53125 -0.203125 -0.96875 -0.40625q-0.4375 -0.21875 -0.765625 -0.5q-0.3125 -0.296875 -0.5 -0.703125q-0.1875 -0.40625 -0.1875 -1.0q0 -1.15625 0.84375 -1.8125q0.859375 -0.671875 2.3125 -0.671875q0.734375 0 1.40625 0.140625q0.671875 0.140625 1.015625 0.265625l-0.359375 1.5625q-0.328125 -0.140625 -0.828125 -0.25q-0.484375 -0.125 -1.140625 -0.125q-0.59375 0 -0.96875 0.203125q-0.359375 0.1875 -0.359375 0.609375q0 0.203125 0.0625 0.375q0.078125 0.15625 0.25 0.296875q0.1875 0.125 0.46875 0.265625q0.296875 0.125 0.703125 0.28125q0.6875 0.25 1.171875 0.5q0.484375 0.25 0.796875 0.5625q0.3125 0.3125 0.453125 0.71875q0.140625 0.390625 0.140625 0.953125q0 1.1875 -0.890625 1.8125q-0.890625 0.609375 -2.53125 0.609375q-1.109375 0 -1.78125 -0.1875q-0.671875 -0.171875 -0.9375 -0.28125l0.328125 -1.625q0.4375 0.171875 1.03125 0.34375q0.609375 0.15625 1.375 0.15625zm4.7495117 -2.75q0 -1.109375 0.328125 -1.9375q0.328125 -0.828125 0.875 -1.375q0.546875 -0.5625 1.25 -0.84375q0.703125 -0.28125 1.4375 -0.28125q1.734375 0 2.6875 1.078125q0.96875 1.0625 0.96875 3.203125q0 0.15625 -0.015625 0.359375q0 0.1875 -0.015625 0.359375l-5.515625 0q0.078125 1.0 0.703125 1.5625q0.640625 0.546875 1.84375 0.546875q0.703125 0 1.28125 -0.125q0.59375 -0.140625 0.921875 -0.28125l0.265625 1.59375q-0.171875 0.078125 -0.453125 0.171875q-0.265625 0.078125 -0.625 0.140625q-0.359375 0.078125 -0.78125 0.125q-0.421875 0.046875 -0.84375 0.046875q-1.109375 0 -1.921875 -0.328125q-0.8125 -0.328125 -1.34375 -0.90625q-0.53125 -0.578125 -0.796875 -1.375q-0.25 -0.796875 -0.25 -1.734375zm5.625 -0.875q0 -0.390625 -0.125 -0.75q-0.109375 -0.359375 -0.328125 -0.625q-0.203125 -0.265625 -0.515625 -0.40625q-0.3125 -0.15625 -0.75 -0.15625q-0.453125 0 -0.796875 0.171875q-0.328125 0.15625 -0.5625 0.4375q-0.21875 0.265625 -0.359375 0.625q-0.125 0.34375 -0.171875 0.703125l3.609375 0zm8.745392 -1.609375q-0.234375 -0.078125 -0.671875 -0.15625q-0.421875 -0.09375 -0.96875 -0.09375q-0.328125 0 -0.6875 0.0625q-0.359375 0.0625 -0.5 0.109375l0 6.703125l-1.9375 0l0 -7.96875q0.5625 -0.203125 1.390625 -0.390625q0.84375 -0.1875 1.875 -0.1875q0.1875 0 0.4375 0.03125q0.265625 0.015625 0.515625 0.0625q0.265625 0.03125 0.5 0.09375q0.234375 0.0625 0.390625 0.109375l-0.34375 1.625zm3.822998 6.625q-0.796875 -1.640625 -1.640625 -3.78125q-0.84375 -2.140625 -1.53125 -4.59375l2.0625 0q0.1875 0.71875 0.40625 1.53125q0.234375 0.796875 0.5 1.609375q0.265625 0.796875 0.546875 1.5625q0.28125 0.765625 0.515625 1.375q0.25 -0.609375 0.515625 -1.375q0.28125 -0.765625 0.53125 -1.5625q0.265625 -0.8125 0.5 -1.609375q0.25 -0.8125 0.421875 -1.53125l2.0 0q-0.6875 2.453125 -1.53125 4.59375q-0.828125 2.140625 -1.625 3.78125l-1.671875 0zm5.8066406 -4.140625q0 -1.109375 0.328125 -1.9375q0.328125 -0.828125 0.875 -1.375q0.546875 -0.5625 1.25 -0.84375q0.703125 -0.28125 1.4375 -0.28125q1.734375 0 2.6875 1.078125q0.96875 1.0625 0.96875 3.203125q0 0.15625 -0.015625 0.359375q0 0.1875 -0.015625 0.359375l-5.515625 0q0.078125 1.0 0.703125 1.5625q0.640625 0.546875 1.84375 0.546875q0.703125 0 1.28125 -0.125q0.59375 -0.140625 0.921875 -0.28125l0.265625 1.59375q-0.171875 0.078125 -0.453125 0.171875q-0.265625 0.078125 -0.625 0.140625q-0.359375 0.078125 -0.78125 0.125q-0.421875 0.046875 -0.84375 0.046875q-1.109375 0 -1.921875 -0.328125q-0.8125 -0.328125 -1.34375 -0.90625q-0.53125 -0.578125 -0.796875 -1.375q-0.25 -0.796875 -0.25 -1.734375zm5.625 -0.875q0 -0.390625 -0.125 -0.75q-0.109375 -0.359375 -0.328125 -0.625q-0.203125 -0.265625 -0.515625 -0.40625q-0.3125 -0.15625 -0.75 -0.15625q-0.453125 0 -0.796875 0.171875q-0.328125 0.15625 -0.5625 0.4375q-0.21875 0.265625 -0.359375 0.625q-0.125 0.34375 -0.171875 0.703125l3.609375 0z" fill-rule="nonzero"></path><path fill="#000000" fill-opacity="0.0" d="m272.64172 207.61417c0 -12.500015 38.944885 -26.878006 77.88977 -25.000046c38.944885 1.877945 77.88977 20.01184 77.88977 40.02368" fill-rule="evenodd"></path><path stroke="#000000" stroke-width="2.0" stroke-linejoin="round" stroke-linecap="butt" d="m272.64172 207.61417c0 -12.500015 38.944885 -26.878006 77.88977 -25.000061c19.472443 0.9389801 38.944885 5.9419556 53.549225 13.211639c7.3021545 3.634842 13.387299 7.8363953 17.646881 12.379944c0.5324402 0.5679474 1.036377 1.1412354 1.5105896 1.7194214c0.23712158 0.28910828 0.46676636 0.579422 0.6889038 0.8709259c0.11105347 0.14575195 0.22021484 0.29179382 0.3274536 0.43811035l0.08547974 0.11898804" fill-rule="evenodd"></path><path fill="#000000" stroke="#000000" stroke-width="2.0" stroke-linecap="butt" d="m421.2335 212.47665l6.1933594 7.4116364l0.019714355 -9.658676z" fill-rule="evenodd"></path><path fill="#000000" fill-opacity="0.0" d="m313.32022 146.41733l72.88187 0l0 30.015747l-72.88187 0z" fill-rule="evenodd"></path><path fill="#000000" d="m333.26547 155.17332l1.84375 0l0 13.171875l-1.84375 0l0 -13.171875zm4.893524 3.578125q0.609375 -0.15625 1.609375 -0.328125q1.015625 -0.171875 2.328125 -0.171875q1.171875 0 1.953125 0.34375q0.78125 0.328125 1.25 0.921875q0.46875 0.59375 0.65625 1.4375q0.1875 0.828125 0.1875 1.84375l0 5.546875l-1.765625 0l0 -5.171875q0 -0.90625 -0.125 -1.546875q-0.125 -0.65625 -0.40625 -1.046875q-0.28125 -0.40625 -0.765625 -0.578125q-0.46875 -0.1875 -1.171875 -0.1875q-0.28125 0 -0.59375 0.015625q-0.296875 0.015625 -0.578125 0.046875q-0.28125 0.03125 -0.5 0.078125q-0.21875 0.03125 -0.3125 0.046875l0 8.34375l-1.765625 0l0 -9.59375zm14.502686 5.1875l8.703125 0l0 1.5l-8.703125 0l0 -1.5zm0 -4.046875l8.703125 0l0 1.5l-8.703125 0l0 -1.5zm15.347351 -1.140625q0.609375 -0.15625 1.609375 -0.328125q1.015625 -0.171875 2.328125 -0.171875q1.171875 0 1.953125 0.34375q0.78125 0.328125 1.25 0.921875q0.46875 0.59375 0.65625 1.4375q0.1875 0.828125 0.1875 1.84375l0 5.546875l-1.765625 0l0 -5.171875q0 -0.90625 -0.125 -1.546875q-0.125 -0.65625 -0.40625 -1.046875q-0.28125 -0.40625 -0.765625 -0.578125q-0.46875 -0.1875 -1.171875 -0.1875q-0.28125 0 -0.59375 0.015625q-0.296875 0.015625 -0.578125 0.046875q-0.28125 0.03125 -0.5 0.078125q-0.21875 0.03125 -0.3125 0.046875l0 8.34375l-1.765625 0l0 -9.59375z" fill-rule="nonzero"></path><path fill="#000000" fill-opacity="0.0" d="m428.42883 295.1202c0 20.006836 -38.944885 39.352264 -77.88974 40.01367c-38.944885 0.6614075 -77.88977 -17.361176 -77.88977 -34.72235" fill-rule="evenodd"></path><path stroke="#000000" stroke-width="2.0" stroke-linejoin="round" stroke-linecap="butt" stroke-dasharray="8.0,6.0" d="m428.42883 295.1202c0 20.006836 -38.944855 39.352264 -77.88974 40.01367c-19.472443 0.330719 -38.944885 -4.0095825 -53.549225 -10.602722c-7.3021545 -3.2965393 -13.387299 -7.156311 -17.646912 -11.277008c-0.5324402 -0.5150757 -1.036377 -1.0342407 -1.5105591 -1.5568848l-0.2921753 -0.32766724" fill-rule="evenodd"></path><path fill="#000000" stroke="#000000" stroke-width="2.0" stroke-linecap="butt" d="m280.55685 310.02316l-6.715851 -6.941681l0.6826172 9.6345215z" fill-rule="evenodd"></path><path fill="#000000" fill-opacity="0.0" d="m321.49213 331.58136l93.29135 0l0 38.992126l-93.29135 0z" fill-rule="evenodd"></path><path fill="#000000" d="m344.31973 351.90762q0 -1.6875 0.5 -2.984375q0.5 -1.296875 1.359375 -2.15625q0.875 -0.859375 2.015625 -1.296875q1.15625 -0.4375 2.4375 -0.4375q1.28125 0 2.40625 0.4375q1.140625 0.4375 1.984375 1.296875q0.859375 0.859375 1.359375 2.15625q0.515625 1.296875 0.515625 2.984375q0 1.6875 -0.515625 2.984375q-0.5 1.296875 -1.359375 2.15625q-0.84375 0.859375 -1.984375 1.296875q-1.125 0.4375 -2.40625 0.4375q-1.28125 0 -2.4375 -0.4375q-1.140625 -0.4375 -2.015625 -1.296875q-0.859375 -0.859375 -1.359375 -2.15625q-0.5 -1.296875 -0.5 -2.984375zm1.9375 0q0 1.203125 0.296875 2.1875q0.296875 0.96875 0.859375 1.65625q0.5625 0.671875 1.375 1.046875q0.8125 0.375 1.8125 0.375q1.0 0 1.796875 -0.375q0.8125 -0.375 1.359375 -1.046875q0.5625 -0.6875 0.859375 -1.65625q0.3125 -0.984375 0.3125 -2.1875q0 -1.203125 -0.3125 -2.171875q-0.296875 -0.984375 -0.859375 -1.65625q-0.546875 -0.6875 -1.359375 -1.0625q-0.796875 -0.375 -1.796875 -0.375q-1.0 0 -1.8125 0.375q-0.8125 0.375 -1.375 1.0625q-0.5625 0.671875 -0.859375 1.65625q-0.296875 0.96875 -0.296875 2.171875zm20.858307 6.3125q-0.609375 0.140625 -1.609375 0.3125q-1.0 0.171875 -2.3125 0.171875q-1.140625 0 -1.921875 -0.328125q-0.765625 -0.328125 -1.25 -0.9375q-0.46875 -0.609375 -0.6875 -1.4375q-0.203125 -0.828125 -0.203125 -1.828125l0 -5.546875l1.765625 0l0 5.15625q0 1.8125 0.5625 2.59375q0.578125 0.78125 1.921875 0.78125q0.296875 0 0.59375 -0.015625q0.3125 -0.03125 0.578125 -0.046875q0.265625 -0.03125 0.484375 -0.0625q0.21875 -0.03125 0.3125 -0.0625l0 -8.34375l1.765625 0l0 9.59375zm4.4899597 -9.59375l3.75 0l0 1.484375l-3.75 0l0 4.546875q0 0.75 0.109375 1.234375q0.125 0.484375 0.34375 0.765625q0.234375 0.265625 0.578125 0.390625q0.34375 0.109375 0.796875 0.109375q0.796875 0 1.28125 -0.171875q0.484375 -0.1875 0.671875 -0.265625l0.34375 1.453125q-0.265625 0.140625 -0.9375 0.328125q-0.65625 0.203125 -1.515625 0.203125q-1.0 0 -1.65625 -0.25q-0.65625 -0.25 -1.0625 -0.765625q-0.390625 -0.515625 -0.5625 -1.265625q-0.15625 -0.75 -0.15625 -1.734375l0 -8.828125l1.765625 -0.296875l0 3.0625zm9.637543 5.46875l8.703125 0l0 1.5l-8.703125 0l0 -1.5zm0 -4.046875l8.703125 0l0 1.5l-8.703125 0l0 -1.5zm15.347351 -1.140625q0.609375 -0.15625 1.609375 -0.328125q1.015625 -0.171875 2.328125 -0.171875q1.171875 0 1.953125 0.34375q0.78125 0.328125 1.25 0.921875q0.46875 0.59375 0.65625 1.4375q0.1875 0.828125 0.1875 1.84375l0 5.546875l-1.765625 0l0 -5.171875q0 -0.90625 -0.125 -1.546875q-0.125 -0.65625 -0.40625 -1.046875q-0.28125 -0.40625 -0.765625 -0.578125q-0.46875 -0.1875 -1.171875 -0.1875q-0.28125 0 -0.59375 0.015625q-0.296875 0.015625 -0.578125 0.046875q-0.28125 0.03125 -0.5 0.078125q-0.21875 0.03125 -0.3125 0.046875l0 8.34375l-1.765625 0l0 -9.59375z" fill-rule="nonzero"></path><path fill="#6d9eeb" d="m150.50131 176.43307l68.12598 0l0 30.015747l-68.12598 0z" fill-rule="evenodd"></path><path stroke="#000000" stroke-width="2.0" stroke-linejoin="round" stroke-linecap="butt" d="m150.50131 176.43307l68.12598 0l0 30.015747l-68.12598 0z" fill-rule="evenodd"></path><path fill="#000000" d="m176.90477 185.18907l1.84375 0l0 13.171875l-1.84375 0l0 -13.171875zm14.034164 13.171875q-0.421875 -0.703125 -0.96875 -1.578125q-0.53125 -0.875 -1.15625 -1.8125q-0.625 -0.9375 -1.296875 -1.90625q-0.671875 -0.96875 -1.34375 -1.875q-0.671875 -0.90625 -1.296875 -1.703125q-0.625 -0.796875 -1.15625 -1.40625l0 10.28125l-1.796875 0l0 -13.171875l1.453125 0q0.890625 0.953125 1.90625 2.21875q1.015625 1.265625 2.015625 2.609375q1.0 1.328125 1.875 2.625q0.890625 1.296875 1.5 2.296875l0 -9.75l1.8125 0l0 13.171875l-1.546875 0z" fill-rule="nonzero"></path><path fill="#6d9eeb" d="m531.98425 301.56693l68.12598 0l0 30.015747l-68.12598 0z" fill-rule="evenodd"></path><path stroke="#000000" stroke-width="2.0" stroke-linejoin="round" stroke-linecap="butt" d="m531.98425 301.56693l68.12598 0l0 30.015747l-68.12598 0z" fill-rule="evenodd"></path><path fill="#000000" d="m548.2112 316.90106q0 -1.6875 0.5 -2.984375q0.5 -1.296875 1.359375 -2.15625q0.875 -0.859375 2.015625 -1.296875q1.15625 -0.4375 2.4375 -0.4375q1.28125 0 2.40625 0.4375q1.140625 0.4375 1.984375 1.296875q0.859375 0.859375 1.359375 2.15625q0.515625 1.296875 0.515625 2.984375q0 1.6875 -0.515625 2.984375q-0.5 1.296875 -1.359375 2.15625q-0.84375 0.859375 -1.984375 1.296875q-1.125 0.4375 -2.40625 0.4375q-1.28125 0 -2.4375 -0.4375q-1.140625 -0.4375 -2.015625 -1.296875q-0.859375 -0.859375 -1.359375 -2.15625q-0.5 -1.296875 -0.5 -2.984375zm1.9375 0q0 1.203125 0.296875 2.1875q0.296875 0.96875 0.859375 1.65625q0.5625 0.671875 1.375 1.046875q0.8125 0.375 1.8125 0.375q1.0 0 1.796875 -0.375q0.8125 -0.375 1.359375 -1.046875q0.5625 -0.6875 0.859375 -1.65625q0.3125 -0.984375 0.3125 -2.1875q0 -1.203125 -0.3125 -2.171875q-0.296875 -0.984375 -0.859375 -1.65625q-0.546875 -0.6875 -1.359375 -1.0625q-0.796875 -0.375 -1.796875 -0.375q-1.0 0 -1.8125 0.375q-0.8125 0.375 -1.375 1.0625q-0.5625 0.671875 -0.859375 1.65625q-0.296875 0.96875 -0.296875 2.171875zm17.998962 6.875q-1.28125 0 -2.234375 -0.390625q-0.953125 -0.40625 -1.5625 -1.09375q-0.609375 -0.703125 -0.90625 -1.640625q-0.296875 -0.953125 -0.296875 -2.0625l0 -8.265625l1.84375 0l0 8.0625q0 1.96875 0.875 2.875q0.875 0.890625 2.28125 0.890625q0.703125 0 1.28125 -0.21875q0.578125 -0.21875 1.0 -0.671875q0.421875 -0.46875 0.640625 -1.171875q0.234375 -0.71875 0.234375 -1.703125l0 -8.0625l1.84375 0l0 8.265625q0 1.109375 -0.296875 2.0625q-0.296875 0.9375 -0.921875 1.640625q-0.609375 0.6875 -1.546875 1.09375q-0.9375 0.390625 -2.234375 0.390625zm16.74176 -13.453125l0 1.59375l-4.15625 0l0 11.578125l-1.828125 0l0 -11.578125l-4.15625 0l0 -1.59375l10.140625 0z" fill-rule="nonzero"></path></g></svg>

