<?xml version="1.0" encoding="UTF-8" standalone="no"?>
<!-- Created with Inkscape (http://www.inkscape.org/) -->

<svg
   xmlns:ns0="http://www.iki.fi/pav/software/textext/"
   xmlns:dc="http://purl.org/dc/elements/1.1/"
   xmlns:cc="http://creativecommons.org/ns#"
   xmlns:rdf="http://www.w3.org/1999/02/22-rdf-syntax-ns#"
   xmlns:svg="http://www.w3.org/2000/svg"
   xmlns="http://www.w3.org/2000/svg"
   xmlns:sodipodi="http://sodipodi.sourceforge.net/DTD/sodipodi-0.dtd"
   xmlns:inkscape="http://www.inkscape.org/namespaces/inkscape"
   width="210mm"
   height="297mm"
   viewBox="0 0 744.09448819 1052.3622047"
   id="svg23337"
   version="1.1"
   inkscape:version="0.91 r13725"
   sodipodi:docname="I-esquematico.svg">
  <sodipodi:namedview
     id="base"
     pagecolor="#ffffff"
     bordercolor="#666666"
     borderopacity="1.0"
     inkscape:pageopacity="0.0"
     inkscape:pageshadow="2"
     inkscape:zoom="3.4369235"
     inkscape:cx="385.82415"
     inkscape:cy="671.9614"
     inkscape:document-units="px"
     inkscape:current-layer="layer1"
     showgrid="true"
     inkscape:window-width="1855"
     inkscape:window-height="1056"
     inkscape:window-x="65"
     inkscape:window-y="24"
     inkscape:window-maximized="1">
    <inkscape:grid
       id="grid23885"
       type="xygrid" />
  </sodipodi:namedview>
  <defs
     id="defs23339">
    <marker
       inkscape:isstock="true"
       style="overflow:visible"
       id="marker8269"
       refX="0.0"
       refY="0.0"
       orient="auto"
       inkscape:stockid="TriangleInL">
      <path
         transform="scale(-0.8)"
         style="fill-rule:evenodd;stroke:#000000;stroke-width:1pt;stroke-opacity:1;fill:#000000;fill-opacity:1"
         d="M 5.77,0.0 L -2.88,5.0 L -2.88,-5.0 L 5.77,0.0 z "
         id="path8271" />
    </marker>
    <marker
       inkscape:isstock="true"
       style="overflow:visible"
       id="marker4661"
       refX="0.0"
       refY="0.0"
       orient="auto"
       inkscape:stockid="TriangleOutL">
      <path
         transform="scale(0.8)"
         style="fill-rule:evenodd;stroke:#000000;stroke-width:1pt;stroke-opacity:1;fill:#000000;fill-opacity:1"
         d="M 5.77,0.0 L -2.88,5.0 L -2.88,-5.0 L 5.77,0.0 z "
         id="path4663" />
    </marker>
    <marker
       inkscape:stockid="TriangleOutL"
       orient="auto"
       refY="0.0"
       refX="0.0"
       id="marker24647"
       style="overflow:visible"
       inkscape:isstock="true"
       inkscape:collect="always">
      <path
         id="path24649"
         d="M 5.77,0.0 L -2.88,5.0 L -2.88,-5.0 L 5.77,0.0 z "
         style="fill-rule:evenodd;stroke:#000000;stroke-width:1pt;stroke-opacity:1;fill:#000000;fill-opacity:1"
         transform="scale(0.8)" />
    </marker>
    <marker
       inkscape:stockid="TriangleInL"
       orient="auto"
       refY="0.0"
       refX="0.0"
       id="marker24451"
       style="overflow:visible"
       inkscape:isstock="true"
       inkscape:collect="always">
      <path
         id="path24453"
         d="M 5.77,0.0 L -2.88,5.0 L -2.88,-5.0 L 5.77,0.0 z "
         style="fill-rule:evenodd;stroke:#000000;stroke-width:1pt;stroke-opacity:1;fill:#000000;fill-opacity:1"
         transform="scale(-0.8)" />
    </marker>
    <marker
       inkscape:collect="always"
       inkscape:isstock="true"
       style="overflow:visible"
       id="TriangleOutL"
       refX="0.0"
       refY="0.0"
       orient="auto"
       inkscape:stockid="TriangleOutL">
      <path
         transform="scale(0.8)"
         style="fill-rule:evenodd;stroke:#000000;stroke-width:1pt;stroke-opacity:1;fill:#000000;fill-opacity:1"
         d="M 5.77,0.0 L -2.88,5.0 L -2.88,-5.0 L 5.77,0.0 z "
         id="path16487" />
    </marker>
    <marker
       inkscape:collect="always"
       inkscape:isstock="true"
       style="overflow:visible"
       id="TriangleInL"
       refX="0.0"
       refY="0.0"
       orient="auto"
       inkscape:stockid="TriangleInL">
      <path
         transform="scale(-0.8)"
         style="fill-rule:evenodd;stroke:#000000;stroke-width:1pt;stroke-opacity:1;fill:#000000;fill-opacity:1"
         d="M 5.77,0.0 L -2.88,5.0 L -2.88,-5.0 L 5.77,0.0 z "
         id="path16478" />
    </marker>
    <marker
       inkscape:stockid="TriangleOutL"
       orient="auto"
       refY="0"
       refX="0"
       id="marker24647-6"
       style="overflow:visible"
       inkscape:isstock="true">
      <path
         id="path24649-5"
         d="m 5.77,0 -8.65,5 0,-10 8.65,5 z"
         style="fill:#000000;fill-opacity:1;fill-rule:evenodd;stroke:#000000;stroke-width:1pt;stroke-opacity:1"
         transform="scale(0.8,0.8)"
         inkscape:connector-curvature="0" />
    </marker>
    <marker
       inkscape:stockid="TriangleOutL"
       orient="auto"
       refY="0"
       refX="0"
       id="marker24647-3"
       style="overflow:visible"
       inkscape:isstock="true">
      <path
         id="path24649-7"
         d="m 5.77,0 -8.65,5 0,-10 8.65,5 z"
         style="fill:#000000;fill-opacity:1;fill-rule:evenodd;stroke:#000000;stroke-width:1pt;stroke-opacity:1"
         transform="scale(0.8,0.8)"
         inkscape:connector-curvature="0" />
    </marker>
    <marker
       inkscape:stockid="TriangleOutL"
       orient="auto"
       refY="0"
       refX="0"
       id="marker24647-3-3"
       style="overflow:visible"
       inkscape:isstock="true">
      <path
         id="path24649-7-6"
         d="m 5.77,0 -8.65,5 0,-10 8.65,5 z"
         style="fill:#000000;fill-opacity:1;fill-rule:evenodd;stroke:#000000;stroke-width:1pt;stroke-opacity:1"
         transform="scale(0.8,0.8)"
         inkscape:connector-curvature="0" />
    </marker>
  </defs>
  <metadata
     id="metadata23342">
    <rdf:RDF>
      <cc:Work
         rdf:about="">
        <dc:format>image/svg+xml</dc:format>
        <dc:type
           rdf:resource="http://purl.org/dc/dcmitype/StillImage" />
        <dc:title />
      </cc:Work>
    </rdf:RDF>
  </metadata>
  <g
     id="layer1"
     inkscape:groupmode="layer"
     inkscape:label="Capa 1">
    <rect
       style="fill:#b4f3f4;fill-opacity:1;stroke:#000000;stroke-width:1;stroke-miterlimit:4;stroke-dasharray:none;stroke-dashoffset:0;stroke-opacity:1"
       id="rect47535-6"
       width="134.67879"
       height="114.59346"
       x="257.16577"
       y="317.32224" />
    <path
       sodipodi:nodetypes="cc"
       style="fill:none;fill-rule:evenodd;stroke:#000000;stroke-width:1px;stroke-linecap:butt;stroke-linejoin:miter;stroke-opacity:1;marker-start:url(#TriangleInL)"
       d="m 397.2435,327.50291 41.82447,0"
       id="path29388"
       inkscape:connector-curvature="0" />
    <path
       style="fill:none;fill-rule:evenodd;stroke:#000000;stroke-width:1px;stroke-linecap:butt;stroke-linejoin:miter;stroke-opacity:1;marker-end:url(#TriangleOutL)"
       d="m 391.13806,374.90943 43.34937,0"
       id="path30263"
       inkscape:connector-curvature="0"
       sodipodi:nodetypes="cc" />
    <path
       sodipodi:nodetypes="cc"
       style="fill:none;fill-rule:evenodd;stroke:#000000;stroke-width:1px;stroke-linecap:butt;stroke-linejoin:miter;stroke-opacity:1;marker-start:url(#marker24451)"
       d="m 396.88829,398.61275 41.61917,0"
       id="path31375"
       inkscape:connector-curvature="0" />
    <path
       sodipodi:nodetypes="cc"
       style="fill:none;fill-rule:evenodd;stroke:#000000;stroke-width:1px;stroke-linecap:butt;stroke-linejoin:miter;stroke-opacity:1;marker-end:url(#marker24647)"
       d="m 392.16675,422.31606 43.53592,0"
       id="path31725"
       inkscape:connector-curvature="0" />
    <path
       sodipodi:nodetypes="cc"
       style="fill:none;fill-rule:evenodd;stroke:#000000;stroke-width:1px;stroke-linecap:butt;stroke-linejoin:miter;stroke-opacity:1;marker-end:url(#marker4661)"
       d="m 209.33992,336.90698 41.82447,0"
       id="path29388-5"
       inkscape:connector-curvature="0" />
    <path
       sodipodi:nodetypes="cc"
       style="fill:none;fill-rule:evenodd;stroke:#000000;stroke-width:1px;stroke-linecap:butt;stroke-linejoin:miter;stroke-opacity:1;marker-end:url(#marker24647-3)"
       d="m 208.823,416.90697 43.53592,0"
       id="path31725-4"
       inkscape:connector-curvature="0" />
    <g
       style="font-style:normal;font-variant:normal;font-weight:normal;font-stretch:normal;letter-spacing:normal;word-spacing:normal;text-anchor:start;fill:none;fill-opacity:1;fill-rule:evenodd;stroke:#000000;stroke-linecap:butt;stroke-linejoin:miter;stroke-miterlimit:10.43299961;stroke-dasharray:none;stroke-dashoffset:0;stroke-opacity:1"
       ns0:preamble="/home/piter/.config/inkscape/extensions/preambulo.ini"
       ns0:text="\\Large{\n\\textbf{Inventario}\\\\\n}"
       word-spacing="normal"
       letter-spacing="normal"
       font-size-adjust="none"
       font-stretch="normal"
       font-weight="normal"
       font-variant="normal"
       font-style="normal"
       stroke-miterlimit="10.433"
       xml:space="preserve"
       transform="matrix(1,0,0,-1,60.245152,1084.4825)"
       id="content"><path
         id="path4484"
         d="m 232.06,716.35 1.6,0 0,0.61 c -0.51,-0.03 -1.95,-0.03 -2.55,-0.03 -0.6,0 -2.04,0 -2.55,0.03 l 0,-0.61 1.6,0 0,-8.61 -1.6,0 0,-0.62 c 0.51,0.03 1.95,0.03 2.55,0.03 0.6,0 2.04,0 2.55,-0.03 l 0,0.62 -1.6,0 z"
         inkscape:connector-curvature="0"
         style="fill:#000000;stroke-width:0" /><path
         id="path4486"
         d="m 241.74,711.51 0,0.13 0,0.12 -0.01,0.12 -0.01,0.11 -0.02,0.11 -0.02,0.11 -0.02,0.1 -0.03,0.1 -0.03,0.09 -0.04,0.1 -0.04,0.08 -0.04,0.08 -0.05,0.08 -0.06,0.08 -0.05,0.07 -0.07,0.07 -0.06,0.06 -0.07,0.06 -0.08,0.05 -0.08,0.05 -0.09,0.05 -0.09,0.04 -0.1,0.04 -0.1,0.04 -0.1,0.03 -0.12,0.02 -0.11,0.03 -0.12,0.02 -0.13,0.01 -0.14,0.01 -0.14,0.01 -0.14,0 c -1.03,0 -1.92,-0.5 -2.41,-1.58 l -0.02,0 0,1.58 -2.42,-0.12 0,-0.61 c 0.89,0 0.99,0 0.99,-0.56 l 0,-4.55 -0.99,0 0,-0.62 c 0.33,0.03 1.36,0.03 1.76,0.03 0.41,0 1.45,0 1.78,-0.03 l 0,0.62 -0.99,0 0,3.05 c 0,1.55 1.15,2.31 2.07,2.31 0.53,0 0.83,-0.34 0.83,-1.43 l 0,-3.93 -0.99,0 0,-0.62 c 0.33,0.03 1.36,0.03 1.77,0.03 0.4,0 1.44,0 1.78,-0.03 l 0,0.62 -1,0 z"
         inkscape:connector-curvature="0"
         style="fill:#000000;stroke-width:0" /><path
         id="path4488"
         d="m 249.75,712.54 0.02,0.04 0.02,0.04 0.01,0.02 0.01,0.02 0.01,0.01 0.01,0.02 0.01,0.01 0.02,0.02 0.01,0.01 0.02,0.01 0.02,0.02 0.02,0.01 0.02,0.01 0.03,0.01 0.03,0.01 0.03,0.01 0.03,0.01 0.03,0.01 0.04,0.01 0.02,0 0.02,0 0.03,0.01 0.02,0 0.02,0 0.03,0 0.02,0.01 0.03,0 0.03,0 0.03,0 0.03,0 0.03,0.01 0.03,0 0.03,0 0.03,0 0.04,0 0.03,0 0.04,0 0.04,0 0.04,0 0.04,0 0.04,0.01 0,0.61 c -0.52,-0.03 -0.55,-0.03 -1.13,-0.03 -0.39,0 -0.42,0 -1.24,0.03 l 0,-0.61 c 0.39,0 0.71,-0.08 0.71,-0.18 0,-0.01 0,-0.03 -0.08,-0.17 l -1.67,-3.69 -1.86,4.04 0.79,0 0,0.61 c -0.32,-0.03 -1.33,-0.03 -1.72,-0.03 -0.41,0 -1.24,0 -1.62,0.03 l 0,-0.61 0.91,0 2.52,-5.48 c 0.13,-0.28 0.16,-0.35 0.49,-0.35 0.23,0 0.34,0.03 0.47,0.32 z"
         inkscape:connector-curvature="0"
         style="fill:#000000;stroke-width:0" /><path
         id="path4490"
         d="m 257.2,710.29 0.03,0 0.03,0 0.03,0 0.02,0 0.03,0 0.02,0.01 0.03,0 0.02,0 0.02,0 0.01,0 0.02,0.01 0.02,0 0.01,0.01 0.02,0 0.01,0.01 0.01,0.01 0.02,0.01 0.01,0.01 0,0.01 0.01,0.01 0.01,0.01 0,0.01 0.01,0.01 0,0.01 0,0.01 0.01,0.01 0,0 0,0.01 0,0.01 0.01,0.01 0,0.02 0,0.01 0,0.01 0,0.01 0,0.01 0,0.02 0.01,0.01 0,0.01 0,0.02 0,0.01 0,0.02 0,0.02 0,0.01 c 0,0.43 -0.1,1.51 -0.76,2.18 -0.6,0.6 -1.41,0.79 -2.24,0.79 -2.24,0 -3.46,-1.46 -3.46,-3.27 0,-2.01 1.48,-3.31 3.65,-3.31 2.16,0 2.81,1.52 2.81,1.76 0,0.22 -0.22,0.22 -0.3,0.22 -0.23,0 -0.25,-0.05 -0.33,-0.23 -0.38,-0.94 -1.32,-1.24 -2.01,-1.24 -2.08,0 -2.1,1.94 -2.1,2.74 l 0,0.42 c 0.03,0.59 0.05,1.15 0.35,1.66 0.27,0.46 0.77,0.78 1.39,0.78 1.53,0 1.66,-1.72 1.68,-2.44 l -3.42,0 0,-0.42 z"
         inkscape:connector-curvature="0"
         style="fill:#000000;stroke-width:0" /><path
         id="path4492"
         d="m 265.7,711.51 0,0.13 -0.01,0.12 -0.01,0.12 -0.01,0.11 -0.01,0.11 -0.02,0.11 -0.03,0.1 -0.03,0.1 -0.03,0.09 -0.03,0.1 -0.04,0.08 -0.05,0.08 -0.05,0.08 -0.05,0.08 -0.06,0.07 -0.06,0.07 -0.07,0.06 -0.07,0.06 -0.08,0.05 -0.08,0.05 -0.08,0.05 -0.09,0.04 -0.1,0.04 -0.1,0.04 -0.11,0.03 -0.11,0.02 -0.12,0.03 -0.12,0.02 -0.13,0.01 -0.13,0.01 -0.14,0.01 -0.15,0 c -1.03,0 -1.92,-0.5 -2.41,-1.58 l -0.01,0 0,1.58 -2.43,-0.12 0,-0.61 c 0.9,0 0.99,0 0.99,-0.56 l 0,-4.55 -0.99,0 0,-0.62 c 0.34,0.03 1.37,0.03 1.77,0.03 0.4,0 1.45,0 1.78,-0.03 l 0,0.62 -0.99,0 0,3.05 c 0,1.55 1.15,2.31 2.06,2.31 0.53,0 0.84,-0.34 0.84,-1.43 l 0,-3.93 -0.99,0 0,-0.62 c 0.33,0.03 1.36,0.03 1.76,0.03 0.4,0 1.45,0 1.78,-0.03 l 0,0.62 -0.99,0 z"
         inkscape:connector-curvature="0"
         style="fill:#000000;stroke-width:0" /><path
         id="path4494"
         d="m 269.61,712.88 2.07,0 0,0.61 -2.07,0 0,2.74 -0.6,0 c -0.01,-1.42 -0.7,-2.84 -2.12,-2.88 l 0,-0.47 1.16,0 0,-3.99 c 0,-1.52 1.18,-1.85 2.21,-1.85 1.06,0 1.69,0.8 1.69,1.86 l 0,0.76 -0.6,0 0,-0.74 c 0,-0.95 -0.43,-1.37 -0.87,-1.37 -0.87,0 -0.87,0.96 -0.87,1.29 z"
         inkscape:connector-curvature="0"
         style="fill:#000000;stroke-width:0" /><path
         id="path4496"
         d="m 279.46,711.41 0,0.12 -0.01,0.12 -0.01,0.12 -0.02,0.12 -0.03,0.11 -0.04,0.11 -0.04,0.1 -0.04,0.1 -0.05,0.1 -0.06,0.1 -0.06,0.09 -0.07,0.09 -0.08,0.09 -0.08,0.08 -0.09,0.08 -0.09,0.07 -0.1,0.07 -0.11,0.07 -0.11,0.06 -0.12,0.06 -0.12,0.05 -0.13,0.05 -0.13,0.05 -0.14,0.04 -0.15,0.04 -0.15,0.03 -0.16,0.03 -0.16,0.02 -0.17,0.02 -0.18,0.01 -0.18,0.01 -0.19,0 c -0.8,0 -2.49,-0.07 -2.49,-1.28 0,-0.6 0.46,-0.86 0.84,-0.86 0.43,0 0.85,0.3 0.85,0.85 0,0.27 -0.1,0.53 -0.34,0.69 0.47,0.13 0.81,0.13 1.09,0.13 0.97,0 1.56,-0.55 1.56,-1.72 l 0,-0.58 0,-0.38 0,-1.35 c 0,-1.35 -1.2,-1.61 -1.66,-1.61 -0.71,0 -1.29,0.47 -1.29,1.13 0,1.31 1.54,1.75 2.95,1.83 l 0,0.38 c -2.27,0 -4.55,-0.63 -4.55,-2.22 0,-1.31 1.67,-1.59 2.66,-1.59 1.1,0 1.8,0.6 2.09,1.23 0,-0.53 0,-1.15 1.45,-1.15 l 0.73,0 c 0.3,0 0.42,0 0.42,0.32 0,0.3 -0.13,0.3 -0.33,0.3 -0.91,0.01 -0.91,0.24 -0.91,0.57 z"
         inkscape:connector-curvature="0"
         style="fill:#000000;stroke-width:0" /><path
         id="path4498"
         d="m 283.69,710.35 0,0.02 0,0.03 0,0.03 0.01,0.03 0,0.07 0,0.07 0.01,0.09 0,0.09 0.01,0.1 0.02,0.1 0.01,0.11 0.02,0.11 0.02,0.11 0.02,0.12 0.03,0.12 0.04,0.12 0.03,0.12 0.04,0.12 0.05,0.11 0.05,0.12 0.06,0.11 0.06,0.11 0.07,0.1 0.08,0.1 0.08,0.09 0.04,0.05 0.05,0.04 0.04,0.04 0.05,0.04 0.05,0.04 0.06,0.03 0.05,0.03 0.06,0.03 0.05,0.03 0.06,0.03 0.07,0.02 0.06,0.02 0.07,0.02 0.07,0.01 0.07,0.01 0.07,0.01 0.08,0 0.07,0 c -0.2,-0.15 -0.3,-0.4 -0.3,-0.65 0,-0.59 0.47,-0.84 0.83,-0.84 0.36,0 0.84,0.25 0.84,0.84 0,0.73 -0.75,1.13 -1.44,1.13 -1.13,0 -1.62,-0.99 -1.82,-1.59 l -0.01,0 0,1.59 -2.36,-0.12 0,-0.61 c 0.89,0 0.99,0 0.99,-0.56 l 0,-4.55 -0.99,0 0,-0.62 c 0.33,0.03 1.41,0.03 1.81,0.03 0.42,0 1.58,0 1.92,-0.03 l 0,0.62 -1.25,0 z"
         inkscape:connector-curvature="0"
         style="fill:#000000;stroke-width:0" /><path
         id="path4500"
         d="m 290.5,716.06 0,0.05 0,0.06 -0.01,0.05 -0.01,0.05 -0.01,0.05 -0.02,0.05 -0.01,0.05 -0.02,0.05 -0.02,0.05 -0.02,0.04 -0.03,0.04 -0.03,0.05 -0.03,0.04 -0.03,0.03 -0.03,0.04 -0.03,0.04 -0.04,0.03 -0.04,0.03 -0.04,0.03 -0.04,0.03 -0.04,0.03 -0.04,0.02 -0.05,0.02 -0.04,0.02 -0.05,0.02 -0.05,0.02 -0.05,0.01 -0.05,0.01 -0.05,0.01 -0.05,0.01 -0.05,0 -0.05,0 c -0.59,0 -1.03,-0.49 -1.03,-1.03 0,-0.54 0.44,-1.03 1.03,-1.03 0.56,0 1.03,0.44 1.03,1.03 z"
         inkscape:connector-curvature="0"
         style="fill:#000000;stroke-width:0" /><path
         id="path4502"
         d="m 287.98,713.46 0,-0.61 c 0.84,0 0.94,0 0.94,-0.56 l 0,-4.55 -0.99,0 0,-0.62 c 0.33,0.03 1.32,0.03 1.71,0.03 0.4,0 1.32,0 1.66,-0.03 l 0,0.62 -0.88,0 0,5.84 z"
         inkscape:connector-curvature="0"
         style="fill:#000000;stroke-width:0" /><path
         id="path4504"
         d="m 299.39,710.26 0,0.18 -0.01,0.18 -0.02,0.17 -0.03,0.17 -0.03,0.17 -0.05,0.16 -0.04,0.16 -0.06,0.16 -0.06,0.15 -0.07,0.14 -0.08,0.14 -0.09,0.14 -0.09,0.13 -0.09,0.12 -0.11,0.12 -0.11,0.12 -0.12,0.11 -0.12,0.1 -0.13,0.1 -0.14,0.09 -0.14,0.08 -0.15,0.08 -0.16,0.07 -0.16,0.07 -0.17,0.06 -0.18,0.05 -0.18,0.04 -0.18,0.04 -0.19,0.02 -0.2,0.02 -0.2,0.02 -0.21,0 -0.02,-0.47 c 0.82,0 1.34,-0.39 1.58,-0.79 0.29,-0.52 0.29,-1.26 0.29,-1.95 0,-1.19 0,-2.86 -1.85,-2.86 l 0,0 c -1.87,0 -1.87,1.68 -1.87,2.86 0,0.67 0,1.39 0.28,1.91 0.31,0.57 0.96,0.83 1.57,0.83 l 0.02,0.47 c -2.34,0 -3.59,-1.49 -3.59,-3.36 0,-1.87 1.32,-3.22 3.57,-3.22 2.34,0 3.59,1.42 3.59,3.22 z"
         inkscape:connector-curvature="0"
         style="fill:#000000;stroke-width:0" /></g>    <g
       id="g4845"
       transform="matrix(1,0,0,-1,-67.302234,1039.7376)"
       xml:space="preserve"
       stroke-miterlimit="10.433"
       font-style="normal"
       font-variant="normal"
       font-weight="normal"
       font-stretch="normal"
       font-size-adjust="none"
       letter-spacing="normal"
       word-spacing="normal"
       ns0:text="\\Large{\\texttt{producto\\_in\\_A}}"
       ns0:preamble="/home/piter/.config/inkscape/extensions/preambulo.ini"
       style="font-style:normal;font-variant:normal;font-weight:normal;font-stretch:normal;letter-spacing:normal;word-spacing:normal;text-anchor:start;fill:none;fill-opacity:1;fill-rule:evenodd;stroke:#000000;stroke-linecap:butt;stroke-linejoin:miter;stroke-miterlimit:10.43299961;stroke-dasharray:none;stroke-dashoffset:0;stroke-opacity:1"><path
         style="fill:#000000;stroke-width:0"
         inkscape:connector-curvature="0"
         d="m 226.33,703.94 0.02,0 0.02,0 0.02,0 0.02,0 0.02,0 0.03,0 0.02,0 0.02,0 0.03,0.01 0.02,0 0.03,0 0.02,0.01 0.02,0.01 0.03,0 0.02,0.01 0.02,0.01 0.02,0.01 0.03,0.01 0.02,0.02 0.02,0.01 0.01,0.02 0.02,0.01 0.01,0.01 0.01,0.01 0.01,0.01 0,0.01 0.01,0.01 0.01,0.02 0,0.01 0.01,0.01 0,0.01 0.01,0.02 0,0.01 0.01,0.02 0,0.01 0,0.02 0.01,0.01 0,0.02 0,0.02 0,0.02 0,0.01 0,0.02 c 0,0.42 -0.37,0.42 -0.57,0.42 l -0.59,0 0,3.07 c 0.35,-0.39 0.88,-0.8 1.68,-0.8 l -0.07,0.83 c -1.08,0 -1.61,1.22 -1.61,1.93 l 0,1.14 c 0,0.82 0.81,1.62 1.74,1.62 1.03,0 1.86,-1.05 1.86,-2.34 0,-1.38 -0.97,-2.35 -1.99,-2.35 l 0.07,-0.83 c 1.52,0 2.86,1.36 2.86,3.18 0,1.77 -1.21,3.17 -2.7,3.17 -1.05,0 -1.71,-0.63 -1.84,-0.77 0,0.47 0,0.69 -0.57,0.69 l -0.95,0 c -0.2,0 -0.57,0 -0.57,-0.42 0,-0.42 0.37,-0.42 0.57,-0.42 l 0.59,0 0,-7.7 -0.59,0 c -0.2,0 -0.57,0 -0.57,-0.42 0,-0.41 0.37,-0.41 0.57,-0.41 z"
         id="path4847" /><path
         style="fill:#000000;stroke-width:0"
         inkscape:connector-curvature="0"
         d="m 233.91,709.83 0,0.16 0.01,0.16 0.02,0.15 0.03,0.14 0.02,0.14 0.04,0.14 0.04,0.13 0.05,0.13 0.05,0.12 0.06,0.12 0.06,0.12 0.07,0.11 0.07,0.1 0.07,0.1 0.08,0.1 0.09,0.09 0.08,0.08 0.09,0.08 0.1,0.08 0.09,0.07 0.1,0.06 0.1,0.06 0.11,0.06 0.1,0.04 0.11,0.05 0.11,0.03 0.11,0.04 0.11,0.02 0.11,0.02 0.12,0.02 0.11,0.01 0.12,0 c 0.07,0 0.15,0 0.23,-0.02 0.04,-0.51 0.44,-0.55 0.54,-0.55 0.33,0 0.56,0.24 0.56,0.55 0,0.62 -0.6,0.85 -1.32,0.85 -0.96,0 -1.78,-0.43 -2.44,-1.23 l 0,0.56 c 0,0.44 -0.09,0.59 -0.57,0.59 l -1.45,0 c -0.2,0 -0.57,0 -0.57,-0.42 0,-0.42 0.37,-0.42 0.57,-0.42 l 1.09,0 0,-4.51 -1.09,0 c -0.2,0 -0.57,0 -0.57,-0.42 0,-0.42 0.37,-0.42 0.57,-0.42 l 3.53,0 c 0.2,0 0.57,0 0.57,0.42 0,0.42 -0.37,0.42 -0.57,0.42 l -1.51,0 z"
         id="path4849" /><path
         style="fill:#000000;stroke-width:0"
         inkscape:connector-curvature="0"
         d="m 244.74,710.22 0,0.17 -0.01,0.16 -0.02,0.16 -0.03,0.16 -0.03,0.16 -0.04,0.15 -0.04,0.15 -0.06,0.15 -0.05,0.14 -0.07,0.14 -0.07,0.14 -0.07,0.13 -0.08,0.12 -0.09,0.12 -0.09,0.12 -0.09,0.11 -0.1,0.11 -0.11,0.1 -0.11,0.09 -0.11,0.09 -0.11,0.08 -0.12,0.08 -0.13,0.07 -0.12,0.07 -0.13,0.05 -0.13,0.05 -0.14,0.04 -0.14,0.04 -0.13,0.03 -0.15,0.02 -0.14,0.01 -0.14,0 0,-0.83 c 1,0 1.92,-0.94 1.92,-2.28 0,-1.37 -0.89,-2.45 -1.92,-2.45 l 0,0 c -1.04,0 -1.93,1.09 -1.93,2.45 0,1.34 0.92,2.28 1.93,2.28 l 0,0.83 c -1.55,0 -2.86,-1.41 -2.86,-3.21 0,-1.81 1.32,-3.18 2.86,-3.18 1.53,0 2.85,1.37 2.85,3.18 z"
         id="path4851" /><path
         style="fill:#000000;stroke-width:0"
         inkscape:connector-curvature="0"
         d="m 251.58,715.3 0,0.04 0,0.04 -0.01,0.04 0,0.03 0,0.04 0,0.03 -0.01,0.03 0,0.03 -0.01,0.03 -0.01,0.02 -0.01,0.03 -0.01,0.02 -0.01,0.02 -0.01,0.02 -0.01,0.02 -0.02,0.02 -0.01,0.02 -0.02,0.01 -0.02,0.02 -0.02,0.01 -0.02,0.01 -0.03,0.01 -0.02,0.01 -0.03,0.01 -0.03,0.01 -0.03,0 -0.04,0.01 -0.03,0 -0.04,0 -0.04,0.01 -0.04,0 -0.02,0 -0.03,0 -0.94,0 c -0.21,0 -0.58,0 -0.58,-0.42 0,-0.41 0.37,-0.41 0.58,-0.41 l 0.58,0 0,-2.39 c -0.23,0.23 -0.81,0.72 -1.69,0.72 l 0.09,-0.83 c 0.93,0 1.6,-0.85 1.6,-1.59 l 0,-1.12 c 0,-0.81 -0.66,-1.98 -1.73,-1.98 -1.03,0 -1.87,1.05 -1.87,2.34 0,1.37 0.98,2.35 2,2.35 l -0.09,0.83 c -1.52,0 -2.84,-1.37 -2.84,-3.18 0,-1.77 1.24,-3.17 2.71,-3.17 0.94,0 1.55,0.56 1.82,0.87 0,-0.6 0,-0.79 0.58,-0.79 l 0.94,0 c 0.21,0 0.58,0 0.58,0.42 0,0.42 -0.37,0.42 -0.58,0.42 l -0.58,0 z"
         id="path4853" /><path
         style="fill:#000000;stroke-width:0"
         inkscape:connector-curvature="0"
         d="m 258.96,712.72 0,0.04 0,0.04 -0.01,0.04 0,0.03 0,0.03 0,0.04 -0.01,0.03 0,0.03 -0.01,0.02 -0.01,0.03 -0.01,0.03 -0.01,0.02 -0.01,0.02 -0.01,0.02 -0.01,0.02 -0.02,0.02 -0.01,0.02 -0.02,0.01 -0.02,0.01 -0.02,0.02 -0.02,0.01 -0.03,0.01 -0.02,0.01 -0.03,0.01 -0.03,0 -0.03,0.01 -0.04,0 -0.03,0.01 -0.04,0 -0.04,0 -0.04,0.01 -0.02,0 -0.03,0 -0.94,0 c -0.21,0 -0.58,0 -0.58,-0.42 0,-0.42 0.37,-0.42 0.58,-0.42 l 0.58,0 0,-3.11 c 0,-1.18 -0.97,-1.49 -1.62,-1.49 -1.13,0 -1.13,0.52 -1.13,0.96 l 0,3.89 c 0,0.44 -0.09,0.59 -0.57,0.59 l -0.95,0 c -0.2,0 -0.57,0 -0.57,-0.42 0,-0.42 0.37,-0.42 0.57,-0.42 l 0.59,0 0,-3.71 c 0,-1.32 0.86,-1.72 1.96,-1.72 0.88,0 1.42,0.36 1.71,0.6 0,-0.52 0.34,-0.52 0.59,-0.52 l 0.95,0 c 0.2,0 0.57,0 0.57,0.42 0,0.42 -0.37,0.42 -0.57,0.42 l -0.59,0 z"
         id="path4855" /><path
         style="fill:#000000;stroke-width:0"
         inkscape:connector-curvature="0"
         d="m 266.89,708.69 0,0.01 0,0.02 0,0.02 -0.01,0.01 0,0.02 0,0.01 0,0.02 -0.01,0.01 0,0.01 0,0.01 -0.01,0.02 0,0.01 -0.01,0.01 -0.01,0.01 0,0.01 -0.01,0.01 -0.01,0.01 0,0.01 -0.01,0.01 -0.01,0.01 -0.01,0.01 -0.02,0.02 -0.02,0.01 -0.02,0.01 -0.02,0.01 -0.01,0.01 -0.02,0.01 -0.02,0.01 -0.02,0 -0.02,0.01 -0.02,0 -0.02,0.01 -0.02,0 -0.02,0 -0.02,0.01 -0.02,0 -0.01,0 -0.02,0 -0.02,0 -0.01,0 -0.01,0 -0.01,0 c -0.33,0 -0.39,-0.11 -0.46,-0.32 -0.32,-0.78 -1.02,-0.87 -1.37,-0.87 -1.21,0 -2.25,1.02 -2.25,2.35 0,0.73 0.42,2.38 2.3,2.38 0.38,0 0.69,-0.03 0.81,-0.04 0.1,-0.03 0.12,-0.04 0.12,-0.11 0.04,-0.59 0.49,-0.61 0.57,-0.61 0.32,0 0.59,0.22 0.59,0.61 0,0.98 -1.45,0.98 -2.08,0.98 -2.45,0 -3.24,-2 -3.24,-3.21 0,-1.75 1.33,-3.18 3.05,-3.18 1.93,0 2.43,1.42 2.43,1.65 z"
         id="path4857" /><path
         style="fill:#000000;stroke-width:0"
         inkscape:connector-curvature="0"
         d="m 270.83,712.47 2.32,0 c 0.2,0 0.57,0 0.57,0.42 0,0.42 -0.37,0.42 -0.57,0.42 l -2.32,0 0,1.17 c 0,0.26 0,0.59 -0.46,0.59 -0.48,0 -0.48,-0.33 -0.48,-0.59 l 0,-1.17 -1.22,0 c -0.2,0 -0.58,0 -0.58,-0.42 0,-0.42 0.37,-0.42 0.57,-0.42 l 1.23,0 0,-3.61 c 0,-1.34 0.92,-1.82 1.96,-1.82 0.77,0 2.19,0.38 2.19,1.85 0,0.28 0,0.6 -0.47,0.6 -0.46,0 -0.46,-0.32 -0.46,-0.62 -0.02,-0.86 -0.84,-1 -1.16,-1 -1.12,0 -1.12,0.72 -1.12,1.06 z"
         id="path4859" /><path
         style="fill:#000000;stroke-width:0"
         inkscape:connector-curvature="0"
         d="m 281.65,710.22 0,0.17 -0.02,0.16 -0.01,0.16 -0.03,0.16 -0.03,0.16 -0.04,0.15 -0.05,0.15 -0.05,0.15 -0.06,0.14 -0.06,0.14 -0.07,0.14 -0.08,0.13 -0.08,0.12 -0.08,0.12 -0.09,0.12 -0.1,0.11 -0.1,0.11 -0.1,0.1 -0.11,0.09 -0.11,0.09 -0.12,0.08 -0.12,0.08 -0.12,0.07 -0.13,0.07 -0.13,0.05 -0.13,0.05 -0.13,0.04 -0.14,0.04 -0.14,0.03 -0.14,0.02 -0.14,0.01 -0.15,0 0,-0.83 c 1.01,0 1.93,-0.94 1.93,-2.28 0,-1.37 -0.89,-2.45 -1.93,-2.45 l 0,0 c -1.03,0 -1.92,1.09 -1.92,2.45 0,1.34 0.92,2.28 1.92,2.28 l 0,0.83 c -1.55,0 -2.85,-1.41 -2.85,-3.21 0,-1.81 1.32,-3.18 2.85,-3.18 1.54,0 2.86,1.37 2.86,3.18 z"
         id="path4861" /><line
         style="stroke-width:0.398"
         x1="283.38"
         y1="707.32001"
         x2="287.79999"
         y2="707.32001"
         id="line4863" /><path
         style="fill:#000000;stroke-width:0"
         inkscape:connector-curvature="0"
         d="m 292.14,715.26 0,0.03 -0.01,0.03 0,0.04 -0.01,0.03 0,0.03 -0.01,0.03 -0.01,0.03 -0.01,0.03 -0.02,0.03 -0.01,0.03 -0.02,0.02 -0.01,0.03 -0.02,0.02 -0.02,0.03 -0.02,0.02 -0.02,0.02 -0.02,0.03 -0.03,0.02 -0.02,0.01 -0.03,0.02 -0.02,0.02 -0.03,0.01 -0.03,0.02 -0.03,0.01 -0.02,0.01 -0.04,0.01 -0.03,0.01 -0.03,0.01 -0.03,0 -0.03,0.01 -0.03,0 -0.04,0 c -0.36,0 -0.64,-0.29 -0.64,-0.64 0,-0.36 0.28,-0.65 0.64,-0.65 0.36,0 0.65,0.29 0.65,0.65 z"
         id="path4865" /><path
         style="fill:#000000;stroke-width:0"
         inkscape:connector-curvature="0"
         d="m 289.67,713.31 -0.02,0 -0.02,0 -0.02,0 -0.02,0 -0.02,-0.01 -0.03,0 -0.02,0 -0.02,0 -0.03,0 -0.02,-0.01 -0.03,0 -0.02,-0.01 -0.02,0 -0.03,-0.01 -0.02,-0.01 -0.02,-0.01 -0.02,-0.01 -0.03,-0.01 -0.02,-0.01 -0.02,-0.02 -0.01,-0.01 -0.02,-0.02 -0.01,-0.01 -0.01,-0.01 -0.01,-0.01 0,-0.01 -0.01,-0.01 -0.01,-0.01 0,-0.01 -0.01,-0.02 0,-0.01 -0.01,-0.01 0,-0.02 -0.01,-0.01 0,-0.02 0,-0.01 -0.01,-0.02 0,-0.02 0,-0.01 0,-0.02 0,-0.02 0,-0.02 c 0,-0.42 0.37,-0.42 0.57,-0.42 l 1.53,0 0,-4.51 -1.63,0 c -0.2,0 -0.59,0 -0.59,-0.42 0,-0.42 0.39,-0.42 0.59,-0.42 l 3.99,0 c 0.2,0 0.57,0 0.57,0.42 0,0.42 -0.37,0.42 -0.57,0.42 l -1.42,0 0,4.76 c 0,0.44 -0.09,0.59 -0.58,0.59 z"
         id="path4867" /><path
         style="fill:#000000;stroke-width:0"
         inkscape:connector-curvature="0"
         d="m 301.18,711.33 0,0.13 -0.01,0.12 -0.01,0.12 -0.01,0.12 -0.02,0.11 -0.02,0.11 -0.02,0.1 -0.03,0.1 -0.03,0.1 -0.04,0.09 -0.04,0.08 -0.04,0.09 -0.05,0.08 -0.05,0.07 -0.05,0.07 -0.06,0.07 -0.06,0.06 -0.06,0.06 -0.07,0.05 -0.07,0.05 -0.07,0.04 -0.08,0.05 -0.08,0.03 -0.08,0.04 -0.09,0.03 -0.09,0.02 -0.09,0.02 -0.1,0.02 -0.1,0.01 -0.1,0.01 -0.11,0.01 -0.1,0 c -0.98,0 -1.61,-0.54 -1.86,-0.82 0,0.53 0,0.74 -0.57,0.74 l -0.95,0 c -0.2,0 -0.57,0 -0.57,-0.42 0,-0.42 0.37,-0.42 0.57,-0.42 l 0.59,0 0,-4.51 -0.59,0 c -0.2,0 -0.57,0 -0.57,-0.42 0,-0.42 0.37,-0.42 0.57,-0.42 l 2.11,0 c 0.2,0 0.58,0 0.58,0.42 0,0.42 -0.38,0.42 -0.58,0.42 l -0.59,0 0,2.59 c 0,1.39 0.98,2.01 1.75,2.01 0.84,0 1.01,-0.47 1.01,-1.29 l 0,-3.31 -0.59,0 c -0.2,0 -0.57,0 -0.57,-0.42 0,-0.42 0.37,-0.42 0.57,-0.42 l 2.11,0 c 0.2,0 0.57,0 0.57,0.42 0,0.42 -0.37,0.42 -0.57,0.42 l -0.59,0 z"
         id="path4869" /><line
         style="stroke-width:0.398"
         x1="303.45999"
         y1="707.32001"
         x2="307.89001"
         y2="707.32001"
         id="line4871" /><path
         style="fill:#000000;stroke-width:0"
         inkscape:connector-curvature="0"
         d="m 312.3,715.57 0,0.03 -0.01,0.02 -0.01,0.02 0,0.02 -0.01,0.02 -0.01,0.02 0,0.02 -0.01,0.02 -0.01,0.02 -0.01,0.02 0,0.02 -0.01,0.01 -0.02,0.03 -0.02,0.03 -0.01,0.03 -0.02,0.02 -0.02,0.02 -0.02,0.02 -0.03,0.02 -0.02,0.02 -0.02,0.01 -0.02,0.01 -0.03,0.02 -0.02,0.01 -0.03,0 -0.02,0.01 -0.03,0.01 -0.03,0 -0.03,0.01 -0.02,0 -0.03,0 -0.03,0.01 -0.03,0 -0.03,0 -0.06,0 -0.06,0 c -0.45,0 -0.62,-0.06 -0.72,-0.52 l -1.78,-7.61 c -0.47,0 -0.8,0 -0.8,-0.42 0,-0.42 0.39,-0.42 0.59,-0.42 l 1.37,0 c 0.21,0 0.59,0 0.59,0.42 0,0.42 -0.34,0.42 -0.79,0.42 l 0.38,1.6 0.18,0.83 c 0.1,0.43 0.89,3.82 0.96,4.51 l 0.02,0 c 0.04,-0.33 0.24,-1.21 0.24,-1.22 l 0.74,-3.29 -1.96,0 -0.18,-0.83 2.32,0 0.38,-1.6 c -0.45,0 -0.79,0 -0.79,-0.42 0,-0.42 0.38,-0.42 0.58,-0.42 l 1.38,0 c 0.2,0 0.59,0 0.59,0.42 0,0.42 -0.33,0.42 -0.8,0.42 z"
         id="path4873" /></g>    <g
       style="font-style:normal;font-variant:normal;font-weight:normal;font-stretch:normal;letter-spacing:normal;word-spacing:normal;text-anchor:start;fill:none;fill-opacity:1;fill-rule:evenodd;stroke:#000000;stroke-linecap:butt;stroke-linejoin:miter;stroke-miterlimit:10.43299961;stroke-dasharray:none;stroke-dashoffset:0;stroke-opacity:1"
       ns0:preamble="/home/piter/.config/inkscape/extensions/preambulo.ini"
       ns0:text="\\Large{\\texttt{\\Large{\\texttt{producto\\_in\\_C}}}}"
       word-spacing="normal"
       letter-spacing="normal"
       font-size-adjust="none"
       font-stretch="normal"
       font-weight="normal"
       font-variant="normal"
       font-style="normal"
       stroke-miterlimit="10.433"
       xml:space="preserve"
       transform="matrix(1,0,0,-1,-67.744303,1119.4741)"
       id="g5129"><path
         style="fill:#000000;stroke-width:0"
         inkscape:connector-curvature="0"
         id="path5131"
         d="m 226.33,703.94 0.02,0 0.02,0 0.02,0 0.02,0 0.02,0 0.03,0 0.02,0 0.02,0 0.03,0.01 0.02,0 0.03,0 0.02,0.01 0.02,0.01 0.03,0 0.02,0.01 0.02,0.01 0.02,0.01 0.03,0.01 0.02,0.02 0.02,0.01 0.01,0.02 0.02,0.01 0.01,0.01 0.01,0.01 0.01,0.01 0,0.01 0.01,0.01 0.01,0.02 0,0.01 0.01,0.01 0,0.01 0.01,0.02 0,0.01 0.01,0.02 0,0.01 0,0.02 0.01,0.01 0,0.02 0,0.02 0,0.02 0,0.01 0,0.02 c 0,0.42 -0.37,0.42 -0.57,0.42 l -0.59,0 0,3.07 c 0.35,-0.39 0.88,-0.8 1.68,-0.8 l -0.07,0.83 c -1.08,0 -1.61,1.22 -1.61,1.93 l 0,1.14 c 0,0.82 0.81,1.62 1.74,1.62 1.03,0 1.86,-1.05 1.86,-2.34 0,-1.38 -0.97,-2.35 -1.99,-2.35 l 0.07,-0.83 c 1.52,0 2.86,1.36 2.86,3.18 0,1.77 -1.21,3.17 -2.7,3.17 -1.05,0 -1.71,-0.63 -1.84,-0.77 0,0.47 0,0.69 -0.57,0.69 l -0.95,0 c -0.2,0 -0.57,0 -0.57,-0.42 0,-0.42 0.37,-0.42 0.57,-0.42 l 0.59,0 0,-7.7 -0.59,0 c -0.2,0 -0.57,0 -0.57,-0.42 0,-0.41 0.37,-0.41 0.57,-0.41 z" /><path
         style="fill:#000000;stroke-width:0"
         inkscape:connector-curvature="0"
         id="path5133"
         d="m 233.91,709.83 0,0.16 0.01,0.16 0.02,0.15 0.03,0.14 0.02,0.14 0.04,0.14 0.04,0.13 0.05,0.13 0.05,0.12 0.06,0.12 0.06,0.12 0.07,0.11 0.07,0.1 0.07,0.1 0.08,0.1 0.09,0.09 0.08,0.08 0.09,0.08 0.1,0.08 0.09,0.07 0.1,0.06 0.1,0.06 0.11,0.06 0.1,0.04 0.11,0.05 0.11,0.03 0.11,0.04 0.11,0.02 0.11,0.02 0.12,0.02 0.11,0.01 0.12,0 c 0.07,0 0.15,0 0.23,-0.02 0.04,-0.51 0.44,-0.55 0.54,-0.55 0.33,0 0.56,0.24 0.56,0.55 0,0.62 -0.6,0.85 -1.32,0.85 -0.96,0 -1.78,-0.43 -2.44,-1.23 l 0,0.56 c 0,0.44 -0.09,0.59 -0.57,0.59 l -1.45,0 c -0.2,0 -0.57,0 -0.57,-0.42 0,-0.42 0.37,-0.42 0.57,-0.42 l 1.09,0 0,-4.51 -1.09,0 c -0.2,0 -0.57,0 -0.57,-0.42 0,-0.42 0.37,-0.42 0.57,-0.42 l 3.53,0 c 0.2,0 0.57,0 0.57,0.42 0,0.42 -0.37,0.42 -0.57,0.42 l -1.51,0 z" /><path
         style="fill:#000000;stroke-width:0"
         inkscape:connector-curvature="0"
         id="path5135"
         d="m 244.74,710.22 0,0.17 -0.01,0.16 -0.02,0.16 -0.03,0.16 -0.03,0.16 -0.04,0.15 -0.04,0.15 -0.06,0.15 -0.05,0.14 -0.07,0.14 -0.07,0.14 -0.07,0.13 -0.08,0.12 -0.09,0.12 -0.09,0.12 -0.09,0.11 -0.1,0.11 -0.11,0.1 -0.11,0.09 -0.11,0.09 -0.11,0.08 -0.12,0.08 -0.13,0.07 -0.12,0.07 -0.13,0.05 -0.13,0.05 -0.14,0.04 -0.14,0.04 -0.13,0.03 -0.15,0.02 -0.14,0.01 -0.14,0 0,-0.83 c 1,0 1.92,-0.94 1.92,-2.28 0,-1.37 -0.89,-2.45 -1.92,-2.45 l 0,0 c -1.04,0 -1.93,1.09 -1.93,2.45 0,1.34 0.92,2.28 1.93,2.28 l 0,0.83 c -1.55,0 -2.86,-1.41 -2.86,-3.21 0,-1.81 1.32,-3.18 2.86,-3.18 1.53,0 2.85,1.37 2.85,3.18 z" /><path
         style="fill:#000000;stroke-width:0"
         inkscape:connector-curvature="0"
         id="path5137"
         d="m 251.58,715.3 0,0.04 0,0.04 -0.01,0.04 0,0.03 0,0.04 0,0.03 -0.01,0.03 0,0.03 -0.01,0.03 -0.01,0.02 -0.01,0.03 -0.01,0.02 -0.01,0.02 -0.01,0.02 -0.01,0.02 -0.02,0.02 -0.01,0.02 -0.02,0.01 -0.02,0.02 -0.02,0.01 -0.02,0.01 -0.03,0.01 -0.02,0.01 -0.03,0.01 -0.03,0.01 -0.03,0 -0.04,0.01 -0.03,0 -0.04,0 -0.04,0.01 -0.04,0 -0.02,0 -0.03,0 -0.94,0 c -0.21,0 -0.58,0 -0.58,-0.42 0,-0.41 0.37,-0.41 0.58,-0.41 l 0.58,0 0,-2.39 c -0.23,0.23 -0.81,0.72 -1.69,0.72 l 0.09,-0.83 c 0.93,0 1.6,-0.85 1.6,-1.59 l 0,-1.12 c 0,-0.81 -0.66,-1.98 -1.73,-1.98 -1.03,0 -1.87,1.05 -1.87,2.34 0,1.37 0.98,2.35 2,2.35 l -0.09,0.83 c -1.52,0 -2.84,-1.37 -2.84,-3.18 0,-1.77 1.24,-3.17 2.71,-3.17 0.94,0 1.55,0.56 1.82,0.87 0,-0.6 0,-0.79 0.58,-0.79 l 0.94,0 c 0.21,0 0.58,0 0.58,0.42 0,0.42 -0.37,0.42 -0.58,0.42 l -0.58,0 z" /><path
         style="fill:#000000;stroke-width:0"
         inkscape:connector-curvature="0"
         id="path5139"
         d="m 258.96,712.72 0,0.04 0,0.04 -0.01,0.04 0,0.03 0,0.03 0,0.04 -0.01,0.03 0,0.03 -0.01,0.02 -0.01,0.03 -0.01,0.03 -0.01,0.02 -0.01,0.02 -0.01,0.02 -0.01,0.02 -0.02,0.02 -0.01,0.02 -0.02,0.01 -0.02,0.01 -0.02,0.02 -0.02,0.01 -0.03,0.01 -0.02,0.01 -0.03,0.01 -0.03,0 -0.03,0.01 -0.04,0 -0.03,0.01 -0.04,0 -0.04,0 -0.04,0.01 -0.02,0 -0.03,0 -0.94,0 c -0.21,0 -0.58,0 -0.58,-0.42 0,-0.42 0.37,-0.42 0.58,-0.42 l 0.58,0 0,-3.11 c 0,-1.18 -0.97,-1.49 -1.62,-1.49 -1.13,0 -1.13,0.52 -1.13,0.96 l 0,3.89 c 0,0.44 -0.09,0.59 -0.57,0.59 l -0.95,0 c -0.2,0 -0.57,0 -0.57,-0.42 0,-0.42 0.37,-0.42 0.57,-0.42 l 0.59,0 0,-3.71 c 0,-1.32 0.86,-1.72 1.96,-1.72 0.88,0 1.42,0.36 1.71,0.6 0,-0.52 0.34,-0.52 0.59,-0.52 l 0.95,0 c 0.2,0 0.57,0 0.57,0.42 0,0.42 -0.37,0.42 -0.57,0.42 l -0.59,0 z" /><path
         style="fill:#000000;stroke-width:0"
         inkscape:connector-curvature="0"
         id="path5141"
         d="m 266.89,708.69 0,0.01 0,0.02 0,0.02 -0.01,0.01 0,0.02 0,0.01 0,0.02 -0.01,0.01 0,0.01 0,0.01 -0.01,0.02 0,0.01 -0.01,0.01 -0.01,0.01 0,0.01 -0.01,0.01 -0.01,0.01 0,0.01 -0.01,0.01 -0.01,0.01 -0.01,0.01 -0.02,0.02 -0.02,0.01 -0.02,0.01 -0.02,0.01 -0.01,0.01 -0.02,0.01 -0.02,0.01 -0.02,0 -0.02,0.01 -0.02,0 -0.02,0.01 -0.02,0 -0.02,0 -0.02,0.01 -0.02,0 -0.01,0 -0.02,0 -0.02,0 -0.01,0 -0.01,0 -0.01,0 c -0.33,0 -0.39,-0.11 -0.46,-0.32 -0.32,-0.78 -1.02,-0.87 -1.37,-0.87 -1.21,0 -2.25,1.02 -2.25,2.35 0,0.73 0.42,2.38 2.3,2.38 0.38,0 0.69,-0.03 0.81,-0.04 0.1,-0.03 0.12,-0.04 0.12,-0.11 0.04,-0.59 0.49,-0.61 0.57,-0.61 0.32,0 0.59,0.22 0.59,0.61 0,0.98 -1.45,0.98 -2.08,0.98 -2.45,0 -3.24,-2 -3.24,-3.21 0,-1.75 1.33,-3.18 3.05,-3.18 1.93,0 2.43,1.42 2.43,1.65 z" /><path
         style="fill:#000000;stroke-width:0"
         inkscape:connector-curvature="0"
         id="path5143"
         d="m 270.83,712.47 2.32,0 c 0.2,0 0.57,0 0.57,0.42 0,0.42 -0.37,0.42 -0.57,0.42 l -2.32,0 0,1.17 c 0,0.26 0,0.59 -0.46,0.59 -0.48,0 -0.48,-0.33 -0.48,-0.59 l 0,-1.17 -1.22,0 c -0.2,0 -0.58,0 -0.58,-0.42 0,-0.42 0.37,-0.42 0.57,-0.42 l 1.23,0 0,-3.61 c 0,-1.34 0.92,-1.82 1.96,-1.82 0.77,0 2.19,0.38 2.19,1.85 0,0.28 0,0.6 -0.47,0.6 -0.46,0 -0.46,-0.32 -0.46,-0.62 -0.02,-0.86 -0.84,-1 -1.16,-1 -1.12,0 -1.12,0.72 -1.12,1.06 z" /><path
         style="fill:#000000;stroke-width:0"
         inkscape:connector-curvature="0"
         id="path5145"
         d="m 281.65,710.22 0,0.17 -0.02,0.16 -0.01,0.16 -0.03,0.16 -0.03,0.16 -0.04,0.15 -0.05,0.15 -0.05,0.15 -0.06,0.14 -0.06,0.14 -0.07,0.14 -0.08,0.13 -0.08,0.12 -0.08,0.12 -0.09,0.12 -0.1,0.11 -0.1,0.11 -0.1,0.1 -0.11,0.09 -0.11,0.09 -0.12,0.08 -0.12,0.08 -0.12,0.07 -0.13,0.07 -0.13,0.05 -0.13,0.05 -0.13,0.04 -0.14,0.04 -0.14,0.03 -0.14,0.02 -0.14,0.01 -0.15,0 0,-0.83 c 1.01,0 1.93,-0.94 1.93,-2.28 0,-1.37 -0.89,-2.45 -1.93,-2.45 l 0,0 c -1.03,0 -1.92,1.09 -1.92,2.45 0,1.34 0.92,2.28 1.92,2.28 l 0,0.83 c -1.55,0 -2.85,-1.41 -2.85,-3.21 0,-1.81 1.32,-3.18 2.85,-3.18 1.54,0 2.86,1.37 2.86,3.18 z" /><line
         style="stroke-width:0.398"
         id="line5147"
         y2="707.32001"
         x2="287.79999"
         y1="707.32001"
         x1="283.38" /><path
         style="fill:#000000;stroke-width:0"
         inkscape:connector-curvature="0"
         id="path5149"
         d="m 292.14,715.26 0,0.03 -0.01,0.03 0,0.04 -0.01,0.03 0,0.03 -0.01,0.03 -0.01,0.03 -0.01,0.03 -0.02,0.03 -0.01,0.03 -0.02,0.02 -0.01,0.03 -0.02,0.02 -0.02,0.03 -0.02,0.02 -0.02,0.02 -0.02,0.03 -0.03,0.02 -0.02,0.01 -0.03,0.02 -0.02,0.02 -0.03,0.01 -0.03,0.02 -0.03,0.01 -0.02,0.01 -0.04,0.01 -0.03,0.01 -0.03,0.01 -0.03,0 -0.03,0.01 -0.03,0 -0.04,0 c -0.36,0 -0.64,-0.29 -0.64,-0.64 0,-0.36 0.28,-0.65 0.64,-0.65 0.36,0 0.65,0.29 0.65,0.65 z" /><path
         style="fill:#000000;stroke-width:0"
         inkscape:connector-curvature="0"
         id="path5151"
         d="m 289.67,713.31 -0.02,0 -0.02,0 -0.02,0 -0.02,0 -0.02,-0.01 -0.03,0 -0.02,0 -0.02,0 -0.03,0 -0.02,-0.01 -0.03,0 -0.02,-0.01 -0.02,0 -0.03,-0.01 -0.02,-0.01 -0.02,-0.01 -0.02,-0.01 -0.03,-0.01 -0.02,-0.01 -0.02,-0.02 -0.01,-0.01 -0.02,-0.02 -0.01,-0.01 -0.01,-0.01 -0.01,-0.01 0,-0.01 -0.01,-0.01 -0.01,-0.01 0,-0.01 -0.01,-0.02 0,-0.01 -0.01,-0.01 0,-0.02 -0.01,-0.01 0,-0.02 0,-0.01 -0.01,-0.02 0,-0.02 0,-0.01 0,-0.02 0,-0.02 0,-0.02 c 0,-0.42 0.37,-0.42 0.57,-0.42 l 1.53,0 0,-4.51 -1.63,0 c -0.2,0 -0.59,0 -0.59,-0.42 0,-0.42 0.39,-0.42 0.59,-0.42 l 3.99,0 c 0.2,0 0.57,0 0.57,0.42 0,0.42 -0.37,0.42 -0.57,0.42 l -1.42,0 0,4.76 c 0,0.44 -0.09,0.59 -0.58,0.59 z" /><path
         style="fill:#000000;stroke-width:0"
         inkscape:connector-curvature="0"
         id="path5153"
         d="m 301.18,711.33 0,0.13 -0.01,0.12 -0.01,0.12 -0.01,0.12 -0.02,0.11 -0.02,0.11 -0.02,0.1 -0.03,0.1 -0.03,0.1 -0.04,0.09 -0.04,0.08 -0.04,0.09 -0.05,0.08 -0.05,0.07 -0.05,0.07 -0.06,0.07 -0.06,0.06 -0.06,0.06 -0.07,0.05 -0.07,0.05 -0.07,0.04 -0.08,0.05 -0.08,0.03 -0.08,0.04 -0.09,0.03 -0.09,0.02 -0.09,0.02 -0.1,0.02 -0.1,0.01 -0.1,0.01 -0.11,0.01 -0.1,0 c -0.98,0 -1.61,-0.54 -1.86,-0.82 0,0.53 0,0.74 -0.57,0.74 l -0.95,0 c -0.2,0 -0.57,0 -0.57,-0.42 0,-0.42 0.37,-0.42 0.57,-0.42 l 0.59,0 0,-4.51 -0.59,0 c -0.2,0 -0.57,0 -0.57,-0.42 0,-0.42 0.37,-0.42 0.57,-0.42 l 2.11,0 c 0.2,0 0.58,0 0.58,0.42 0,0.42 -0.38,0.42 -0.58,0.42 l -0.59,0 0,2.59 c 0,1.39 0.98,2.01 1.75,2.01 0.84,0 1.01,-0.47 1.01,-1.29 l 0,-3.31 -0.59,0 c -0.2,0 -0.57,0 -0.57,-0.42 0,-0.42 0.37,-0.42 0.57,-0.42 l 2.11,0 c 0.2,0 0.57,0 0.57,0.42 0,0.42 -0.37,0.42 -0.57,0.42 l -0.59,0 z" /><line
         style="stroke-width:0.398"
         id="line5155"
         y2="707.32001"
         x2="307.89001"
         y1="707.32001"
         x1="303.45999" /><path
         style="fill:#000000;stroke-width:0"
         inkscape:connector-curvature="0"
         id="path5157"
         d="m 314.68,715.52 0,0.04 0,0.04 0,0.05 0,0.02 0,0.03 -0.01,0.02 0,0.02 0,0.03 -0.01,0.02 0,0.02 -0.01,0.02 -0.01,0.02 -0.01,0.02 -0.01,0.02 -0.01,0.02 -0.01,0.02 -0.02,0.02 -0.01,0.01 -0.02,0.02 -0.01,0.01 -0.01,0 -0.01,0.01 -0.01,0.01 -0.01,0 -0.01,0.01 -0.01,0 -0.01,0.01 -0.02,0 -0.01,0.01 -0.01,0 -0.02,0.01 -0.01,0 -0.02,0 -0.01,0 -0.02,0.01 -0.02,0 -0.01,0 -0.02,0 -0.02,0 c -0.26,0 -0.33,-0.16 -0.39,-0.26 -0.04,-0.11 -0.15,-0.37 -0.2,-0.47 -0.58,0.51 -1.24,0.73 -1.85,0.73 -1.85,0 -3.38,-1.98 -3.38,-4.55 0,-2.62 1.57,-4.56 3.38,-4.56 1.68,0 2.84,1.33 2.84,2.6 0,0.44 -0.3,0.44 -0.47,0.44 -0.2,0 -0.43,-0.07 -0.46,-0.31 -0.11,-1.8 -1.56,-1.9 -1.81,-1.9 -1.33,0 -2.55,1.57 -2.55,3.73 0,2.17 1.23,3.72 2.54,3.72 0.77,0 1.62,-0.62 1.82,-1.94 0.04,-0.31 0.17,-0.4 0.46,-0.4 0.47,0 0.47,0.26 0.47,0.54 z" /></g>    <path
       sodipodi:nodetypes="cc"
       style="fill:none;fill-rule:evenodd;stroke:#000000;stroke-width:1px;stroke-linecap:butt;stroke-linejoin:miter;stroke-opacity:1;marker-end:url(#marker24647-3-3)"
       d="m 207.823,377.37583 43.53592,0"
       id="path31725-4-7"
       inkscape:connector-curvature="0" />
    <g
       id="g6056"
       transform="matrix(1,0,0,-1,-67.58048,1079.943)"
       xml:space="preserve"
       stroke-miterlimit="10.433"
       font-style="normal"
       font-variant="normal"
       font-weight="normal"
       font-stretch="normal"
       font-size-adjust="none"
       letter-spacing="normal"
       word-spacing="normal"
       ns0:text="\\Large{\\texttt{\\Large{\\texttt{producto\\_in\\_B}}}}"
       ns0:preamble="/home/piter/.config/inkscape/extensions/preambulo.ini"
       style="font-style:normal;font-variant:normal;font-weight:normal;font-stretch:normal;letter-spacing:normal;word-spacing:normal;text-anchor:start;fill:none;fill-opacity:1;fill-rule:evenodd;stroke:#000000;stroke-linecap:butt;stroke-linejoin:miter;stroke-miterlimit:10.43299961;stroke-dasharray:none;stroke-dashoffset:0;stroke-opacity:1"><path
         style="fill:#000000;stroke-width:0"
         inkscape:connector-curvature="0"
         d="m 226.33,703.94 0.02,0 0.02,0 0.02,0 0.02,0 0.02,0 0.03,0 0.02,0 0.02,0 0.03,0.01 0.02,0 0.03,0 0.02,0.01 0.02,0.01 0.03,0 0.02,0.01 0.02,0.01 0.02,0.01 0.03,0.01 0.02,0.02 0.02,0.01 0.01,0.02 0.02,0.01 0.01,0.01 0.01,0.01 0.01,0.01 0,0.01 0.01,0.01 0.01,0.02 0,0.01 0.01,0.01 0,0.01 0.01,0.02 0,0.01 0.01,0.02 0,0.01 0,0.02 0.01,0.01 0,0.02 0,0.02 0,0.02 0,0.01 0,0.02 c 0,0.42 -0.37,0.42 -0.57,0.42 l -0.59,0 0,3.07 c 0.35,-0.39 0.88,-0.8 1.68,-0.8 l -0.07,0.83 c -1.08,0 -1.61,1.22 -1.61,1.93 l 0,1.14 c 0,0.82 0.81,1.62 1.74,1.62 1.03,0 1.86,-1.05 1.86,-2.34 0,-1.38 -0.97,-2.35 -1.99,-2.35 l 0.07,-0.83 c 1.52,0 2.86,1.36 2.86,3.18 0,1.77 -1.21,3.17 -2.7,3.17 -1.05,0 -1.71,-0.63 -1.84,-0.77 0,0.47 0,0.69 -0.57,0.69 l -0.95,0 c -0.2,0 -0.57,0 -0.57,-0.42 0,-0.42 0.37,-0.42 0.57,-0.42 l 0.59,0 0,-7.7 -0.59,0 c -0.2,0 -0.57,0 -0.57,-0.42 0,-0.41 0.37,-0.41 0.57,-0.41 z"
         id="path6058" /><path
         style="fill:#000000;stroke-width:0"
         inkscape:connector-curvature="0"
         d="m 233.91,709.83 0,0.16 0.01,0.16 0.02,0.15 0.03,0.14 0.02,0.14 0.04,0.14 0.04,0.13 0.05,0.13 0.05,0.12 0.06,0.12 0.06,0.12 0.07,0.11 0.07,0.1 0.07,0.1 0.08,0.1 0.09,0.09 0.08,0.08 0.09,0.08 0.1,0.08 0.09,0.07 0.1,0.06 0.1,0.06 0.11,0.06 0.1,0.04 0.11,0.05 0.11,0.03 0.11,0.04 0.11,0.02 0.11,0.02 0.12,0.02 0.11,0.01 0.12,0 c 0.07,0 0.15,0 0.23,-0.02 0.04,-0.51 0.44,-0.55 0.54,-0.55 0.33,0 0.56,0.24 0.56,0.55 0,0.62 -0.6,0.85 -1.32,0.85 -0.96,0 -1.78,-0.43 -2.44,-1.23 l 0,0.56 c 0,0.44 -0.09,0.59 -0.57,0.59 l -1.45,0 c -0.2,0 -0.57,0 -0.57,-0.42 0,-0.42 0.37,-0.42 0.57,-0.42 l 1.09,0 0,-4.51 -1.09,0 c -0.2,0 -0.57,0 -0.57,-0.42 0,-0.42 0.37,-0.42 0.57,-0.42 l 3.53,0 c 0.2,0 0.57,0 0.57,0.42 0,0.42 -0.37,0.42 -0.57,0.42 l -1.51,0 z"
         id="path6060" /><path
         style="fill:#000000;stroke-width:0"
         inkscape:connector-curvature="0"
         d="m 244.74,710.22 0,0.17 -0.01,0.16 -0.02,0.16 -0.03,0.16 -0.03,0.16 -0.04,0.15 -0.04,0.15 -0.06,0.15 -0.05,0.14 -0.07,0.14 -0.07,0.14 -0.07,0.13 -0.08,0.12 -0.09,0.12 -0.09,0.12 -0.09,0.11 -0.1,0.11 -0.11,0.1 -0.11,0.09 -0.11,0.09 -0.11,0.08 -0.12,0.08 -0.13,0.07 -0.12,0.07 -0.13,0.05 -0.13,0.05 -0.14,0.04 -0.14,0.04 -0.13,0.03 -0.15,0.02 -0.14,0.01 -0.14,0 0,-0.83 c 1,0 1.92,-0.94 1.92,-2.28 0,-1.37 -0.89,-2.45 -1.92,-2.45 l 0,0 c -1.04,0 -1.93,1.09 -1.93,2.45 0,1.34 0.92,2.28 1.93,2.28 l 0,0.83 c -1.55,0 -2.86,-1.41 -2.86,-3.21 0,-1.81 1.32,-3.18 2.86,-3.18 1.53,0 2.85,1.37 2.85,3.18 z"
         id="path6062" /><path
         style="fill:#000000;stroke-width:0"
         inkscape:connector-curvature="0"
         d="m 251.58,715.3 0,0.04 0,0.04 -0.01,0.04 0,0.03 0,0.04 0,0.03 -0.01,0.03 0,0.03 -0.01,0.03 -0.01,0.02 -0.01,0.03 -0.01,0.02 -0.01,0.02 -0.01,0.02 -0.01,0.02 -0.02,0.02 -0.01,0.02 -0.02,0.01 -0.02,0.02 -0.02,0.01 -0.02,0.01 -0.03,0.01 -0.02,0.01 -0.03,0.01 -0.03,0.01 -0.03,0 -0.04,0.01 -0.03,0 -0.04,0 -0.04,0.01 -0.04,0 -0.02,0 -0.03,0 -0.94,0 c -0.21,0 -0.58,0 -0.58,-0.42 0,-0.41 0.37,-0.41 0.58,-0.41 l 0.58,0 0,-2.39 c -0.23,0.23 -0.81,0.72 -1.69,0.72 l 0.09,-0.83 c 0.93,0 1.6,-0.85 1.6,-1.59 l 0,-1.12 c 0,-0.81 -0.66,-1.98 -1.73,-1.98 -1.03,0 -1.87,1.05 -1.87,2.34 0,1.37 0.98,2.35 2,2.35 l -0.09,0.83 c -1.52,0 -2.84,-1.37 -2.84,-3.18 0,-1.77 1.24,-3.17 2.71,-3.17 0.94,0 1.55,0.56 1.82,0.87 0,-0.6 0,-0.79 0.58,-0.79 l 0.94,0 c 0.21,0 0.58,0 0.58,0.42 0,0.42 -0.37,0.42 -0.58,0.42 l -0.58,0 z"
         id="path6064" /><path
         style="fill:#000000;stroke-width:0"
         inkscape:connector-curvature="0"
         d="m 258.96,712.72 0,0.04 0,0.04 -0.01,0.04 0,0.03 0,0.03 0,0.04 -0.01,0.03 0,0.03 -0.01,0.02 -0.01,0.03 -0.01,0.03 -0.01,0.02 -0.01,0.02 -0.01,0.02 -0.01,0.02 -0.02,0.02 -0.01,0.02 -0.02,0.01 -0.02,0.01 -0.02,0.02 -0.02,0.01 -0.03,0.01 -0.02,0.01 -0.03,0.01 -0.03,0 -0.03,0.01 -0.04,0 -0.03,0.01 -0.04,0 -0.04,0 -0.04,0.01 -0.02,0 -0.03,0 -0.94,0 c -0.21,0 -0.58,0 -0.58,-0.42 0,-0.42 0.37,-0.42 0.58,-0.42 l 0.58,0 0,-3.11 c 0,-1.18 -0.97,-1.49 -1.62,-1.49 -1.13,0 -1.13,0.52 -1.13,0.96 l 0,3.89 c 0,0.44 -0.09,0.59 -0.57,0.59 l -0.95,0 c -0.2,0 -0.57,0 -0.57,-0.42 0,-0.42 0.37,-0.42 0.57,-0.42 l 0.59,0 0,-3.71 c 0,-1.32 0.86,-1.72 1.96,-1.72 0.88,0 1.42,0.36 1.71,0.6 0,-0.52 0.34,-0.52 0.59,-0.52 l 0.95,0 c 0.2,0 0.57,0 0.57,0.42 0,0.42 -0.37,0.42 -0.57,0.42 l -0.59,0 z"
         id="path6066" /><path
         style="fill:#000000;stroke-width:0"
         inkscape:connector-curvature="0"
         d="m 266.89,708.69 0,0.01 0,0.02 0,0.02 -0.01,0.01 0,0.02 0,0.01 0,0.02 -0.01,0.01 0,0.01 0,0.01 -0.01,0.02 0,0.01 -0.01,0.01 -0.01,0.01 0,0.01 -0.01,0.01 -0.01,0.01 0,0.01 -0.01,0.01 -0.01,0.01 -0.01,0.01 -0.02,0.02 -0.02,0.01 -0.02,0.01 -0.02,0.01 -0.01,0.01 -0.02,0.01 -0.02,0.01 -0.02,0 -0.02,0.01 -0.02,0 -0.02,0.01 -0.02,0 -0.02,0 -0.02,0.01 -0.02,0 -0.01,0 -0.02,0 -0.02,0 -0.01,0 -0.01,0 -0.01,0 c -0.33,0 -0.39,-0.11 -0.46,-0.32 -0.32,-0.78 -1.02,-0.87 -1.37,-0.87 -1.21,0 -2.25,1.02 -2.25,2.35 0,0.73 0.42,2.38 2.3,2.38 0.38,0 0.69,-0.03 0.81,-0.04 0.1,-0.03 0.12,-0.04 0.12,-0.11 0.04,-0.59 0.49,-0.61 0.57,-0.61 0.32,0 0.59,0.22 0.59,0.61 0,0.98 -1.45,0.98 -2.08,0.98 -2.45,0 -3.24,-2 -3.24,-3.21 0,-1.75 1.33,-3.18 3.05,-3.18 1.93,0 2.43,1.42 2.43,1.65 z"
         id="path6068" /><path
         style="fill:#000000;stroke-width:0"
         inkscape:connector-curvature="0"
         d="m 270.83,712.47 2.32,0 c 0.2,0 0.57,0 0.57,0.42 0,0.42 -0.37,0.42 -0.57,0.42 l -2.32,0 0,1.17 c 0,0.26 0,0.59 -0.46,0.59 -0.48,0 -0.48,-0.33 -0.48,-0.59 l 0,-1.17 -1.22,0 c -0.2,0 -0.58,0 -0.58,-0.42 0,-0.42 0.37,-0.42 0.57,-0.42 l 1.23,0 0,-3.61 c 0,-1.34 0.92,-1.82 1.96,-1.82 0.77,0 2.19,0.38 2.19,1.85 0,0.28 0,0.6 -0.47,0.6 -0.46,0 -0.46,-0.32 -0.46,-0.62 -0.02,-0.86 -0.84,-1 -1.16,-1 -1.12,0 -1.12,0.72 -1.12,1.06 z"
         id="path6070" /><path
         style="fill:#000000;stroke-width:0"
         inkscape:connector-curvature="0"
         d="m 281.65,710.22 0,0.17 -0.02,0.16 -0.01,0.16 -0.03,0.16 -0.03,0.16 -0.04,0.15 -0.05,0.15 -0.05,0.15 -0.06,0.14 -0.06,0.14 -0.07,0.14 -0.08,0.13 -0.08,0.12 -0.08,0.12 -0.09,0.12 -0.1,0.11 -0.1,0.11 -0.1,0.1 -0.11,0.09 -0.11,0.09 -0.12,0.08 -0.12,0.08 -0.12,0.07 -0.13,0.07 -0.13,0.05 -0.13,0.05 -0.13,0.04 -0.14,0.04 -0.14,0.03 -0.14,0.02 -0.14,0.01 -0.15,0 0,-0.83 c 1.01,0 1.93,-0.94 1.93,-2.28 0,-1.37 -0.89,-2.45 -1.93,-2.45 l 0,0 c -1.03,0 -1.92,1.09 -1.92,2.45 0,1.34 0.92,2.28 1.92,2.28 l 0,0.83 c -1.55,0 -2.85,-1.41 -2.85,-3.21 0,-1.81 1.32,-3.18 2.85,-3.18 1.54,0 2.86,1.37 2.86,3.18 z"
         id="path6072" /><line
         style="stroke-width:0.398"
         x1="283.38"
         y1="707.32001"
         x2="287.79999"
         y2="707.32001"
         id="line6074" /><path
         style="fill:#000000;stroke-width:0"
         inkscape:connector-curvature="0"
         d="m 292.14,715.26 0,0.03 -0.01,0.03 0,0.04 -0.01,0.03 0,0.03 -0.01,0.03 -0.01,0.03 -0.01,0.03 -0.02,0.03 -0.01,0.03 -0.02,0.02 -0.01,0.03 -0.02,0.02 -0.02,0.03 -0.02,0.02 -0.02,0.02 -0.02,0.03 -0.03,0.02 -0.02,0.01 -0.03,0.02 -0.02,0.02 -0.03,0.01 -0.03,0.02 -0.03,0.01 -0.02,0.01 -0.04,0.01 -0.03,0.01 -0.03,0.01 -0.03,0 -0.03,0.01 -0.03,0 -0.04,0 c -0.36,0 -0.64,-0.29 -0.64,-0.64 0,-0.36 0.28,-0.65 0.64,-0.65 0.36,0 0.65,0.29 0.65,0.65 z"
         id="path6076" /><path
         style="fill:#000000;stroke-width:0"
         inkscape:connector-curvature="0"
         d="m 289.67,713.31 -0.02,0 -0.02,0 -0.02,0 -0.02,0 -0.02,-0.01 -0.03,0 -0.02,0 -0.02,0 -0.03,0 -0.02,-0.01 -0.03,0 -0.02,-0.01 -0.02,0 -0.03,-0.01 -0.02,-0.01 -0.02,-0.01 -0.02,-0.01 -0.03,-0.01 -0.02,-0.01 -0.02,-0.02 -0.01,-0.01 -0.02,-0.02 -0.01,-0.01 -0.01,-0.01 -0.01,-0.01 0,-0.01 -0.01,-0.01 -0.01,-0.01 0,-0.01 -0.01,-0.02 0,-0.01 -0.01,-0.01 0,-0.02 -0.01,-0.01 0,-0.02 0,-0.01 -0.01,-0.02 0,-0.02 0,-0.01 0,-0.02 0,-0.02 0,-0.02 c 0,-0.42 0.37,-0.42 0.57,-0.42 l 1.53,0 0,-4.51 -1.63,0 c -0.2,0 -0.59,0 -0.59,-0.42 0,-0.42 0.39,-0.42 0.59,-0.42 l 3.99,0 c 0.2,0 0.57,0 0.57,0.42 0,0.42 -0.37,0.42 -0.57,0.42 l -1.42,0 0,4.76 c 0,0.44 -0.09,0.59 -0.58,0.59 z"
         id="path6078" /><path
         style="fill:#000000;stroke-width:0"
         inkscape:connector-curvature="0"
         d="m 301.18,711.33 0,0.13 -0.01,0.12 -0.01,0.12 -0.01,0.12 -0.02,0.11 -0.02,0.11 -0.02,0.1 -0.03,0.1 -0.03,0.1 -0.04,0.09 -0.04,0.08 -0.04,0.09 -0.05,0.08 -0.05,0.07 -0.05,0.07 -0.06,0.07 -0.06,0.06 -0.06,0.06 -0.07,0.05 -0.07,0.05 -0.07,0.04 -0.08,0.05 -0.08,0.03 -0.08,0.04 -0.09,0.03 -0.09,0.02 -0.09,0.02 -0.1,0.02 -0.1,0.01 -0.1,0.01 -0.11,0.01 -0.1,0 c -0.98,0 -1.61,-0.54 -1.86,-0.82 0,0.53 0,0.74 -0.57,0.74 l -0.95,0 c -0.2,0 -0.57,0 -0.57,-0.42 0,-0.42 0.37,-0.42 0.57,-0.42 l 0.59,0 0,-4.51 -0.59,0 c -0.2,0 -0.57,0 -0.57,-0.42 0,-0.42 0.37,-0.42 0.57,-0.42 l 2.11,0 c 0.2,0 0.58,0 0.58,0.42 0,0.42 -0.38,0.42 -0.58,0.42 l -0.59,0 0,2.59 c 0,1.39 0.98,2.01 1.75,2.01 0.84,0 1.01,-0.47 1.01,-1.29 l 0,-3.31 -0.59,0 c -0.2,0 -0.57,0 -0.57,-0.42 0,-0.42 0.37,-0.42 0.57,-0.42 l 2.11,0 c 0.2,0 0.57,0 0.57,0.42 0,0.42 -0.37,0.42 -0.57,0.42 l -0.59,0 z"
         id="path6080" /><line
         style="stroke-width:0.398"
         x1="303.45999"
         y1="707.32001"
         x2="307.89001"
         y2="707.32001"
         id="line6082" /><path
         style="fill:#000000;stroke-width:0"
         inkscape:connector-curvature="0"
         d="m 308.83,715.89 -0.02,0 -0.02,0 -0.02,0 -0.02,0 -0.03,0 -0.02,0 -0.02,-0.01 -0.02,0 -0.03,0 -0.02,0 -0.03,-0.01 -0.02,0 -0.02,-0.01 -0.03,-0.01 -0.02,0 -0.02,-0.01 -0.02,-0.01 -0.03,-0.02 -0.02,-0.01 -0.02,-0.01 -0.01,-0.02 -0.02,-0.02 -0.01,-0.01 -0.01,-0.01 -0.01,-0.01 0,-0.01 -0.01,-0.01 -0.01,-0.01 0,-0.01 -0.01,-0.02 0,-0.01 -0.01,-0.01 0,-0.02 -0.01,-0.01 0,-0.02 0,-0.01 -0.01,-0.02 0,-0.01 0,-0.02 0,-0.02 0,-0.02 0,-0.02 c 0,-0.41 0.38,-0.41 0.58,-0.41 l 0.35,0 0,-7.1 -0.35,0 c -0.2,0 -0.58,0 -0.58,-0.42 0,-0.42 0.38,-0.42 0.57,-0.42 l 3.4,0 c 1.59,0 2.44,1.27 2.44,2.4 0,1.02 -0.71,1.95 -1.84,2.19 0.72,0.23 1.54,0.92 1.54,1.95 0,1.05 -0.85,2.23 -2.43,2.23 l -0.04,-0.83 c 1.19,0 1.53,-0.89 1.53,-1.41 0,-0.67 -0.55,-1.55 -1.76,-1.55 l -1.55,0 0,-0.83 1.88,0 c 1.45,0 1.74,-1.24 1.74,-1.72 0,-0.71 -0.55,-1.59 -1.83,-1.59 l -1.79,0 0,3.31 0,0.83 0,2.96 1.78,0 0.04,0.83 z"
         id="path6084" /></g>    <path
       style="fill:none;fill-rule:evenodd;stroke:#000000;stroke-width:1px;stroke-linecap:butt;stroke-linejoin:miter;stroke-opacity:1;marker-start:url(#marker8269)"
       d="m 397.45997,351.20621 43.34937,0"
       id="path30263-7"
       inkscape:connector-curvature="0"
       sodipodi:nodetypes="cc" />
    <g
       style="font-style:normal;font-variant:normal;font-weight:normal;font-stretch:normal;letter-spacing:normal;word-spacing:normal;text-anchor:start;fill:none;fill-opacity:1;fill-rule:evenodd;stroke:#000000;stroke-linecap:butt;stroke-linejoin:miter;stroke-miterlimit:10.43299961;stroke-dasharray:none;stroke-dashoffset:0;stroke-opacity:1"
       ns0:preamble="/home/piter/.config/inkscape/extensions/preambulo.ini"
       ns0:text="\\Large{\\texttt{encargo}}"
       word-spacing="normal"
       letter-spacing="normal"
       font-size-adjust="none"
       font-stretch="normal"
       font-weight="normal"
       font-variant="normal"
       font-style="normal"
       stroke-miterlimit="10.433"
       xml:space="preserve"
       transform="matrix(1,0,0,-1,176.92971,1029.1391)"
       id="g6876"><path
         id="path6878"
         d="m 229.4,709.88 0.06,0 0.05,0 0.03,0 0.03,0 0.02,0 0.03,0.01 0.02,0 0.03,0 0.02,0.01 0.02,0.01 0.03,0 0.02,0.01 0.02,0.01 0.02,0.01 0.02,0.02 0.02,0.01 0.02,0.02 0.01,0.02 0.02,0.02 0,0.01 0.01,0.01 0.01,0.01 0,0.01 0.01,0.02 0.01,0.01 0,0.02 0.01,0.01 0,0.02 0.01,0.01 0,0.02 0.01,0.02 0,0.01 0,0.02 0,0.02 0.01,0.02 0,0.02 0,0.02 0,0.03 0,0.02 0,0.02 0,0.03 c 0,1.68 -0.94,3.02 -2.74,3.02 -1.66,0 -2.99,-1.43 -2.99,-3.18 0,-1.81 1.44,-3.21 3.21,-3.21 1.85,0 2.52,1.27 2.52,1.65 0,0.08 -0.02,0.4 -0.47,0.4 -0.27,0 -0.36,-0.1 -0.44,-0.32 -0.36,-0.83 -1.3,-0.9 -1.57,-0.9 -1.19,0 -2.14,0.9 -2.29,2.01 l 0.01,0.79 c 0.19,1.22 1.12,1.93 2.02,1.93 1.44,0 1.74,-1.22 1.8,-1.93 l -3.82,0 -0.01,-0.79 z"
         inkscape:connector-curvature="0"
         style="fill:#000000;stroke-width:0" /><path
         id="path6880"
         d="m 236.81,711.33 0,0.13 -0.01,0.12 -0.01,0.12 -0.01,0.12 -0.02,0.11 -0.02,0.11 -0.02,0.1 -0.03,0.1 -0.03,0.1 -0.04,0.09 -0.04,0.08 -0.04,0.09 -0.05,0.08 -0.05,0.07 -0.05,0.07 -0.06,0.07 -0.06,0.06 -0.06,0.06 -0.07,0.05 -0.07,0.05 -0.07,0.04 -0.08,0.05 -0.08,0.03 -0.08,0.04 -0.09,0.03 -0.09,0.02 -0.09,0.02 -0.1,0.02 -0.1,0.01 -0.1,0.01 -0.11,0.01 -0.11,0 c -0.97,0 -1.6,-0.54 -1.85,-0.82 0,0.53 0,0.74 -0.57,0.74 l -0.95,0 c -0.2,0 -0.57,0 -0.57,-0.42 0,-0.42 0.37,-0.42 0.57,-0.42 l 0.59,0 0,-4.51 -0.59,0 c -0.2,0 -0.57,0 -0.57,-0.42 0,-0.42 0.37,-0.42 0.57,-0.42 l 2.11,0 c 0.2,0 0.57,0 0.57,0.42 0,0.42 -0.37,0.42 -0.57,0.42 l -0.59,0 0,2.59 c 0,1.39 0.98,2.01 1.75,2.01 0.84,0 1.01,-0.47 1.01,-1.29 l 0,-3.31 -0.59,0 c -0.2,0 -0.58,0 -0.58,-0.42 0,-0.42 0.38,-0.42 0.58,-0.42 l 2.11,0 c 0.2,0 0.57,0 0.57,0.42 0,0.42 -0.37,0.42 -0.57,0.42 l -0.59,0 z"
         inkscape:connector-curvature="0"
         style="fill:#000000;stroke-width:0" /><path
         id="path6882"
         d="m 244.74,708.69 0,0.01 0,0.02 0,0.02 0,0.01 0,0.02 -0.01,0.01 0,0.02 0,0.01 -0.01,0.01 0,0.01 -0.01,0.02 0,0.01 -0.01,0.01 0,0.01 -0.01,0.01 -0.01,0.01 0,0.01 -0.01,0.01 -0.01,0.01 0,0.01 -0.02,0.01 -0.02,0.02 -0.02,0.01 -0.01,0.01 -0.02,0.01 -0.02,0.01 -0.02,0.01 -0.02,0.01 -0.02,0 -0.02,0.01 -0.02,0 -0.02,0.01 -0.02,0 -0.02,0 -0.02,0.01 -0.02,0 -0.01,0 -0.02,0 -0.01,0 -0.02,0 -0.01,0 -0.01,0 c -0.33,0 -0.39,-0.11 -0.46,-0.32 -0.32,-0.78 -1.02,-0.87 -1.36,-0.87 -1.22,0 -2.26,1.02 -2.26,2.35 0,0.73 0.42,2.38 2.3,2.38 0.39,0 0.69,-0.03 0.82,-0.04 0.1,-0.03 0.11,-0.04 0.11,-0.11 0.04,-0.59 0.49,-0.61 0.58,-0.61 0.31,0 0.58,0.22 0.58,0.61 0,0.98 -1.45,0.98 -2.08,0.98 -2.45,0 -3.24,-2 -3.24,-3.21 0,-1.75 1.34,-3.18 3.06,-3.18 1.92,0 2.42,1.42 2.42,1.65 z"
         inkscape:connector-curvature="0"
         style="fill:#000000;stroke-width:0" /><path
         id="path6884"
         d="m 251.52,711.2 0,0.1 -0.01,0.1 -0.01,0.1 -0.02,0.11 -0.02,0.1 -0.03,0.1 -0.03,0.1 -0.04,0.1 -0.04,0.09 -0.05,0.1 -0.05,0.09 -0.06,0.09 -0.07,0.09 -0.07,0.09 -0.07,0.08 -0.08,0.08 -0.09,0.08 -0.09,0.08 -0.1,0.07 -0.1,0.06 -0.11,0.07 -0.12,0.06 -0.12,0.05 -0.13,0.05 -0.13,0.04 -0.14,0.04 -0.15,0.04 -0.15,0.02 -0.16,0.03 -0.16,0.01 -0.18,0.01 -0.18,0 c -0.6,0 -1.99,0 -1.99,-0.98 0,-0.39 0.27,-0.61 0.59,-0.61 0.09,0 0.56,0.03 0.57,0.63 0,0.07 0.02,0.09 0.32,0.12 0.17,0.01 0.36,0.01 0.53,0.01 0.33,0 0.82,0 1.29,-0.36 0.52,-0.4 0.52,-0.8 0.52,-1.21 l 0,-0.78 0,-1.23 c 0,-0.33 0,-0.63 -0.59,-0.91 -0.5,-0.24 -1.18,-0.24 -1.22,-0.24 -0.85,0 -1.46,0.46 -1.46,1.05 0,0.84 1.53,1.33 3.27,1.33 l 0,0.78 c -0.85,-0.03 -1.68,-0.09 -2.57,-0.38 -0.72,-0.24 -1.64,-0.76 -1.64,-1.73 0,-1.02 0.91,-1.88 2.24,-1.88 0.46,0 1.35,0.07 2.1,0.58 0.28,-0.47 1,-0.5 1.54,-0.5 0.35,0 0.69,0 0.69,0.42 0,0.42 -0.37,0.42 -0.57,0.42 -0.37,0 -0.66,0.02 -0.86,0.11 z"
         inkscape:connector-curvature="0"
         style="fill:#000000;stroke-width:0" /><path
         id="path6886"
         d="m 256.06,709.83 0,0.16 0.01,0.16 0.02,0.15 0.02,0.14 0.03,0.14 0.04,0.14 0.04,0.13 0.05,0.13 0.05,0.12 0.06,0.12 0.06,0.12 0.06,0.11 0.08,0.1 0.07,0.1 0.08,0.1 0.08,0.09 0.09,0.08 0.09,0.08 0.09,0.08 0.1,0.07 0.1,0.06 0.1,0.06 0.1,0.06 0.11,0.04 0.11,0.05 0.11,0.03 0.11,0.04 0.11,0.02 0.11,0.02 0.11,0.02 0.12,0.01 0.11,0 c 0.07,0 0.16,0 0.23,-0.02 0.05,-0.51 0.45,-0.55 0.55,-0.55 0.33,0 0.56,0.24 0.56,0.55 0,0.62 -0.61,0.85 -1.32,0.85 -0.96,0 -1.78,-0.43 -2.44,-1.23 l 0,0.56 c 0,0.44 -0.09,0.59 -0.57,0.59 l -1.45,0 c -0.2,0 -0.58,0 -0.58,-0.42 0,-0.42 0.38,-0.42 0.58,-0.42 l 1.09,0 0,-4.51 -1.09,0 c -0.2,0 -0.58,0 -0.58,-0.42 0,-0.42 0.38,-0.42 0.58,-0.42 l 3.53,0 c 0.2,0 0.57,0 0.57,0.42 0,0.42 -0.37,0.42 -0.57,0.42 l -1.51,0 z"
         inkscape:connector-curvature="0"
         style="fill:#000000;stroke-width:0" /><path
         id="path6888"
         d="m 263.07,708 -0.01,0 -0.02,0 -0.03,0 -0.02,0 -0.03,0 -0.03,0 -0.03,0.01 -0.03,0 -0.03,0.01 -0.04,0 -0.03,0.01 -0.04,0.01 -0.03,0.01 -0.04,0.01 -0.03,0.02 -0.04,0.01 -0.03,0.02 -0.04,0.03 -0.03,0.02 -0.03,0.03 -0.03,0.03 -0.02,0.01 -0.01,0.02 -0.01,0.02 -0.02,0.02 -0.01,0.01 -0.01,0.02 -0.02,0.03 -0.01,0.02 -0.01,0.02 -0.01,0.02 -0.01,0.03 -0.01,0.02 0,0.03 -0.01,0.03 -0.01,0.02 0,0.03 -0.01,0.03 0,0.04 0,0.03 -0.01,0.03 0,0.04 0,0.03 c 0,0.27 0.04,0.33 0.1,0.45 0.29,-0.2 0.76,-0.39 1.28,-0.39 l 0,0.8 c -0.72,0 -1.36,0.63 -1.36,1.48 0,0.85 0.66,1.48 1.36,1.48 0.76,0 1.38,-0.66 1.38,-1.48 0,-0.82 -0.62,-1.48 -1.38,-1.48 l 0,0 0,-0.8 c 1.3,0 2.31,1.05 2.31,2.28 0,0.36 -0.09,0.8 -0.39,1.28 0.37,0.2 0.72,0.24 0.93,0.26 0.09,-0.45 0.51,-0.46 0.52,-0.46 0.17,0 0.53,0.11 0.53,0.54 0,0.27 -0.22,0.75 -1.02,0.75 -0.26,0 -0.9,-0.06 -1.5,-0.53 -0.48,0.33 -0.97,0.44 -1.37,0.44 -1.3,0 -2.31,-1.05 -2.31,-2.28 0,-0.32 0.07,-0.86 0.48,-1.38 -0.28,-0.4 -0.32,-0.83 -0.32,-1 0,-0.5 0.25,-0.9 0.36,-1.03 l 0.34,-0.72 c 0.33,0.21 0.48,0.21 1.47,0.21 1.26,0 2.84,0 2.84,-1.26 0,-0.66 -1.05,-1.29 -2.46,-1.29 l 0,0 c -1.4,0 -2.45,0.63 -2.45,1.29 0,0.22 0.07,0.72 0.6,1.05 l -0.34,0.72 c -0.79,-0.43 -1.08,-1.21 -1.08,-1.77 0,-1.19 1.45,-2.09 3.27,-2.09 1.83,0 3.27,0.89 3.27,2.09 0,2.07 -2.53,2.07 -3.01,2.07 z"
         inkscape:connector-curvature="0"
         style="fill:#000000;stroke-width:0" /><path
         id="path6890"
         d="m 274.27,710.22 0,0.17 -0.02,0.16 -0.01,0.16 -0.03,0.16 -0.03,0.16 -0.04,0.15 -0.05,0.15 -0.05,0.15 -0.06,0.14 -0.06,0.14 -0.07,0.14 -0.08,0.13 -0.08,0.12 -0.08,0.12 -0.09,0.12 -0.1,0.11 -0.1,0.11 -0.1,0.1 -0.11,0.09 -0.11,0.09 -0.12,0.08 -0.12,0.08 -0.12,0.07 -0.13,0.07 -0.13,0.05 -0.13,0.05 -0.13,0.04 -0.14,0.04 -0.14,0.03 -0.14,0.02 -0.14,0.01 -0.15,0 0,-0.83 c 1.01,0 1.93,-0.94 1.93,-2.28 0,-1.37 -0.89,-2.45 -1.93,-2.45 l 0,0 c -1.03,0 -1.92,1.09 -1.92,2.45 0,1.34 0.92,2.28 1.92,2.28 l 0,0.83 c -1.55,0 -2.85,-1.41 -2.85,-3.21 0,-1.81 1.32,-3.18 2.85,-3.18 1.54,0 2.86,1.37 2.86,3.18 z"
         inkscape:connector-curvature="0"
         style="fill:#000000;stroke-width:0" /></g>    <g
       id="g7199"
       transform="matrix(1,0,0,-1,177.14971,1052.6677)"
       xml:space="preserve"
       stroke-miterlimit="10.433"
       font-style="normal"
       font-variant="normal"
       font-weight="normal"
       font-stretch="normal"
       font-size-adjust="none"
       letter-spacing="normal"
       word-spacing="normal"
       ns0:text="\\Large{\\texttt{query\\_in}}"
       ns0:preamble="/home/piter/.config/inkscape/extensions/preambulo.ini"
       style="font-style:normal;font-variant:normal;font-weight:normal;font-stretch:normal;letter-spacing:normal;word-spacing:normal;text-anchor:start;fill:none;fill-opacity:1;fill-rule:evenodd;stroke:#000000;stroke-linecap:butt;stroke-linejoin:miter;stroke-miterlimit:10.43299961;stroke-dasharray:none;stroke-dashoffset:0;stroke-opacity:1"><path
         d="m 229.72,712.8 0,0.05 0,0.05 -0.01,0.05 0,0.03 0,0.02 0,0.03 -0.01,0.02 0,0.03 -0.01,0.02 0,0.03 -0.01,0.02 -0.01,0.02 -0.01,0.02 -0.01,0.03 -0.02,0.02 -0.01,0.02 -0.02,0.01 -0.01,0.02 -0.02,0.02 -0.01,0.01 -0.01,0 -0.02,0.01 -0.01,0.01 -0.01,0 -0.01,0.01 -0.02,0 -0.01,0.01 -0.01,0 -0.02,0.01 -0.02,0 -0.01,0.01 -0.02,0 -0.02,0 -0.01,0.01 -0.02,0 -0.02,0 -0.02,0 -0.02,0 -0.02,0 c -0.48,0 -0.48,-0.31 -0.48,-0.59 l 0,-0.27 c -0.27,0.29 -0.8,0.86 -1.79,0.86 l 0.09,-0.83 c 1.09,0 1.7,-1.16 1.7,-2.05 l 0,-0.65 c 0,-0.8 -0.7,-1.99 -1.85,-1.99 -1.09,0 -1.98,1.05 -1.98,2.34 0,1.34 1.01,2.35 2.13,2.35 l -0.09,0.83 c -1.56,0 -2.97,-1.35 -2.97,-3.18 0,-1.75 1.26,-3.17 2.83,-3.17 1.04,0 1.63,0.61 1.93,0.93 l 0,-3.2 -0.64,0 c -0.2,0 -0.59,0 -0.59,-0.42 0,-0.41 0.39,-0.41 0.59,-0.41 l 2.22,0 c 0.2,0 0.59,0 0.59,0.41 0,0.42 -0.39,0.42 -0.59,0.42 l -0.64,0 z"
         id="path7201"
         inkscape:connector-curvature="0"
         style="fill:#000000;stroke-width:0" /><path
         d="m 236.81,712.72 0,0.04 0,0.04 0,0.04 -0.01,0.03 0,0.03 0,0.04 -0.01,0.03 0,0.03 -0.01,0.02 -0.01,0.03 0,0.03 -0.01,0.02 -0.01,0.02 -0.02,0.02 -0.01,0.02 -0.01,0.02 -0.02,0.02 -0.02,0.01 -0.02,0.01 -0.02,0.02 -0.02,0.01 -0.03,0.01 -0.02,0.01 -0.03,0.01 -0.03,0 -0.03,0.01 -0.03,0 -0.04,0.01 -0.04,0 -0.04,0 -0.04,0.01 -0.02,0 -0.02,0 -0.95,0 c -0.2,0 -0.58,0 -0.58,-0.42 0,-0.42 0.38,-0.42 0.58,-0.42 l 0.59,0 0,-3.11 c 0,-1.18 -0.98,-1.49 -1.62,-1.49 -1.14,0 -1.14,0.52 -1.14,0.96 l 0,3.89 c 0,0.44 -0.08,0.59 -0.57,0.59 l -0.95,0 c -0.2,0 -0.57,0 -0.57,-0.42 0,-0.42 0.37,-0.42 0.57,-0.42 l 0.59,0 0,-3.71 c 0,-1.32 0.86,-1.72 1.96,-1.72 0.88,0 1.42,0.36 1.71,0.6 0,-0.52 0.35,-0.52 0.59,-0.52 l 0.95,0 c 0.2,0 0.57,0 0.57,0.42 0,0.42 -0.37,0.42 -0.57,0.42 l -0.59,0 z"
         id="path7203"
         inkscape:connector-curvature="0"
         style="fill:#000000;stroke-width:0" /><path
         d="m 244.17,709.88 0.05,0 0.06,0 0.03,0 0.02,0 0.03,0 0.02,0.01 0.03,0 0.02,0 0.03,0.01 0.02,0.01 0.02,0 0.03,0.01 0.02,0.01 0.02,0.01 0.02,0.02 0.02,0.01 0.01,0.02 0.02,0.02 0.02,0.02 0,0.01 0.01,0.01 0.01,0.01 0,0.01 0.01,0.02 0,0.01 0.01,0.02 0.01,0.01 0,0.02 0,0.01 0.01,0.02 0,0.02 0.01,0.01 0,0.02 0,0.02 0.01,0.02 0,0.02 0,0.02 0,0.03 0,0.02 0,0.02 0,0.03 c 0,1.68 -0.95,3.02 -2.74,3.02 -1.66,0 -3,-1.43 -3,-3.18 0,-1.81 1.45,-3.21 3.22,-3.21 1.85,0 2.52,1.27 2.52,1.65 0,0.08 -0.03,0.4 -0.47,0.4 -0.27,0 -0.36,-0.1 -0.45,-0.32 -0.36,-0.83 -1.29,-0.9 -1.56,-0.9 -1.19,0 -2.14,0.9 -2.3,2.01 l 0.02,0.79 c 0.18,1.22 1.12,1.93 2.02,1.93 1.44,0 1.74,-1.22 1.79,-1.93 l -3.81,0 -0.02,-0.79 z"
         id="path7205"
         inkscape:connector-curvature="0"
         style="fill:#000000;stroke-width:0" /><path
         d="m 248.68,709.83 0,0.16 0.01,0.16 0.02,0.15 0.02,0.14 0.03,0.14 0.04,0.14 0.04,0.13 0.05,0.13 0.05,0.12 0.06,0.12 0.06,0.12 0.06,0.11 0.08,0.1 0.07,0.1 0.08,0.1 0.08,0.09 0.09,0.08 0.09,0.08 0.09,0.08 0.1,0.07 0.1,0.06 0.1,0.06 0.1,0.06 0.11,0.04 0.11,0.05 0.11,0.03 0.11,0.04 0.11,0.02 0.11,0.02 0.11,0.02 0.12,0.01 0.11,0 c 0.08,0 0.16,0 0.23,-0.02 0.05,-0.51 0.45,-0.55 0.55,-0.55 0.33,0 0.56,0.24 0.56,0.55 0,0.62 -0.6,0.85 -1.32,0.85 -0.96,0 -1.78,-0.43 -2.44,-1.23 l 0,0.56 c 0,0.44 -0.09,0.59 -0.58,0.59 l -1.44,0 c -0.2,0 -0.58,0 -0.58,-0.42 0,-0.42 0.38,-0.42 0.58,-0.42 l 1.09,0 0,-4.51 -1.09,0 c -0.2,0 -0.58,0 -0.58,-0.42 0,-0.42 0.38,-0.42 0.58,-0.42 l 3.52,0 c 0.21,0 0.58,0 0.58,0.42 0,0.42 -0.37,0.42 -0.58,0.42 l -1.5,0 z"
         id="path7207"
         inkscape:connector-curvature="0"
         style="fill:#000000;stroke-width:0" /><path
         d="m 259.04,712.47 0.38,0 c 0.2,0 0.58,0 0.58,0.42 0,0.42 -0.38,0.42 -0.58,0.42 l -1.58,0 c -0.2,0 -0.59,0 -0.59,-0.42 0,-0.42 0.39,-0.42 0.59,-0.42 l 0.36,0 c -0.4,-1.17 -1.22,-3.57 -1.42,-4.39 l -0.02,0 c -0.07,0.32 -0.13,0.48 -0.27,0.87 l -1.34,3.52 0.34,0 c 0.2,0 0.58,0 0.58,0.42 0,0.42 -0.38,0.42 -0.58,0.42 l -1.58,0 c -0.2,0 -0.59,0 -0.59,-0.42 0,-0.42 0.39,-0.42 0.59,-0.42 l 0.38,0 2.01,-5.16 c 0.06,-0.14 0.06,-0.17 0.06,-0.19 0,-0.03 -0.37,-1.27 -0.59,-1.68 -0.08,-0.14 -0.44,-0.81 -1.13,-0.74 0.01,0.04 0.06,0.13 0.06,0.28 0,0.34 -0.23,0.56 -0.56,0.56 -0.36,0 -0.58,-0.24 -0.58,-0.57 0,-0.55 0.46,-1.12 1.18,-1.12 1.39,0 2.01,1.85 2.05,1.97 z"
         id="path7209"
         inkscape:connector-curvature="0"
         style="fill:#000000;stroke-width:0" /><line
         x1="261.23001"
         y1="707.32001"
         x2="265.66"
         y2="707.32001"
         id="line7211"
         style="stroke-width:0.398" /><path
         d="m 269.99,715.26 0,0.03 0,0.03 -0.01,0.04 0,0.03 -0.01,0.03 -0.01,0.03 -0.01,0.03 -0.01,0.03 -0.01,0.03 -0.02,0.03 -0.01,0.02 -0.02,0.03 -0.02,0.02 -0.02,0.03 -0.02,0.02 -0.02,0.02 -0.02,0.03 -0.02,0.02 -0.03,0.01 -0.02,0.02 -0.03,0.02 -0.03,0.01 -0.02,0.02 -0.03,0.01 -0.03,0.01 -0.03,0.01 -0.03,0.01 -0.04,0.01 -0.03,0 -0.03,0.01 -0.03,0 -0.04,0 c -0.35,0 -0.64,-0.29 -0.64,-0.64 0,-0.36 0.29,-0.65 0.64,-0.65 0.36,0 0.65,0.29 0.65,0.65 z"
         id="path7213"
         inkscape:connector-curvature="0"
         style="fill:#000000;stroke-width:0" /><path
         d="m 267.52,713.31 -0.02,0 -0.02,0 -0.02,0 -0.02,0 -0.02,-0.01 -0.02,0 -0.03,0 -0.02,0 -0.03,0 -0.02,-0.01 -0.02,0 -0.03,-0.01 -0.02,0 -0.02,-0.01 -0.03,-0.01 -0.02,-0.01 -0.02,-0.01 -0.02,-0.01 -0.02,-0.01 -0.02,-0.02 -0.02,-0.01 -0.02,-0.02 -0.01,-0.01 0,-0.01 -0.01,-0.01 -0.01,-0.01 -0.01,-0.01 0,-0.01 -0.01,-0.01 -0.01,-0.02 0,-0.01 -0.01,-0.01 0,-0.02 0,-0.01 -0.01,-0.02 0,-0.01 0,-0.02 -0.01,-0.02 0,-0.01 0,-0.02 0,-0.02 0,-0.02 c 0,-0.42 0.37,-0.42 0.57,-0.42 l 1.54,0 0,-4.51 -1.64,0 c -0.2,0 -0.59,0 -0.59,-0.42 0,-0.42 0.39,-0.42 0.59,-0.42 l 3.99,0 c 0.2,0 0.57,0 0.57,0.42 0,0.42 -0.37,0.42 -0.57,0.42 l -1.42,0 0,4.76 c 0,0.44 -0.09,0.59 -0.57,0.59 z"
         id="path7215"
         inkscape:connector-curvature="0"
         style="fill:#000000;stroke-width:0" /><path
         d="m 279.04,711.33 0,0.13 -0.01,0.12 -0.01,0.12 -0.01,0.12 -0.02,0.11 -0.02,0.11 -0.02,0.1 -0.03,0.1 -0.03,0.1 -0.04,0.09 -0.04,0.08 -0.04,0.09 -0.05,0.08 -0.05,0.07 -0.05,0.07 -0.06,0.07 -0.06,0.06 -0.06,0.06 -0.07,0.05 -0.07,0.05 -0.07,0.04 -0.08,0.05 -0.08,0.03 -0.08,0.04 -0.09,0.03 -0.09,0.02 -0.09,0.02 -0.1,0.02 -0.1,0.01 -0.1,0.01 -0.11,0.01 -0.11,0 c -0.97,0 -1.6,-0.54 -1.84,-0.82 0,0.53 0,0.74 -0.58,0.74 l -0.95,0 c -0.2,0 -0.57,0 -0.57,-0.42 0,-0.42 0.37,-0.42 0.57,-0.42 l 0.59,0 0,-4.51 -0.59,0 c -0.2,0 -0.57,0 -0.57,-0.42 0,-0.42 0.37,-0.42 0.57,-0.42 l 2.11,0 c 0.2,0 0.58,0 0.58,0.42 0,0.42 -0.38,0.42 -0.58,0.42 l -0.58,0 0,2.59 c 0,1.39 0.97,2.01 1.75,2.01 0.83,0 1,-0.47 1,-1.29 l 0,-3.31 -0.59,0 c -0.2,0 -0.57,0 -0.57,-0.42 0,-0.42 0.37,-0.42 0.57,-0.42 l 2.11,0 c 0.2,0 0.57,0 0.57,0.42 0,0.42 -0.37,0.42 -0.57,0.42 l -0.59,0 z"
         id="path7217"
         inkscape:connector-curvature="0"
         style="fill:#000000;stroke-width:0" /></g>    <g
       style="font-style:normal;font-variant:normal;font-weight:normal;font-stretch:normal;letter-spacing:normal;word-spacing:normal;text-anchor:start;fill:none;fill-opacity:1;fill-rule:evenodd;stroke:#000000;stroke-linecap:butt;stroke-linejoin:miter;stroke-miterlimit:10.43299961;stroke-dasharray:none;stroke-dashoffset:0;stroke-opacity:1"
       ns0:preamble="/home/piter/.config/inkscape/extensions/preambulo.ini"
       ns0:text="\\Large{\\texttt{query\\_out}}"
       word-spacing="normal"
       letter-spacing="normal"
       font-size-adjust="none"
       font-stretch="normal"
       font-weight="normal"
       font-variant="normal"
       font-style="normal"
       stroke-miterlimit="10.433"
       xml:space="preserve"
       transform="matrix(1,0,0,-1,177.14971,1076.6579)"
       id="g7522"><path
         id="path7524"
         d="m 229.72,712.8 0,0.05 0,0.05 -0.01,0.05 0,0.03 0,0.02 0,0.03 -0.01,0.02 0,0.03 -0.01,0.02 0,0.03 -0.01,0.02 -0.01,0.02 -0.01,0.02 -0.01,0.03 -0.02,0.02 -0.01,0.02 -0.02,0.01 -0.01,0.02 -0.02,0.02 -0.01,0.01 -0.01,0 -0.02,0.01 -0.01,0.01 -0.01,0 -0.01,0.01 -0.02,0 -0.01,0.01 -0.01,0 -0.02,0.01 -0.02,0 -0.01,0.01 -0.02,0 -0.02,0 -0.01,0.01 -0.02,0 -0.02,0 -0.02,0 -0.02,0 -0.02,0 c -0.48,0 -0.48,-0.31 -0.48,-0.59 l 0,-0.27 c -0.27,0.29 -0.8,0.86 -1.79,0.86 l 0.09,-0.83 c 1.09,0 1.7,-1.16 1.7,-2.05 l 0,-0.65 c 0,-0.8 -0.7,-1.99 -1.85,-1.99 -1.09,0 -1.98,1.05 -1.98,2.34 0,1.34 1.01,2.35 2.13,2.35 l -0.09,0.83 c -1.56,0 -2.97,-1.35 -2.97,-3.18 0,-1.75 1.26,-3.17 2.83,-3.17 1.04,0 1.63,0.61 1.93,0.93 l 0,-3.2 -0.64,0 c -0.2,0 -0.59,0 -0.59,-0.42 0,-0.41 0.39,-0.41 0.59,-0.41 l 2.22,0 c 0.2,0 0.59,0 0.59,0.41 0,0.42 -0.39,0.42 -0.59,0.42 l -0.64,0 z"
         inkscape:connector-curvature="0"
         style="fill:#000000;stroke-width:0" /><path
         id="path7526"
         d="m 236.81,712.72 0,0.04 0,0.04 0,0.04 -0.01,0.03 0,0.03 0,0.04 -0.01,0.03 0,0.03 -0.01,0.02 -0.01,0.03 0,0.03 -0.01,0.02 -0.01,0.02 -0.02,0.02 -0.01,0.02 -0.01,0.02 -0.02,0.02 -0.02,0.01 -0.02,0.01 -0.02,0.02 -0.02,0.01 -0.03,0.01 -0.02,0.01 -0.03,0.01 -0.03,0 -0.03,0.01 -0.03,0 -0.04,0.01 -0.04,0 -0.04,0 -0.04,0.01 -0.02,0 -0.02,0 -0.95,0 c -0.2,0 -0.58,0 -0.58,-0.42 0,-0.42 0.38,-0.42 0.58,-0.42 l 0.59,0 0,-3.11 c 0,-1.18 -0.98,-1.49 -1.62,-1.49 -1.14,0 -1.14,0.52 -1.14,0.96 l 0,3.89 c 0,0.44 -0.08,0.59 -0.57,0.59 l -0.95,0 c -0.2,0 -0.57,0 -0.57,-0.42 0,-0.42 0.37,-0.42 0.57,-0.42 l 0.59,0 0,-3.71 c 0,-1.32 0.86,-1.72 1.96,-1.72 0.88,0 1.42,0.36 1.71,0.6 0,-0.52 0.35,-0.52 0.59,-0.52 l 0.95,0 c 0.2,0 0.57,0 0.57,0.42 0,0.42 -0.37,0.42 -0.57,0.42 l -0.59,0 z"
         inkscape:connector-curvature="0"
         style="fill:#000000;stroke-width:0" /><path
         id="path7528"
         d="m 244.17,709.88 0.05,0 0.06,0 0.03,0 0.02,0 0.03,0 0.02,0.01 0.03,0 0.02,0 0.03,0.01 0.02,0.01 0.02,0 0.03,0.01 0.02,0.01 0.02,0.01 0.02,0.02 0.02,0.01 0.01,0.02 0.02,0.02 0.02,0.02 0,0.01 0.01,0.01 0.01,0.01 0,0.01 0.01,0.02 0,0.01 0.01,0.02 0.01,0.01 0,0.02 0,0.01 0.01,0.02 0,0.02 0.01,0.01 0,0.02 0,0.02 0.01,0.02 0,0.02 0,0.02 0,0.03 0,0.02 0,0.02 0,0.03 c 0,1.68 -0.95,3.02 -2.74,3.02 -1.66,0 -3,-1.43 -3,-3.18 0,-1.81 1.45,-3.21 3.22,-3.21 1.85,0 2.52,1.27 2.52,1.65 0,0.08 -0.03,0.4 -0.47,0.4 -0.27,0 -0.36,-0.1 -0.45,-0.32 -0.36,-0.83 -1.29,-0.9 -1.56,-0.9 -1.19,0 -2.14,0.9 -2.3,2.01 l 0.02,0.79 c 0.18,1.22 1.12,1.93 2.02,1.93 1.44,0 1.74,-1.22 1.79,-1.93 l -3.81,0 -0.02,-0.79 z"
         inkscape:connector-curvature="0"
         style="fill:#000000;stroke-width:0" /><path
         id="path7530"
         d="m 248.68,709.83 0,0.16 0.01,0.16 0.02,0.15 0.02,0.14 0.03,0.14 0.04,0.14 0.04,0.13 0.05,0.13 0.05,0.12 0.06,0.12 0.06,0.12 0.06,0.11 0.08,0.1 0.07,0.1 0.08,0.1 0.08,0.09 0.09,0.08 0.09,0.08 0.09,0.08 0.1,0.07 0.1,0.06 0.1,0.06 0.1,0.06 0.11,0.04 0.11,0.05 0.11,0.03 0.11,0.04 0.11,0.02 0.11,0.02 0.11,0.02 0.12,0.01 0.11,0 c 0.08,0 0.16,0 0.23,-0.02 0.05,-0.51 0.45,-0.55 0.55,-0.55 0.33,0 0.56,0.24 0.56,0.55 0,0.62 -0.6,0.85 -1.32,0.85 -0.96,0 -1.78,-0.43 -2.44,-1.23 l 0,0.56 c 0,0.44 -0.09,0.59 -0.58,0.59 l -1.44,0 c -0.2,0 -0.58,0 -0.58,-0.42 0,-0.42 0.38,-0.42 0.58,-0.42 l 1.09,0 0,-4.51 -1.09,0 c -0.2,0 -0.58,0 -0.58,-0.42 0,-0.42 0.38,-0.42 0.58,-0.42 l 3.52,0 c 0.21,0 0.58,0 0.58,0.42 0,0.42 -0.37,0.42 -0.58,0.42 l -1.5,0 z"
         inkscape:connector-curvature="0"
         style="fill:#000000;stroke-width:0" /><path
         id="path7532"
         d="m 259.04,712.47 0.38,0 c 0.2,0 0.58,0 0.58,0.42 0,0.42 -0.38,0.42 -0.58,0.42 l -1.58,0 c -0.2,0 -0.59,0 -0.59,-0.42 0,-0.42 0.39,-0.42 0.59,-0.42 l 0.36,0 c -0.4,-1.17 -1.22,-3.57 -1.42,-4.39 l -0.02,0 c -0.07,0.32 -0.13,0.48 -0.27,0.87 l -1.34,3.52 0.34,0 c 0.2,0 0.58,0 0.58,0.42 0,0.42 -0.38,0.42 -0.58,0.42 l -1.58,0 c -0.2,0 -0.59,0 -0.59,-0.42 0,-0.42 0.39,-0.42 0.59,-0.42 l 0.38,0 2.01,-5.16 c 0.06,-0.14 0.06,-0.17 0.06,-0.19 0,-0.03 -0.37,-1.27 -0.59,-1.68 -0.08,-0.14 -0.44,-0.81 -1.13,-0.74 0.01,0.04 0.06,0.13 0.06,0.28 0,0.34 -0.23,0.56 -0.56,0.56 -0.36,0 -0.58,-0.24 -0.58,-0.57 0,-0.55 0.46,-1.12 1.18,-1.12 1.39,0 2.01,1.85 2.05,1.97 z"
         inkscape:connector-curvature="0"
         style="fill:#000000;stroke-width:0" /><line
         id="line7534"
         y2="707.32001"
         x2="265.66"
         y1="707.32001"
         x1="261.23001"
         style="stroke-width:0.398" /><path
         id="path7536"
         d="m 272.2,710.22 0,0.17 -0.02,0.16 -0.01,0.16 -0.03,0.16 -0.03,0.16 -0.04,0.15 -0.05,0.15 -0.05,0.15 -0.06,0.14 -0.06,0.14 -0.07,0.14 -0.08,0.13 -0.08,0.12 -0.08,0.12 -0.09,0.12 -0.1,0.11 -0.1,0.11 -0.1,0.1 -0.11,0.09 -0.11,0.09 -0.12,0.08 -0.12,0.08 -0.12,0.07 -0.13,0.07 -0.13,0.05 -0.13,0.05 -0.13,0.04 -0.14,0.04 -0.14,0.03 -0.14,0.02 -0.14,0.01 -0.15,0 0,-0.83 c 1.01,0 1.93,-0.94 1.93,-2.28 0,-1.37 -0.89,-2.45 -1.93,-2.45 l 0,0 c -1.03,0 -1.92,1.09 -1.92,2.45 0,1.34 0.92,2.28 1.92,2.28 l 0,0.83 c -1.54,0 -2.85,-1.41 -2.85,-3.21 0,-1.81 1.32,-3.18 2.85,-3.18 1.54,0 2.86,1.37 2.86,3.18 z"
         inkscape:connector-curvature="0"
         style="fill:#000000;stroke-width:0" /><path
         id="path7538"
         d="m 279.04,712.72 0,0.04 0,0.04 0,0.04 0,0.03 -0.01,0.03 0,0.04 0,0.03 -0.01,0.03 -0.01,0.02 0,0.03 -0.01,0.03 -0.01,0.02 -0.01,0.02 -0.01,0.02 -0.02,0.02 -0.01,0.02 -0.02,0.02 -0.02,0.01 -0.02,0.01 -0.02,0.02 -0.02,0.01 -0.02,0.01 -0.03,0.01 -0.03,0.01 -0.03,0 -0.03,0.01 -0.03,0 -0.04,0.01 -0.04,0 -0.04,0 -0.04,0.01 -0.02,0 -0.02,0 -0.95,0 c -0.2,0 -0.57,0 -0.57,-0.42 0,-0.42 0.37,-0.42 0.57,-0.42 l 0.59,0 0,-3.11 c 0,-1.18 -0.98,-1.49 -1.62,-1.49 -1.13,0 -1.13,0.52 -1.13,0.96 l 0,3.89 c 0,0.44 -0.09,0.59 -0.58,0.59 l -0.95,0 c -0.2,0 -0.57,0 -0.57,-0.42 0,-0.42 0.37,-0.42 0.57,-0.42 l 0.59,0 0,-3.71 c 0,-1.32 0.86,-1.72 1.97,-1.72 0.87,0 1.42,0.36 1.71,0.6 0,-0.52 0.34,-0.52 0.58,-0.52 l 0.95,0 c 0.2,0 0.57,0 0.57,0.42 0,0.42 -0.37,0.42 -0.57,0.42 l -0.59,0 z"
         inkscape:connector-curvature="0"
         style="fill:#000000;stroke-width:0" /><path
         id="path7540"
         d="m 283.52,712.47 2.33,0 c 0.2,0 0.57,0 0.57,0.42 0,0.42 -0.37,0.42 -0.57,0.42 l -2.33,0 0,1.17 c 0,0.26 0,0.59 -0.45,0.59 -0.48,0 -0.48,-0.33 -0.48,-0.59 l 0,-1.17 -1.22,0 c -0.2,0 -0.59,0 -0.59,-0.42 0,-0.42 0.38,-0.42 0.58,-0.42 l 1.23,0 0,-3.61 c 0,-1.34 0.92,-1.82 1.95,-1.82 0.78,0 2.2,0.38 2.2,1.85 0,0.28 0,0.6 -0.48,0.6 -0.46,0 -0.46,-0.32 -0.46,-0.62 -0.01,-0.86 -0.83,-1 -1.16,-1 -1.12,0 -1.12,0.72 -1.12,1.06 z"
         inkscape:connector-curvature="0"
         style="fill:#000000;stroke-width:0" /></g>    <g
       id="g7826"
       transform="matrix(1,0,0,-1,177.31971,1100.5695)"
       xml:space="preserve"
       stroke-miterlimit="10.433"
       font-style="normal"
       font-variant="normal"
       font-weight="normal"
       font-stretch="normal"
       font-size-adjust="none"
       letter-spacing="normal"
       word-spacing="normal"
       ns0:text="\\Large{\\texttt{get}}"
       ns0:preamble="/home/piter/.config/inkscape/extensions/preambulo.ini"
       style="font-style:normal;font-variant:normal;font-weight:normal;font-stretch:normal;letter-spacing:normal;word-spacing:normal;text-anchor:start;fill:none;fill-opacity:1;fill-rule:evenodd;stroke:#000000;stroke-linecap:butt;stroke-linejoin:miter;stroke-miterlimit:10.43299961;stroke-dasharray:none;stroke-dashoffset:0;stroke-opacity:1"><path
         d="m 226.16,708 -0.02,0 -0.02,0 -0.02,0 -0.03,0 -0.02,0 -0.03,0 -0.03,0.01 -0.03,0 -0.04,0.01 -0.03,0 -0.04,0.01 -0.03,0.01 -0.04,0.01 -0.03,0.01 -0.04,0.02 -0.03,0.01 -0.04,0.02 -0.03,0.03 -0.03,0.02 -0.04,0.03 -0.03,0.03 -0.01,0.01 -0.02,0.02 -0.01,0.02 -0.01,0.02 -0.02,0.01 -0.01,0.02 -0.01,0.03 -0.01,0.02 -0.01,0.02 -0.01,0.02 -0.01,0.03 -0.01,0.02 -0.01,0.03 -0.01,0.03 0,0.02 -0.01,0.03 0,0.03 -0.01,0.04 0,0.03 0,0.03 0,0.04 0,0.03 c 0,0.27 0.04,0.33 0.1,0.45 0.28,-0.2 0.76,-0.39 1.27,-0.39 l 0,0.8 c -0.71,0 -1.36,0.63 -1.36,1.48 0,0.85 0.66,1.48 1.36,1.48 0.76,0 1.38,-0.66 1.38,-1.48 0,-0.82 -0.62,-1.48 -1.38,-1.48 l 0,0 0,-0.8 c 1.31,0 2.31,1.05 2.31,2.28 0,0.36 -0.08,0.8 -0.38,1.28 0.37,0.2 0.71,0.24 0.93,0.26 0.08,-0.45 0.5,-0.46 0.51,-0.46 0.18,0 0.54,0.11 0.54,0.54 0,0.27 -0.22,0.75 -1.02,0.75 -0.26,0 -0.91,-0.06 -1.51,-0.53 -0.47,0.33 -0.96,0.44 -1.36,0.44 -1.31,0 -2.31,-1.05 -2.31,-2.28 0,-0.32 0.07,-0.86 0.47,-1.38 -0.27,-0.4 -0.31,-0.83 -0.31,-1 0,-0.5 0.24,-0.9 0.36,-1.03 l 0.34,-0.72 c 0.33,0.21 0.47,0.21 1.46,0.21 1.26,0 2.84,0 2.84,-1.26 0,-0.66 -1.05,-1.29 -2.45,-1.29 l 0,0 c -1.41,0 -2.45,0.63 -2.45,1.29 0,0.22 0.07,0.72 0.6,1.05 l -0.34,0.72 c -0.8,-0.43 -1.08,-1.21 -1.08,-1.77 0,-1.19 1.45,-2.09 3.27,-2.09 1.82,0 3.27,0.89 3.27,2.09 0,2.07 -2.54,2.07 -3.01,2.07 z"
         id="path7828"
         inkscape:connector-curvature="0"
         style="fill:#000000;stroke-width:0" /><path
         d="m 236.78,709.88 0.06,0 0.05,0 0.03,0 0.03,0 0.02,0 0.03,0.01 0.02,0 0.03,0 0.02,0.01 0.02,0.01 0.03,0 0.02,0.01 0.02,0.01 0.02,0.01 0.02,0.02 0.02,0.01 0.02,0.02 0.01,0.02 0.02,0.02 0,0.01 0.01,0.01 0.01,0.01 0,0.01 0.01,0.02 0.01,0.01 0,0.02 0.01,0.01 0,0.02 0.01,0.01 0,0.02 0.01,0.02 0,0.01 0,0.02 0,0.02 0.01,0.02 0,0.02 0,0.02 0,0.03 0,0.02 0,0.02 0,0.03 c 0,1.68 -0.94,3.02 -2.74,3.02 -1.66,0 -2.99,-1.43 -2.99,-3.18 0,-1.81 1.45,-3.21 3.21,-3.21 1.85,0 2.52,1.27 2.52,1.65 0,0.08 -0.02,0.4 -0.47,0.4 -0.27,0 -0.36,-0.1 -0.44,-0.32 -0.36,-0.83 -1.29,-0.9 -1.57,-0.9 -1.19,0 -2.13,0.9 -2.29,2.01 l 0.01,0.79 c 0.19,1.22 1.12,1.93 2.02,1.93 1.44,0 1.74,-1.22 1.8,-1.93 l -3.82,0 -0.01,-0.79 z"
         id="path7830"
         inkscape:connector-curvature="0"
         style="fill:#000000;stroke-width:0" /><path
         d="m 241.3,712.47 2.32,0 c 0.2,0 0.58,0 0.58,0.42 0,0.42 -0.38,0.42 -0.58,0.42 l -2.32,0 0,1.17 c 0,0.26 0,0.59 -0.46,0.59 -0.47,0 -0.47,-0.33 -0.47,-0.59 l 0,-1.17 -1.22,0 c -0.2,0 -0.59,0 -0.59,-0.42 0,-0.42 0.37,-0.42 0.57,-0.42 l 1.24,0 0,-3.61 c 0,-1.34 0.91,-1.82 1.95,-1.82 0.77,0 2.19,0.38 2.19,1.85 0,0.28 0,0.6 -0.47,0.6 -0.46,0 -0.46,-0.32 -0.46,-0.62 -0.01,-0.86 -0.83,-1 -1.16,-1 -1.12,0 -1.12,0.72 -1.12,1.06 z"
         id="path7832"
         inkscape:connector-curvature="0"
         style="fill:#000000;stroke-width:0" /></g>    <g
       style="font-style:normal;font-variant:normal;font-weight:normal;font-stretch:normal;letter-spacing:normal;word-spacing:normal;text-anchor:start;fill:none;fill-opacity:1;fill-rule:evenodd;stroke:#000000;stroke-linecap:butt;stroke-linejoin:miter;stroke-miterlimit:10.43299961;stroke-dasharray:none;stroke-dashoffset:0;stroke-opacity:1"
       ns0:preamble="/home/piter/.config/inkscape/extensions/preambulo.ini"
       ns0:text="\\Large{\\texttt{producto\\_out}}"
       word-spacing="normal"
       letter-spacing="normal"
       font-size-adjust="none"
       font-stretch="normal"
       font-weight="normal"
       font-variant="normal"
       font-style="normal"
       stroke-miterlimit="10.433"
       xml:space="preserve"
       transform="matrix(1,0,0,-1,177.51971,1124.7753)"
       id="g8092"><path
         id="path8094"
         d="m 226.33,703.94 0.02,0 0.02,0 0.02,0 0.02,0 0.02,0 0.03,0 0.02,0 0.02,0 0.03,0.01 0.02,0 0.03,0 0.02,0.01 0.02,0.01 0.03,0 0.02,0.01 0.02,0.01 0.02,0.01 0.03,0.01 0.02,0.02 0.02,0.01 0.01,0.02 0.02,0.01 0.01,0.01 0.01,0.01 0.01,0.01 0,0.01 0.01,0.01 0.01,0.02 0,0.01 0.01,0.01 0,0.01 0.01,0.02 0,0.01 0.01,0.02 0,0.01 0,0.02 0.01,0.01 0,0.02 0,0.02 0,0.02 0,0.01 0,0.02 c 0,0.42 -0.37,0.42 -0.57,0.42 l -0.59,0 0,3.07 c 0.35,-0.39 0.88,-0.8 1.68,-0.8 l -0.07,0.83 c -1.08,0 -1.61,1.22 -1.61,1.93 l 0,1.14 c 0,0.82 0.81,1.62 1.74,1.62 1.03,0 1.86,-1.05 1.86,-2.34 0,-1.38 -0.97,-2.35 -1.99,-2.35 l 0.07,-0.83 c 1.52,0 2.86,1.36 2.86,3.18 0,1.77 -1.21,3.17 -2.7,3.17 -1.05,0 -1.71,-0.63 -1.84,-0.77 0,0.47 0,0.69 -0.57,0.69 l -0.95,0 c -0.2,0 -0.57,0 -0.57,-0.42 0,-0.42 0.37,-0.42 0.57,-0.42 l 0.59,0 0,-7.7 -0.59,0 c -0.2,0 -0.57,0 -0.57,-0.42 0,-0.41 0.37,-0.41 0.57,-0.41 z"
         inkscape:connector-curvature="0"
         style="fill:#000000;stroke-width:0" /><path
         id="path8096"
         d="m 233.91,709.83 0,0.16 0.01,0.16 0.02,0.15 0.03,0.14 0.02,0.14 0.04,0.14 0.04,0.13 0.05,0.13 0.05,0.12 0.06,0.12 0.06,0.12 0.07,0.11 0.07,0.1 0.07,0.1 0.08,0.1 0.09,0.09 0.08,0.08 0.09,0.08 0.1,0.08 0.09,0.07 0.1,0.06 0.1,0.06 0.11,0.06 0.1,0.04 0.11,0.05 0.11,0.03 0.11,0.04 0.11,0.02 0.11,0.02 0.12,0.02 0.11,0.01 0.12,0 c 0.07,0 0.15,0 0.23,-0.02 0.04,-0.51 0.44,-0.55 0.54,-0.55 0.33,0 0.56,0.24 0.56,0.55 0,0.62 -0.6,0.85 -1.32,0.85 -0.96,0 -1.78,-0.43 -2.44,-1.23 l 0,0.56 c 0,0.44 -0.09,0.59 -0.57,0.59 l -1.45,0 c -0.2,0 -0.57,0 -0.57,-0.42 0,-0.42 0.37,-0.42 0.57,-0.42 l 1.09,0 0,-4.51 -1.09,0 c -0.2,0 -0.57,0 -0.57,-0.42 0,-0.42 0.37,-0.42 0.57,-0.42 l 3.53,0 c 0.2,0 0.57,0 0.57,0.42 0,0.42 -0.37,0.42 -0.57,0.42 l -1.51,0 z"
         inkscape:connector-curvature="0"
         style="fill:#000000;stroke-width:0" /><path
         id="path8098"
         d="m 244.74,710.22 0,0.17 -0.01,0.16 -0.02,0.16 -0.03,0.16 -0.03,0.16 -0.04,0.15 -0.04,0.15 -0.06,0.15 -0.05,0.14 -0.07,0.14 -0.07,0.14 -0.07,0.13 -0.08,0.12 -0.09,0.12 -0.09,0.12 -0.09,0.11 -0.1,0.11 -0.11,0.1 -0.11,0.09 -0.11,0.09 -0.11,0.08 -0.12,0.08 -0.13,0.07 -0.12,0.07 -0.13,0.05 -0.13,0.05 -0.14,0.04 -0.14,0.04 -0.13,0.03 -0.15,0.02 -0.14,0.01 -0.14,0 0,-0.83 c 1,0 1.92,-0.94 1.92,-2.28 0,-1.37 -0.89,-2.45 -1.92,-2.45 l 0,0 c -1.04,0 -1.93,1.09 -1.93,2.45 0,1.34 0.92,2.28 1.93,2.28 l 0,0.83 c -1.55,0 -2.86,-1.41 -2.86,-3.21 0,-1.81 1.32,-3.18 2.86,-3.18 1.53,0 2.85,1.37 2.85,3.18 z"
         inkscape:connector-curvature="0"
         style="fill:#000000;stroke-width:0" /><path
         id="path8100"
         d="m 251.58,715.3 0,0.04 0,0.04 -0.01,0.04 0,0.03 0,0.04 0,0.03 -0.01,0.03 0,0.03 -0.01,0.03 -0.01,0.02 -0.01,0.03 -0.01,0.02 -0.01,0.02 -0.01,0.02 -0.01,0.02 -0.02,0.02 -0.01,0.02 -0.02,0.01 -0.02,0.02 -0.02,0.01 -0.02,0.01 -0.03,0.01 -0.02,0.01 -0.03,0.01 -0.03,0.01 -0.03,0 -0.04,0.01 -0.03,0 -0.04,0 -0.04,0.01 -0.04,0 -0.02,0 -0.03,0 -0.94,0 c -0.21,0 -0.58,0 -0.58,-0.42 0,-0.41 0.37,-0.41 0.58,-0.41 l 0.58,0 0,-2.39 c -0.23,0.23 -0.81,0.72 -1.69,0.72 l 0.09,-0.83 c 0.93,0 1.6,-0.85 1.6,-1.59 l 0,-1.12 c 0,-0.81 -0.66,-1.98 -1.73,-1.98 -1.03,0 -1.87,1.05 -1.87,2.34 0,1.37 0.98,2.35 2,2.35 l -0.09,0.83 c -1.52,0 -2.84,-1.37 -2.84,-3.18 0,-1.77 1.24,-3.17 2.71,-3.17 0.94,0 1.55,0.56 1.82,0.87 0,-0.6 0,-0.79 0.58,-0.79 l 0.94,0 c 0.21,0 0.58,0 0.58,0.42 0,0.42 -0.37,0.42 -0.58,0.42 l -0.58,0 z"
         inkscape:connector-curvature="0"
         style="fill:#000000;stroke-width:0" /><path
         id="path8102"
         d="m 258.96,712.72 0,0.04 0,0.04 -0.01,0.04 0,0.03 0,0.03 0,0.04 -0.01,0.03 0,0.03 -0.01,0.02 -0.01,0.03 -0.01,0.03 -0.01,0.02 -0.01,0.02 -0.01,0.02 -0.01,0.02 -0.02,0.02 -0.01,0.02 -0.02,0.01 -0.02,0.01 -0.02,0.02 -0.02,0.01 -0.03,0.01 -0.02,0.01 -0.03,0.01 -0.03,0 -0.03,0.01 -0.04,0 -0.03,0.01 -0.04,0 -0.04,0 -0.04,0.01 -0.02,0 -0.03,0 -0.94,0 c -0.21,0 -0.58,0 -0.58,-0.42 0,-0.42 0.37,-0.42 0.58,-0.42 l 0.58,0 0,-3.11 c 0,-1.18 -0.97,-1.49 -1.62,-1.49 -1.13,0 -1.13,0.52 -1.13,0.96 l 0,3.89 c 0,0.44 -0.09,0.59 -0.57,0.59 l -0.95,0 c -0.2,0 -0.57,0 -0.57,-0.42 0,-0.42 0.37,-0.42 0.57,-0.42 l 0.59,0 0,-3.71 c 0,-1.32 0.86,-1.72 1.96,-1.72 0.88,0 1.42,0.36 1.71,0.6 0,-0.52 0.34,-0.52 0.59,-0.52 l 0.95,0 c 0.2,0 0.57,0 0.57,0.42 0,0.42 -0.37,0.42 -0.57,0.42 l -0.59,0 z"
         inkscape:connector-curvature="0"
         style="fill:#000000;stroke-width:0" /><path
         id="path8104"
         d="m 266.89,708.69 0,0.01 0,0.02 0,0.02 -0.01,0.01 0,0.02 0,0.01 0,0.02 -0.01,0.01 0,0.01 0,0.01 -0.01,0.02 0,0.01 -0.01,0.01 -0.01,0.01 0,0.01 -0.01,0.01 -0.01,0.01 0,0.01 -0.01,0.01 -0.01,0.01 -0.01,0.01 -0.02,0.02 -0.02,0.01 -0.02,0.01 -0.02,0.01 -0.01,0.01 -0.02,0.01 -0.02,0.01 -0.02,0 -0.02,0.01 -0.02,0 -0.02,0.01 -0.02,0 -0.02,0 -0.02,0.01 -0.02,0 -0.01,0 -0.02,0 -0.02,0 -0.01,0 -0.01,0 -0.01,0 c -0.33,0 -0.39,-0.11 -0.46,-0.32 -0.32,-0.78 -1.02,-0.87 -1.37,-0.87 -1.21,0 -2.25,1.02 -2.25,2.35 0,0.73 0.42,2.38 2.3,2.38 0.38,0 0.69,-0.03 0.81,-0.04 0.1,-0.03 0.12,-0.04 0.12,-0.11 0.04,-0.59 0.49,-0.61 0.57,-0.61 0.32,0 0.59,0.22 0.59,0.61 0,0.98 -1.45,0.98 -2.08,0.98 -2.45,0 -3.24,-2 -3.24,-3.21 0,-1.75 1.33,-3.18 3.05,-3.18 1.93,0 2.43,1.42 2.43,1.65 z"
         inkscape:connector-curvature="0"
         style="fill:#000000;stroke-width:0" /><path
         id="path8106"
         d="m 270.83,712.47 2.32,0 c 0.2,0 0.57,0 0.57,0.42 0,0.42 -0.37,0.42 -0.57,0.42 l -2.32,0 0,1.17 c 0,0.26 0,0.59 -0.46,0.59 -0.48,0 -0.48,-0.33 -0.48,-0.59 l 0,-1.17 -1.22,0 c -0.2,0 -0.58,0 -0.58,-0.42 0,-0.42 0.37,-0.42 0.57,-0.42 l 1.23,0 0,-3.61 c 0,-1.34 0.92,-1.82 1.96,-1.82 0.77,0 2.19,0.38 2.19,1.85 0,0.28 0,0.6 -0.47,0.6 -0.46,0 -0.46,-0.32 -0.46,-0.62 -0.02,-0.86 -0.84,-1 -1.16,-1 -1.12,0 -1.12,0.72 -1.12,1.06 z"
         inkscape:connector-curvature="0"
         style="fill:#000000;stroke-width:0" /><path
         id="path8108"
         d="m 281.65,710.22 0,0.17 -0.02,0.16 -0.01,0.16 -0.03,0.16 -0.03,0.16 -0.04,0.15 -0.05,0.15 -0.05,0.15 -0.06,0.14 -0.06,0.14 -0.07,0.14 -0.08,0.13 -0.08,0.12 -0.08,0.12 -0.09,0.12 -0.1,0.11 -0.1,0.11 -0.1,0.1 -0.11,0.09 -0.11,0.09 -0.12,0.08 -0.12,0.08 -0.12,0.07 -0.13,0.07 -0.13,0.05 -0.13,0.05 -0.13,0.04 -0.14,0.04 -0.14,0.03 -0.14,0.02 -0.14,0.01 -0.15,0 0,-0.83 c 1.01,0 1.93,-0.94 1.93,-2.28 0,-1.37 -0.89,-2.45 -1.93,-2.45 l 0,0 c -1.03,0 -1.92,1.09 -1.92,2.45 0,1.34 0.92,2.28 1.92,2.28 l 0,0.83 c -1.55,0 -2.85,-1.41 -2.85,-3.21 0,-1.81 1.32,-3.18 2.85,-3.18 1.54,0 2.86,1.37 2.86,3.18 z"
         inkscape:connector-curvature="0"
         style="fill:#000000;stroke-width:0" /><line
         id="line8110"
         y2="707.32001"
         x2="287.79999"
         y1="707.32001"
         x1="283.38"
         style="stroke-width:0.398" /><path
         id="path8112"
         d="m 294.35,710.22 -0.01,0.17 -0.01,0.16 -0.02,0.16 -0.02,0.16 -0.03,0.16 -0.04,0.15 -0.05,0.15 -0.05,0.15 -0.06,0.14 -0.06,0.14 -0.07,0.14 -0.08,0.13 -0.08,0.12 -0.08,0.12 -0.09,0.12 -0.1,0.11 -0.1,0.11 -0.1,0.1 -0.11,0.09 -0.11,0.09 -0.12,0.08 -0.12,0.08 -0.12,0.07 -0.13,0.07 -0.13,0.05 -0.13,0.05 -0.13,0.04 -0.14,0.04 -0.14,0.03 -0.14,0.02 -0.14,0.01 -0.15,0 0,-0.83 c 1.01,0 1.92,-0.94 1.92,-2.28 0,-1.37 -0.89,-2.45 -1.92,-2.45 l 0,0 c -1.03,0 -1.92,1.09 -1.92,2.45 0,1.34 0.92,2.28 1.92,2.28 l 0,0.83 c -1.55,0 -2.85,-1.41 -2.85,-3.21 0,-1.81 1.32,-3.18 2.85,-3.18 1.54,0 2.86,1.37 2.86,3.18 z"
         inkscape:connector-curvature="0"
         style="fill:#000000;stroke-width:0" /><path
         id="path8114"
         d="m 301.18,712.72 0,0.04 0,0.04 0,0.04 0,0.03 -0.01,0.03 0,0.04 0,0.03 -0.01,0.03 -0.01,0.02 0,0.03 -0.01,0.03 -0.01,0.02 -0.01,0.02 -0.01,0.02 -0.02,0.02 -0.01,0.02 -0.02,0.02 -0.02,0.01 -0.02,0.01 -0.02,0.02 -0.02,0.01 -0.02,0.01 -0.03,0.01 -0.03,0.01 -0.03,0 -0.03,0.01 -0.03,0 -0.04,0.01 -0.04,0 -0.04,0 -0.04,0.01 -0.02,0 -0.02,0 -0.95,0 c -0.2,0 -0.57,0 -0.57,-0.42 0,-0.42 0.37,-0.42 0.57,-0.42 l 0.59,0 0,-3.11 c 0,-1.18 -0.98,-1.49 -1.62,-1.49 -1.14,0 -1.14,0.52 -1.14,0.96 l 0,3.89 c 0,0.44 -0.08,0.59 -0.57,0.59 l -0.95,0 c -0.2,0 -0.57,0 -0.57,-0.42 0,-0.42 0.37,-0.42 0.57,-0.42 l 0.59,0 0,-3.71 c 0,-1.32 0.86,-1.72 1.97,-1.72 0.87,0 1.42,0.36 1.7,0.6 0,-0.52 0.35,-0.52 0.59,-0.52 l 0.95,0 c 0.2,0 0.57,0 0.57,0.42 0,0.42 -0.37,0.42 -0.57,0.42 l -0.59,0 z"
         inkscape:connector-curvature="0"
         style="fill:#000000;stroke-width:0" /><path
         id="path8116"
         d="m 305.67,712.47 2.32,0 c 0.21,0 0.58,0 0.58,0.42 0,0.42 -0.37,0.42 -0.58,0.42 l -2.32,0 0,1.17 c 0,0.26 0,0.59 -0.46,0.59 -0.47,0 -0.47,-0.33 -0.47,-0.59 l 0,-1.17 -1.22,0 c -0.2,0 -0.59,0 -0.59,-0.42 0,-0.42 0.37,-0.42 0.58,-0.42 l 1.23,0 0,-3.61 c 0,-1.34 0.92,-1.82 1.95,-1.82 0.77,0 2.2,0.38 2.2,1.85 0,0.28 0,0.6 -0.48,0.6 -0.46,0 -0.46,-0.32 -0.46,-0.62 -0.01,-0.86 -0.83,-1 -1.16,-1 -1.12,0 -1.12,0.72 -1.12,1.06 z"
         inkscape:connector-curvature="0"
         style="fill:#000000;stroke-width:0" /></g>  </g>
</svg>
