<?xml version="1.0" encoding="UTF-8" standalone="no"?>
<!-- Created with Inkscape (http://www.inkscape.org/) -->

<svg
   xmlns:ns0="http://www.iki.fi/pav/software/textext/"
   xmlns:dc="http://purl.org/dc/elements/1.1/"
   xmlns:cc="http://creativecommons.org/ns#"
   xmlns:rdf="http://www.w3.org/1999/02/22-rdf-syntax-ns#"
   xmlns:svg="http://www.w3.org/2000/svg"
   xmlns="http://www.w3.org/2000/svg"
   xmlns:sodipodi="http://sodipodi.sourceforge.net/DTD/sodipodi-0.dtd"
   xmlns:inkscape="http://www.inkscape.org/namespaces/inkscape"
   width="210mm"
   height="297mm"
   viewBox="0 0 744.09448819 1052.3622047"
   id="svg4285"
   version="1.1"
   inkscape:version="0.91 r13725"
   sodipodi:docname="proveedorFijodevsgraph.svg">
  <sodipodi:namedview
     id="base"
     pagecolor="#ffffff"
     bordercolor="#666666"
     borderopacity="1.0"
     inkscape:pageopacity="0.0"
     inkscape:pageshadow="2"
     inkscape:zoom="2.2641401"
     inkscape:cx="375.95193"
     inkscape:cy="742.57106"
     inkscape:document-units="px"
     inkscape:current-layer="layer1"
     showgrid="true"
     inkscape:window-width="1855"
     inkscape:window-height="1056"
     inkscape:window-x="65"
     inkscape:window-y="24"
     inkscape:window-maximized="1">
    <inkscape:grid
       type="xygrid"
       id="grid5505" />
  </sodipodi:namedview>
  <defs
     id="defs4287">
    <marker
       inkscape:stockid="Arrow1Mstart"
       orient="auto"
       refY="0.0"
       refX="0.0"
       id="Arrow1Mstart"
       style="overflow:visible"
       inkscape:isstock="true">
      <path
         id="path5517"
         d="M 0.0,0.0 L 5.0,-5.0 L -12.5,0.0 L 5.0,5.0 L 0.0,0.0 z "
         style="fill-rule:evenodd;stroke:#000000;stroke-width:1pt;stroke-opacity:1;fill:#000000;fill-opacity:1"
         transform="scale(0.4) translate(10,0)" />
    </marker>
    <marker
       inkscape:stockid="Arrow1Mend"
       orient="auto"
       refY="0.0"
       refX="0.0"
       id="Arrow1Mend"
       style="overflow:visible;"
       inkscape:isstock="true">
      <path
         id="path5520"
         d="M 0.0,0.0 L 5.0,-5.0 L -12.5,0.0 L 5.0,5.0 L 0.0,0.0 z "
         style="fill-rule:evenodd;stroke:#000000;stroke-width:1pt;stroke-opacity:1;fill:#000000;fill-opacity:1"
         transform="scale(0.4) rotate(180) translate(10,0)" />
    </marker>
  </defs>
  <metadata
     id="metadata4290">
    <rdf:RDF>
      <cc:Work
         rdf:about="">
        <dc:format>image/svg+xml</dc:format>
        <dc:type
           rdf:resource="http://purl.org/dc/dcmitype/StillImage" />
        <dc:title />
      </cc:Work>
    </rdf:RDF>
  </metadata>
  <g
     inkscape:label="Capa 1"
     inkscape:groupmode="layer"
     id="layer1">
    <path
       d="m 162.98037,180.56704 358.99213,0 0,257.73228 -358.99213,0 z"
       id="path11"
       inkscape:connector-curvature="0"
       style="fill:#000000;fill-opacity:0;fill-rule:evenodd;stroke:none;stroke-linecap:square;stroke-miterlimit:10" />
    <path
       d="m 162.98037,180.56704 358.99213,0 0,257.73228 -358.99213,0 z"
       id="path13"
       inkscape:connector-curvature="0"
       style="fill:none;fill-rule:evenodd;stroke:#000000;stroke-width:2;stroke-linecap:butt;stroke-linejoin:round;stroke-miterlimit:10" />
    <path
       d="m 182.87918,311.90447 0,0 c 0,-21.23904 18.13422,-38.4567 40.50394,-38.4567 l 0,0 c 10.74231,0 21.04461,4.05169 28.64062,11.26371 7.59595,7.21203 11.86328,16.99363 11.86328,27.19299 l 0,0 c 0,21.23904 -18.13421,38.4567 -40.5039,38.4567 l 0,0 c -22.36972,0 -40.50394,-17.21766 -40.50394,-38.4567 z"
       id="path17"
       inkscape:connector-curvature="0"
       style="fill:#cfe2f3;fill-rule:evenodd;stroke:none;stroke-linecap:square;stroke-miterlimit:10" />
    <path
       d="m 182.87918,311.90447 0,0 c 0,-21.23904 18.13422,-38.4567 40.50394,-38.4567 l 0,0 c 10.74231,0 21.04461,4.05169 28.64062,11.26371 7.59595,7.21203 11.86328,16.99363 11.86328,27.19299 l 0,0 c 0,21.23904 -18.13421,38.4567 -40.5039,38.4567 l 0,0 c -22.36972,0 -40.50394,-17.21766 -40.50394,-38.4567 z"
       id="path19"
       inkscape:connector-curvature="0"
       style="fill:none;fill-rule:evenodd;stroke:#000000;stroke-width:1;stroke-linecap:butt;stroke-linejoin:round;stroke-miterlimit:10" />
    <path
       d="m 286.50412,389.25163 c 67.81103,0 135.62207,-19.22836 135.62207,-38.4567"
       id="path23"
       inkscape:connector-curvature="0"
       style="fill:#000000;fill-opacity:0;fill-rule:evenodd;stroke:none;stroke-linecap:square;stroke-miterlimit:10" />
    <path
       d="m 319.08272,377.55392 90.99213,0 0,43.74802 -90.99213,0 z"
       id="path29"
       inkscape:connector-curvature="0"
       style="fill:#000000;fill-opacity:0;fill-rule:evenodd;stroke:none;stroke-linecap:square;stroke-miterlimit:10" />
    <path
       d="m 381.28043,310.63459 0,0 c 0,-21.23904 18.13425,-38.4567 40.50394,-38.4567 l 0,0 c 10.74231,0 21.04464,4.05167 28.64062,11.26371 7.59595,7.21203 11.86331,16.99362 11.86331,27.19299 l 0,0 c 0,21.23904 -18.13421,38.45669 -40.50393,38.45669 l 0,0 c -22.36969,0 -40.50394,-17.21765 -40.50394,-38.45669 z"
       id="path51"
       inkscape:connector-curvature="0"
       style="fill:#cfe2f3;fill-rule:evenodd;stroke:none;stroke-linecap:square;stroke-miterlimit:10" />
    <path
       d="m 381.28043,310.63459 0,0 c 0,-21.23904 18.13425,-38.4567 40.50394,-38.4567 l 0,0 c 10.74231,0 21.04464,4.05167 28.64062,11.26371 7.59595,7.21203 11.86331,16.99362 11.86331,27.19299 l 0,0 c 0,21.23904 -18.13421,38.45669 -40.50393,38.45669 l 0,0 c -22.36969,0 -40.50394,-17.21765 -40.50394,-38.45669 z"
       id="path53"
       inkscape:connector-curvature="0"
       style="fill:none;fill-rule:evenodd;stroke:#000000;stroke-width:1;stroke-linecap:butt;stroke-linejoin:round;stroke-miterlimit:10" />
    <path
       d="m 277.86821,296.69167 c 0,-16.63242 7.15747,-26.35541 14.31494,-33.26486 7.1575,-6.90944 14.31497,-11.00536 14.31497,-22.01073"
       id="path63"
       inkscape:connector-curvature="0"
       style="fill:#000000;fill-opacity:0;fill-rule:evenodd;stroke:none;stroke-linecap:square;stroke-miterlimit:10" />
    <path
       d="m 225.30962,268.42487 c 39.95693,-39.73768 149.95693,-39.73768 197.79966,1.34145"
       id="path65"
       inkscape:connector-curvature="0"
       style="fill:none;fill-rule:evenodd;stroke:#000000;stroke-width:2;stroke-linecap:butt;stroke-linejoin:round;stroke-miterlimit:10;marker-end:url(#Arrow1Mend)"
       sodipodi:nodetypes="cc" />
    <path
       d="m 270.73376,228.55392 c 0,-12.49995 44.03149,-30.49992 88.06299,-24.99992 44.03149,5.5 88.06299,34.49997 88.06299,68.99992"
       id="path69"
       inkscape:connector-curvature="0"
       style="fill:#000000;fill-opacity:0;fill-rule:evenodd;stroke:none;stroke-linecap:square;stroke-miterlimit:10" />
    <path
       d="m 224.35853,354.8712 c 51.42041,17.34095 135.90802,23.81599 198.9565,-4.90829"
       id="path71"
       inkscape:connector-curvature="0"
       style="fill:none;fill-rule:evenodd;stroke:#000000;stroke-width:2;stroke-linecap:butt;stroke-linejoin:round;stroke-miterlimit:10;stroke-dasharray:8, 6;marker-start:url(#Arrow1Mstart)"
       sodipodi:nodetypes="cc" />
    <path
       d="m 290.85321,211.85925 97.98425,0 0,30.01575 -97.98425,0 z"
       id="path75"
       inkscape:connector-curvature="0"
       style="fill:#000000;fill-opacity:0;fill-rule:evenodd;stroke:none;stroke-linecap:square;stroke-miterlimit:10" />
    <path
       d="m 285.85002,254.04476 52,0 0,30.01575 -52,0 z"
       id="path79"
       inkscape:connector-curvature="0"
       style="fill:#000000;fill-opacity:0;fill-rule:evenodd;stroke:none;stroke-linecap:square;stroke-miterlimit:10" />
    <path
       d="m 285.07105,231.32119 97.98425,0 0,30.01575 -97.98425,0 z"
       id="path95"
       inkscape:connector-curvature="0"
       style="fill:#000000;fill-opacity:0;fill-rule:evenodd;stroke:none;stroke-linecap:square;stroke-miterlimit:10" />
    <g
       id="g5394"
       transform="matrix(1,0,0,-1,-18.510465,999.55261)"
       xml:space="preserve"
       stroke-miterlimit="10.433"
       font-style="normal"
       font-variant="normal"
       font-weight="normal"
       font-stretch="normal"
       font-size-adjust="none"
       letter-spacing="normal"
       word-spacing="normal"
       ns0:text="\\Large{\n\\textbf{Idle}\n}"
       ns0:preamble="/home/piter/.config/inkscape/extensions/preambulo.ini"
       style="font-style:normal;font-variant:normal;font-weight:normal;font-stretch:normal;letter-spacing:normal;word-spacing:normal;text-anchor:start;fill:none;fill-opacity:1;fill-rule:evenodd;stroke:#000000;stroke-linecap:butt;stroke-linejoin:miter;stroke-miterlimit:10.43299961;stroke-dasharray:none;stroke-dashoffset:0;stroke-opacity:1"><path
         style="fill:#000000;stroke-width:0"
         inkscape:connector-curvature="0"
         d="m 232.06,716.35 1.6,0 0,0.61 c -0.51,-0.03 -1.95,-0.03 -2.55,-0.03 -0.6,0 -2.04,0 -2.55,0.03 l 0,-0.61 1.6,0 0,-8.61 -1.6,0 0,-0.62 c 0.51,0.03 1.95,0.03 2.55,0.03 0.6,0 2.04,0 2.55,-0.03 l 0,0.62 -1.6,0 z"
         id="path5396" /><path
         style="fill:#000000;stroke-width:0"
         inkscape:connector-curvature="0"
         d="m 239.11,716.96 0,-0.61 c 0.88,0 0.99,0 0.99,-0.56 l 0,-2.9 c -0.32,0.27 -0.95,0.69 -1.94,0.69 l 0.17,-0.48 c 0.59,0 1.22,-0.25 1.69,-0.88 l 0,-3.65 c -0.6,-0.87 -1.33,-1.06 -1.85,-1.06 -1.78,0 -1.78,1.82 -1.78,2.77 0,0.67 0,1.39 0.32,1.94 0.44,0.8 1.29,0.88 1.62,0.88 l -0.17,0.48 c -2.04,0 -3.49,-1.26 -3.49,-3.27 0,-2.05 1.42,-3.27 3.33,-3.27 0.79,0 1.46,0.27 2.02,0.74 l 0,-0.74 2.56,0.08 0,0.62 c -0.89,0 -0.99,0 -0.99,0.56 l 0,8.78 z"
         id="path5398" /><path
         style="fill:#000000;stroke-width:0"
         inkscape:connector-curvature="0"
         d="m 246.2,717.08 -2.48,-0.12 0,-0.61 c 0.89,0 0.99,0 0.99,-0.56 l 0,-8.05 -0.99,0 0,-0.62 c 0.33,0.03 1.35,0.03 1.74,0.03 0.38,0 1.4,0 1.73,-0.03 l 0,0.62 -0.99,0 z"
         id="path5400" /><path
         style="fill:#000000;stroke-width:0"
         inkscape:connector-curvature="0"
         d="m 254.06,710.29 0.03,0 0.03,0 0.03,0 0.02,0 0.03,0 0.02,0.01 0.02,0 0.02,0 0.02,0 0.02,0 0.02,0.01 0.02,0 0.01,0.01 0.02,0 0.01,0.01 0.01,0.01 0.01,0.01 0.01,0.01 0.01,0.01 0.01,0.01 0.01,0.01 0.01,0.02 0,0.01 0,0.01 0,0.01 0.01,0 0,0.01 0,0.01 0,0.01 0.01,0.02 0,0.01 0,0.01 0,0.01 0,0.01 0,0.02 0,0.01 0,0.01 0,0.02 0.01,0.01 0,0.02 0,0.02 0,0.01 c 0,0.43 -0.1,1.51 -0.77,2.18 -0.6,0.6 -1.4,0.79 -2.23,0.79 -2.24,0 -3.46,-1.46 -3.46,-3.27 0,-2.01 1.48,-3.31 3.64,-3.31 2.17,0 2.82,1.52 2.82,1.76 0,0.22 -0.22,0.22 -0.31,0.22 -0.22,0 -0.24,-0.05 -0.33,-0.23 -0.37,-0.94 -1.32,-1.24 -2,-1.24 -2.08,0 -2.1,1.94 -2.1,2.74 l 0,0.42 c 0.03,0.59 0.04,1.15 0.35,1.66 0.27,0.46 0.77,0.78 1.39,0.78 1.53,0 1.66,-1.72 1.68,-2.44 l -3.42,0 0,-0.42 z"
         id="path5402" /></g>    <path
       d="m 178.42477,311.6402 0,0 c 0,-23.63071 20.13491,-42.7872 44.97261,-42.7872 l 0,0 c 11.92747,0 23.36642,4.50794 31.8004,12.53208 8.43403,8.02417 13.17219,18.90723 13.17219,30.25512 l 0,0 c 0,23.6307 -20.13493,42.78718 -44.97259,42.78718 l 0,0 c -24.8377,0 -44.97261,-19.15648 -44.97261,-42.78718 z"
       id="path59-7-4-8"
       inkscape:connector-curvature="0"
       style="fill:none;fill-rule:evenodd;stroke:#000000;stroke-width:1;stroke-linecap:butt;stroke-linejoin:round;stroke-miterlimit:10;stroke-dasharray:none" />
    <g
       style="font-style:normal;font-variant:normal;font-weight:normal;font-stretch:normal;letter-spacing:normal;word-spacing:normal;text-anchor:start;fill:none;fill-opacity:1;fill-rule:evenodd;stroke:#000000;stroke-linecap:butt;stroke-linejoin:miter;stroke-miterlimit:10.43299961;stroke-dasharray:none;stroke-dashoffset:0;stroke-opacity:1"
       ns0:preamble="/home/piter/.config/inkscape/extensions/preambulo.ini"
       ns0:text="\\Large{\n\\textbf{Serve}\n}"
       word-spacing="normal"
       letter-spacing="normal"
       font-size-adjust="none"
       font-stretch="normal"
       font-weight="normal"
       font-variant="normal"
       font-style="normal"
       stroke-miterlimit="10.433"
       xml:space="preserve"
       transform="matrix(1,0,0,-1,174.44873,1001.6152)"
       id="content"><path
         style="fill:#000000;stroke-width:0"
         inkscape:connector-curvature="0"
         id="path4375"
         d="m 231.76,713.43 -0.07,0.02 -0.06,0.02 -0.06,0.01 -0.06,0.02 -0.06,0.02 -0.06,0.02 -0.05,0.02 -0.05,0.02 -0.06,0.03 -0.04,0.02 -0.05,0.02 -0.05,0.03 -0.04,0.02 -0.04,0.03 -0.04,0.02 -0.04,0.03 -0.04,0.03 -0.04,0.03 -0.06,0.05 -0.06,0.06 -0.06,0.06 -0.05,0.06 -0.05,0.06 -0.04,0.06 -0.04,0.06 -0.03,0.06 -0.03,0.06 -0.03,0.06 -0.02,0.06 -0.02,0.05 -0.01,0.06 -0.02,0.05 -0.01,0.05 -0.01,0.05 0,0.04 -0.01,0.04 0,0.04 0,0.04 -0.01,0.03 0,0.02 0,0.02 c 0,0.74 0.48,1.58 1.87,1.58 1.39,0 2.64,-0.67 2.94,-2.55 0.04,-0.3 0.04,-0.32 0.31,-0.32 0.31,0 0.31,0.05 0.31,0.38 l 0,2.69 c 0,0.28 0,0.38 -0.22,0.38 -0.1,0 -0.14,-0.02 -0.27,-0.16 l -0.62,-0.7 c -0.36,0.3 -1.07,0.86 -2.47,0.86 -2.05,0 -3.14,-1.3 -3.14,-2.86 0,-0.96 0.52,-1.63 0.72,-1.83 0.74,-0.75 1.15,-0.84 2.64,-1.17 1.43,-0.31 1.61,-0.34 1.92,-0.64 0.19,-0.19 0.6,-0.59 0.6,-1.32 0,-0.62 -0.3,-1.75 -1.9,-1.75 -1.27,0 -3.26,0.43 -3.38,2.52 -0.01,0.26 -0.01,0.3 -0.3,0.3 -0.3,0 -0.3,-0.04 -0.3,-0.37 l 0,-2.7 c 0,-0.27 0,-0.37 0.22,-0.37 0.1,0 0.11,0.02 0.26,0.14 0.15,0.16 0.28,0.35 0.64,0.71 0.83,-0.66 2.01,-0.85 2.87,-0.85 2.24,0 3.19,1.52 3.19,3.04 0,1.35 -0.89,2.64 -2.46,3 z" /><path
         style="fill:#000000;stroke-width:0"
         inkscape:connector-curvature="0"
         id="path4377"
         d="m 243.57,710.29 0.03,0 0.03,0 0.02,0 0.03,0 0.02,0 0.03,0.01 0.02,0 0.02,0 0.02,0 0.02,0 0.02,0.01 0.01,0 0.02,0.01 0.01,0 0.02,0.01 0.01,0.01 0.01,0.01 0.01,0.01 0.01,0.01 0.01,0.01 0.01,0.01 0,0.01 0,0.01 0.01,0.01 0,0.01 0,0.01 0,0 0.01,0.01 0,0.01 0,0.01 0,0.02 0,0.01 0.01,0.01 0,0.01 0,0.01 0,0.02 0,0.01 0,0.01 0,0.02 0,0.01 0,0.02 0,0.02 0,0.01 c 0,0.43 -0.1,1.51 -0.76,2.18 -0.6,0.6 -1.4,0.79 -2.23,0.79 -2.24,0 -3.46,-1.46 -3.46,-3.27 0,-2.01 1.48,-3.31 3.64,-3.31 2.17,0 2.81,1.52 2.81,1.76 0,0.22 -0.21,0.22 -0.3,0.22 -0.23,0 -0.24,-0.05 -0.33,-0.23 -0.37,-0.94 -1.32,-1.24 -2.01,-1.24 -2.08,0 -2.09,1.94 -2.09,2.74 l 0,0.42 c 0.03,0.59 0.04,1.15 0.34,1.66 0.28,0.46 0.78,0.78 1.4,0.78 1.53,0 1.66,-1.72 1.67,-2.44 l -3.41,0 0,-0.42 z" /><path
         style="fill:#000000;stroke-width:0"
         inkscape:connector-curvature="0"
         id="path4379"
         d="m 247.43,710.35 0,0.02 0,0.03 0,0.03 0,0.03 0.01,0.07 0,0.07 0,0.09 0.01,0.09 0.01,0.1 0.01,0.1 0.02,0.11 0.02,0.11 0.02,0.11 0.02,0.12 0.03,0.12 0.03,0.12 0.04,0.12 0.04,0.12 0.05,0.11 0.05,0.12 0.06,0.11 0.06,0.11 0.07,0.1 0.07,0.1 0.09,0.09 0.04,0.05 0.04,0.04 0.05,0.04 0.05,0.04 0.05,0.04 0.05,0.03 0.06,0.03 0.05,0.03 0.06,0.03 0.06,0.03 0.06,0.02 0.07,0.02 0.06,0.02 0.07,0.01 0.07,0.01 0.08,0.01 0.07,0 0.08,0 c -0.2,-0.15 -0.3,-0.4 -0.3,-0.65 0,-0.59 0.47,-0.84 0.83,-0.84 0.36,0 0.83,0.25 0.83,0.84 0,0.73 -0.74,1.13 -1.43,1.13 -1.13,0 -1.62,-0.99 -1.82,-1.59 l -0.02,0 0,1.59 -2.35,-0.12 0,-0.61 c 0.89,0 0.99,0 0.99,-0.56 l 0,-4.55 -0.99,0 0,-0.62 c 0.33,0.03 1.41,0.03 1.81,0.03 0.41,0 1.58,0 1.92,-0.03 l 0,0.62 -1.25,0 z" /><path
         style="fill:#000000;stroke-width:0"
         inkscape:connector-curvature="0"
         id="path4381"
         d="m 258.14,712.54 0.02,0.04 0.02,0.04 0.01,0.02 0.01,0.02 0.01,0.01 0.01,0.02 0.02,0.01 0.01,0.02 0.02,0.01 0.01,0.01 0.02,0.02 0.02,0.01 0.03,0.01 0.02,0.01 0.03,0.01 0.03,0.01 0.03,0.01 0.04,0.01 0.03,0.01 0.03,0 0.02,0 0.02,0.01 0.02,0 0.03,0 0.02,0 0.03,0.01 0.02,0 0.03,0 0.03,0 0.03,0 0.03,0.01 0.03,0 0.03,0 0.04,0 0.03,0 0.04,0 0.03,0 0.04,0 0.04,0 0.04,0 0.04,0.01 0,0.61 c -0.51,-0.03 -0.54,-0.03 -1.13,-0.03 -0.39,0 -0.42,0 -1.23,0.03 l 0,-0.61 c 0.38,0 0.7,-0.08 0.7,-0.18 0,-0.01 0,-0.03 -0.07,-0.17 l -1.68,-3.69 -1.85,4.04 0.79,0 0,0.61 c -0.33,-0.03 -1.34,-0.03 -1.72,-0.03 -0.42,0 -1.25,0 -1.63,0.03 l 0,-0.61 0.91,0 2.52,-5.48 c 0.13,-0.28 0.16,-0.35 0.49,-0.35 0.23,0 0.35,0.03 0.47,0.32 z" /><path
         style="fill:#000000;stroke-width:0"
         inkscape:connector-curvature="0"
         id="path4383"
         d="m 265.59,710.29 0.03,0 0.03,0 0.03,0 0.03,0 0.02,0 0.03,0.01 0.02,0 0.02,0 0.02,0 0.02,0 0.01,0.01 0.02,0 0.02,0.01 0.01,0 0.01,0.01 0.02,0.01 0.01,0.01 0.01,0.01 0.01,0.01 0.01,0.01 0,0.01 0.01,0.02 0,0.01 0.01,0.01 0,0.01 0,0 0,0.01 0.01,0.01 0,0.01 0,0.02 0,0.01 0,0.01 0.01,0.01 0,0.01 0,0.02 0,0.01 0,0.01 0,0.02 0,0.01 0,0.02 0,0.02 0,0.01 c 0,0.43 -0.1,1.51 -0.76,2.18 -0.6,0.6 -1.41,0.79 -2.24,0.79 -2.24,0 -3.46,-1.46 -3.46,-3.27 0,-2.01 1.48,-3.31 3.65,-3.31 2.16,0 2.81,1.52 2.81,1.76 0,0.22 -0.21,0.22 -0.3,0.22 -0.23,0 -0.25,-0.05 -0.33,-0.23 -0.37,-0.94 -1.32,-1.24 -2.01,-1.24 -2.08,0 -2.09,1.94 -2.09,2.74 l 0,0.42 c 0.02,0.59 0.04,1.15 0.34,1.66 0.27,0.46 0.77,0.78 1.39,0.78 1.54,0 1.67,-1.72 1.68,-2.44 l -3.41,0 0,-0.42 z" /></g>    <g
       id="g4627"
       transform="matrix(1,0,0,-1,-26.533805,1043.7238)"
       xml:space="preserve"
       stroke-miterlimit="10.433"
       font-style="normal"
       font-variant="normal"
       font-weight="normal"
       font-stretch="normal"
       font-size-adjust="none"
       letter-spacing="normal"
       word-spacing="normal"
       ns0:text="\\Large{\n$t_a = \\infty$\n}"
       ns0:preamble="/home/piter/.config/inkscape/extensions/preambulo.ini"
       style="font-style:normal;font-variant:normal;font-weight:normal;font-stretch:normal;letter-spacing:normal;word-spacing:normal;text-anchor:start;fill:none;fill-opacity:1;fill-rule:evenodd;stroke:#000000;stroke-linecap:butt;stroke-linejoin:miter;stroke-miterlimit:10.43299961;stroke-dasharray:none;stroke-dashoffset:0;stroke-opacity:1"><path
         style="fill:#000000;stroke-width:0"
         inkscape:connector-curvature="0"
         d="m 231,712.89 1.32,0 c 0.27,0 0.41,0 0.41,0.26 0,0.16 -0.08,0.16 -0.37,0.16 l -1.26,0 0.53,2.09 c 0.05,0.2 0.05,0.23 0.05,0.33 0,0.23 -0.18,0.36 -0.37,0.36 -0.11,0 -0.44,-0.04 -0.56,-0.5 l -0.56,-2.28 -1.35,0 c -0.28,0 -0.41,0 -0.41,-0.28 0,-0.14 0.1,-0.14 0.37,-0.14 l 1.28,0 -0.95,-3.79 c -0.11,-0.5 -0.16,-0.64 -0.16,-0.83 0,-0.67 0.48,-1.29 1.28,-1.29 1.45,0 2.22,2.09 2.22,2.19 0,0.09 -0.05,0.13 -0.14,0.13 -0.03,0 -0.09,0 -0.11,-0.05 -0.02,-0.02 -0.03,-0.03 -0.13,-0.26 -0.3,-0.72 -0.97,-1.72 -1.8,-1.72 -0.43,0 -0.46,0.35 -0.46,0.67 0,0.02 0,0.29 0.05,0.46 z"
         id="path4629" /><path
         style="fill:#000000;stroke-width:0"
         inkscape:connector-curvature="0"
         d="m 236.91,708.74 -0.02,0.03 -0.02,0.03 -0.02,0.04 -0.02,0.03 -0.02,0.03 -0.02,0.03 -0.02,0.03 -0.02,0.03 -0.02,0.03 -0.03,0.03 -0.02,0.02 -0.02,0.03 -0.03,0.02 -0.03,0.03 -0.02,0.02 -0.03,0.02 -0.03,0.02 -0.03,0.02 -0.03,0.02 -0.03,0.02 -0.03,0.01 -0.04,0.02 -0.03,0.01 -0.03,0.02 -0.04,0.01 -0.03,0.01 -0.04,0 -0.04,0.01 -0.04,0.01 -0.04,0 -0.04,0 -0.04,0 0.01,-0.22 c 0.65,0 0.79,-0.81 0.79,-0.87 0,-0.06 -0.02,-0.12 -0.03,-0.17 l -0.5,-1.95 c -0.05,-0.18 -0.05,-0.2 -0.2,-0.37 -0.44,-0.55 -0.85,-0.71 -1.13,-0.71 -0.5,0 -0.63,0.55 -0.63,0.94 0,0.49 0.32,1.72 0.54,2.18 0.31,0.59 0.76,0.95 1.16,0.95 l -0.01,0.22 c -1.17,0 -2.4,-1.46 -2.4,-2.92 0,-0.93 0.55,-1.59 1.32,-1.59 0.2,0 0.7,0.04 1.3,0.75 0.08,-0.42 0.43,-0.75 0.91,-0.75 0.34,0 0.57,0.23 0.73,0.55 0.17,0.36 0.3,0.97 0.3,0.99 0,0.09 -0.09,0.09 -0.12,0.09 -0.1,0 -0.11,-0.04 -0.14,-0.17 -0.17,-0.65 -0.35,-1.24 -0.76,-1.24 -0.26,0 -0.29,0.26 -0.29,0.46 0,0.22 0.02,0.3 0.13,0.74 0.1,0.41 0.13,0.51 0.21,0.89 l 0.36,1.4 c 0.07,0.27 0.07,0.29 0.07,0.34 0,0.17 -0.12,0.26 -0.29,0.26 -0.23,0 -0.38,-0.21 -0.41,-0.43 z"
         id="path4631" /><path
         style="fill:#000000;stroke-width:0"
         inkscape:connector-curvature="0"
         d="m 252.62,711.77 0.03,0 0.04,0 0.04,0 0.02,0 0.02,0.01 0.02,0 0.02,0 0.02,0 0.02,0 0.02,0.01 0.02,0 0.01,0.01 0.02,0 0.02,0.01 0.01,0.01 0.02,0 0.01,0.01 0.02,0.01 0.01,0.01 0.01,0.02 0.01,0.01 0.01,0.01 0,0 0.01,0.01 0,0.01 0,0.01 0.01,0.01 0,0 0,0.01 0.01,0.01 0,0.01 0,0.01 0,0.01 0,0.01 0,0.02 0,0.01 0,0.01 c 0,0.27 -0.24,0.27 -0.45,0.27 l -8.45,0 c -0.21,0 -0.46,0 -0.46,-0.26 0,-0.27 0.24,-0.27 0.46,-0.27 z"
         id="path4633" /><path
         style="fill:#000000;stroke-width:0"
         inkscape:connector-curvature="0"
         d="m 252.62,709.1 0.03,0 0.04,0 0.04,0 0.02,0 0.02,0.01 0.02,0 0.02,0 0.02,0 0.02,0.01 0.02,0 0.02,0 0.01,0.01 0.02,0 0.02,0.01 0.01,0.01 0.02,0.01 0.01,0.01 0.02,0.01 0.01,0.01 0.01,0.01 0.01,0.01 0.01,0.01 0,0.01 0.01,0 0,0.01 0,0.01 0.01,0.01 0,0.01 0,0.01 0.01,0 0,0.01 0,0.01 0,0.02 0,0.01 0,0.01 0,0.01 0,0.01 c 0,0.27 -0.24,0.27 -0.45,0.27 l -8.45,0 c -0.21,0 -0.46,0 -0.46,-0.25 0,-0.28 0.24,-0.28 0.46,-0.28 z"
         id="path4635" /><path
         style="fill:#000000;stroke-width:0"
         inkscape:connector-curvature="0"
         d="m 265.14,711.01 -0.07,0.09 -0.07,0.08 -0.06,0.09 -0.07,0.07 -0.05,0.08 -0.06,0.06 -0.05,0.07 -0.05,0.06 -0.05,0.06 -0.05,0.06 -0.04,0.05 -0.05,0.05 -0.04,0.05 -0.04,0.05 -0.03,0.04 -0.04,0.05 -0.04,0.04 -0.03,0.04 -0.04,0.03 -0.03,0.04 -0.07,0.07 -0.07,0.06 -0.07,0.07 -0.07,0.06 -0.07,0.06 -0.04,0.04 -0.04,0.03 c -0.81,0.65 -1.61,0.9 -2.34,0.9 -1.68,0 -2.77,-1.57 -2.77,-3.25 l 0.31,0 c 0,1.4 0.97,2.57 2.23,2.57 0.83,0 1.48,-0.61 1.78,-0.91 0.36,-0.39 0.69,-0.83 1.56,-1.96 l 0,0 c -0.59,-1.04 -1.65,-2.49 -3.27,-2.49 -1.52,0 -2.3,1.5 -2.3,2.79 l -0.31,0 c 0,-1.65 1.06,-3.24 2.71,-3.24 1.65,0 2.84,1.3 3.54,2.45 0.78,-0.98 0.95,-1.19 1.4,-1.55 0.8,-0.65 1.6,-0.9 2.33,-0.9 1.68,0 2.77,1.57 2.77,3.25 l -0.31,0 c 0,-1.4 -0.96,-2.57 -2.23,-2.57 -0.83,0 -1.47,0.61 -1.77,0.91 -0.36,0.39 -0.69,0.83 -1.57,1.96 l 0,0 c 0.59,1.03 1.65,2.48 3.27,2.48 1.52,0 2.3,-1.49 2.3,-2.78 l 0.31,0 c 0,1.65 -1.06,3.24 -2.71,3.24 -1.65,0 -2.84,-1.3 -3.54,-2.45 z"
         id="path4637" /></g>    <g
       id="g6918"
       transform="matrix(1,0,0,-1,175.68085,1042.6157)"
       xml:space="preserve"
       stroke-miterlimit="10.433"
       font-style="normal"
       font-variant="normal"
       font-weight="normal"
       font-stretch="normal"
       font-size-adjust="none"
       letter-spacing="normal"
       word-spacing="normal"
       ns0:text="\\Large{\n$t_a = 0$\n}"
       ns0:preamble="/home/piter/.config/inkscape/extensions/preambulo.ini"
       style="font-style:normal;font-variant:normal;font-weight:normal;font-stretch:normal;letter-spacing:normal;word-spacing:normal;text-anchor:start;fill:none;fill-opacity:1;fill-rule:evenodd;stroke:#000000;stroke-linecap:butt;stroke-linejoin:miter;stroke-miterlimit:10.43299961;stroke-dasharray:none;stroke-dashoffset:0;stroke-opacity:1"><path
         style="fill:#000000;stroke-width:0"
         inkscape:connector-curvature="0"
         d="m 231,712.89 1.32,0 c 0.27,0 0.41,0 0.41,0.26 0,0.16 -0.08,0.16 -0.37,0.16 l -1.26,0 0.53,2.09 c 0.05,0.2 0.05,0.23 0.05,0.33 0,0.23 -0.18,0.36 -0.37,0.36 -0.11,0 -0.44,-0.04 -0.56,-0.5 l -0.56,-2.28 -1.35,0 c -0.28,0 -0.41,0 -0.41,-0.28 0,-0.14 0.1,-0.14 0.37,-0.14 l 1.28,0 -0.95,-3.79 c -0.11,-0.5 -0.16,-0.64 -0.16,-0.83 0,-0.67 0.48,-1.29 1.28,-1.29 1.45,0 2.22,2.09 2.22,2.19 0,0.09 -0.05,0.13 -0.14,0.13 -0.03,0 -0.09,0 -0.11,-0.05 -0.02,-0.02 -0.03,-0.03 -0.13,-0.26 -0.3,-0.72 -0.97,-1.72 -1.8,-1.72 -0.43,0 -0.46,0.35 -0.46,0.67 0,0.02 0,0.29 0.05,0.46 z"
         id="path6920" /><path
         style="fill:#000000;stroke-width:0"
         inkscape:connector-curvature="0"
         d="m 236.91,708.74 -0.02,0.03 -0.02,0.03 -0.02,0.04 -0.02,0.03 -0.02,0.03 -0.02,0.03 -0.02,0.03 -0.02,0.03 -0.02,0.03 -0.03,0.03 -0.02,0.02 -0.02,0.03 -0.03,0.02 -0.03,0.03 -0.02,0.02 -0.03,0.02 -0.03,0.02 -0.03,0.02 -0.03,0.02 -0.03,0.02 -0.03,0.01 -0.04,0.02 -0.03,0.01 -0.03,0.02 -0.04,0.01 -0.03,0.01 -0.04,0 -0.04,0.01 -0.04,0.01 -0.04,0 -0.04,0 -0.04,0 0.01,-0.22 c 0.65,0 0.79,-0.81 0.79,-0.87 0,-0.06 -0.02,-0.12 -0.03,-0.17 l -0.5,-1.95 c -0.05,-0.18 -0.05,-0.2 -0.2,-0.37 -0.44,-0.55 -0.85,-0.71 -1.13,-0.71 -0.5,0 -0.63,0.55 -0.63,0.94 0,0.49 0.32,1.72 0.54,2.18 0.31,0.59 0.76,0.95 1.16,0.95 l -0.01,0.22 c -1.17,0 -2.4,-1.46 -2.4,-2.92 0,-0.93 0.55,-1.59 1.32,-1.59 0.2,0 0.7,0.04 1.3,0.75 0.08,-0.42 0.43,-0.75 0.91,-0.75 0.34,0 0.57,0.23 0.73,0.55 0.17,0.36 0.3,0.97 0.3,0.99 0,0.09 -0.09,0.09 -0.12,0.09 -0.1,0 -0.11,-0.04 -0.14,-0.17 -0.17,-0.65 -0.35,-1.24 -0.76,-1.24 -0.26,0 -0.29,0.26 -0.29,0.46 0,0.22 0.02,0.3 0.13,0.74 0.1,0.41 0.13,0.51 0.21,0.89 l 0.36,1.4 c 0.07,0.27 0.07,0.29 0.07,0.34 0,0.17 -0.12,0.26 -0.29,0.26 -0.23,0 -0.38,-0.21 -0.41,-0.43 z"
         id="path6922" /><path
         style="fill:#000000;stroke-width:0"
         inkscape:connector-curvature="0"
         d="m 252.62,711.77 0.03,0 0.04,0 0.04,0 0.02,0 0.02,0.01 0.02,0 0.02,0 0.02,0 0.02,0 0.02,0.01 0.02,0 0.01,0.01 0.02,0 0.02,0.01 0.01,0.01 0.02,0 0.01,0.01 0.02,0.01 0.01,0.01 0.01,0.02 0.01,0.01 0.01,0.01 0,0 0.01,0.01 0,0.01 0,0.01 0.01,0.01 0,0 0,0.01 0.01,0.01 0,0.01 0,0.01 0,0.01 0,0.01 0,0.02 0,0.01 0,0.01 c 0,0.27 -0.24,0.27 -0.45,0.27 l -8.45,0 c -0.21,0 -0.46,0 -0.46,-0.26 0,-0.27 0.24,-0.27 0.46,-0.27 z"
         id="path6924" /><path
         style="fill:#000000;stroke-width:0"
         inkscape:connector-curvature="0"
         d="m 252.62,709.1 0.03,0 0.04,0 0.04,0 0.02,0 0.02,0.01 0.02,0 0.02,0 0.02,0 0.02,0.01 0.02,0 0.02,0 0.01,0.01 0.02,0 0.02,0.01 0.01,0.01 0.02,0.01 0.01,0.01 0.02,0.01 0.01,0.01 0.01,0.01 0.01,0.01 0.01,0.01 0,0.01 0.01,0 0,0.01 0,0.01 0.01,0.01 0,0.01 0,0.01 0.01,0 0,0.01 0,0.01 0,0.02 0,0.01 0,0.01 0,0.01 0,0.01 c 0,0.27 -0.24,0.27 -0.45,0.27 l -8.45,0 c -0.21,0 -0.46,0 -0.46,-0.25 0,-0.28 0.24,-0.28 0.46,-0.28 z"
         id="path6926" /><path
         style="fill:#000000;stroke-width:0"
         inkscape:connector-curvature="0"
         d="m 264.28,711.71 0,0.23 -0.01,0.22 0,0.22 -0.01,0.22 -0.02,0.22 -0.01,0.22 -0.03,0.22 -0.02,0.21 -0.04,0.22 -0.04,0.21 -0.05,0.21 -0.05,0.22 -0.07,0.21 -0.07,0.2 -0.08,0.21 -0.04,0.1 -0.05,0.11 c -0.59,1.19 -1.62,1.5 -2.33,1.5 -0.83,0 -1.85,-0.41 -2.38,-1.6 -0.4,-0.91 -0.54,-1.8 -0.54,-3.35 0,-1.39 0.1,-2.44 0.61,-3.45 0.56,-1.09 1.55,-1.44 2.3,-1.44 l 0,0.29 c -0.46,0 -1.39,0.26 -1.66,1.82 -0.16,0.86 -0.16,1.95 -0.16,2.96 0,1.17 0,2.23 0.23,3.08 0.24,0.96 0.97,1.41 1.59,1.41 0.55,0 1.38,-0.33 1.65,-1.57 0.19,-0.82 0.19,-1.95 0.19,-2.92 0,-0.97 0,-2.06 -0.16,-2.93 -0.27,-1.58 -1.18,-1.85 -1.68,-1.85 l 0,0 0,-0.29 c 1.25,0 1.97,0.75 2.38,1.58 0.52,1.07 0.55,2.48 0.55,3.31 z"
         id="path6928" /></g>    <g
       style="font-style:normal;font-variant:normal;font-weight:normal;font-stretch:normal;letter-spacing:normal;word-spacing:normal;text-anchor:start;fill:none;fill-opacity:1;fill-rule:evenodd;stroke:#000000;stroke-linecap:butt;stroke-linejoin:miter;stroke-miterlimit:10.43299961;stroke-dasharray:none;stroke-dashoffset:0;stroke-opacity:1"
       ns0:preamble="/home/piter/.config/inkscape/extensions/preambulo.ini"
       ns0:text="\\Large{\n\\textbf{Proveedor Fijo}\n}"
       word-spacing="normal"
       letter-spacing="normal"
       font-size-adjust="none"
       font-stretch="normal"
       font-weight="normal"
       font-variant="normal"
       font-style="normal"
       stroke-miterlimit="10.433"
       xml:space="preserve"
       transform="matrix(1,0,0,-1,180.77136,1138.5613)"
       id="g7273"><path
         id="path7275"
         d="m 232.07,711.5 -0.07,0.54 0,4.31 1.99,0 c 2.23,0 2.23,-1.18 2.23,-2.15 0,-0.95 0,-2.16 -2.23,-2.16 l -1.99,0 0.07,-0.54 2.44,0 c 2.4,0 3.73,1.22 3.73,2.7 0,1.54 -1.36,2.76 -3.73,2.76 l -5.85,0 0,-0.61 1.52,0 0,-8.61 -1.52,0 0,-0.62 c 0.41,0.03 1.95,0.03 2.46,0.03 0.52,0 2.06,0 2.47,-0.03 l 0,0.62 -1.52,0 z"
         inkscape:connector-curvature="0"
         style="fill:#000000;stroke-width:0" /><path
         id="path7277"
         d="m 242.12,710.35 0,0.02 0,0.03 0,0.03 0,0.03 0.01,0.07 0,0.07 0,0.09 0.01,0.09 0.01,0.1 0.01,0.1 0.02,0.11 0.02,0.11 0.02,0.11 0.02,0.12 0.03,0.12 0.03,0.12 0.04,0.12 0.04,0.12 0.05,0.11 0.05,0.12 0.06,0.11 0.06,0.11 0.07,0.1 0.07,0.1 0.09,0.09 0.04,0.05 0.04,0.04 0.05,0.04 0.05,0.04 0.05,0.04 0.05,0.03 0.06,0.03 0.05,0.03 0.06,0.03 0.06,0.03 0.06,0.02 0.07,0.02 0.06,0.02 0.07,0.01 0.07,0.01 0.08,0.01 0.07,0 0.08,0 c -0.2,-0.15 -0.3,-0.4 -0.3,-0.65 0,-0.59 0.47,-0.84 0.83,-0.84 0.36,0 0.83,0.25 0.83,0.84 0,0.73 -0.74,1.13 -1.43,1.13 -1.13,0 -1.62,-0.99 -1.82,-1.59 l -0.02,0 0,1.59 -2.35,-0.12 0,-0.61 c 0.89,0 0.99,0 0.99,-0.56 l 0,-4.55 -0.99,0 0,-0.62 c 0.33,0.03 1.41,0.03 1.81,0.03 0.41,0 1.57,0 1.92,-0.03 l 0,0.62 -1.25,0 z"
         inkscape:connector-curvature="0"
         style="fill:#000000;stroke-width:0" /><path
         id="path7279"
         d="m 253.33,710.26 0,0.18 -0.01,0.18 -0.02,0.17 -0.03,0.17 -0.03,0.17 -0.04,0.16 -0.05,0.16 -0.06,0.16 -0.06,0.15 -0.07,0.14 -0.08,0.14 -0.08,0.14 -0.09,0.13 -0.1,0.12 -0.11,0.12 -0.11,0.12 -0.12,0.11 -0.12,0.1 -0.13,0.1 -0.14,0.09 -0.14,0.08 -0.15,0.08 -0.16,0.07 -0.16,0.07 -0.17,0.06 -0.17,0.05 -0.18,0.04 -0.19,0.04 -0.19,0.02 -0.2,0.02 -0.2,0.02 -0.21,0 -0.01,-0.47 c 0.82,0 1.33,-0.39 1.57,-0.79 0.29,-0.52 0.29,-1.26 0.29,-1.95 0,-1.19 0,-2.86 -1.85,-2.86 l 0,0 c -1.86,0 -1.86,1.68 -1.86,2.86 0,0.67 0,1.39 0.27,1.91 0.31,0.57 0.96,0.83 1.58,0.83 l 0.01,0.47 c -2.34,0 -3.58,-1.49 -3.58,-3.36 0,-1.87 1.31,-3.22 3.57,-3.22 2.34,0 3.58,1.42 3.58,3.22 z"
         inkscape:connector-curvature="0"
         style="fill:#000000;stroke-width:0" /><path
         id="path7281"
         d="m 260.46,712.54 0.02,0.04 0.02,0.04 0.01,0.02 0.01,0.02 0.01,0.01 0.01,0.02 0.01,0.01 0.02,0.02 0.01,0.01 0.02,0.01 0.02,0.02 0.02,0.01 0.02,0.01 0.03,0.01 0.03,0.01 0.03,0.01 0.03,0.01 0.03,0.01 0.04,0.01 0.02,0 0.02,0 0.03,0.01 0.02,0 0.02,0 0.03,0 0.02,0.01 0.03,0 0.03,0 0.03,0 0.03,0 0.03,0.01 0.03,0 0.03,0 0.03,0 0.04,0 0.03,0 0.04,0 0.04,0 0.04,0 0.04,0 0.04,0.01 0,0.61 c -0.52,-0.03 -0.54,-0.03 -1.13,-0.03 -0.39,0 -0.42,0 -1.24,0.03 l 0,-0.61 c 0.39,0 0.71,-0.08 0.71,-0.18 0,-0.01 0,-0.03 -0.07,-0.17 l -1.68,-3.69 -1.85,4.04 0.78,0 0,0.61 c -0.33,-0.03 -1.33,-0.03 -1.72,-0.03 -0.41,0 -1.25,0 -1.62,0.03 l 0,-0.61 0.91,0 2.52,-5.48 c 0.13,-0.28 0.16,-0.35 0.49,-0.35 0.23,0 0.34,0.03 0.47,0.32 z"
         inkscape:connector-curvature="0"
         style="fill:#000000;stroke-width:0" /><path
         id="path7283"
         d="m 267.91,710.29 0.03,0 0.03,0 0.03,0 0.02,0 0.03,0 0.02,0.01 0.03,0 0.02,0 0.02,0 0.01,0 0.02,0.01 0.02,0 0.01,0.01 0.02,0 0.01,0.01 0.01,0.01 0.02,0.01 0.01,0.01 0,0.01 0.01,0.01 0.01,0.01 0,0.01 0.01,0.01 0,0.01 0,0.01 0.01,0.01 0,0 0,0.01 0,0.01 0.01,0.01 0,0.02 0,0.01 0,0.01 0,0.01 0,0.01 0,0.02 0.01,0.01 0,0.01 0,0.02 0,0.01 0,0.02 0,0.02 0,0.01 c 0,0.43 -0.1,1.51 -0.76,2.18 -0.61,0.6 -1.41,0.79 -2.24,0.79 -2.24,0 -3.46,-1.46 -3.46,-3.27 0,-2.01 1.48,-3.31 3.65,-3.31 2.16,0 2.81,1.52 2.81,1.76 0,0.22 -0.22,0.22 -0.3,0.22 -0.23,0 -0.25,-0.05 -0.33,-0.23 -0.38,-0.94 -1.32,-1.24 -2.01,-1.24 -2.08,0 -2.1,1.94 -2.1,2.74 l 0,0.42 c 0.03,0.59 0.05,1.15 0.35,1.66 0.27,0.46 0.77,0.78 1.39,0.78 1.53,0 1.66,-1.72 1.68,-2.44 l -3.42,0 0,-0.42 z"
         inkscape:connector-curvature="0"
         style="fill:#000000;stroke-width:0" /><path
         id="path7285"
         d="m 275.28,710.29 0.03,0 0.03,0 0.02,0 0.03,0 0.02,0 0.03,0.01 0.02,0 0.02,0 0.02,0 0.02,0 0.02,0.01 0.01,0 0.02,0.01 0.01,0 0.02,0.01 0.01,0.01 0.01,0.01 0.01,0.01 0.01,0.01 0.01,0.01 0.01,0.01 0,0.01 0,0.01 0.01,0.01 0,0.01 0,0.01 0,0 0.01,0.01 0,0.01 0,0.01 0,0.02 0,0.01 0.01,0.01 0,0.01 0,0.01 0,0.02 0,0.01 0,0.01 0,0.02 0,0.01 0,0.02 0,0.02 0,0.01 c 0,0.43 -0.1,1.51 -0.76,2.18 -0.6,0.6 -1.4,0.79 -2.23,0.79 -2.24,0 -3.46,-1.46 -3.46,-3.27 0,-2.01 1.47,-3.31 3.64,-3.31 2.17,0 2.81,1.52 2.81,1.76 0,0.22 -0.21,0.22 -0.3,0.22 -0.23,0 -0.24,-0.05 -0.33,-0.23 -0.37,-0.94 -1.32,-1.24 -2.01,-1.24 -2.08,0 -2.09,1.94 -2.09,2.74 l 0,0.42 c 0.03,0.59 0.04,1.15 0.34,1.66 0.28,0.46 0.78,0.78 1.4,0.78 1.53,0 1.66,-1.72 1.67,-2.44 l -3.41,0 0,-0.42 z"
         inkscape:connector-curvature="0"
         style="fill:#000000;stroke-width:0" /><path
         id="path7287"
         d="m 281.14,716.96 0,-0.61 c 0.88,0 0.99,0 0.99,-0.56 l 0,-2.9 c -0.32,0.27 -0.95,0.69 -1.94,0.69 l 0.17,-0.48 c 0.59,0 1.22,-0.25 1.69,-0.88 l 0,-3.65 c -0.6,-0.87 -1.33,-1.06 -1.85,-1.06 -1.78,0 -1.78,1.82 -1.78,2.77 0,0.67 0,1.39 0.32,1.94 0.44,0.8 1.29,0.88 1.62,0.88 l -0.17,0.48 c -2.04,0 -3.49,-1.26 -3.49,-3.27 0,-2.05 1.42,-3.27 3.33,-3.27 0.79,0 1.46,0.27 2.02,0.74 l 0,-0.74 2.56,0.08 0,0.62 c -0.89,0 -0.99,0 -0.99,0.56 l 0,8.78 z"
         inkscape:connector-curvature="0"
         style="fill:#000000;stroke-width:0" /><path
         id="path7289"
         d="m 292.72,710.26 0,0.18 -0.01,0.18 -0.02,0.17 -0.03,0.17 -0.03,0.17 -0.04,0.16 -0.05,0.16 -0.06,0.16 -0.06,0.15 -0.07,0.14 -0.08,0.14 -0.08,0.14 -0.09,0.13 -0.1,0.12 -0.11,0.12 -0.11,0.12 -0.12,0.11 -0.12,0.1 -0.13,0.1 -0.14,0.09 -0.14,0.08 -0.15,0.08 -0.16,0.07 -0.16,0.07 -0.17,0.06 -0.17,0.05 -0.18,0.04 -0.19,0.04 -0.19,0.02 -0.2,0.02 -0.2,0.02 -0.21,0 -0.01,-0.47 c 0.81,0 1.33,-0.39 1.57,-0.79 0.29,-0.52 0.29,-1.26 0.29,-1.95 0,-1.19 0,-2.86 -1.85,-2.86 l 0,0 c -1.86,0 -1.86,1.68 -1.86,2.86 0,0.67 0,1.39 0.27,1.91 0.31,0.57 0.96,0.83 1.58,0.83 l 0.01,0.47 c -2.34,0 -3.58,-1.49 -3.58,-3.36 0,-1.87 1.32,-3.22 3.57,-3.22 2.34,0 3.58,1.42 3.58,3.22 z"
         inkscape:connector-curvature="0"
         style="fill:#000000;stroke-width:0" /><path
         id="path7291"
         d="m 296.17,710.35 0,0.02 0,0.03 0,0.03 0.01,0.03 0,0.07 0,0.07 0.01,0.09 0,0.09 0.01,0.1 0.02,0.1 0.01,0.11 0.02,0.11 0.02,0.11 0.02,0.12 0.03,0.12 0.04,0.12 0.03,0.12 0.04,0.12 0.05,0.11 0.05,0.12 0.06,0.11 0.06,0.11 0.07,0.1 0.08,0.1 0.08,0.09 0.04,0.05 0.05,0.04 0.04,0.04 0.05,0.04 0.05,0.04 0.06,0.03 0.05,0.03 0.06,0.03 0.05,0.03 0.06,0.03 0.07,0.02 0.06,0.02 0.07,0.02 0.07,0.01 0.07,0.01 0.07,0.01 0.08,0 0.07,0 c -0.2,-0.15 -0.3,-0.4 -0.3,-0.65 0,-0.59 0.47,-0.84 0.83,-0.84 0.36,0 0.84,0.25 0.84,0.84 0,0.73 -0.75,1.13 -1.44,1.13 -1.13,0 -1.62,-0.99 -1.82,-1.59 l -0.01,0 0,1.59 -2.36,-0.12 0,-0.61 c 0.89,0 0.99,0 0.99,-0.56 l 0,-4.55 -0.99,0 0,-0.62 c 0.33,0.03 1.41,0.03 1.81,0.03 0.42,0 1.58,0 1.92,-0.03 l 0,0.62 -1.25,0 z"
         inkscape:connector-curvature="0"
         style="fill:#000000;stroke-width:0" /><path
         id="path7293"
         d="m 314.21,716.89 -8.5,0 0,-0.61 1.52,0 0,-8.54 -1.52,0 0,-0.62 c 0.42,0.03 2.05,0.03 2.59,0.03 0.75,0 2.03,0 2.74,-0.03 l 0,0.62 -1.91,0 0,3.96 0.79,0 c 1.37,0 1.49,-0.63 1.49,-1.68 l 0.6,0 0,3.97 -0.6,0 c 0,-1.04 -0.12,-1.67 -1.49,-1.67 l -0.79,0 0,3.96 2.05,0 c 2.28,0 2.64,-1.05 2.84,-2.79 l 0.6,0 z"
         inkscape:connector-curvature="0"
         style="fill:#000000;stroke-width:0" /><path
         id="path7295"
         d="m 318.51,716.06 0,0.05 -0.01,0.06 -0.01,0.05 0,0.05 -0.02,0.05 -0.01,0.05 -0.02,0.05 -0.02,0.05 -0.02,0.05 -0.02,0.04 -0.03,0.04 -0.02,0.05 -0.03,0.04 -0.03,0.03 -0.04,0.04 -0.03,0.04 -0.04,0.03 -0.03,0.03 -0.04,0.03 -0.04,0.03 -0.05,0.03 -0.04,0.02 -0.04,0.02 -0.05,0.02 -0.05,0.02 -0.04,0.02 -0.05,0.01 -0.05,0.01 -0.05,0.01 -0.05,0.01 -0.05,0 -0.06,0 c -0.58,0 -1.03,-0.49 -1.03,-1.03 0,-0.54 0.45,-1.03 1.03,-1.03 0.56,0 1.04,0.44 1.04,1.03 z"
         inkscape:connector-curvature="0"
         style="fill:#000000;stroke-width:0" /><path
         id="path7297"
         d="m 315.98,713.46 0,-0.61 c 0.85,0 0.95,0 0.95,-0.56 l 0,-4.55 -0.99,0 0,-0.62 c 0.33,0.03 1.32,0.03 1.71,0.03 0.4,0 1.32,0 1.66,-0.03 l 0,0.62 -0.89,0 0,5.84 z"
         inkscape:connector-curvature="0"
         style="fill:#000000;stroke-width:0" /><path
         id="path7299"
         d="m 323.49,716.06 0,0.05 0,0.06 -0.01,0.05 -0.01,0.05 -0.01,0.05 -0.01,0.05 -0.02,0.05 -0.02,0.04 -0.02,0.05 -0.02,0.04 -0.02,0.05 -0.03,0.04 -0.03,0.04 -0.03,0.04 -0.03,0.04 -0.04,0.03 -0.03,0.04 -0.04,0.03 -0.04,0.03 -0.04,0.03 -0.04,0.02 -0.05,0.03 -0.04,0.02 -0.05,0.02 -0.04,0.02 -0.05,0.02 -0.05,0.01 -0.05,0.01 -0.05,0.01 -0.05,0.01 -0.06,0 -0.05,0 c -0.57,0 -1.03,-0.46 -1.03,-1.03 0,-0.57 0.46,-1.03 1.03,-1.03 0.58,0 1.03,0.46 1.03,1.03 z"
         inkscape:connector-curvature="0"
         style="fill:#000000;stroke-width:0" /><path
         id="path7301"
         d="m 320.91,713.46 0,-0.61 c 0.24,0 0.56,0 0.78,-0.03 0.31,-0.06 0.31,-0.25 0.31,-0.55 l 0,-5.79 c 0,-0.65 -0.17,-1.75 -1.05,-1.75 -0.27,0 -0.46,0.05 -0.58,0.08 0.07,0.05 0.36,0.28 0.36,0.71 0,0.51 -0.38,0.84 -0.85,0.84 -0.49,0 -0.85,-0.34 -0.85,-0.84 0,-0.84 0.89,-1.27 1.92,-1.27 1.21,0 2.54,0.75 2.54,2.23 l 0,7.1 z"
         inkscape:connector-curvature="0"
         style="fill:#000000;stroke-width:0" /><path
         id="path7303"
         d="m 332.33,710.26 0,0.18 -0.01,0.18 -0.02,0.17 -0.03,0.17 -0.03,0.17 -0.05,0.16 -0.04,0.16 -0.06,0.16 -0.06,0.15 -0.07,0.14 -0.08,0.14 -0.09,0.14 -0.09,0.13 -0.09,0.12 -0.11,0.12 -0.11,0.12 -0.12,0.11 -0.12,0.1 -0.13,0.1 -0.14,0.09 -0.14,0.08 -0.15,0.08 -0.16,0.07 -0.16,0.07 -0.17,0.06 -0.18,0.05 -0.18,0.04 -0.18,0.04 -0.19,0.02 -0.2,0.02 -0.2,0.02 -0.21,0 -0.02,-0.47 c 0.82,0 1.34,-0.39 1.58,-0.79 0.29,-0.52 0.29,-1.26 0.29,-1.95 0,-1.19 0,-2.86 -1.85,-2.86 l 0,0 c -1.87,0 -1.87,1.68 -1.87,2.86 0,0.67 0,1.39 0.28,1.91 0.31,0.57 0.96,0.83 1.57,0.83 l 0.02,0.47 c -2.34,0 -3.59,-1.49 -3.59,-3.36 0,-1.87 1.32,-3.22 3.57,-3.22 2.34,0 3.59,1.42 3.59,3.22 z"
         inkscape:connector-curvature="0"
         style="fill:#000000;stroke-width:0" /></g>    <g
       id="g7466"
       transform="matrix(1,0,0,-1,65.172403,938.69646)"
       xml:space="preserve"
       stroke-miterlimit="10.433"
       font-style="normal"
       font-variant="normal"
       font-weight="normal"
       font-stretch="normal"
       font-size-adjust="none"
       letter-spacing="normal"
       word-spacing="normal"
       ns0:text="\\Large{\\texttt{pedido?} n}"
       ns0:preamble="/home/piter/.config/inkscape/extensions/preambulo.ini"
       style="font-style:normal;font-variant:normal;font-weight:normal;font-stretch:normal;letter-spacing:normal;word-spacing:normal;text-anchor:start;fill:none;fill-opacity:1;fill-rule:evenodd;stroke:#000000;stroke-linecap:butt;stroke-linejoin:miter;stroke-miterlimit:10.43299961;stroke-dasharray:none;stroke-dashoffset:0;stroke-opacity:1"><path
         d="m 226.33,703.94 0.02,0 0.02,0 0.02,0 0.02,0 0.02,0 0.03,0 0.02,0 0.02,0 0.03,0.01 0.02,0 0.03,0 0.02,0.01 0.02,0.01 0.03,0 0.02,0.01 0.02,0.01 0.02,0.01 0.03,0.01 0.02,0.02 0.02,0.01 0.01,0.02 0.02,0.01 0.01,0.01 0.01,0.01 0.01,0.01 0,0.01 0.01,0.01 0.01,0.02 0,0.01 0.01,0.01 0,0.01 0.01,0.02 0,0.01 0.01,0.02 0,0.01 0,0.02 0.01,0.01 0,0.02 0,0.02 0,0.02 0,0.01 0,0.02 c 0,0.42 -0.37,0.42 -0.57,0.42 l -0.59,0 0,3.07 c 0.35,-0.39 0.88,-0.8 1.68,-0.8 l -0.07,0.83 c -1.08,0 -1.61,1.22 -1.61,1.93 l 0,1.14 c 0,0.82 0.81,1.62 1.74,1.62 1.03,0 1.86,-1.05 1.86,-2.34 0,-1.38 -0.97,-2.35 -1.99,-2.35 l 0.07,-0.83 c 1.52,0 2.86,1.36 2.86,3.18 0,1.77 -1.21,3.17 -2.7,3.17 -1.05,0 -1.71,-0.63 -1.84,-0.77 0,0.47 0,0.69 -0.57,0.69 l -0.95,0 c -0.2,0 -0.57,0 -0.57,-0.42 0,-0.42 0.37,-0.42 0.57,-0.42 l 0.59,0 0,-7.7 -0.59,0 c -0.2,0 -0.57,0 -0.57,-0.42 0,-0.41 0.37,-0.41 0.57,-0.41 z"
         id="path7468"
         inkscape:connector-curvature="0"
         style="fill:#000000;stroke-width:0" /><path
         d="m 236.78,709.88 0.06,0 0.05,0 0.03,0 0.03,0 0.02,0 0.03,0.01 0.02,0 0.03,0 0.02,0.01 0.02,0.01 0.03,0 0.02,0.01 0.02,0.01 0.02,0.01 0.02,0.02 0.02,0.01 0.02,0.02 0.01,0.02 0.02,0.02 0,0.01 0.01,0.01 0.01,0.01 0,0.01 0.01,0.02 0.01,0.01 0,0.02 0.01,0.01 0,0.02 0.01,0.01 0,0.02 0.01,0.02 0,0.01 0,0.02 0,0.02 0.01,0.02 0,0.02 0,0.02 0,0.03 0,0.02 0,0.02 0,0.03 c 0,1.68 -0.94,3.02 -2.74,3.02 -1.66,0 -2.99,-1.43 -2.99,-3.18 0,-1.81 1.45,-3.21 3.21,-3.21 1.85,0 2.52,1.27 2.52,1.65 0,0.08 -0.02,0.4 -0.47,0.4 -0.27,0 -0.36,-0.1 -0.44,-0.32 -0.36,-0.83 -1.29,-0.9 -1.57,-0.9 -1.19,0 -2.13,0.9 -2.29,2.01 l 0.01,0.79 c 0.19,1.22 1.12,1.93 2.02,1.93 1.44,0 1.74,-1.22 1.8,-1.93 l -3.82,0 -0.01,-0.79 z"
         id="path7470"
         inkscape:connector-curvature="0"
         style="fill:#000000;stroke-width:0" /><path
         d="m 244.2,715.3 0,0.04 0,0.04 -0.01,0.04 0,0.03 0,0.04 0,0.03 -0.01,0.03 0,0.03 -0.01,0.03 -0.01,0.02 -0.01,0.03 -0.01,0.02 -0.01,0.02 -0.01,0.02 -0.01,0.02 -0.02,0.02 -0.01,0.02 -0.02,0.01 -0.02,0.02 -0.02,0.01 -0.02,0.01 -0.03,0.01 -0.02,0.01 -0.03,0.01 -0.03,0.01 -0.03,0 -0.04,0.01 -0.03,0 -0.04,0 -0.04,0.01 -0.04,0 -0.02,0 -0.03,0 -0.94,0 c -0.2,0 -0.58,0 -0.58,-0.42 0,-0.41 0.38,-0.41 0.58,-0.41 l 0.58,0 0,-2.39 c -0.22,0.23 -0.81,0.72 -1.69,0.72 l 0.09,-0.83 c 0.93,0 1.6,-0.85 1.6,-1.59 l 0,-1.12 c 0,-0.81 -0.66,-1.98 -1.73,-1.98 -1.04,0 -1.87,1.05 -1.87,2.34 0,1.37 0.98,2.35 2,2.35 l -0.09,0.83 c -1.52,0 -2.84,-1.37 -2.84,-3.18 0,-1.77 1.23,-3.17 2.71,-3.17 0.94,0 1.55,0.56 1.82,0.87 0,-0.6 0,-0.79 0.58,-0.79 l 0.95,0 c 0.2,0 0.57,0 0.57,0.42 0,0.42 -0.37,0.42 -0.57,0.42 l -0.59,0 z"
         id="path7472"
         inkscape:connector-curvature="0"
         style="fill:#000000;stroke-width:0" /><path
         d="m 249.91,715.26 0,0.03 0,0.03 0,0.04 -0.01,0.03 -0.01,0.03 -0.01,0.03 -0.01,0.03 -0.01,0.03 -0.01,0.03 -0.01,0.03 -0.02,0.02 -0.02,0.03 -0.01,0.02 -0.02,0.03 -0.02,0.02 -0.03,0.02 -0.02,0.03 -0.02,0.02 -0.03,0.01 -0.02,0.02 -0.03,0.02 -0.02,0.01 -0.03,0.02 -0.03,0.01 -0.03,0.01 -0.03,0.01 -0.03,0.01 -0.03,0.01 -0.03,0 -0.04,0.01 -0.03,0 -0.03,0 c -0.36,0 -0.65,-0.29 -0.65,-0.64 0,-0.36 0.29,-0.65 0.65,-0.65 0.36,0 0.64,0.29 0.64,0.65 z"
         id="path7474"
         inkscape:connector-curvature="0"
         style="fill:#000000;stroke-width:0" /><path
         d="m 247.45,713.31 -0.02,0 -0.02,0 -0.03,0 -0.02,0 -0.02,-0.01 -0.02,0 -0.03,0 -0.02,0 -0.02,0 -0.03,-0.01 -0.02,0 -0.02,-0.01 -0.03,0 -0.02,-0.01 -0.02,-0.01 -0.03,-0.01 -0.02,-0.01 -0.02,-0.01 -0.02,-0.01 -0.02,-0.02 -0.02,-0.01 -0.02,-0.02 0,-0.01 -0.01,-0.01 -0.01,-0.01 -0.01,-0.01 0,-0.01 -0.01,-0.01 -0.01,-0.01 0,-0.02 -0.01,-0.01 0,-0.01 -0.01,-0.02 0,-0.01 -0.01,-0.02 0,-0.01 0,-0.02 0,-0.02 -0.01,-0.01 0,-0.02 0,-0.02 0,-0.02 c 0,-0.42 0.37,-0.42 0.58,-0.42 l 1.53,0 0,-4.51 -1.63,0 c -0.21,0 -0.59,0 -0.59,-0.42 0,-0.42 0.38,-0.42 0.59,-0.42 l 3.98,0 c 0.2,0 0.58,0 0.58,0.42 0,0.42 -0.38,0.42 -0.58,0.42 l -1.42,0 0,4.76 c 0,0.44 -0.08,0.59 -0.57,0.59 z"
         id="path7476"
         inkscape:connector-curvature="0"
         style="fill:#000000;stroke-width:0" /><path
         d="m 258.96,715.3 0,0.04 0,0.04 -0.01,0.04 0,0.03 0,0.04 0,0.03 -0.01,0.03 0,0.03 -0.01,0.03 -0.01,0.02 -0.01,0.03 -0.01,0.02 -0.01,0.02 -0.01,0.02 -0.01,0.02 -0.02,0.02 -0.01,0.02 -0.02,0.01 -0.02,0.02 -0.02,0.01 -0.02,0.01 -0.03,0.01 -0.02,0.01 -0.03,0.01 -0.03,0.01 -0.03,0 -0.04,0.01 -0.03,0 -0.04,0 -0.04,0.01 -0.04,0 -0.02,0 -0.03,0 -0.94,0 c -0.21,0 -0.58,0 -0.58,-0.42 0,-0.41 0.37,-0.41 0.58,-0.41 l 0.58,0 0,-2.39 c -0.22,0.23 -0.81,0.72 -1.69,0.72 l 0.09,-0.83 c 0.93,0 1.6,-0.85 1.6,-1.59 l 0,-1.12 c 0,-0.81 -0.66,-1.98 -1.73,-1.98 -1.03,0 -1.87,1.05 -1.87,2.34 0,1.37 0.98,2.35 2,2.35 l -0.09,0.83 c -1.52,0 -2.84,-1.37 -2.84,-3.18 0,-1.77 1.24,-3.17 2.71,-3.17 0.94,0 1.55,0.56 1.82,0.87 0,-0.6 0,-0.79 0.58,-0.79 l 0.95,0 c 0.2,0 0.57,0 0.57,0.42 0,0.42 -0.37,0.42 -0.57,0.42 l -0.59,0 z"
         id="path7478"
         inkscape:connector-curvature="0"
         style="fill:#000000;stroke-width:0" /><path
         d="m 266.89,710.22 0,0.17 -0.02,0.16 -0.01,0.16 -0.03,0.16 -0.03,0.16 -0.04,0.15 -0.05,0.15 -0.05,0.15 -0.06,0.14 -0.06,0.14 -0.07,0.14 -0.08,0.13 -0.08,0.12 -0.08,0.12 -0.09,0.12 -0.1,0.11 -0.1,0.11 -0.1,0.1 -0.11,0.09 -0.11,0.09 -0.12,0.08 -0.12,0.08 -0.12,0.07 -0.13,0.07 -0.13,0.05 -0.13,0.05 -0.13,0.04 -0.14,0.04 -0.14,0.03 -0.14,0.02 -0.14,0.01 -0.15,0 0,-0.83 c 1.01,0 1.93,-0.94 1.93,-2.28 0,-1.37 -0.89,-2.45 -1.93,-2.45 l 0,0 c -1.03,0 -1.92,1.09 -1.92,2.45 0,1.34 0.92,2.28 1.92,2.28 l 0,0.83 c -1.55,0 -2.85,-1.41 -2.85,-3.21 0,-1.81 1.32,-3.18 2.85,-3.18 1.54,0 2.86,1.37 2.86,3.18 z"
         id="path7480"
         inkscape:connector-curvature="0"
         style="fill:#000000;stroke-width:0" /><path
         d="m 271.72,710.44 0,0.09 0,0.09 0.01,0.08 0.01,0.09 0.01,0.09 0.02,0.08 0.02,0.08 0.02,0.08 0.03,0.08 0.03,0.08 0.03,0.08 0.03,0.07 0.04,0.08 0.04,0.07 0.05,0.08 0.05,0.07 0.05,0.07 0.05,0.07 0.06,0.07 0.06,0.07 0.07,0.07 0.07,0.06 0.07,0.07 0.07,0.06 0.08,0.07 0.08,0.06 0.09,0.07 0.09,0.06 0.09,0.06 0.09,0.06 0.1,0.06 0.11,0.07 c 0.63,0.37 0.89,0.87 0.89,1.39 0,0.51 -0.33,1.8 -2.96,1.8 -1.88,0 -2.67,-0.91 -2.67,-1.77 0,-0.51 0.42,-0.62 0.59,-0.62 0.22,0 0.58,0.17 0.58,0.59 0,0.23 -0.08,0.3 -0.13,0.37 0.2,0.29 0.67,0.6 1.63,0.6 1.51,0 2.02,-0.5 2.02,-0.97 0,-0.4 -0.36,-0.62 -0.48,-0.69 -2.08,-1.22 -2.13,-2.41 -2.13,-3.14 0,-0.52 0,-0.72 0.52,-0.72 0.52,0 0.52,0.24 0.52,0.56 z"
         id="path7482"
         inkscape:connector-curvature="0"
         style="fill:#000000;stroke-width:0" /><path
         d="m 271.85,707.77 -0.01,0.03 0,0.03 0,0.04 -0.01,0.03 -0.01,0.03 0,0.03 -0.01,0.03 -0.02,0.03 -0.01,0.03 -0.01,0.03 -0.02,0.02 -0.01,0.03 -0.02,0.03 -0.02,0.02 -0.02,0.02 -0.02,0.03 -0.03,0.02 -0.02,0.02 -0.02,0.02 -0.03,0.01 -0.03,0.02 -0.02,0.02 -0.03,0.01 -0.03,0.01 -0.03,0.02 -0.03,0.01 -0.03,0 -0.03,0.01 -0.03,0.01 -0.03,0 -0.04,0 -0.03,0 c -0.36,0 -0.65,-0.28 -0.65,-0.64 0,-0.36 0.29,-0.65 0.65,-0.65 0.36,0 0.65,0.29 0.65,0.65 z"
         id="path7484"
         inkscape:connector-curvature="0"
         style="fill:#000000;stroke-width:0" /><path
         d="m 287.73,710.61 0,0.12 0,0.12 0,0.11 0,0.11 0,0.1 0,0.1 0,0.09 0,0.09 -0.01,0.09 0,0.08 0,0.07 -0.01,0.08 0,0.07 -0.01,0.07 0,0.06 -0.01,0.06 -0.01,0.06 -0.01,0.06 -0.01,0.06 -0.01,0.05 -0.01,0.05 -0.02,0.05 -0.01,0.05 -0.02,0.04 -0.02,0.05 -0.02,0.05 -0.02,0.04 -0.02,0.04 -0.02,0.05 -0.03,0.04 -0.03,0.04 -0.03,0.04 c -0.41,0.56 -1.09,0.65 -1.58,0.65 -1.39,0 -1.93,-1.19 -2.05,-1.48 l -0.01,0 0,1.48 -1.95,-0.16 0,-0.41 c 0.97,0 1.09,-0.1 1.09,-0.81 l 0,-3.89 c 0,-0.64 -0.16,-0.64 -1.09,-0.64 l 0,-0.42 c 0.37,0.03 1.14,0.03 1.55,0.03 0.41,0 1.19,0 1.56,-0.03 l 0,0.42 c -0.92,0 -1.09,0 -1.09,0.64 l 0,2.67 c 0,1.51 0.99,2.31 1.88,2.31 0.89,0 1.09,-0.73 1.09,-1.61 l 0,-3.37 c 0,-0.64 -0.16,-0.64 -1.09,-0.64 l 0,-0.42 c 0.37,0.03 1.15,0.03 1.55,0.03 0.41,0 1.19,0 1.56,-0.03 l 0,0.42 c -0.71,0 -1.07,0 -1.09,0.43 z"
         id="path7486"
         inkscape:connector-curvature="0"
         style="fill:#000000;stroke-width:0" /></g>    <g
       style="font-style:normal;font-variant:normal;font-weight:normal;font-stretch:normal;letter-spacing:normal;word-spacing:normal;text-anchor:start;fill:none;fill-opacity:1;fill-rule:evenodd;stroke:#000000;stroke-linecap:butt;stroke-linejoin:miter;stroke-miterlimit:10.43299961;stroke-dasharray:none;stroke-dashoffset:0;stroke-opacity:1"
       ns0:preamble="/home/piter/.config/inkscape/extensions/preambulo.ini"
       ns0:text="\\Large{\\texttt{entrega!} p}"
       word-spacing="normal"
       letter-spacing="normal"
       font-size-adjust="none"
       font-stretch="normal"
       font-weight="normal"
       font-variant="normal"
       font-style="normal"
       stroke-miterlimit="10.433"
       xml:space="preserve"
       transform="matrix(1,0,0,-1,61.441544,1067.6981)"
       id="g7649"><path
         id="path7651"
         d="m 229.4,709.88 0.06,0 0.05,0 0.03,0 0.03,0 0.02,0 0.03,0.01 0.02,0 0.03,0 0.02,0.01 0.02,0.01 0.03,0 0.02,0.01 0.02,0.01 0.02,0.01 0.02,0.02 0.02,0.01 0.02,0.02 0.01,0.02 0.02,0.02 0,0.01 0.01,0.01 0.01,0.01 0,0.01 0.01,0.02 0.01,0.01 0,0.02 0.01,0.01 0,0.02 0.01,0.01 0,0.02 0.01,0.02 0,0.01 0,0.02 0,0.02 0.01,0.02 0,0.02 0,0.02 0,0.03 0,0.02 0,0.02 0,0.03 c 0,1.68 -0.94,3.02 -2.74,3.02 -1.66,0 -2.99,-1.43 -2.99,-3.18 0,-1.81 1.44,-3.21 3.21,-3.21 1.85,0 2.52,1.27 2.52,1.65 0,0.08 -0.02,0.4 -0.47,0.4 -0.27,0 -0.36,-0.1 -0.44,-0.32 -0.36,-0.83 -1.3,-0.9 -1.57,-0.9 -1.19,0 -2.14,0.9 -2.29,2.01 l 0.01,0.79 c 0.19,1.22 1.12,1.93 2.02,1.93 1.44,0 1.74,-1.22 1.8,-1.93 l -3.82,0 -0.01,-0.79 z"
         inkscape:connector-curvature="0"
         style="fill:#000000;stroke-width:0" /><path
         id="path7653"
         d="m 236.81,711.33 0,0.13 -0.01,0.12 -0.01,0.12 -0.01,0.12 -0.02,0.11 -0.02,0.11 -0.02,0.1 -0.03,0.1 -0.03,0.1 -0.04,0.09 -0.04,0.08 -0.04,0.09 -0.05,0.08 -0.05,0.07 -0.05,0.07 -0.06,0.07 -0.06,0.06 -0.06,0.06 -0.07,0.05 -0.07,0.05 -0.07,0.04 -0.08,0.05 -0.08,0.03 -0.08,0.04 -0.09,0.03 -0.09,0.02 -0.09,0.02 -0.1,0.02 -0.1,0.01 -0.1,0.01 -0.11,0.01 -0.11,0 c -0.97,0 -1.6,-0.54 -1.85,-0.82 0,0.53 0,0.74 -0.57,0.74 l -0.95,0 c -0.2,0 -0.57,0 -0.57,-0.42 0,-0.42 0.37,-0.42 0.57,-0.42 l 0.59,0 0,-4.51 -0.59,0 c -0.2,0 -0.57,0 -0.57,-0.42 0,-0.42 0.37,-0.42 0.57,-0.42 l 2.11,0 c 0.2,0 0.57,0 0.57,0.42 0,0.42 -0.37,0.42 -0.57,0.42 l -0.59,0 0,2.59 c 0,1.39 0.98,2.01 1.75,2.01 0.84,0 1.01,-0.47 1.01,-1.29 l 0,-3.31 -0.59,0 c -0.2,0 -0.58,0 -0.58,-0.42 0,-0.42 0.38,-0.42 0.58,-0.42 l 2.11,0 c 0.2,0 0.57,0 0.57,0.42 0,0.42 -0.37,0.42 -0.57,0.42 l -0.59,0 z"
         inkscape:connector-curvature="0"
         style="fill:#000000;stroke-width:0" /><path
         id="path7655"
         d="m 241.3,712.47 2.32,0 c 0.2,0 0.58,0 0.58,0.42 0,0.42 -0.38,0.42 -0.58,0.42 l -2.32,0 0,1.17 c 0,0.26 0,0.59 -0.46,0.59 -0.47,0 -0.47,-0.33 -0.47,-0.59 l 0,-1.17 -1.22,0 c -0.2,0 -0.59,0 -0.59,-0.42 0,-0.42 0.37,-0.42 0.57,-0.42 l 1.24,0 0,-3.61 c 0,-1.34 0.91,-1.82 1.95,-1.82 0.77,0 2.19,0.38 2.19,1.85 0,0.28 0,0.6 -0.47,0.6 -0.46,0 -0.46,-0.32 -0.46,-0.62 -0.01,-0.86 -0.83,-1 -1.16,-1 -1.12,0 -1.12,0.72 -1.12,1.06 z"
         inkscape:connector-curvature="0"
         style="fill:#000000;stroke-width:0" /><path
         id="path7657"
         d="m 248.68,709.83 0,0.16 0.01,0.16 0.02,0.15 0.02,0.14 0.03,0.14 0.04,0.14 0.04,0.13 0.05,0.13 0.05,0.12 0.06,0.12 0.06,0.12 0.06,0.11 0.08,0.1 0.07,0.1 0.08,0.1 0.08,0.09 0.09,0.08 0.09,0.08 0.09,0.08 0.1,0.07 0.1,0.06 0.1,0.06 0.1,0.06 0.11,0.04 0.11,0.05 0.11,0.03 0.11,0.04 0.11,0.02 0.11,0.02 0.11,0.02 0.12,0.01 0.11,0 c 0.08,0 0.16,0 0.23,-0.02 0.05,-0.51 0.45,-0.55 0.55,-0.55 0.33,0 0.56,0.24 0.56,0.55 0,0.62 -0.6,0.85 -1.32,0.85 -0.96,0 -1.78,-0.43 -2.44,-1.23 l 0,0.56 c 0,0.44 -0.09,0.59 -0.58,0.59 l -1.44,0 c -0.2,0 -0.58,0 -0.58,-0.42 0,-0.42 0.38,-0.42 0.58,-0.42 l 1.09,0 0,-4.51 -1.09,0 c -0.2,0 -0.58,0 -0.58,-0.42 0,-0.42 0.38,-0.42 0.58,-0.42 l 3.52,0 c 0.21,0 0.58,0 0.58,0.42 0,0.42 -0.37,0.42 -0.58,0.42 l -1.5,0 z"
         inkscape:connector-curvature="0"
         style="fill:#000000;stroke-width:0" /><path
         id="path7659"
         d="m 258.93,709.88 0.05,0 0.06,0 0.03,0 0.02,0 0.03,0 0.02,0.01 0.03,0 0.02,0 0.03,0.01 0.02,0.01 0.02,0 0.03,0.01 0.02,0.01 0.02,0.01 0.02,0.02 0.02,0.01 0.01,0.02 0.02,0.02 0.02,0.02 0,0.01 0.01,0.01 0.01,0.01 0,0.01 0.01,0.02 0,0.01 0.01,0.02 0.01,0.01 0,0.02 0,0.01 0.01,0.02 0,0.02 0.01,0.01 0,0.02 0,0.02 0.01,0.02 0,0.02 0,0.02 0,0.03 0,0.02 0,0.02 0,0.03 c 0,1.68 -0.95,3.02 -2.74,3.02 -1.66,0 -3,-1.43 -3,-3.18 0,-1.81 1.45,-3.21 3.22,-3.21 1.85,0 2.52,1.27 2.52,1.65 0,0.08 -0.03,0.4 -0.47,0.4 -0.27,0 -0.36,-0.1 -0.45,-0.32 -0.35,-0.83 -1.29,-0.9 -1.56,-0.9 -1.19,0 -2.14,0.9 -2.29,2.01 l 0.01,0.79 c 0.19,1.22 1.12,1.93 2.02,1.93 1.44,0 1.74,-1.22 1.79,-1.93 l -3.81,0 -0.01,-0.79 z"
         inkscape:connector-curvature="0"
         style="fill:#000000;stroke-width:0" /><path
         id="path7661"
         d="m 263.07,708 -0.01,0 -0.02,0 -0.03,0 -0.02,0 -0.03,0 -0.03,0 -0.03,0.01 -0.03,0 -0.03,0.01 -0.04,0 -0.03,0.01 -0.04,0.01 -0.03,0.01 -0.04,0.01 -0.03,0.02 -0.04,0.01 -0.03,0.02 -0.04,0.03 -0.03,0.02 -0.03,0.03 -0.03,0.03 -0.02,0.01 -0.01,0.02 -0.01,0.02 -0.02,0.02 -0.01,0.01 -0.01,0.02 -0.02,0.03 -0.01,0.02 -0.01,0.02 -0.01,0.02 -0.01,0.03 -0.01,0.02 0,0.03 -0.01,0.03 -0.01,0.02 0,0.03 -0.01,0.03 0,0.04 0,0.03 -0.01,0.03 0,0.04 0,0.03 c 0,0.27 0.04,0.33 0.1,0.45 0.29,-0.2 0.76,-0.39 1.28,-0.39 l 0,0.8 c -0.72,0 -1.36,0.63 -1.36,1.48 0,0.85 0.66,1.48 1.36,1.48 0.76,0 1.38,-0.66 1.38,-1.48 0,-0.82 -0.62,-1.48 -1.38,-1.48 l 0,0 0,-0.8 c 1.3,0 2.31,1.05 2.31,2.28 0,0.36 -0.09,0.8 -0.39,1.28 0.37,0.2 0.72,0.24 0.93,0.26 0.09,-0.45 0.51,-0.46 0.52,-0.46 0.17,0 0.53,0.11 0.53,0.54 0,0.27 -0.22,0.75 -1.02,0.75 -0.26,0 -0.9,-0.06 -1.5,-0.53 -0.48,0.33 -0.97,0.44 -1.37,0.44 -1.3,0 -2.31,-1.05 -2.31,-2.28 0,-0.32 0.07,-0.86 0.48,-1.38 -0.28,-0.4 -0.32,-0.83 -0.32,-1 0,-0.5 0.25,-0.9 0.36,-1.03 l 0.34,-0.72 c 0.33,0.21 0.48,0.21 1.47,0.21 1.26,0 2.84,0 2.84,-1.26 0,-0.66 -1.05,-1.29 -2.46,-1.29 l 0,0 c -1.4,0 -2.45,0.63 -2.45,1.29 0,0.22 0.07,0.72 0.6,1.05 l -0.34,0.72 c -0.79,-0.43 -1.08,-1.21 -1.08,-1.77 0,-1.19 1.45,-2.09 3.27,-2.09 1.83,0 3.27,0.89 3.27,2.09 0,2.07 -2.53,2.07 -3.01,2.07 z"
         inkscape:connector-curvature="0"
         style="fill:#000000;stroke-width:0" /><path
         id="path7663"
         d="m 273.67,711.2 -0.01,0.1 0,0.1 -0.01,0.1 -0.02,0.11 -0.02,0.1 -0.03,0.1 -0.03,0.1 -0.04,0.1 -0.04,0.09 -0.05,0.1 -0.06,0.09 -0.05,0.09 -0.07,0.09 -0.07,0.09 -0.07,0.08 -0.08,0.08 -0.09,0.08 -0.09,0.08 -0.1,0.07 -0.11,0.06 -0.1,0.07 -0.12,0.06 -0.12,0.05 -0.13,0.05 -0.13,0.04 -0.14,0.04 -0.15,0.04 -0.15,0.02 -0.16,0.03 -0.17,0.01 -0.17,0.01 -0.18,0 c -0.6,0 -1.99,0 -1.99,-0.98 0,-0.39 0.27,-0.61 0.59,-0.61 0.08,0 0.56,0.03 0.57,0.63 0,0.07 0.02,0.09 0.32,0.12 0.17,0.01 0.36,0.01 0.53,0.01 0.33,0 0.81,0 1.29,-0.36 0.51,-0.4 0.51,-0.8 0.51,-1.21 l 0,-0.78 0,-1.23 c 0,-0.33 0,-0.63 -0.58,-0.91 -0.51,-0.24 -1.18,-0.24 -1.22,-0.24 -0.85,0 -1.47,0.46 -1.47,1.05 0,0.84 1.54,1.33 3.27,1.33 l 0,0.78 c -0.84,-0.03 -1.67,-0.09 -2.56,-0.38 -0.72,-0.24 -1.64,-0.76 -1.64,-1.73 0,-1.02 0.9,-1.88 2.24,-1.88 0.46,0 1.35,0.07 2.09,0.58 0.29,-0.47 1.01,-0.5 1.55,-0.5 0.35,0 0.69,0 0.69,0.42 0,0.42 -0.37,0.42 -0.57,0.42 -0.38,0 -0.66,0.02 -0.86,0.11 z"
         inkscape:connector-curvature="0"
         style="fill:#000000;stroke-width:0" /><path
         id="path7665"
         d="m 279.44,715.3 0,0.03 0,0.04 0,0.03 -0.01,0.03 0,0.03 0,0.02 -0.01,0.03 0,0.03 -0.01,0.02 0,0.03 -0.01,0.02 -0.01,0.03 -0.01,0.02 0,0.02 -0.01,0.02 -0.01,0.02 -0.01,0.02 -0.01,0.02 -0.01,0.02 -0.01,0.01 -0.01,0.02 -0.02,0.02 -0.02,0.03 -0.02,0.02 -0.03,0.03 -0.03,0.02 -0.02,0.02 -0.03,0.02 -0.03,0.01 -0.03,0.02 -0.02,0.01 -0.03,0.01 -0.03,0.01 -0.02,0.01 -0.03,0 -0.02,0.01 -0.03,0 -0.02,0 -0.02,0.01 -0.02,0 -0.02,0 -0.01,0 -0.02,0 c -0.14,0 -0.64,-0.06 -0.64,-0.76 0,-0.21 0.1,-4.19 0.11,-4.75 0.02,-0.8 0.03,-0.93 0.53,-0.93 0.48,0 0.51,0.18 0.52,0.47 0.04,0.83 0.04,1.69 0.06,2.54 0.03,0.88 0.07,1.79 0.07,2.67 z"
         inkscape:connector-curvature="0"
         style="fill:#000000;stroke-width:0" /><path
         id="path7667"
         d="m 279.44,707.77 0,0.03 0,0.03 -0.01,0.04 0,0.03 -0.01,0.03 -0.01,0.03 -0.01,0.03 -0.01,0.03 -0.01,0.03 -0.02,0.03 -0.01,0.02 -0.02,0.03 -0.02,0.03 -0.02,0.02 -0.02,0.02 -0.02,0.03 -0.02,0.02 -0.02,0.02 -0.03,0.02 -0.02,0.01 -0.03,0.02 -0.03,0.02 -0.02,0.01 -0.03,0.01 -0.03,0.02 -0.03,0.01 -0.03,0 -0.04,0.01 -0.03,0.01 -0.03,0 -0.03,0 -0.04,0 c -0.35,0 -0.64,-0.28 -0.64,-0.64 0,-0.36 0.29,-0.65 0.64,-0.65 0.36,0 0.65,0.29 0.65,0.65 z"
         inkscape:connector-curvature="0"
         style="fill:#000000;stroke-width:0" /><path
         id="path7669"
         d="m 292.25,704.76 -0.04,0 -0.04,0 -0.04,0 -0.04,0 -0.04,0 -0.04,0 -0.04,0 -0.03,0 -0.03,0 -0.04,0 -0.03,0 -0.03,0 -0.03,0 -0.03,0 -0.06,0.01 -0.05,0 -0.05,0 -0.05,0.01 -0.04,0.01 -0.04,0.01 -0.03,0.01 -0.04,0.01 -0.03,0.02 -0.03,0.01 -0.02,0.02 -0.03,0.02 -0.02,0.02 -0.02,0.03 -0.01,0.02 -0.02,0.03 -0.01,0.04 -0.01,0.03 -0.01,0.04 -0.01,0.04 0,0.05 0,0.05 -0.01,0.05 0,0.02 0,0.03 0,0.03 0,0.03 0,2.5 c 0.26,-0.36 0.85,-0.92 1.76,-0.92 l -0.07,0.29 c -0.44,0 -0.86,0.18 -1.15,0.45 -0.32,0.33 -0.54,0.62 -0.54,1.02 l 0,2.96 c 0,0.27 0,0.29 0.16,0.52 0.43,0.64 1.13,0.91 1.68,0.91 1.07,0 1.93,-1.3 1.93,-2.91 0,-1.71 -0.97,-2.95 -2.08,-2.95 l 0.07,-0.29 c 1.65,0 3.1,1.39 3.1,3.24 0,1.82 -1.35,3.23 -2.91,3.23 -1.26,0 -1.94,-0.91 -1.98,-0.96 l 0,0.96 -1.99,-0.16 0,-0.41 c 1,0 1.09,-0.1 1.09,-0.74 l 0,-6.74 c 0,-0.64 -0.16,-0.64 -1.09,-0.64 l 0,-0.42 c 0.37,0.03 1.14,0.03 1.55,0.03 0.41,0 1.19,0 1.56,-0.03 z"
         inkscape:connector-curvature="0"
         style="fill:#000000;stroke-width:0" /></g>    <g
       style="font-style:normal;font-variant:normal;font-weight:normal;font-stretch:normal;letter-spacing:normal;word-spacing:normal;text-anchor:start;fill:none;fill-opacity:1;fill-rule:evenodd;stroke:#000000;stroke-linecap:butt;stroke-linejoin:miter;stroke-miterlimit:10.43299961;stroke-dasharray:none;stroke-dashoffset:0;stroke-opacity:1"
       ns0:preamble="/home/piter/.config/inkscape/extensions/preambulo.ini"
       ns0:text="\\Large{\n\\begin{tabular}{ll}\n\\texttt{p = n} &amp; si $n = k r$ \\\\\n\\texttt{p = (k+1) r} &amp; si $ n \\geq k r $ \n\\end{tabular}\n}"
       word-spacing="normal"
       letter-spacing="normal"
       font-size-adjust="none"
       font-stretch="normal"
       font-weight="normal"
       font-variant="normal"
       font-style="normal"
       stroke-miterlimit="10.433"
       xml:space="preserve"
       transform="matrix(1,0,0,-1,134.34467,1091.1004)"
       id="g9212"><path
         id="path9214"
         d="m 236.99,701.35 0.02,0 0.02,0 0.02,0 0.02,0 0.02,0 0.03,0 0.02,0 0.02,0.01 0.03,0 0.02,0 0.02,0.01 0.03,0 0.02,0.01 0.02,0 0.03,0.01 0.02,0.01 0.02,0.01 0.02,0.01 0.02,0.02 0.02,0.01 0.02,0.02 0.02,0.02 0.01,0 0.01,0.01 0,0.01 0.01,0.02 0.01,0.01 0,0.01 0.01,0.01 0.01,0.01 0,0.02 0.01,0.01 0,0.01 0.01,0.02 0,0.01 0,0.02 0.01,0.02 0,0.01 0,0.02 0,0.02 0,0.02 0,0.02 c 0,0.41 -0.37,0.41 -0.57,0.41 l -0.59,0 0,3.07 c 0.34,-0.39 0.87,-0.8 1.68,-0.8 l -0.07,0.83 c -1.08,0 -1.61,1.22 -1.61,1.94 l 0,1.13 c 0,0.82 0.8,1.62 1.74,1.62 1.03,0 1.86,-1.05 1.86,-2.34 0,-1.37 -0.98,-2.35 -1.99,-2.35 l 0.07,-0.83 c 1.52,0 2.85,1.36 2.85,3.18 0,1.77 -1.2,3.17 -2.69,3.17 -1.05,0 -1.71,-0.63 -1.84,-0.77 0,0.47 0,0.69 -0.57,0.69 l -0.95,0 c -0.2,0 -0.58,0 -0.58,-0.42 0,-0.41 0.38,-0.41 0.58,-0.41 l 0.59,0 0,-7.71 -0.59,0 c -0.2,0 -0.58,0 -0.58,-0.41 0,-0.42 0.38,-0.42 0.58,-0.42 z"
         inkscape:connector-curvature="0"
         style="fill:#000000;stroke-width:0" /><path
         id="path9216"
         d="m 255.09,709.54 0.02,0 0.02,0 0.02,0 0.02,0 0.02,0 0.03,0.01 0.02,0 0.03,0 0.02,0 0.03,0.01 0.02,0 0.03,0.01 0.02,0 0.03,0.01 0.02,0.01 0.03,0.01 0.02,0.01 0.03,0.01 0.02,0.02 0.02,0.01 0.02,0.02 0.02,0.02 0.01,0.01 0.01,0.01 0.01,0.01 0.01,0.02 0.01,0.01 0,0.01 0.01,0.01 0.01,0.02 0,0.01 0.01,0.02 0,0.01 0.01,0.02 0,0.02 0.01,0.01 0,0.02 0,0.02 0.01,0.02 0,0.02 0,0.02 0,0.02 c 0,0.47 -0.47,0.47 -0.69,0.47 l -4.94,0 c -0.21,0 -0.68,0 -0.68,-0.47 0,-0.46 0.44,-0.46 0.61,-0.46 z"
         inkscape:connector-curvature="0"
         style="fill:#000000;stroke-width:0" /><path
         id="path9218"
         d="m 255.02,707.36 0.02,0 0.02,0 0.03,0 0.02,0 0.03,0 0.02,0 0.03,0.01 0.03,0 0.03,0 0.02,0.01 0.03,0 0.03,0.01 0.03,0 0.03,0.01 0.03,0.01 0.02,0.01 0.03,0.01 0.03,0.02 0.02,0.01 0.03,0.02 0.02,0.01 0.02,0.03 0.01,0.01 0.01,0.01 0.01,0.01 0.01,0.01 0.01,0.01 0.01,0.02 0.01,0.01 0,0.02 0.01,0.01 0.01,0.02 0,0.01 0.01,0.02 0,0.02 0.01,0.01 0,0.02 0,0.02 0,0.02 0.01,0.02 0,0.02 0,0.03 c 0,0.45 -0.45,0.45 -0.62,0.45 l -5.08,0 c -0.18,0 -0.61,0 -0.61,-0.45 0,-0.48 0.47,-0.48 0.68,-0.48 z"
         inkscape:connector-curvature="0"
         style="fill:#000000;stroke-width:0" /><path
         id="path9220"
         d="m 269.61,708.74 0,0.13 0,0.12 -0.01,0.12 -0.02,0.12 -0.01,0.11 -0.02,0.11 -0.03,0.1 -0.03,0.1 -0.03,0.1 -0.03,0.09 -0.04,0.09 -0.05,0.08 -0.04,0.08 -0.05,0.07 -0.06,0.07 -0.05,0.07 -0.06,0.06 -0.07,0.06 -0.06,0.05 -0.07,0.05 -0.08,0.05 -0.08,0.04 -0.08,0.04 -0.08,0.03 -0.09,0.03 -0.09,0.02 -0.09,0.03 -0.1,0.01 -0.09,0.02 -0.11,0.01 -0.1,0 -0.11,0 c -0.98,0 -1.61,-0.54 -1.85,-0.81 0,0.53 0,0.73 -0.58,0.73 l -0.94,0 c -0.2,0 -0.58,0 -0.58,-0.42 0,-0.41 0.38,-0.41 0.58,-0.41 l 0.58,0 0,-4.52 -0.58,0 c -0.2,0 -0.58,0 -0.58,-0.42 0,-0.42 0.38,-0.42 0.58,-0.42 l 2.11,0 c 0.2,0 0.57,0 0.57,0.42 0,0.42 -0.37,0.42 -0.57,0.42 l -0.59,0 0,2.59 c 0,1.39 0.97,2.01 1.75,2.01 0.83,0 1,-0.47 1,-1.29 l 0,-3.31 -0.59,0 c -0.2,0 -0.57,0 -0.57,-0.42 0,-0.42 0.37,-0.42 0.57,-0.42 l 2.11,0 c 0.2,0 0.58,0 0.58,0.42 0,0.42 -0.38,0.42 -0.58,0.42 l -0.59,0 z"
         inkscape:connector-curvature="0"
         style="fill:#000000;stroke-width:0" /><path
         id="path9222"
         d="m 331.96,710.6 0,0.02 0,0.01 0,0.01 0,0.01 0,0.02 0,0.02 0,0.02 0,0.02 0,0.02 0,0.01 0,0.02 0,0.01 0,0.02 -0.01,0.01 0,0.01 0,0.01 0,0.02 -0.01,0.01 0,0 0,0.01 -0.01,0.01 0,0.01 -0.01,0 -0.01,0.01 0,0 -0.01,0.01 -0.01,0 -0.01,0 -0.01,0.01 -0.01,0 -0.01,0 -0.01,0 -0.01,0 -0.01,0 c -0.12,0 -0.39,-0.31 -0.49,-0.44 -0.44,0.36 -0.89,0.44 -1.35,0.44 -1.74,0 -2.25,-0.94 -2.25,-1.73 0,-0.16 0,-0.66 0.54,-1.16 0.46,-0.41 0.95,-0.51 1.61,-0.64 0.79,-0.15 0.98,-0.2 1.33,-0.48 0.26,-0.22 0.45,-0.53 0.45,-0.94 0,-0.61 -0.36,-1.3 -1.62,-1.3 -0.95,0 -1.64,0.54 -1.95,1.98 -0.06,0.26 -0.06,0.27 -0.07,0.29 -0.03,0.05 -0.09,0.05 -0.13,0.05 -0.16,0 -0.16,-0.07 -0.16,-0.33 l 0,-1.95 c 0,-0.26 0,-0.33 0.14,-0.33 0.07,0 0.09,0.02 0.33,0.32 0.07,0.1 0.07,0.13 0.29,0.36 0.54,-0.68 1.32,-0.68 1.56,-0.68 1.51,0 2.25,0.83 2.25,1.97 0,0.77 -0.47,1.23 -0.6,1.36 -0.51,0.44 -0.9,0.53 -1.85,0.7 -0.43,0.09 -1.48,0.29 -1.48,1.15 0,0.45 0.3,1.1 1.6,1.1 1.56,0 1.65,-1.33 1.67,-1.77 0.02,-0.12 0.12,-0.12 0.16,-0.12 0.16,0 0.16,0.07 0.16,0.33 z"
         inkscape:connector-curvature="0"
         style="fill:#000000;stroke-width:0" /><path
         id="path9224"
         d="m 335.29,713.37 0,0.04 -0.01,0.03 0,0.04 -0.01,0.03 -0.01,0.03 0,0.04 -0.02,0.03 -0.01,0.03 -0.01,0.03 -0.02,0.03 -0.01,0.03 -0.02,0.03 -0.02,0.03 -0.02,0.02 -0.02,0.03 -0.02,0.02 -0.03,0.03 -0.02,0.02 -0.03,0.02 -0.03,0.02 -0.03,0.02 -0.03,0.02 -0.03,0.01 -0.03,0.02 -0.03,0.01 -0.03,0.01 -0.04,0.01 -0.03,0.01 -0.04,0.01 -0.03,0 -0.04,0 -0.04,0.01 c -0.37,0 -0.69,-0.31 -0.69,-0.69 0,-0.43 0.35,-0.71 0.69,-0.71 0.45,0 0.71,0.38 0.71,0.69 z"
         inkscape:connector-curvature="0"
         style="fill:#000000;stroke-width:0" /><path
         id="path9226"
         d="m 333.31,710.7 0,-0.41 c 0.92,0 1.04,-0.09 1.04,-0.79 l 0,-3.9 c 0,-0.65 -0.15,-0.65 -1.09,-0.65 l 0,-0.42 c 0.41,0.03 1.09,0.03 1.51,0.03 0.16,0 0.99,0 1.48,-0.03 l 0,0.42 c -0.93,0 -0.99,0.07 -0.99,0.63 l 0,5.28 z"
         inkscape:connector-curvature="0"
         style="fill:#000000;stroke-width:0" /><path
         id="path9228"
         d="m 344.33,708.74 0.01,0.01 0,0.01 0.01,0.02 0.01,0.02 0.01,0.02 0.01,0.03 0.02,0.03 0.01,0.03 0.02,0.03 0.02,0.04 0.02,0.03 0.03,0.04 0.02,0.05 0.03,0.04 0.02,0.04 0.03,0.05 0.03,0.05 0.04,0.04 0.03,0.05 0.03,0.05 0.04,0.05 0.04,0.05 0.04,0.05 0.04,0.05 0.04,0.05 0.04,0.05 0.05,0.05 0.04,0.05 0.05,0.05 0.04,0.04 0.05,0.05 0.05,0.04 c 0.37,0.34 0.86,0.58 1.42,0.58 0.57,0 0.78,-0.44 0.78,-1.01 0,-0.82 -0.59,-2.45 -0.88,-3.23 -0.13,-0.34 -0.2,-0.53 -0.2,-0.79 0,-0.64 0.45,-1.16 1.13,-1.16 1.34,0 1.84,2.11 1.84,2.2 0,0.07 -0.06,0.13 -0.14,0.13 -0.13,0 -0.15,-0.05 -0.22,-0.29 -0.33,-1.18 -0.87,-1.75 -1.43,-1.75 -0.15,0 -0.38,0.01 -0.38,0.47 0,0.36 0.16,0.79 0.25,0.99 0.28,0.79 0.89,2.4 0.89,3.21 0,0.87 -0.51,1.51 -1.6,1.51 -1.27,0 -1.95,-0.9 -2.2,-1.26 -0.05,0.82 -0.64,1.26 -1.27,1.26 -0.46,0 -0.77,-0.27 -1.02,-0.76 -0.25,-0.51 -0.45,-1.38 -0.45,-1.43 0,-0.06 0.05,-0.13 0.15,-0.13 0.12,0 0.13,0.01 0.22,0.34 0.23,0.88 0.49,1.7 1.06,1.7 0.33,0 0.44,-0.24 0.44,-0.67 0,-0.31 -0.14,-0.87 -0.24,-1.32 l -0.4,-1.54 c -0.06,-0.28 -0.22,-0.92 -0.29,-1.18 -0.1,-0.37 -0.26,-1.05 -0.26,-1.12 0,-0.2 0.16,-0.36 0.38,-0.36 0.17,0 0.37,0.09 0.48,0.3 0.03,0.08 0.16,0.58 0.23,0.86 l 0.32,1.29 z"
         inkscape:connector-curvature="0"
         style="fill:#000000;stroke-width:0" /><path
         id="path9230"
         d="m 363.43,709.18 0.04,0 0.04,0 0.04,0 0.02,0.01 0.02,0 0.02,0 0.01,0 0.02,0 0.02,0.01 0.02,0 0.02,0 0.02,0.01 0.01,0.01 0.02,0 0.02,0.01 0.01,0.01 0.02,0.01 0.01,0.01 0.01,0.01 0.01,0.01 0.01,0.01 0.01,0.01 0,0.01 0.01,0 0,0.01 0.01,0.01 0,0.01 0,0.01 0.01,0.01 0,0.01 0,0.01 0,0.01 0.01,0.01 0,0.01 0,0.01 0,0.01 0,0.01 c 0,0.27 -0.25,0.27 -0.46,0.27 l -8.45,0 c -0.2,0 -0.46,0 -0.46,-0.25 0,-0.28 0.24,-0.28 0.46,-0.28 z"
         inkscape:connector-curvature="0"
         style="fill:#000000;stroke-width:0" /><path
         id="path9232"
         d="m 363.43,706.52 0.04,0 0.04,0 0.04,0 0.02,0 0.02,0 0.02,0 0.01,0 0.02,0.01 0.02,0 0.02,0 0.02,0.01 0.02,0 0.01,0.01 0.02,0 0.02,0.01 0.01,0.01 0.02,0.01 0.01,0.01 0.01,0.01 0.01,0.01 0.01,0.01 0.01,0.01 0,0.01 0.01,0.01 0,0 0.01,0.01 0,0.01 0,0.01 0.01,0.01 0,0.01 0,0.01 0,0.01 0.01,0.01 0,0.01 0,0.01 0,0.01 0,0.01 c 0,0.28 -0.25,0.28 -0.46,0.28 l -8.45,0 c -0.2,0 -0.46,0 -0.46,-0.26 0,-0.27 0.24,-0.27 0.46,-0.27 z"
         inkscape:connector-curvature="0"
         style="fill:#000000;stroke-width:0" /><path
         id="path9234"
         d="m 372.69,714.13 0.01,0.01 0,0 0,0.01 0,0.01 0,0.01 0.01,0.01 0,0.01 0,0.02 0.01,0.01 0,0.01 0,0.02 0.01,0.01 0,0.02 0,0.01 0,0.02 0.01,0.01 0,0.01 0,0 0,0.01 0,0.01 c 0,0.14 -0.15,0.14 -0.17,0.14 -0.02,0 -0.54,-0.04 -0.79,-0.07 -0.25,-0.01 -0.46,-0.04 -0.72,-0.06 -0.35,-0.03 -0.45,-0.04 -0.45,-0.3 0,-0.14 0.15,-0.14 0.29,-0.14 0.73,0 0.73,-0.13 0.73,-0.27 0,-0.06 0,-0.09 -0.07,-0.35 l -2.05,-8.21 c -0.06,-0.21 -0.06,-0.24 -0.06,-0.32 0,-0.32 0.25,-0.38 0.39,-0.38 0.4,0 0.49,0.32 0.6,0.76 l 0.68,2.69 c 1.03,-0.12 1.65,-0.55 1.65,-1.24 0,-0.08 0,-0.14 -0.05,-0.36 -0.05,-0.21 -0.05,-0.39 -0.05,-0.46 0,-0.83 0.54,-1.39 1.27,-1.39 0.66,0 1.01,0.6 1.12,0.81 0.3,0.53 0.49,1.33 0.49,1.39 0,0.07 -0.06,0.13 -0.15,0.13 -0.12,0 -0.14,-0.06 -0.2,-0.29 -0.2,-0.75 -0.5,-1.75 -1.23,-1.75 -0.29,0 -0.47,0.14 -0.47,0.69 0,0.27 0.05,0.59 0.11,0.8 0.06,0.26 0.06,0.27 0.06,0.44 0,0.85 -0.76,1.32 -2.08,1.5 0.52,0.31 1.03,0.87 1.23,1.09 0.82,0.92 1.38,1.38 2.04,1.38 0.33,0 0.42,-0.09 0.52,-0.18 -0.53,-0.06 -0.74,-0.43 -0.74,-0.72 0,-0.34 0.28,-0.45 0.48,-0.45 0.39,0 0.73,0.33 0.73,0.79 0,0.41 -0.33,0.84 -0.98,0.84 -0.79,0 -1.43,-0.56 -2.45,-1.71 -0.14,-0.17 -0.67,-0.71 -1.2,-0.91 z"
         inkscape:connector-curvature="0"
         style="fill:#000000;stroke-width:0" /><path
         id="path9236"
         d="m 382.02,710.4 -0.04,-0.01 -0.04,-0.01 -0.04,-0.01 -0.04,-0.01 -0.03,-0.01 -0.04,-0.02 -0.03,-0.01 -0.03,-0.02 -0.03,-0.02 -0.03,-0.02 -0.03,-0.02 -0.03,-0.02 -0.02,-0.02 -0.03,-0.02 -0.02,-0.03 -0.02,-0.02 -0.02,-0.02 -0.02,-0.03 -0.02,-0.03 -0.02,-0.02 -0.01,-0.03 -0.02,-0.03 -0.01,-0.02 -0.01,-0.03 -0.01,-0.03 -0.01,-0.03 -0.01,-0.03 0,-0.03 -0.01,-0.03 0,-0.03 0,-0.03 0,-0.03 c 0,-0.34 0.27,-0.45 0.47,-0.45 0.4,0 0.73,0.34 0.73,0.77 0,0.46 -0.44,0.86 -1.16,0.86 -0.57,0 -1.23,-0.26 -1.84,-1.13 -0.1,0.76 -0.67,1.13 -1.25,1.13 -0.55,0 -0.84,-0.43 -1.01,-0.74 -0.25,-0.52 -0.46,-1.38 -0.46,-1.45 0,-0.06 0.06,-0.13 0.15,-0.13 0.12,0 0.13,0.01 0.22,0.34 0.22,0.86 0.49,1.7 1.06,1.7 0.35,0 0.45,-0.25 0.45,-0.67 0,-0.31 -0.15,-0.87 -0.25,-1.32 l -0.4,-1.54 c -0.06,-0.28 -0.21,-0.92 -0.29,-1.18 -0.1,-0.37 -0.25,-1.05 -0.25,-1.12 0,-0.2 0.15,-0.36 0.37,-0.36 0.16,0 0.43,0.1 0.51,0.39 0.05,0.11 0.58,2.28 0.67,2.61 0.07,0.32 0.15,0.62 0.23,0.93 0.05,0.2 0.11,0.43 0.15,0.62 0.05,0.13 0.43,0.83 0.79,1.15 0.17,0.15 0.55,0.49 1.14,0.49 0.23,0 0.45,-0.05 0.64,-0.18 z"
         inkscape:connector-curvature="0"
         style="fill:#000000;stroke-width:0" /><path
         id="path9238"
         d="m 236.99,683.42 0.02,0 0.02,0 0.02,0 0.02,0 0.02,0 0.03,0 0.02,0 0.02,0 0.03,0.01 0.02,0 0.02,0 0.03,0.01 0.02,0.01 0.02,0 0.03,0.01 0.02,0.01 0.02,0.01 0.02,0.01 0.02,0.02 0.02,0.01 0.02,0.02 0.02,0.01 0.01,0.01 0.01,0.01 0,0.01 0.01,0.01 0.01,0.01 0,0.02 0.01,0.01 0.01,0.01 0,0.01 0.01,0.02 0,0.01 0.01,0.02 0,0.01 0,0.02 0.01,0.01 0,0.02 0,0.02 0,0.02 0,0.01 0,0.02 c 0,0.42 -0.37,0.42 -0.57,0.42 l -0.59,0 0,3.07 c 0.34,-0.39 0.87,-0.8 1.68,-0.8 l -0.07,0.83 c -1.08,0 -1.61,1.22 -1.61,1.93 l 0,1.14 c 0,0.82 0.8,1.62 1.74,1.62 1.03,0 1.86,-1.05 1.86,-2.34 0,-1.38 -0.98,-2.35 -1.99,-2.35 l 0.07,-0.83 c 1.52,0 2.85,1.36 2.85,3.18 0,1.77 -1.2,3.17 -2.69,3.17 -1.05,0 -1.71,-0.63 -1.84,-0.77 0,0.47 0,0.69 -0.57,0.69 l -0.95,0 c -0.2,0 -0.58,0 -0.58,-0.42 0,-0.42 0.38,-0.42 0.58,-0.42 l 0.59,0 0,-7.7 -0.59,0 c -0.2,0 -0.58,0 -0.58,-0.42 0,-0.41 0.38,-0.41 0.58,-0.41 z"
         inkscape:connector-curvature="0"
         style="fill:#000000;stroke-width:0" /><path
         id="path9240"
         d="m 255.09,691.61 0.02,0 0.02,0 0.02,0 0.02,0 0.02,0 0.03,0 0.02,0 0.03,0.01 0.02,0 0.03,0 0.02,0.01 0.03,0 0.02,0.01 0.03,0.01 0.02,0.01 0.03,0.01 0.02,0.01 0.03,0.01 0.02,0.02 0.02,0.01 0.02,0.02 0.02,0.02 0.01,0.01 0.01,0.01 0.01,0.01 0.01,0.01 0.01,0.01 0,0.02 0.01,0.01 0.01,0.02 0,0.01 0.01,0.01 0,0.02 0.01,0.02 0,0.01 0.01,0.02 0,0.02 0,0.02 0.01,0.02 0,0.02 0,0.02 0,0.02 c 0,0.47 -0.47,0.47 -0.69,0.47 l -4.94,0 c -0.21,0 -0.68,0 -0.68,-0.47 0,-0.46 0.44,-0.46 0.61,-0.46 z"
         inkscape:connector-curvature="0"
         style="fill:#000000;stroke-width:0" /><path
         id="path9242"
         d="m 255.02,689.43 0.02,0 0.02,0 0.03,0 0.02,0 0.03,0 0.02,0 0.03,0 0.03,0.01 0.03,0 0.02,0 0.03,0.01 0.03,0 0.03,0.01 0.03,0.01 0.03,0.01 0.02,0.01 0.03,0.01 0.03,0.01 0.02,0.02 0.03,0.01 0.02,0.02 0.02,0.02 0.01,0.01 0.01,0.01 0.01,0.02 0.01,0.01 0.01,0.01 0.01,0.01 0.01,0.02 0,0.01 0.01,0.02 0.01,0.01 0,0.02 0.01,0.02 0,0.01 0.01,0.02 0,0.02 0,0.02 0,0.02 0.01,0.02 0,0.02 0,0.02 c 0,0.46 -0.45,0.46 -0.62,0.46 l -5.08,0 c -0.18,0 -0.61,0 -0.61,-0.46 0,-0.47 0.47,-0.47 0.68,-0.47 z"
         inkscape:connector-curvature="0"
         style="fill:#000000;stroke-width:0" /><path
         id="path9244"
         d="m 269.76,685.78 0,0.02 0,0.02 0,0.01 -0.01,0.02 0,0.01 0,0.02 -0.01,0.01 0,0.01 -0.01,0.02 0,0.01 -0.01,0.01 0,0.01 -0.01,0.01 -0.01,0.01 -0.01,0.01 -0.01,0.01 -0.01,0.01 -0.01,0.02 -0.01,0.01 -0.01,0.01 -0.01,0.01 -0.01,0.01 -0.02,0.01 -0.01,0.01 -0.02,0.01 -0.01,0.01 -0.02,0.01 -0.01,0.01 -0.02,0.01 -0.02,0.02 -0.02,0.01 -0.01,0.01 c -1.98,1.36 -2.47,3.42 -2.47,4.81 0,1.36 0.46,3.43 2.47,4.82 0.2,0.14 0.3,0.2 0.3,0.39 0,0.14 -0.07,0.37 -0.42,0.37 -0.36,0 -1.42,-0.83 -2.08,-1.77 -0.8,-1.12 -1.2,-2.45 -1.2,-3.81 0,-1.59 0.57,-2.93 1.17,-3.77 0.66,-0.92 1.71,-1.8 2.11,-1.8 0.35,0 0.42,0.25 0.42,0.37 z"
         inkscape:connector-curvature="0"
         style="fill:#000000;stroke-width:0" /><path
         id="path9246"
         d="m 275.05,690.26 1.78,1.69 0.43,0 c 0.2,0 0.57,0 0.57,0.42 0,0.42 -0.37,0.42 -0.57,0.42 l -2.09,0 c -0.21,0 -0.59,0 -0.59,-0.42 0,-0.42 0.38,-0.42 0.59,-0.42 l 0.5,0 -2.33,-2.21 0,5.04 c 0,0.44 -0.08,0.59 -0.57,0.59 l -0.88,0 c -0.2,0 -0.58,0 -0.58,-0.42 0,-0.41 0.38,-0.41 0.58,-0.41 l 0.65,0 0,-7.11 -0.65,0 c -0.2,0 -0.58,0 -0.58,-0.41 0,-0.42 0.38,-0.42 0.58,-0.42 l 2.1,0 c 0.2,0 0.59,0 0.59,0.42 0,0.41 -0.39,0.41 -0.59,0.41 l -0.65,0 0,1.21 1.12,1.06 1.71,-2.27 c -0.46,0 -0.8,0 -0.8,-0.41 0,-0.42 0.38,-0.42 0.58,-0.42 l 1.61,0 c 0.2,0 0.58,0 0.58,0.42 0,0.41 -0.38,0.41 -0.58,0.41 l -0.39,0 z"
         inkscape:connector-curvature="0"
         style="fill:#000000;stroke-width:0" /><path
         id="path9248"
         d="m 282.55,690.52 2.03,0 c 0.19,0 0.65,0 0.65,0.46 0,0.47 -0.45,0.47 -0.65,0.47 l -2.03,0 0,2.05 c 0,0.19 0,0.65 -0.46,0.65 -0.48,0 -0.48,-0.45 -0.48,-0.65 l 0,-2.05 -2.05,0 c -0.18,0 -0.64,0 -0.64,-0.46 0,-0.47 0.44,-0.47 0.64,-0.47 l 2.05,0 0,-2.05 c 0,-0.19 0,-0.65 0.46,-0.65 0.48,0 0.48,0.45 0.48,0.65 z"
         inkscape:connector-curvature="0"
         style="fill:#000000;stroke-width:0" /><path
         id="path9250"
         d="m 290.13,694.95 0,0.02 0,0.02 0,0.03 0,0.02 -0.01,0.02 0,0.03 0,0.02 0,0.02 0,0.03 -0.01,0.02 0,0.03 -0.01,0.02 0,0.03 -0.01,0.02 -0.01,0.02 -0.01,0.03 -0.01,0.02 -0.01,0.02 -0.01,0.02 -0.02,0.02 -0.01,0.02 -0.02,0.02 -0.01,0.01 -0.01,0 -0.01,0.01 -0.01,0.01 -0.01,0.01 -0.01,0 -0.01,0.01 -0.02,0 -0.01,0.01 -0.01,0 -0.02,0.01 -0.01,0 -0.02,0.01 -0.01,0 -0.02,0 -0.02,0.01 -0.01,0 -0.02,0 -0.02,0 -0.02,0 c -0.24,0 -0.33,-0.13 -0.42,-0.32 -0.27,-0.61 -0.74,-1.37 -1.5,-1.43 -0.22,-0.01 -0.52,-0.04 -0.52,-0.42 0,-0.24 0.15,-0.41 0.46,-0.41 0.8,0 1.42,0.6 1.46,0.63 l 0,-6.16 -1.26,0 c -0.2,0 -0.59,0 -0.59,-0.41 0,-0.42 0.39,-0.42 0.59,-0.42 l 3.46,0 c 0.2,0 0.59,0 0.59,0.42 0,0.41 -0.39,0.41 -0.59,0.41 l -1.26,0 z"
         inkscape:connector-curvature="0"
         style="fill:#000000;stroke-width:0" /><path
         id="path9252"
         d="m 298.09,690.98 -0.01,0.21 -0.01,0.22 -0.01,0.23 -0.03,0.23 -0.04,0.24 -0.04,0.25 -0.06,0.24 -0.03,0.13 -0.04,0.13 -0.04,0.12 -0.04,0.13 -0.04,0.13 -0.05,0.13 -0.05,0.13 -0.06,0.13 -0.06,0.13 -0.06,0.13 -0.06,0.13 -0.07,0.13 -0.08,0.13 -0.08,0.13 -0.08,0.14 -0.08,0.13 -0.09,0.13 -0.1,0.13 c -0.49,0.66 -1.55,1.62 -1.98,1.62 -0.33,0 -0.41,-0.24 -0.41,-0.37 0,-0.18 0.1,-0.25 0.35,-0.42 1.75,-1.23 2.41,-3.16 2.41,-4.78 0,-1.29 -0.41,-3.4 -2.46,-4.82 -0.19,-0.13 -0.3,-0.2 -0.3,-0.39 0,-0.12 0.08,-0.37 0.41,-0.37 0.36,0 1.42,0.83 2.08,1.77 0.83,1.17 1.21,2.52 1.21,3.8 z"
         inkscape:connector-curvature="0"
         style="fill:#000000;stroke-width:0" /><path
         id="path9254"
         d="m 311.02,689.31 0,0.16 0.01,0.16 0.02,0.15 0.02,0.14 0.03,0.14 0.04,0.14 0.04,0.13 0.05,0.13 0.05,0.12 0.06,0.12 0.06,0.12 0.06,0.11 0.08,0.1 0.07,0.1 0.08,0.1 0.08,0.09 0.09,0.08 0.09,0.08 0.09,0.08 0.1,0.07 0.1,0.06 0.1,0.06 0.1,0.06 0.11,0.04 0.11,0.05 0.11,0.03 0.11,0.04 0.11,0.02 0.11,0.02 0.11,0.02 0.12,0.01 0.11,0 c 0.08,0 0.16,0 0.23,-0.01 0.05,-0.52 0.45,-0.56 0.55,-0.56 0.33,0 0.56,0.24 0.56,0.56 0,0.61 -0.61,0.84 -1.32,0.84 -0.96,0 -1.78,-0.43 -2.44,-1.23 l 0,0.56 c 0,0.44 -0.09,0.59 -0.57,0.59 l -1.45,0 c -0.2,0 -0.58,0 -0.58,-0.42 0,-0.42 0.38,-0.42 0.58,-0.42 l 1.09,0 0,-4.52 -1.09,0 c -0.2,0 -0.58,0 -0.58,-0.41 0,-0.42 0.38,-0.42 0.58,-0.42 l 3.52,0 c 0.21,0 0.58,0 0.58,0.42 0,0.41 -0.37,0.41 -0.58,0.41 l -1.5,0 z"
         inkscape:connector-curvature="0"
         style="fill:#000000;stroke-width:0" /><path
         id="path9256"
         d="m 331.96,692.67 0,0.01 0,0.01 0,0.03 0,0.02 0,0.02 0,0.02 0,0.02 0,0.01 0,0.02 0,0.02 0,0.01 0,0.02 -0.01,0.01 0,0.01 0,0.01 0,0.01 -0.01,0.01 0,0.01 0,0.01 -0.01,0.01 0,0 -0.01,0.01 -0.01,0.01 0,0 -0.01,0.01 -0.01,0 -0.01,0 -0.01,0.01 -0.01,0 -0.01,0 -0.01,0 -0.01,0 -0.01,0 c -0.12,0 -0.39,-0.32 -0.49,-0.44 -0.44,0.35 -0.89,0.44 -1.35,0.44 -1.74,0 -2.25,-0.95 -2.25,-1.73 0,-0.16 0,-0.67 0.54,-1.17 0.46,-0.4 0.95,-0.5 1.61,-0.63 0.79,-0.16 0.98,-0.2 1.33,-0.49 0.26,-0.21 0.45,-0.53 0.45,-0.93 0,-0.62 -0.36,-1.3 -1.62,-1.3 -0.95,0 -1.64,0.54 -1.95,1.98 -0.06,0.25 -0.06,0.27 -0.07,0.28 -0.03,0.06 -0.09,0.06 -0.13,0.06 -0.16,0 -0.16,-0.07 -0.16,-0.33 l 0,-1.95 c 0,-0.26 0,-0.33 0.14,-0.33 0.07,0 0.09,0.01 0.33,0.32 0.07,0.1 0.07,0.12 0.29,0.35 0.54,-0.67 1.32,-0.67 1.56,-0.67 1.51,0 2.25,0.83 2.25,1.96 0,0.78 -0.47,1.24 -0.6,1.37 -0.51,0.44 -0.9,0.53 -1.85,0.7 -0.43,0.09 -1.48,0.29 -1.48,1.15 0,0.44 0.3,1.1 1.6,1.1 1.56,0 1.65,-1.33 1.67,-1.78 0.02,-0.11 0.12,-0.11 0.16,-0.11 0.16,0 0.16,0.07 0.16,0.33 z"
         inkscape:connector-curvature="0"
         style="fill:#000000;stroke-width:0" /><path
         id="path9258"
         d="m 335.29,695.44 0,0.03 -0.01,0.04 0,0.03 -0.01,0.04 -0.01,0.03 0,0.03 -0.02,0.04 -0.01,0.03 -0.01,0.03 -0.02,0.03 -0.01,0.03 -0.02,0.03 -0.02,0.02 -0.02,0.03 -0.02,0.03 -0.02,0.02 -0.03,0.03 -0.02,0.02 -0.03,0.02 -0.03,0.02 -0.03,0.02 -0.03,0.02 -0.03,0.01 -0.03,0.02 -0.03,0.01 -0.03,0.01 -0.04,0.01 -0.03,0.01 -0.04,0 -0.03,0.01 -0.04,0 -0.04,0 c -0.37,0 -0.69,-0.3 -0.69,-0.69 0,-0.43 0.35,-0.7 0.69,-0.7 0.45,0 0.71,0.37 0.71,0.69 z"
         inkscape:connector-curvature="0"
         style="fill:#000000;stroke-width:0" /><path
         id="path9260"
         d="m 333.31,692.77 0,-0.42 c 0.92,0 1.04,-0.08 1.04,-0.78 l 0,-3.91 c 0,-0.64 -0.15,-0.64 -1.09,-0.64 l 0,-0.42 c 0.41,0.03 1.09,0.03 1.51,0.03 0.16,0 0.99,0 1.48,-0.03 l 0,0.42 c -0.93,0 -0.99,0.07 -0.99,0.63 l 0,5.28 z"
         inkscape:connector-curvature="0"
         style="fill:#000000;stroke-width:0" /><path
         id="path9262"
         d="m 344.33,690.81 0.01,0.01 0,0.01 0.01,0.02 0.01,0.02 0.01,0.02 0.01,0.03 0.02,0.02 0.01,0.03 0.02,0.04 0.02,0.03 0.02,0.04 0.03,0.04 0.02,0.04 0.03,0.05 0.02,0.04 0.03,0.05 0.03,0.04 0.04,0.05 0.03,0.05 0.03,0.05 0.04,0.05 0.04,0.05 0.04,0.05 0.04,0.05 0.04,0.05 0.04,0.05 0.05,0.05 0.04,0.05 0.05,0.04 0.04,0.05 0.05,0.04 0.05,0.05 c 0.37,0.34 0.86,0.57 1.42,0.57 0.57,0 0.78,-0.43 0.78,-1 0,-0.82 -0.59,-2.46 -0.88,-3.23 -0.13,-0.34 -0.2,-0.53 -0.2,-0.79 0,-0.64 0.45,-1.16 1.13,-1.16 1.34,0 1.84,2.11 1.84,2.19 0,0.08 -0.06,0.13 -0.14,0.13 -0.13,0 -0.15,-0.04 -0.22,-0.28 -0.33,-1.18 -0.87,-1.75 -1.43,-1.75 -0.15,0 -0.38,0.01 -0.38,0.47 0,0.36 0.16,0.79 0.25,0.99 0.28,0.79 0.89,2.39 0.89,3.21 0,0.86 -0.51,1.51 -1.6,1.51 -1.27,0 -1.95,-0.9 -2.2,-1.26 -0.05,0.81 -0.64,1.26 -1.27,1.26 -0.46,0 -0.77,-0.27 -1.02,-0.76 -0.25,-0.52 -0.45,-1.38 -0.45,-1.44 0,-0.05 0.05,-0.13 0.15,-0.13 0.12,0 0.13,0.02 0.22,0.35 0.23,0.88 0.49,1.69 1.06,1.69 0.33,0 0.44,-0.23 0.44,-0.66 0,-0.31 -0.14,-0.87 -0.24,-1.32 l -0.4,-1.55 c -0.06,-0.27 -0.22,-0.91 -0.29,-1.17 -0.1,-0.38 -0.26,-1.05 -0.26,-1.12 0,-0.2 0.16,-0.36 0.38,-0.36 0.17,0 0.37,0.08 0.48,0.3 0.03,0.07 0.16,0.57 0.23,0.86 l 0.32,1.29 z"
         inkscape:connector-curvature="0"
         style="fill:#000000;stroke-width:0" /><path
         id="path9264"
         d="m 363.41,691.25 0.02,0.01 0.02,0.01 0.02,0.01 0.01,0 0.02,0.01 0.02,0.01 0.01,0.01 0.01,0.01 0.02,0.01 0.01,0.01 0.01,0.01 0.01,0 0.01,0.01 0.01,0.01 0.01,0.01 0.01,0.01 0.01,0.01 0.01,0.01 0.01,0.01 0,0.01 0.01,0.01 0,0.01 0.01,0.01 0,0.01 0.01,0.02 0,0.01 0,0.01 0.01,0.01 0,0.01 0,0.01 0,0.01 0,0.02 c 0,0.14 -0.06,0.23 -0.29,0.33 l -7.9,3.73 c -0.2,0.1 -0.26,0.1 -0.29,0.1 -0.17,0 -0.28,-0.13 -0.28,-0.29 0,-0.17 0.11,-0.24 0.27,-0.32 l 7.53,-3.54 -7.5,-3.54 c -0.29,-0.13 -0.3,-0.25 -0.3,-0.33 0,-0.16 0.13,-0.29 0.28,-0.29 0.05,0 0.07,0 0.26,0.1 z"
         inkscape:connector-curvature="0"
         style="fill:#000000;stroke-width:0" /><path
         id="path9266"
         d="m 363.2,684.64 0.04,0 0.05,0 0.05,0 0.02,0 0.02,0 0.02,0 0.02,0.01 0.02,0 0.03,0 0.02,0.01 0.01,0 0.02,0.01 0.02,0 0.02,0.01 0.02,0.01 0.01,0.01 0.02,0.01 0.01,0.01 0.01,0.01 0.02,0.01 0.01,0.02 0,0.01 0.01,0 0,0.01 0.01,0.01 0,0.01 0,0.01 0.01,0.01 0,0.01 0,0.01 0,0.01 0.01,0.01 0,0.01 0,0.02 0,0.01 0,0.01 0,0.01 c 0,0.29 -0.3,0.29 -0.52,0.29 l -7.73,0 c -0.21,0 -0.51,0 -0.51,-0.29 0,-0.28 0.25,-0.28 0.5,-0.28 z"
         inkscape:connector-curvature="0"
         style="fill:#000000;stroke-width:0" /><path
         id="path9268"
         d="m 372.92,696.2 0,0.01 0,0 0,0.01 0,0 0.01,0.02 0,0.01 0.01,0.01 0,0.01 0,0.02 0.01,0.01 0,0.02 0,0.01 0,0.02 0.01,0.01 0,0.01 0,0.02 0,0 0,0.01 0,0.01 0,0 c 0,0.15 -0.14,0.15 -0.17,0.15 -0.02,0 -0.53,-0.04 -0.79,-0.07 -0.24,-0.02 -0.46,-0.05 -0.72,-0.06 -0.34,-0.03 -0.44,-0.04 -0.44,-0.3 0,-0.15 0.14,-0.15 0.29,-0.15 0.73,0 0.73,-0.12 0.73,-0.27 0,-0.05 0,-0.08 -0.07,-0.34 l -2.06,-8.21 c -0.05,-0.21 -0.05,-0.24 -0.05,-0.33 0,-0.31 0.24,-0.37 0.38,-0.37 0.41,0 0.49,0.32 0.61,0.76 l 0.67,2.68 c 1.03,-0.11 1.65,-0.54 1.65,-1.23 0,-0.09 0,-0.14 -0.04,-0.36 -0.06,-0.22 -0.06,-0.39 -0.06,-0.46 0,-0.83 0.54,-1.39 1.28,-1.39 0.66,0 1,0.6 1.12,0.8 0.3,0.53 0.48,1.34 0.48,1.39 0,0.08 -0.05,0.13 -0.14,0.13 -0.13,0 -0.14,-0.05 -0.2,-0.28 -0.2,-0.75 -0.5,-1.75 -1.23,-1.75 -0.29,0 -0.48,0.14 -0.48,0.68 0,0.28 0.06,0.59 0.12,0.81 0.05,0.26 0.05,0.27 0.05,0.44 0,0.85 -0.76,1.32 -2.08,1.49 0.52,0.32 1.04,0.88 1.24,1.1 0.82,0.91 1.37,1.37 2.03,1.37 0.34,0 0.42,-0.08 0.52,-0.17 -0.53,-0.06 -0.73,-0.43 -0.73,-0.72 0,-0.34 0.27,-0.46 0.47,-0.46 0.39,0 0.74,0.33 0.74,0.79 0,0.42 -0.34,0.85 -0.98,0.85 -0.79,0 -1.43,-0.56 -2.45,-1.71 -0.15,-0.17 -0.68,-0.71 -1.21,-0.92 z"
         inkscape:connector-curvature="0"
         style="fill:#000000;stroke-width:0" /><path
         id="path9270"
         d="m 382.27,692.47 -0.04,-0.01 -0.04,-0.01 -0.04,-0.01 -0.04,-0.01 -0.03,-0.02 -0.04,-0.01 -0.03,-0.02 -0.04,-0.01 -0.03,-0.02 -0.03,-0.02 -0.02,-0.02 -0.03,-0.02 -0.03,-0.02 -0.02,-0.03 -0.02,-0.02 -0.03,-0.02 -0.02,-0.03 -0.02,-0.02 -0.01,-0.03 -0.02,-0.02 -0.02,-0.03 -0.01,-0.03 -0.01,-0.03 -0.01,-0.02 -0.01,-0.03 -0.01,-0.03 -0.01,-0.03 -0.01,-0.03 0,-0.03 0,-0.03 -0.01,-0.03 0,-0.03 c 0,-0.34 0.28,-0.46 0.48,-0.46 0.4,0 0.73,0.35 0.73,0.78 0,0.46 -0.45,0.86 -1.16,0.86 -0.58,0 -1.24,-0.26 -1.84,-1.13 -0.1,0.76 -0.67,1.13 -1.25,1.13 -0.56,0 -0.84,-0.43 -1.02,-0.75 -0.24,-0.51 -0.45,-1.37 -0.45,-1.45 0,-0.05 0.05,-0.13 0.15,-0.13 0.12,0 0.13,0.02 0.22,0.35 0.21,0.86 0.49,1.69 1.06,1.69 0.34,0 0.44,-0.24 0.44,-0.66 0,-0.31 -0.14,-0.87 -0.24,-1.32 l -0.4,-1.55 c -0.06,-0.27 -0.22,-0.91 -0.29,-1.17 -0.1,-0.38 -0.26,-1.05 -0.26,-1.12 0,-0.2 0.16,-0.36 0.38,-0.36 0.15,0 0.43,0.1 0.51,0.39 0.05,0.11 0.58,2.28 0.66,2.61 0.08,0.31 0.16,0.61 0.23,0.93 0.06,0.2 0.12,0.43 0.16,0.62 0.04,0.13 0.43,0.83 0.79,1.14 0.17,0.16 0.54,0.49 1.13,0.49 0.23,0 0.46,-0.04 0.65,-0.17 z"
         inkscape:connector-curvature="0"
         style="fill:#000000;stroke-width:0" /></g>  </g>
</svg>
